<svg xmlns="http://www.w3.org/2000/svg" width="37.2" height="37.2" style="overflow:visible;enable-background:new 0 0 37.2 37.2" xml:space="preserve">
    <circle cx="18.6" cy="18.6" r="18.6" style="fill:#3aae36"/>
    <path d="m27.2 27.4-2.4 2.3c-.7 0-1.5-.2-2.3-.4-.8-.2-1.6-.5-2.4-.9-.8-.4-1.9-1.1-3.3-2-2-.4-3.6-1.3-4.9-2.8-1.3-1.5-1.9-3.3-1.9-5.3 0-2.4.8-4.5 2.5-6.1s3.8-2.4 6.3-2.4 4.6.8 6.3 2.4 2.5 3.6 2.5 6c0 2-.6 3.8-1.9 5.3-1.3 1.5-2.9 2.5-4.9 2.9l.6.2c1.9.7 3.3 1.1 4.2 1.1.4 0 1-.1 1.6-.3zM18.7 12c-1.8 0-3.4.6-4.6 1.8-1.2 1.2-1.8 2.7-1.8 4.5 0 1.8.6 3.2 1.8 4.4 1.2 1.2 2.7 1.8 4.6 1.8 1.8 0 3.3-.6 4.6-1.8 1.2-1.2 1.9-2.7 1.9-4.4 0-1.8-.6-3.3-1.8-4.4S20.6 12 18.7 12z" style="fill:#fff"/>
</svg>
