<svg xmlns="http://www.w3.org/2000/svg" width="1156.6" height="350" style="overflow:visible;enable-background:new 0 0 1156.6 350" xml:space="preserve">
    <style>
        .st0{fill:#1a1a1a}.st1{fill:#fff}.st2{fill:none;stroke:#fff;stroke-width:.75;stroke-miterlimit:10}
    </style>
    <circle class="st0" cx="175" cy="175" r="175"/>
    <path class="st1" d="M121.6 206.4c1.3 0 2.7-.1 4.2-.2s2.7-.2 3.7-.4l-.3 1c-.8.1-1.9.2-3.5.3s-2.9.1-4.1.1c-1.9 0-3.6-.3-4.9-.8-1.3-.6-2.3-1.4-2.8-2.4-.6 1.4-1.5 2.5-2.6 3.3-.2-.3-.4-.6-.7-.8.4-.3.8-.6 1.1-.9s.6-.7.9-1.1.5-.9.8-1.6c.3-.7.5-1.5.6-2.4h-2.3l-.2-.9c.2-.1.4-.3.5-.5.3-.4.6-.9 1-1.4.4-.6.7-1.1.9-1.5h-3.1v-.9h3.6l.1-.1c.3.2.6.4.8.7l-.2.1c-.8 1.5-1.6 2.7-2.2 3.6h1.5l.1-.1.8.7-.2.1c-.2 1-.4 1.8-.7 2.7.1.4.3.7.5 1 .2.3.6.6.9.9.4.3.9.5 1.4.8.6.2 1.3.4 2.1.5.8.2 1.6.2 2.3.2zm-7.6-13c-.3-.5-.7-1-1.2-1.6s-.9-1.1-1.3-1.5l.7-.6 1.3 1.3c.5.6.9 1.1 1.3 1.7l-.8.7zm2.3 4.3-.2-.4c-.1-.2-.2-.4-.3-.5.6-.2 1.2-.4 1.9-.7.6-.3 1.3-.6 1.9-.9.7-.4 1.2-.8 1.7-1.2H116v-.9h6v-2c-1.4.2-3 .3-4.6.3 0 0-.1-.1-.1-.3l-.3-.6c1.3 0 2.6-.1 3.9-.2 1.3-.1 2.5-.2 3.5-.4s1.8-.4 2.5-.5l.5.8-.4.1c-.5.1-1.1.2-1.9.4-.8.1-1.5.3-2.2.4v2.1h5.6v.9h-4.9c.6.6 1.4 1.1 2.3 1.6s1.9.9 2.9 1.2c-.1.1-.2.3-.3.5-.1.2-.2.3-.2.4-1-.3-2.1-.8-3.1-1.4-1-.6-1.8-1.3-2.5-2v3.1h-1v-3.1c-.4.4-1 .9-1.6 1.2-.6.4-1.3.8-2 1.1-.2.4-1 .8-1.8 1zm8 5.9c.6 0 1.2-.1 1.6-.2s.7-.3.9-.5c.1-.1.1-.2.2-.4s.1-.4.2-.7c0-.3 0-.5.1-.7h-3.6c.1-.3.3-1 .6-2.1h-2.5c-.3 1.4-.7 2.6-1.4 3.6s-1.6 1.7-2.8 2.2c-.2-.2-.4-.5-.7-.8.5-.2 1-.4 1.4-.7s.8-.7 1.1-1.1c.3-.4.6-.9.8-1.4.2-.5.4-1.1.5-1.8h-3.1v-.9h7l.1-.1c.4.3.6.5.8.6l-.1.1-.5 1.6h3.4v.4c0 .5-.1 1-.1 1.3 0 .4-.1.7-.2.9l-.3.6c-.2.3-.5.5-.9.7-.4.2-.9.3-1.5.4-.6.1-1.2.1-1.8.1-.1-.2-.2-.6-.5-1.1.3-.1.8 0 1.3 0zm19.3 2.8c1.2 0 2.5-.1 4-.2s2.7-.2 3.5-.4c0 0 0 .2-.1.5s-.1.5-.2.6c-.8.1-1.9.2-3.4.3-1.5.1-2.8.1-3.9.1-.9 0-1.8-.1-2.7-.2s-1.6-.3-2.2-.6c-.7-.3-1.2-.6-1.7-1s-.8-.9-1.1-1.4c-.6 1.4-1.5 2.5-2.6 3.4-.3-.3-.5-.6-.7-.8.4-.3.8-.6 1.2-1.1.4-.4.8-.9 1.1-1.5.3-.6.5-1.2.7-1.8.2-.6.3-1.2.4-1.9h-2.3l-.2-.8c.1 0 .2-.1.3-.2l.2-.2c.3-.4.6-.9 1-1.6s.7-1.3.9-1.8h-3.1v-.9h3.5l.1-.1.8.7-.2.1c-.3.7-.7 1.4-1.1 2.1-.4.7-.8 1.4-1.2 1.9h1.5l.1-.1.8.7-.2.1c-.2 1.1-.4 2-.7 2.9.1.2.2.5.3.8.2.3.4.6.7.9.3.3.7.6 1.2.8.5.2 1 .4 1.6.6l1.8.3c.9-.2 1.4-.2 1.9-.2zm-6.8-13.6-.8.7c-.3-.5-.7-1-1.2-1.6-.5-.6-.9-1.1-1.4-1.5l.7-.5c.4.3.8.8 1.3 1.4.6.4 1 .9 1.4 1.5zm2.3 11.7v-8.6h1.4v-6h8.5v6h1.4v7.2c0 .5-.2.8-.6 1s-1.2.3-2.4.3c-.1-.2-.2-.5-.5-1.1.3.1.7.1 1.3.1.2 0 .5 0 .7-.1s.4-.1.4-.2c.1-.1.1-.2.1-.3v-6.1H140v7.7h-.9zm2.3-13.6v5.1h2.9v-3.2h3.7v-1.9h-6.6zm.9 11.7v-4.1h4.6v4.1h-4.6zm3.6-3.3h-2.7v2.6h2.7v-2.6zm-.7-3.3h2.7v-2.4h-2.7v2.4zm26.5-1.3H157v3.1c0 2.1-.2 4-.5 5.7-.3 1.7-.7 3-1.2 3.8l-.8-.8c.5-.8.8-2 1.1-3.5.3-1.5.4-3.3.4-5.3v-3.8h17.2v.9c-.4-.1-.9-.1-1.5-.1zm-14.9-2.1v-2.8h6.3v2.8h-6.3zm8.1 6.6h-.7v8.5h-.9v-1.8l-5.4.8-.7.1-.2-.9.8-.1c.3 0 .7-.1 1.1-.1v-6.5h-1.3v-.8h3.4v-1.6h-2.9v-.8h7.3v.8H162v1.6h3.8v.8h-.9zm-2.8-8.7h-4.3v1.4h4.3v-1.4zm1.3 10.3v-1.6h-3.5v1.6h3.5zm0 2.2v-1.5h-3.5v1.5h3.5zm-3.6 2.6c1.3-.2 2.5-.3 3.5-.5v-1.4h-3.5v1.9zm10-1.5c.9 1.1 2.1 2.1 3.7 2.7l-.4.9c-.5-.2-1.1-.5-1.6-.9-.5-.3-1-.7-1.3-1.1-.4-.4-.7-.7-.9-1-.9 1.1-2.1 2.1-3.8 2.9-.2-.4-.4-.7-.5-.9 1.6-.6 2.9-1.6 3.7-2.8-.8-1.3-1.4-2.7-1.7-4.3-.4.6-.8 1.1-1.2 1.5-.3-.4-.5-.7-.6-.8.2-.2.4-.4.6-.7.2-.3.5-.7.7-1.1.2-.5.5-1 .7-1.6.2-.6.4-1.2.5-1.9l.9.2-.1.1c-.1.6-.3 1.2-.6 2h5.1v.9h-1.5c-.1 2.4-.7 4.3-1.7 5.9zm-4.3-11.5v-2.8h6.3v2.8h-6.3zm5.4-2.1h-4.3v1.4h4.3v-1.4zm-3.2 7.9-.1.2c.3 1.9.8 3.5 1.6 4.7.8-1.3 1.3-2.9 1.6-4.9h-3.1zm13.2-2.4v11.8h-1.1v-.8c0-2.4 0-6 .1-10.8-.4 1.5-.8 2.9-1.4 4.3-.5 1.3-1.1 2.4-1.7 3.2-.2-.4-.4-.7-.6-1.1.2-.3.5-.6.8-1.1.3-.5.6-1.1.9-1.8.3-.7.6-1.5 1-2.4s.6-1.8.8-2.6h-3.1v-1h3.3v-4.5c.3 0 .7 0 1.1.1v4.4h2.5v1H181v1l.4-.3c.7 1 1.4 2.3 2.2 3.8l-.7.7c-.8-1.7-1.5-3-2-3.9zm9.4.6c1.5 1.5 3.4 2.6 5.5 3.4 0 .1-.1.2-.2.4l-.3.6c-2.2-.9-4.1-2.2-5.8-3.8-1.9 1.8-4.2 3.2-6.9 4.2l-.2-.4c-.1-.2-.2-.4-.2-.5 0-.1-.1-.1-.1-.2.8-.2 1.5-.5 2.4-.9s1.6-.8 2.3-1.3 1.4-1 2-1.6c-.4-.5-.8-1-1.2-1.6s-.7-1.2-1-1.8c-.4.6-.9 1.2-1.4 1.7-.5.5-1 1-1.5 1.3-.3-.4-.6-.7-.7-.8.7-.5 1.4-1 2-1.8s1.1-1.5 1.6-2.2.8-1.6 1.1-2.4l1 .2-.1.1c-.3.8-.5 1.4-.8 1.9h4.8l.1-.1c.1.1.2.2.4.3s.3.3.5.4l-.2.1c-.4.8-.8 1.6-1.3 2.4s-1.1 1.7-1.8 2.4zm3.3 3.8v7.3h-1.1v-1.2h-6.1v1.2h-1v-7.3h8.2zm-7.2 5.3h6.1v-4.3h-6.1v4.3zm.9-13.5-.1.1c.3.6.6 1.2 1 1.8.4.6.9 1.2 1.4 1.7.4-.4.8-.9 1.3-1.5s.9-1.3 1.3-2.2h-4.9zm15.5 1.3h2.3v1h-2.3v4.2c1.3-.5 2.1-.8 2.4-.9v1c-.6.3-1.4.6-2.4.9v6.3c0 .5-.2.9-.7 1.1-.4.2-1.2.3-2.4.3l-.5-1.2c.4.1.9.1 1.3.1s.7 0 .9-.1c.2-.1.3-.2.3-.5V200l-2 .7-.7.3-.3-1.1c.4-.1.6-.1.7-.2.3-.1 1.1-.3 2.2-.8v-4.6h-2.8v-1h2.8v-4.2h1.1v4.4zm13.3 8.9 1 .6c-.1 1-.2 1.7-.4 2.2s-.4.8-.7 1.1-.7.5-1.1.6c-.5.2-1 .3-1.6.3s-1.1.1-1.7.1c-1.1 0-1.9 0-2.4-.1-.5 0-1-.1-1.3-.3-.5-.2-.9-.5-1-.9-.2-.4-.3-.9-.3-1.6v-14.1h9.2v8.8h-1.1v-1h-7.1v6.3c0 .5.1.8.3 1.1.2.3.5.4 1 .5.5.1 1.4.1 2.8.1 1.6 0 2.7-.2 3.4-.7.3-.3.6-.6.7-1.1.2-.2.3-1 .3-1.9zm-5.4-11h-3v5.9h3v-5.9zm4.1 5.9v-5.9h-3.1v5.9h3.1zm8.1-2.2v12.6h-1.1v-17.8h6.9v5.1h-5.8zm4.9-4.4h-4.9v1.4h4.9v-1.4zm-4.9 3.6h4.9v-1.5h-4.9v1.5zm5 4.8.7-.3c.2.3.4.6.7.9.3.4.5.8.7 1.1l-.7.3-.4-.6c-1.5.2-2.8.3-3.8.4l-.6.1-.2-.8c.2 0 .3-.1.5-.2.6-.4 1.3-1 2-1.7l-1.3.2-.6.1-.2-.8c.1 0 .3-.1.4-.3.3-.3.7-.7 1-1.1.4-.4.6-.8.8-1.2l.8.3-.1.1c-.6.7-1.1 1.4-1.8 2 .7-.1 1.3-.1 1.7-.2.4-.4.7-.7.9-1l.8.4-.2.2c-1 1.1-2.1 2.1-3.4 3 .7-.1 1.7-.2 2.9-.3-.1.1-.4-.2-.6-.6zm.6 2.9v-.5h1v2.3c0 .3-.1.7-.2 1-.1.3-.3.7-.7 1-.3.3-.8.6-1.3.9-.5.3-1.1.5-1.6.6 0-.1-.2-.3-.6-.7.7-.2 1.3-.4 1.8-.6.5-.2.9-.5 1.1-.8.2-.3.4-.5.5-.8-.5.1-1 .1-1.6.2s-1.1.1-1.5.1v-3.1c.1 0 .4 0 .9.1v2.1c.7 0 1.5-.1 2.3-.2V202zm6.8-1.4c-.4.1-1.1.1-2 .2-.9.1-1.6.2-2.1.2l-.6.1-.2-.8c.1 0 .3-.1.5-.2.2-.2.5-.4.9-.6.3-.3.7-.6 1.2-1l-1.4.2-.6.1-.2-.8c.1 0 .3-.1.4-.3.4-.3.7-.7 1.1-1.1.4-.4.6-.8.8-1.2l.8.3-.1.1c-.7.9-1.3 1.6-1.8 2 .8-.1 1.3-.1 1.7-.2.2-.2.3-.4.5-.6.2-.2.3-.4.4-.5l.8.4-.2.2c-.4.5-1 1-1.6 1.6-.6.6-1.2 1.1-1.8 1.5.9-.1 1.9-.2 3.1-.3l-.7-.9.7-.4c.6.8 1.2 1.5 1.6 2.2l-.7.4-.5-.6zm-.2 3.7v.5H232v2.7h-1v-6c.4 0 .7 0 .9.1v2.4h2.2v-2.2c.2 0 .5 0 .9.1v2.4zm3.3-13.5v15.3c0 .4-.1.7-.3.9-.2.2-.6.4-1.1.4-.5.1-1.1.1-1.6.1-.3-.6-.5-1-.5-1.1.4.1.8.1 1.3.1.3 0 .5 0 .7-.1.2 0 .4-.1.5-.2.1-.1.1-.2.1-.4V195h-5.9v-5.1h6.9l-.1.9zm-1-.1h-4.9v1.4h4.9v-1.4zm-4.9 3.6h4.9v-1.5h-4.9v1.5zm-171 26.4v18.2h-1.1V231h-2.2c0 1.8-.2 3.4-.7 4.8-.4 1.4-1.1 2.4-1.9 3l-.7-.9c.7-.6 1.3-1.4 1.7-2.6.4-1.1.6-2.6.6-4.3h-1.8v-1h5v-3h-3.7v-6.2h1v5.2h2.6v-6.1h1.1l.1.8zm1.8 8.9c0-.1-.3-.3-.6-.8.8-.1 1.6-.3 2.4-.6.8-.3 1.5-.5 2.1-.8-.7-.5-1.5-1.1-2.4-1.6l.6-.5c.3.2.8.4 1.3.7.5.3 1 .6 1.3.9.4-.2 1-.6 1.6-1-.9-.7-1.7-1.2-2.5-1.5l.5-.5c.3.2.8.4 1.3.7.5.3.9.6 1.3.8.9-.8 1.6-1.7 2.2-2.7h-5.3c-.7.6-1.3 1-2 1.4-.7.4-1.2.7-1.8.9l-.6-.8c1.3-.5 2.4-1.1 3.4-1.8s1.7-1.6 2.3-2.4c.2.1.5.2 1 .3l-.1.1c-.3.5-.7 1-1.2 1.5h4.8l.1-.1c.1.1.2.1.4.3s.3.3.5.4l-.2.1c-.4.8-1 1.6-1.6 2.4s-1.4 1.4-2.2 2.1-1.8 1.2-2.9 1.6c-1.3.3-2.5.7-3.7.9zm10 1h1.2v1h-3.1v5.7c0 .3-.1.6-.3.9-.2.2-.5.4-1 .5s-1.3.2-2.4.2l-.6-1.1c.2 0 .4.1.8.1h.9c.5 0 .8 0 1.1-.1.3-.1.5-.3.5-.6v-5.5H63v-1h7.4v-2.3h1.1v2.2h1.8zm-5.4 4.2-.7.8c-.4-.4-1-.8-1.6-1.2-.7-.4-1.2-.7-1.7-.9l.6-.7c.4.2.9.4 1.6.8l1.8 1.2zm26.5-9.3v13.2h-1.1v-1.3h-13v1.3h-1.1v-14.1h7.1v-4.3h1.1v4.3h7.1l-.1.9zm-8.2.1h-6v4.9h6v-4.9zm-5.9 10.8h6v-5h-6v5zm13-10.8h-6v4.9h6v-4.9zm-6 10.8h6v-5h-6v5zm28.7-14.3h-13.7v5.9c0 2.3-.2 4.4-.7 6.3-.4 1.9-1 3.3-1.8 4.2l-.9-.8c.7-.9 1.2-2.2 1.7-3.9.4-1.7.6-3.7.6-5.9v-6.8h16.2v1H116zm-8.9 11.4-.1.2c-.2.4-.5.8-.8 1.3-.4.5-.8 1-1.3 1.5s-1 .9-1.5 1.3c-.4-.4-.7-.6-.8-.7.7-.4 1.4-1 2-1.7.7-.7 1.2-1.5 1.6-2.2.1 0 .5.1.9.3zm3.9-1.9v5.6c0 .3-.1.5-.2.7-.1.2-.3.3-.6.5-.3.1-.7.2-1.1.3-.5.1-1.1.1-1.8.1l-.6-1.1c.4.1 1 .1 1.7.1.4 0 .8 0 1.1-.1.3-.1.4-.3.4-.6v-5.4h-5.1v-6.9h4.2c.5-.9.8-1.8 1-2.5l1.1.3s-.1.1-.1.2c-.2.6-.5 1.2-.8 1.9h5.5v6.9H111zm3.6-6h-8.7v2.1h8.7v-2.1zm-8.7 3v2.2h8.7v-2.2h-8.7zm8.7 4.4c.5.4 1 1 1.7 1.7s1.3 1.5 2 2.3l-.9.7c-.5-.7-1-1.4-1.7-2.1s-1.3-1.4-2-2l.9-.6zm23.9-10.1H124v5.4c0 2.2-.2 4.2-.5 6-.4 1.8-.8 3.1-1.4 4-.4-.3-.6-.6-.9-.7.6-.9 1-2.1 1.3-3.7s.5-3.5.5-5.6V222h8.2c-.2-.5-.6-1-1-1.6l.9-.4c.2.3.4.6.7 1 .2.4.4.7.6 1.1h7.7v1c-.4-.2-.9-.2-1.6-.2zm-6.5 5.3v8.9c0 .3-.1.6-.3.7-.2.2-.5.3-.9.4-.4.1-.8.1-1.3.1l-.4-1c.4.1.7.1 1.1.1.3 0 .5 0 .7-.1.2-.1.3-.2.3-.4V229h-5v9.6h-.9v-10.4h3.1v-4.4c.4 0 .8 0 1 .1v4.3h2.6zm-5.6-.7c-.3-.8-.6-1.7-1.1-2.7l.8-.2c.2.3.3.8.5 1.3s.4 1 .5 1.4l-.7.2zm1.3 7.5v1h-.7v-5.3h3v4.4h-2.3zm1.6-3.7h-1.6v3.1h1.6v-3.1zm.7-3.9c.2-.3.5-.8.7-1.3.3-.6.5-1.1.6-1.6l.8.3-.1.2c-.1.4-.3.9-.6 1.4-.3.5-.5 1-.7 1.4l-.7-.4zm6.8 7.2c.8 1.4 2 2.5 3.4 3.2-.1.3-.3.6-.4.9-.5-.3-1-.6-1.5-1s-.9-.8-1.2-1.2c-.3-.4-.6-.8-.8-1.1-.4.7-.9 1.3-1.5 1.8-.6.6-1.2 1-1.9 1.4l-.4-.9c.8-.4 1.5-.9 2-1.5.5-.5 1-1.1 1.3-1.8-.8-1.4-1.3-3.2-1.6-5.3-.3.7-.7 1.2-1 1.6l-.6-.8c.5-.5 1-1.4 1.5-2.6s.9-2.4 1.1-3.7l.9.2-.1.2c-.2.9-.5 1.8-.8 2.9h4.7v.9h-1.4c-.2 2.6-.8 4.9-1.7 6.8zm-2-6.7c.3 2.3.8 4.2 1.5 5.7.8-1.6 1.2-3.5 1.4-5.9h-2.9v.2zm9.6-4.1h6.5v.9h-7.4v-.9h.9zm5.8 8.7v6.3h-.9v-1.2h-4v1.2h-1v-6.3h5.9zm-1.1-4.9h-4.6v-.9h5.4v.9h-.8zm-4.5 2.9v-.9h5.4v.9h-5.4zm.7 6.3h4v-3.4h-4v3.4zm3.2-13.9-.9.5c-.5-1-1.1-2-1.7-2.7l.8-.5c.3.3.5.7.9 1.2l.9 1.5zm2.7 13.5c.3-.5.7-1.1 1-2.1.3-.9.6-1.8.7-2.5l.9.4-.1.1c-.2 1-.4 1.9-.7 2.7-.3.9-.6 1.6-.9 2.1l-.9-.7zm.6-7.7c.3-.1.7-.3 1.1-.6.4-.3.8-.6 1.2-1 .4-.4.8-.8 1.1-1.3-.9-.5-1.8-1-2.9-1.4.1-.2.3-.5.5-.7 1 .4 1.9.8 2.8 1.3.2-.3.3-.7.4-1.1.1-.4.2-.7.2-1.1s.1-.6.1-.9h-4.2v-.9h9.5v.4c0 1.8 0 3.2-.1 4.1 0 .9-.2 1.6-.3 2-.2.5-.5.9-1 1.1s-1.1.3-1.9.3c0-.1-.1-.3-.2-.5l-.3-.6c.1 0 .3.1.6.1h.6c.4 0 .6-.1.9-.2.2-.1.4-.4.5-.6.1-.2.1-.5.2-.8s.1-.8.1-1.4c0-.6 0-1.6.1-2.9h-3.4c-.1 1.7-.5 3.2-1.4 4.5s-2 2.4-3.4 3l-.8-.8zm6.8 8.5c.2-.2.3-.5.3-.9s.1-1 .1-1.8c.1 0 .2.1.3.2.2.1.4.2.6.4 0 .7 0 1.2-.1 1.6s-.2.8-.4 1.1c-.2.3-.5.5-.8.6-.4.1-.8.2-1.4.2-.4 0-.8 0-1.1-.1-.3 0-.6-.1-.9-.2-.4-.2-.5-.7-.5-1.5V231l1 .1v5.8c0 .4.2.6.5.7.2 0 .5.1 1.1.1.3 0 .5 0 .8-.1.2-.1.3-.3.5-.4zm-2.2-8.2c.4.3.8.7 1.2 1.2.4.5.8.9 1.1 1.4l-.7.7c-.2-.4-.6-.9-1-1.4s-.9-.9-1.2-1.2l.6-.7zm4.3 2.5c.3.5.7 1.2 1 2.1s.7 1.7.9 2.5l-.9.5c-.1-.4-.2-.8-.4-1.4s-.4-1.1-.7-1.8c-.3-.6-.5-1.2-.8-1.6l.9-.3zm10.7-6.7h-5.7v-.9h6.6v.9h-.9zm.3 7.7v6.2h-.9v-1.1h-3.6v1.1h-1v-6.2h5.5zm-.3-5.8v.9h-5.1v-.9h5.1zm-4.2 2.9h4.3v.9h-5.1v-.9h.8zm-.1 7h3.6v-3.3h-3.6v3.3zm2.9-13.7-.9.5c-.2-.4-.4-.9-.7-1.4-.3-.5-.6-1-.8-1.3l.9-.5c.3.4.5.8.8 1.3l.7 1.4zm8.1-1.8c-.2.7-.5 1.4-.9 2.1l-1.2 2.1c-.5.7-1 1.3-1.5 1.8s-1.1 1-1.7 1.3c-.2-.3-.4-.5-.6-.8.3-.1.5-.3.9-.5s.7-.5 1.1-.9c.4-.4.7-.7 1-1.2-.6-.6-1.3-1.2-1.8-1.6l.5-.6c.3.2.6.5.9.8.3.3.6.5.8.8.3-.4.5-.9.8-1.4.3-.5.5-1 .6-1.5h-3.8v-.9h4.1l.1-.1c.3.2.6.4.8.6h-.1zm2.1 16.2h4.1v1h-11.5v-1h6.4c.2-.4.4-1 .7-1.6.3-.7.5-1.2.7-1.7l.9.3-.1.2c-.1.4-.3.8-.5 1.4-.3.5-.5 1-.7 1.4zm2.1-8.3v4.3h-7.7V229h7.7zm-5.7 8c-.2-.4-.3-.9-.5-1.4s-.4-.9-.6-1.3l.8-.3c.4 1 .8 1.8 1 2.6l-.7.4zm-1-4.5h5.8v-2.7h-5.8v2.7zm5.3-5.3h-5v-.9h5v.9zm2.9 1.1c-1.1-.8-2.1-2-3.1-3.4-.9-1.4-1.6-2.9-2-4.4l.8-.2c.1.3.2.6.3 1s.3.7.4 1c.9-.8 1.4-1.4 1.7-1.7.3.2.5.4.6.6l-.2.1c-.6.7-1.2 1.2-1.8 1.7.3.6.6 1.1 1 1.7.3-.3.7-.6 1.1-1s.7-.7.9-1l.2.2c.1.1.3.2.4.4l-.2.1c-.5.6-1.2 1.2-2 1.9.3.4.7.8 1.1 1.2.4.4.8.7 1.2 1l-.4.8zm11.2-4.9v12.9h-1v-1.1h-4.1v2h-1v-13.9h1.9c.1-.2.2-.6.4-1.1.2-.5.3-.9.3-1.3.1-.4.1-.7.1-.8l1.1.2-.1.2c-.1.4-.2.9-.4 1.4-.2.5-.3 1-.5 1.4h3.3zm-1 1h-4.1v4.4h4.1v-4.4zm-4.1 10h4.1v-4.7h-4.1v4.7zm15.6-10.9v.4c0 3.7-.1 6.5-.2 8.4s-.4 3.3-.7 4c-.1.1-.2.3-.3.5-.1.2-.3.4-.6.6-.3.2-.5.3-.8.5-.3.1-.7.2-1.2.3s-1.1.1-1.9.1c0 0 0-.1-.1-.3 0-.1-.1-.3-.2-.5s-.2-.4-.2-.5c.2 0 .4.1.6.1h.6c.9 0 1.6-.1 2.1-.4.5-.2.9-.6 1.1-1.1.2-.3.3-.8.4-1.4s.2-1.7.3-3.2c.1-1.5.1-3.7.1-6.7h-5.9c-.2.3-.3.7-.6 1s-.5.8-.7 1.1c-.3.4-.5.7-.8 1-.2-.2-.4-.4-.8-.7.5-.5 1-1.1 1.5-2 .5-.9.9-1.7 1.3-2.5.3-.8.6-1.5.7-2.2l1 .2-.1.1c-.3 1-.6 1.9-1.1 2.9h6.5zm-3.7 8.6-.9.6c-.3-.6-.7-1.2-1.2-2s-1-1.4-1.4-1.8l.8-.6c.3.3.8.9 1.3 1.6.5.8 1 1.5 1.4 2.2zm12.3-10.9c1.2.9 2.3 1.9 3.3 2.9l-.5.9c-.5-.5-1-1.1-1.5-1.6s-1.1-1-1.6-1.4c-.5.8-1 1.6-1.6 2.4-.6.7-1.2 1.3-1.8 1.8-.1-.3-.3-.6-.5-.9.7-.5 1.3-1.2 2-2.2.7-.9 1.2-1.9 1.6-2.8l1 .2-.1.2-.3.5zm.2 9.1v5.9c1.6-.4 2.6-.7 2.8-.8 0 .3-.1.6-.1 1-.4.1-1.3.4-2.7.8-1.4.4-2.4.7-3.2.8l-.7.2-.3-1 .8-.1c.9-.2 1.6-.4 2.4-.6v-6.2h-2.7v-.9h2.7v-2.9h-1.8v-.9h4.4v.9h-1.7v2.9h2.5v.9h-2.4zm-2 4.7-.7.3c-.1-.5-.2-1.1-.4-1.7-.2-.6-.3-1.2-.5-1.6l.8-.2c.4 1.4.7 2.5.8 3.2zm3.6-.2c-.1-.1-.4-.1-.7-.2.1-.3.3-.8.5-1.4.2-.7.3-1.3.4-1.8l.7.3-.1.2c-.1.4-.2.9-.4 1.5-.1.5-.3 1-.4 1.4zm5.1-10.6-.8.5c-.2-.6-.5-1.2-.9-1.9s-.7-1.3-1-1.8l.9-.5c.3.5.6 1 .9 1.7.3.8.6 1.5.9 2zm6.2 1.5v11.4c0 .6-.3 1-.9 1.2s-1.5.3-2.7.3c-.1-.2-.3-.5-.6-1.1.7.1 1.2.1 1.6.1.4 0 .8 0 1.1-.1.3-.1.4-.3.4-.5v-3.1h-6.5v4.9h-1.1v-13.1h3.8v-5.5h1.1v5.5h3.8zm-1 .9h-6.5v2.8h6.5v-2.8zm-6.6 6.4h6.5v-2.8h-6.5v2.8zm7.1-12.5.9.4-.1.2c-.4.9-.7 1.7-1.1 2.4-.4.7-.6 1.1-.8 1.3l-.8-.5c.3-.5.7-1.1 1-1.8.4-.7.7-1.4.9-2zm21.2 9.9h1.3v.8h-14.6v-7.3c-.8.7-1.7 1.4-2.4 1.9l-.7-.8c1-.6 2-1.3 2.9-2.2.9-.9 1.7-1.7 2.3-2.7l.9.4-.1.2c-.5.7-1 1.3-1.6 1.9h5.4c-.2-.3-.4-.7-.7-1s-.5-.7-.7-.9l.8-.5c.5.6 1 1.3 1.5 2.1l-.5.3h7.1v.8H242v1.8h6.1v.8H242v1.8h6.1v.8H242v1.9h5.9zm-.1 2.2v6.2h-1v-1.1h-11.2v1.1h-1.1v-6.2h13.3zm-12.2 4.3h11.2v-3.4h-11.2v3.4zm.1-13.5v1.8h5.4v-1.8h-5.4zm5.3 4.4V226h-5.4v1.8h5.4zm-5.3.7v1.9h5.4v-1.9h-5.4zm27.5 8.6H258v1.2h-.9v-6.9c-.4.6-.7 1.1-.9 1.4-.1-.2-.2-.4-.5-.7-.1 1.3-.3 2.4-.6 3.5-.2 1.1-.5 2-.9 2.8l-.8-.8c.3-.8.6-1.7.8-2.8.2-1.1.4-2.2.5-3.4s.1-2.2.1-3.1v-7.1l.7.3c1 0 2.1-.1 3.3-.2 1.1-.1 2.3-.3 3.6-.5l.6.8h-.5c-2.6.3-4.8.5-6.7.6v1.4h7v3.7h-7v.9c0 1.2-.1 2.5-.2 3.7.2-.2.4-.5.6-.9.2-.4.5-.9.8-1.5.3-.6.5-1.2.7-1.9l.9.2-.1.1c-.2.6-.4 1.1-.6 1.5h2.3c-.1-.2-.3-.5-.5-.8-.2-.3-.4-.5-.5-.7l.8-.3c.4.5.8 1 1.2 1.6l-.5.2h2.3v.8h-2.2v1.5h2v.7h-2v1.4h2v.8h-2v1.6h2.4v.9zm-7.2-12.6v2.1h6v-2.1h-6zm2 5.9v1.5h2v-1.5h-2zm2 3.6v-1.4h-2v1.4h2zm-2 .7v1.6h2v-1.6h-2zm4.8 3.2c.4-.2.8-.4 1.3-.7.5-.3.9-.6 1.4-1 .4-.4.8-.7 1-1l.8.6c-.5.5-1.1 1.1-1.7 1.6s-1.4 1-2.1 1.3l-.7-.8zm4.6-15.6h-3.8v-.9h9v.9h-4.2c-.3.9-.5 1.7-.8 2.4h4v9.9h-7.1v-9.9h2.1c.3-.9.6-1.6.8-2.4zm3.2 5.3v-2.2h-5.1v2.2h5.1zm-5.2.8v2.1h5.1v-2.1h-5.1zm0 5.3h5.1v-2.4h-5.1v2.4zm4.1 1.5c.5.3 1 .7 1.6 1.2.6.5 1.2 1 1.6 1.4l-.6.7c-.4-.4-.9-.9-1.5-1.4l-1.8-1.5.7-.4zm8.7-7.5v11H277v-17.8h6.9v6.7h-5.7zm4.7-5.9h-4.7v2.1h4.7v-2.1zm-4.7 5.1h4.7v-2.1h-4.7v2.1zm10.4 3v5.5H283v1.8h-1v-7.3h6.6zm-5.7 4.6h4.6v-3.7h-4.6v3.7zm10.6-12.7V237c0 .6-.3 1-.8 1.2s-1.4.3-2.6.3c0-.1-.1-.3-.3-.6-.2-.3-.3-.5-.3-.6.1 0 .3.1.7.1h.8c.4 0 .7 0 1-.1.3-.1.4-.2.4-.5v-9.1h-5.8V221h6.9v.8zm-1.1 0h-4.7v2.1h4.7v-2.1zm-4.7 5.1h4.7v-2.2h-4.7v2.2zM51.2 261.8v6.4c0 .5-.2.9-.7 1.1s-1.2.3-2.3.3l-.5-1.2c.5.1.9.1 1.3.1s.7 0 .9-.1c.2-.1.3-.2.3-.5v-5.7l-2 .7-.7.3-.3-1.1.7-.2c.3-.1 1-.3 2.2-.7v-4.7h-2.8v-1h2.8v-4.2c.3 0 .6 0 1.1.1v4.2h2.3v1h-2.3v4.3c1.4-.5 2.1-.8 2.3-.9v1c-.3 0-1.1.3-2.3.8zm10.5 6.8c1.9 0 3.3-.1 4.5-.2l-.3 1c-.9.1-2.4.1-4.4.1-.5 0-1.1 0-1.7-.1-.6-.1-1.1-.3-1.6-.5s-.9-.5-1.3-.8c-.4-.3-.7-.6-1-1-.3-.4-.5-.8-.7-1.3-.2.4-.4.9-.6 1.4l-.9 1.5c-.3.5-.7.9-1 1.2l-.8-.7c.3-.3.7-.7 1-1.2.3-.5.7-1 1-1.6.3-.6.6-1.3.8-2s.4-1.5.5-2.2l1 .3s-.1.1-.1.2c-.1.7-.2 1.4-.4 1.9.2.9.5 1.7 1.1 2.3.6.6 1.3 1.1 2.3 1.4v-7.1H54v-1h11.7v1H60v3h4.4v.9H60v3.4c.2 0 .4.1.8.1h.9zm-6.4-10.1v-6.7H64v6.7h-8.7zm7.6-5.9h-6.6v2.1h6.6v-2.1zm-6.6 5.1h6.6v-2.2h-6.6v2.2zm16.4-1.9v13.9h-1.2v-5c0-1.9.1-4.4.2-7.4l-1.2 2.1c-.4.7-.9 1.3-1.4 1.8-.1-.3-.3-.6-.6-1 .6-.7 1.2-1.5 1.8-2.5.6-1 1.2-2.1 1.7-3.2.5-1.2 1-2.4 1.3-3.5l1 .4-.1.1c-.3 1.4-.9 2.9-1.5 4.3zm14 7H88v1H74v-1h3.8v-5.6h-3v-1h3v-4.8c.5 0 .9 0 1.2.1v4.8h4v-4.9c.6 0 1 0 1.2.1v4.8h3.4v1h-3.4v5.6h2.5zm-12.6 6c.8-.4 1.7-1.1 2.5-1.8.8-.8 1.5-1.5 1.9-2.1l.8.7c-.5.7-1.1 1.5-1.9 2.2-.8.8-1.7 1.4-2.5 2l-.8-1zm4.8-11.6v5.6H83v-5.6h-4.1zm4.7 7.5c.6.5 1.3 1.2 2 2 .8.8 1.4 1.5 1.9 2.2l-.8.9c-1.1-1.4-2.5-2.9-4-4.4l.9-.7zm15.7 1.4c1.5.9 3.2 1.5 5.1 2 1.9.4 3.8.6 5.9.6 0 .1-.1.4-.3 1-.8 0-1.6 0-2.6-.1s-1.8-.2-2.7-.4c-.9-.2-1.6-.4-2.3-.6-.7-.2-1.4-.5-2-.8-.7-.3-1.3-.6-1.8-1-.6.5-1.2.9-2 1.3s-1.6.7-2.3 1c-.8.2-1.5.4-2.1.5 0 0 0-.1-.1-.1 0-.1-.1-.2-.3-.4s-.2-.3-.2-.4c1.2-.2 2.4-.6 3.5-1s2-.9 2.7-1.5c-1-.7-1.8-1.4-2.6-2.2l.8-.6c.7.8 1.5 1.5 2.5 2.2.9-.8 1.4-1.8 1.7-2.9h-6v-7h6.1v-2.5h-8.6v-1h18.2v1h-8.7v2.5h6.3v7h-6.4c-.1.4-.2.9-.4 1.3s-.4.8-.7 1.2c-.2.4-.4.7-.7.9zm.9-9.6h-5v2.2h5v-2.2zm-5 5.4h5v-2.4h-5v2.4zm11.2-5.4h-5.2v2.2h5.2v-2.2zm-5.2 5.4h5.2v-2.4h-5.2v2.4zm19.9-6.4c-.4 3.2-1.1 5.9-2.1 8.1 1.2.8 2 1.4 2.4 1.8l-.7 1c-.2-.2-.5-.5-.9-.8-.4-.3-.9-.7-1.4-1.1-1.2 2.1-2.9 3.7-4.9 4.8 0 0 0-.1-.1-.1 0-.1-.1-.2-.3-.4s-.2-.3-.2-.3c2-1 3.5-2.5 4.7-4.5-1.3-1-2.4-1.7-3.4-2.3.2-.4.4-1.1.7-2 .3-.9.6-2 .9-3.3h-2.5v-1h2.7c.5-2.1.7-3.6.8-4.5.4 0 .8.1 1.1.1-.1.2-.1.3-.1.5-.3 1.4-.5 2.7-.8 3.9h4.1zm-5.6 5.9c.6.3 1.5.9 2.7 1.7.4-.9.8-1.9 1.2-3 .3-1.1.6-2.3.7-3.6h-3.2c-.5 1.7-.9 3.3-1.4 4.9zm15.7-1.3h1.1v1H128c.2 1.3.3 2.6.3 4 0 .9 0 1.6-.1 2-.1.5-.2.9-.3 1.2-.1.3-.4.6-.7.8-.3.2-.8.3-1.5.3s-1.2 0-1.6-.1c-.1-.2-.2-.6-.4-1.1.2 0 .5.1.9.1s.7.1 1 .1c.5 0 .9-.1 1.1-.3.2-.2.4-.5.5-1 .1-.5.1-1.2.1-2.2 0-1.4-.1-2.7-.3-3.9h-5.2v-1h5c-.3-1.4-.7-2.4-1.2-2.9l.8-.1c.7-.4 1.3-1 2-1.6.7-.6 1.3-1.3 1.8-1.9h-7.8v-1h8.2l.1-.2c.4.3.8.6 1 .8l-.2.1c-.5.8-1.2 1.6-2 2.4-.8.8-1.6 1.5-2.4 2.1.3.6.6 1.4.8 2.4h3.3zm11.5-5.7v12.9h-1v-1.1h-4.1v2h-1v-13.9h1.9c.1-.2.2-.6.4-1.1.2-.5.3-.9.3-1.3.1-.4.1-.7.1-.8l1.1.2-.1.2c-.1.4-.2.9-.4 1.4-.2.5-.3 1-.5 1.4h3.3zm-1 1h-4.1v4.4h4.1v-4.4zm-4.1 10h4.1v-4.7h-4.1v4.7zm15.6-10.9v.4c0 3.7-.1 6.5-.2 8.4s-.4 3.3-.7 4c-.1.1-.2.3-.3.5-.1.2-.3.4-.6.6-.3.2-.5.3-.8.5-.3.1-.7.2-1.2.3s-1.1.1-1.9.1c0 0 0-.1-.1-.3 0-.1-.1-.3-.2-.5s-.2-.4-.2-.5c.2 0 .4.1.6.1h.6c.9 0 1.6-.1 2.1-.4.5-.2.9-.6 1.1-1.1.2-.3.3-.8.4-1.4s.2-1.7.3-3.2c.1-1.5.1-3.7.1-6.7h-5.9c-.2.3-.3.7-.6 1s-.5.8-.7 1.1c-.3.4-.5.7-.8 1-.2-.2-.4-.4-.8-.7.5-.5 1-1.1 1.5-2 .5-.9.9-1.7 1.3-2.5.3-.8.6-1.5.7-2.2l1 .2-.1.1c-.3 1-.6 1.9-1.1 2.9h6.5zm-3.8 8.6-.9.6c-.3-.6-.7-1.2-1.2-2s-1-1.4-1.4-1.8l.8-.6c.3.3.8.9 1.3 1.6.6.8 1 1.5 1.4 2.2zm24.1-1.7h1.3v.8h-14.6v-7.3c-.8.7-1.7 1.4-2.4 1.9l-.7-.8c1-.6 2-1.3 2.9-2.2.9-.9 1.7-1.7 2.3-2.7l.9.4-.1.2c-.5.7-1 1.3-1.6 1.9h5.4c-.2-.3-.4-.7-.7-1s-.5-.7-.7-.9l.8-.5c.5.6 1 1.3 1.5 2.1l-.5.3h7.1v.8h-6.8v1.8h6.1v.8h-6.1v1.8h6.1v.8h-6.1v1.9h5.9zm-.1 2.2v6.2h-1v-1.1h-11.2v1.1h-1.1v-6.2h13.3zm-12.2 4.3h11.2v-3.4h-11.2v3.4zm.1-13.5v1.8h5.4v-1.8h-5.4zm5.3 4.4V257h-5.4v1.8h5.4zm-5.3.7v1.9h5.4v-1.9h-5.4zm35.4-5.5h1.6v1h-18.8v-1h6.6c-.3-.4-.6-.9-1-1.4-.4-.5-.7-.9-1-1.3l1-.4c.3.4.7.8 1.1 1.4.4.5.7 1 1 1.4l-.5.2h3.8c.3-.4.7-1 1-1.6.4-.6.7-1.2.8-1.7l1.2.5c-.1 0-.1.1-.2.2-.2.4-.5.9-.8 1.4-.3.5-.6.9-.8 1.3h5zm-8.9 3.1v11.2c0 .5-.2.8-.6 1s-1.1.3-2.2.3l-.5-1.2c.4.1.8.1 1.2.1.3 0 .6 0 .8-.1s.3-.2.3-.5v-3.3h-4.6v5h-1.1v-12.7h6.7zm-1 .8h-4.6v2.6h4.6v-2.6zm-4.7 6h4.6v-2.5h-4.6v2.5zm9 2.2v-8.4c.5 0 .8 0 1.1.1v8.3h-1.1zm5.4-9.4v11.4c0 .4-.1.6-.3.9-.2.2-.5.4-1 .5-.5.1-1.3.2-2.4.2l-.6-1.2c.4.1 1 .1 1.7.1.5 0 .8 0 1.1-.1.3-.1.4-.3.4-.5v-11.4c.2.1.6.1 1.1.1zm17.7 3.5c0 .7-.1 1.5-.3 2.2-.2.8-.4 1.5-.7 2.1-.3.6-.6 1.1-.9 1.5l2.7 2.8h-1.4l-1.9-2c-.6.8-1.4 1.3-2.2 1.7-.8.4-1.8.6-2.8.6-.5 0-1.1-.1-1.6-.2s-1-.3-1.4-.6-.9-.6-1.2-1.1-.5-.9-.6-1.4c-.1-.5-.1-.8-.1-1.2 0-1 .3-1.9.9-2.7s1.6-1.4 3-1.9c-1-1-1.6-1.8-1.8-2.3-.2-.6-.4-1.1-.4-1.6 0-.6.2-1.2.5-1.7s.7-.9 1.2-1.1c.5-.3.9-.4 1.3-.5.4-.1.7-.1 1-.1.4 0 .8 0 1.2.1.4.1.7.2 1 .4.3.2.6.4.8.7.2.3.4.6.5 1 .1.4.2.7.2 1.1 0 .9-.3 1.7-.9 2.4-.6.7-1.6 1.3-3.1 1.9l4.6 4.9c.5-.7.8-1.5 1.1-2.4.3-.9.4-1.8.4-2.7h.9zm-8 .6c-1.2.4-2 1-2.6 1.6-.5.6-.8 1.4-.8 2.3 0 .5.1 1 .3 1.4.2.4.5.8.8 1.1.4.3.8.5 1.3.7.5.2 1 .2 1.6.2.6 0 1.2-.1 1.7-.3.5-.2 1-.4 1.4-.7s.8-.7 1.1-1.1l-4.8-5.2zm.4-1c.8-.3 1.4-.6 1.9-1 .5-.3.9-.7 1.1-1 .2-.3.4-.7.4-1 .1-.3.1-.5.1-.7 0-.3-.1-.7-.2-1.1s-.4-.7-.8-1c-.4-.3-.9-.4-1.6-.4-.8 0-1.5.2-2.1.7-.5.5-.8 1.1-.8 1.8 0 .5.1.9.3 1.3.2.4.4.8.7 1.2.3.4.7.8 1 1.2zm27.5 1.6h1.3v.8h-14.6v-7.3c-.8.7-1.7 1.4-2.4 1.9l-.7-.8c1-.6 2-1.3 2.9-2.2.9-.9 1.7-1.7 2.3-2.7l.9.4-.1.2c-.5.7-1 1.3-1.6 1.9h5.4c-.2-.3-.4-.7-.7-1s-.5-.7-.7-.9l.8-.5c.5.6 1 1.3 1.5 2.1l-.5.3h7.1v.8h-6.8v1.8h6.1v.8h-6.1v1.8h6.1v.8h-6.1v1.9h5.9zm-.1 2.2v6.2h-1v-1.1h-11.2v1.1h-1.1v-6.2H234zm-12.2 4.3H233v-3.4h-11.2v3.4zm.1-13.5v1.8h5.4v-1.8h-5.4zm5.3 4.4V257h-5.4v1.8h5.4zm-5.3.7v1.9h5.4v-1.9h-5.4zm21.9-.2v10.4h-1v-.8c0-1.1 0-3.9.1-8.6-.4.4-.8.9-1.3 1.3s-.9.8-1.2 1c-.3-.5-.5-.8-.5-.9.4-.3 1-.8 1.6-1.4s1.3-1.3 1.9-2.2 1.1-1.6 1.5-2.3l.8.6-.1.1c-.4.9-1 1.8-1.8 2.8zm1.8-7.5c-.3.4-.7.9-1.2 1.5s-1.1 1.2-1.8 1.8-1.3 1.1-1.9 1.4c-.1-.2-.3-.5-.6-.8.4-.2.9-.6 1.5-1.1.6-.5 1.2-1 1.8-1.7.6-.7 1.1-1.3 1.4-1.9l.8.6v.2zm13.5 17.1c-.2.3-.3.6-.5.9-2.7-.5-4.8-1.4-6.5-2.7-.9.6-1.9 1.2-3 1.6-1.1.5-2.3.8-3.5 1-.1-.1-.1-.2-.3-.4-.1-.2-.2-.3-.3-.5 2.4-.4 4.5-1.2 6.3-2.3-.5-.4-.9-.8-1.4-1.3s-.9-1-1.2-1.5c-.5.5-1.1 1-1.7 1.5s-1.2.8-1.8 1.1c-.1-.2-.3-.5-.6-.8.7-.4 1.5-.9 2.3-1.5s1.5-1.3 2-2 .9-1.2 1.2-1.7c-.9.1-1.8.1-2.6.2l-1 .1-.2-1c.2 0 .5-.1.9-.3.4-.2.8-.4 1.3-.8.5-.3 1.1-.8 1.9-1.3.7-.5 1.3-1 1.9-1.5-1.4.1-2.7.3-3.9.3-.5 0-.9.1-1.2.1l-.3-.9c.1 0 .4-.1.7-.3s.8-.5 1.3-1l1.5-1.5c.5-.6.8-1.1 1.1-1.5l1 .5-.2.2c-1.2 1.5-2.4 2.7-3.5 3.5 1.9-.1 3.4-.2 4.5-.3.4-.4.8-.8 1.1-1.2.3-.4.6-.8.8-1.1l.9.5-.3.2c-.6.7-1.3 1.5-2.2 2.4-.9.9-1.8 1.6-2.7 2.2-.9.6-1.7 1.1-2.3 1.5 1-.1 2.2-.1 3.7-.3 1.5-.1 2.8-.2 4.1-.4-.4-.5-.7-.9-1-1.2-.2-.3-.4-.5-.5-.5l.7-.5c.4.4.9 1 1.4 1.7.6.8 1.1 1.5 1.5 2.3l-.8.5c0-.1-.1-.2-.3-.5-.1-.2-.3-.5-.6-.9l-5.6.5c-.3.6-.7 1.2-1.3 2h5.5l.1-.1c.5.3.7.5.8.6l-.2.1c-.9 1.4-2 2.7-3.3 3.8 1.7 1.2 3.7 2 6.3 2.5zm-9.7-5.8c.3.5.7 1 1.2 1.5s1 1 1.5 1.4c.5-.4 1.1-.9 1.5-1.4.5-.5.9-1 1.3-1.6h-5.5zm20.2-10.8v15.9c0 .5-.2.8-.6 1-.4.2-1.1.3-2.2.3-.2-.4-.3-.8-.5-1.1.4.1.8.1 1.2.1.3 0 .6 0 .8-.1.2-.1.3-.2.3-.5v-5.1h-3.8c-.2 1.5-.4 2.8-.8 4-.4 1.2-.8 2.1-1.3 2.8l-.8-.7c.7-.9 1.2-2.1 1.6-3.7.4-1.6.6-3.4.6-5.5v-7.5h5.5zm-4.7 9.7h3.7v-4H265v1.8c0 .9 0 1.6-.1 2.2zm3.7-8.7H265v3.8h3.6v-3.8zm8.8 12.3c.5.6 1 1.2 1.6 1.6.6.5 1.3.9 2 1.3l-.5.9c-1.4-.8-2.6-1.8-3.6-3.1-.9 1.2-2 2.1-3.1 2.8l-.6-.9c.6-.3 1.2-.7 1.7-1.2s1-1 1.4-1.6c-.4-.5-.7-1.1-.9-1.6s-.5-1.2-.7-1.9c-.2-.7-.4-1.4-.6-2.2h-1.3v9.8h-1.1v-17.3h8.2v.4c0 1-.1 1.7-.1 2.1s-.1.9-.3 1.1c-.2.4-.5.7-.9.9-.4.2-1.1.3-2 .3-.1-.2-.2-.6-.5-1.1.3.1.6.1 1 .1.8 0 1.2-.2 1.4-.7.1-.2.2-.5.2-.9s.1-.8.1-1.3h-6.1v5.7h6l.1-.1c.2.2.5.4.8.7l-.1.1c-.2 1.1-.4 2.2-.8 3.2-.4 1.2-.8 2.1-1.3 2.9zm-2.5-5.8c.3 1.9 1 3.5 1.9 4.9.8-1.4 1.4-3 1.7-4.9h-3.6zm18.1-.8-.2.1c-.3.7-.6 1.5-1.1 2.2s-.9 1.4-1.3 1.8c-.2-.2-.5-.4-.8-.5.3-.3.7-.8 1.1-1.5.4-.6.7-1.2 1-1.8h-2.5v8.7c0 .3-.1.5-.2.7s-.3.4-.5.5c-.3.1-.6.2-1.1.3s-1 .1-1.7.1l-.6-1.1s.2 0 .6.1c.3 0 .7.1 1 .1.4 0 .8 0 1.1-.1.3-.1.4-.3.4-.6v-6c0-.8.1-1.4.1-2-.1.3-.3.7-.5 1.2s-.4 1.1-.8 1.7c-.3.6-.7 1.3-1.1 2-.4.7-.9 1.3-1.3 1.8 0 0 0-.1-.1-.1 0 0-.1-.1-.1-.2-.1-.1-.1-.2-.3-.3-.1-.1-.2-.2-.3-.2.5-.5 1-1.2 1.5-2 .5-.9 1-1.7 1.4-2.5.4-.8.7-1.5.9-2.2h-3.4v-.9h7.7l.1-.1c.1.1.3.2.5.4.3.2.4.3.5.4zm-2.2-5.9h-6.2v-1h6.7l.1-.1c.3.2.6.5.9.7l-.2.1c-.4.5-.8 1.1-1.3 1.8s-1 1.2-1.5 1.7c.6.3 1.1.7 1.8 1.2l-.6.8c-.6-.5-1.3-1-2.2-1.5-.9-.5-1.8-1-2.6-1.3l.5-.7c.6.2 1.4.6 2.3 1.1l1.2-1.2c.4-.6.8-1.1 1.1-1.6zm11.5 9.7v.4c0 1.4-.1 2.5-.1 3.3-.1.8-.2 1.3-.4 1.8-.2.4-.6.8-1.2 1-.6.2-1.4.3-2.6.3 0-.1-.2-.5-.5-1.2.4.1.8.2 1.2.2 1.1 0 1.9-.3 2.2-.8.2-.3.3-.8.3-1.4.1-.6.1-1.5.1-2.7h-3.6c-.2.7-.4 1.4-.8 2s-.7 1.2-1.2 1.7-1 1-1.7 1.3-1.4.7-2.1.9l-.7-.8c.7-.2 1.4-.5 1.9-.8.5-.3 1-.6 1.4-1 .4-.4.8-.8 1.2-1.4s.7-1.2.9-2h-4.1v-.9h4.3c0-.2.1-.5.1-.9v-1.3s.4 0 1.1.1v1.2c0 .4-.1.7-.1.9h4.4zm-3.9-4.5c1.2.9 2.7 1.6 4.6 2l-.4 1c-2-.5-3.6-1.3-4.8-2.3-.6.5-1.3 1-2.2 1.4s-1.7.7-2.7.9c-.1-.3-.3-.6-.5-.9 1.9-.4 3.4-1.1 4.6-2.1-.2-.2-.5-.5-.8-.9l-.9-1.2c-.3-.4-.4-.8-.6-1.1-.5.6-1 1.1-1.4 1.5l-.7-.7c.4-.3.9-.7 1.3-1.3.4-.5.8-1.1 1.1-1.7.3-.6.6-1.2.7-1.8l1 .2-.1.1c-.1.2-.2.5-.4.9s-.3.7-.4.9h6.7v.9h-1.9c-.4 1.7-1.1 3.1-2.2 4.2zm-3.1-4c.5 1.3 1.3 2.5 2.3 3.5.9-.9 1.6-2.1 2-3.5h-4.3zM130.6 72.5h-24.2v10.3c0 4.1-.4 7.8-1.2 11.1-.8 3.3-1.8 5.7-3.2 7.4l-1.6-1.3c1.2-1.6 2.2-3.8 2.9-6.9.7-3 1.1-6.5 1.1-10.4V70.8H133v1.8c-.4 0-1.2-.1-2.4-.1zm-15.7 20.1-.3.3c-.3.6-.8 1.4-1.5 2.2-.6.9-1.4 1.8-2.3 2.7-.9.9-1.8 1.7-2.7 2.3-.7-.6-1.2-1.1-1.5-1.3 1.2-.7 2.4-1.7 3.6-3 1.2-1.3 2.2-2.6 2.9-4 .6.2 1.2.5 1.8.8zm7-3.3v8.1l.1 1.8c0 .5-.1.9-.3 1.2-.2.3-.5.6-1 .8-.5.2-1.2.4-2 .5s-1.9.1-3.2.1l-1-2c.8.1 1.7.2 2.9.2.8 0 1.4-.1 1.9-.2.5-.2.8-.5.8-1v-9.6h-9c0-.4.1-.8.1-1v-10c0-.3 0-.6-.1-1.1h7.4c.8-1.6 1.4-3.1 1.7-4.4l2 .6-.2.4c-.3 1-.8 2.1-1.4 3.4h9.7v12.1h-8.4zm6.4-10.6h-15.4v3.6h15.4v-3.6zm-15.4 5.2v3.8h15.4v-3.8h-15.4zm15.3 7.8c.8.8 1.8 1.8 2.9 3 1.1 1.2 2.3 2.6 3.5 4.1l-1.5 1.2c-.9-1.2-1.8-2.4-2.9-3.7-1.1-1.2-2.3-2.4-3.5-3.6l1.5-1zm41.2-17.8h-25.6v9.5c0 3.9-.3 7.4-.9 10.5s-1.5 5.5-2.5 7.1c-.6-.6-1.1-1-1.5-1.3 1-1.5 1.8-3.7 2.3-6.6.6-2.9.9-6.2.9-9.9V72.9l-.1-.6h14.5c-.4-.9-1-1.8-1.7-2.9l1.6-.7c.4.5.8 1.1 1.1 1.7.4.6.7 1.3 1 1.9h13.6V74c-.6-.1-1.5-.1-2.7-.1zm-11.5 9.3v15.7c0 .5-.2 1-.5 1.3-.4.3-.9.5-1.6.6-.7.1-1.5.2-2.3.2l-.8-1.7c.7.1 1.3.1 1.9.1.5 0 .9-.1 1.3-.2.3-.1.5-.4.5-.7V84.6h-8.9v17h-1.6c0-.2.1-.7.1-1.3V83.8l-.1-.6h5.4v-6.8l-.1-1c.8 0 1.4 0 1.7.1 0 .2-.1.5-.1.9v6.8h5.1zm-9.8-1.2c-.5-1.5-1.1-3-1.9-4.7l1.3-.4c.3.6.6 1.4.9 2.2s.6 1.7.9 2.4l-1.2.5zm2.4 13.3V97h-1.3v-9.5h5.3v7.8h-4zm2.8-6.6h-2.8v5.4h2.8v-5.4zm1.2-6.9c.4-.6.8-1.4 1.3-2.4s.8-1.9 1.1-2.7l1.4.5-.2.3c-.2.7-.6 1.5-1 2.4-.4.9-.9 1.7-1.3 2.4l-1.3-.5zm12 12.7c1.5 2.4 3.5 4.3 6 5.7-.2.4-.5 1-.7 1.6-.9-.5-1.7-1.1-2.6-1.8-.8-.7-1.5-1.4-2.1-2.1-.6-.7-1.1-1.4-1.4-2-.8 1.2-1.7 2.3-2.7 3.2-1 1-2.2 1.8-3.4 2.5l-.8-1.6c1.4-.8 2.6-1.7 3.6-2.6.9-.9 1.7-2 2.4-3.1-1.3-2.5-2.3-5.6-2.9-9.4-.6 1.2-1.2 2.1-1.8 2.8l-1-1.4c.9-.9 1.8-2.5 2.7-4.6.9-2.1 1.5-4.3 1.9-6.5l1.6.3-.1.3c-.3 1.6-.8 3.3-1.4 5h8.4v1.7h-2.4c-.7 4.7-1.7 8.7-3.3 12zm-3.6-11.7c.5 4 1.4 7.4 2.7 10.1 1.4-2.8 2.2-6.3 2.5-10.3H163l-.1.2zm16-7.2h11.4v1.7h-13v-1.7h1.6zm10.2 15.3v10.9h-1.7v-2.1h-7.1v2.1h-1.7c0-.4.1-.7.1-1V92c0-.2 0-.6-.1-1h10.5zm-1.9-8.6h-8.1v-1.6h9.5v1.6h-1.4zm-8 5v-1.6h9.5v1.6h-9.5zm1.2 11.1h7.1v-6h-7.1v6zm5.7-24.5-1.6.9c-.9-1.8-1.9-3.5-2.9-4.8l1.5-.8c.4.6.9 1.3 1.5 2.2.5.8 1 1.7 1.5 2.5zm4.7 23.9c.6-.8 1.2-2 1.8-3.6.6-1.6 1-3.1 1.2-4.5l1.6.7-.1.2c-.3 1.7-.8 3.3-1.3 4.8s-1.1 2.7-1.7 3.6l-1.5-1.2zm1.2-13.7c.6-.2 1.2-.6 2-1 .7-.5 1.4-1 2.1-1.8.7-.7 1.3-1.5 1.9-2.3-1.5-.9-3.2-1.7-5-2.4.2-.4.5-.9.9-1.3 1.8.7 3.4 1.5 4.9 2.3.3-.6.5-1.2.7-1.9.2-.7.3-1.3.4-1.9.1-.6.1-1.1.1-1.6h-7.4v-1.7h16.9v.6c0 3.2-.1 5.6-.2 7.2-.1 1.6-.3 2.8-.6 3.6-.3.9-1 1.5-1.8 1.9-.9.4-2 .6-3.4.6-.1-.2-.2-.5-.4-.9s-.3-.8-.5-1.1c.2.1.6.1 1 .2.4 0 .7.1 1 .1.6 0 1.1-.1 1.6-.4.4-.3.7-.6.9-1.1.1-.4.3-.9.3-1.5.1-.6.1-1.4.2-2.4 0-1 .1-2.8.1-5.1h-6.1c-.1 2.9-.9 5.6-2.4 8-1.5 2.4-3.5 4.2-5.9 5.2l-1.3-1.3zm11.9 15c.3-.4.5-.9.6-1.6.1-.7.2-1.8.2-3.3.1 0 .3.2.6.3.3.2.6.4 1.1.7 0 1.2-.1 2.1-.2 2.9s-.4 1.4-.7 1.9c-.3.5-.8.9-1.5 1.1s-1.4.4-2.4.4c-.7 0-1.4 0-2-.1-.6-.1-1.1-.2-1.5-.4-.6-.3-1-1.2-1-2.6V88.2l1.8.1v10.2c0 .7.3 1.1.9 1.2.3.1.9.1 1.9.1.5 0 1-.1 1.4-.2.2 0 .5-.2.8-.5zM200 84.6c.7.5 1.4 1.2 2.1 2.1.8.8 1.4 1.6 2 2.4l-1.2 1.2c-.4-.7-1-1.5-1.8-2.4-.8-.9-1.5-1.6-2.2-2.2l1.1-1.1zm7.7 4.5c.6.9 1.2 2.2 1.9 3.7.6 1.6 1.2 3 1.7 4.5l-1.5.9c-.2-.6-.4-1.4-.7-2.4-.3-1-.7-2-1.2-3.1s-1-2-1.4-2.8l1.2-.8zm17.8-11.9h-10.1v-1.7h11.7v1.7h-1.6zm.6 13.6v10.8h-1.7v-2H218v2h-1.7c0-.4.1-.7.1-1v-8.8c0-.2 0-.6-.1-1h9.8zm-.5-10.1v1.6h-8.7v-1.6h8.7zm-7.5 5h7.4v1.6h-8.7v-1.6h1.3zm-.1 12.4h6.4v-5.8H218v5.8zm5-24.2-1.6.9c-.3-.7-.7-1.5-1.2-2.4-.5-.9-1-1.7-1.4-2.3l1.6-.8c.4.6.9 1.4 1.5 2.3.5.9.9 1.7 1.1 2.3zm14.3-3.1c-.4 1.2-.9 2.4-1.5 3.7-.6 1.3-1.4 2.5-2.2 3.6-.8 1.2-1.7 2.2-2.7 3.2s-1.9 1.7-3 2.3c-.3-.5-.7-.9-1.1-1.3.4-.2 1-.5 1.6-1 .6-.4 1.2-.9 1.9-1.6.6-.6 1.2-1.3 1.8-2.1-1.1-1.1-2.2-2.1-3.2-2.8l1-1c.5.4 1.1.8 1.6 1.3s1.1.9 1.5 1.4c.5-.7 1-1.6 1.4-2.5.5-.9.8-1.8 1.1-2.6h-6.8v-1.6h7.1l.3-.3c.6.4 1.1.7 1.4 1l-.2.3zm3.8 28.5h7.2v1.7c-.5 0-1.2-.1-2.1-.1h-15.9c-.9 0-1.6 0-2 .1v-1.7h11.1c.4-.7.8-1.7 1.3-2.8.5-1.2.9-2.2 1.1-3l1.6.6-.2.3c-.2.6-.5 1.5-1 2.4-.4 1-.8 1.8-1.1 2.5zm3.7-14.7v7.7h-13.5c0-.3.1-.6.1-.9v-5.9c0-.2 0-.5-.1-.9h13.5zm-10.1 14.2c-.3-.8-.6-1.6-1-2.5-.4-.9-.7-1.6-1-2.2l1.5-.5c.8 1.7 1.4 3.3 1.8 4.7l-1.3.5zm-1.7-8h10.2V86H233v4.8zm9.3-9.4h-8.6v-1.6h8.6v1.6zm5.1 2.1c-2-1.5-3.8-3.4-5.4-6-1.7-2.5-2.8-5.1-3.5-7.7l1.4-.4c.1.4.3 1 .6 1.8.3.7.5 1.3.7 1.7 1.5-1.4 2.5-2.4 3-3 .5.4.8.8 1.1 1.1l-.3.2c-1.1 1.2-2.1 2.2-3.1 3 .5 1 1.1 2 1.7 3 .6-.5 1.2-1.1 1.9-1.8s1.2-1.3 1.5-1.7l.4.4c.2.2.5.4.8.7l-.3.2c-.9 1-2.1 2.2-3.5 3.4.6.8 1.2 1.5 2 2.2.7.7 1.4 1.3 2 1.7l-1 1.2zM71.3 119.9c2.2 1.7 4.1 3.3 5.8 5l-1 1.6c-.8-1-1.7-1.9-2.6-2.8-.9-.9-1.9-1.7-2.8-2.5-.8 1.5-1.8 2.8-2.8 4.1-1.1 1.3-2.1 2.3-3.1 3.1-.2-.5-.5-1.1-.8-1.6 1.2-.9 2.4-2.2 3.6-3.9 1.2-1.7 2.2-3.3 2.8-4.9l1.7.3-.2.3-.6 1.3zm.4 16v10.5c2.9-.8 4.6-1.3 5-1.4-.1.5-.1 1.1-.1 1.7-.7.2-2.3.7-4.7 1.3-2.4.7-4.3 1.2-5.6 1.5l-1.2.4-.5-1.8 1.4-.3c1.5-.3 2.9-.7 4.1-1v-10.9h-3.4c-.6 0-1.1 0-1.4.1v-1.7h4.8v-5H67v-1.6h7.9v1.6h-3v5h4.4v1.7c-.4 0-.9-.1-1.5-.1h-3.1zm-3.5 8.3-1.2.5c-.1-.9-.4-1.9-.6-3-.3-1.1-.5-2.1-.8-2.8l1.3-.4c.7 2.6 1.1 4.5 1.3 5.7zm6.3-.4c-.2-.1-.6-.2-1.2-.4.2-.5.5-1.3.8-2.6.3-1.2.6-2.3.7-3.2l1.3.4-.1.3c-.1.7-.4 1.6-.7 2.7-.3 1.3-.6 2.2-.8 2.8zm9-18.5-1.5.9c-.4-1-.9-2.1-1.6-3.3-.6-1.2-1.2-2.3-1.8-3.1l1.6-.9c.5.8 1 1.8 1.7 3.1.6 1.1 1.1 2.3 1.6 3.3zm11 2.6v20.2c0 1.1-.5 1.8-1.5 2.1-1 .3-2.6.5-4.8.5-.1-.3-.5-.9-1-2 1.2.1 2.2.2 2.8.2.8 0 1.4-.1 1.9-.2.5-.2.7-.5.7-.9v-5.5H81.1v7.1l.1 1.4h-2l.1-1.4v-20.9l-.1-.7H86V119l-.1-1c.8 0 1.4 0 1.9.1 0 .3-.1.6-.1.9v8.7h6.8zm-1.9 1.5H81.1v4.9h11.5v-4.9zm-11.5 11.4h11.5v-5H81.1v5zm12.5-22.2 1.7.7-.2.3c-.7 1.6-1.3 3-2 4.2-.6 1.2-1.1 1.9-1.3 2.3l-1.5-.9c.6-.9 1.2-1.9 1.8-3.1.6-1.1 1.1-2.3 1.5-3.5zm36.3 17.5h2.3v1.5h-25.6c0-.4.1-.8.1-1v-10.8l.1-1c-1.5 1.3-2.9 2.4-4.3 3.3l-1.2-1.4c1.8-1 3.5-2.3 5.2-3.8s3-3.1 4.1-4.7l1.7.6-.3.3c-.9 1.2-1.8 2.3-2.8 3.4h9.5c-.3-.6-.7-1.2-1.1-1.8-.4-.6-.9-1.2-1.3-1.6l1.4-.8c.9 1 1.8 2.2 2.7 3.6l-1 .6H132v1.5h-12.2v3.1h10.8v1.4h-10.8v3.1h10.8v1.4h-10.8v3.3h10.1zm0 4v10.8H128V149h-19.7v1.9h-1.9c0-.4.1-.8.1-1v-8.8c0-.2 0-.6-.1-1h23.5zm-21.5 7.5H128v-6h-19.7v6zm.1-23.7v3.1h9.4v-3.1h-9.4zm9.4 7.6v-3.1h-9.4v3.1h9.4zm-9.4 1.3v3.3h9.4v-3.3h-9.4zm47.5 15.1h-9v2.1h-1.5c0-.4.1-.7.1-1v-11c-.6 1.1-1.2 1.9-1.7 2.4-.1-.3-.4-.7-.9-1.2-.2 2.2-.5 4.3-1 6.2-.4 1.9-.9 3.5-1.5 4.9l-1.3-1.4c.5-1.4 1-3.1 1.4-5 .4-2 .7-4 .8-6 .1-2 .2-3.9.2-5.5v-12.5l1.1.5c1.8 0 3.7-.1 5.7-.3 2-.2 4.1-.5 6.3-.8l1.1 1.5-.9.1c-4.6.6-8.5 1-11.7 1.1v2.6h12.3v6.6h-12.3v1.5c0 2.2-.1 4.3-.3 6.5.3-.3.7-.8 1.1-1.5s.9-1.6 1.4-2.7c.5-1.1.9-2.2 1.1-3.3l1.6.4-.1-.1c-.3 1-.7 1.9-1 2.7h4.1c-.2-.4-.5-.9-.9-1.4-.3-.5-.7-.9-1-1.3l1.3-.5c.8.9 1.4 1.8 2 2.8l-.9.4h4.1v1.4h-4v2.6h3.4v1.3h-3.4v2.6h3.4v1.3h-3.4v2.8h4.1v1.2zm-12.7-22.2v3.7h10.6v-3.7h-10.6zm3.6 10.4v2.6h3.4v-2.6h-3.4zm3.5 6.4v-2.6H147v2.6h3.4zm-3.5 1.2v2.8h3.4v-2.8h-3.4zm8.5 5.6c.7-.3 1.4-.7 2.2-1.1.8-.5 1.6-1.1 2.4-1.7.8-.7 1.4-1.3 1.8-1.8l1.4 1c-.8.9-1.9 1.9-3 2.8-1.2.9-2.4 1.7-3.7 2.4l-1.1-1.6zm8-27.5h-6.7v-1.6h15.8v1.6H165c-.4 1.6-.9 3-1.4 4.1h7v17.6h-12.4c0-.5.1-.9.1-1.3v-15l-.1-1.3h3.8c.6-1.3 1.1-2.7 1.4-4.1zm5.6 9.4v-3.8h-9v3.8h9zm-9 1.5v3.7h9v-3.7h-9zm0 9.3h9v-4.2h-9v4.2zm7.1 2.6c.8.6 1.8 1.3 2.9 2.2 1.1.9 2 1.7 2.8 2.5l-1 1.3c-.7-.7-1.6-1.6-2.6-2.5-1.1-.9-2.2-1.8-3.2-2.6l1.1-.9zm14.4-13.2V149l.1 1.7h-2l.1-1.7v-28.9l-.1-.7h12.1v12h-10.2zm8.3-10.4h-8.3v3.7h8.3V121zm-8.3 8.9h8.3v-3.8h-8.3v3.8zm18.3 5.4v9.8h-9.9v3.1H188c0-.4.1-.8.1-1.1v-10.7c0-.3 0-.7-.1-1.1h11.8zm-9.9 8.1h8.1v-6.5h-8.1v6.5zm18.6-22.4v24.9l.1 2c0 1-.5 1.7-1.4 2.1-1 .4-2.5.5-4.5.5-.1-.2-.3-.6-.5-1.1-.3-.5-.5-.9-.5-1 .2 0 .6.1 1.1.1.5 0 1 .1 1.5.1.7 0 1.3-.1 1.7-.2.4-.1.7-.4.7-.9v-16.1h-10.2c0-.4.1-.8.1-1.1v-9.8c0-.3 0-.6-.1-1.1h12.1l-.1 1.6zm-1.9 0h-8.3v3.7h8.3V121zm-8.3 8.9h8.3v-3.8h-8.3v3.8zm30.4-9.7-.1 1.5v24.4l.1 2.1c0 .8-.3 1.4-1 1.8-.7.4-2 .6-3.8.6-.3-.7-.6-1.4-.9-2 .8.1 1.5.1 2.1.1.6 0 1.1-.1 1.4-.2s.5-.4.5-.8v-9h-6.7c-.3 2.6-.8 5-1.4 7.1s-1.4 3.7-2.3 4.8l-1.5-1.3c1.2-1.5 2.1-3.7 2.8-6.5.7-2.8 1-6 1-9.8v-13.1h9.8zm-8.3 17h6.5v-7h-6.4v3.1c0 1.5 0 2.8-.1 3.9zm6.5-15.3h-6.4v6.7h6.4v-6.7zm15.4 21.6c.8 1.1 1.8 2 2.8 2.9 1.1.9 2.2 1.6 3.5 2.3l-.9 1.6c-2.5-1.4-4.6-3.2-6.4-5.4-1.6 2.1-3.5 3.8-5.6 4.8l-1.1-1.6c1.1-.5 2.1-1.2 3-2 .9-.8 1.8-1.7 2.6-2.7-.6-.9-1.2-1.9-1.6-2.9-.5-1-.9-2.1-1.3-3.3-.4-1.2-.7-2.5-1-3.9h-2.2v15.1c0 .7 0 1.4.1 2.1h-2c0-.7.1-1.5.1-2.1v-28.2h14.4v.6c0 1.7-.1 2.9-.2 3.8s-.2 1.5-.4 2c-.3.7-.8 1.2-1.6 1.6-.8.3-2 .5-3.5.5-.1-.4-.4-1.1-.8-2 .5.2 1.1.3 1.8.3 1.3 0 2.2-.4 2.5-1.1.2-.4.3-1 .4-1.6.1-.7.1-1.4.1-2.3h-10.7v10h10.6l.2-.2c.4.3.9.7 1.5 1.2l-.3.1c-.3 2-.8 3.9-1.4 5.7-.9 1.7-1.7 3.3-2.6 4.7zm-4.3-10.2c.6 3.3 1.7 6.2 3.3 8.7 1.5-2.5 2.5-5.4 3.1-8.7H238zm30.9-1.4-.3.1c-.5 1.3-1.1 2.6-1.9 3.9s-1.5 2.4-2.2 3.1c-.4-.3-.8-.6-1.3-.9.6-.6 1.3-1.5 2-2.6s1.3-2.1 1.7-3.1h-4.5v15.5c0 .4-.1.8-.3 1.2s-.5.6-1 .9c-.5.2-1.1.4-1.9.5-.8.1-1.8.1-3 .1l-1-2s.4 0 1 .1 1.2.1 1.7.1c.8 0 1.4-.1 1.9-.2.5-.2.7-.5.7-1v-7.4c0-.7 0-1.8.1-3.1 0-1.3.1-2.5.2-3.4-.2.6-.5 1.3-.8 2.2-.3.9-.8 1.9-1.3 3.1-.5 1.1-1.2 2.3-1.9 3.6-.7 1.2-1.5 2.3-2.4 3.2 0 0-.1-.1-.1-.2-.1-.1-.1-.2-.2-.3l-.5-.5-.4-.4c.8-.9 1.7-2 2.7-3.6.9-1.5 1.7-3 2.4-4.5s1.2-2.7 1.5-3.8h-6.1v-1.7h13.7l.2-.3c.2.2.5.4.8.7.2.4.4.6.5.7zm-3.8-10.4h-10.9v-1.7H266l.2-.3c.5.4 1.1.9 1.6 1.3l-.4.2c-.6.9-1.4 1.9-2.3 3.1-.9 1.2-1.8 2.1-2.7 2.9 1 .6 2 1.3 3.1 2.1l-1 1.4c-1-.8-2.3-1.7-3.9-2.6-1.6-.9-3.2-1.7-4.6-2.3l1-1.2c1.1.4 2.4 1 4 1.9.6-.6 1.3-1.3 2.1-2.2s1.4-1.8 2-2.6zm20.3 17.1v.6c0 2.5-.1 4.5-.2 5.8s-.4 2.4-.7 3.1c-.4.8-1.1 1.4-2.1 1.8-1 .4-2.5.6-4.5.6 0-.1-.3-.8-.9-2.1.6.2 1.3.3 2.1.3 2 0 3.3-.5 3.8-1.4.3-.5.5-1.4.6-2.4s.2-2.6.2-4.7h-6.3c-.3 1.3-.8 2.4-1.4 3.5-.6 1.1-1.3 2.1-2.2 3-.9.9-1.8 1.7-3 2.4-1.1.7-2.4 1.2-3.7 1.6l-1.2-1.4c1.3-.4 2.4-.9 3.3-1.4.9-.5 1.8-1.1 2.5-1.7.8-.6 1.5-1.5 2.1-2.5.7-1 1.2-2.2 1.6-3.5h-7.3v-1.7h7.7c.1-.4.1-.9.2-1.5 0-.6.1-1.2.1-1.6v-.7s.7 0 1.9.1c0 .2-.1.3-.1.5 0 .4 0 1-.1 1.6 0 .7-.1 1.2-.2 1.6h7.8zm-7-7.9c2.1 1.6 4.8 2.7 8.1 3.5l-.7 1.7c-3.5-.9-6.3-2.3-8.5-4.1-1.1.9-2.4 1.7-3.8 2.4-1.5.7-3 1.2-4.7 1.7-.2-.5-.5-1-.9-1.5 3.3-.7 6-1.9 8.1-3.6-.4-.4-.9-.9-1.4-1.6-.6-.7-1.1-1.4-1.5-2.2-.4-.8-.8-1.4-1-1.9-.9 1.1-1.7 2-2.4 2.6-.3-.4-.8-.8-1.3-1.2.8-.5 1.5-1.3 2.3-2.2.8-.9 1.4-1.9 2-3 .6-1 1-2.1 1.3-3.2l1.7.3-.2.3c-.1.4-.3.9-.6 1.6s-.5 1.2-.7 1.6H286v1.6h-3.5c-.9 2.8-2.2 5.2-4.1 7.2zm-5.4-7.1c.9 2.3 2.2 4.4 4.1 6.1 1.6-1.6 2.8-3.7 3.6-6.2l-7.7.1z"/>
    <path class="st2" d="M22.4 171.3h305.2"/>
    <circle class="st0" cx="578.3" cy="175" r="175"/>
    <path class="st1" d="M478.6 193.1h-7.2v3.6h-1.1v-4.3h8.2v-1.7h-7.3v-.9H487v.9h-7.4v1.7h8.3v4.3h-1v-3.6h-7.2v4.8h-1v-4.8zm8.9 10.5c.1.1.2.2.4.3.2.1.3.2.5.3-.1.9-.2 1.6-.6 2.1-.3.4-.8.8-1.6 1s-1.7.3-3 .3c-1.2 0-2.2 0-2.7-.1-.6 0-1-.1-1.2-.3-.3-.1-.4-.3-.6-.6s-.2-.6-.2-1v-.8h-5.2v1.5h-1v-7.4h13.5v6h-6.4v.7c0 .5.2.8.7.9.5.1 1.5.1 3.2.1 1.4 0 2.4-.2 3.1-.5.3-.2.6-.5.7-.9s.3-.8.4-1.6zm-10.5-9.1v.7h-4v-.7h4zm-3.3 2.1h3.3v.7h-4v-.7h.7zm4.9 3.1h-5.2v1.8h5.2v-1.8zm-5.2 4.4h5.2v-1.9h-5.2v1.9zm11.6-2.6v-1.8h-5.4v1.8h5.4zm-5.4 2.6h5.4v-1.9h-5.4v1.9zm5.5-9.6v.7h-4v-.7h4zm-3.3 2.1h3.3v.7h-4v-.7h.7zm26.8 7.2h1.6v1h-8.6v3h-1.1v-3h-8.4v-1h8.4v-2.1h-5.8v-7.1h5.8v-2.3h-7.8v-1h7.8v-2.2h1.1v2.1h8v1h-8v2.3h5.9v7.1h-5.9v2.1h7zm-8-8.4h-4.7v2.2h4.7v-2.2zm-4.7 3.1v2.3h4.7v-2.3h-4.7zm10.6-.9v-2.2h-4.9v2.2h4.9zm-4.9 3.2h4.9v-2.3h-4.9v2.3zm12.4 6.1c.3-.6.5-1.4.7-2.3.2-.9.4-1.6.4-2.3l.8.2c-.1.7-.2 1.5-.4 2.4-.2.9-.4 1.7-.7 2.3l-.8-.3zm.3-6.6c.2-.1.3-.2.4-.3 1-1.1 2.2-2.6 3.4-4.3l-2.9.4-.6.1-.3-.8s.1-.1.2-.1l.2-.2c.6-.8 1.2-1.8 1.8-2.8.6-1.1 1.1-2 1.4-2.9l1 .4-.3.4c-.4.8-.9 1.7-1.4 2.6s-1.1 1.7-1.6 2.4l3-.4c.6-1 1.1-1.8 1.4-2.5l1 .4c-.1.2-.3.3-.3.5-.9 1.5-1.8 2.9-2.7 4.1s-1.7 2.1-2.3 2.8c1.4-.2 2.8-.5 4.3-.8-.3-.6-.5-1.2-.8-1.7l.8-.3c.3.5.5 1.1.9 1.8.3.7.5 1.4.7 2l-.8.3c-.1-.5-.3-1-.5-1.4-2.1.4-3.7.7-4.9.9l-.7.1-.4-.7zm2.9 2.1.9-.1c.1.5.3 1.2.4 2 .1.8.2 1.5.3 2.1l-1 .2c0-.6-.1-1.3-.2-2.1s-.2-1.5-.4-2.1zm2.3-.3.8-.3c.3.5.5 1.1.8 1.8.3.6.5 1.2.7 1.7l-.9.4c-.2-.5-.4-1.1-.7-1.7-.2-.7-.5-1.3-.7-1.9zm12 3.2h1v.9h-8.3v1.5h-1v-12.5c-.6 1-1.1 1.7-1.6 2.2-.3-.4-.5-.7-.6-.9.5-.5 1-1.2 1.5-2.1.5-.9 1-1.8 1.4-2.7s.7-1.7.9-2.4l1 .3-.1.2c-.3.9-.6 1.7-.9 2.3l-.6 1.2h8.1v.9h-4v3h3.5v.9h-3.5v3h3.5v.9h-3.5v3.4h3.2zm-7.3-11.2v3h3.2v-3h-3.2zm3.2 6.9v-3h-3.2v3h3.2zm-3.2.9v3.4h3.2v-3.4h-3.2zm4.8-9.4-.8.4c-.2-.5-.5-1.1-.8-1.7-.3-.6-.6-1.1-.9-1.4l.8-.4c.3.4.6.9.9 1.4s.5 1.2.8 1.7zm6.3 5.7c.5-.6 1-1.3 1.6-2.2.6-.9 1.1-2.1 1.7-3.3.6-1.3 1-2.5 1.2-3.6l1 .3-.1.2c-.2.7-.4 1.4-.7 2.2-.3.8-.6 1.5-.9 2.2v13.8H538v-.9c0-1.3 0-3.1.1-5.4 0-2.4.1-4.4.2-6.1-.4.7-.7 1.4-1.1 2-.4.6-.7 1-.9 1.3-.2.3-.4.5-.5.6l-.5-1.1zm6.7-5.7v12.1h-1v-12.7c.3 0 .6 0 1 .1v.5zm12.3 9 .7.7-.1.1c-1 .9-1.9 1.6-2.7 2.1-.8.5-1.7 1-2.5 1.4-.9.4-1.9.7-3 1.1-1.2.3-2.5.6-3.8.8l-.4-.9c.6-.1 1.3-.2 2.1-.3.8-.1 1.6-.3 2.4-.6s1.7-.6 2.5-.9c.9-.4 1.7-.9 2.6-1.4.7-.8 1.4-1.5 2.2-2.1zm-8.9-8.6c-.6.8-1.4 1.6-2.2 2.3l-.7-.8c.6-.4 1.1-1 1.7-1.6.5-.6 1-1.3 1.4-1.9.4-.7.6-1.2.8-1.8l1 .3-.1.1c-.4.8-.7 1.4-1 1.9h8.2v1H552c-.3.6-.6 1.2-1.1 1.7s-.9 1-1.4 1.5c1.3.8 3 1.4 5 1.7-.3.6-.4.9-.4.9-2.1-.4-3.9-1.1-5.4-2.1-.7.5-1.5.9-2.4 1.3-.9.4-1.9.7-2.9.9-.1-.2-.3-.5-.6-.9.4-.1.9-.2 1.5-.3.5-.1 1.1-.3 1.7-.6.6-.3 1.2-.6 1.9-1-.5-.4-1-.8-1.4-1.3-.4-.3-.8-.8-1.1-1.3zm5 5.7h-.1c-.9.7-1.8 1.3-2.9 1.7-1.1.4-2.3.8-3.7 1.1l-.4-.8c2.7-.4 4.9-1.3 6.6-2.6l.5.6zm2.1 1.6c-.4.4-1 .8-1.6 1.2-.6.4-1.3.8-2.1 1.2s-1.6.7-2.5 1c-.9.3-1.8.5-2.6.6l-.4-.9c.8-.1 1.7-.3 2.5-.5s1.6-.5 2.4-.9 1.5-.7 2.1-1.2c.7-.4 1.3-.9 1.8-1.4l.6.7-.2.2zm-3.8-5.1c.5-.4.9-.8 1.3-1.2.4-.5.7-.9 1-1.4h-4.8c.3.5.6 1 1.1 1.4.4.5.9.9 1.4 1.2zm16.8-4.8v15.9c0 .5-.2.8-.6 1-.4.2-1.1.3-2.2.3-.2-.4-.3-.8-.5-1.1.4.1.8.1 1.2.1.3 0 .6 0 .8-.1.2-.1.3-.2.3-.5v-5.1h-3.8c-.2 1.5-.4 2.8-.8 4-.4 1.2-.8 2.1-1.3 2.8l-.8-.7c.7-.9 1.2-2.1 1.6-3.7.4-1.6.6-3.4.6-5.5v-7.5h5.5zm-4.8 9.7h3.7v-4h-3.6v1.8c0 .9 0 1.6-.1 2.2zm3.8-8.7h-3.6v3.8h3.6v-3.8zm8.7 12.3c.5.6 1 1.2 1.6 1.6.6.5 1.3.9 2 1.3l-.5.9c-1.4-.8-2.6-1.8-3.6-3.1-.9 1.2-2 2.1-3.1 2.8l-.6-.9c.6-.3 1.2-.7 1.7-1.2s1-1 1.4-1.6c-.4-.5-.7-1.1-.9-1.6s-.5-1.2-.7-1.9c-.2-.7-.4-1.4-.6-2.2h-1.3v9.8h-1.1v-17.3h8.2v.4c0 1-.1 1.7-.1 2.1s-.1.9-.3 1.1c-.2.4-.5.7-.9.9-.4.2-1.1.3-2 .3-.1-.2-.2-.6-.5-1.1.3.1.6.1 1 .1.8 0 1.2-.2 1.4-.7.1-.2.2-.5.2-.9s.1-.8.1-1.3h-6.1v5.7h6l.1-.1c.2.2.5.4.8.7l-.1.1c-.2 1.1-.4 2.2-.8 3.2-.3 1.2-.8 2.1-1.3 2.9zm-2.5-5.8c.3 1.9 1 3.5 1.9 4.9.8-1.4 1.4-3 1.7-4.9h-3.6zm18.1-.8-.2.1c-.3.7-.6 1.5-1.1 2.2s-.9 1.4-1.3 1.8c-.2-.2-.5-.4-.8-.5.3-.3.7-.8 1.1-1.5.4-.6.7-1.2 1-1.8H585v8.7c0 .3-.1.5-.2.7s-.3.4-.5.5c-.3.1-.6.2-1.1.3s-1 .1-1.7.1l-.6-1.1s.2 0 .6.1c.3 0 .7.1 1 .1.4 0 .8 0 1.1-.1.3-.1.4-.3.4-.6v-6c0-.8.1-1.4.1-2-.1.3-.3.7-.5 1.2s-.4 1.1-.8 1.7c-.3.6-.7 1.3-1.1 2-.4.7-.9 1.3-1.3 1.8 0 0 0-.1-.1-.1 0 0-.1-.1-.1-.2-.1-.1-.1-.2-.3-.3-.1-.1-.2-.2-.3-.2.5-.5 1-1.2 1.5-2 .5-.9 1-1.7 1.4-2.5.4-.8.7-1.5.9-2.2H580v-.9h7.7l.1-.1c.1.1.3.2.5.4.3.2.4.3.5.4zm-2.1-5.9h-6.2v-1h6.7l.1-.1c.3.2.6.5.9.7l-.2.1c-.4.5-.8 1.1-1.3 1.8s-1 1.2-1.5 1.7c.6.3 1.1.7 1.8 1.2l-.6.8c-.6-.5-1.3-1-2.2-1.5-.9-.5-1.8-1-2.6-1.3l.5-.7c.6.2 1.4.6 2.3 1.1l1.2-1.2c.3-.6.7-1.1 1.1-1.6zm11.5 9.7v.4c0 1.4-.1 2.5-.1 3.3-.1.8-.2 1.3-.4 1.8-.2.4-.6.8-1.2 1-.6.2-1.4.3-2.6.3 0-.1-.2-.5-.5-1.2.4.1.8.2 1.2.2 1.1 0 1.9-.3 2.2-.8.2-.3.3-.8.3-1.4.1-.6.1-1.5.1-2.7h-3.6c-.2.7-.4 1.4-.8 2s-.7 1.2-1.2 1.7-1 1-1.7 1.3-1.4.7-2.1.9l-.7-.8c.7-.2 1.4-.5 1.9-.8.5-.3 1-.6 1.4-1 .4-.4.8-.8 1.2-1.4s.7-1.2.9-2h-4.1v-.9h4.3c0-.2.1-.5.1-.9v-1.3s.4 0 1.1.1v1.2c0 .4-.1.7-.1.9h4.4zm-4-4.5c1.2.9 2.7 1.6 4.6 2l-.4 1c-2-.5-3.6-1.3-4.8-2.3-.6.5-1.3 1-2.2 1.4s-1.7.7-2.7.9c-.1-.3-.3-.6-.5-.9 1.9-.4 3.4-1.1 4.6-2.1-.2-.2-.5-.5-.8-.9l-.9-1.2c-.3-.4-.4-.8-.6-1.1-.5.6-1 1.1-1.4 1.5l-.7-.7c.4-.3.9-.7 1.3-1.3.4-.5.8-1.1 1.1-1.7.3-.6.6-1.2.7-1.8l1 .2-.1.1c-.1.2-.2.5-.4.9s-.3.7-.4.9h6.7v.9h-1.9c-.4 1.7-1.1 3.1-2.2 4.2zm-3-4c.5 1.3 1.3 2.5 2.3 3.5.9-.9 1.6-2.1 2-3.5h-4.3zm21.9 14.1c1.3 0 2.7-.1 4.2-.2s2.7-.2 3.6-.4c-.1.3-.2.7-.3 1-.8.1-1.9.2-3.4.3-1.5.1-2.9.1-4.1.1-1.9 0-3.6-.3-4.9-.8-1.3-.6-2.3-1.4-2.8-2.4-.6 1.4-1.5 2.5-2.6 3.3-.2-.3-.4-.6-.7-.8.4-.3.8-.6 1.1-.9s.6-.7.9-1.1.5-.9.8-1.6c.3-.7.5-1.5.6-2.4h-2.3l-.2-.9c.2-.1.4-.3.5-.5.3-.4.6-.9 1-1.4.4-.6.7-1.1.9-1.4h-3.2v-.9h3.6l.1-.1c.2.1.5.4.8.7l-.2.1c-.7 1.3-1.5 2.5-2.2 3.5h1.5l.1-.1.8.7-.2.1c-.2 1-.4 1.8-.7 2.7.1.4.3.7.5 1 .2.3.6.6.9.9.4.3.9.5 1.4.8.6.2 1.3.4 2.1.5.9.2 1.7.2 2.4.2zm-7.6-13c-.3-.5-.7-1-1.2-1.6s-.9-1.1-1.3-1.5l.7-.6 1.3 1.3c.5.6.9 1.1 1.3 1.7l-.8.7zm3.4-2.8v-.8l.7.3c1.7 0 3.5-.1 5.2-.2 1.7-.1 3.2-.3 4.5-.5l.6.9h-.4c-2.6.4-5.8.6-9.6.7v1.3h9.4v3.6h-9.4c0 1.3-.1 2.4-.3 3.5s-.4 1.9-.7 2.5c-.2.6-.4 1-.6 1.3-.2.3-.3.6-.5.7l-.8-.8c.4-.5.7-1.1 1-1.9.3-.8.5-1.6.7-2.6s.2-1.9.2-2.9v-5.1zm9.3 2.5h-8.4v2.1h8.4v-2.1zm1.5 4.4v6.4c0 .3-.1.6-.4.8-.3.2-.7.3-1.3.3-.1-.4-.3-.7-.4-1h.7c.3 0 .4 0 .5-.1.1-.1.1-.2.1-.3v-2.2h-2.2v3.4h-.9v-3.4h-2v3.4h-.8v-3.4h-2v3.5h-.9v-7.5h9.6zm-8.7 3.2h2v-2.4h-2v2.4zm2.8 0h2v-2.4h-2v2.4zm2.8 0h2.2v-2.4h-2.2v2.4zm24.1-8.2h1.5v1H632c-.4.7-.8 1.4-1.2 2.2-.5.7-.9 1.4-1.4 2h4.5v-2.6h1.1v2.6h5.7v6.6c0 .3-.1.6-.3.8-.2.2-.5.4-1 .5s-1.3.2-2.4.2l-.6-1.1s.2 0 .6.1.7.1 1.1.1c.5 0 .8 0 1.1-.1.3-.1.4-.3.4-.6v-5.5h-4.7v9.2h-1.1v-9.2h-4.3v7.6h-1.1v-7.6c-.5.6-1.1 1.1-1.8 1.7s-1.3 1-2 1.4l-.6-.9c1-.5 1.9-1.2 2.7-2 .8-.8 1.6-1.6 2.2-2.5s1.2-1.8 1.7-2.8h-6.1v-1h6.6c.5-1.1.9-2.2 1.2-3.3l1.1.1-.1.2c-.3 1-.7 2-1.1 3h8.5zm5.4 3.9c.7-.2 1.4-.5 2.1-.8.7-.3 1.4-.8 2.2-1.2.7-.5 1.4-1 2.1-1.6.7-.6 1.3-1.3 1.8-2h-4.6v-1h6c1.2 1.6 2.6 3 4.3 4.1 1.7 1.2 3.3 2 4.9 2.5-.2.3-.3.6-.5.9-1.7-.5-3.3-1.3-4.8-2.4-1.6-1.1-3-2.5-4.2-4-.4.6-1 1.2-1.6 1.8-.6.6-1.3 1.3-2 1.8-.8.6-1.6 1.1-2.5 1.6s-1.8.9-2.8 1.2c-.1-.1-.2-.5-.4-.9zm9.9 9.8h8.7v1h-18.2v-1h8.4v-4h-6v-1h6v-3.6H650v-1h11.3v1H656v3.6h6.3v1H656v4zm24.5-14.8c.6.5 1.3 1.1 2.1 1.9.8.8 1.5 1.5 2.2 2.3.7.8 1.2 1.4 1.7 2l-.8.8c-.1-.1-.3-.4-.6-.8s-.7-.9-1.3-1.6c-.5 0-2.6.2-6.4.4-3.8.2-6 .4-6.6.4h-.4c-.2 0-.3 0-.5.1-.2 0-.3 0-.4.1-.2-.6-.2-1-.3-1.1.2 0 .5-.2.9-.4s.9-.6 1.5-1.2 1.3-1.2 1.9-2c.7-.8 1.2-1.4 1.6-1.9.4-.5.7-1 .9-1.3.2.1.6.2 1.2.5l-.2.2c-1.3 1.6-2.4 2.9-3.2 3.8-.9.9-1.7 1.6-2.5 2.3h.8c.4 0 1.9-.1 4.4-.3 2.5-.1 4.6-.3 6.3-.4l-.9-.9-1.2-1.2c-.4-.4-.8-.7-1.1-1 .4-.4.6-.5.9-.7zm3.3 7.8v8.6h-1.1v-1.4h-10.4v1.4h-1.1v-8.6h12.6zm-11.4 6.2h10.4v-5.2h-10.4v5.2zm-191.6 32c1.3 0 2.7-.1 4.2-.2s2.7-.2 3.7-.4l-.3 1c-.8.1-1.9.2-3.5.3s-2.9.1-4.1.1c-1.9 0-3.6-.3-4.9-.8-1.3-.6-2.3-1.4-2.8-2.4-.6 1.4-1.5 2.5-2.6 3.3-.2-.3-.4-.6-.7-.8.4-.3.8-.6 1.1-.9s.6-.7.9-1.1.5-.9.8-1.6c.3-.7.5-1.5.6-2.4h-2.3l-.2-.9c.2-.1.4-.3.5-.5.3-.4.6-.9 1-1.4.4-.6.7-1.1.9-1.4H470v-.9h3.6l.1-.1c.2.1.5.4.8.7l-.2.1c-.7 1.3-1.5 2.5-2.2 3.5h1.5l.1-.1.8.7-.2.1c-.2 1-.4 1.8-.7 2.7.1.4.3.7.5 1 .2.3.6.6.9.9.4.3.9.5 1.4.8.6.2 1.3.4 2.1.5.8.2 1.6.2 2.3.2zm-7.6-13c-.3-.5-.7-1-1.2-1.6s-.9-1.1-1.3-1.5l.7-.6 1.3 1.3c.5.6.9 1.1 1.3 1.7l-.8.7zm11.8-2.5h-9.1v-.9h9.9l.1-.2c.3.2.6.4.9.7l-.3.1c-.4.4-1 .9-1.6 1.3-.7.5-1.3.9-1.8 1.2l1.3.6-.1.2h2.6v9.3c0 .4-.2.7-.6.9-.4.2-1.1.3-2 .3l-.4-1c.5 0 .8.1 1 .1.3 0 .6 0 .7-.1.2-.1.3-.2.3-.4v-2h-3.6v3.6h-1V232h-3.5v3.7h-1V225h6c-.8-.3-1.5-.7-2.3-1-.8-.3-1.5-.5-2.2-.7l.5-.6c.8.2 1.9.6 3.2 1.1.5-.2 1-.5 1.5-.9.6-.4 1.1-.7 1.5-1zm-3.6 3.9h-3.5v2.3h3.5v-2.3zm-3.6 5.4h3.5v-2.4h-3.5v2.4zm8.1-3.2v-2.3h-3.6v2.3h3.6zm-3.6 3.2h3.6v-2.4h-3.6v2.4zm20.5 6.2c1.2 0 2.5-.1 4-.2s2.7-.2 3.5-.4c0 0 0 .2-.1.5s-.1.5-.2.6c-.8.1-1.9.2-3.4.3-1.5.1-2.8.1-3.9.1-.9 0-1.8-.1-2.7-.2s-1.6-.3-2.2-.6c-.7-.3-1.2-.6-1.7-1s-.8-.9-1.1-1.4c-.6 1.4-1.5 2.5-2.6 3.4-.3-.3-.5-.6-.7-.8.4-.3.8-.6 1.2-1.1.4-.4.8-.9 1.1-1.5.3-.6.5-1.2.7-1.8.2-.6.3-1.2.4-1.9h-2.3l-.2-.8c.1 0 .2-.1.3-.2l.2-.2c.3-.4.6-.9 1-1.6s.7-1.3.9-1.8h-3.1v-.9h3.5l.1-.1.8.7-.2.1c-.3.7-.7 1.4-1.1 2.1-.4.7-.8 1.4-1.2 1.9h1.5l.1-.1.8.7-.2.1c-.2 1.1-.4 2-.7 2.9.1.2.2.5.3.8.2.3.4.6.7.9.3.3.7.6 1.2.8.5.2 1 .4 1.6.6l1.8.3c.9-.2 1.4-.2 1.9-.2zm-6.8-13.6-.8.7c-.3-.5-.7-1-1.2-1.6-.5-.6-.9-1.1-1.4-1.5l.7-.5c.4.3.8.8 1.3 1.4.6.4 1.1.9 1.4 1.5zm2.3 11.7v-8.6h1.4v-6h8.5v6h1.4v7.2c0 .5-.2.8-.6 1s-1.2.3-2.4.3c-.1-.2-.2-.5-.5-1.1.3.1.7.1 1.3.1.2 0 .5 0 .7-.1s.4-.1.4-.2c.1-.1.1-.2.1-.3v-6.1h-9.2v7.7h-1.1zm2.3-13.6v5.1h2.9v-3.2h3.7v-1.9h-6.6zm.9 11.7v-4.1h4.6v4.1h-4.6zm3.7-3.3h-2.7v2.6h2.7v-2.6zm-.8-3.3h2.7v-2.4h-2.7v2.4zm10.2-3.2h6.5v.9h-7.4v-.9h.9zm5.8 8.7v6.3h-.9v-1.2h-4v1.2h-1v-6.3h5.9zm-1-4.9h-4.6v-.9h5.4v.9h-.8zm-4.6 2.9v-.9h5.4v.9h-5.4zm.7 6.3h4v-3.4h-4v3.4zm3.2-13.9-.9.5c-.5-1-1.1-2-1.7-2.7l.8-.5c.3.3.5.7.9 1.2s.7 1 .9 1.5zm2.7 13.5c.3-.5.7-1.1 1-2.1.3-.9.6-1.8.7-2.5l.9.4-.1.1c-.2 1-.4 1.9-.7 2.7-.3.9-.6 1.6-.9 2.1l-.9-.7zm.7-7.7c.3-.1.7-.3 1.1-.6.4-.3.8-.6 1.2-1 .4-.4.8-.8 1.1-1.3-.9-.5-1.8-1-2.9-1.4.1-.2.3-.5.5-.7 1 .4 1.9.8 2.8 1.3.2-.3.3-.7.4-1.1.1-.4.2-.7.2-1.1s.1-.6.1-.9h-4.2v-.9h9.5v.4c0 1.8 0 3.2-.1 4.1 0 .9-.2 1.6-.3 2-.2.5-.5.9-1 1.1s-1.1.3-1.9.3c0-.1-.1-.3-.2-.5l-.3-.6c.1 0 .3.1.6.1h.6c.4 0 .6-.1.9-.2.2-.1.4-.4.5-.6.1-.2.1-.5.2-.8s.1-.8.1-1.4c0-.6 0-1.6.1-2.9h-3.4c-.1 1.7-.5 3.2-1.4 4.5s-2 2.4-3.4 3l-.8-.8zm6.7 8.5c.2-.2.3-.5.3-.9s.1-1 .1-1.8c.1 0 .2.1.3.2.2.1.4.2.6.4 0 .7 0 1.2-.1 1.6s-.2.8-.4 1.1c-.2.3-.5.5-.8.6-.4.1-.8.2-1.4.2-.4 0-.8 0-1.1-.1-.3 0-.6-.1-.9-.2-.4-.2-.5-.7-.5-1.5V231l1 .1v5.8c0 .4.2.6.5.7.2 0 .5.1 1.1.1.3 0 .5 0 .8-.1.2-.1.4-.3.5-.4zm-2.2-8.2c.4.3.8.7 1.2 1.2.4.5.8.9 1.1 1.4l-.7.7c-.2-.4-.6-.9-1-1.4s-.9-.9-1.2-1.2l.6-.7zm4.4 2.5c.3.5.7 1.2 1 2.1s.7 1.7.9 2.5l-.9.5c-.1-.4-.2-.8-.4-1.4s-.4-1.1-.7-1.8c-.3-.6-.5-1.2-.8-1.6l.9-.3zm10.6-6.7h-5.7v-.9h6.6v.9h-.9zm.3 7.7v6.2h-.9v-1.1h-3.6v1.1h-1v-6.2h5.5zm-.2-5.8v.9h-5.1v-.9h5.1zm-4.3 2.9h4.3v.9h-5.1v-.9h.8zm0 7h3.6v-3.3h-3.6v3.3zm2.8-13.7-.9.5c-.2-.4-.4-.9-.7-1.4-.3-.5-.6-1-.8-1.3l.9-.5c.3.4.5.8.8 1.3.3.6.6 1 .7 1.4zm8.1-1.8c-.2.7-.5 1.4-.9 2.1l-1.2 2.1c-.5.7-1 1.3-1.5 1.8s-1.1 1-1.7 1.3c-.2-.3-.4-.5-.6-.8.3-.1.5-.3.9-.5s.7-.5 1.1-.9c.4-.4.7-.7 1-1.2-.6-.6-1.3-1.2-1.8-1.6l.5-.6c.3.2.6.5.9.8.3.3.6.5.8.8.3-.4.5-.9.8-1.4.3-.5.5-1 .6-1.5h-3.8v-.9h4.1l.1-.1c.3.2.6.4.8.6h-.1zm2.2 16.2h4.1v1h-11.5v-1h6.4c.2-.4.4-1 .7-1.6.3-.7.5-1.2.7-1.7l.9.3-.1.2c-.1.4-.3.8-.5 1.4-.3.5-.5 1-.7 1.4zm2.1-8.3v4.3h-7.7V229h7.7zm-5.7 8c-.2-.4-.3-.9-.5-1.4s-.4-.9-.6-1.3l.8-.3c.4 1 .8 1.8 1 2.6l-.7.4zm-1-4.5h5.8v-2.7h-5.8v2.7zm5.3-5.3h-5v-.9h5v.9zm2.9 1.1c-1.1-.8-2.1-2-3.1-3.4-.9-1.4-1.6-2.9-2-4.4l.8-.2c.1.3.2.6.3 1s.3.7.4 1c.9-.8 1.4-1.4 1.7-1.7.3.2.5.4.6.6l-.2.1c-.6.7-1.2 1.2-1.8 1.7.3.6.6 1.1 1 1.7.3-.3.7-.6 1.1-1s.7-.7.9-1l.2.2c.1.1.3.2.4.4l-.2.1c-.5.6-1.2 1.2-2 1.9.3.4.7.8 1.1 1.2.4.4.8.7 1.2 1l-.4.8zm11.2-4.9v12.9h-1v-1.1h-4.1v2h-1v-13.9h1.9c.1-.2.2-.6.4-1.1.2-.5.3-.9.3-1.3.1-.4.1-.7.1-.8l1.1.2-.1.2c-.1.4-.2.9-.4 1.4-.2.5-.3 1-.5 1.4h3.3zm-1 1h-4.1v4.4h4.1v-4.4zm-4.1 10h4.1v-4.7h-4.1v4.7zm15.6-10.9v.4c0 3.7-.1 6.5-.2 8.4s-.4 3.3-.7 4c-.1.1-.2.3-.3.5-.1.2-.3.4-.6.6-.3.2-.5.3-.8.5-.3.1-.7.2-1.2.3s-1.1.1-1.9.1c0 0 0-.1-.1-.3 0-.1-.1-.3-.2-.5s-.2-.4-.2-.5c.2 0 .4.1.6.1h.6c.9 0 1.6-.1 2.1-.4.5-.2.9-.6 1.1-1.1.2-.3.3-.8.4-1.4s.2-1.7.3-3.2c.1-1.5.1-3.7.1-6.7h-5.9c-.2.3-.3.7-.6 1s-.5.8-.7 1.1c-.3.4-.5.7-.8 1-.2-.2-.4-.4-.8-.7.5-.5 1-1.1 1.5-2 .5-.9.9-1.7 1.3-2.5.3-.8.6-1.5.7-2.2l1 .2-.1.1c-.3 1-.6 1.9-1.1 2.9h6.5zm-3.8 8.6-.9.6c-.3-.6-.7-1.2-1.2-2s-1-1.4-1.4-1.8l.8-.6c.3.3.8.9 1.3 1.6.5.8 1 1.5 1.4 2.2zm12.1-1.5v6.3c0 .5-.2.9-.7 1.1-.4.2-1.2.3-2.4.3l-.5-1.2h1.3c.4 0 .7 0 .9-.1.2-.1.3-.2.3-.5V231l-2 .7-.7.3-.3-1.1c.4-.1.6-.1.8-.2.3-.1 1.1-.3 2.2-.8v-4.6h-2.8v-1h2.8v-4.2h1.1v4.1h2.3v1h-2.3v4.2c1.2-.5 2-.8 2.4-.9v1c-.8.5-1.5.8-2.4 1.1zm9.5 3.9c.5.6 1.3 1.2 2.2 1.8.9.5 1.9 1 3.1 1.4l-.4 1c-1.1-.4-2.1-.8-3.1-1.4-1-.6-1.8-1.3-2.5-2.1-.8.8-1.8 1.4-2.9 2-1.1.6-2.3 1.1-3.4 1.4l-.5-1c1.1-.3 2.2-.7 3.3-1.3 1.1-.6 2-1.2 2.8-1.9-1.3-1.6-2.2-3.5-2.7-5.5H588v-1h4.2v-3.3h-4.8v-1h4.8v-3.4h1.1v3.4h5.1v1h-5.1v3.3h2.8l.1-.1c.3.2.6.4.9.7l-.1.1c-.7 2.1-1.7 4-3.4 5.9zm2.1-5.6h-5.2c.2.9.5 1.7 1 2.6.4.8.9 1.6 1.5 2.3.5-.5.9-1 1.3-1.6.4-.6.7-1.2 1-1.7.1-.7.3-1.2.4-1.6zm13.8 1.9v6.6h-1v-1.1h-4.2v2h-1.1V223h1.5c.2-.4.4-.8.6-1.4.2-.6.4-1 .4-1.4l1.1.2-.1.2c-.3.8-.6 1.6-1 2.4h3.3v5.1h-4.9v2.6h5.4zm-1.3-6.8h-3.9v3.3h3.9V224zm-3.9 11.4h4.2v-3.6h-4.2v3.6zm15.3-12.7h-3.7v3.1h3.9v9.3c0 .4-.2.8-.6 1-.4.2-1.1.3-2.1.3l-.5-1.1h1.1c.3 0 .6 0 .7-.1.2-.1.3-.2.3-.4v-8.1h-2.9v12h-1.1v-12H612v9.9h-1.1v-10.9h3.7v-3.1H610v-1h10.5v1c0 .1-.4.1-.9.1zm21.5 11.6h-16.9v-1h1.6l-.2-11.2v-.8l.7.2c.5-.1 1.1-.3 1.7-.6.7-.3 1.2-.5 1.6-.7l.6.7-.2.1c-.3.2-.8.3-1.3.6-.6.2-1.3.5-2.1.7l.1 2.8h3.3v.9h-3.3l.1 3h3.2v.9h-3.2l.1 3.4h4.6c0-.8.1-1.8.1-3v-2.6h1v.2l-.1 5.4h2.4c0-1.9.1-4.2.2-7h-3.8c.1-.8.1-1.9.2-3.3s.1-2.3.1-2.9v-.1c.1 0 .4 0 .9.1v.1l-.1 1.9h3.7v.9h-3.7l-.1 2.5h3.7c-.1 3.3-.2 6-.3 7.8h4.5l.1-3.4h-3.1v-.9h3.1l.1-3.1h-3.2v-.9h3.2l.1-2.8h-3.3v-.9h4.3c-.1 1.7-.2 5.7-.4 11.9h1.7v1c-.5.2-1 .1-1.7.1zm-16.9 3.4c.7-.2 1.6-.4 2.5-.7s1.7-.6 2.4-1c.7-.3 1.2-.6 1.5-.8l.9.6c-.9.6-1.9 1.1-3 1.6-1.2.5-2.3.9-3.5 1.2 0 0-.1-.2-.3-.4l-.5-.5zm12.2-2.4c1 .3 2.1.7 3.3 1.1 1.2.4 2.2.8 3.1 1.2l-.7.9c-1.8-.9-4-1.8-6.5-2.7l.8-.5zm10.8-11.5h6.7v.9h-7.6v-.9h.9zm6 8.7v6.2h-1v-1.2H648v1.2h-1v-6.2h6.2zm-1.1-4.9h-4.7v-.9h5.5v.9h-.8zm-4.7 2.8v-.9h5.5v.9h-5.5zm.7 6.2h4.2v-3.3h-4.2v3.3zm3.2-13.7-.9.5c-.5-1-1-1.9-1.6-2.8l.8-.4c.3.3.5.8.8 1.3s.6.9.9 1.4zm13.8 14.9c-.2.3-.3.6-.5.9-.9-.3-1.8-.7-2.7-1.2-.8-.5-1.6-1.1-2.2-1.7-1.3 1.3-3.1 2.2-5.2 2.9-.1-.2-.2-.5-.5-.9 2-.5 3.7-1.4 5-2.7-.6-.7-1.1-1.4-1.5-2.2-.4-.8-.8-1.7-1-2.7H655v-1h7.3l.1-.1c.5.4.8.6.9.7l-.1.1c-.5 2.1-1.4 3.8-2.7 5.2 1.1 1.2 2.7 2 4.6 2.7zm-7.1-14.7c0 1-.3 2-.8 2.8-.6.8-1.3 1.5-2.3 2-.1-.2-.3-.5-.6-.8 1-.6 1.7-1.2 2.1-1.8.4-.7.6-1.4.6-2.3v-2h4.9v4.7c0 .2.1.4.3.4h1.2c.6 0 1.1 0 1.4-.1l-.1 1c-.5 0-.9.1-1.4.1-.5 0-.9 0-1.2-.1-.3 0-.6-.1-.7-.2-.3-.2-.4-.6-.4-1.2V222h-3v1.1zm4 7h-4.5c.5 1.6 1.2 3 2.2 4.2 1.1-1.2 1.8-2.6 2.3-4.2zm9.6-5.4v14.1h-1.1v-5.1c0-2 .1-4.5.2-7.5-.4.8-.8 1.5-1.3 2.2-.4.7-.9 1.3-1.4 1.8-.1-.3-.3-.6-.5-1 1-1.1 1.9-2.5 2.8-4.3.9-1.8 1.6-3.4 2-5l1 .4-.1.1c-.4 1.5-.9 2.9-1.6 4.3zm14 1.7h-8.3c-.2.6-.5 1.3-.9 2h9.3v9c0 .2 0 .4-.1.6-.1.2-.3.3-.5.4-.2.1-.5.2-.9.2s-.9.1-1.4.1c-.1-.2-.2-.5-.5-1 .6.1 1 .1 1.2.1.2 0 .5 0 .7-.1.2 0 .3-.1.4-.2s.1-.2.1-.3v-2H681v3.3h-1v-3.3h-3.5v3.6h-1v-9c-.4.6-.8 1.1-1.3 1.6s-.9 1-1.4 1.4c-.3-.4-.5-.7-.6-.8.7-.6 1.5-1.3 2.2-2.3.7-1 1.3-2 1.7-3.1h-2.9v-.9h3.9v-2.4h-3.2v-.9h3.2v-2.1c.3 0 .6 0 1.1.1v2.1h3.7v-2.1c.3 0 .7 0 1.1.1v2.1h3v.9h-3v2.4h3.7v.9c-.1-.4-.5-.4-1.1-.4zm-5.4 2.8h-3.5v2.2h3.5v-2.2zm-3.5 5.1h3.5v-2.1h-3.5v2.1zm1.8-11.1v2.4h3.7v-2.4h-3.7zm6.3 8.2v-2.2h-3.7v2.2h3.7zm-3.7 2.9h3.7v-2.1h-3.7v2.1zm-207.3 27.5v6.4c0 .5-.2.9-.7 1.1s-1.2.3-2.3.3l-.5-1.2c.5.1.9.1 1.3.1s.7 0 .9-.1c.2-.1.3-.2.3-.5v-5.7l-2 .7-.7.3-.3-1.1.7-.2c.3-.1 1-.3 2.2-.7v-4.7h-2.8v-1h2.8v-4.2c.3 0 .6 0 1.1.1v4.2h2.3v1h-2.3v4.3c1.4-.5 2.1-.8 2.3-.9v1c-.3 0-1.1.3-2.3.8zm10.4 6.8c1.9 0 3.3-.1 4.5-.2l-.3 1c-.9.1-2.4.1-4.4.1-.5 0-1.1 0-1.7-.1-.6-.1-1.1-.3-1.6-.5s-.9-.5-1.3-.8c-.4-.3-.7-.6-1-1-.3-.4-.5-.8-.7-1.3-.2.4-.4.9-.6 1.4l-.9 1.5c-.3.5-.7.9-1 1.2l-.8-.7c.3-.3.7-.7 1-1.2.3-.5.7-1 1-1.6.3-.6.6-1.3.8-2s.4-1.5.5-2.2l1 .3s-.1.1-.1.2c-.1.7-.2 1.4-.4 1.9.2.9.5 1.7 1.1 2.3.6.6 1.3 1.1 2.3 1.4v-7.1h-5.1v-1h11.7v1h-5.7v3h4.4v.9h-4.4v3.4c.2 0 .4.1.8.1h.9zm-6.3-10.1v-6.7h8.7v6.7h-8.7zm7.6-5.9h-6.6v2.1h6.6v-2.1zm-6.6 5.1h6.6v-2.2h-6.6v2.2zm16.3-1.9v13.9H494v-5c0-1.9.1-4.4.2-7.4l-1.2 2.1c-.4.7-.9 1.3-1.4 1.8-.1-.3-.3-.6-.6-1 .6-.7 1.2-1.5 1.8-2.5.6-1 1.2-2.1 1.7-3.2.5-1.2 1-2.4 1.3-3.5l1 .4-.1.1c-.3 1.4-.8 2.9-1.5 4.3zm14.1 7h1.3v1h-13.9v-1h3.8v-5.6h-3v-1h3v-4.8c.5 0 .9 0 1.2.1v4.8h4.1v-4.9c.6 0 1 0 1.2.1v4.8h3.4v1H507v5.6h2.3zm-12.6 6c.8-.4 1.7-1.1 2.5-1.8.8-.8 1.5-1.5 1.9-2.1l.8.7c-.5.7-1.1 1.5-1.9 2.2-.8.8-1.7 1.4-2.5 2l-.8-1zm4.8-11.6v5.6h4.1v-5.6h-4.1zm4.7 7.5c.6.5 1.3 1.2 2 2 .8.8 1.4 1.5 1.9 2.2l-.8.9c-1.1-1.4-2.5-2.9-4-4.4l.9-.7zm16.1-5.1v10.8h-1v-2.9c-3.4.6-5.6 1-6.7 1.2l-.7.2-.3-1 .8-.1c.4 0 .9-.1 1.6-.2v-8h-2v-.9h18.3v.9h-10zm-5.4-2.6v-5.3h12.5v5.3h-1v-4.5h-10.3v4.5h-1.2zm4.5 2.6H517v2h4.4v-2zm-4.4 2.7v1.9h4.4v-1.9H517zm0 5.1c1.7-.3 3.2-.6 4.4-.8v-1.5H517v2.3zm10.5-13.5v.8h-8.4v-.8h7.5c.4.1.7.1.9 0zm-7.6 2.3h7.5v.8H519v-.8h.9zm12.8 12.7-.5.9c-1.8-.7-3.3-1.5-4.4-2.5-1.1 1-2.4 1.7-3.9 2.2 0 0 0-.1-.1-.2s-.1-.2-.2-.3-.2-.3-.3-.4c1.4-.4 2.7-1 3.8-1.9-1-1.1-1.8-2.5-2.2-4.1h-1.6v-.9h6.9l.1-.1c.3.2.5.4.8.6l-.2.1c-.5 1.7-1.4 3.2-2.5 4.4 1.1.9 2.5 1.6 4.3 2.2zm-2.8-6.3h-4.1c.5 1.4 1.1 2.6 2 3.5 1-.9 1.7-2.1 2.1-3.5zm22.8 2.2h1.5v.9h-4.5v2.3c0 .4-.1.7-.3.9-.2.2-.6.4-1.1.5s-1.5.2-2.7.2c-.1-.1-.2-.3-.3-.6l-.3-.6c.8.1 1.3.1 1.5.1h.5c.5 0 1-.1 1.3-.2.3-.1.5-.3.5-.6v-2.2h-12.4v-.9h12.4v-1.5c.3 0 .7 0 1.1.1v1.4h2.8zm-8-11.1h-8.3v-.9h8.3v-1.6h1.1v1.6h8.2v.9h-8.2v1.5h5.8v5.6h-.7c.4.4.9.8 1.5 1.3s1 1 1.4 1.5l-.8.7c-.3-.4-.6-.8-1-1.3h-.3c-.2 0-.9 0-2.1.1-1.2 0-3.2.1-6 .2s-4.8.1-5.9.1c-.1 0-.3 0-.8.1 0-.2 0-.5-.1-1h.9c1.2.1 3.6 0 7.1 0v-1.7H539v-5.6h5.8v-1.5zm0 2.2h-4.8v1.6h4.8v-1.6zm-4.8 4.1h4.8v-1.7h-4.8v1.7zm0 6.7.5-.6c.5.2 1.1.5 1.7.8.7.4 1.2.7 1.7 1.1l-.5.8c-.4-.3-.9-.7-1.6-1.1s-1.2-.7-1.8-1zm10.6-10.8h-4.8v1.6h4.8v-1.6zm-4.8 2.4v1.7h4.8v-1.7h-4.8zm0 2.4v1.6c2.8-.1 4.6-.2 5.5-.2-.7-.6-1.1-1-1.2-1.1l.5-.3h-4.8zm22.8 3.9c.8.8 2 1.6 3.5 2.3s3.1 1.1 4.8 1.4c-.4.5-.5.8-.6.9-.9-.2-1.7-.4-2.6-.7-.8-.3-1.6-.6-2.4-1s-1.4-.8-2-1.2c-.6-.4-1.1-.9-1.6-1.4v4.9h-1V265c-.6.6-1.2 1.1-2 1.7-.8.5-1.7 1-2.8 1.5s-2.2.9-3.5 1.1c0-.1-.2-.4-.6-.9 1.6-.3 3.2-.8 4.6-1.5 1.5-.7 2.6-1.5 3.4-2.3h-7.9v-.9h8.7v-2h-6.4v-.9h6.4V259h-7.3v-.9h4.8c-.1-.1-.2-.3-.4-.7-.2-.3-.5-.7-.9-1.3l1-.3c.2.3.4.7.7 1.1.3.4.5.8.7 1.2h4c.3-.4.5-.8.8-1.2.2-.4.4-.8.5-1.1.3.1.6.2 1 .4l-.1.2c-.5.8-.8 1.4-1.1 1.7h4.8v.9h-7.5v1.8h6.4v.9h-6.4v2h8.8v.9h-7.8zm6.1-9.1h-16.1v-.9h4c-.1-.2-.3-.5-.6-.9s-.7-1-1.2-1.6l.9-.3c.3.3.6.7.9 1.2s.7 1 .9 1.3l-.8.3h2.3v-3.4c.5 0 .8 0 1 .1v3.4h2.8v-3.4c.5 0 .8 0 1 .1v3.4h1.6c.3-.4.7-.9 1-1.4.4-.6.7-1.1.8-1.6l1 .4-.1.1c-.4.7-.9 1.5-1.6 2.4h3.7v.9c-.3-.1-.8-.1-1.5-.1zm12.7-1.1v12.9h-1v-1.1h-4.1v2h-1v-13.9h1.9c.1-.2.2-.6.4-1.1.2-.5.3-.9.3-1.3.1-.4.1-.7.1-.8l1.1.2-.1.2c-.1.4-.2.9-.4 1.4-.2.5-.3 1-.5 1.4h3.3zm-1 1h-4.1v4.4h4.1v-4.4zm-4.1 10h4.1v-4.7h-4.1v4.7zm15.6-10.9v.4c0 3.7-.1 6.5-.2 8.4s-.4 3.3-.7 4c-.1.1-.2.3-.3.5-.1.2-.3.4-.6.6-.3.2-.5.3-.8.5-.3.1-.7.2-1.2.3s-1.1.1-1.9.1c0 0 0-.1-.1-.3 0-.1-.1-.3-.2-.5s-.2-.4-.2-.5c.2 0 .4.1.6.1h.6c.9 0 1.6-.1 2.1-.4.5-.2.9-.6 1.1-1.1.2-.3.3-.8.4-1.4s.2-1.7.3-3.2c.1-1.5.1-3.7.1-6.7h-5.9c-.2.3-.3.7-.6 1s-.5.8-.7 1.1c-.3.4-.5.7-.8 1-.2-.2-.4-.4-.8-.7.5-.5 1-1.1 1.5-2 .5-.9.9-1.7 1.3-2.5.3-.8.6-1.5.7-2.2l1 .2-.1.1c-.3 1-.6 1.9-1.1 2.9h6.5zm-3.7 8.6-.9.6c-.3-.6-.7-1.2-1.2-2s-1-1.4-1.4-1.8l.8-.6c.3.3.8.9 1.3 1.6.5.8 1 1.5 1.4 2.2zm15.5-10.8v15.9c0 .5-.2.8-.6 1-.4.2-1.1.3-2.2.3-.2-.4-.3-.8-.5-1.1.4.1.8.1 1.2.1.3 0 .6 0 .8-.1.2-.1.3-.2.3-.5v-5.1h-3.8c-.2 1.5-.4 2.8-.8 4-.4 1.2-.8 2.1-1.3 2.8l-.8-.7c.7-.9 1.2-2.1 1.6-3.7.4-1.6.6-3.4.6-5.5v-7.5h5.5zm-4.8 9.7h3.7v-4h-3.6v1.8c0 .9 0 1.6-.1 2.2zm3.8-8.7H605v3.8h3.6v-3.8zm8.7 12.3c.5.6 1 1.2 1.6 1.6.6.5 1.3.9 2 1.3l-.5.9c-1.4-.8-2.6-1.8-3.6-3.1-.9 1.2-2 2.1-3.1 2.8l-.6-.9c.6-.3 1.2-.7 1.7-1.2s1-1 1.4-1.6c-.4-.5-.7-1.1-.9-1.6s-.5-1.2-.7-1.9c-.2-.7-.4-1.4-.6-2.2h-1.3v9.8h-1.1v-17.3h8.2v.4c0 1-.1 1.7-.1 2.1s-.1.9-.3 1.1c-.2.4-.5.7-.9.9-.4.2-1.1.3-2 .3-.1-.2-.2-.6-.5-1.1.3.1.6.1 1 .1.8 0 1.2-.2 1.4-.7.1-.2.2-.5.2-.9s.1-.8.1-1.3h-6.1v5.7h6l.1-.1c.2.2.5.4.8.7l-.1.1c-.2 1.1-.4 2.2-.8 3.2-.3 1.2-.8 2.1-1.3 2.9zm-2.5-5.8c.3 1.9 1 3.5 1.9 4.9.8-1.4 1.4-3 1.7-4.9h-3.6zm18.1-.8-.2.1c-.3.7-.6 1.5-1.1 2.2s-.9 1.4-1.3 1.8c-.2-.2-.5-.4-.8-.5.3-.3.7-.8 1.1-1.5.4-.6.7-1.2 1-1.8h-2.5v8.7c0 .3-.1.5-.2.7s-.3.4-.5.5c-.3.1-.6.2-1.1.3s-1 .1-1.7.1l-.6-1.1s.2 0 .6.1c.3 0 .7.1 1 .1.4 0 .8 0 1.1-.1.3-.1.4-.3.4-.6v-6c0-.8.1-1.4.1-2-.1.3-.3.7-.5 1.2s-.4 1.1-.8 1.7c-.3.6-.7 1.3-1.1 2-.4.7-.9 1.3-1.3 1.8 0 0 0-.1-.1-.1 0 0-.1-.1-.1-.2-.1-.1-.1-.2-.3-.3-.1-.1-.2-.2-.3-.2.5-.5 1-1.2 1.5-2 .5-.9 1-1.7 1.4-2.5.4-.8.7-1.5.9-2.2h-3.4v-.9h7.7l.1-.1c.1.1.3.2.5.4.3.2.4.3.5.4zm-2.1-5.9h-6.2v-1h6.7l.1-.1c.3.2.6.5.9.7l-.2.1c-.4.5-.8 1.1-1.3 1.8s-1 1.2-1.5 1.7c.6.3 1.1.7 1.8 1.2l-.6.8c-.6-.5-1.3-1-2.2-1.5-.9-.5-1.8-1-2.6-1.3l.5-.7c.6.2 1.4.6 2.3 1.1l1.2-1.2c.3-.6.7-1.1 1.1-1.6zm11.5 9.7v.4c0 1.4-.1 2.5-.1 3.3-.1.8-.2 1.3-.4 1.8-.2.4-.6.8-1.2 1-.6.2-1.4.3-2.6.3 0-.1-.2-.5-.5-1.2.4.1.8.2 1.2.2 1.1 0 1.9-.3 2.2-.8.2-.3.3-.8.3-1.4.1-.6.1-1.5.1-2.7h-3.6c-.2.7-.4 1.4-.8 2s-.7 1.2-1.2 1.7-1 1-1.7 1.3-1.4.7-2.1.9l-.7-.8c.7-.2 1.4-.5 1.9-.8.5-.3 1-.6 1.4-1 .4-.4.8-.8 1.2-1.4s.7-1.2.9-2h-4.1v-.9h4.3c0-.2.1-.5.1-.9v-1.3s.4 0 1.1.1v1.2c0 .4-.1.7-.1.9h4.4zm-4-4.5c1.2.9 2.7 1.6 4.6 2l-.4 1c-2-.5-3.6-1.3-4.8-2.3-.6.5-1.3 1-2.2 1.4s-1.7.7-2.7.9c-.1-.3-.3-.6-.5-.9 1.9-.4 3.4-1.1 4.6-2.1-.2-.2-.5-.5-.8-.9l-.9-1.2c-.3-.4-.4-.8-.6-1.1-.5.6-1 1.1-1.4 1.5l-.7-.7c.4-.3.9-.7 1.3-1.3.4-.5.8-1.1 1.1-1.7.3-.6.6-1.2.7-1.8l1 .2-.1.1c-.1.2-.2.5-.4.9s-.3.7-.4.9h6.7v.9h-1.9c-.4 1.7-1.1 3.1-2.2 4.2zm-3-4c.5 1.3 1.3 2.5 2.3 3.5.9-.9 1.6-2.1 2-3.5h-4.3zm19.1 7v8.5h-1.1v-1.4h-5.2v1.4H647v-8.5h7.4zm-6.2 6.1h5.2v-5.1h-5.2v5.1zm2.1-8.5v-6.6h10.5v6.6h-10.5zm9.4-5.7h-8.3v4.7h8.3v-4.7zm4.6 8.8v7.8h-1.1v-1.4h-5.4v1.4h-1.1v-8.5h7.5l.1.7zm-6.5 5.4h5.4v-5.1h-5.4v5.1zm10.9-8.4c-.1-.2-.4-.4-.7-.7.5-.3.9-.7 1.2-1.2.3-.4.5-.9.7-1.5.2-.5.2-1.2.2-1.8v-2c.4.1.7.2.8.3.7 0 1.5-.1 2.5-.3s1.9-.4 2.8-.7l.5.8-.4.1c-.8.2-1.7.4-2.6.5-.9.1-1.8.3-2.8.3v1.6h6.3v.9h-2.8v2.8h-1.1v-2.8H671c-.1.4-.2.9-.4 1.4-.2.5-.4.9-.7 1.4-.3.2-.7.6-1.2.9zm-.5 9.7c1.1-.1 2.3-.4 3.7-.7 1.3-.4 2.3-.7 2.9-1.1l.9.5c-.4.2-.9.5-1.5.7s-1.4.6-2.4.8c-.9.3-1.8.5-2.7.7l-.9-.9zm15.4-10.1v7.7h-12v-7.7h12zm-1.1.8h-9.9v1.6h9.9v-1.6zm0 2.3h-9.9v1.5h9.9v-1.5zm-9.9 3.9h9.9v-1.8h-9.9v1.8zm13.3-11.3h.9v.9h-3.4v2.8h-1v-2.8h-2.6c-.2.7-.4 1.2-.8 1.8-.4.5-.8.9-1.4 1.2l-.7-.7c.5-.3.9-.7 1.2-1.1.3-.4.6-.9.7-1.4.1-.5.2-1 .2-1.4v-1.9l.8.3c.8-.1 1.7-.2 2.7-.4s1.9-.4 2.6-.6l.6.7-.4.1c-1.2.3-2.2.5-3 .6s-1.6.2-2.3.2v1.5h5.9zm-6.5 13.1.9-.5c.7.2 1.6.4 2.8.8 1.2.3 2.4.7 3.6 1.2 0 0-.1.2-.3.4-.2.2-.3.4-.3.5-2.4-1.1-4.6-1.8-6.7-2.4zM533.9 72.5h-24.2v10.3c0 4.1-.4 7.8-1.2 11.1-.8 3.3-1.8 5.7-3.2 7.4l-1.6-1.3c1.2-1.6 2.2-3.8 2.9-6.9.7-3 1.1-6.5 1.1-10.4V70.8h28.6v1.8c-.4 0-1.2-.1-2.4-.1zm-15.6 20.1-.3.3c-.3.6-.8 1.4-1.5 2.2-.6.9-1.4 1.8-2.3 2.7-.9.9-1.8 1.7-2.7 2.3-.7-.6-1.2-1.1-1.5-1.3 1.2-.7 2.4-1.7 3.6-3 1.2-1.3 2.2-2.6 2.9-4 .5.2 1.1.5 1.8.8zm6.9-3.3v8.1l.1 1.8c0 .5-.1.9-.3 1.2-.2.3-.5.6-1 .8-.5.2-1.2.4-2 .5s-1.9.1-3.2.1l-1-2c.8.1 1.7.2 2.9.2.8 0 1.4-.1 1.9-.2.5-.2.8-.5.8-1v-9.6h-9c0-.4.1-.8.1-1v-10c0-.3 0-.6-.1-1.1h7.4c.8-1.6 1.4-3.1 1.7-4.4l2 .6-.2.4c-.3 1-.8 2.1-1.4 3.4h9.7v12.1h-8.4zm6.4-10.6h-15.4v3.6h15.4v-3.6zm-15.4 5.2v3.8h15.4v-3.8h-15.4zm15.3 7.8c.8.8 1.8 1.8 2.9 3 1.1 1.2 2.3 2.6 3.5 4.1l-1.5 1.2c-.9-1.2-1.8-2.4-2.9-3.7-1.1-1.2-2.3-2.4-3.5-3.6l1.5-1zm41.2-17.8h-25.6v9.5c0 3.9-.3 7.4-.9 10.5s-1.5 5.5-2.5 7.1c-.6-.6-1.1-1-1.5-1.3 1-1.5 1.8-3.7 2.3-6.6.6-2.9.9-6.2.9-9.9V72.9l-.1-.6h14.5c-.4-.9-1-1.8-1.7-2.9l1.6-.7c.4.5.8 1.1 1.1 1.7.4.6.7 1.3 1 1.9h13.6V74c-.6-.1-1.5-.1-2.7-.1zm-11.5 9.3v15.7c0 .5-.2 1-.5 1.3-.4.3-.9.5-1.6.6-.7.1-1.5.2-2.3.2l-.8-1.7c.7.1 1.3.1 1.9.1.5 0 .9-.1 1.3-.2.3-.1.5-.4.5-.7V84.6h-8.9v17h-1.6c0-.2.1-.7.1-1.3V83.8l-.1-.6h5.4v-6.8l-.1-1c.8 0 1.4 0 1.7.1 0 .2-.1.5-.1.9v6.8h5.1zm-9.8-1.2c-.5-1.5-1.1-3-1.9-4.7l1.3-.4c.3.6.6 1.4.9 2.2s.6 1.7.9 2.4l-1.2.5zm2.4 13.3V97h-1.3v-9.5h5.3v7.8h-4zm2.8-6.6h-2.8v5.4h2.8v-5.4zm1.2-6.9c.4-.6.8-1.4 1.3-2.4s.8-1.9 1.1-2.7l1.4.5-.2.3c-.2.7-.6 1.5-1 2.4-.4.9-.9 1.7-1.3 2.4l-1.3-.5zm12 12.7c1.5 2.4 3.5 4.3 6 5.7-.2.4-.5 1-.7 1.6-.9-.5-1.7-1.1-2.6-1.8-.8-.7-1.5-1.4-2.1-2.1-.6-.7-1.1-1.4-1.4-2-.8 1.2-1.7 2.3-2.7 3.2-1 1-2.2 1.8-3.4 2.5l-.8-1.6c1.4-.8 2.6-1.7 3.6-2.6.9-.9 1.7-2 2.4-3.1-1.3-2.5-2.3-5.6-2.9-9.4-.6 1.2-1.2 2.1-1.8 2.8l-1-1.4c.9-.9 1.8-2.5 2.7-4.6.9-2.1 1.5-4.3 1.9-6.5l1.6.3-.1.3c-.3 1.6-.8 3.3-1.4 5h8.4v1.7h-2.4c-.7 4.7-1.7 8.7-3.3 12zm-3.6-11.7c.5 4 1.4 7.4 2.7 10.1 1.4-2.8 2.2-6.3 2.5-10.3h-5.1l-.1.2zm16-7.2h11.4v1.7h-13v-1.7h1.6zm10.2 15.3v10.9h-1.7v-2.1h-7.1v2.1H582c0-.4.1-.7.1-1V92c0-.2 0-.6-.1-1h10.4zm-1.9-8.6h-8.1v-1.6h9.5v1.6h-1.4zm-8 5v-1.6h9.5v1.6h-9.5zm1.2 11.1h7.1v-6h-7.1v6zm5.7-24.5-1.6.9c-.9-1.8-1.9-3.5-2.9-4.8l1.5-.8c.4.6.9 1.3 1.5 2.2.5.8 1 1.7 1.5 2.5zm4.7 23.9c.6-.8 1.2-2 1.8-3.6.6-1.6 1-3.1 1.2-4.5l1.6.7-.1.2c-.3 1.7-.8 3.3-1.3 4.8s-1.1 2.7-1.7 3.6l-1.5-1.2zm1.2-13.7c.6-.2 1.2-.6 2-1 .7-.5 1.4-1 2.1-1.8.7-.7 1.3-1.5 1.9-2.3-1.5-.9-3.2-1.7-5-2.4.2-.4.5-.9.9-1.3 1.8.7 3.4 1.5 4.9 2.3.3-.6.5-1.2.7-1.9.2-.7.3-1.3.4-1.9.1-.6.1-1.1.1-1.6h-7.4v-1.7h16.9v.6c0 3.2-.1 5.6-.2 7.2-.1 1.6-.3 2.8-.6 3.6-.3.9-1 1.5-1.8 1.9-.9.4-2 .6-3.4.6-.1-.2-.2-.5-.4-.9s-.3-.8-.5-1.1c.2.1.6.1 1 .2.4 0 .7.1 1 .1.6 0 1.1-.1 1.6-.4.4-.3.7-.6.9-1.1.1-.4.3-.9.3-1.5.1-.6.1-1.4.2-2.4 0-1 .1-2.8.1-5.1h-6.1c-.1 2.9-.9 5.6-2.4 8-1.5 2.4-3.5 4.2-5.9 5.2l-1.3-1.3zm11.9 15c.3-.4.5-.9.6-1.6.1-.7.2-1.8.2-3.3.1 0 .3.2.6.3.3.2.6.4 1.1.7 0 1.2-.1 2.1-.2 2.9s-.4 1.4-.7 1.9c-.3.5-.8.9-1.5 1.1s-1.4.4-2.4.4c-.7 0-1.4 0-2-.1-.6-.1-1.1-.2-1.5-.4-.6-.3-1-1.2-1-2.6V88.2l1.8.1v10.2c0 .7.3 1.1.9 1.2.3.1.9.1 1.9.1.5 0 1-.1 1.4-.2.2 0 .5-.2.8-.5zm-3.9-14.5c.7.5 1.4 1.2 2.1 2.1.8.8 1.4 1.6 2 2.4l-1.2 1.2c-.4-.7-1-1.5-1.8-2.4-.8-.9-1.5-1.6-2.2-2.2l1.1-1.1zm7.7 4.5c.6.9 1.2 2.2 1.9 3.7.6 1.6 1.2 3 1.7 4.5l-1.5.9c-.2-.6-.4-1.4-.7-2.4-.3-1-.7-2-1.2-3.1s-1-2-1.4-2.8l1.2-.8zm17.8-11.9h-10.1v-1.7h11.7v1.7h-1.6zm.6 13.6v10.8h-1.7v-2h-6.4v2h-1.7c0-.4.1-.7.1-1v-8.8c0-.2 0-.6-.1-1h9.8zm-.5-10.1v1.6h-8.7v-1.6h8.7zm-7.5 5h7.4v1.6h-8.7v-1.6h1.3zm-.1 12.4h6.4v-5.8h-6.4v5.8zm5-24.2-1.6.9c-.3-.7-.7-1.5-1.2-2.4-.5-.9-1-1.7-1.4-2.3l1.6-.8c.4.6.9 1.4 1.5 2.3.5.9.9 1.7 1.1 2.3zm14.3-3.1c-.4 1.2-.9 2.4-1.5 3.7-.6 1.3-1.4 2.5-2.2 3.6-.8 1.2-1.7 2.2-2.7 3.2s-1.9 1.7-3 2.3c-.3-.5-.7-.9-1.1-1.3.4-.2 1-.5 1.6-1 .6-.4 1.2-.9 1.9-1.6.6-.6 1.2-1.3 1.8-2.1-1.1-1.1-2.2-2.1-3.2-2.8l1-1c.5.4 1.1.8 1.6 1.3s1.1.9 1.5 1.4c.5-.7 1-1.6 1.4-2.5.5-.9.8-1.8 1.1-2.6H632v-1.6h7.1l.3-.3c.6.4 1.1.7 1.4 1l-.2.3zm3.8 28.5h7.2v1.7c-.5 0-1.2-.1-2.1-.1h-15.9c-.9 0-1.6 0-2 .1v-1.7h11.1c.4-.7.8-1.7 1.3-2.8.5-1.2.9-2.2 1.1-3l1.6.6-.2.3c-.2.6-.5 1.5-1 2.4-.4 1-.8 1.8-1.1 2.5zm3.7-14.7v7.7h-13.5c0-.3.1-.6.1-.9v-5.9c0-.2 0-.5-.1-.9h13.5zm-10 14.2c-.3-.8-.6-1.6-1-2.5-.4-.9-.7-1.6-1-2.2l1.5-.5c.8 1.7 1.4 3.3 1.8 4.7l-1.3.5zm-1.8-8h10.2V86h-10.2v4.8zm9.3-9.4H637v-1.6h8.6v1.6zm5.1 2.1c-2-1.5-3.8-3.4-5.4-6-1.7-2.5-2.8-5.1-3.5-7.7l1.4-.4c.1.4.3 1 .6 1.8.3.7.5 1.3.7 1.7 1.5-1.4 2.5-2.4 3-3 .5.4.8.8 1.1 1.1l-.3.2c-1.1 1.2-2.1 2.2-3.1 3 .5 1 1.1 2 1.7 3 .6-.5 1.2-1.1 1.9-1.8s1.2-1.3 1.5-1.7l.4.4c.2.2.5.4.8.7l-.3.2c-.9 1-2.1 2.2-3.5 3.4.6.8 1.2 1.5 2 2.2.7.7 1.4 1.3 2 1.7l-1 1.2zm-164.5 65.9c.5-1.1.9-2.5 1.3-4s.6-2.9.8-4.1l1.5.3c-.1 1.3-.4 2.7-.8 4.3-.4 1.6-.8 2.9-1.2 4.1l-1.6-.6zm.5-11.7c.3-.1.5-.3.7-.5 1.9-2 3.8-4.5 5.9-7.6l-5 .7-1.1.2-.4-1.5c.1 0 .2-.1.3-.2l.3-.3c1-1.5 2.1-3.1 3.1-5s1.9-3.6 2.5-5.2l1.7.8-.5.7c-.7 1.5-1.6 3-2.5 4.6-.9 1.6-1.9 3.1-2.8 4.3l5.4-.7c1.1-1.8 1.9-3.2 2.5-4.4l1.7.8c-.2.3-.4.6-.6.8-1.6 2.7-3.2 5.1-4.8 7.2-1.6 2.1-2.9 3.8-4 4.9 2.5-.4 5-.8 7.5-1.3-.4-1.1-.9-2.1-1.4-3l1.4-.5c.5.9 1 1.9 1.5 3.2.5 1.3 1 2.5 1.3 3.5l-1.5.6c-.2-.9-.5-1.7-.8-2.4-3.7.7-6.5 1.2-8.7 1.6l-1.3.3-.4-1.6zm5.3 3.8 1.5-.3c.2 1 .4 2.1.7 3.5.2 1.4.4 2.6.5 3.7l-1.7.3c0-1.1-.1-2.3-.3-3.7-.3-1.3-.5-2.5-.7-3.5zm3.9-.5 1.4-.6c.5 1 .9 2 1.4 3.1.5 1.1.9 2.1 1.2 3l-1.6.7c-.3-.9-.7-1.9-1.1-3.1-.4-1.2-.8-2.2-1.3-3.1zm21.2 5.5h1.7v1.7h-14.6v2.6h-1.8l.1-1.3v-19.3l.1-1.5c-1 1.7-2 3-2.8 3.9-.5-.8-.8-1.3-1-1.5.8-.9 1.7-2.2 2.6-3.8.9-1.6 1.7-3.2 2.4-4.8.7-1.6 1.2-3 1.5-4.3l1.7.6-.2.3c-.5 1.6-1 2.9-1.5 4s-.8 1.8-1 2.2h14.1v1.7h-7v5.3h6.1v1.6h-6.1v5.4h6.1v1.6h-6.1v6h5.7zm-12.9-19.6v5.3h5.7v-5.3h-5.7zm5.6 12.1v-5.4h-5.7v5.4h5.7zm-5.6 1.5v6h5.7v-6h-5.7zm8.4-16.5-1.5.7c-.4-.9-.9-1.9-1.4-2.9-.6-1-1.1-1.9-1.5-2.5l1.4-.7c.5.7 1 1.5 1.6 2.6s1.1 1.9 1.4 2.8zm10.3 10c.8-1 1.8-2.3 2.8-4 1-1.7 2-3.6 3-5.9 1-2.3 1.7-4.4 2.2-6.3l1.7.6-.1.3c-.3 1.2-.8 2.5-1.3 3.8-.5 1.4-1 2.7-1.5 3.8v22.8l.1 1.6h-2l.1-1.6c0-2.2 0-5.4.1-9.5s.2-7.7.3-10.7c-.7 1.3-1.3 2.5-2 3.5-.6 1-1.2 1.8-1.6 2.3-.4.5-.7.9-.8 1l-1-1.7zm11.8-10v20l.1 1.4h-1.9l.1-1.4v-21.1c.4 0 1 0 1.8.1-.1.2-.1.5-.1 1zm21.6 15.8 1.2 1.2-.3.1c-1.7 1.5-3.3 2.8-4.8 3.7-1.5.9-3 1.7-4.5 2.4s-3.3 1.3-5.4 1.9c-2.1.6-4.3 1-6.8 1.3l-.8-1.6c1.1-.1 2.4-.3 3.8-.6 1.4-.2 2.8-.6 4.3-1s3-1 4.5-1.6c1.5-.7 3-1.5 4.5-2.5 1.6-1 3-2.1 4.3-3.3zm-15.6-15.1c-1.1 1.4-2.4 2.8-3.9 4.1l-1.1-1.4c1-.8 2-1.7 3-2.8s1.8-2.2 2.4-3.4c.6-1.1 1.1-2.2 1.4-3.1l1.7.6-.1.3c-.7 1.4-1.2 2.5-1.7 3.4h14.4v1.7h-4.4c-.5 1.1-1.1 2.1-1.9 3-.7 1-1.6 1.8-2.5 2.6 2.4 1.4 5.3 2.4 8.8 3.1-.5 1-.8 1.6-.8 1.7-3.7-.7-6.8-1.9-9.5-3.7-1.3.9-2.7 1.7-4.3 2.3-1.6.7-3.3 1.2-5.1 1.6-.1-.3-.5-.9-1-1.6.8-.1 1.7-.3 2.6-.6.9-.2 2-.6 3.1-1s2.2-1 3.3-1.7c-.9-.7-1.7-1.5-2.5-2.3-.8-1-1.4-1.9-1.9-2.8zm8.8 10.1-.2.1c-1.5 1.2-3.2 2.2-5.1 3-1.9.8-4.1 1.4-6.6 1.9l-.8-1.5c4.8-.8 8.6-2.3 11.5-4.6l1.2 1.1zm3.7 2.8c-.8.7-1.7 1.4-2.8 2.1-1.1.7-2.4 1.5-3.7 2.1-1.4.7-2.9 1.3-4.4 1.8-1.6.5-3.1.9-4.6 1.1l-.8-1.5c1.5-.2 2.9-.5 4.4-.9 1.5-.4 2.8-.9 4.2-1.5 1.3-.6 2.6-1.3 3.8-2.1 1.2-.8 2.2-1.6 3.2-2.5l1.1 1.1-.4.3zm-6.7-9c.9-.7 1.6-1.4 2.3-2.2.7-.8 1.3-1.6 1.7-2.5H542c.5.9 1.1 1.7 1.9 2.6.9.8 1.7 1.5 2.6 2.1zm45.2-5.7h-25.6v9.5c0 3.9-.3 7.4-.9 10.5s-1.5 5.5-2.5 7.1c-.6-.6-1.1-1-1.5-1.3 1-1.5 1.8-3.7 2.3-6.6.6-2.9.9-6.2.9-9.9v-10.4l-.1-.6h14.5c-.4-.9-1-1.8-1.7-2.9l1.6-.7c.4.5.8 1.1 1.1 1.7.4.6.7 1.3 1 1.9h13.6v1.7h-2.7zm-11.5 9.3v15.7c0 .5-.2 1-.5 1.3-.4.3-.9.5-1.6.6-.7.1-1.5.2-2.3.2l-.8-1.7c.7.1 1.3.1 1.9.1.5 0 .9-.1 1.3-.2.3-.1.5-.4.5-.7v-13.9h-8.9v17h-1.6c0-.2.1-.7.1-1.3v-16.5l-.1-.6h5.4v-6.8l-.1-1c.8 0 1.4 0 1.7.1 0 .2-.1.5-.1.9v6.8h5.1zm-9.9-1.2c-.5-1.5-1.1-3-1.9-4.7l1.3-.4c.3.6.6 1.4.9 2.2.3.9.6 1.7.9 2.4l-1.2.5zm2.4 13.3v1.7h-1.3v-9.5h5.3v7.8h-4zm2.8-6.6h-2.8v5.4h2.8v-5.4zm1.3-6.9c.4-.6.8-1.4 1.3-2.4s.8-1.9 1.1-2.7l1.4.5-.2.3c-.2.7-.6 1.5-1 2.4-.4.9-.9 1.7-1.3 2.4l-1.3-.5zm12 12.7c1.5 2.4 3.5 4.3 6 5.7-.2.4-.5 1-.7 1.6-.9-.5-1.7-1.1-2.6-1.8-.8-.7-1.5-1.4-2.1-2.1-.6-.7-1.1-1.4-1.4-2-.8 1.2-1.7 2.3-2.7 3.2-1 1-2.2 1.8-3.4 2.5l-.8-1.6c1.4-.8 2.6-1.7 3.6-2.6.9-.9 1.7-2 2.4-3.1-1.3-2.5-2.3-5.6-2.9-9.4-.6 1.2-1.2 2.1-1.8 2.8l-1-1.4c.9-.9 1.8-2.5 2.7-4.6.9-2.1 1.5-4.3 1.9-6.5l1.6.3-.1.3c-.3 1.6-.8 3.3-1.4 5h8.4v1.7h-2.4c-.7 4.7-1.7 8.7-3.3 12zm-3.7-11.7c.5 4 1.4 7.4 2.7 10.1 1.4-2.8 2.2-6.3 2.5-10.3h-5.1l-.1.2zm27.9-11.6-.1 1.5v24.4l.1 2.1c0 .8-.3 1.4-1 1.8-.7.4-2 .6-3.8.6-.3-.7-.6-1.4-.9-2 .8.1 1.5.1 2.1.1.6 0 1.1-.1 1.4-.2s.5-.4.5-.8v-9h-6.7c-.3 2.6-.8 5-1.4 7.1s-1.4 3.7-2.3 4.8l-1.5-1.3c1.2-1.5 2.1-3.7 2.8-6.5.7-2.8 1-6 1-9.8v-13.1h9.8zm-8.3 17h6.5v-7h-6.4v3.1c.1 1.5 0 2.8-.1 3.9zm6.6-15.3h-6.4v6.7h6.4v-6.7zm15.4 21.6c.8 1.1 1.8 2 2.8 2.9 1.1.9 2.2 1.6 3.5 2.3l-.9 1.6c-2.5-1.4-4.6-3.2-6.4-5.4-1.6 2.1-3.5 3.8-5.6 4.8l-1.1-1.6c1.1-.5 2.1-1.2 3-2 .9-.8 1.8-1.7 2.6-2.7-.6-.9-1.2-1.9-1.6-2.9-.5-1-.9-2.1-1.3-3.3-.4-1.2-.7-2.5-1-3.9h-2.2v15.1c0 .7 0 1.4.1 2.1h-2c0-.7.1-1.5.1-2.1v-28.2H631v.6c0 1.7-.1 2.9-.2 3.8s-.2 1.5-.4 2c-.3.7-.8 1.2-1.6 1.6-.8.3-2 .5-3.5.5-.1-.4-.4-1.1-.8-2 .5.2 1.1.3 1.8.3 1.3 0 2.2-.4 2.5-1.1.2-.4.3-1 .4-1.6.1-.7.1-1.4.1-2.3h-10.7v10H629l.2-.2c.4.3.9.7 1.5 1.2l-.3.1c-.3 2-.8 3.9-1.4 5.7-.6 1.7-1.4 3.3-2.3 4.7zm-4.4-10.2c.6 3.3 1.7 6.2 3.3 8.7 1.5-2.5 2.5-5.4 3.1-8.7h-6.4zm30.9-1.4-.3.1c-.5 1.3-1.1 2.6-1.9 3.9s-1.5 2.4-2.2 3.1c-.4-.3-.8-.6-1.3-.9.6-.6 1.3-1.5 2-2.6s1.3-2.1 1.7-3.1h-4.5v15.5c0 .4-.1.8-.3 1.2s-.5.6-1 .9c-.5.2-1.1.4-1.9.5-.8.1-1.8.1-3 .1l-1-2s.4 0 1 .1 1.2.1 1.7.1c.8 0 1.4-.1 1.9-.2.5-.2.7-.5.7-1v-7.4c0-.7 0-1.8.1-3.1 0-1.3.1-2.5.2-3.4-.2.6-.5 1.3-.8 2.2-.3.9-.8 1.9-1.3 3.1-.5 1.1-1.2 2.3-1.9 3.6-.7 1.2-1.5 2.3-2.4 3.2 0 0-.1-.1-.1-.2-.1-.1-.1-.2-.2-.3l-.5-.5-.4-.4c.8-.9 1.7-2 2.7-3.6.9-1.5 1.7-3 2.4-4.5s1.2-2.7 1.5-3.8H638v-1.7h13.7l.2-.3c.2.2.5.4.8.7.2.4.4.6.5.7zm-3.7-10.4h-10.9v-1.7h11.8l.2-.3c.5.4 1.1.9 1.6 1.3l-.4.2c-.6.9-1.4 1.9-2.3 3.1-.9 1.2-1.8 2.1-2.7 2.9 1 .6 2 1.3 3.1 2.1l-1 1.4c-1-.8-2.3-1.7-3.9-2.6-1.6-.9-3.2-1.7-4.6-2.3l1-1.2c1.1.4 2.4 1 4 1.9.6-.6 1.3-1.3 2.1-2.2s1.4-1.8 2-2.6zm20.2 17.1v.6c0 2.5-.1 4.5-.2 5.8s-.4 2.4-.7 3.1c-.4.8-1.1 1.4-2.1 1.8-1 .4-2.5.6-4.5.6 0-.1-.3-.8-.9-2.1.6.2 1.3.3 2.1.3 2 0 3.3-.5 3.8-1.4.3-.5.5-1.4.6-2.4s.2-2.6.2-4.7h-6.3c-.3 1.3-.8 2.4-1.4 3.5-.6 1.1-1.3 2.1-2.2 3-.9.9-1.8 1.7-3 2.4-1.1.7-2.4 1.2-3.7 1.6l-1.2-1.4c1.3-.4 2.4-.9 3.3-1.4.9-.5 1.8-1.1 2.5-1.7.8-.6 1.5-1.5 2.1-2.5.7-1 1.2-2.2 1.6-3.5h-7.3v-1.7h7.7c.1-.4.1-.9.2-1.5 0-.6.1-1.2.1-1.6v-.7s.7 0 1.9.1c0 .2-.1.3-.1.5 0 .4 0 1-.1 1.6 0 .7-.1 1.2-.2 1.6h7.8zm-6.9-7.9c2.1 1.6 4.8 2.7 8.1 3.5l-.7 1.7c-3.5-.9-6.3-2.3-8.5-4.1-1.1.9-2.4 1.7-3.8 2.4-1.5.7-3 1.2-4.7 1.7-.2-.5-.5-1-.9-1.5 3.3-.7 6-1.9 8.1-3.6-.4-.4-.9-.9-1.4-1.6-.6-.7-1.1-1.4-1.5-2.2-.4-.8-.8-1.4-1-1.9-.9 1.1-1.7 2-2.4 2.6-.3-.4-.8-.8-1.3-1.2.8-.5 1.5-1.3 2.3-2.2.8-.9 1.4-1.9 2-3 .6-1 1-2.1 1.3-3.2l1.7.3-.2.3c-.1.4-.3.9-.6 1.6s-.5 1.2-.7 1.6h11.8v1.6h-3.5c-.9 2.8-2.3 5.2-4.1 7.2zm-5.4-7.1c.9 2.3 2.2 4.4 4.1 6.1 1.6-1.6 2.8-3.7 3.6-6.2l-7.7.1z"/>
    <path class="st2" d="M425.7 171.3H731"/>
    <circle class="st0" cx="981.6" cy="175" r="175"/>
    <path class="st1" d="M922.6 191.1h-13.7v5.9c0 2.3-.2 4.4-.7 6.3-.4 1.9-1 3.3-1.8 4.2l-.9-.8c.7-.9 1.2-2.2 1.7-3.9.4-1.7.6-3.7.6-5.9v-6.8H924v1h-1.4zm-8.9 11.4-.1.2c-.2.4-.5.8-.8 1.3-.4.5-.8 1-1.3 1.5s-1 .9-1.5 1.3c-.4-.4-.7-.6-.8-.7.7-.4 1.4-1 2-1.7.7-.7 1.2-1.5 1.6-2.2.2 0 .5.1.9.3zm3.9-1.9v5.6c0 .3-.1.5-.2.7-.1.2-.3.3-.6.5-.3.1-.7.2-1.1.3-.5.1-1.1.1-1.8.1l-.6-1.1c.4.1 1 .1 1.7.1.4 0 .8 0 1.1-.1s.4-.3.4-.6v-5.4h-5.1v-6.9h4.2c.5-.9.8-1.8 1-2.5l1.1.3s-.1.1-.1.2c-.2.6-.5 1.2-.8 1.9h5.5v6.9h-4.7zm3.7-6h-8.7v2.1h8.7v-2.1zm-8.8 3v2.2h8.7v-2.2h-8.7zm8.7 4.4c.5.4 1 1 1.7 1.7s1.3 1.5 2 2.3l-.9.7c-.5-.7-1-1.4-1.7-2.1s-1.3-1.4-2-2l.9-.6zm23.9-10.1h-14.5v5.4c0 2.2-.2 4.2-.5 6-.4 1.8-.8 3.1-1.4 4-.4-.3-.6-.6-.9-.7.6-.9 1-2.1 1.3-3.7s.5-3.5.5-5.6V191h8.2c-.2-.5-.6-1-1-1.6l.9-.4c.2.3.4.6.7 1 .2.4.4.7.6 1.1h7.7v1c-.4-.2-.9-.2-1.6-.2zm-6.5 5.3v8.9c0 .3-.1.6-.3.7-.2.2-.5.3-.9.4-.4.1-.8.1-1.3.1l-.4-1c.4.1.7.1 1 .1.3 0 .5 0 .7-.1.2-.1.3-.2.3-.4V198h-5v9.6h-.9v-10.4h3.1v-4.4c.4 0 .8 0 1 .1v4.3h2.7zm-5.6-.7c-.3-.8-.6-1.7-1.1-2.7l.8-.2c.2.3.3.8.5 1.3s.4 1 .5 1.4l-.7.2zm1.4 7.5v1h-.7v-5.3h3v4.4h-2.3zm1.6-3.7h-1.6v3.1h1.6v-3.1zm.6-3.9c.2-.3.5-.8.7-1.3.3-.6.5-1.1.6-1.6l.8.3-.1.2c-.1.4-.3.9-.6 1.4-.3.5-.5 1-.7 1.4l-.7-.4zm6.9 7.2c.8 1.4 2 2.5 3.4 3.2-.1.3-.3.6-.4.9-.5-.3-1-.6-1.5-1s-.9-.8-1.2-1.2c-.3-.4-.6-.8-.8-1.1-.4.7-.9 1.3-1.5 1.8s-1.2 1-1.9 1.4l-.4-.9c.8-.4 1.5-.9 2-1.5.5-.5 1-1.1 1.3-1.8-.8-1.4-1.3-3.2-1.6-5.3-.3.7-.7 1.2-1 1.6l-.6-.8c.5-.5 1-1.4 1.5-2.6s.9-2.4 1.1-3.7l.9.2-.1.1c-.2.9-.5 1.8-.8 2.9h4.7v.9h-1.4c-.3 2.7-.8 5-1.7 6.9zm-2.1-6.7c.3 2.3.8 4.2 1.5 5.7.8-1.6 1.2-3.5 1.4-5.9h-2.9v.2zm17.7-3.8h-7.2v3.6h-1.1v-4.3h8.2v-1.7h-7.3v-.9h15.8v.9h-7.4v1.7h8.3v4.3h-1v-3.6H960v4.8h-1v-4.8zm8.8 10.5c.1.1.2.2.4.3s.3.2.5.3c-.1.9-.2 1.6-.6 2.1-.3.4-.8.8-1.6 1s-1.7.3-3 .3c-1.2 0-2.2 0-2.7-.1s-1-.1-1.2-.3c-.3-.1-.4-.3-.6-.6s-.2-.6-.2-1v-.8h-5.2v1.5h-1v-7.4h13.5v6H960v.7c0 .5.2.8.7.9.5.1 1.5.1 3.2.1 1.4 0 2.4-.2 3.1-.5.3-.2.6-.5.7-.9.1-.3.2-.8.2-1.6zm-10.4-9.1v.7h-4v-.7h4zm-3.3 2.1h3.3v.7h-4v-.7h.7zm4.9 3.1h-5.2v1.8h5.2v-1.8zm-5.2 4.4h5.2v-1.9h-5.2v1.9zm11.5-2.6v-1.8H960v1.8h5.4zm-5.4 2.6h5.4v-1.9H960v1.9zm5.6-9.6v.7h-4v-.7h4zm-3.3 2.1h3.3v.7h-4v-.7h.7zm14.5.6-.5.9c-.2-.2-.7-.5-1.4-.9s-1.5-.9-2.4-1.4l.5-.9c.6.3 1.3.6 2 1.1.7.4 1.3.8 1.8 1.2zm-3.6 8.7c.6-.7 1.3-1.7 2.2-3 .9-1.3 1.5-2.2 1.8-2.9l.6 1c-.3.5-.7 1.1-1.2 1.9-.5.8-1.1 1.6-1.5 2.2-.5.6-.8 1.1-1.1 1.5-.2.2-.3.4-.4.7l-.9-.9.5-.5zm4.4-13.6-.5.9c-.5-.4-1.2-.9-1.9-1.4-.7-.5-1.3-.8-1.9-1.1l.5-.9c.6.3 1.2.7 1.9 1.2s1.4.9 1.9 1.3zm12.2 10.3c.3.2.6.4 1 .7 0 .8-.1 1.5-.3 1.9-.2.5-.4.9-.8 1.2-.4.3-.9.6-1.7.8-.7.2-1.8.3-3.2.3-1.1 0-1.9 0-2.5-.1s-1-.1-1.4-.3c-.5-.2-.9-.5-1.2-.9-.2-.4-.3-1-.3-1.6v-6.4l-1 .4c-.5.2-.9.3-1.2.5l-.2-1 1.2-.4 1.2-.5v-6.1l1.1.1v5.6l3.4-1.3v-6c.2 0 .6 0 1 .1v5.6l4.4-1.7.1-.2c.3.3.6.5.9.7l-.1.1c0 1.7 0 2.9-.1 3.8s-.2 1.5-.3 2c-.1.2-.2.3-.3.5s-.3.3-.5.4-.5.2-.9.3-.8.1-1.4.1c-.1-.3-.3-.7-.5-1.2.3.1.6.1 1 .1.8 0 1.4-.3 1.6-.8.1-.2.1-.5.2-.8s.1-.8.1-1.4v-2.5l-4.2 1.6v6.9h-1.1v-6.5l-3.4 1.3v6.8c0 .3 0 .5.1.8s.2.5.4.6c.2.2.5.3.8.3.2 0 .4.1.8.1h2.4c.9 0 1.6-.1 2.2-.2.6-.1 1.1-.3 1.4-.5.4-.3.7-.6.8-1.1.4-.5.5-1.2.5-2.1zm13.6-7.5c0 .3-.1.6-.1 1-.5.2-1.4.4-2.7.7s-2.3.6-3.1.8c0 0-.1 0-.3.1-.1 0-.3.1-.5.2l-.4-1c.2-.1.3-.3.4-.5.1-.2.1-.5.1-.8v-6.3c.3 0 .7 0 1.1.1v2.5h4.8v1h-4.8v3.8c2.4-.8 4.2-1.3 5.5-1.6zm6.4 4.4v8.3h-1.1v-1h-9.9v1h-1.1v-8.3h3.9c.2-.4.5-.8.7-1.4s.4-.9.4-1.1l1.2.2-.1.2c-.2.6-.6 1.3-1.1 2.1h7.1zm-1.1.8h-9.9v2.3h9.9v-2.3zm-10 5.5h9.9v-2.4h-9.9v2.4zm12.8-11.9c.2.1.3.2.5.3.2.1.3.2.5.3 0 .4-.1.8-.2 1.1-.1.3-.2.6-.3.8-.1.2-.3.4-.6.6-.3.2-.6.3-1.1.4-.5.1-1.1.2-1.9.2-1.1 0-1.8 0-2.2-.1s-.7-.1-.9-.2c-.2-.1-.3-.3-.4-.5-.1-.2-.1-.5-.1-.9v-6.7l1.1.1v2.9c.5-.1 1-.3 1.7-.5s1.4-.5 2.1-.8c.7-.3 1.4-.6 1.9-.9l.7.8-.4.1c-.9.4-1.8.8-2.9 1.2-1 .4-2.1.7-3.1 1v2.8c0 .2 0 .3.1.4.1.1.2.2.4.2.3 0 1 .1 2.2.1.4 0 .8 0 1.2-.1.4-.1.7-.2 1.1-.4.2-.1.3-.3.4-.5.1-.2.2-.5.2-.8v-.9zm21.9-2.8h1.6v1h-18.5v-1h9c-.3-.7-.7-1.3-.9-1.8l1-.3c.4.6.7 1.3 1.1 2.1h6.7zm-6.8 11.6h8.4v1h-8c.2.6.3 1.1.3 1.7 0 .5 0 .8-.1 1.1s-.2.5-.4.7c-.2.2-.4.3-.8.4-.3.1-.7.1-1.2.1-.8 0-1.5 0-2.1-.1l-.4-1c.8.1 1.6.1 2.3.1.5 0 .9 0 1.1-.1.2-.1.4-.2.5-.4s.1-.5.1-.9c0-.6-.1-1.2-.3-1.7h-9.4v-1h8.9c-.1-.1-.2-.3-.4-.5s-.3-.3-.4-.5l.8-.1c2.2-.6 4-1.2 5.5-1.8h-12.4v-.7h13.6l.1-.1c.3.2.6.4.9.7l-.4.1c-.9.5-1.9.9-2.8 1.3-1 .4-1.8.7-2.4.8-.6.2-1 .3-1.2.4 0 .2.1.3.2.5zm-6.4-5.5v-3.6h11.2v3.6h-11.2zm10.1-2.8h-9.1v2h9.1v-2zm24.9-2.6h1.5v1h-10.4c-.5 1.1-1.1 2.1-1.7 3.1h9.1v10.3c0 .4-.1.7-.3.9-.2.2-.6.4-1.1.5s-1.4.2-2.6.2l-.6-1.1c.9.1 1.4.1 1.5.1h.3c.5 0 .9 0 1.2-.1.3-.1.5-.3.5-.6v-2.4h-8v4.3h-1.1v-10.6c-.5.6-1 1.2-1.6 1.7-.6.5-1.1 1-1.7 1.4-.5.4-1 .7-1.4.9-.1-.2-.3-.5-.6-.8 1.5-.9 2.9-1.9 4.1-3.3 1.2-1.3 2.2-2.8 2.9-4.4h-6.2v-1h6.7c.1-.3.3-.8.5-1.3.2-.6.3-1.1.4-1.5l1.1.2-.1.2c-.1.3-.2.7-.4 1.3-.2.5-.3.9-.4 1.2h8.4zm-2.6 4.8h-8v2.6h8v-2.6zm-8.1 6.1h8v-2.6h-8v2.6zm-137.8 31.1c0 .6-.1 1.2-.4 1.7-.3.5-.6 1-1.1 1.3s-1 .6-1.6.8-1.3.3-2 .3c-.4 0-.7 0-1.2-.1s-.9-.2-1.3-.3c-.4-.2-.9-.4-1.2-.7-.4-.3-.7-.7-1-1.2-.3-.5-.4-1.1-.4-1.8 0-.6.1-1.2.5-1.8.3-.5.7-1 1.2-1.3s1-.6 1.5-.8c.5-.2.8-.3 1-.4-.6-.2-1.1-.5-1.7-.8-.6-.3-1-.8-1.4-1.3-.4-.5-.5-1.1-.5-1.9 0-.6.1-1.1.3-1.6.2-.5.6-.9 1-1.2s.9-.6 1.5-.8c.6-.2 1.2-.3 1.9-.3.6 0 1.2.1 1.8.3.6.2 1 .4 1.4.8.4.3.7.7.9 1.2.2.5.3 1 .3 1.5 0 1.9-1.2 3.3-3.7 4.1 1.4.5 2.4 1.1 3.1 1.7.7.8 1.1 1.6 1.1 2.6zm-1.1 0c0-.4-.1-.8-.2-1.2-.2-.4-.4-.7-.7-1-.3-.3-.8-.6-1.3-.9s-1.2-.5-1.9-.7c-2.6.8-3.9 2-3.9 3.8 0 .5.1 1 .3 1.4.2.4.5.8.8 1 .4.3.8.5 1.3.6.5.1 1 .2 1.6.2.6 0 1.1-.1 1.6-.2s.9-.4 1.3-.6c.4-.3.6-.6.8-1 .2-.4.3-.9.3-1.4zm-.5-8.3c0-.4-.1-.8-.2-1.2-.2-.4-.4-.7-.7-.9-.3-.3-.7-.5-1.1-.6s-.9-.2-1.4-.2c-.5 0-1 .1-1.4.2s-.8.3-1.2.6c-.3.3-.6.6-.8 1-.2.4-.3.8-.3 1.3s.1 1 .3 1.4c.2.4.5.8 1 1.1.5.3 1.2.7 2.3 1.1.5-.2 1-.4 1.4-.6s.8-.5 1.1-.8c.3-.3.5-.6.7-1 .2-.5.3-.9.3-1.4zm22.1 7.3h1.6v1h-8v5h-1.1v-5h-9.3v-1h3.9v-5.2h5.6v-3.5h-5c-.4.5-.8 1.2-1.4 1.8-.6.7-1.2 1.3-1.8 1.8-.2-.2-.5-.5-.8-.7.7-.5 1.4-1.2 2.1-2.1.7-.9 1.3-1.8 1.8-2.6.5-.9.8-1.6 1-2.2l1 .3-.1.2c-.4.9-.8 1.8-1.3 2.7h11.9v1h-6.4v3.5h5.8v1h-5.8v4.2h6.3zm-12 0h4.5v-4.2h-4.5v4.2zm22.5 5v-9.4c0-2.1 0-3.9.1-5.3h-.1c-.6.5-1.2 1.1-2.1 1.8l-.9.7-.6-.7 3.7-3h.9v15.8h-1zm18.8-4.9c0 .7-.1 1.4-.3 2-.2.6-.6 1.2-1 1.6-.4.5-1 .8-1.6 1-.6.2-1.3.4-2 .4-1.1 0-2-.3-2.8-.8-.8-.5-1.3-1.3-1.7-2.4-.4-1.1-.6-2.3-.6-3.8 0-1.8.3-3.5.8-4.9.5-1.4 1.3-2.5 2.3-3.2 1-.7 2.2-1.1 3.6-1.1 1 0 1.8.1 2.7.4l-.1 1c-.3-.1-.6-.2-1.1-.4-.4-.1-.9-.2-1.5-.2-.4 0-.9.1-1.4.2-.5.1-.9.3-1.4.6-.5.3-.9.7-1.2 1.2-.4.5-.7 1.1-.9 1.7-.2.6-.4 1.3-.5 2s-.2 1.5-.2 2.4h.1c.1-.3.3-.6.5-1 .2-.3.5-.6.9-.9s.8-.5 1.3-.6c.5-.2 1-.3 1.6-.3.3 0 .7 0 1.1.1.4.1.8.2 1.2.4.4.2.8.5 1.1.9s.6.9.8 1.5c.2.8.3 1.5.3 2.2zm-1.1.1c0-1.3-.3-2.3-1-3-.7-.7-1.6-1.1-2.7-1.1-.5 0-1 .1-1.5.3-.5.2-.9.4-1.3.8-.4.3-.7.8-.9 1.2s-.3 1-.3 1.6c0 .4.1.9.2 1.4.1.5.3.9.6 1.4.3.4.6.8 1 1s.7.4 1.1.5.6.1.9.1c.6 0 1.1-.1 1.6-.3.5-.2.9-.5 1.2-.9.3-.4.6-.8.8-1.3s.3-1.1.3-1.7zm9.5-10.3h-4.6v-.9h4.6v-1.6h1.1v1.6h2.8v.9H966v1.5h-1.1v-1.5zm12.5 9.4v5.1c0 .3-.1.6-.3.8s-.5.4-.9.5c-.4.1-1.1.2-2.1.2l-.5-1.1c.1 0 .3.1.6.1h.8c.4 0 .7 0 1-.1.2-.1.4-.2.4-.5V233h-6.5v2.8c1.6-.2 2.5-.4 2.8-.4-.4-.6-.7-1-.8-1.2l.7-.4c.7.9 1.3 1.9 1.9 3l-.8.5c-.1-.3-.3-.7-.5-1.1-1.2.2-3.8.6-7.7 1.2-.2 0-.4.1-.7.1l-.3-1.1h.9c.6-.1 1.8-.2 3.6-.5V233h-6v5.8h-1.1V233h-1.4v-.9h1.4v-1.2c.3 0 .6 0 1.1.1v1.2h6v-1.6h-5.6v-5.8h12.4v5.8H970v1.6h7.4zm-8.5-6.5h-4.5v1.7h4.5v-1.7zm-4.5 2.4v1.8h4.5V228h-4.5zm10.2-.7v-1.7h-4.7v1.7h4.7zm-4.7 2.5h4.7V228h-4.7v1.8zm7.1-8h1.4v.9h-4.5v1.5h-1.1v-1.5H970v-.9h2.8v-1.6h1.1v1.6h3.1zm12.1 0c-.2.7-.6 1.4-1 2.2s-1 1.6-1.6 2.4-1.2 1.5-1.9 2.1c-.6.6-1.2 1.1-1.7 1.4-.2-.2-.4-.5-.8-.8.4-.2.9-.6 1.5-1.1.6-.5 1.3-1.2 2-2.1.7-.9 1.3-1.7 1.7-2.4.4-.8.8-1.5 1-2.1l1 .3-.2.1zm4.5 9.8.9-.5c.7.9 1.6 2 2.5 3.3.9 1.3 1.8 2.6 2.5 4l-1 .5c-.2-.5-.6-1.2-1.2-2.1-1.7.2-5.7.6-11.9 1.2-.5 0-.9.1-1.2.2l-.4-1.1c.6-.4 1.3-1 1.9-1.8.7-.8 1.3-1.6 1.9-2.5.6-.9 1.1-1.8 1.6-2.7s.8-1.6 1-2.2l1.1.5-.3.4c-.6 1.1-1.2 2.3-2 3.6-.8 1.3-1.5 2.2-2 2.9s-1 1.2-1.4 1.6c.7-.1 1.7-.1 2.9-.3 1.2-.1 2.6-.3 4.3-.4 1.6-.2 2.9-.3 3.9-.4-1-1.6-2-3-3.1-4.2zm1.1-10.9c.2.7.6 1.5 1 2.2.4.8.9 1.5 1.5 2.3s1.2 1.5 1.9 2.1 1.3 1.1 2 1.4l-.7.9c-.5-.3-1-.6-1.5-1s-1-.9-1.4-1.4c-.5-.5-.9-1-1.3-1.6-.4-.6-.8-1.2-1.2-1.9-.4-.7-.7-1.4-1-2.2h-3.4v-.9h4.1zm26.3 16.2h1.6v1h-18.2v-1h8.4v-3h-7v-1h7v-2.6h-6v-9h13.1v9.1h-6.1v2.6h7.2v1h-7.2v3h7.2zm-8.1-14.7h-5v3h5v-3zm-5 3.9v3.3h5v-3.3h-5zm11-.8v-3h-5.1v3h5.1zm-5 4.1h5.1v-3.3h-5.1v3.3zm15.8-4.6v13.9h-1.2v-5c0-1.9.1-4.4.2-7.4-.4.7-.8 1.4-1.3 2.1-.5.7-.9 1.3-1.3 1.8-.1-.3-.3-.6-.6-1 1-1.1 1.9-2.5 2.8-4.3.9-1.8 1.6-3.4 2-4.9l1 .4-.1.1c-.2.7-.5 1.4-.8 2.2-.1.8-.4 1.5-.7 2.1zm9.5 6c.3.5.8 1.1 1.4 1.8.6.7 1.3 1.4 2.2 2s1.7 1.2 2.5 1.5l-.6.9c-.4-.2-.8-.5-1.3-.8-.5-.3-1-.7-1.6-1.3-.6-.5-1.2-1.1-1.7-1.7-.5-.6-1-1.2-1.3-1.8v7.2h-1.1v-7.3c-.3.4-.6.9-1 1.4-.4.5-.8 1-1.4 1.5-.5.5-1.1 1-1.7 1.5-.6.5-1.3.9-2 1.2l-.6-.9c.9-.4 1.7-1 2.6-1.7s1.6-1.3 2.1-2c.6-.7 1-1.3 1.3-1.8h-5.6v-1h6.1v-2.7h-4.2V221h9.6v5.8h-4.3v2.7h6v1h-5.4zm-4.7-8.6v4h7.4v-4h-7.4zm31.2 0v16.6h-1.1v-1.6h-14v1.6h-1.1v-17.6h16.2v1zm-15.1 14.1h14v-14.1h-14v14.1zm11.4-10.5h1.1v1h-5v2.6h3.1v4.8h-7.2v-4.8h3.1v-2.6h-4.9v-1h4.9v-2.6c.5 0 .9 0 1.1.1v2.5h3.8zm-1.8 7.6v-3.2h-5.2v3.2h5.2zm-219.1 25c.7-.2 1.4-.5 2.1-.8.7-.3 1.4-.8 2.2-1.2.7-.5 1.4-1 2.1-1.6.7-.6 1.3-1.3 1.8-2h-4.6v-1h6c1.2 1.6 2.6 3 4.3 4.1 1.7 1.2 3.3 2 4.9 2.5-.2.3-.3.6-.5.9-1.7-.5-3.3-1.3-4.8-2.4-1.6-1.1-3-2.5-4.2-4-.4.6-1 1.2-1.6 1.8-.6.6-1.3 1.3-2 1.8-.8.6-1.6 1.1-2.5 1.6s-1.8.9-2.8 1.2c0-.1-.2-.5-.4-.9zm9.9 9.8h8.7v1h-18.2v-1h8.4v-4h-6v-1h6v-3.6H845v-1h11.3v1H851v3.6h6.3v1H851v4zm29-2.4h1.6v1H873v3h-1v-3h-8.4v-1h8.4v-2.1h-5.8v-7.1h5.8v-2.3h-7.8v-1h7.8v-2.2h1.1v2.1h8v1H873v2.3h5.9v7.1H873v2.1h7zm-8-8.4h-4.7v2.2h4.7v-2.2zm-4.7 3.1v2.3h4.7v-2.3h-4.7zm10.6-.9v-2.2H873v2.2h4.9zm-4.9 3.2h4.9v-2.3H873v2.3zm12.3 6.3c.7-.5 1.3-1.1 2-1.9s1.1-1.5 1.4-2.1l.9.5c-.3.6-.8 1.3-1.4 2.1-.6.8-1.3 1.5-2 2.1l-.2-.2c-.1-.1-.2-.2-.4-.3-.2-.1-.3-.2-.3-.2zm1.5-4.7v-12.5h7.3v12.5h-7.3zm6.2-11.5h-5.2v2.9h5.2v-2.9zm-5.2 6.7h5.2v-2.9h-5.2v2.9zm0 3.9h5.2v-3h-5.2v3zm3.6 2.1.8-.5c.5.5 1 1.1 1.6 1.8.6.7 1 1.3 1.4 1.7 0 0-.2.2-.4.3l-.4.4c-.3-.5-.8-1.1-1.3-1.9-.6-.6-1.2-1.2-1.7-1.8zm5.9-.8v-11.9c.3 0 .6 0 1.1.1v11.8h-1.1zm5.5-12.8v15.9c0 .4-.1.6-.3.9-.2.2-.4.4-.7.5s-.6.2-1.1.2c-.4.1-1 .1-1.8.1l-.7-1.2c.8.1 1.4.1 1.7.1.3 0 .6 0 .9-.1.3 0 .5-.1.6-.2.1-.1.2-.2.2-.4v-16.5h1.2v.7zm21.5 1.1h1.6v1h-18.5v-1h8.9c-.3-.7-.7-1.3-.9-1.8l1-.3c.4.6.7 1.3 1.1 2.1h6.8zm-6.8 11.6h8.4v1h-8c.2.6.3 1.1.3 1.7 0 .5 0 .8-.1 1.1-.1.3-.2.5-.4.7-.2.2-.4.3-.8.4s-.7.1-1.2.1c-.8 0-1.5 0-2.1-.1l-.4-1c.8.1 1.6.1 2.3.1.5 0 .9 0 1.1-.1s.4-.2.5-.4c.1-.2.1-.5.1-.9 0-.6-.1-1.2-.3-1.7h-9.4v-1h8.9c-.1-.1-.2-.3-.4-.5s-.3-.3-.4-.5l.8-.1c2.2-.6 4-1.2 5.5-1.8h-12.4v-.7h13.6l.1-.1c.3.2.6.4.9.7l-.4.1c-.9.5-1.9.9-2.8 1.3-1 .4-1.8.7-2.4.8-.6.2-1 .3-1.2.4 0 .2.1.3.2.5zm-6.3-5.5v-3.6h11.2v3.6h-11.2zm10.1-2.8h-9.1v2h9.1v-2zm24.8-2.6h1.5v1h-10.4c-.5 1.1-1.1 2.1-1.7 3.1h9.1v10.3c0 .4-.1.7-.3.9-.2.2-.6.4-1.1.5s-1.4.2-2.6.2l-.6-1.1c.9.1 1.4.1 1.5.1h.3c.5 0 .9 0 1.2-.1.3-.1.5-.3.5-.6v-2.4h-8v4.3h-1.1v-10.6c-.5.6-1 1.2-1.6 1.7-.6.5-1.1 1-1.7 1.4-.5.4-1 .7-1.4.9-.1-.2-.3-.5-.6-.8 1.5-.9 2.9-1.9 4.1-3.3 1.2-1.3 2.2-2.8 2.9-4.4h-6.2v-1h6.7c.1-.3.3-.8.5-1.3.2-.6.3-1.1.4-1.5l1.1.2-.1.2c-.1.3-.2.7-.4 1.3-.2.5-.3.9-.4 1.2h8.4zm-2.6 4.8h-8v2.6h8v-2.6zm-8 6.1h8v-2.6h-8v2.6zm23.4 4.1v-3.9H951v-1l7.5-10.9h1.4v11h2.4v.9h-2.4v3.9h-1zm0-10.1c0-2.1 0-3.8.1-5-.4.7-1.2 1.9-2.3 3.6l-4.5 6.6h6.8v-5.2zm23.4 5.1h1.6v1H976v5h-1.1v-5h-9.4v-1h3.9v-5.2h5.6v-3.5h-5c-.4.5-.8 1.2-1.4 1.8-.6.7-1.2 1.3-1.8 1.8-.2-.2-.5-.5-.8-.7.7-.5 1.4-1.2 2.1-2.1.7-.9 1.3-1.8 1.8-2.6.5-.9.8-1.6 1-2.2l1 .3-.1.2c-.4.9-.8 1.8-1.3 2.7h11.9v1H976v3.5h5.8v1H976v4.2h6.3zm-11.9 0h4.5v-4.2h-4.5v4.2zm22.4 5v-9.4c0-2.1 0-3.9.1-5.3h-.1c-.6.5-1.2 1.1-2.1 1.8l-.9.7-.6-.7 3.7-3h.9v15.8h-1zm8.8 0v-1c1.4-1.1 2.6-2.2 3.6-3.1 1-1 1.9-1.9 2.6-2.8.7-.9 1.2-1.7 1.5-2.5s.5-1.6.5-2.3c0-1.1-.3-1.9-.9-2.5-.6-.6-1.5-.9-2.6-.9-.6 0-1.2.1-1.8.3-.7.2-1.3.5-1.9.8l-.2-1c.6-.3 1.3-.6 2-.7.7-.2 1.4-.3 2-.3 1.5 0 2.6.4 3.4 1.1.8.7 1.2 1.8 1.2 3.1 0 .6-.1 1.2-.3 1.9s-.5 1.3-.9 1.9-.9 1.3-1.4 1.9c-.6.7-1.2 1.4-1.8 2-1.1 1.1-2.3 2.1-3.7 3.2 1.5 0 2.4-.1 2.9-.1h5.4v.9h-9.6zm18.5-15.1h-4.6v-.9h4.6v-1.6h1.1v1.6h2.8v.9h-2.8v1.5h-1.1v-1.5zm12.4 9.4v5.1c0 .3-.1.6-.3.8s-.5.4-.9.5c-.4.1-1.1.2-2.1.2l-.5-1.1c.1 0 .3.1.6.1h.8c.4 0 .7 0 1-.1.2-.1.4-.2.4-.5V264h-6.5v2.8c1.6-.2 2.5-.4 2.8-.4-.4-.6-.7-1-.8-1.2l.7-.4c.7.9 1.3 1.9 1.9 3l-.8.5c-.1-.3-.3-.7-.5-1.1-1.2.2-3.8.6-7.7 1.2-.2 0-.4.1-.7.1l-.3-1.1h.9c.6-.1 1.8-.2 3.6-.5V264h-6v5.8h-1.1V264h-1.4v-.9h1.4v-1.2c.3 0 .6 0 1.1.1v1.2h6v-1.6h-5.6v-5.8h12.4v5.8h-5.8v1.6h7.4zm-8.5-6.5h-4.5v1.7h4.5v-1.7zm-4.5 2.4v1.8h4.5V259h-4.5zm10.2-.7v-1.7h-4.7v1.7h4.7zm-4.7 2.5h4.7V259h-4.7v1.8zm7.1-8h1.4v.9h-4.5v1.5h-1.1v-1.5h-2.8v-.9h2.8v-1.6h1.1v1.6h3.1zm12.1 0c-.2.7-.6 1.4-1 2.2s-1 1.6-1.6 2.4-1.2 1.5-1.9 2.1c-.6.6-1.2 1.1-1.7 1.4-.2-.2-.4-.5-.8-.8.4-.2.9-.6 1.5-1.1.6-.5 1.3-1.2 2-2.1.7-.9 1.3-1.7 1.7-2.4.4-.8.8-1.5 1-2.1l1 .3-.2.1zm4.6 9.8.9-.5c.7.9 1.6 2 2.5 3.3.9 1.3 1.8 2.6 2.5 4l-1 .5c-.2-.5-.6-1.2-1.2-2.1-1.7.2-5.7.6-11.9 1.2-.5 0-.9.1-1.2.2l-.4-1.1c.6-.4 1.3-1 1.9-1.8.7-.8 1.3-1.6 1.9-2.5.6-.9 1.1-1.8 1.6-2.7s.8-1.6 1-2.2l1.1.5-.3.4c-.6 1.1-1.2 2.3-2 3.6-.8 1.3-1.5 2.2-2 2.9s-1 1.2-1.4 1.6c.7-.1 1.7-.1 2.9-.3 1.2-.1 2.6-.3 4.3-.4 1.6-.2 2.9-.3 3.9-.4-1.1-1.6-2.1-3-3.1-4.2zm1-10.9c.2.7.6 1.5 1 2.2.4.8.9 1.5 1.5 2.3.6.8 1.2 1.5 1.9 2.1s1.3 1.1 2 1.4l-.7.9c-.5-.3-1-.6-1.5-1s-1-.9-1.4-1.4c-.5-.5-.9-1-1.3-1.6-.4-.6-.8-1.2-1.2-1.9-.4-.7-.7-1.4-1-2.2h-3.4v-.9h4.1zm26.4 16.2h1.6v1h-18.2v-1h8.4v-3h-7v-1h7v-2.6h-6v-9h13.1v9.1h-6.1v2.6h7.2v1h-7.2v3h7.2zm-8.2-14.7h-5v3h5v-3zm-4.9 3.9v3.3h5v-3.3h-5zm11-.8v-3h-5.1v3h5.1zm-5.1 4.1h5.1v-3.3h-5.1v3.3zm15.8-4.6v13.9h-1.2v-5c0-1.9.1-4.4.2-7.4-.4.7-.8 1.4-1.3 2.1-.5.7-.9 1.3-1.3 1.8-.1-.3-.3-.6-.6-1 1-1.1 1.9-2.5 2.8-4.3.9-1.8 1.6-3.4 2-4.9l1 .4-.1.1c-.2.7-.5 1.4-.8 2.2-.1.8-.4 1.5-.7 2.1zm9.5 6c.3.5.8 1.1 1.4 1.8.6.7 1.3 1.4 2.2 2s1.7 1.2 2.5 1.5l-.6.9c-.4-.2-.8-.5-1.3-.8-.5-.3-1-.7-1.6-1.3-.6-.5-1.2-1.1-1.7-1.7-.5-.6-1-1.2-1.3-1.8v7.2h-1.1v-7.3c-.3.4-.6.9-1 1.4-.4.5-.8 1-1.4 1.5-.5.5-1.1 1-1.7 1.5-.6.5-1.3.9-2 1.2l-.6-.9c.9-.4 1.7-1 2.6-1.7s1.6-1.3 2.1-2c.6-.7 1-1.3 1.3-1.8h-5.6v-1h6.1v-2.7h-4.2V252h9.6v5.8h-4.3v2.7h6v1h-5.4zm-4.6-8.6v4h7.4v-4h-7.4zm31.1 0v16.6h-1.1v-1.6h-14v1.6h-1.1v-17.6h16.2v1zm-15.1 14.1h14v-14.1h-14v14.1zm11.5-10.5h1.1v1h-5v2.6h3.1v4.8h-7.2v-4.8h3.1v-2.6h-4.9v-1h4.9v-2.6c.5 0 .9 0 1.1.1v2.5h3.8zm-1.9 7.6v-3.2h-5.2v3.2h5.2zM890.1 72.5h-24.2v10.3c0 4.1-.4 7.8-1.2 11.1-.8 3.3-1.8 5.7-3.2 7.4L860 100c1.2-1.6 2.2-3.8 2.9-6.9.7-3 1.1-6.5 1.1-10.4V70.8h28.6v1.8c-.5 0-1.3-.1-2.5-.1zm-15.7 20.1-.3.3c-.3.6-.8 1.4-1.5 2.2-.6.9-1.4 1.8-2.3 2.7-.9.9-1.8 1.7-2.7 2.3-.7-.6-1.2-1.1-1.5-1.3 1.2-.7 2.4-1.7 3.6-3 1.2-1.3 2.2-2.6 2.9-4 .6.2 1.2.5 1.8.8zm7-3.3v8.1l.1 1.8c0 .5-.1.9-.3 1.2s-.5.6-1 .8c-.5.2-1.2.4-2 .5-.9.1-1.9.1-3.2.1l-1-2c.8.1 1.7.2 2.9.2.8 0 1.4-.1 1.9-.2.5-.2.8-.5.8-1v-9.6h-9c0-.4.1-.8.1-1v-10c0-.3 0-.6-.1-1.1h7.4c.8-1.6 1.4-3.1 1.7-4.4l2 .6-.2.4c-.3 1-.8 2.1-1.4 3.4h9.7v12.1h-8.4zm6.4-10.6h-15.4v3.6h15.4v-3.6zm-15.4 5.2v3.8h15.4v-3.8h-15.4zm15.3 7.8c.8.8 1.8 1.8 2.9 3 1.1 1.2 2.3 2.6 3.5 4.1l-1.5 1.2c-.9-1.2-1.8-2.4-2.9-3.7-1.1-1.2-2.3-2.4-3.5-3.6l1.5-1zm41.2-17.8h-25.6v9.5c0 3.9-.3 7.4-.9 10.5s-1.5 5.5-2.5 7.1c-.6-.6-1.1-1-1.5-1.3 1-1.5 1.8-3.7 2.3-6.6.6-2.9.9-6.2.9-9.9V72.9l-.1-.6H916c-.4-.9-1-1.8-1.7-2.9l1.6-.7c.4.5.8 1.1 1.1 1.7.4.6.7 1.3 1 1.9h13.6V74c-.6-.1-1.5-.1-2.7-.1zm-11.5 9.3v15.7c0 .5-.2 1-.5 1.3-.4.3-.9.5-1.6.6-.7.1-1.5.2-2.3.2l-.8-1.7c.7.1 1.3.1 1.8.1s.9-.1 1.3-.2.5-.4.5-.7V84.6H907v17h-1.6c0-.2.1-.7.1-1.3V83.8l-.1-.6h5.4v-6.8l-.1-1c.8 0 1.4 0 1.7.1-.1.2-.1.5-.1.9v6.8h5.1zm-9.8-1.2c-.5-1.5-1.1-3-1.9-4.7l1.3-.4c.3.6.6 1.4.9 2.2s.6 1.7.9 2.4l-1.2.5zm2.4 13.3V97h-1.3v-9.5h5.3v7.8h-4zm2.8-6.6H910v5.4h2.8v-5.4zm1.2-6.9c.4-.6.8-1.4 1.3-2.4s.8-1.9 1.1-2.7l1.4.5-.2.3c-.2.7-.6 1.5-1 2.4-.4.9-.9 1.7-1.3 2.4l-1.3-.5zm12 12.7c1.5 2.4 3.5 4.3 6 5.7-.2.4-.5 1-.7 1.6-.9-.5-1.7-1.1-2.6-1.8-.8-.7-1.5-1.4-2.1-2.1-.6-.7-1.1-1.4-1.4-2-.8 1.2-1.7 2.3-2.7 3.2-1 1-2.2 1.8-3.4 2.5l-.8-1.6c1.4-.8 2.6-1.7 3.6-2.6.9-.9 1.7-2 2.4-3.1-1.3-2.5-2.3-5.6-2.9-9.4-.6 1.2-1.2 2.1-1.8 2.8l-1-1.4c.9-.9 1.8-2.5 2.7-4.6.9-2.1 1.5-4.3 1.9-6.5l1.6.3-.1.3c-.3 1.6-.8 3.3-1.4 5h8.4v1.7h-2.4c-.7 4.7-1.7 8.7-3.3 12zm-3.6-11.7c.5 4 1.4 7.4 2.7 10.1 1.4-2.8 2.2-6.3 2.5-10.3h-5.1l-.1.2zm30.1-6.8h-12.6v6.3H938c0-.3.1-.7.1-.9v-5.9c0-.2 0-.5-.1-.9h14.5v-2.9H942c-1.1 0-2 0-2.5.1v-1.6h27.7v1.6c-.5 0-1.3-.1-2.4-.1h-10.6v2.9h14.6v7.7h-1.9V76h-12.8v8.5h-1.9c0-.2.1-.6.1-1.2V76zm15.7 18.6c.2.1.4.3.7.5l.9.6c-.1 1.6-.4 2.8-1 3.6s-1.5 1.4-2.7 1.7c-1.2.4-3 .5-5.2.5s-3.8 0-4.8-.1-1.7-.2-2.1-.4c-.4-.2-.8-.6-1-1s-.3-1-.3-1.8v-1.3h-9.1v2.6h-1.7l.1-1.1v-11l-.1-1.1h23.8v10.5h-11.2v1.3c0 .8.4 1.4 1.1 1.7.8.1 2.7.2 5.6.2 2.4 0 4.3-.3 5.5-1 .6-.3 1-.8 1.2-1.5.1-.7.3-1.6.3-2.9zm-18.4-16.1v1.3h-7.1v-1.3h7.1zm-5.9 3.7h5.9v1.3h-7.1v-1.3h1.2zm8.7 5.4h-9.1v3.1h9.1v-3.1zm-9.2 7.8h9.1v-3.3h-9.1v3.3zm20.4-4.6v-3.1h-9.5v3.1h9.5zm-9.5 4.6h9.5v-3.3h-9.5v3.3zm9.8-16.9v1.3h-7v-1.3h7zm-5.9 3.7h5.8v1.3h-7v-1.3h1.2zm24.6 1.1-1 1.6c-.4-.3-1.2-.8-2.4-1.6s-2.6-1.6-4.3-2.4l.9-1.6c1 .5 2.2 1.1 3.5 1.9 1.4.7 2.5 1.4 3.3 2.1zm-6.3 15.3c1-1.2 2.3-3 3.8-5.2s2.6-3.9 3.3-5.1l1.1 1.8c-.5.8-1.2 2-2.1 3.4-1 1.4-1.9 2.7-2.7 3.9-.8 1.1-1.5 2-2 2.6-.3.4-.6.8-.8 1.1l-1.6-1.6 1-.9zm7.9-24-.9 1.6c-1-.8-2.1-1.6-3.3-2.4-1.2-.8-2.3-1.5-3.3-1.9l.9-1.5c1 .6 2.2 1.2 3.4 2 1.2.7 2.3 1.5 3.2 2.2zm21.4 18.1c.5.4 1.1.8 1.7 1.1-.1 1.4-.3 2.6-.5 3.4-.3.9-.7 1.6-1.4 2.2-.6.6-1.6 1.1-2.9 1.4-1.3.3-3.2.5-5.6.5-1.9 0-3.4 0-4.4-.1s-1.8-.2-2.4-.5c-1-.3-1.6-.9-2.1-1.6-.4-.8-.6-1.7-.6-2.9V85l-1.8.7c-.9.3-1.6.6-2 .8l-.4-1.8 2.1-.7 2.1-.8V72.5l1.9.1c0 .1-.1.3-.1.5v9.4l6.1-2.3V69.6c.4 0 1 0 1.8.1v9.8l7.7-3 .3-.3c.6.4 1.1.9 1.5 1.3l-.3.1c0 2.9 0 5.1-.1 6.7-.1 1.5-.3 2.7-.6 3.5-.1.3-.3.6-.5.9-.2.3-.5.5-.9.8s-.9.4-1.5.6c-.6.1-1.5.2-2.5.2-.2-.5-.5-1.2-.9-2.1.5.2 1.1.3 1.7.3 1.5 0 2.4-.5 2.8-1.5.1-.4.2-.9.3-1.4.1-.6.1-1.4.2-2.5 0-1.1.1-2.5.1-4.3l-7.4 2.8v10.7l.1 1.5h-1.9l.1-1.5V82l-6.1 2.3v12c0 .4.1.9.2 1.4s.4.8.7 1.1c.4.3.8.5 1.4.6.3.1.8.1 1.5.2s2.1.1 4.2.1c1.6 0 2.9-.1 4-.3 1.1-.2 1.9-.5 2.6-.9.7-.4 1.1-1.1 1.4-2 .2-.9.4-2.1.4-3.8zm7.9 7.5 10.2-27.9h1.6l-10.2 27.9h-1.6zm33.1-24.2h-12.6v6.3h-1.9c0-.3.1-.7.1-.9v-5.9c0-.2 0-.5-.1-.9h14.5v-2.9h-10.5c-1.1 0-2 0-2.5.1v-1.6h27.7v1.6c-.5 0-1.3-.1-2.4-.1h-10.6v2.9h14.6v7.7h-1.9V76h-12.8v8.5h-1.9c0-.2.1-.6.1-1.2V76zm15.6 18.6c.2.1.4.3.7.5l.9.6c-.1 1.6-.4 2.8-1 3.6s-1.5 1.4-2.7 1.7c-1.2.4-3 .5-5.2.5s-3.8 0-4.8-.1-1.7-.2-2.1-.4c-.4-.2-.8-.6-1-1s-.3-1-.3-1.8v-1.3h-9.1v2.6h-1.7l.1-1.1v-11l-.1-1.1h23.8v10.5h-11.2v1.3c0 .8.4 1.4 1.1 1.7.8.1 2.7.2 5.6.2 2.4 0 4.3-.3 5.5-1 .6-.3 1-.8 1.2-1.5.2-.7.3-1.6.3-2.9zM1044 78.5v1.3h-7.1v-1.3h7.1zm-5.8 3.7h5.9v1.3h-7.1v-1.3h1.2zm8.6 5.4h-9.1v3.1h9.1v-3.1zm-9.1 7.8h9.1v-3.3h-9.1v3.3zm20.3-4.6v-3.1h-9.5v3.1h9.5zm-9.5 4.6h9.5v-3.3h-9.5v3.3zm9.8-16.9v1.3h-7v-1.3h7zm-5.8 3.7h5.8v1.3h-7v-1.3h1.2zm46.3 12.7h2.8v1.8c-.6 0-1.5-.1-2.8-.1h-12.3v5.3h-1.9v-5.3h-12c-1.3 0-2.2 0-2.8.1v-1.8h14.8v-3.8h-10.2c0-.4.1-.8.1-1.1V79.7c0-.3 0-.6-.1-1.1h10.2v-4h-11.2c-1.2 0-2 0-2.6.1V73h13.8v-2.9l-.1-1c.8 0 1.5 0 2 .1 0 .3-.1.6-.1.9V73h14.1v1.7c-.5 0-1.4-.1-2.6-.1h-11.5v4h10.4v12.5h-10.4v3.8h12.4zm-14.2-14.7h-8.3V84h8.3v-3.8zm-8.3 5.3v4.1h8.3v-4.1h-8.3zM1095 84v-3.9h-8.5V84h8.5zm-8.5 5.6h8.5v-4.1h-8.5v4.1zm-186.2 31.9c1.3 0 2.2 0 2.7-.1v1.7h-32.4v-1.7c.6 0 1.5.1 2.8.1h13c-.6-1.3-1.1-2.3-1.7-3.1l1.7-.5c.7 1.1 1.3 2.3 1.9 3.6h12zm-12 20.5h12c1.3 0 2.2 0 2.8-.1v1.7H889c.3 1 .4 2 .4 3 0 .8-.1 1.5-.2 2s-.4 1-.7 1.3c-.3.3-.8.6-1.4.7-.6.1-1.3.2-2.2.2-1.4 0-2.6 0-3.7-.1l-.7-1.8c1.4.2 2.8.3 4 .3.9 0 1.5-.1 1.9-.2.4-.1.7-.4.9-.8.2-.4.3-.9.3-1.6 0-1.1-.1-2.1-.4-2.9h-16.5V142c.6 0 1.5.1 2.8.1h12.9c-.1-.2-.3-.5-.6-.9-.3-.3-.5-.6-.7-.8l1.3-.1c3.8-1 7.1-2.1 9.7-3.2h-19.5c-1 0-1.7 0-2.2.1v-1.6c.5 0 1.2.1 2.2.1h21.7l.2-.2c.5.3 1 .7 1.6 1.2l-.6.2c-1.6.9-3.3 1.6-5 2.3-1.7.7-3.2 1.1-4.2 1.5s-1.8.5-2.2.6c-.1.1.1.4.2.7zm-11.2-9.7c0-.3.1-.6.1-.9v-4.6c0-.2 0-.5-.1-.9h19.7v6.4h-19.7zm17.8-5H879v3.5h15.9v-3.5zm42.8-4.6h2.7v1.8c-.5 0-1.4-.1-2.7-.1H922c-.9 1.9-1.9 3.7-3 5.4h16v18.1c0 .7-.2 1.2-.5 1.6-.3.4-1 .7-1.9.9-.9.2-2.5.3-4.5.3l-1.1-2c1.6.1 2.5.2 2.7.2h.5c.9 0 1.6-.1 2.2-.3.6-.2.9-.5.9-1v-4.2H919v6.2l.1 1.4h-2l.1-1.4v-17.3c-.9 1.1-1.8 2.1-2.8 3.1-1 1-2 1.8-2.9 2.4s-1.8 1.2-2.5 1.5c-.2-.4-.6-.9-1.1-1.4 2.7-1.5 5-3.4 7.1-5.7 2.1-2.3 3.8-4.9 5.1-7.8h-8.4c-1.3 0-2.2 0-2.7.1v-1.8h11.8c.2-.6.5-1.4.8-2.3s.6-1.9.8-2.7l1.9.4-.1.3c-.1.6-.4 1.3-.7 2.2-.3.9-.6 1.6-.8 2.1h15zm-4.5 8.6H919v4.6h14.2v-4.6zM919 141.9h14.2v-4.6H919v4.6zm33.4-15.6v22.9l.1 1.6h-2.1l.1-1.6V148c0-.6 0-2.6.1-6 0-3.4.1-7.8.3-13-.7 1.3-1.4 2.5-2.2 3.7s-1.6 2.3-2.4 3.1c-.2-.5-.6-1.1-1-1.8 1.7-1.9 3.4-4.4 5-7.5 1.6-3.1 2.8-6 3.5-8.7l1.8.6-.1.3c-.4 1.2-.9 2.5-1.4 3.9s-1.2 2.6-1.7 3.7zm16.6 10.6c.6.9 1.4 2 2.4 3.3 1 1.2 2.3 2.4 3.8 3.6 1.5 1.2 3 2.1 4.4 2.7l-1 1.7c-.7-.3-1.5-.8-2.3-1.4-.9-.6-1.8-1.3-2.9-2.2-1-.9-2-1.9-2.9-3.1-.9-1.1-1.7-2.2-2.3-3.2l.1 11.5c0 .5 0 .9.1 1.2h-2v-1.2l.1-11.6c-.5.7-1 1.6-1.7 2.4-.7.9-1.5 1.8-2.4 2.7s-1.9 1.8-3 2.6c-1.1.9-2.3 1.6-3.5 2.2l-1-1.6c1.6-.8 3.1-1.7 4.6-2.9 1.5-1.2 2.7-2.4 3.7-3.6 1-1.2 1.8-2.2 2.3-3.1h-9.8v-1.8h10.8v-4.9H959c0-.4.1-.8.1-1V121c0-.2 0-.6-.1-1h16.9v10.2h-7.6v4.9h10.6v1.8H969zm-8.1-15.2v7H974v-7h-13.1zm53.9-.1v27.6l.1 1.7h-2v-2.8h-24.7v2.8h-1.9l.1-1.7v-27.6l-.1-1.7h28.6l-.1 1.7zm-26.5 24.9h24.7v-24.9h-24.7v24.9zm20.1-18.5h2v1.7h-9v4.6h5.4v8.8h-12.7c0-.4.1-.7.1-1v-6.8c0-.2 0-.6-.1-1h5.4v-4.6h-8.8V128h8.8v-3.6l-.1-1c.9 0 1.5 0 1.9.1 0 .3-.1.6-.1.9v3.5h7.2zm-3.3 13.4v-5.7H996v5.7h9.1zm30.2-21.2-.1 1.5v24.4l.1 2.1c0 .8-.3 1.4-1 1.8-.7.4-2 .6-3.8.6-.3-.7-.6-1.4-.9-2 .8.1 1.5.1 2.1.1s1.1-.1 1.4-.2.5-.4.5-.8v-9h-6.7c-.3 2.6-.8 5-1.4 7.1s-1.4 3.7-2.3 4.8l-1.5-1.3c1.2-1.5 2.1-3.7 2.8-6.5.7-2.8 1-6 1-9.8v-13.1h9.8zm-8.3 17h6.5v-7h-6.4v3.1c0 1.5 0 2.8-.1 3.9zm6.5-15.3h-6.4v6.7h6.4v-6.7zm15.5 21.6c.8 1.1 1.8 2 2.8 2.9 1.1.9 2.2 1.6 3.5 2.3l-.9 1.6c-2.5-1.4-4.6-3.2-6.4-5.4-1.6 2.1-3.5 3.8-5.5 4.8l-1.1-1.6c1.1-.5 2.1-1.2 3-2 .9-.8 1.8-1.7 2.6-2.7-.6-.9-1.2-1.9-1.6-2.9-.5-1-.9-2.1-1.3-3.3-.4-1.2-.7-2.5-1-3.9h-2.2v15.1c0 .7 0 1.4.1 2.1h-2c0-.7.1-1.5.1-2.1v-28.2h14.4v.6c0 1.7-.1 2.9-.2 3.8s-.2 1.5-.4 2c-.3.7-.8 1.2-1.6 1.6-.8.3-2 .5-3.5.5-.1-.4-.4-1.1-.8-2 .5.2 1.1.3 1.8.3 1.3 0 2.2-.4 2.5-1.1.2-.4.3-1 .4-1.6.1-.7.1-1.4.1-2.3h-10.7v10h10.6l.2-.2c.4.3.9.7 1.5 1.2l-.3.1c-.3 2-.8 3.9-1.4 5.7-1.1 1.7-1.8 3.3-2.7 4.7zm-4.4-10.2c.6 3.3 1.7 6.2 3.3 8.7 1.5-2.5 2.5-5.4 3.1-8.7h-6.4zm30.9-1.4-.3.1c-.5 1.3-1.1 2.6-1.9 3.9-.8 1.3-1.5 2.4-2.2 3.1-.4-.3-.8-.6-1.3-.9.6-.6 1.3-1.5 2-2.6s1.3-2.1 1.7-3.1h-4.5v15.5c0 .4-.1.8-.3 1.2-.2.3-.5.6-1 .9-.5.2-1.1.4-1.9.5s-1.8.1-3 .1l-1-2s.4 0 1 .1 1.2.1 1.7.1c.8 0 1.4-.1 1.9-.2.5-.2.7-.5.7-1v-7.4c0-.7 0-1.8.1-3.1 0-1.3.1-2.5.2-3.4-.2.6-.5 1.3-.8 2.2-.3.9-.8 1.9-1.3 3.1-.5 1.1-1.2 2.3-1.9 3.6-.7 1.2-1.5 2.3-2.4 3.2 0 0-.1-.1-.1-.2-.1-.1-.1-.2-.2-.3l-.5-.5-.4-.4c.8-.9 1.7-2 2.7-3.6s1.7-3 2.4-4.5 1.2-2.7 1.5-3.8h-6.1v-1.7h13.7l.2-.3c.2.2.5.4.8.7.2.4.4.6.5.7zm-3.8-10.4h-10.9v-1.7h11.8l.2-.3c.5.4 1.1.9 1.6 1.3l-.4.2c-.6.9-1.4 1.9-2.3 3.1s-1.8 2.1-2.7 2.9c1 .6 2 1.3 3.1 2.1l-1 1.4c-1-.8-2.3-1.7-3.9-2.6-1.6-.9-3.2-1.7-4.6-2.3l1-1.2c1.1.4 2.4 1 4 1.9.6-.6 1.3-1.3 2.1-2.2.7-.9 1.4-1.8 2-2.6zm20.3 17.1v.6c0 2.5-.1 4.5-.2 5.8-.1 1.3-.4 2.4-.7 3.1-.4.8-1.1 1.4-2.1 1.8-1 .4-2.5.6-4.5.6 0-.1-.3-.8-.9-2.1.6.2 1.3.3 2.1.3 2 0 3.3-.5 3.8-1.4.3-.5.5-1.4.6-2.4s.2-2.6.2-4.7h-6.3c-.3 1.3-.8 2.4-1.4 3.5s-1.3 2.1-2.2 3-1.8 1.7-3 2.4c-1.1.7-2.4 1.2-3.7 1.6l-1.2-1.4c1.3-.4 2.4-.9 3.3-1.4.9-.5 1.8-1.1 2.5-1.7.8-.6 1.5-1.5 2.1-2.5s1.2-2.2 1.6-3.5h-7.3v-1.7h7.7c.1-.4.1-.9.2-1.5 0-.6.1-1.2.1-1.6v-.7s.7 0 1.9.1c-.1.2-.1.3-.1.5 0 .4 0 1-.1 1.6 0 .7-.1 1.2-.2 1.6h7.8zm-7-7.9c2.1 1.6 4.8 2.7 8.1 3.5l-.7 1.7c-3.5-.9-6.3-2.3-8.5-4.1-1.1.9-2.4 1.7-3.8 2.4-1.5.7-3 1.2-4.7 1.7-.2-.5-.5-1-.9-1.5 3.3-.7 6-1.9 8.1-3.6-.4-.4-.9-.9-1.4-1.6-.6-.7-1.1-1.4-1.5-2.2-.4-.8-.8-1.4-1-1.9-.9 1.1-1.7 2-2.4 2.6-.3-.4-.8-.8-1.3-1.2.8-.5 1.5-1.3 2.3-2.2.8-.9 1.4-1.9 2-3 .6-1 1-2.1 1.3-3.2l1.7.3-.2.3c-.1.4-.3.9-.6 1.6s-.5 1.2-.7 1.6h11.8v1.6h-3.4c-1 2.8-2.3 5.2-4.2 7.2zm-5.3-7.1c.9 2.3 2.2 4.4 4.1 6.1 1.6-1.6 2.8-3.7 3.6-6.2l-7.7.1z"/>
    <path class="st2" d="M829 171.3h305.3"/>
</svg>
