<svg xmlns="http://www.w3.org/2000/svg" width="1345.8" height="407" style="overflow:visible;enable-background:new 0 0 1345.8 407" xml:space="preserve">
    <style>
        .st0{fill:#1a1a1a}
    </style>
    <circle class="st0" cx="203.5" cy="203.5" r="203.5"/>
    <circle class="st0" cx="672.9" cy="203.5" r="203.5"/>
    <circle class="st0" cx="1142.2" cy="203.5" r="203.5"/>
    <path d="M62 251.1c1 0 2 0 3.2-.1 1.2-.1 2.1-.2 2.8-.3l-.2.8c-.6.1-1.5.2-2.6.2-1.2.1-2.2.1-3.1.1-1.5 0-2.7-.2-3.7-.6-1-.4-1.7-1-2.1-1.9-.5 1.1-1.2 1.9-2 2.5-.1-.2-.3-.4-.5-.6.3-.2.6-.4.8-.7.2-.2.5-.5.7-.8.2-.3.4-.7.6-1.2.2-.5.4-1.1.5-1.8h-1.7l-.1-.7c.2-.1.3-.2.4-.4.2-.3.5-.7.8-1.1.3-.4.5-.8.7-1.1h-2.4v-.7h2.7l.1-.1c.2.1.4.3.6.5h-.2c-.6 1.2-1.2 2.1-1.7 2.7h1.2l.1-.1.6.5-.1.1c-.1.7-.3 1.4-.5 2 .1.3.2.5.4.8.2.3.4.5.7.7s.7.4 1.1.6 1 .3 1.6.4c.2.3.8.3 1.3.3zm-5.8-9.9c-.2-.4-.5-.8-.9-1.2-.4-.5-.7-.8-1-1.1l.5-.4c.3.2.6.6 1 1s.7.9 1 1.3l-.6.4zm1.8 3.3s-.1-.1-.1-.3c-.1-.2-.1-.3-.2-.4.5-.1.9-.3 1.4-.5.5-.2 1-.4 1.5-.7s.9-.6 1.3-.9h-4v-.7h4.5v-1.5c-1.1.1-2.3.2-3.5.2 0 0 0-.1-.1-.2s-.1-.3-.2-.5c1 0 1.9-.1 3-.1 1-.1 1.9-.2 2.7-.3.8-.1 1.4-.3 1.9-.4l.4.6h-.3c-.4.1-.8.2-1.4.3-.6.1-1.1.2-1.7.3v1.6h4.3v.7h-3.7c.5.4 1.1.9 1.8 1.2.7.4 1.4.7 2.2.9-.1.1-.1.2-.2.4s-.1.3-.1.3c-.8-.2-1.6-.6-2.3-1-.8-.5-1.4-1-1.9-1.5v2.4h-.8V242c-.3.3-.7.6-1.2 1s-1 .6-1.5.9-1.2.4-1.8.6zm6.1 4.5c.5 0 .9 0 1.2-.1.3-.1.5-.2.7-.4 0-.1.1-.2.2-.3.1-.2.1-.3.1-.5v-.6h-2.7c.1-.2.2-.8.5-1.6h-1.9c-.2 1.1-.6 2-1.1 2.7-.5.7-1.2 1.3-2.1 1.7-.1-.2-.3-.4-.5-.6.4-.1.7-.3 1.1-.6s.6-.5.9-.8c.2-.3.5-.7.6-1.1.2-.4.3-.8.4-1.3h-2.4v-.7h5.3l.1-.1c.3.2.5.3.6.5H65l-.4 1.2h2.6v.3c0 .4 0 .7-.1 1 0 .3-.1.5-.1.7-.1.2-.1.3-.2.4-.1.2-.4.4-.7.6-.3.1-.7.2-1.1.3s-.9.1-1.4.1c-.1-.1-.2-.4-.4-.8.1-.1.5 0 .9 0zm14.7 2.1c.9 0 1.9 0 3.1-.1s2-.2 2.7-.3c0 0 0 .1-.1.4-.1.2-.1.4-.1.5-.6.1-1.4.2-2.6.2-1.1.1-2.1.1-3 .1-.7 0-1.4-.1-2-.2s-1.2-.3-1.7-.5-.9-.5-1.3-.8-.6-.7-.8-1.1c-.5 1-1.1 1.9-2 2.6-.2-.3-.4-.5-.5-.6.3-.2.6-.5.9-.8.3-.3.6-.7.8-1.2s.4-.9.5-1.4c.1-.5.2-.9.3-1.4h-1.8l-.1-.6c.1 0 .1-.1.2-.2s.2-.1.2-.2c.2-.3.5-.7.8-1.2.3-.5.5-1 .7-1.4h-2.4v-.7h2.7l.1-.1.6.5-.1.1c-.2.5-.5 1.1-.8 1.6-.3.6-.6 1-.9 1.4h1.2l.1-.1.6.5-.1.1c-.1.8-.3 1.5-.5 2.2 0 .2.1.4.3.6.1.2.3.4.6.7.2.2.6.4.9.6.4.2.8.3 1.2.4.4.1.9.2 1.4.2.1.2.5.2.9.2zm-5.2-10.4-.6.5c-.2-.4-.5-.8-.9-1.2-.4-.5-.7-.8-1-1.2l.5-.4 1 1c.4.5.7.9 1 1.3zm1.7 9v-6.5h1.1v-4.5h6.4v4.5h1v5.4c0 .4-.2.6-.5.8-.3.2-.9.2-1.8.2-.1-.1-.2-.4-.4-.8.2 0 .5.1 1 .1h.5c.1 0 .3-.1.3-.1.1-.1.1-.2.1-.3v-4.7h-7v5.8h-.7zm1.8-10.4v3.9h2.2v-2.5h2.8v-1.5h-5zm.7 8.9V245h3.5v3.2h-3.5zm2.8-2.5h-2.1v2h2.1v-2zm-.6-2.5h2.1v-1.8H80v1.8zm20.2-1H88.9v2.4c0 1.6-.1 3.1-.3 4.4s-.5 2.3-.9 2.9l-.6-.6c.4-.6.6-1.5.8-2.7.2-1.1.3-2.5.3-4v-3h13.1v.7c-.3-.1-.7-.1-1.1-.1zm-11.4-1.6v-2.2h4.8v2.2h-4.8zm6.2 5h-.5v6.5h-.7v-1.4l-4.1.6-.5.1-.1-.7h.6c.2 0 .5-.1.8-.1v-4.9h-1v-.7h2.6v-1.2h-2.2v-.6h5.6v.6h-2.6v1.2h2.8v.6H95zm-2.1-6.6h-3.3v1h3.3v-1zm.9 7.8v-1.2h-2.7v1.2h2.7zm0 1.7v-1.1h-2.7v1.1h2.7zm-2.6 2c1-.1 1.9-.3 2.7-.4V249h-2.7v1.5zm7.6-1.1c.7.9 1.6 1.6 2.8 2.1l-.3.7c-.4-.2-.8-.4-1.2-.7s-.7-.5-1-.8l-.7-.7c-.7.9-1.6 1.6-2.9 2.2-.2-.3-.3-.5-.4-.7 1.2-.5 2.2-1.2 2.8-2.1-.6-1-1.1-2.1-1.3-3.3-.3.5-.6.9-.9 1.2-.2-.3-.4-.5-.4-.6.1-.1.3-.3.5-.6.2-.2.3-.5.5-.9s.4-.7.5-1.2c.2-.5.3-.9.4-1.4l.7.2-.1.1c-.1.4-.2.9-.4 1.5h3.9v.7h-1.2c-.2 1.6-.6 3-1.3 4.3zm-3.3-8.8v-2.2h4.8v2.2h-4.8zm4-1.6h-3.3v1h3.3v-1zm-2.4 6-.1.1c.2 1.4.6 2.6 1.2 3.6.6-1 1-2.2 1.2-3.7h-2.3zm10.1-1.8v8.9h-.8v-.6c0-1.8 0-4.6.1-8.3-.3 1.2-.6 2.2-1.1 3.2s-.8 1.8-1.3 2.4c-.1-.3-.3-.5-.4-.8.2-.2.4-.5.6-.8.2-.4.4-.8.7-1.3.2-.5.5-1.1.7-1.8.2-.7.4-1.3.6-2H104v-.8h2.5v-3.4h.8v3.4h1.9v.8h-1.9v.8l.3-.2c.5.8 1.1 1.7 1.6 2.9l-.5.5c-.6-1.3-1.1-2.2-1.5-2.9zm7.2.4c1.2 1.1 2.6 2 4.2 2.6 0 0-.1.1-.1.3-.1.1-.1.3-.2.5-1.7-.7-3.2-1.7-4.4-2.9-1.5 1.4-3.2 2.5-5.2 3.2 0 0-.1-.1-.1-.3-.1-.2-.1-.3-.2-.3 0-.1-.1-.1-.1-.1.6-.2 1.2-.4 1.8-.7.6-.3 1.2-.6 1.8-1 .6-.4 1.1-.8 1.5-1.2l-.9-1.2c-.3-.4-.6-.9-.8-1.3-.3.5-.7.9-1.1 1.3-.4.4-.8.7-1.2 1-.3-.3-.4-.5-.5-.6.5-.4 1-.8 1.5-1.3s.9-1.1 1.2-1.7.6-1.2.8-1.9l.8.2-.1.1c-.2.6-.4 1.1-.6 1.5h3.7l.1-.1c.1.1.2.1.3.2.1.1.2.2.4.3l-.1.1c-.3.6-.6 1.2-1 1.9-.5.3-1 .9-1.5 1.4zm2.5 3v5.7h-.8v-.9h-4.7v.9h-.8v-5.8h6.3zm-5.5 4h4.7v-3.3h-4.7v3.3zm.7-10.3-.1.1c.2.5.5.9.8 1.4s.7.9 1.1 1.3c.3-.3.6-.7 1-1.2s.7-1 1-1.7h-3.8zm11.8.9h1.8v.7h-1.8v3.2c1-.4 1.6-.6 1.8-.7v.8c-.5.2-1.1.4-1.8.7v4.8c0 .4-.2.7-.5.8-.3.2-.9.3-1.8.3l-.4-.9c.3 0 .7.1 1 .1.3 0 .5 0 .7-.1.2-.1.3-.2.3-.4v-4.3l-1.5.5-.5.2-.2-.8c.3-.1.5-.1.6-.1.3-.1.8-.3 1.7-.6v-3.5h-2.1v-.7h2.1V238h.8v3.2zM134 248l.7.5c0 .8-.1 1.3-.3 1.7s-.3.6-.6.8c-.2.2-.5.4-.9.5-.4.1-.7.2-1.2.2-.4 0-.9.1-1.3.1-.8 0-1.4 0-1.8-.1-.4 0-.7-.1-1-.2-.4-.1-.6-.4-.8-.7-.1-.3-.2-.7-.2-1.2v-10.7h7v6.6h-.6v-.8h-5.4v4.8c0 .4.1.6.2.8.1.2.4.3.7.4.4.1 1.1.1 2.2.1 1.2 0 2-.2 2.6-.5.3-.2.4-.5.6-.8.1-.2.1-.7.1-1.5zm-4.1-8.3h-2.3v4.5h2.3v-4.5zm3.1 4.5v-4.5h-2.4v4.5h2.4zm6.2-1.7v9.6h-.8v-13.6h5.2v3.9h-4.4zm3.7-3.4h-3.7v1.1h3.7v-1.1zm-3.7 2.8h3.7v-1.2h-3.7v1.2zm3.8 3.7.5-.2c.2.2.3.4.5.7l.6.9-.5.3-.3-.5c-1.1.1-2.1.3-2.9.3h-.5l-.2-.6c.1 0 .3-.1.4-.2.5-.3 1-.7 1.5-1.3l-1 .1-.4.1-.1-.6c.1 0 .2-.1.3-.2.3-.2.5-.5.8-.9.3-.3.5-.6.6-.9l.6.3-.1.1c-.4.6-.9 1.1-1.3 1.5.6 0 1-.1 1.3-.1.3-.3.5-.6.7-.8l.6.3-.1.1c-.8.8-1.6 1.6-2.6 2.3.5 0 1.3-.1 2.2-.2-.2 0-.4-.3-.6-.5zm.5 2.2v-.4h.7v1.8c0 .2 0 .5-.1.8-.1.3-.3.5-.5.8s-.6.5-1 .7c-.4.2-.8.4-1.2.5 0-.1-.2-.3-.4-.6.5-.1 1-.3 1.4-.5.4-.2.7-.4.8-.6.2-.2.3-.4.4-.6-.4.1-.8.1-1.2.1-.5 0-.8.1-1.1.1v-2.3h.7v1.7c.6 0 1.1 0 1.7-.1v-1.4zm5.2-1.1c-.3 0-.8.1-1.5.2s-1.2.1-1.6.2h-.4l-.2-.6c.1 0 .2-.1.4-.2s.4-.3.7-.5.6-.5.9-.8l-1.1.1-.4.1-.2-.6c.1 0 .2-.1.3-.2.3-.2.6-.5.8-.9.3-.3.5-.6.6-.9l.6.3-.1.1c-.5.7-1 1.2-1.4 1.5.6 0 1-.1 1.3-.1l.4-.4c.1-.1.2-.3.3-.4l.6.3-.1.1c-.3.4-.7.8-1.2 1.2-.5.4-.9.8-1.4 1.1.7-.1 1.5-.1 2.3-.2l-.5-.7.5-.3c.5.6.9 1.1 1.2 1.7l-.5.3-.3-.4zm-.2 2.8v.4h-2.4v2h-.7v-4.4h.7v1.8h1.7v-1.7h.7v1.9zm2.5-10.3v11.7c0 .3-.1.5-.3.7-.2.2-.4.3-.8.3-.4.1-.8.1-1.2.1-.2-.5-.4-.7-.4-.8.3 0 .6.1 1 .1h.5c.2 0 .3-.1.3-.1.1-.1.1-.2.1-.3v-8.3h-4.5v-4h5.2l.1.6zm-.7-.1h-3.7v1.1h3.7v-1.1zm-3.8 2.8h3.7v-1.2h-3.7v1.2zm14.2 5c.3-.2.5-.4.6-.7.2-.3.3-.7.3-1.2h-.8v-1.4h1.4v1c0 .4-.1.8-.2 1.2-.1.4-.3.7-.5.9s-.4.4-.7.6l-.1-.4zm15.1-8.5v13.9h-.8v-6.1h-1.7c0 1.4-.2 2.6-.5 3.6s-.8 1.8-1.4 2.3l-.5-.7c.5-.4 1-1.1 1.3-1.9.3-.9.5-2 .5-3.3h-1.4v-.8h3.8v-2.3h-2.8v-4.6h.8v4h2v-4.6h.8l-.1.5zm1.4 6.8c0-.1-.2-.3-.5-.6.6-.1 1.2-.2 1.8-.4.6-.2 1.2-.4 1.6-.6-.5-.4-1.1-.8-1.8-1.2l.4-.4c.3.1.6.3 1 .6s.7.5 1 .7c.3-.2.7-.4 1.2-.8-.7-.5-1.3-.9-1.9-1.2l.4-.4c.3.1.6.3 1 .5s.7.4 1 .6c.7-.6 1.3-1.3 1.7-2h-4c-.5.4-1 .8-1.5 1.1s-1 .5-1.3.7l-.5-.6c1-.4 1.8-.8 2.6-1.4s1.3-1.2 1.7-1.8c.2.1.4.1.8.2l-.1.1c-.2.4-.5.8-.9 1.2h3.6l.1-.1c.1 0 .2.1.3.2.1.1.2.2.4.3l-.1.1c-.3.6-.8 1.2-1.3 1.8s-1.1 1.1-1.7 1.6c-.6.5-1.4.9-2.2 1.2s-1.9.4-2.8.6zm7.6.7h.9v.8h-2.3v4.4c0 .3-.1.5-.2.6-.1.2-.4.3-.8.4-.4.1-1 .1-1.8.1l-.4-.9c.1 0 .3 0 .6.1h.7c.4 0 .6 0 .9-.1s.3-.2.3-.4v-4.2h-5.6v-.8h5.6v-1.7h.8v1.7h1.3zm-4.1 3.2-.5.6c-.3-.3-.7-.6-1.3-.9-.5-.3-.9-.6-1.3-.7l.4-.5c.3.1.7.3 1.2.6.6.3 1.1.6 1.5.9zm20.2-7.1v10.1h-.8v-1h-9.9v1h-.8v-10.8h5.4V238h.9v3.3h5.4l-.2.7zm-6.2.1h-4.5v3.7h4.5v-3.7zm-4.6 8.3h4.5v-3.8h-4.5v3.8zm10-8.3h-4.6v3.7h4.6v-3.7zm-4.6 8.3h4.6v-3.8h-4.6v3.8zm21.8-10.9h-10.5v4.5c0 1.8-.2 3.4-.5 4.8s-.8 2.5-1.4 3.2l-.7-.6c.5-.7.9-1.7 1.3-3 .3-1.3.5-2.8.5-4.5v-5.2h12.4v.8h-1.1zm-6.8 8.6-.1.1c-.1.3-.4.6-.6 1-.3.4-.6.8-1 1.2s-.8.7-1.2 1l-.6-.6c.5-.3 1-.7 1.6-1.3s.9-1.1 1.2-1.7c.2.1.4.2.7.3zm3.1-1.4v4.3c0 .2 0 .4-.1.5-.1.1-.2.3-.4.4-.2.1-.5.2-.9.2s-.8.1-1.4.1l-.4-.8c.3.1.8.1 1.3.1.3 0 .6 0 .8-.1.2-.1.3-.2.3-.4v-4.1h-3.9v-5.2h3.2c.4-.7.6-1.3.7-1.9l.8.3s-.1.1-.1.2c-.1.4-.4.9-.6 1.5h4.2v5.2h-3.5zm2.7-4.6h-6.7v1.6h6.7v-1.6zm-6.6 2.3v1.6h6.7v-1.6h-6.7zm6.6 3.4c.4.3.8.8 1.3 1.3s1 1.1 1.5 1.8l-.7.5c-.4-.5-.8-1.1-1.3-1.6s-1-1.1-1.5-1.5l.7-.5zm18.2-7.8h-11.1v4.1c0 1.7-.1 3.2-.4 4.5-.3 1.3-.6 2.4-1.1 3.1-.3-.2-.5-.4-.7-.5.4-.7.8-1.6 1-2.9.3-1.2.4-2.7.4-4.3v-4.8h6.3c-.2-.4-.4-.8-.7-1.2l.7-.3c.2.2.3.5.5.7.2.3.3.5.4.8h5.8v.7c-.2.2-.6.1-1.1.1zm-5 4.1v6.8c0 .2-.1.4-.2.6-.2.1-.4.2-.7.3-.3 0-.6.1-1 .1l-.3-.8c.3 0 .6.1.8.1.2 0 .4 0 .5-.1s.2-.2.2-.3v-6H225v7.3h-.7v-7.9h2.3v-3.3h.8v3.3h2.1zm-4.2-.5c-.2-.6-.5-1.3-.8-2l.6-.2c.1.3.3.6.4 1 .1.4.3.7.4 1l-.6.2zm1 5.7v.7h-.5v-4.1h2.3v3.4h-1.8zm1.2-2.9h-1.2v2.4h1.2v-2.4zm.5-2.9c.2-.3.4-.6.6-1s.4-.8.5-1.2l.6.2-.1.1c-.1.3-.3.6-.4 1l-.5 1-.7-.1zm5.2 5.5c.6 1 1.5 1.9 2.6 2.5-.1.2-.2.4-.3.7-.4-.2-.8-.5-1.1-.8-.4-.3-.7-.6-.9-.9-.3-.3-.5-.6-.6-.8-.3.5-.7 1-1.2 1.4-.4.4-.9.8-1.5 1.1l-.3-.7c.6-.3 1.1-.7 1.5-1.1s.7-.9 1-1.4c-.6-1.1-1-2.4-1.2-4-.3.5-.5.9-.8 1.2l-.4-.6c.4-.4.8-1.1 1.2-2s.7-1.9.8-2.8l.7.1-.1.1c-.1.7-.3 1.4-.6 2.2h3.6v.7h-1c-.2 1.9-.7 3.6-1.4 5.1zm-1.5-5.1c.2 1.7.6 3.2 1.2 4.4.6-1.2.9-2.7 1.1-4.5h-2.2l-.1.1zm7.3-3.1h5v.7h-5.7v-.7h.7zm4.4 6.6v4.7h-.7v-.9h-3.1v.9h-.7v-4.7h4.5zm-.8-3.7h-3.5v-.7h4.1v.7h-.6zm-3.5 2.2v-.7h4.1v.7h-4.1zm.5 4.7h3.1V248h-3.1v2.6zm2.5-10.6-.7.4c-.4-.8-.8-1.5-1.3-2.1l.6-.4c.2.2.4.6.6.9.4.5.6.9.8 1.2zm2 10.4c.2-.4.5-.9.8-1.6s.4-1.3.5-1.9l.7.3v.1c-.1.7-.3 1.4-.6 2.1-.2.7-.5 1.2-.7 1.6l-.7-.6zm.6-6c.3-.1.5-.2.8-.4.3-.2.6-.5.9-.8.3-.3.6-.6.8-1-.7-.4-1.4-.7-2.2-1 .1-.2.2-.4.4-.6.8.3 1.5.6 2.1 1 .1-.3.2-.5.3-.8.1-.3.1-.6.2-.8 0-.3.1-.5.1-.7h-3.2v-.7h7.3v.3c0 1.4 0 2.4-.1 3.1 0 .7-.1 1.2-.2 1.6-.1.4-.4.7-.8.8-.4.2-.9.2-1.5.2 0-.1-.1-.2-.2-.4s-.1-.3-.2-.5c.1 0 .2.1.4.1h.4c.3 0 .5-.1.7-.2s.3-.3.4-.5c.1-.2.1-.4.1-.6 0-.2.1-.6.1-1v-2.2h-2.6c0 1.3-.4 2.4-1.1 3.4s-1.5 1.8-2.6 2.3l-.3-.6zm5.1 6.6c.1-.2.2-.4.2-.7 0-.3.1-.8.1-1.4 0 0 .1.1.2.1s.3.2.5.3c0 .5 0 .9-.1 1.2-.1.3-.2.6-.3.8-.2.2-.4.4-.6.5-.3.1-.6.2-1 .2h-.8c-.3 0-.5-.1-.7-.2-.3-.1-.4-.5-.4-1.1v-4.4l.8.1v4.4c0 .3.1.5.4.5h.8c.2 0 .4 0 .6-.1 0 0 .2-.1.3-.2zm-1.7-6.3c.3.2.6.5.9.9.3.4.6.7.8 1l-.5.5c-.2-.3-.4-.7-.8-1-.3-.4-.6-.7-.9-.9l.5-.5zm3.3 1.9c.3.4.5.9.8 1.6s.5 1.3.7 1.9l-.7.4c-.1-.3-.2-.6-.3-1-.1-.4-.3-.9-.5-1.4-.2-.5-.4-.9-.6-1.2l.6-.3zm8.1-5.1h-4.3v-.7h5v.7h-.7zm.3 5.8v4.6h-.7v-.9h-2.8v.9h-.7v-4.6h4.2zm-.2-4.3v.7h-3.8v-.7h3.8zm-3.2 2.2h3.2v.7h-3.8v-.7h.6zm-.1 5.3h2.8V248h-2.8v2.5zm2.2-10.5-.7.4c-.1-.3-.3-.7-.5-1.1s-.4-.7-.6-1l.7-.4c.2.3.4.6.6 1 .2.5.4.9.5 1.1zm6.2-1.3c-.2.5-.4 1.1-.7 1.6-.3.5-.6 1.1-.9 1.6-.4.5-.7 1-1.2 1.4s-.8.8-1.3 1c-.1-.2-.3-.4-.5-.6.2-.1.4-.2.7-.4s.5-.4.8-.7c.3-.3.5-.6.8-.9-.5-.5-1-.9-1.4-1.2l.4-.4c.2.2.5.4.7.6.2.2.5.4.6.6.2-.3.4-.7.6-1.1.2-.4.4-.8.5-1.1h-2.9v-.7h3.1l.1-.1c.3.1.5.2.6.4zm1.6 12.3h3.1v.7h-8.7v-.7h4.9c.2-.3.3-.7.5-1.2s.4-.9.5-1.3l.7.3-.1.1c-.1.3-.2.6-.4 1.1s-.4.7-.5 1zm1.6-6.3v3.3h-5.8v-3.3h5.8zm-4.4 6.1c-.1-.3-.3-.7-.4-1.1-.2-.4-.3-.7-.4-1l.6-.2c.3.7.6 1.4.8 2l-.6.3zm-.7-3.4h4.4v-2.1h-4.4v2.1zm4-4.1H263v-.7h3.8v.7zm2.2.9c-.9-.6-1.6-1.5-2.4-2.6-.7-1.1-1.2-2.2-1.5-3.3l.6-.2c.1.2.1.4.2.8s.2.6.3.7c.7-.6 1.1-1 1.3-1.3.2.2.4.3.5.5l-.1.1c-.5.5-.9.9-1.4 1.3.2.4.5.9.8 1.3.3-.2.5-.5.8-.8l.7-.7.2.2.3.3-.1.1-1.5 1.5c.3.3.5.6.8.9.3.3.6.5.9.7l-.4.5zm8.6-3.7v9.8h-.8v-.8h-3.1v1.5h-.8v-10.6h1.4c.1-.2.2-.5.3-.8s.2-.7.3-1c.1-.3.1-.5.1-.6l.9.1-.1.2c-.1.3-.2.7-.3 1.1-.1.4-.2.8-.4 1.1h2.5zm-.8.7h-3.1v3.3h3.1v-3.3zm-3.1 7.6h3.1v-3.6h-3.1v3.6zm11.9-8.3v.3c0 2.8-.1 5-.2 6.4-.1 1.5-.3 2.5-.5 3.1 0 .1-.1.2-.2.4s-.3.3-.5.5-.4.3-.6.3c-.2.1-.5.2-.9.2-.4.1-.9.1-1.4.1 0 0 0-.1-.1-.2 0-.1-.1-.2-.2-.4s-.1-.3-.2-.3c.1 0 .3.1.5.1h.5c.7 0 1.2-.1 1.6-.3.4-.2.7-.5.8-.9.1-.2.2-.6.3-1.1.1-.5.1-1.3.2-2.4.1-1.1.1-2.8.1-5.1h-4.5c-.1.2-.3.5-.4.8l-.6.9c-.2.3-.4.5-.6.7-.1-.1-.3-.3-.6-.5.4-.4.7-.9 1.1-1.5.4-.7.7-1.3 1-1.9.2-.6.4-1.2.6-1.6l.8.2-.1.1c-.2.7-.5 1.5-.8 2.2h4.9zm-2.9 6.6-.7.4c-.2-.4-.5-.9-.9-1.5s-.8-1-1.1-1.4l.6-.4c.3.3.6.7 1 1.2.4.6.8 1.1 1.1 1.7zm9.4-8.3c.9.7 1.8 1.4 2.5 2.2l-.4.7c-.4-.4-.7-.8-1.1-1.2-.4-.4-.8-.7-1.2-1.1l-1.2 1.8c-.5.6-.9 1-1.3 1.3-.1-.2-.2-.5-.4-.7.5-.4 1-1 1.6-1.7.5-.7.9-1.4 1.2-2.1l.7.1-.1.1-.3.6zm.2 6.9v4.5c1.2-.3 2-.5 2.2-.6v.7c-.3.1-1 .3-2 .6s-1.9.5-2.4.6l-.5.2-.2-.8.6-.1c.7-.1 1.2-.3 1.8-.4v-4.7h-2.1v-.7h2.1v-2.2h-1.4v-.7h3.5v.7h-1.4v2.2h1.9v.7h-2.1zm-1.6 3.6-.5.2c-.1-.4-.2-.8-.3-1.3s-.2-.9-.3-1.2l.6-.2c.3 1.1.4 1.9.5 2.5zm2.8-.2c-.1 0-.3-.1-.5-.2.1-.2.2-.6.3-1.1.1-.5.2-1 .3-1.4l.6.2-.1.1c-.1.3-.2.7-.3 1.2-.1.5-.3.9-.3 1.2zm3.8-8-.6.4c-.2-.4-.4-.9-.7-1.4-.3-.5-.5-1-.8-1.4l.7-.4c.2.4.5.8.7 1.3.3.6.5 1 .7 1.5zm4.8 1.1v8.7c0 .5-.2.8-.7.9-.4.1-1.1.2-2.1.2-.1-.1-.2-.4-.4-.9.5.1.9.1 1.2.1.3 0 .6 0 .8-.1.2-.1.3-.2.3-.4v-2.4h-5v3.7h-.9v-9.9h2.9v-4.2h.8v4.2h3.1zm-.8.7h-5v2.1h5v-2.1zm-5 4.9h5v-2.2h-5v2.2zm5.4-9.6.7.3-.1.1c-.3.7-.6 1.3-.8 1.8s-.5.8-.6 1l-.6-.4c.2-.4.5-.8.8-1.4s.4-.9.6-1.4zm16.1 7.6h1v.6h-11.1v-5.5c-.6.6-1.3 1-1.9 1.4l-.5-.6c.8-.4 1.5-1 2.2-1.7.7-.7 1.3-1.3 1.8-2l.7.3-.1.1-1.2 1.5h4.1c-.1-.2-.3-.5-.5-.8-.2-.3-.4-.5-.6-.7l.6-.4c.4.4.8 1 1.2 1.6l-.4.3h5.4v.6h-5.2v1.4h4.6v.6h-4.6v1.4h4.6v.6h-4.6v1.4h4.5zm0 1.7v4.6h-.8v-.8h-8.5v.8h-.8v-4.6h10.1zm-9.3 3.2h8.5v-2.6h-8.5v2.6zm0-10.2v1.4h4.1v-1.4h-4.1zm4.1 3.3v-1.4h-4.1v1.4h4.1zm-4.1.5v1.4h4.1v-1.4h-4.1zm21 6.5h-3.9v.9h-.7v-5.1c-.3.5-.5.8-.7 1.1-.1-.1-.2-.3-.4-.5-.1 1-.2 1.9-.4 2.7-.2.8-.4 1.5-.6 2.1l-.6-.6c.2-.6.4-1.3.6-2.2.2-.8.3-1.7.4-2.6.1-.9.1-1.7.1-2.4v-5.4l.5.2c.8 0 1.6-.1 2.5-.1.9-.1 1.8-.2 2.7-.4l.5.6h-.4c-2 .3-3.7.4-5.1.5v1.1h5.3v2.9H324v.7c0 .9 0 1.9-.1 2.8.1-.1.3-.4.5-.7s.4-.7.6-1.2c.2-.5.4-1 .5-1.4l.7.2h-.2c-.1.4-.3.8-.4 1.2h1.8c-.1-.2-.2-.4-.4-.6s-.3-.4-.4-.6l.6-.2.9 1.2-.4.2h1.8v.6h-1.7v1.1h1.5v.6h-1.5v1.1h1.5v.6h-1.5v1.2h1.8v.4zm-5.5-9.5v1.6h4.6v-1.6H324zm1.6 4.4v1.1h1.5v-1.1h-1.5zm1.5 2.8v-1.1h-1.5v1.1h1.5zm-1.5.6v1.2h1.5v-1.2h-1.5zm3.6 2.4c.3-.1.6-.3 1-.5s.7-.5 1-.7c.3-.3.6-.5.8-.8l.6.4c-.4.4-.8.8-1.3 1.2s-1 .7-1.6 1l-.5-.6zm3.5-11.9h-3v-.7h6.9v.7h-3.2c-.2.7-.4 1.3-.6 1.8h3v7.5h-5.4v-7.5h1.6c.4-.6.6-1.2.7-1.8zm2.4 4V242h-3.9v1.6h3.9zm-3.9.7v1.6h3.9v-1.6h-3.9zm0 4h3.9v-1.8h-3.9v1.8zm3.1 1.1c.4.2.8.6 1.3 1s.9.7 1.2 1.1l-.4.6-1.1-1.1c-.5-.4-.9-.8-1.4-1.1l.4-.5zm6.6-5.7v8.4h-.9v-13.6h5.2v5.2h-4.3zm3.6-4.5h-3.6v1.6h3.6v-1.6zm-3.6 3.9h3.6v-1.6h-3.6v1.6zm7.9 2.3v4.2h-4.3v1.4h-.8v-5.6h5.1zm-4.3 3.5h3.5v-2.8h-3.5v2.8zm8.1-9.7v11.7c0 .4-.2.7-.6.9-.4.2-1.1.2-2 .2 0-.1-.1-.2-.2-.5l-.2-.4c.1 0 .3 0 .5.1h.6c.3 0 .6 0 .8-.1s.3-.2.3-.4v-7h-4.4v-5.2h5.2v.7zm-.8 0h-3.6v1.6h3.6v-1.6zm-3.6 3.9h3.6v-1.6h-3.6v1.6zm-239 29.9v4.9c0 .4-.2.7-.5.8-.3.2-.9.3-1.8.3l-.4-.9c.4 0 .7.1 1 .1.3 0 .5 0 .7-.1.2-.1.3-.2.3-.4v-4.4l-1.5.5-.5.2-.2-.8.6-.1c.2-.1.7-.2 1.6-.6V269h-2.1v-.7h2.1v-3.2h.8v3.2h1.8v.7h-1.8v3.3c1-.4 1.6-.6 1.8-.7v.8c-.4.1-1 .3-1.9.6zm7.9 5.2c1.4 0 2.5-.1 3.4-.2l-.2.8c-.7.1-1.8.1-3.3.1-.4 0-.8 0-1.3-.1s-.9-.2-1.2-.4c-.4-.2-.7-.4-1-.6-.3-.2-.5-.5-.7-.8-.2-.3-.4-.6-.5-1-.1.3-.3.7-.5 1s-.4.8-.7 1.1c-.3.4-.5.7-.8.9l-.6-.5c.3-.2.5-.5.8-.9.3-.4.5-.8.8-1.2l.6-1.5c.2-.5.3-1.1.4-1.7l.8.2s0 .1-.1.1l-.3 1.5c.1.7.4 1.3.8 1.8s1 .8 1.7 1.1v-5.4h-3.8v-.7h8.9v.7H116v2.3h3.4v.7H116v2.6c.1 0 .3 0 .6.1h.5zm-4.8-7.6v-5.1h6.6v5.1h-6.6zm5.8-4.5h-5v1.6h5v-1.6zm-5 3.8h5v-1.7h-5v1.7zm12.4-1.4v10.6h-.9v-3.8c0-1.5.1-3.4.1-5.6-.3.5-.6 1.1-.9 1.6s-.7 1-1 1.4l-.4-.8c.4-.5.9-1.1 1.4-1.9s.9-1.6 1.3-2.5c.4-.9.7-1.8 1-2.7l.8.3-.1.1c-.4 1.1-.8 2.2-1.3 3.3zm10.7 5.3h1v.8h-10.6v-.8h2.9v-4.3h-2.3v-.8h2.3V265h.9v3.6h3.1v-3.7h.9v3.6h2.6v.8h-2.6v4.3h1.8zm-9.6 4.6c.6-.3 1.3-.8 1.9-1.4.6-.6 1.1-1.1 1.4-1.6l.6.5c-.4.6-.9 1.1-1.5 1.7-.6.6-1.3 1.1-1.9 1.5l-.5-.7zm3.7-8.9v4.3h3.1v-4.3h-3.1zm3.6 5.8c.4.4 1 .9 1.6 1.5.6.6 1.1 1.2 1.5 1.6l-.6.7c-.9-1.1-1.9-2.2-3.1-3.3l.6-.5zm12 1.1c1.1.7 2.4 1.2 3.9 1.5 1.4.3 2.9.5 4.5.4 0 .1-.1.3-.2.8-.6 0-1.2 0-1.9-.1s-1.4-.1-2-.3c-.7-.1-1.2-.3-1.8-.5l-1.5-.6c-.5-.2-1-.5-1.4-.8-.4.4-1 .7-1.5 1-.6.3-1.2.5-1.8.7-.6.2-1.1.3-1.6.4 0 0 0-.1-.1-.1 0 0-.1-.1-.2-.3-.1-.2-.2-.3-.2-.3.9-.2 1.8-.4 2.6-.8.8-.3 1.5-.7 2.1-1.2-.7-.5-1.4-1.1-2-1.7l.6-.4c.5.6 1.2 1.2 1.9 1.6.7-.6 1.1-1.4 1.3-2.2h-4.5v-5.4h4.6v-1.9h-6.5v-.8h13.9v.8h-6.6v1.9h4.8v5.4h-4.8c-.1.3-.2.7-.3 1-.1.3-.3.6-.5.9s-.7.8-.8 1zm.6-7.4h-3.8v1.7h3.8V269zm-3.8 4.1h3.8v-1.7h-3.8v1.7zm8.5-4.1h-4v1.7h4V269zm-3.9 4.1h4v-1.8h-4v1.8zm15.1-4.8c-.3 2.4-.8 4.5-1.6 6.2.9.6 1.5 1.1 1.8 1.4l-.5.7c-.1-.1-.4-.4-.7-.6s-.6-.5-1-.8c-.9 1.6-2.2 2.8-3.7 3.7 0 0 0-.1-.1-.1s-.1-.2-.2-.3c-.1-.2-.2-.2-.2-.3 1.5-.8 2.7-1.9 3.6-3.4-1-.7-1.8-1.3-2.6-1.7.1-.3.3-.8.5-1.5s.4-1.5.7-2.5h-1.9v-.8h2.1c.4-1.6.6-2.7.6-3.4.3 0 .6.1.8.1-.1.1-.1.2-.1.4l-.6 3h3.1zm-4.2 4.4c.5.3 1.1.7 2 1.3.3-.7.6-1.5.9-2.3l.6-2.7h-2.4c-.4 1.3-.8 2.6-1.1 3.7zm11.9-.9h.8v.8h-3.2c.2 1 .3 2 .3 3.1 0 .7 0 1.2-.1 1.6-.1.4-.1.7-.2.9-.1.2-.3.4-.5.6-.3.1-.6.2-1.1.2-.5 0-.9 0-1.2-.1 0-.1-.1-.4-.3-.8.2 0 .4.1.7.1h.7c.4 0 .7-.1.9-.2.2-.1.3-.4.4-.7s.1-.9.1-1.6c0-1-.1-2-.3-3h-3.9v-.8h3.8c-.2-1.1-.5-1.8-.9-2.2l.6-.1c.5-.3 1-.8 1.5-1.2.5-.5 1-1 1.3-1.5h-6.2v-.9h6.3l.1-.1c.3.2.6.4.8.6l-.2.1c-.4.6-.9 1.2-1.5 1.8-.6.6-1.2 1.1-1.8 1.6.2.5.4 1.1.6 1.8h2.5zm8.8-4.3v9.8h-.8v-.8H175v1.5h-.8v-10.6h1.4c.1-.2.2-.5.3-.8s.2-.7.3-1c.1-.3.1-.5.1-.6l.9.1-.1.2c-.1.3-.2.7-.3 1.1-.1.4-.2.8-.4 1.1h2.5zm-.8.7H175v3.3h3.1v-3.3zm-3.1 7.6h3.1v-3.6H175v3.6zm11.9-8.3v.3c0 2.8-.1 5-.2 6.4-.1 1.5-.3 2.5-.5 3.1 0 .1-.1.2-.2.4s-.3.3-.5.5-.4.3-.6.3c-.2.1-.5.2-.9.2-.4.1-.9.1-1.4.1 0 0 0-.1-.1-.2 0-.1-.1-.2-.2-.4s-.1-.3-.2-.3c.1 0 .3.1.5.1h.5c.7 0 1.2-.1 1.6-.3.4-.2.7-.5.8-.9.1-.2.2-.6.3-1.1.1-.5.1-1.3.2-2.4.1-1.1.1-2.8.1-5.1h-4.5c-.1.2-.3.5-.4.8l-.6.9c-.2.3-.4.5-.6.7-.1-.1-.3-.3-.6-.5.4-.4.7-.9 1.1-1.5.4-.7.7-1.3 1-1.9.2-.6.4-1.2.6-1.6l.8.2-.1.1c-.2.7-.5 1.5-.8 2.2h4.9zm-2.9 6.6-.7.4c-.2-.4-.5-.9-.9-1.5s-.8-1-1.1-1.4l.6-.4c.3.3.6.7 1 1.2.5.6.8 1.1 1.1 1.7zm18.3-1.3h1v.6h-11.1v-5.5c-.6.6-1.3 1-1.9 1.4l-.5-.6c.8-.4 1.5-1 2.2-1.7.7-.7 1.3-1.3 1.8-2l.7.3-.1.1-1.2 1.5h4.1c-.1-.2-.3-.5-.5-.8-.2-.3-.4-.5-.6-.7l.6-.4c.4.4.8 1 1.2 1.6l-.4.3h5.4v.6h-5.2v1.4h4.6v.6h-4.6v1.4h4.6v.6h-4.6v1.4h4.5zm0 1.7v4.6h-.8v-.8H193v.8h-.8v-4.6h10.1zm-9.3 3.2h8.5v-2.6H193v2.6zm.1-10.2v1.4h4.1v-1.4h-4.1zm4 3.3v-1.4H193v1.4h4.1zm-4 .5v1.4h4.1v-1.4h-4.1zm26.9-4.2h1.2v.8h-14.3v-.8h5c-.2-.3-.4-.7-.7-1.1-.3-.4-.5-.7-.8-1l.8-.3c.2.3.5.6.8 1 .3.4.5.8.8 1.1l-.4.2h2.9c.2-.3.5-.7.8-1.2s.5-.9.6-1.3l.9.4c-.1 0-.1.1-.1.1-.2.3-.4.7-.6 1-.2.4-.4.7-.6 1h3.7zm-6.8 2.4v8.5c0 .4-.2.6-.5.8s-.9.3-1.7.3l-.4-.9c.3 0 .6.1.9.1.3 0 .5 0 .6-.1.2-.1.2-.2.2-.4v-2.5h-3.5v3.8h-.8v-9.7h5.2zm-.7.6H209v2h3.5v-2zm-3.6 4.5h3.5v-1.9h-3.5v1.9zm6.9 1.8v-6.3h.8v6.3h-.8zm4.1-7.2v8.6c0 .3-.1.5-.2.6s-.4.3-.8.4c-.4.1-1 .1-1.8.1l-.5-.9c.3.1.7.1 1.3.1.4 0 .6 0 .8-.1.2-.1.3-.2.3-.4V269c.2.2.5.2.9.2zm13.5 2.6c0 .5-.1 1.1-.2 1.7-.1.6-.3 1.1-.5 1.6s-.4.8-.6 1.1l2 2.1H233l-1.5-1.6c-.5.6-1.1 1-1.7 1.3-.6.3-1.3.4-2.1.4-.4 0-.8 0-1.2-.1-.4-.1-.7-.2-1.1-.4-.4-.2-.7-.5-.9-.8-.3-.4-.4-.7-.5-1.1-.1-.4-.1-.6-.1-.9 0-.8.2-1.5.7-2 .5-.6 1.2-1 2.3-1.4-.7-.8-1.2-1.4-1.4-1.8-.2-.4-.3-.8-.3-1.2 0-.5.1-.9.3-1.3.2-.4.5-.7.9-.9.4-.2.7-.3 1-.4s.6-.1.8-.1c.3 0 .6 0 .9.1s.5.2.8.3.4.3.6.5c.2.2.3.5.4.8.1.3.1.6.1.8 0 .7-.2 1.3-.7 1.8-.5.5-1.2 1-2.3 1.5l3.5 3.7c.4-.5.6-1.1.8-1.8.2-.7.3-1.4.3-2.1h.8zm-6.1.5c-.9.3-1.5.7-2 1.2-.4.5-.6 1.1-.6 1.7 0 .4.1.8.2 1.1.1.3.4.6.6.8s.6.4 1 .5.8.2 1.2.2c.5 0 .9-.1 1.3-.2s.7-.3 1.1-.5c.3-.2.6-.5.9-.8l-3.7-4zm.3-.7c.6-.2 1.1-.5 1.5-.7s.7-.5.8-.8c.2-.3.3-.5.3-.8 0-.2.1-.4.1-.5 0-.3-.1-.5-.2-.8s-.3-.5-.6-.7c-.3-.2-.7-.3-1.2-.3-.6 0-1.2.2-1.6.5-.4.4-.6.8-.6 1.4 0 .4.1.7.2 1 .1.3.3.6.6.9.2.2.4.5.7.8zm20.9 1.2h1v.6h-11.1v-5.5c-.6.6-1.3 1-1.9 1.4l-.5-.6c.8-.4 1.5-1 2.2-1.7.7-.7 1.3-1.3 1.8-2l.7.3-.1.1-1.2 1.5h4.1c-.1-.2-.3-.5-.5-.8-.2-.3-.4-.5-.6-.7l.6-.4c.4.4.8 1 1.2 1.6l-.4.3h5.4v.6H244v1.4h4.6v.6H244v1.4h4.6v.6H244v1.4h4.5zm0 1.7v4.6h-.8v-.8h-8.5v.8h-.8v-4.6h10.1zm-9.3 3.2h8.5v-2.6h-8.5v2.6zm0-10.2v1.4h4.1v-1.4h-4.1zm4.1 3.3v-1.4h-4.1v1.4h4.1zm-4.1.5v1.4h4.1v-1.4h-4.1zm16.7-.2v7.9h-.8v-.6c0-.8 0-3 .1-6.6-.3.3-.6.7-1 1-.4.3-.7.6-.9.8-.2-.4-.4-.6-.4-.7.3-.2.8-.6 1.2-1 .5-.5 1-1 1.5-1.6.5-.6.9-1.2 1.1-1.8l.6.4-.1.1c-.2.7-.6 1.4-1.3 2.1zm1.4-5.7c-.2.3-.5.7-.9 1.2s-.9.9-1.4 1.4c-.5.5-1 .8-1.4 1.1-.1-.1-.2-.4-.4-.6.3-.2.7-.5 1.2-.8s.9-.8 1.4-1.3c.5-.5.8-1 1.1-1.4l.6.4h-.2zm10.3 13.1c-.1.2-.3.5-.4.7-2-.4-3.7-1.1-5-2-.7.5-1.5.9-2.3 1.2-.8.3-1.7.6-2.7.8 0-.1-.1-.2-.2-.3-.1-.1-.2-.3-.2-.4 1.8-.3 3.4-.9 4.8-1.8-.4-.3-.7-.6-1.1-1s-.7-.8-.9-1.2c-.4.4-.8.8-1.3 1.1s-.9.6-1.3.9c-.1-.2-.3-.4-.5-.6.6-.3 1.1-.7 1.7-1.2.6-.5 1.1-1 1.5-1.5.4-.5.7-.9.9-1.3-.7.1-1.4.1-2 .1l-.8.1-.1-.7c.1 0 .4-.1.6-.2.3-.1.6-.3 1-.6.4-.2.9-.6 1.4-1 .5-.4 1-.8 1.4-1.1-1.1.1-2.1.2-3 .3-.4 0-.7.1-.9.1l-.2-.7c.1 0 .3-.1.5-.2s.6-.4 1-.8.8-.7 1.2-1.2c.4-.4.6-.8.8-1.1l.7.4-.1.1c-.9 1.2-1.8 2-2.7 2.7 1.5-.1 2.6-.2 3.4-.3l.9-.9c.3-.3.5-.6.6-.8l.7.4-.2.2c-.4.5-1 1.1-1.7 1.8s-1.4 1.2-2.1 1.7c-.7.5-1.3.9-1.8 1.2.8 0 1.7-.1 2.8-.2 1.1-.1 2.2-.2 3.1-.3-.3-.4-.5-.7-.7-.9s-.3-.4-.4-.4l.6-.4c.3.3.7.7 1.1 1.3s.8 1.2 1.2 1.7l-.6.4c0-.1-.1-.2-.2-.4s-.3-.4-.4-.7l-4.2.4c-.2.4-.6.9-1 1.5h4.2l.1-.1c.4.3.6.4.6.5h-.1c-.7 1.1-1.5 2.1-2.5 2.9 1.3.8 2.8 1.4 4.8 1.8zm-7.4-4.5c.2.4.6.8 1 1.2l1.1 1.1c.4-.3.8-.7 1.2-1 .4-.4.7-.8 1-1.2h-4.3zm15.4-8.1V278c0 .4-.1.6-.4.8-.3.2-.9.3-1.7.3-.1-.3-.3-.6-.4-.9.3 0 .6.1.9.1s.5 0 .6-.1c.2 0 .2-.2.2-.3v-3.8H272c-.1 1.1-.3 2.2-.6 3.1-.3.9-.6 1.6-1 2.1l-.6-.6c.5-.7.9-1.6 1.2-2.8.3-1.2.4-2.6.4-4.2V266h4.2zm-3.6 7.3h2.8v-3H272v1.4c.1.6.1 1.2 0 1.6zm2.8-6.6H272v2.9h2.8v-2.9zm6.7 9.4c.4.5.8.9 1.2 1.3s1 .7 1.5 1l-.4.7c-1.1-.6-2-1.4-2.8-2.3-.7.9-1.5 1.6-2.4 2.1l-.5-.7c.5-.2.9-.5 1.3-.9s.8-.7 1.1-1.2c-.3-.4-.5-.8-.7-1.3-.2-.4-.4-.9-.6-1.4s-.3-1.1-.4-1.7h-1v7.4h-.8v-13.2h6.2v.3c0 .7 0 1.3-.1 1.6s-.1.7-.2.9c-.1.3-.4.5-.7.7-.3.1-.8.2-1.5.2-.1-.2-.2-.5-.4-.9.2.1.5.1.8.1.6 0 .9-.2 1.1-.5.1-.2.1-.4.2-.7 0-.3 0-.6.1-1H278v4.3h4.6l.1-.1c.2.1.4.3.6.5h-.1c-.1.9-.3 1.7-.6 2.5-.4.9-.7 1.6-1.1 2.3zm-1.9-4.4c.3 1.4.7 2.7 1.4 3.8.6-1.1 1.1-2.3 1.3-3.8h-2.7zm13.8-.7-.1.1c-.2.6-.5 1.1-.8 1.7-.3.6-.7 1-1 1.4-.2-.1-.4-.3-.6-.4.3-.3.6-.6.9-1.1.3-.5.6-.9.7-1.3h-1.9v6.7c0 .2 0 .4-.1.5s-.2.3-.4.4-.5.2-.8.2c-.3 0-.8.1-1.3.1l-.4-.9h1.2c.3 0 .6 0 .8-.1.2-.1.3-.2.3-.4v-4.5c0-.6 0-1.1.1-1.5-.1.2-.2.6-.4 1-.1.4-.3.8-.6 1.3-.2.5-.5 1-.8 1.5-.3.5-.7 1-1 1.4l-.1-.1-.1-.1-.2-.2-.2-.2c.4-.4.7-.9 1.2-1.5s.8-1.3 1-1.9.5-1.2.7-1.6h-2.6v-.7h5.9l.1-.1c.1.1.2.2.4.3 0-.1 0 0 .1 0zm-1.6-4.4h-4.7v-.7h5.1l.1-.1c.2.2.5.4.7.6l-.2.1c-.3.4-.6.8-1 1.3s-.8.9-1.2 1.3c.4.3.9.6 1.3.9l-.4.6c-.4-.4-1-.7-1.7-1.1-.7-.4-1.4-.7-2-1l.4-.5c.5.2 1 .5 1.7.8.3-.2.6-.6.9-1 .4-.5.7-.9 1-1.2zm8.7 7.3v.3c0 1.1 0 1.9-.1 2.5-.1.6-.2 1-.3 1.3-.2.3-.5.6-.9.8s-1.1.3-2 .3c0-.1-.1-.4-.4-.9.3.1.6.1.9.1.9 0 1.4-.2 1.6-.6.1-.2.2-.6.2-1s.1-1.1.1-2H297c-.1.5-.3 1.1-.6 1.5s-.6.9-.9 1.3c-.4.4-.8.7-1.3 1-.5.3-1 .5-1.6.7l-.5-.6c.6-.2 1-.4 1.4-.6.4-.2.8-.5 1.1-.8.3-.3.6-.6.9-1.1.3-.4.5-.9.7-1.5H293v-.7h3.3c0-.2.1-.4.1-.7v-1h.8v.9c0 .3 0 .5-.1.7h3.4zm-3-3.4c.9.7 2.1 1.2 3.5 1.5l-.3.8c-1.5-.4-2.7-1-3.7-1.8-.5.4-1 .7-1.7 1-.6.3-1.3.5-2 .7-.1-.2-.2-.4-.4-.7 1.4-.3 2.6-.8 3.5-1.6-.2-.2-.4-.4-.6-.7-.2-.3-.5-.6-.7-.9-.2-.3-.3-.6-.4-.8-.4.5-.7.9-1.1 1.1-.1-.2-.3-.3-.6-.5.3-.2.7-.6 1-1 .3-.4.6-.8.8-1.3.2-.5.4-.9.6-1.4l.8.1-.1.1c-.1.2-.1.4-.3.7s-.2.5-.3.7h5.1v.7h-1.5c-.2 1.4-.8 2.4-1.6 3.3zm-2.3-3.1c.4 1 1 1.9 1.8 2.7.7-.7 1.2-1.6 1.5-2.7h-3.3zM157.6 123h-23.5v10c0 4-.4 7.6-1.1 10.8-.8 3.2-1.8 5.6-3.1 7.2l-1.5-1.3c1.2-1.5 2.1-3.7 2.8-6.7.7-3 1.1-6.3 1.1-10.1v-11.5h27.8v1.8c-.5-.1-1.4-.2-2.5-.2zm-15.2 19.6-.3.3c-.3.6-.8 1.3-1.4 2.2-.6.8-1.4 1.7-2.3 2.6-.9.9-1.8 1.6-2.6 2.2-.7-.6-1.2-1-1.4-1.3 1.2-.7 2.3-1.7 3.5-2.9s2.1-2.5 2.8-3.9c.4.2 1 .5 1.7.8zm6.8-3.2v7.9l.1 1.8c0 .5-.1.9-.3 1.2-.2.3-.5.6-1 .8-.5.2-1.1.4-2 .5-.8.1-1.9.1-3.1.1l-1-1.9c.7.1 1.7.2 2.8.2.8 0 1.4-.1 1.9-.2.5-.2.7-.5.7-1v-9.3h-8.7c0-.4.1-.8.1-1v-9.7c0-.3 0-.6-.1-1h7.2c.8-1.6 1.3-3 1.7-4.2l1.9.6-.2.4c-.3 1-.8 2.1-1.4 3.3h9.4v11.7h-8zm6.2-10.3h-15v3.5h15v-3.5zm-15 5v3.7h15v-3.7h-15zm14.9 7.6c.8.7 1.7 1.7 2.9 2.9 1.1 1.2 2.3 2.5 3.4 4l-1.5 1.2c-.8-1.2-1.8-2.4-2.9-3.6-1.1-1.2-2.2-2.4-3.4-3.5l1.5-1zm41.9-17.3h-24.9v9.3c0 3.8-.3 7.2-.9 10.2-.6 3-1.4 5.3-2.5 6.9-.6-.6-1.1-1-1.5-1.2 1-1.5 1.7-3.6 2.3-6.4.6-2.8.8-6 .8-9.6v-10.1l-.1-.6h14.1c-.4-.8-1-1.8-1.7-2.8l1.5-.7c.4.5.8 1.1 1.1 1.7.4.6.7 1.2 1 1.8h13.2v1.7c-.4-.2-1.3-.2-2.4-.2zm-11.2 9.1v15.2c0 .5-.2.9-.5 1.3-.3.3-.9.5-1.5.6-.7.1-1.4.2-2.2.2l-.8-1.7c.7.1 1.3.1 1.8.1s.9-.1 1.2-.2c.3-.1.5-.3.5-.7v-13.5h-8.6v16.5h-1.6c0-.2.1-.6.1-1.2V134l-.1-.5h5.3v-6.6l-.1-.9c.8 0 1.3 0 1.7.1 0 .2-.1.5-.1.9v6.6h4.9zm-9.6-1.2c-.5-1.4-1.1-2.9-1.8-4.6l1.3-.4c.3.6.6 1.3.9 2.2.3.9.6 1.6.8 2.4l-1.2.4zm2.3 12.9v1.7h-1.2v-9.3h5.2v7.7h-4zm2.8-6.4h-2.7v5.3h2.7v-5.3zm1.2-6.8c.4-.6.8-1.3 1.2-2.3.4-1 .8-1.8 1.1-2.7l1.4.5-.2.3c-.2.7-.6 1.5-1 2.4s-.8 1.7-1.2 2.4l-1.3-.6zm11.6 12.4c1.4 2.4 3.4 4.2 5.8 5.5-.2.4-.4.9-.7 1.5-.9-.5-1.7-1.1-2.5-1.7-.8-.7-1.5-1.4-2.1-2.1s-1-1.3-1.4-1.9c-.7 1.2-1.6 2.2-2.6 3.2-1 .9-2.1 1.8-3.3 2.5l-.8-1.5c1.4-.8 2.5-1.6 3.5-2.5.9-.9 1.7-1.9 2.3-3.1-1.3-2.4-2.2-5.5-2.8-9.1-.6 1.1-1.2 2-1.8 2.7l-1-1.4c.9-.9 1.7-2.4 2.6-4.4.9-2.1 1.5-4.2 1.9-6.4l1.6.3-.1.3c-.3 1.5-.8 3.2-1.4 4.9h8.1v1.6h-2.3c-.4 4.5-1.4 8.4-3 11.6zm-3.5-11.4c.5 3.9 1.3 7.2 2.6 9.8 1.3-2.7 2.1-6.1 2.4-10h-4.9l-.1.2zm17.4-7h11.1v1.6h-12.7V126h1.6zm9.9 14.9v10.7h-1.6v-2h-6.9v2H208c0-.4.1-.7.1-1v-8.7c0-.2 0-.6-.1-1h10.1zm-1.8-8.3h-7.9V131h9.2v1.5l-1.3.1zm-7.8 4.8v-1.5h9.2v1.5h-9.2zm1.2 10.8h6.9v-5.8h-6.9v5.8zm5.5-23.8-1.5.9c-.9-1.8-1.9-3.4-2.8-4.7l1.4-.8c.4.6.9 1.3 1.5 2.1.4.9.9 1.7 1.4 2.5zm4.6 23.2c.6-.8 1.1-2 1.7-3.5.6-1.6 1-3 1.1-4.4l1.5.7-.1.2c-.3 1.6-.7 3.2-1.3 4.7-.5 1.5-1.1 2.7-1.6 3.5l-1.3-1.2zm1.1-13.3c.6-.2 1.2-.5 1.9-1 .7-.4 1.4-1 2.1-1.7s1.3-1.5 1.8-2.3c-1.5-.9-3.1-1.6-4.9-2.3.2-.4.5-.8.8-1.3 1.7.7 3.3 1.4 4.8 2.2.3-.6.5-1.2.7-1.9.2-.7.3-1.3.4-1.9.1-.6.1-1.1.1-1.5h-7.2V121h16.4v.6c0 3.1-.1 5.4-.2 7-.1 1.6-.3 2.7-.6 3.5-.3.9-.9 1.5-1.8 1.8-.9.4-2 .5-3.3.5-.1-.2-.2-.5-.3-.9-.2-.4-.3-.8-.5-1.1.2.1.6.1 1 .2.4 0 .7.1 1 .1.6 0 1.1-.1 1.5-.4.4-.3.7-.6.9-1.1.1-.4.3-.9.3-1.4.1-.6.1-1.3.2-2.4 0-1 .1-2.7.1-5h-5.9c-.1 2.8-.9 5.4-2.4 7.8-1.5 2.3-3.4 4-5.8 5.1l-1.1-1zm11.6 14.6c.3-.4.5-.9.6-1.5s.2-1.7.2-3.2c.1 0 .3.2.5.3.3.2.6.4 1.1.7 0 1.1-.1 2.1-.2 2.8s-.4 1.4-.7 1.8c-.3.5-.8.8-1.4 1.1-.6.2-1.4.3-2.3.3-.7 0-1.3 0-1.9-.1-.6-.1-1.1-.2-1.5-.4-.6-.3-.9-1.2-.9-2.6v-9.9l1.8.1v9.9c0 .7.3 1.1.9 1.2.3.1.9.1 1.9.1.5 0 .9-.1 1.3-.2s.3-.1.6-.4zm-3.8-14.1c.6.5 1.3 1.2 2.1 2 .7.8 1.4 1.6 1.9 2.4l-1.2 1.2c-.4-.7-1-1.5-1.7-2.4-.8-.9-1.5-1.6-2.1-2.1l1-1.1zm7.5 4.3c.6.9 1.2 2.1 1.8 3.6.6 1.5 1.2 3 1.6 4.4l-1.5.9c-.2-.6-.4-1.4-.7-2.4-.3-.9-.7-2-1.2-3.1s-.9-2-1.4-2.7l1.4-.7zm19.1-11.5h-9.8V126h11.3v1.6h-1.5zm.6 13.2v10.5h-1.6v-1.9h-6.2v1.9h-1.7c0-.4.1-.7.1-1v-8.5c0-.2 0-.6-.1-1h9.5zm-.5-9.8v1.5h-8.5V131h8.5zm-7.2 4.9h7.2v1.5h-8.5v-1.5h1.3zm-.1 12h6.2v-5.7h-6.2v5.7zm4.8-23.6-1.5.8c-.3-.7-.7-1.5-1.2-2.4-.5-.9-1-1.6-1.4-2.2l1.5-.8c.4.6.9 1.4 1.4 2.3.6 1 1 1.8 1.2 2.3zm14-2.9c-.4 1.2-.9 2.4-1.5 3.6-.6 1.2-1.3 2.4-2.1 3.5s-1.7 2.2-2.6 3.1c-.9.9-1.9 1.7-2.9 2.3-.3-.5-.7-.9-1-1.3.4-.2.9-.5 1.5-.9s1.2-.9 1.8-1.5c.6-.6 1.2-1.3 1.8-2-1.1-1.1-2.1-2-3.1-2.8l.9-1c.5.4 1 .8 1.6 1.3.6.5 1 .9 1.4 1.3.5-.7.9-1.5 1.4-2.4.4-.9.8-1.7 1.1-2.5h-6.5v-1.6h6.9l.3-.3c.6.4 1 .7 1.4 1l-.4.2zm3.6 27.7h7v1.7c-.5 0-1.1-.1-2-.1H260c-.9 0-1.5 0-2 .1V149h10.9c.4-.7.8-1.6 1.2-2.8.5-1.1.8-2.1 1.1-2.9l1.5.6-.2.3c-.2.6-.5 1.4-.9 2.4s-.8 1.8-1.1 2.5zm3.6-14.3v7.5H261c0-.3.1-.6.1-.9v-5.7c0-.2 0-.5-.1-.9h13.1zm-9.8 13.8-.9-2.4c-.4-.9-.7-1.6-1-2.2l1.4-.5c.8 1.7 1.4 3.2 1.8 4.5l-1.3.6zm-1.7-7.7h9.9v-4.7h-9.9v4.7zm9.1-9.2h-8.4v-1.5h8.4v1.5zm5 2c-1.9-1.4-3.7-3.4-5.3-5.8-1.6-2.5-2.7-5-3.4-7.5l1.3-.4c.1.4.3 1 .6 1.7s.5 1.3.7 1.7c1.5-1.3 2.4-2.3 2.9-3 .5.4.8.8 1.1 1.1l-.3.2c-1 1.1-2.1 2.1-3.1 3 .5 1 1.1 1.9 1.7 2.9.6-.5 1.2-1.1 1.9-1.7.7-.7 1.2-1.2 1.5-1.7l.4.4c.2.2.5.4.7.7l-.3.2c-.9 1-2 2.1-3.4 3.3.6.7 1.2 1.5 1.9 2.1.7.7 1.4 1.2 2 1.7l-.9 1.1zM98.1 169.5c2.1 1.6 4 3.2 5.6 4.9l-.9 1.5c-.8-.9-1.7-1.8-2.6-2.7-.9-.9-1.8-1.7-2.8-2.4-.8 1.4-1.7 2.8-2.8 4s-2 2.3-3 3c-.2-.5-.5-1-.8-1.5 1.1-.9 2.3-2.1 3.5-3.8 1.2-1.6 2.1-3.2 2.7-4.8l1.7.3-.2.3-.4 1.2zm.4 15.5v10.2c2.8-.8 4.4-1.2 4.9-1.4-.1.5-.1 1.1-.1 1.7-.7.2-2.2.6-4.6 1.3-2.4.6-4.2 1.1-5.5 1.4l-1.2.4-.5-1.7 1.3-.3c1.5-.3 2.8-.7 4-1V185h-3.3c-.6 0-1 0-1.4.1v-1.6h4.7v-4.9h-3.1V177h7.7v1.6h-3v4.9h4.2v1.6c-.4 0-.8-.1-1.4-.1h-2.7zm-3.4 8.2-1.2.5c-.1-.9-.4-1.8-.6-2.9-.3-1.1-.5-2-.8-2.7l1.3-.4c.7 2.4 1.1 4.2 1.3 5.5zm6.1-.4c-.2-.1-.6-.2-1.2-.4.2-.5.4-1.3.8-2.5.3-1.2.6-2.2.7-3.1l1.3.4-.1.3c-.1.6-.4 1.5-.6 2.6s-.7 2-.9 2.7zm8.8-18.1-1.4.9c-.4-1-.9-2-1.5-3.2-.6-1.2-1.2-2.2-1.7-3.1l1.5-.8c.5.8 1 1.8 1.6 3s1 2.2 1.5 3.2zm10.7 2.5v19.7c0 1.1-.5 1.8-1.5 2.1-1 .3-2.5.5-4.6.5-.1-.3-.5-.9-1-1.9 1.2.1 2.1.2 2.7.2.7 0 1.4-.1 1.8-.2.5-.2.7-.5.7-.9v-5.4h-11.2v6.9l.1 1.4h-1.9l.1-1.4v-20.3l-.1-.6h6.6v-8.5l-.1-.9c.8 0 1.4 0 1.9.1 0 .3-.1.6-.1.9v8.5h6.6zm-1.8 1.6h-11.2v4.8h11.2v-4.8zm-11.2 11h11.2v-4.9h-11.2v4.9zm12.1-21.6 1.6.7-.2.3c-.6 1.6-1.3 2.9-1.9 4.1-.6 1.1-1.1 1.9-1.3 2.3l-1.4-.8c.6-.8 1.1-1.9 1.7-3.1.6-1.2 1.1-2.3 1.5-3.5zm37.1 17h2.2v1.4h-24.9c0-.4.1-.8.1-1v-10.5l.1-1c-1.4 1.2-2.8 2.3-4.2 3.2L129 176c1.7-1 3.4-2.2 5-3.7s2.9-3 4-4.6l1.6.6-.3.3c-.9 1.2-1.8 2.3-2.8 3.3h9.3c-.3-.6-.7-1.1-1.1-1.7s-.9-1.1-1.3-1.6l1.3-.8c.9 1 1.8 2.2 2.6 3.5l-.9.6h12.2v1.4H147v3.1h10.5v1.4H147v3.1h10.5v1.4H147v3.2h9.9zm0 3.9v10.6h-1.8v-1.8H136v1.8h-1.8c0-.4.1-.8.1-1v-8.6c0-.2 0-.6-.1-1h22.7zm-20.9 7.3h19.2v-5.8H136v5.8zm.1-23.1v3.1h9.2v-3.1h-9.2zm9.1 7.4v-3.1H136v3.1h9.2zm-9.1 1.3v3.2h9.2V182h-9.2zm48 14.7h-8.8v2.1h-1.5c0-.4.1-.7.1-1V187c-.6 1.1-1.1 1.8-1.6 2.4-.1-.3-.4-.6-.8-1.2-.2 2.2-.5 4.2-1 6-.4 1.9-.9 3.4-1.5 4.7l-1.3-1.3c.5-1.3 1-3 1.4-4.9s.7-3.9.8-5.8c.1-2 .2-3.8.2-5.4v-12.2l1.1.5c1.8 0 3.6-.1 5.6-.3 2-.2 4-.5 6.1-.8l1 1.4-.8.1c-4.5.6-8.3.9-11.4 1v2.5h12v6.3h-12v1.5c0 2.1-.1 4.2-.3 6.3.3-.3.6-.8 1.1-1.5.4-.7.9-1.5 1.3-2.6.5-1.1.8-2.1 1.1-3.2l1.5.4-.1.3c-.3 1-.6 1.9-1 2.6h4c-.2-.4-.5-.9-.9-1.4-.3-.5-.6-.9-.9-1.3l1.3-.5c.7.8 1.4 1.8 2 2.7l-.9.4h4v1.4H180v2.6h3.4v1.3H180v2.5h3.4v1.3H180v2.7h4.1v1.2zm-12.4-21.5v3.6H182v-3.6h-10.3zm3.6 10v2.6h3.3v-2.6h-3.3zm3.4 6.2v-2.5h-3.3v2.5h3.3zm-3.4 1.3v2.7h3.3v-2.7h-3.3zm8.2 5.3c.6-.3 1.4-.6 2.2-1.1s1.6-1 2.4-1.7c.8-.6 1.4-1.2 1.8-1.8l1.3 1c-.8.9-1.8 1.8-3 2.7-1.2.9-2.4 1.7-3.6 2.3l-1.1-1.4zm7.9-26.7h-6.6v-1.6h15.4v1.6H193c-.4 1.5-.9 2.9-1.4 4h6.8v17h-12.1c0-.5.1-.9.1-1.2v-14.6l-.1-1.2h3.7c.5-1.3 1-2.6 1.4-4zm5.4 9.2v-3.7H188v3.7h8.8zm-8.8 1.4v3.6h8.8v-3.6H188zm0 9h8.8v-4.1H188v4.1zm7 2.6c.8.6 1.8 1.3 2.8 2.1 1.1.9 2 1.7 2.8 2.4l-1 1.3c-.7-.7-1.5-1.5-2.6-2.4s-2.1-1.7-3.1-2.5l1.1-.9zm15.7-12.8v17.1l.1 1.7h-2l.1-1.7v-28.1l-.1-.6h11.8v11.6h-9.9zm8.1-10.2h-8.1v3.6h8.1v-3.6zm-8.1 8.7h8.1v-3.7h-8.1v3.7zm17.8 5.2v9.5h-9.6v3.1h-1.8c0-.4.1-.8.1-1.1v-10.4c0-.3 0-.6-.1-1.1h11.4zm-9.6 8h7.8V186h-7.8v6.4zm18.1-21.8v24.2l.1 1.9c0 1-.5 1.7-1.4 2-.9.3-2.4.5-4.4.5-.1-.2-.2-.6-.5-1.1-.3-.5-.4-.9-.5-1 .2 0 .6.1 1.1.1.5 0 1 .1 1.4.1.7 0 1.3-.1 1.7-.2.4-.1.6-.4.6-.9v-15.6h-9.9c0-.4.1-.8.1-1v-9.5c0-.3 0-.6-.1-1H237v1.5zm-1.9-.1H227v3.6h8.1v-3.6zm-8 8.7h8.1v-3.7h-8.1v3.7zm31.3-9.5-.1 1.5v23.7l.1 2.1c0 .8-.3 1.4-1 1.8-.7.4-1.9.6-3.7.6-.3-.7-.6-1.3-.9-1.9.8.1 1.4.1 2 .1s1-.1 1.4-.2c.3-.1.5-.4.5-.8v-8.8h-6.5c-.3 2.6-.8 4.9-1.4 6.9-.6 2-1.4 3.6-2.3 4.7l-1.4-1.3c1.1-1.5 2-3.6 2.7-6.3.7-2.7 1-5.9 1-9.5v-12.7h9.6zm-8.1 16.6h6.4v-6.8h-6.2v3.1c0 1.4-.1 2.6-.2 3.7zm6.4-14.9h-6.2v6.6h6.2v-6.6zm15 21.1c.8 1 1.7 2 2.8 2.8 1 .9 2.2 1.6 3.4 2.2l-.9 1.6c-2.4-1.4-4.5-3.1-6.2-5.3-1.6 2.1-3.4 3.7-5.4 4.7l-1-1.5c1-.5 2-1.2 2.9-2 .9-.8 1.7-1.7 2.5-2.7-.6-.9-1.1-1.8-1.6-2.8-.5-1-.9-2.1-1.3-3.2s-.7-2.4-1-3.8h-2.2v14.7c0 .7 0 1.4.1 2.1h-1.9c0-.7.1-1.4.1-2.1v-27.5h14v.6c0 1.6-.1 2.9-.2 3.7-.1.8-.2 1.5-.4 1.9-.3.7-.8 1.2-1.6 1.5-.8.3-1.9.5-3.4.5-.1-.4-.4-1.1-.8-1.9.5.2 1.1.3 1.7.3 1.3 0 2.1-.4 2.4-1.1.2-.4.3-.9.3-1.6.1-.7.1-1.4.1-2.2h-10.4v9.8H274l.2-.2c.4.3.9.6 1.4 1.2l-.3.1c-.3 1.9-.8 3.8-1.4 5.5-.5 1.7-1.3 3.3-2.2 4.7zm-4.2-10c.6 3.2 1.6 6 3.2 8.5 1.4-2.4 2.4-5.2 3-8.5h-6.2zm31.8-1.4-.3.1c-.5 1.2-1.1 2.5-1.8 3.8-.8 1.3-1.5 2.3-2.2 3.1-.4-.3-.8-.6-1.3-.9.6-.6 1.2-1.4 1.9-2.5s1.2-2.1 1.7-3H293v15.1c0 .4-.1.8-.3 1.2-.2.3-.5.6-.9.8-.4.2-1.1.4-1.8.5-.8.1-1.8.1-2.9.1l-1-1.9s.4 0 1 .1 1.2.1 1.7.1c.7 0 1.4-.1 1.8-.2s.7-.5.7-1v-7.2c0-.7 0-1.7.1-3 0-1.3.1-2.4.2-3.3-.2.6-.5 1.3-.8 2.1-.3.9-.8 1.9-1.3 3s-1.2 2.3-1.9 3.5c-.7 1.2-1.5 2.2-2.3 3.1 0 0-.1-.1-.1-.2-.1-.1-.1-.2-.2-.3l-.5-.5c-.2-.2-.4-.3-.4-.4.8-.8 1.7-2 2.6-3.5.9-1.5 1.7-2.9 2.3-4.3s1.1-2.7 1.5-3.7h-5.9v-1.6h13.2l.2-.3c.2.2.5.4.8.6.2.4.4.5.5.6zm-3.6-10.1h-10.6v-1.7h11.4l.2-.3c.5.4 1 .8 1.5 1.3l-.4.2c-.6.9-1.4 1.9-2.3 3-.9 1.1-1.8 2.1-2.6 2.8 1 .6 2 1.2 3 2l-1 1.4c-1-.8-2.2-1.7-3.8-2.6-1.6-.9-3.1-1.7-4.4-2.3l.9-1.2c1.1.4 2.4 1 3.9 1.8.6-.6 1.2-1.3 2-2.1.9-.6 1.6-1.5 2.2-2.3zm19.7 16.7v.6c0 2.5-.1 4.4-.2 5.7-.1 1.3-.3 2.3-.7 3-.4.8-1.1 1.3-2.1 1.7-1 .4-2.5.6-4.4.6 0-.1-.3-.8-.8-2 .6.2 1.3.3 2.1.3 2 0 3.2-.5 3.7-1.4.3-.5.4-1.3.6-2.4.1-1 .2-2.6.2-4.6h-6.2c-.3 1.2-.8 2.4-1.3 3.4-.6 1.1-1.3 2-2.1 2.9-.8.9-1.8 1.6-2.9 2.3-1.1.7-2.3 1.2-3.6 1.6l-1.2-1.4c1.2-.4 2.3-.8 3.2-1.3.9-.5 1.7-1.1 2.5-1.7.7-.6 1.4-1.4 2.1-2.4s1.2-2.1 1.6-3.4h-7.2v-1.6h7.5c.1-.4.1-.9.2-1.5 0-.6.1-1.1.1-1.5v-.7s.6 0 1.8.1c0 .2-.1.3-.1.5 0 .4 0 .9-.1 1.6 0 .7-.1 1.2-.2 1.5h7.5zm-6.8-7.7c2.1 1.5 4.7 2.7 7.9 3.4l-.7 1.7c-3.4-.9-6.2-2.2-8.3-4-1.1.9-2.3 1.7-3.7 2.3s-3 1.2-4.6 1.6c-.2-.5-.5-.9-.8-1.5 3.2-.7 5.8-1.9 7.9-3.5-.4-.4-.9-.9-1.4-1.5s-1-1.4-1.5-2.1c-.4-.7-.8-1.4-1-1.9-.8 1.1-1.6 1.9-2.4 2.5-.3-.4-.7-.8-1.3-1.2.7-.5 1.5-1.3 2.2-2.2.7-.9 1.4-1.9 1.9-2.9s1-2 1.3-3.1l1.7.3-.2.3c-.1.4-.3.9-.6 1.6s-.5 1.2-.7 1.6h11.5v1.6h-3.3c-.8 2.7-2.1 5-3.9 7zm-5.2-7c.8 2.3 2.2 4.2 4 6 1.6-1.6 2.7-3.6 3.5-6h-7.5zm201.1 68H499v2.7h-.8v-3.3h6.3v-1.3h-5.6v-.7H511v.7h-5.7v1.3h6.3v3.3h-.8V241h-5.5v3.6h-.8V241zm6.7 8c.1.1.2.1.3.2.1.1.3.2.4.2 0 .7-.2 1.2-.4 1.6-.3.3-.6.6-1.2.7-.5.2-1.3.2-2.3.2h-2.1c-.5 0-.7-.1-.9-.2-.2-.1-.3-.3-.4-.4-.1-.2-.1-.5-.1-.8v-.6h-4v1.1h-.8v-5.8H510v4.5h-4.9v.5c0 .4.2.6.5.7.4.1 1.2.1 2.4.1 1.1 0 1.8-.1 2.4-.4.2-.1.4-.4.5-.6.3 0 .3-.4.3-1zm-7.9-7v.5h-3v-.5h3zm-2.5 1.6h2.5v.5h-3v-.5h.5zm3.7 2.4h-4v1.4h4V246zm-4 3.3h4v-1.4h-4v1.4zm8.8-2V246h-4.1v1.4h4.1zm-4.1 2h4.1v-1.4h-4.1v1.4zm4.3-7.3v.5h-3v-.5h3zm-2.6 1.6h2.5v.5h-3v-.5h.5zm20.5 5.5h1.2v.8H522v2.3h-.8v-2.3h-6.4v-.8h6.4v-1.6h-4.4V242h4.4v-1.7h-5.9v-.8h5.9v-1.7h.9v1.6h6.1v.8h-6.1v1.7h4.5v5.5H522v1.6h5.4zm-6.2-6.4h-3.6v1.7h3.6v-1.7zm-3.6 2.4v1.8h3.6v-1.8h-3.6zm8.1-.7v-1.7H522v1.7h3.7zm-3.7 2.4h3.7V245H522v1.8zm9.4 4.7c.2-.5.4-1.1.6-1.7.2-.7.3-1.2.3-1.8l.6.1c-.1.6-.2 1.2-.3 1.9-.2.7-.3 1.3-.5 1.8l-.7-.3zm.3-5c.1-.1.2-.1.3-.2.8-.9 1.7-2 2.6-3.3l-2.2.3-.5.1-.2-.6s.1 0 .1-.1c.1 0 .1-.1.1-.1.4-.6.9-1.3 1.4-2.2.5-.8.8-1.5 1.1-2.2l.8.3-.2.3c-.3.6-.7 1.3-1.1 2-.4.7-.8 1.3-1.2 1.9l2.3-.3c.5-.8.8-1.4 1.1-1.9l.7.3c-.1.1-.2.2-.3.4-.7 1.2-1.4 2.2-2.1 3.1-.7.9-1.3 1.6-1.7 2.1l3.3-.6c-.2-.5-.4-.9-.6-1.3l.6-.2c.2.4.4.8.6 1.4s.4 1.1.6 1.5l-.6.3c-.1-.4-.2-.7-.4-1.1-1.6.3-2.8.5-3.7.7l-.6.1-.2-.7zm2.2 1.6.7-.1c.1.4.2.9.3 1.5.1.6.2 1.1.2 1.6l-.7.1c0-.5-.1-1-.1-1.6s-.3-1.1-.4-1.5zm1.7-.2.6-.2c.2.4.4.9.6 1.4.2.5.4.9.5 1.3l-.7.3c-.1-.4-.3-.8-.5-1.3-.1-.7-.3-1.1-.5-1.5zm9.2 2.3h.7v.7h-6.3v1.1h-.8v-9.5c-.4.7-.8 1.3-1.2 1.7-.2-.3-.4-.6-.4-.7.4-.4.7-.9 1.1-1.6.4-.7.7-1.4 1-2.1.3-.7.5-1.3.7-1.8l.8.2-.1.1c-.2.7-.4 1.3-.6 1.7s-.3.8-.4.9h6.1v.7h-3v2.3h2.7v.7h-2.7v2.3h2.7v.7h-2.7v2.6h2.4zm-5.6-8.4v2.3h2.4v-2.3h-2.4zm2.5 5.2v-2.3h-2.4v2.3h2.4zm-2.5.7v2.6h2.4v-2.6h-2.4zm3.7-7.2-.6.3c-.2-.4-.4-.8-.6-1.3-.2-.4-.5-.8-.6-1.1l.6-.3c.2.3.4.7.7 1.1.1.5.3.9.5 1.3zm4.8 4.3c.4-.4.8-1 1.2-1.7.4-.7.9-1.6 1.3-2.5.4-1 .7-1.9.9-2.7l.7.3-.1.1c-.1.5-.3 1.1-.5 1.7-.2.6-.4 1.1-.7 1.6v10.6h-.8v-.7c0-1 0-2.3.1-4.1s.1-3.3.1-4.6c-.3.6-.6 1.1-.8 1.5-.3.4-.5.8-.7 1-.2.2-.3.4-.4.4l-.3-.9zm5.1-4.3v9.2h-.8V240h.8v.5zm9.4 6.8.5.5-.1.1c-.7.7-1.4 1.2-2.1 1.6-.6.4-1.3.7-1.9 1-.7.3-1.4.6-2.3.8-.9.2-1.9.4-2.9.6l-.3-.7c.5-.1 1-.1 1.6-.2.6-.1 1.2-.3 1.9-.4.6-.2 1.3-.4 1.9-.7s1.3-.6 2-1.1c.5-.5 1.1-.9 1.7-1.5zm-6.8-6.5c-.5.6-1 1.2-1.7 1.8l-.5-.6c.4-.3.9-.7 1.3-1.2s.8-1 1-1.5c.3-.5.5-.9.6-1.3l.7.2-.1.1c-.3.6-.5 1.1-.8 1.5h6.3v.7h-1.9c-.2.5-.5.9-.8 1.3s-.7.8-1.1 1.1c1 .6 2.3 1 3.8 1.3-.2.4-.3.7-.3.7-1.6-.3-2.9-.8-4.1-1.6-.6.4-1.2.7-1.9 1-.7.3-1.4.5-2.2.7-.1-.1-.2-.4-.4-.7.3-.1.7-.1 1.1-.3.4-.1.8-.3 1.3-.4.5-.2.9-.4 1.4-.7-.4-.3-.8-.6-1.1-1-.1-.3-.4-.7-.6-1.1zm3.8 4.4c-.7.6-1.5 1-2.3 1.3-.8.3-1.8.6-2.8.8l-.3-.6c2.1-.3 3.7-1 5-2l.4.5zm1.6 1.2c-.3.3-.7.6-1.2.9-.5.3-1 .6-1.6.9-.6.3-1.2.6-1.9.8s-1.3.4-2 .5l-.3-.7c.6-.1 1.3-.2 1.9-.4.6-.2 1.2-.4 1.8-.7.6-.3 1.1-.6 1.6-.9.5-.3 1-.7 1.4-1.1l.3.7zm-2.9-3.9c.4-.3.7-.6 1-1 .3-.3.5-.7.7-1.1H556c.2.4.5.7.8 1.1.4.4.7.8 1.1 1zm12.8-3.6V251c0 .4-.1.6-.4.8-.3.2-.9.3-1.7.3-.1-.3-.3-.6-.4-.9.3 0 .6.1.9.1s.5 0 .6-.1c.2 0 .2-.2.2-.3v-3.8H567c-.1 1.1-.3 2.2-.6 3.1-.3.9-.6 1.6-1 2.1l-.6-.6c.5-.7.9-1.6 1.2-2.8.3-1.2.4-2.6.4-4.2V239h4.3zm-3.6 7.3h2.8v-3h-2.8v1.4c.1.6 0 1.2 0 1.6zm2.8-6.6h-2.8v2.9h2.8v-2.9zm6.7 9.4c.4.5.8.9 1.2 1.3s1 .7 1.5 1l-.4.7c-1.1-.6-2-1.4-2.8-2.3-.7.9-1.5 1.6-2.4 2.1l-.5-.7c.5-.2.9-.5 1.3-.9s.8-.7 1.1-1.2c-.3-.4-.5-.8-.7-1.3-.2-.4-.4-.9-.6-1.4s-.3-1.1-.4-1.7h-1v7.4h-.8v-13.2h6.2v.3c0 .7 0 1.3-.1 1.6s-.1.7-.2.9c-.1.3-.4.5-.7.7-.3.1-.8.2-1.5.2-.1-.2-.2-.5-.4-.9.2.1.5.1.8.1.6 0 .9-.2 1.1-.5.1-.2.1-.4.2-.7 0-.3 0-.6.1-1H573v4.3h4.6l.1-.1c.2.1.4.3.6.5h-.1c-.1.9-.3 1.7-.6 2.5-.3.9-.6 1.6-1 2.3zm-1.9-4.4c.3 1.4.7 2.7 1.4 3.8.6-1.1 1.1-2.3 1.3-3.8h-2.7zm13.8-.7-.1.1c-.2.6-.5 1.1-.8 1.7-.3.6-.7 1-1 1.4-.2-.1-.4-.3-.6-.4.3-.3.6-.6.9-1.1.3-.5.6-.9.7-1.3h-1.9v6.7c0 .2 0 .4-.1.5s-.2.3-.4.4-.5.2-.8.2c-.3 0-.8.1-1.3.1l-.4-.9h1.2c.3 0 .6 0 .8-.1.2-.1.3-.2.3-.4v-4.5c0-.6 0-1.1.1-1.5-.1.2-.2.6-.4 1-.1.4-.3.8-.6 1.3-.2.5-.5 1-.8 1.5-.3.5-.7 1-1 1.4l-.1-.1-.1-.1-.2-.2-.2-.2c.4-.4.7-.9 1.2-1.5s.8-1.3 1-1.9.5-1.2.7-1.6H582v-.7h5.9l.1-.1c.1.1.2.2.4.3-.1-.1 0 0 .1 0zm-1.7-4.4h-4.7v-.7h5.1l.1-.1c.2.2.5.4.7.6l-.2.1c-.3.4-.6.8-1 1.3s-.8.9-1.2 1.3c.4.3.9.6 1.3.9l-.4.6c-.4-.4-1-.7-1.7-1.1-.7-.4-1.4-.7-2-1l.4-.5c.5.2 1 .5 1.7.8.3-.2.6-.6.9-1 .5-.5.8-.9 1-1.2zm8.8 7.3v.3c0 1.1 0 1.9-.1 2.5-.1.6-.2 1-.3 1.3-.2.3-.5.6-.9.8s-1.1.3-2 .3c0-.1-.1-.4-.4-.9.3.1.6.1.9.1.9 0 1.4-.2 1.6-.6.1-.2.2-.6.2-1s.1-1.1.1-2H592c-.1.5-.3 1.1-.6 1.5s-.6.9-.9 1.3c-.4.4-.8.7-1.3 1-.5.3-1 .5-1.6.7l-.5-.6c.6-.2 1-.4 1.4-.6.4-.2.8-.5 1.1-.8.3-.3.6-.6.9-1.1.3-.4.5-.9.7-1.5H588v-.7h3.3c0-.2.1-.4.1-.7v-1h.8v.9c0 .3 0 .5-.1.7h3.5zm-3-3.4c.9.7 2.1 1.2 3.5 1.5l-.3.8c-1.5-.4-2.7-1-3.7-1.8-.5.4-1 .7-1.7 1-.6.3-1.3.5-2 .7-.1-.2-.2-.4-.4-.7 1.4-.3 2.6-.8 3.5-1.6-.2-.2-.4-.4-.6-.7-.2-.3-.5-.6-.7-.9-.2-.3-.3-.6-.4-.8-.4.5-.7.9-1.1 1.1-.1-.2-.3-.3-.6-.5.3-.2.7-.6 1-1 .3-.4.6-.8.8-1.3.2-.5.4-.9.6-1.4l.8.1-.1.1c-.1.2-.1.4-.3.7s-.2.5-.3.7h5.1v.7h-1.5c-.2 1.4-.8 2.4-1.6 3.3zm-2.3-3.1c.4 1 1 1.9 1.8 2.7.7-.7 1.2-1.6 1.5-2.7h-3.3zm16.7 10.8c1 0 2 0 3.2-.1 1.2-.1 2.1-.2 2.8-.3-.1.2-.2.5-.2.8-.6.1-1.5.2-2.6.2-1.2.1-2.2.1-3.1.1-1.5 0-2.7-.2-3.7-.6-1-.4-1.7-1-2.1-1.9-.5 1.1-1.2 1.9-2 2.5-.1-.2-.3-.4-.5-.6.3-.2.6-.4.8-.7.2-.2.5-.5.7-.8.2-.3.4-.7.6-1.2.2-.5.4-1.1.5-1.8h-1.7l-.1-.7c.2-.1.3-.2.4-.4.2-.3.5-.7.8-1.1.3-.4.5-.8.6-1.1H599v-.7h2.7l.1-.1c.2.1.4.3.6.5l-.2.1c-.5 1-1.1 1.9-1.7 2.7h1.2l.1-.1.6.5-.1.1c-.1.7-.3 1.4-.5 2 .1.3.2.5.4.8.2.3.4.5.7.7s.7.4 1.1.6 1 .3 1.6.4c.2.2.8.2 1.4.2zm-5.8-9.9c-.2-.4-.5-.8-.9-1.2-.4-.5-.7-.8-1-1.1l.5-.4c.3.2.6.6 1 1s.7.9 1 1.3l-.6.4zm2.5-2.1v-.6l.5.2c1.3 0 2.6-.1 4-.2s2.5-.2 3.4-.4l.4.7h-.3c-2 .3-4.4.5-7.3.5v1h7.2v2.8h-7.2c0 1-.1 1.9-.3 2.7s-.3 1.5-.5 1.9c-.2.4-.3.8-.5 1s-.3.4-.4.6l-.6-.6c.3-.4.5-.8.7-1.4s.4-1.2.5-2 .2-1.5.2-2.2v-4zm7.2 1.9h-6.4v1.6h6.4V241zm1.1 3.3v4.9c0 .3-.1.5-.3.6-.2.1-.6.2-1 .2-.1-.3-.2-.5-.3-.8h.5c.2 0 .3 0 .4-.1s.1-.1.1-.2v-1.7h-1.6v2.5h-.8v-2.5h-1.5v2.5h-.7v-2.5h-1.6v2.7h-.7v-5.8h7.5zm-6.7 2.4h1.6V245h-1.6v1.7zm2.2 0h1.5V245h-1.5v1.7zm2.2 0h1.6V245h-1.6v1.7zm18.3-6.2h1.2v.8h-7.8c-.3.5-.6 1.1-.9 1.6-.4.6-.7 1.1-1.1 1.5h3.4v-2h.8v1.9h4.4v5.1c0 .3-.1.5-.2.6-.1.2-.4.3-.8.4s-1 .1-1.8.1l-.4-.9h1.3c.4 0 .6 0 .9-.1.2-.1.3-.2.3-.4v-4.2h-3.6v7h-.9v-7h-3.2v5.8h-.8V245c-.4.4-.9.9-1.4 1.3-.5.4-1 .8-1.5 1l-.4-.7c.7-.4 1.4-.9 2.1-1.5.6-.6 1.2-1.2 1.7-1.9s.9-1.4 1.3-2.1h-4.8v-.8h5.1c.4-.9.7-1.7.9-2.5l.8.1v.1c-.2.8-.5 1.5-.8 2.3h6.2zm4.1 3c.5-.2 1.1-.4 1.6-.6.6-.3 1.1-.6 1.6-.9s1.1-.8 1.6-1.3 1-1 1.4-1.5h-3.5v-.8h4.6c.9 1.2 2 2.3 3.3 3.2s2.5 1.5 3.7 1.9c-.1.2-.2.4-.4.7-1.3-.4-2.5-1-3.7-1.9-1.2-.9-2.3-1.9-3.2-3.1-.3.4-.7.9-1.2 1.4s-1 1-1.6 1.4-1.2.9-1.9 1.2c-.7.4-1.4.7-2.2.9.2 0 .1-.3-.1-.6zm7.5 7.4h6.6v.8h-13.9v-.8h6.4v-3.1h-4.6v-.8h4.6v-2.7h-3.8v-.8h8.6v.8h-4v2.7h4.8v.8h-4.8v3.1zm18.7-11.3c.5.4 1 .9 1.6 1.4l1.7 1.7c.5.6.9 1.1 1.3 1.5l-.6.6c-.1-.1-.2-.3-.4-.6s-.6-.7-1-1.2c-.4 0-2 .1-4.9.3s-4.6.3-5 .3h-1c-.1-.5-.2-.8-.2-.8.2 0 .4-.1.7-.3.3-.2.7-.5 1.2-.9s1-.9 1.5-1.5.9-1.1 1.2-1.5c.3-.4.5-.7.7-1 .2.1.5.2.9.4l-.2.2c-1 1.2-1.8 2.2-2.5 2.9-.7.7-1.3 1.3-1.9 1.7h.6c.3 0 1.5-.1 3.4-.2s3.5-.2 4.8-.3l-.7-.7c-.3-.3-.6-.6-1-.9-.3-.3-.6-.6-.8-.7.2-.1.4-.2.6-.4zm2.6 6v6.5h-.9V251h-7.9v1.1h-.8v-6.5h9.6zm-8.8 4.8h7.9v-4h-7.9v4zm19.9-3.5c.3-.2.5-.4.6-.7.2-.3.3-.7.3-1.2h-.8v-1.4h1.4v1c0 .4-.1.8-.2 1.2-.1.4-.3.7-.5.9s-.4.4-.7.6l-.1-.4zm19 4.2c1 0 2 0 3.2-.1 1.2-.1 2.1-.2 2.8-.3l-.2.8c-.6.1-1.5.2-2.6.2-1.2.1-2.2.1-3.1.1-1.5 0-2.7-.2-3.7-.6-1-.4-1.7-1-2.1-1.9-.5 1.1-1.2 1.9-2 2.5-.1-.2-.3-.4-.5-.6.3-.2.6-.4.8-.7.2-.2.5-.5.7-.8.2-.3.4-.7.6-1.2.2-.5.4-1.1.5-1.8h-1.7l-.1-.7c.2-.1.3-.2.4-.4.2-.3.5-.7.8-1.1.3-.4.5-.8.6-1.1H683v-.7h2.7l.1-.1c.2.1.4.3.6.5l-.2.1c-.5 1-1.1 1.9-1.7 2.7h1.2l.1-.1.6.5-.1.1c-.1.7-.3 1.4-.5 2 .1.3.2.5.4.8.2.3.4.5.7.7s.7.4 1.1.6 1 .3 1.6.4c.2.2.8.2 1.4.2zm-5.8-9.9c-.2-.4-.5-.8-.9-1.2-.4-.5-.7-.8-1-1.1l.5-.4c.3.2.6.6 1 1s.7.9 1 1.3l-.6.4zm9-1.9h-6.9v-.7h7.5l.1-.1c.2.1.4.3.7.5l-.2.1c-.3.3-.7.7-1.2 1s-1 .7-1.4.9l1 .5-.1.1h2v7.1c0 .3-.1.6-.4.7s-.8.2-1.6.2l-.3-.8h.8c.2 0 .4 0 .6-.1.1 0 .2-.2.2-.3V247h-2.8v2.8h-.8V247h-2.7v2.9h-.7v-8.3h4.6c-.6-.3-1.2-.5-1.8-.7-.6-.2-1.2-.4-1.7-.6l.4-.5c.6.2 1.4.5 2.4.9.4-.2.7-.4 1.2-.6.4-.3.8-.6 1.1-.8zm-2.8 2.9h-2.7v1.7h2.7v-1.7zm-2.7 4.2h2.7v-1.8h-2.7v1.8zm6.2-2.4v-1.7h-2.8v1.7h2.8zm-2.8 2.4h2.8v-1.8h-2.8v1.8zm15.6 4.7c.9 0 1.9 0 3.1-.1s2-.2 2.7-.3c0 0 0 .1-.1.4-.1.2-.1.4-.1.5-.6.1-1.4.2-2.6.2-1.1.1-2.1.1-3 .1-.7 0-1.4-.1-2-.2s-1.2-.3-1.7-.5-.9-.5-1.3-.8-.6-.7-.8-1.1c-.5 1-1.1 1.9-2 2.6-.2-.3-.4-.5-.5-.6.3-.2.6-.5.9-.8.3-.3.6-.7.8-1.2s.4-.9.5-1.4c.1-.5.2-.9.3-1.4h-1.8l-.1-.6c.1 0 .1-.1.2-.2s.2-.1.2-.2c.2-.3.5-.7.8-1.2.3-.5.5-1 .7-1.4h-2.5v-.7h2.7l.1-.1.6.5-.1.1c-.2.5-.5 1.1-.8 1.6-.3.6-.6 1-.9 1.4h1.2l.1-.1.6.5-.1.1c-.1.8-.3 1.5-.5 2.2 0 .2.1.4.3.6.1.2.3.4.6.7.2.2.6.4.9.6.4.2.8.3 1.2.4.4.1.9.2 1.4.2.3.2.7.2 1 .2zm-5.1-10.4-.6.5c-.2-.4-.5-.8-.9-1.2-.4-.5-.7-.8-1-1.2l.5-.4 1 1c.4.5.7.9 1 1.3zm1.7 9v-6.5h1.1v-4.5h6.4v4.5h1v5.4c0 .4-.2.6-.5.8-.3.2-.9.2-1.8.2-.1-.1-.2-.4-.4-.8.2 0 .5.1 1 .1h.5c.1 0 .3-.1.3-.1.1-.1.1-.2.1-.3v-4.7h-7v5.8h-.7zm1.8-10.4v3.9h2.2v-2.5h2.8v-1.5h-5zm.6 8.9V245h3.5v3.2h-3.5zm2.8-2.5h-2.1v2h2.1v-2zm-.5-2.5h2.1v-1.8H709v1.8zm7.8-2.4h5v.7h-5.7v-.7h.7zm4.4 6.6v4.7h-.7v-.9h-3.1v.9h-.7v-4.7h4.5zm-.8-3.7h-3.5v-.7h4.1v.7h-.6zm-3.5 2.2v-.7h4.1v.7h-4.1zm.5 4.7h3.1V248h-3.1v2.6zm2.5-10.6-.7.4c-.4-.8-.8-1.5-1.3-2.1l.6-.4c.2.2.4.6.6.9.3.5.6.9.8 1.2zm2 10.4c.2-.4.5-.9.8-1.6s.4-1.3.5-1.9l.7.3v.1c-.1.7-.3 1.4-.6 2.1-.2.7-.5 1.2-.7 1.6l-.7-.6zm.5-6c.3-.1.5-.2.8-.4.3-.2.6-.5.9-.8.3-.3.6-.6.8-1-.7-.4-1.4-.7-2.2-1 .1-.2.2-.4.4-.6.8.3 1.5.6 2.1 1 .1-.3.2-.5.3-.8.1-.3.1-.6.2-.8 0-.3.1-.5.1-.7h-3.2v-.7h7.3v.3c0 1.4 0 2.4-.1 3.1 0 .7-.1 1.2-.2 1.6-.1.4-.4.7-.8.8-.4.2-.9.2-1.5.2 0-.1-.1-.2-.2-.4s-.1-.3-.2-.5c.1 0 .2.1.4.1h.4c.3 0 .5-.1.7-.2s.3-.3.4-.5c.1-.2.1-.4.1-.6 0-.2.1-.6.1-1v-2.2h-2.6c0 1.3-.4 2.4-1.1 3.4s-1.5 1.8-2.6 2.3l-.3-.6zm5.2 6.6c.1-.2.2-.4.2-.7 0-.3.1-.8.1-1.4 0 0 .1.1.2.1s.3.2.5.3c0 .5 0 .9-.1 1.2-.1.3-.2.6-.3.8-.2.2-.4.4-.6.5-.3.1-.6.2-1 .2h-.8c-.3 0-.5-.1-.7-.2-.3-.1-.4-.5-.4-1.1v-4.4l.8.1v4.4c0 .3.1.5.4.5h.8c.2 0 .4 0 .6-.1 0 0 .1-.1.3-.2zm-1.7-6.3c.3.2.6.5.9.9.3.4.6.7.8 1l-.5.5c-.2-.3-.4-.7-.8-1-.3-.4-.6-.7-.9-.9l.5-.5zm3.3 1.9c.3.4.5.9.8 1.6s.5 1.3.7 1.9l-.7.4c-.1-.3-.2-.6-.3-1-.1-.4-.3-.9-.5-1.4-.2-.5-.4-.9-.6-1.2l.6-.3zm8.1-5.1H733v-.7h5v.7h-.7zm.3 5.8v4.6h-.7v-.9h-2.8v.9h-.7v-4.6h4.2zm-.3-4.3v.7h-3.8v-.7h3.8zm-3.2 2.2h3.2v.7h-3.8v-.7h.6zm0 5.3h2.8V248h-2.8v2.5zm2.1-10.5-.7.4c-.1-.3-.3-.7-.5-1.1s-.4-.7-.6-1l.7-.4c.2.3.4.6.6 1 .3.5.4.9.5 1.1zm6.2-1.3c-.2.5-.4 1.1-.7 1.6-.3.5-.6 1.1-.9 1.6-.4.5-.7 1-1.2 1.4s-.8.8-1.3 1c-.1-.2-.3-.4-.5-.6.2-.1.4-.2.7-.4s.5-.4.8-.7c.3-.3.5-.6.8-.9-.5-.5-1-.9-1.4-1.2l.4-.4c.2.2.5.4.7.6.2.2.5.4.6.6.2-.3.4-.7.6-1.1.2-.4.4-.8.5-1.1h-2.9v-.7h3.1l.1-.1c.4.1.6.2.6.4zm1.7 12.3h3.1v.7h-8.7v-.7h4.9c.2-.3.3-.7.5-1.2s.4-.9.5-1.3l.7.3-.1.1c-.1.3-.2.6-.4 1.1s-.4.7-.5 1zm1.6-6.3v3.3h-5.8v-3.3h5.8zm-4.4 6.1c-.1-.3-.3-.7-.4-1.1-.2-.4-.3-.7-.4-1l.6-.2c.3.7.6 1.4.8 2l-.6.3zm-.8-3.4h4.4v-2.1h-4.4v2.1zm4.1-4.1h-3.8v-.7h3.8v.7zm2.2.9c-.9-.6-1.6-1.5-2.4-2.6-.7-1.1-1.2-2.2-1.5-3.3l.6-.2c.1.2.1.4.2.8s.2.6.3.7c.7-.6 1.1-1 1.3-1.3.2.2.4.3.5.5l-.1.1c-.5.5-.9.9-1.4 1.3.2.4.5.9.8 1.3.3-.2.5-.5.8-.8l.7-.7.2.2.3.3-.1.1-1.5 1.5c.3.3.5.6.8.9.3.3.6.5.9.7l-.4.5zm8.5-3.7v9.8h-.8v-.8h-3.1v1.5h-.8v-10.6h1.4c.1-.2.2-.5.3-.8s.2-.7.3-1c.1-.3.1-.5.1-.6l.9.1-.1.2c-.1.3-.2.7-.3 1.1-.1.4-.2.8-.4 1.1h2.5zm-.7.7h-3.1v3.3h3.1v-3.3zm-3.2 7.6h3.1v-3.6h-3.1v3.6zm11.9-8.3v.3c0 2.8-.1 5-.2 6.4-.1 1.5-.3 2.5-.5 3.1 0 .1-.1.2-.2.4s-.3.3-.5.5-.4.3-.6.3c-.2.1-.5.2-.9.2-.4.1-.9.1-1.4.1 0 0 0-.1-.1-.2 0-.1-.1-.2-.2-.4s-.1-.3-.2-.3c.1 0 .3.1.5.1h.5c.7 0 1.2-.1 1.6-.3.4-.2.7-.5.8-.9.1-.2.2-.6.3-1.1.1-.5.1-1.3.2-2.4.1-1.1.1-2.8.1-5.1H758c-.1.2-.3.5-.4.8l-.6.9c-.2.3-.4.5-.6.7-.1-.1-.3-.3-.6-.5.4-.4.7-.9 1.1-1.5.4-.7.7-1.3 1-1.9.2-.6.4-1.2.6-1.6l.8.2-.1.1c-.2.7-.5 1.5-.8 2.2h4.9zm-2.8 6.6-.7.4c-.2-.4-.5-.9-.9-1.5s-.8-1-1.1-1.4l.6-.4c.3.3.6.7 1 1.2.4.6.8 1.1 1.1 1.7zm9.2-1.2v4.8c0 .4-.2.7-.5.8-.3.2-.9.3-1.8.3l-.4-.9h1c.3 0 .5 0 .7-.1.2-.1.3-.2.3-.4v-4.3l-1.5.6-.5.2-.2-.8c.3-.1.5-.1.6-.1.3-.1.8-.3 1.7-.6v-3.5H767v-.7h2.1V238h.8v3.2h1.8v.7h-1.8v3.2c.9-.4 1.5-.6 1.8-.7v.8c-.8.3-1.4.5-2 .7zm7.2 3c.4.5 1 .9 1.6 1.3.7.4 1.5.8 2.4 1.1l-.3.8c-.8-.3-1.6-.6-2.3-1.1-.7-.5-1.4-1-1.9-1.6-.6.6-1.3 1.1-2.2 1.6-.8.5-1.7.8-2.6 1.1l-.4-.8c.8-.2 1.7-.6 2.5-1s1.5-.9 2.1-1.5c-1-1.2-1.7-2.7-2-4.2h-1.2v-.8h3.2v-2.5h-3.7v-.8h3.7v-2.6h.9v2.5h3.9v.8h-3.9v2.5h2.1l.1-.1c.2.1.4.3.7.5h-.1c-.5 1.9-1.3 3.4-2.6 4.8zm1.6-4.3h-4c.2.7.4 1.3.7 2 .3.6.7 1.2 1.1 1.7.4-.4.7-.8 1-1.2.3-.5.5-.9.7-1.3.3-.5.4-.9.5-1.2zm10.5 1.5v5.1h-.8v-.8H785v1.5h-.8v-11.7h1.2c.1-.3.3-.6.5-1.1s.3-.8.3-1l.8.2-.1.1c-.2.6-.5 1.2-.8 1.8h2.5v3.9H785v2h4zm-1-5.2h-3v2.5h3v-2.5zm-3 8.7h3.2v-2.8H785v2.8zm11.8-9.7H794v2.3h3v7c0 .3-.1.6-.4.7-.3.2-.8.2-1.6.2l-.4-.8h.8c.2 0 .4 0 .6-.1.1 0 .2-.2.2-.3v-6.2H794v9.2h-.8v-9.2h-2v7.6h-.8v-8.4h2.8v-2.3h-3.5v-.8h7.9v.8c-.2.3-.5.3-.8.3zm16.3 8.9h-12.8v-.7h1.2l-.2-8.6v-.6l.5.2c.4-.1.8-.3 1.3-.5s.9-.4 1.2-.6l.5.5-.2.1c-.2.1-.6.3-1 .4-.4.2-1 .4-1.6.6v2.1h2.5v.7H802v2.3h2.4v.7H802v2.6h3.5c0-.6.1-1.4.1-2.3v-2h.7v.1l-.1 4.1h1.8c0-1.5.1-3.2.2-5.3h-2.9c.1-.6.1-1.4.1-2.5s.1-1.8.1-2.2v.1h.7v.1l-.1 1.4h2.8v.7h-2.8l-.1 1.9h2.8c-.1 2.5-.1 4.5-.2 6h3.4l.1-2.6h-2.3v-.7h2.4l.1-2.4h-2.4v-.7h2.4l.1-2.2h-2.5v-.5h3.2c-.1 1.3-.2 4.3-.3 9.1h1.3v.7h-1zm-12.8 2.5c.6-.1 1.2-.3 1.9-.5s1.3-.5 1.8-.7.9-.4 1.1-.6l.7.4c-.7.4-1.4.8-2.3 1.2s-1.8.7-2.7.9c0 0-.1-.1-.2-.3-.2-.1-.3-.3-.3-.4zm9.3-1.8c.7.2 1.6.5 2.5.9.9.3 1.7.6 2.4.9l-.5.7c-1.4-.7-3-1.3-5-2l.6-.5zm8.1-8.7h5.1v.7H817v-.7h.7zm4.6 6.5v4.6h-.7v-.9h-3.2v.9h-.8v-4.6h4.7zm-.8-3.7h-3.6v-.6h4.2v.7c-.2-.1-.4-.1-.6-.1zm-3.6 2.2v-.7h4.2v.7h-4.2zm.5 4.7h3.2V248h-3.2v2.5zm2.4-10.4-.7.4c-.4-.8-.8-1.5-1.2-2.1l.6-.3c.2.3.4.6.6 1 .3.2.6.6.7 1zm10.6 11.3c-.1.2-.3.5-.4.7-.7-.2-1.4-.6-2-.9-.6-.4-1.2-.8-1.7-1.3-1 1-2.3 1.7-4 2.2-.1-.2-.2-.4-.4-.7 1.5-.4 2.8-1.1 3.8-2-.4-.5-.8-1.1-1.2-1.7s-.6-1.3-.8-2h-1.1v-.7h5.5l.1-.1c.4.3.6.5.7.5h-.1c-.4 1.6-1.1 2.9-2.1 4 1.1.8 2.2 1.5 3.7 2zm-5.4-11.2c0 .8-.2 1.5-.6 2.2-.4.6-1 1.2-1.8 1.5-.1-.1-.2-.4-.4-.6.8-.4 1.3-.9 1.6-1.4s.5-1.1.5-1.8v-1.5h3.7v3.5c0 .2.1.3.2.3h.9c.5 0 .8 0 1.1-.1l-.1.7h-2c-.3 0-.5-.1-.6-.2-.2-.1-.3-.5-.3-.9v-2.8H826v1.1zm3 5.4h-3.5c.4 1.2.9 2.3 1.7 3.2.9-.9 1.5-2 1.8-3.2zm7.4-4.2v10.7h-.9v-3.9c0-1.5.1-3.4.1-5.7-.3.6-.6 1.1-1 1.7-.3.5-.7 1-1.1 1.4-.1-.2-.2-.5-.4-.8.7-.8 1.4-1.9 2.1-3.3.7-1.3 1.2-2.6 1.5-3.8l.7.3-.1.1c0 1.2-.4 2.3-.9 3.3zm10.6 1.3h-6.3c-.2.5-.4 1-.7 1.5h7.1v6.9c0 .2 0 .3-.1.4-.1.1-.2.2-.4.3s-.4.1-.7.2c-.3 0-.7.1-1.1.1-.1-.1-.2-.4-.4-.8.4 0 .7.1.9.1h.5c.2 0 .3-.1.3-.1.1-.1.1-.2.1-.3v-1.5h-2.8v2.5h-.7v-2.5H840v2.8h-.8v-7c-.3.4-.6.9-1 1.2l-1.1 1.1-.4-.6c.6-.4 1.1-1 1.7-1.8.6-.8 1-1.5 1.3-2.3h-2.2v-.9h3v-1.8H838v-.7h2.5v-1.6h.8v1.6h2.8v-1.6h.8v1.6h2.4v.7h-2.4v1.8h2.8v.7c.1.1-.2 0-.7 0zm-4.1 2.2h-2.7v1.7h2.7v-1.7zm-2.7 3.8h2.7v-1.6h-2.7v1.6zm1.4-8.4v1.8h2.8v-1.8h-2.8zm4.8 6.3v-1.7h-2.8v1.7h2.8zm-2.8 2.1h2.8v-1.6h-2.8v1.6zM593.3 273v4.9c0 .4-.2.7-.5.8-.3.2-.9.3-1.8.3l-.4-.9c.4 0 .7.1 1 .1.3 0 .5 0 .7-.1.2-.1.3-.2.3-.4v-4.4l-1.5.5-.5.2-.2-.8.6-.1c.2-.1.7-.2 1.6-.6V269h-2.2v-.7h2.1v-3.2h.8v3.2h1.8v.7h-1.8v3.3c1-.4 1.6-.6 1.8-.7v.8c-.4.1-1 .3-1.8.6zm7.9 5.2c1.4 0 2.5-.1 3.4-.2l-.2.8c-.7.1-1.8.1-3.3.1-.4 0-.8 0-1.3-.1s-.9-.2-1.2-.4c-.4-.2-.7-.4-1-.6-.3-.2-.5-.5-.7-.8-.2-.3-.4-.6-.5-1-.1.3-.3.7-.5 1s-.4.8-.7 1.1c-.3.4-.5.7-.8.9l-.6-.5c.3-.2.5-.5.8-.9.3-.4.5-.8.8-1.2l.6-1.5c.2-.5.3-1.1.4-1.7l.8.2s0 .1-.1.1l-.3 1.5c.1.7.4 1.3.8 1.8s1 .8 1.7 1.1v-5.4h-3.8v-.7h8.9v.7H600v2.3h3.4v.7H600v2.6c.1 0 .3 0 .6.1h.6zm-4.8-7.6v-5.1h6.6v5.1h-6.6zm5.8-4.5h-5v1.6h5v-1.6zm-5 3.8h5v-1.7h-5v1.7zm12.4-1.4v10.6h-.9v-3.8c0-1.5.1-3.4.1-5.6-.3.5-.6 1.1-.9 1.6s-.7 1-1 1.4l-.4-.8c.4-.5.9-1.1 1.4-1.9s.9-1.6 1.3-2.5c.4-.9.7-1.8 1-2.7l.8.3-.1.1c-.4 1.1-.8 2.2-1.3 3.3zm10.7 5.3h1v.8h-10.6v-.8h2.9v-4.3h-2.3v-.8h2.3V265h.9v3.6h3.1v-3.7h.9v3.6h2.6v.8h-2.6v4.3h1.8zm-9.6 4.6c.6-.3 1.3-.8 1.9-1.4.6-.6 1.1-1.1 1.4-1.6l.6.5c-.4.6-.9 1.1-1.5 1.7-.6.6-1.3 1.1-1.9 1.5l-.5-.7zm3.6-8.9v4.3h3.1v-4.3h-3.1zm3.6 5.8c.4.4 1 .9 1.6 1.5.6.6 1.1 1.2 1.5 1.6l-.6.7c-.9-1.1-1.9-2.2-3.1-3.3l.6-.5zm12.3-3.9v8.2h-.8v-2.2c-2.6.5-4.3.8-5.1.9l-.5.1-.2-.8.6-.1c.3 0 .7-.1 1.2-.2v-6.1h-1.5v-.7h13.9v.7h-7.6zm-4.1-2v-4h9.5v4h-.8V266h-7.9v3.4h-.8zm3.4 2h-3.3v1.5h3.3v-1.5zm-3.3 2.1v1.5h3.3v-1.5h-3.3zm0 3.8c1.3-.2 2.4-.4 3.3-.6v-1.2h-3.3v1.8zm8-10.2v.6h-6.5v-.6h6.5zm-5.8 1.7h5.8v.6h-6.5v-.6h.7zm9.7 9.7-.4.7c-1.4-.5-2.5-1.1-3.3-1.9-.8.7-1.8 1.3-3 1.6 0 0 0-.1-.1-.1s-.1-.2-.1-.3c-.1-.1-.1-.2-.2-.3 1.1-.3 2.1-.8 2.9-1.5-.8-.8-1.3-1.9-1.7-3.1H631v-.6h5.3l.1-.1c.2.1.4.3.6.5h-.1c-.4 1.3-1 2.4-1.9 3.4.7.7 1.8 1.3 3.1 1.7zm-2.1-4.8h-3.1c.4 1.1.9 2 1.5 2.7.7-.8 1.3-1.6 1.6-2.7zm17.4 1.7h1.2v.7h-3.5v1.7c0 .3-.1.5-.2.7-.2.2-.4.3-.9.4s-1.1.1-2.1.1c-.1-.1-.1-.2-.2-.4s-.2-.3-.2-.4c.6.1 1 .1 1.1.1h.3c.4 0 .7 0 1-.1.3-.1.4-.2.4-.5v-1.6h-9.5v-.7h9.5v-1.1h.9v1.1h2.2zm-6.1-8.5H641v-.7h6.3v-1.3h.9v1.2h6.2v.7h-6.2v1.1h4.4v4.2h-.6c.3.3.7.6 1.1 1l1.1 1.1-.6.5c-.2-.3-.4-.6-.8-1h-.3c-.1 0-.7 0-1.6.1s-2.5.1-4.6.1c-2.1.1-3.6.1-4.5.1h-.6c0-.2 0-.4-.1-.7h6.1V272h-4.4v-4.2h4.4v-.9zm0 1.7h-3.6v1.2h3.6v-1.2zm-3.7 3.1h3.6v-1.3h-3.6v1.3zm0 5.1.4-.5c.4.1.8.3 1.3.6s.9.5 1.3.8l-.4.6c-.3-.3-.7-.5-1.2-.8s-.9-.5-1.4-.7zm8.1-8.2h-3.6v1.2h3.6v-1.2zm-3.6 1.8v1.3h3.6v-1.3h-3.6zm0 1.8v1.2c2.1-.1 3.5-.1 4.2-.2-.5-.5-.8-.8-.9-.8l.4-.3h-3.7zm17.3 3c.6.6 1.5 1.2 2.7 1.7s2.4.9 3.7 1.1c-.3.4-.4.6-.4.7-.7-.1-1.3-.3-2-.5-.6-.2-1.2-.5-1.8-.8-.6-.3-1.1-.6-1.5-.9-.5-.3-.9-.7-1.2-1v3.7h-.9v-3.6c-.4.4-.9.9-1.5 1.3s-1.3.8-2.1 1.1-1.7.6-2.7.9c0-.1-.2-.3-.4-.7 1.2-.2 2.4-.6 3.5-1.1s2-1.1 2.6-1.8h-6v-.7h6.6V273h-4.9v-.7h4.9v-1.4h-5.6v-.7h3.7c-.1-.1-.2-.3-.3-.5-.1-.2-.4-.6-.7-1l.7-.2c.2.2.3.5.5.8.2.3.4.6.5.9h3l.6-.9c.2-.3.3-.6.4-.9.2.1.5.2.8.3l-.1.1c-.4.6-.6 1.1-.8 1.3h3.7v.7h-5.7v1.4h4.9v.7h-4.9v1.5h6.7v.7h-6zm4.6-6.9h-12.2v-.7h3c-.1-.1-.2-.3-.4-.7-.2-.3-.5-.7-1-1.2l.7-.2c.2.2.4.6.7 1 .3.4.5.7.7 1l-.6.2h1.7v-2.6h.8v2.6h2.2v-2.6h.8v2.6h1.2c.2-.3.5-.7.8-1.1s.5-.8.6-1.2l.7.3-.1.1c-.3.5-.7 1.2-1.2 1.8h2.8v.7H670zm9.7-.8v9.8h-.7v-.8h-3.1v1.5h-.9v-10.6h1.4c.1-.2.2-.5.3-.8s.2-.7.3-1c.1-.3.1-.5.1-.6l.9.1-.1.2c-.1.3-.2.7-.3 1.1-.1.4-.2.8-.4 1.1h2.5zm-.7.7h-3.1v3.3h3.1v-3.3zm-3.2 7.6h3.1v-3.6h-3.1v3.6zm11.9-8.3v.3c0 2.8-.1 5-.2 6.4-.1 1.5-.3 2.5-.5 3.1 0 .1-.1.2-.2.4s-.3.3-.5.5-.4.3-.6.3c-.2.1-.5.2-.9.2-.4.1-.9.1-1.4.1 0 0 0-.1-.1-.2 0-.1-.1-.2-.2-.4s-.1-.3-.2-.3c.1 0 .3.1.5.1h.5c.7 0 1.2-.1 1.6-.3.4-.2.7-.5.8-.9.1-.2.2-.6.3-1.1.1-.5.1-1.3.2-2.4.1-1.1.1-2.8.1-5.1h-4.5c-.1.2-.3.5-.4.8l-.6.9c-.2.3-.4.5-.6.7-.1-.1-.3-.3-.6-.5.4-.4.7-.9 1.1-1.5.4-.7.7-1.3 1-1.9.2-.6.4-1.2.6-1.6l.8.2-.1.1c-.2.7-.5 1.5-.8 2.2h4.9zm-2.8 6.6-.7.4c-.2-.4-.5-.9-.9-1.5s-.8-1-1.1-1.4l.6-.4c.3.3.6.7 1 1.2.4.6.8 1.1 1.1 1.7zm11.8-8.2V278c0 .4-.1.6-.4.8-.3.2-.9.3-1.7.3-.1-.3-.3-.6-.4-.9.3 0 .6.1.9.1s.5 0 .6-.1c.2 0 .2-.2.2-.3v-3.8H693c-.1 1.1-.3 2.2-.6 3.1-.3.9-.6 1.6-1 2.1l-.6-.6c.5-.7.9-1.6 1.2-2.8.3-1.2.4-2.6.4-4.2V266h4.3zm-3.6 7.3h2.8v-3h-2.8v1.4c.1.6 0 1.2 0 1.6zm2.8-6.6h-2.8v2.9h2.8v-2.9zm6.7 9.4c.4.5.8.9 1.2 1.3s1 .7 1.5 1l-.4.7c-1.1-.6-2-1.4-2.8-2.3-.7.9-1.5 1.6-2.4 2.1l-.5-.7c.5-.2.9-.5 1.3-.9s.8-.7 1.1-1.2c-.3-.4-.5-.8-.7-1.3-.2-.4-.4-.9-.6-1.4s-.3-1.1-.4-1.7h-1v7.4h-.8v-13.2h6.2v.3c0 .7 0 1.3-.1 1.6s-.1.7-.2.9c-.1.3-.4.5-.7.7-.3.1-.8.2-1.5.2-.1-.2-.2-.5-.4-.9.2.1.5.1.8.1.6 0 .9-.2 1.1-.5.1-.2.1-.4.2-.7 0-.3 0-.6.1-1H699v4.3h4.6l.1-.1c.2.1.4.3.6.5h-.1c-.1.9-.3 1.7-.6 2.5-.3.9-.6 1.6-1 2.3zm-1.9-4.4c.3 1.4.7 2.7 1.4 3.8.6-1.1 1.1-2.3 1.3-3.8h-2.7zm13.8-.7-.1.1c-.2.6-.5 1.1-.8 1.7-.3.6-.7 1-1 1.4-.2-.1-.4-.3-.6-.4.3-.3.6-.6.9-1.1.3-.5.6-.9.7-1.3h-1.9v6.7c0 .2 0 .4-.1.5s-.2.3-.4.4-.5.2-.8.2c-.3 0-.8.1-1.3.1l-.4-.9h1.2c.3 0 .6 0 .8-.1.2-.1.3-.2.3-.4v-4.5c0-.6 0-1.1.1-1.5-.1.2-.2.6-.4 1-.1.4-.3.8-.6 1.3-.2.5-.5 1-.8 1.5-.3.5-.7 1-1 1.4l-.1-.1-.1-.1-.2-.2-.2-.2c.4-.4.7-.9 1.2-1.5s.8-1.3 1-1.9.5-1.2.7-1.6H708v-.7h5.9l.1-.1c.1.1.2.2.4.3-.1-.1 0 0 .1 0zm-1.7-4.4h-4.7v-.7h5.1l.1-.1c.2.2.5.4.7.6l-.2.1c-.3.4-.6.8-1 1.3s-.8.9-1.2 1.3c.4.3.9.6 1.3.9l-.4.6c-.4-.4-1-.7-1.7-1.1-.7-.4-1.4-.7-2-1l.4-.5c.5.2 1 .5 1.7.8.3-.2.6-.6.9-1 .5-.5.8-.9 1-1.2zm8.8 7.3v.3c0 1.1 0 1.9-.1 2.5-.1.6-.2 1-.3 1.3-.2.3-.5.6-.9.8s-1.1.3-2 .3c0-.1-.1-.4-.4-.9.3.1.6.1.9.1.9 0 1.4-.2 1.6-.6.1-.2.2-.6.2-1s.1-1.1.1-2H718c-.1.5-.3 1.1-.6 1.5s-.6.9-.9 1.3c-.4.4-.8.7-1.3 1-.5.3-1 .5-1.6.7l-.5-.6c.6-.2 1-.4 1.4-.6.4-.2.8-.5 1.1-.8.3-.3.6-.6.9-1.1.3-.4.5-.9.7-1.5H714v-.7h3.3c0-.2.1-.4.1-.7v-1h.8v.9c0 .3 0 .5-.1.7h3.5zm-3-3.4c.9.7 2.1 1.2 3.5 1.5l-.3.8c-1.5-.4-2.7-1-3.7-1.8-.5.4-1 .7-1.7 1-.6.3-1.3.5-2 .7-.1-.2-.2-.4-.4-.7 1.4-.3 2.6-.8 3.5-1.6-.2-.2-.4-.4-.6-.7-.2-.3-.5-.6-.7-.9-.2-.3-.3-.6-.4-.8-.4.5-.7.9-1.1 1.1-.1-.2-.3-.3-.6-.5.3-.2.7-.6 1-1 .3-.4.6-.8.8-1.3.2-.5.4-.9.6-1.4l.8.1-.1.1c-.1.2-.1.4-.3.7s-.2.5-.3.7h5.1v.7h-1.5c-.2 1.4-.8 2.4-1.6 3.3zm-2.3-3.1c.4 1 1 1.9 1.8 2.7.7-.7 1.2-1.6 1.5-2.7h-3.3zm14.5 5.4v6.4h-.8V278h-4v1.1h-.8v-6.4h5.6zm-4.7 4.7h4v-3.9h-4v3.9zm1.6-6.6v-5.1h8v5.1h-8zm7.1-4.3h-6.3v3.6h6.3v-3.6zm3.6 6.7v5.9h-.8V278h-4.1v1.1h-.8v-6.4h5.7v.5zm-4.9 4.2h4.1v-3.9h-4.1v3.9zm8.3-6.5-.6-.6c.4-.3.7-.6.9-.9.2-.3.4-.7.5-1.1s.2-.9.2-1.4v-1.5c.3.1.5.2.6.2.5 0 1.1-.1 1.9-.2.8-.1 1.5-.3 2.2-.5l.4.6-.3.1c-.6.2-1.3.3-2 .4l-2.1.3v1.2h4.8v.7h-2.1v2.2h-.8V268h-2c-.1.3-.1.7-.3 1-.1.4-.3.7-.6 1.1s-.4.6-.7.8zm-.5 7.4c.9-.1 1.8-.3 2.8-.6 1-.3 1.7-.6 2.2-.8l.7.4c-.3.2-.7.3-1.2.6-.5.2-1.1.4-1.8.6s-1.4.4-2.1.5l-.6-.7zm11.8-7.6v5.9h-9.2v-5.9h9.2zm-.8.5h-7.5v1.2h7.5v-1.2zm0 1.8h-7.5v1.2h7.5V273zm-7.6 3h7.5v-1.4h-7.5v1.4zm10.1-8.6h.7v.7h-2.6v2.2h-.8V268h-2c-.1.5-.3.9-.6 1.3s-.6.7-1 .9c-.1-.1-.3-.3-.6-.5.4-.2.7-.5.9-.8.3-.3.4-.7.5-1s.1-.7.1-1.1v-1.4l.6.2c.6-.1 1.3-.1 2.1-.3.8-.1 1.4-.3 2-.4l.4.6-.3.1c-.9.2-1.7.4-2.3.5-.6.1-1.2.2-1.8.2v1.2h4.7zm-4.9 10 .7-.4c.5.1 1.2.3 2.1.6.9.3 1.8.6 2.8.9 0 0-.1.1-.2.3-.1.2-.2.3-.3.3-1.8-.7-3.5-1.3-5.1-1.7zM627 123h-23.5v10c0 4-.4 7.6-1.1 10.8-.8 3.2-1.8 5.6-3.1 7.2l-1.5-1.3c1.2-1.5 2.1-3.7 2.8-6.7.7-3 1.1-6.3 1.1-10.1v-11.5h27.7v1.8c-.5-.1-1.3-.2-2.4-.2zm-15.3 19.6-.3.3c-.3.6-.8 1.3-1.4 2.2-.6.8-1.4 1.7-2.3 2.6-.9.9-1.8 1.6-2.6 2.2-.7-.6-1.2-1-1.4-1.3 1.2-.7 2.3-1.7 3.5-2.9s2.1-2.5 2.8-3.9c.5.2 1.1.5 1.7.8zm6.8-3.2v7.9l.1 1.8c0 .5-.1.9-.3 1.2-.2.3-.5.6-1 .8-.5.2-1.1.4-2 .5-.8.1-1.9.1-3.1.1l-1-1.9c.7.1 1.7.2 2.8.2.8 0 1.4-.1 1.9-.2.5-.2.7-.5.7-1v-9.3H608c0-.4.1-.8.1-1v-9.7c0-.3 0-.6-.1-1h7.2c.8-1.6 1.3-3 1.7-4.2l1.9.6-.2.4c-.3 1-.8 2.1-1.4 3.3h9.4v11.7h-8.1zm6.2-10.3h-15v3.5h15v-3.5zm-14.9 5v3.7h15v-3.7h-15zm14.8 7.6c.8.7 1.7 1.7 2.9 2.9 1.1 1.2 2.3 2.5 3.4 4l-1.5 1.2c-.8-1.2-1.8-2.4-2.9-3.6-1.1-1.2-2.2-2.4-3.4-3.5l1.5-1zm41.9-17.3h-24.9v9.3c0 3.8-.3 7.2-.9 10.2-.6 3-1.4 5.3-2.5 6.9-.6-.6-1.1-1-1.5-1.2 1-1.5 1.7-3.6 2.3-6.4.6-2.8.8-6 .8-9.6v-10.1l-.1-.6h14.1c-.4-.8-1-1.8-1.7-2.8l1.5-.7c.4.5.8 1.1 1.1 1.7.4.6.7 1.2 1 1.8h13.2v1.7c-.4-.2-1.2-.2-2.4-.2zm-11.1 9.1v15.2c0 .5-.2.9-.5 1.3-.3.3-.9.5-1.5.6-.7.1-1.4.2-2.2.2l-.8-1.7c.7.1 1.3.1 1.8.1s.9-.1 1.2-.2c.3-.1.5-.3.5-.7v-13.5h-8.6v16.5h-1.6c0-.2.1-.6.1-1.2V134l-.1-.5h5.3v-6.6l-.1-.9c.8 0 1.3 0 1.7.1 0 .2-.1.5-.1.9v6.6h4.9zm-9.6-1.2c-.5-1.4-1.1-2.9-1.8-4.6l1.3-.4c.3.6.6 1.3.9 2.2.3.9.6 1.6.8 2.4l-1.2.4zm2.3 12.9v1.7h-1.2v-9.3h5.2v7.7h-4zm2.7-6.4h-2.7v5.3h2.7v-5.3zm1.2-6.8c.4-.6.8-1.3 1.2-2.3.4-1 .8-1.8 1.1-2.7l1.4.5-.2.3c-.2.7-.6 1.5-1 2.4s-.8 1.7-1.2 2.4l-1.3-.6zm11.7 12.4c1.4 2.4 3.4 4.2 5.8 5.5-.2.4-.4.9-.7 1.5-.9-.5-1.7-1.1-2.5-1.7-.8-.7-1.5-1.4-2.1-2.1s-1-1.3-1.4-1.9c-.7 1.2-1.6 2.2-2.6 3.2-1 .9-2.1 1.8-3.3 2.5l-.8-1.5c1.4-.8 2.5-1.6 3.5-2.5.9-.9 1.7-1.9 2.3-3.1-1.3-2.4-2.2-5.5-2.8-9.1-.6 1.1-1.2 2-1.8 2.7l-1-1.4c.9-.9 1.7-2.4 2.6-4.4.9-2.1 1.5-4.2 1.9-6.4l1.6.3-.1.3c-.3 1.5-.8 3.2-1.4 4.9h8.1v1.6h-2.3c-.5 4.5-1.5 8.4-3 11.6zm-3.5-11.4c.5 3.9 1.3 7.2 2.6 9.8 1.3-2.7 2.1-6.1 2.4-10h-4.9l-.1.2zm17.3-7h11.1v1.6h-12.7V126h1.6zm10 14.9v10.7h-1.6v-2H679v2h-1.7c0-.4.1-.7.1-1v-8.7c0-.2 0-.6-.1-1h10.2zm-1.8-8.3h-7.9V131h9.2v1.5l-1.3.1zm-7.9 4.8v-1.5h9.2v1.5h-9.2zm1.2 10.8h6.9v-5.8H679v5.8zm5.5-23.8-1.5.9c-.9-1.8-1.9-3.4-2.8-4.7l1.4-.8c.4.6.9 1.3 1.5 2.1.5.9 1 1.7 1.4 2.5zm4.6 23.2c.6-.8 1.1-2 1.7-3.5.6-1.6 1-3 1.1-4.4l1.5.7-.1.2c-.3 1.6-.7 3.2-1.3 4.7-.5 1.5-1.1 2.7-1.6 3.5l-1.3-1.2zm1.2-13.3c.6-.2 1.2-.5 1.9-1 .7-.4 1.4-1 2.1-1.7s1.3-1.5 1.8-2.3c-1.5-.9-3.1-1.6-4.9-2.3.2-.4.5-.8.8-1.3 1.7.7 3.3 1.4 4.8 2.2.3-.6.5-1.2.7-1.9s.3-1.3.4-1.9.1-1.1.1-1.5h-7.2V121h16.4v.6c0 3.1-.1 5.4-.2 7-.1 1.6-.3 2.7-.6 3.5-.3.9-.9 1.5-1.8 1.8-.9.4-2 .5-3.3.5-.1-.2-.2-.5-.3-.9-.2-.4-.3-.8-.5-1.1.2.1.6.1 1 .2.4 0 .7.1 1 .1.6 0 1.1-.1 1.5-.4s.7-.6.9-1.1c.1-.4.3-.9.3-1.4s.1-1.3.2-2.4c0-1 .1-2.7.1-5h-5.9c-.1 2.8-.9 5.4-2.4 7.8s-3.4 4-5.8 5.1l-1.1-1zm11.5 14.6c.3-.4.5-.9.6-1.5.1-.6.2-1.7.2-3.2.1 0 .3.2.5.3.3.2.6.4 1.1.7 0 1.1-.1 2.1-.2 2.8-.1.7-.4 1.4-.7 1.8-.3.5-.8.8-1.4 1.1-.6.2-1.4.3-2.3.3-.7 0-1.3 0-1.9-.1-.6-.1-1.1-.2-1.5-.4-.6-.3-.9-1.2-.9-2.6v-9.9l1.8.1v9.9c0 .7.3 1.1.9 1.2.3.1.9.1 1.9.1.5 0 .9-.1 1.3-.2s.4-.1.6-.4zm-3.7-14.1c.6.5 1.3 1.2 2.1 2 .7.8 1.4 1.6 1.9 2.4l-1.2 1.2c-.4-.7-1-1.5-1.7-2.4-.8-.9-1.5-1.6-2.1-2.1l1-1.1zm7.4 4.3c.6.9 1.2 2.1 1.8 3.6s1.2 3 1.6 4.4l-1.5.9c-.2-.6-.4-1.4-.7-2.4-.3-.9-.7-2-1.2-3.1s-.9-2-1.4-2.7l1.4-.7zm19.2-11.5h-9.8V126h11.3v1.6h-1.5zm.6 13.2v10.5h-1.6v-1.9h-6.2v1.9h-1.7c0-.4.1-.7.1-1v-8.5c0-.2 0-.6-.1-1h9.5zm-.5-9.8v1.5h-8.5V131h8.5zm-7.3 4.9h7.2v1.5h-8.5v-1.5h1.3zm-.1 12h6.2v-5.7h-6.2v5.7zm4.9-23.6-1.5.8c-.3-.7-.7-1.5-1.2-2.4-.5-.9-1-1.6-1.4-2.2l1.5-.8c.4.6.9 1.4 1.4 2.3s.9 1.8 1.2 2.3zm13.9-2.9c-.4 1.2-.9 2.4-1.5 3.6-.6 1.2-1.3 2.4-2.1 3.5s-1.7 2.2-2.6 3.1c-.9.9-1.9 1.7-2.9 2.3-.3-.5-.7-.9-1-1.3.4-.2.9-.5 1.5-.9s1.2-.9 1.8-1.5c.6-.6 1.2-1.3 1.8-2-1.1-1.1-2.1-2-3.1-2.8l.9-1c.5.4 1 .8 1.6 1.3.6.5 1 .9 1.4 1.3.5-.7.9-1.5 1.4-2.4.4-.9.8-1.7 1.1-2.5H728v-1.6h6.9l.3-.3c.6.4 1 .7 1.4 1l-.4.2zm3.7 27.7h7v1.7c-.5 0-1.1-.1-2-.1h-15.5c-.9 0-1.5 0-2 .1V149h10.9c.4-.7.8-1.6 1.2-2.8.5-1.1.8-2.1 1.1-2.9l1.5.6-.2.3c-.2.6-.5 1.4-.9 2.4s-.8 1.8-1.1 2.5zm3.6-14.3v7.5h-13.1c0-.3.1-.6.1-.9v-5.7c0-.2 0-.5-.1-.9h13.1zm-9.8 13.8-.9-2.4c-.4-.9-.7-1.6-1-2.2l1.4-.5c.8 1.7 1.4 3.2 1.8 4.5l-1.3.6zm-1.7-7.7h9.9v-4.7H732v4.7zm9.1-9.2h-8.4v-1.5h8.4v1.5zm4.9 2c-1.9-1.4-3.7-3.4-5.3-5.8-1.6-2.5-2.7-5-3.4-7.5l1.3-.4c.1.4.3 1 .6 1.7s.5 1.3.7 1.7c1.5-1.3 2.4-2.3 2.9-3 .5.4.8.8 1.1 1.1l-.3.2c-1 1.1-2.1 2.1-3.1 3 .5 1 1.1 1.9 1.7 2.9.6-.5 1.2-1.1 1.9-1.7.7-.7 1.2-1.2 1.5-1.7l.4.4c.2.2.5.4.7.7l-.3.2c-.9 1-2 2.1-3.4 3.3.6.7 1.2 1.5 1.9 2.1s1.4 1.2 2 1.7l-.9 1.1zm-166.4 64.5c.5-1.1.9-2.4 1.2-3.9.4-1.5.6-2.8.7-4l1.4.3c-.1 1.2-.4 2.6-.7 4.2-.3 1.5-.7 2.9-1.2 4l-1.4-.6zm.6-11.4c.3-.1.5-.3.7-.5 1.8-1.9 3.7-4.4 5.8-7.4l-4.9.7-1.1.2-.4-1.4c.1 0 .2-.1.3-.2l.3-.3c1-1.4 2-3 3-4.8 1-1.8 1.8-3.5 2.5-5l1.7.8-.5.6c-.7 1.4-1.5 2.9-2.5 4.5-.9 1.6-1.8 3-2.7 4.2l5.2-.7c1.1-1.7 1.9-3.1 2.4-4.3l1.7.8c-.2.3-.4.6-.6.8-1.6 2.6-3.1 4.9-4.7 7-1.5 2.1-2.8 3.7-3.9 4.8 2.4-.4 4.8-.8 7.3-1.3-.4-1.1-.9-2-1.3-2.9l1.4-.5c.5.8.9 1.9 1.5 3.1s.9 2.4 1.2 3.4l-1.4.6c-.2-.9-.5-1.7-.8-2.4-3.6.7-6.4 1.2-8.4 1.5l-1.3.3-.5-1.6zm5.1 3.7 1.5-.3c.2.9.4 2.1.6 3.4.2 1.4.4 2.6.5 3.6l-1.7.3c0-1-.1-2.2-.3-3.6-.2-1.3-.4-2.4-.6-3.4zm3.8-.6 1.4-.5c.5.9.9 2 1.4 3.1.5 1.1.9 2.1 1.2 2.9l-1.5.6c-.3-.9-.7-1.9-1.1-3-.5-1.1-1-2.1-1.4-3.1zm20.6 5.4h1.7v1.6h-14.3v2.6h-1.7l.1-1.3v-18.8l.1-1.4c-1 1.7-1.9 2.9-2.7 3.8-.5-.8-.8-1.3-1-1.5.8-.9 1.6-2.1 2.5-3.7.9-1.5 1.7-3.1 2.3-4.6.6-1.6 1.1-3 1.5-4.2l1.7.5-.2.3c-.5 1.5-1 2.8-1.5 3.9s-.8 1.8-1 2.1H611v1.6h-6.8v5.1h6v1.5h-6v5.2h6v1.5h-6v5.8h5.5zm-12.6-19.1v5.1h5.5v-5.1h-5.5zm5.5 11.8v-5.2h-5.5v5.2h5.5zm-5.5 1.5v5.8h5.5v-5.8h-5.5zm8.3-16.1-1.4.7c-.4-.9-.8-1.9-1.4-2.9-.5-1-1-1.8-1.5-2.4l1.3-.7c.5.6 1 1.5 1.5 2.5.6 1.1 1.1 2 1.5 2.8zm11.8 9.8c.8-1 1.7-2.2 2.7-3.9 1-1.6 2-3.5 2.9-5.7 1-2.2 1.7-4.2 2.1-6.1l1.7.6-.1.3c-.3 1.2-.7 2.4-1.2 3.7-.5 1.3-1 2.6-1.5 3.7V198l.1 1.5H622l.1-1.5c0-2.2 0-5.3.1-9.3.1-4 .2-7.5.3-10.4-.6 1.3-1.3 2.4-1.9 3.4-.6 1-1.1 1.7-1.5 2.2s-.7.8-.8 1l-1.1-1.7zm11.4-9.7v19.4l.1 1.4h-1.8l.1-1.4v-20.5c.4 0 1 0 1.7.1-.1.2-.1.5-.1 1zm21.1 15.3 1.2 1.2-.3.1c-1.7 1.5-3.2 2.7-4.6 3.6-1.4.9-2.9 1.7-4.4 2.3-1.5.7-3.2 1.3-5.2 1.8-2 .6-4.2 1-6.6 1.3l-.8-1.6c1.1-.1 2.3-.3 3.7-.5 1.4-.2 2.7-.6 4.2-1 1.4-.4 2.9-1 4.3-1.6 1.5-.6 2.9-1.5 4.4-2.4 1.5-1 2.8-2 4.1-3.2zm-15.2-14.7c-1.1 1.4-2.3 2.7-3.8 4l-1.1-1.4c1-.7 1.9-1.6 2.9-2.7s1.7-2.2 2.3-3.3c.6-1.1 1.1-2.1 1.4-3l1.7.5-.1.3c-.6 1.4-1.2 2.5-1.7 3.3h14v1.7h-4.2c-.5 1-1.1 2-1.8 3-.7.9-1.5 1.8-2.4 2.6 2.3 1.3 5.2 2.3 8.6 3-.5 1-.7 1.5-.8 1.6-3.6-.7-6.6-1.9-9.2-3.6-1.2.9-2.6 1.6-4.2 2.3-1.5.7-3.2 1.2-4.9 1.5-.1-.3-.5-.8-1-1.6.8-.1 1.6-.3 2.5-.6.9-.2 1.9-.6 3-1s2.1-1 3.2-1.7c-.9-.7-1.7-1.4-2.4-2.2-.9-1-1.5-1.8-2-2.7zm8.5 9.9-.2.1c-1.5 1.2-3.1 2.1-5 2.9-1.8.8-4 1.4-6.4 1.8l-.8-1.4c4.7-.8 8.4-2.3 11.2-4.5l1.2 1.1zm3.7 2.7c-.7.7-1.7 1.4-2.7 2.1s-2.3 1.4-3.6 2.1c-1.3.7-2.8 1.3-4.3 1.8s-3 .9-4.5 1.1l-.8-1.5c1.4-.2 2.8-.5 4.2-.9 1.4-.4 2.8-.9 4.1-1.5s2.5-1.3 3.7-2c1.1-.8 2.2-1.6 3.1-2.4l1.1 1.1-.3.1zm-6.6-8.7c.8-.6 1.6-1.4 2.3-2.1.7-.8 1.2-1.6 1.7-2.5h-8.2c.5.8 1.1 1.7 1.9 2.5.6.8 1.5 1.5 2.3 2.1zm45.8-5.6H661v9.3c0 3.8-.3 7.2-.9 10.2-.6 3-1.4 5.3-2.5 6.9-.6-.6-1.1-1-1.5-1.2 1-1.5 1.7-3.6 2.3-6.4.6-2.8.8-6 .8-9.6v-10.1l-.1-.6h14.1c-.4-.8-1-1.8-1.7-2.8l1.5-.7c.4.5.8 1.1 1.1 1.7.4.6.7 1.2 1 1.8h13.2v1.7c-.4-.2-1.3-.2-2.4-.2zm-11.2 9.1v15.2c0 .5-.2.9-.5 1.3-.3.3-.9.5-1.5.6-.7.1-1.4.2-2.2.2l-.8-1.7c.7.1 1.3.1 1.8.1s.9-.1 1.2-.2c.3-.1.5-.3.5-.7v-13.5h-8.6v16.5H663c0-.2.1-.6.1-1.2V182l-.1-.5h5.3v-6.6l-.1-.9c.8 0 1.3 0 1.7.1 0 .2-.1.5-.1.9v6.6h4.9zm-9.6-1.2c-.5-1.4-1.1-2.9-1.8-4.6l1.3-.4c.3.6.6 1.3.9 2.2.3.9.6 1.6.8 2.4l-1.2.4zm2.3 12.9v1.7h-1.2v-9.3h5.2v7.7h-4zm2.8-6.4h-2.7v5.3h2.7v-5.3zm1.2-6.8c.4-.6.8-1.3 1.2-2.3.4-1 .8-1.8 1.1-2.7l1.4.5-.2.3c-.2.7-.6 1.5-1 2.4s-.8 1.7-1.2 2.4l-1.3-.6zm11.6 12.4c1.4 2.4 3.4 4.2 5.8 5.5-.2.4-.4.9-.7 1.5-.9-.5-1.7-1.1-2.5-1.7-.8-.7-1.5-1.4-2.1-2.1s-1-1.3-1.4-1.9c-.7 1.2-1.6 2.2-2.6 3.2-1 .9-2.1 1.8-3.3 2.5l-.8-1.5c1.4-.8 2.5-1.6 3.5-2.5.9-.9 1.7-1.9 2.3-3.1-1.3-2.4-2.2-5.5-2.8-9.1-.6 1.1-1.2 2-1.8 2.7l-1-1.4c.9-.9 1.7-2.4 2.6-4.4s1.5-4.2 1.9-6.4l1.6.3-.1.3c-.3 1.5-.8 3.2-1.4 4.9h8.1v1.6H686c-.4 4.5-1.4 8.4-3 11.6zm-3.5-11.4c.5 3.9 1.3 7.2 2.6 9.8 1.3-2.7 2.1-6.1 2.4-10h-4.9l-.1.2zm28.9-11.3-.1 1.5v23.7l.1 2.1c0 .8-.3 1.4-1 1.8-.7.4-1.9.6-3.7.6-.3-.7-.6-1.3-.9-1.9.8.1 1.4.1 2 .1s1-.1 1.4-.2c.3-.1.5-.4.5-.8v-8.8h-6.5c-.3 2.6-.8 4.9-1.4 6.9-.6 2-1.4 3.6-2.3 4.7l-1.4-1.3c1.1-1.5 2-3.6 2.7-6.3.7-2.7 1-5.9 1-9.5v-12.7h9.6zm-8.1 16.6h6.4v-6.8h-6.2v3.1c0 1.4-.1 2.6-.2 3.7zm6.4-14.9h-6.2v6.6h6.2v-6.6zm15 21.1c.8 1 1.7 2 2.8 2.8 1 .9 2.2 1.6 3.4 2.2l-.9 1.6c-2.4-1.4-4.5-3.1-6.2-5.3-1.6 2.1-3.4 3.7-5.4 4.7l-1-1.5c1-.5 2-1.2 2.9-2 .9-.8 1.7-1.7 2.5-2.7-.6-.9-1.1-1.8-1.6-2.8-.5-1-.9-2.1-1.3-3.2s-.7-2.4-1-3.8h-2.2v14.7c0 .7 0 1.4.1 2.1h-1.9c0-.7.1-1.4.1-2.1v-27.5h14v.6c0 1.6-.1 2.9-.2 3.7-.1.8-.2 1.5-.4 1.9-.3.7-.8 1.2-1.6 1.5-.8.3-1.9.5-3.4.5-.1-.4-.4-1.1-.8-1.9.5.2 1.1.3 1.7.3 1.3 0 2.1-.4 2.4-1.1.2-.4.3-.9.3-1.6.1-.7.1-1.4.1-2.2h-10.4v9.8H724l.2-.2c.4.3.9.6 1.4 1.2l-.3.1c-.3 1.9-.8 3.8-1.4 5.5-.5 1.7-1.3 3.3-2.2 4.7zm-4.2-10c.6 3.2 1.6 6 3.2 8.5 1.4-2.4 2.4-5.2 3-8.5h-6.2zm31.8-1.4-.3.1c-.5 1.2-1.1 2.5-1.8 3.8-.8 1.3-1.5 2.3-2.2 3.1-.4-.3-.8-.6-1.3-.9.6-.6 1.2-1.4 1.9-2.5s1.2-2.1 1.7-3H743v15.1c0 .4-.1.8-.3 1.2s-.5.6-.9.8c-.4.2-1.1.4-1.8.5-.8.1-1.8.1-2.9.1l-1-1.9s.4 0 1 .1 1.2.1 1.7.1c.7 0 1.4-.1 1.8-.2.5-.2.7-.5.7-1v-7.2c0-.7 0-1.7.1-3 0-1.3.1-2.4.2-3.3-.2.6-.5 1.3-.8 2.1-.3.9-.8 1.9-1.3 3s-1.2 2.3-1.9 3.5c-.7 1.2-1.5 2.2-2.3 3.1 0 0-.1-.1-.1-.2-.1-.1-.1-.2-.2-.3l-.5-.5c-.2-.2-.4-.3-.4-.4.8-.8 1.7-2 2.6-3.5.9-1.5 1.7-2.9 2.3-4.3.6-1.4 1.1-2.7 1.5-3.7h-5.9v-1.6h13.2l.2-.3c.2.2.5.4.8.6.2.4.4.5.5.6zm-3.6-10.1h-10.6v-1.7h11.4l.2-.3c.5.4 1 .8 1.5 1.3l-.4.2c-.6.9-1.4 1.9-2.3 3-.9 1.1-1.8 2.1-2.6 2.8 1 .6 2 1.2 3 2l-1 1.4c-1-.8-2.2-1.7-3.8-2.6-1.6-.9-3.1-1.7-4.4-2.3l.9-1.2c1.1.4 2.4 1 3.9 1.8.6-.6 1.2-1.3 2-2.1.9-.6 1.6-1.5 2.2-2.3zm19.7 16.7v.6c0 2.5-.1 4.4-.2 5.7-.1 1.3-.3 2.3-.7 3-.4.8-1.1 1.3-2.1 1.7-1 .4-2.5.6-4.4.6 0-.1-.3-.8-.8-2 .6.2 1.3.3 2.1.3 2 0 3.2-.5 3.7-1.4.3-.5.4-1.3.6-2.4.1-1 .2-2.6.2-4.6h-6.2c-.3 1.2-.8 2.4-1.3 3.4s-1.3 2-2.1 2.9c-.8.9-1.8 1.6-2.9 2.3-1.1.7-2.3 1.2-3.6 1.6l-1.2-1.4c1.2-.4 2.3-.8 3.2-1.3.9-.5 1.7-1.1 2.5-1.7.7-.6 1.4-1.4 2.1-2.4s1.2-2.1 1.6-3.4h-7.2v-1.6h7.5c.1-.4.1-.9.2-1.5 0-.6.1-1.1.1-1.5v-.7s.6 0 1.8.1c0 .2-.1.3-.1.5 0 .4 0 .9-.1 1.6s-.1 1.2-.2 1.5h7.5zm-6.8-7.7c2.1 1.5 4.7 2.7 7.9 3.4l-.7 1.7c-3.4-.9-6.2-2.2-8.3-4-1.1.9-2.3 1.7-3.7 2.3s-3 1.2-4.6 1.6c-.2-.5-.5-.9-.8-1.5 3.2-.7 5.8-1.9 7.9-3.5-.4-.4-.9-.9-1.4-1.5-.6-.7-1-1.4-1.5-2.1-.4-.7-.8-1.4-1-1.9-.8 1.1-1.6 1.9-2.4 2.5-.3-.4-.7-.8-1.3-1.2.7-.5 1.5-1.3 2.2-2.2.7-.9 1.4-1.9 1.9-2.9s1-2 1.3-3.1l1.7.3-.2.3c-.1.4-.3.9-.6 1.6s-.5 1.2-.7 1.6h11.5v1.6h-3.3c-.7 2.7-2 5-3.9 7zm-5.2-7c.8 2.3 2.2 4.2 4 6 1.6-1.6 2.7-3.6 3.5-6h-7.5zm277.6 66.5h-10.5v4.5c0 1.8-.2 3.4-.5 4.8s-.8 2.5-1.4 3.2l-.7-.6c.5-.7.9-1.7 1.3-3 .3-1.3.5-2.8.5-4.5v-5.2h12.4v.8h-1.1zm-6.8 8.6-.1.1c-.1.3-.4.6-.6 1-.3.4-.6.8-1 1.2s-.8.7-1.2 1l-.6-.6c.5-.3 1-.7 1.6-1.3s.9-1.1 1.2-1.7c.1.1.4.2.7.3zm3-1.4v4.3c0 .2 0 .4-.1.5-.1.1-.2.3-.4.4-.2.1-.5.2-.9.2s-.8.1-1.4.1l-.4-.8c.3.1.8.1 1.3.1.3 0 .6 0 .8-.1.2-.1.3-.2.3-.4v-4.1h-3.9v-5.2h3.2c.4-.7.6-1.3.7-1.9l.8.3s-.1.1-.1.2c-.1.4-.4.9-.6 1.5h4.2v5.2h-3.5zm2.8-4.6h-6.7v1.6h6.7v-1.6zm-6.7 2.3v1.6h6.7v-1.6h-6.7zm6.6 3.4c.4.3.8.8 1.3 1.3s1 1.1 1.5 1.8l-.7.5c-.4-.5-.8-1.1-1.3-1.6s-1-1.1-1.5-1.5l.7-.5zm18.2-7.8H1037v4.1c0 1.7-.1 3.2-.4 4.5-.3 1.3-.6 2.4-1.1 3.1-.3-.2-.5-.4-.7-.5.4-.7.8-1.6 1-2.9.3-1.2.4-2.7.4-4.3v-4.8h6.3c-.2-.4-.4-.8-.7-1.2l.7-.3c.2.2.3.5.5.7.2.3.3.5.4.8h5.8v.7c-.2.2-.6.1-1.1.1zm-4.9 4.1v6.8c0 .2-.1.4-.2.6-.2.1-.4.2-.7.3-.3 0-.6.1-1 .1l-.3-.8c.3 0 .6.1.8.1.2 0 .4 0 .5-.1s.2-.2.2-.3v-6h-3.8v7.3h-.7v-7.9h2.3v-3.3h.8v3.3h2.1zm-4.3-.5c-.2-.6-.5-1.3-.8-2l.6-.2c.1.3.3.6.4 1 .1.4.3.7.4 1l-.6.2zm1 5.7v.7h-.5v-4.1h2.3v3.4h-1.8zm1.3-2.9h-1.2v2.4h1.2v-2.4zm.5-2.9c.2-.3.4-.6.6-1s.4-.8.5-1.2l.6.2-.1.1c-.1.3-.3.6-.4 1l-.5 1-.7-.1zm5.2 5.5c.6 1 1.5 1.9 2.6 2.5-.1.2-.2.4-.3.7-.4-.2-.8-.5-1.1-.8-.4-.3-.7-.6-.9-.9-.3-.3-.5-.6-.6-.8-.3.5-.7 1-1.2 1.4-.4.4-.9.8-1.5 1.1l-.3-.7c.6-.3 1.1-.7 1.5-1.1s.7-.9 1-1.4c-.6-1.1-1-2.4-1.2-4-.3.5-.5.9-.8 1.2l-.4-.6c.4-.4.8-1.1 1.2-2s.7-1.9.8-2.8l.7.1-.1.1c-.1.7-.3 1.4-.6 2.2h3.6v.7h-1c-.3 1.9-.7 3.6-1.4 5.1zm-1.6-5.1c.2 1.7.6 3.2 1.2 4.4.6-1.2.9-2.7 1.1-4.5h-2.2l-.1.1zm13.5-2.9h-5.5v2.7h-.8v-3.3h6.3v-1.3h-5.6v-.7h12.1v.7h-5.7v1.3h6.3v3.3h-.8V241h-5.5v3.6h-.8V241zm6.7 8c.1.1.2.1.3.2.1.1.3.2.4.2 0 .7-.2 1.2-.4 1.6-.3.3-.6.6-1.2.7-.5.2-1.3.2-2.3.2h-2.1c-.5 0-.7-.1-.9-.2-.2-.1-.3-.3-.4-.4-.1-.2-.1-.5-.1-.8v-.6h-4v1.1h-.8v-5.8h10.3v4.5h-4.9v.5c0 .4.2.6.5.7.4.1 1.2.1 2.4.1 1.1 0 1.8-.1 2.4-.4.2-.1.4-.4.5-.6.3 0 .3-.4.3-1zm-7.9-7v.5h-3v-.5h3zm-2.6 1.6h2.5v.5h-3v-.5h.5zm3.8 2.4h-4v1.4h4V246zm-4 3.3h4v-1.4h-4v1.4zm8.8-2V246h-4.1v1.4h4.1zm-4.1 2h4.1v-1.4h-4.1v1.4zm4.2-7.3v.5h-3v-.5h3zm-2.5 1.6h2.5v.5h-3v-.5h.5zm11 .5-.4.7c-.2-.1-.5-.4-1-.7-.5-.3-1.1-.7-1.8-1l.4-.7c.4.2 1 .5 1.5.8s1 .6 1.3.9zm-2.7 6.6c.4-.5 1-1.3 1.7-2.2.7-1 1.1-1.7 1.4-2.2l.5.8c-.2.4-.5.9-.9 1.5s-.8 1.2-1.2 1.7c-.4.5-.6.9-.8 1.1-.1.2-.2.3-.3.5l-.7-.7.3-.5zm3.4-10.4-.4.7c-.4-.3-.9-.7-1.4-1s-1-.6-1.4-.8l.4-.7c.4.2.9.5 1.5.9.5.3.9.6 1.3.9zm9.3 7.9c.2.2.5.3.7.5 0 .6-.1 1.1-.2 1.5-.1.4-.3.7-.6.9-.3.3-.7.5-1.3.6-.6.1-1.4.2-2.4.2h-1.9c-.4 0-.8-.1-1.1-.2-.4-.1-.7-.4-.9-.7-.2-.3-.3-.7-.3-1.3v-4.8l-.8.3c-.4.1-.7.3-.9.4l-.2-.8.9-.3.9-.4v-4.7l.8.1v4.3l2.6-1v-4.6h.8v4.2l3.3-1.3.1-.1c.3.2.5.4.7.5h-.1c0 1.3 0 2.2-.1 2.9 0 .7-.1 1.2-.2 1.5-.1.1-.1.2-.2.4-.1.1-.2.2-.4.3-.2.1-.4.2-.7.2-.3.1-.6.1-1.1.1-.1-.2-.2-.5-.4-.9.2.1.5.1.7.1.6 0 1-.2 1.2-.6.1-.2.1-.4.1-.6s.1-.6.1-1.1v-1.9l-3.2 1.2v5.2h-.8v-4.9l-2.6 1v5.2c0 .2 0 .4.1.6s.2.4.3.5l.6.3c.1 0 .3.1.6.1h1.8c.7 0 1.3 0 1.7-.1.5-.1.8-.2 1.1-.4.3-.2.5-.5.6-.8.6-.4.7-.9.7-1.6zm10.3-5.7v.8c-.4.1-1.1.3-2 .6-1 .3-1.8.5-2.4.6h-.2c-.1 0-.2.1-.4.1l-.3-.8c.1-.1.2-.2.3-.4s.1-.4.1-.6V238h.8v1.9h3.6v.7h-3.6v2.9c1.8-.4 3.2-.7 4.1-1zm4.9 3.3v6.3h-.8v-.8h-7.6v.8h-.8v-6.3h3c.2-.3.4-.6.6-1 .2-.4.3-.7.3-.9l.9.2-.1.2c-.2.4-.4 1-.8 1.6h5.3zm-.8.7h-7.6v1.7h7.6v-1.7zm-7.6 4.2h7.6v-1.8h-7.6v1.8zm9.7-9.1c.1.1.2.2.4.3.1.1.3.2.3.2 0 .3-.1.6-.1.8-.1.2-.1.5-.3.6-.1.2-.3.3-.5.4-.2.1-.5.2-.8.3s-.8.1-1.4.1h-1.7c-.3 0-.5-.1-.7-.2-.2-.1-.3-.2-.3-.4-.1-.2-.1-.4-.1-.7v-5.1l.8.1v2.2c.4-.1.8-.2 1.3-.4s1-.4 1.6-.6c.6-.2 1-.5 1.4-.7l.5.6-.3.1c-.7.3-1.4.6-2.2.9-.8.3-1.6.6-2.4.8v2.1c0 .1 0 .2.1.3.1.1.2.1.3.2h1.7c.3 0 .6 0 .9-.1s.6-.1.8-.3c.1-.1.2-.2.3-.4s.1-.4.2-.6c.2 0 .2-.3.2-.5zm16.7-2.2h1.2v.8h-14v-.8h6.8c-.3-.6-.5-1-.7-1.3l.8-.2c.3.5.6 1 .8 1.6h5.1zm-5.2 8.9h6.4v.7h-6.1c.1.4.2.9.2 1.3s0 .6-.1.9l-.3.6c-.1.1-.3.2-.6.3-.2.1-.6.1-.9.1-.6 0-1.1 0-1.6-.1l-.3-.8c.6.1 1.2.1 1.7.1.4 0 .7 0 .8-.1.2-.1.3-.2.4-.3.1-.2.1-.4.1-.7 0-.5-.1-.9-.2-1.3h-7.1v-.7h6.8c-.1-.1-.1-.2-.3-.4-.1-.1-.2-.3-.3-.4l.6-.1c1.7-.4 3.1-.9 4.2-1.4h-9.4v-.7h10.4l.1-.1c.2.1.4.3.7.5l-.3.1c-.7.4-1.4.7-2.2 1-.8.3-1.4.5-1.8.6-.5.1-.8.2-.9.3-.1.3-.1.5 0 .6zm-4.9-4.2v-2.8h8.5v2.8h-8.5zm7.8-2.1h-6.9v1.5h6.9V242zm18.9-2.1h1.2v.8h-8c-.4.8-.8 1.6-1.3 2.3h6.9v7.8c0 .3-.1.5-.2.7-.1.2-.4.3-.8.4-.4.1-1.1.1-2 .1l-.5-.9c.7.1 1.1.1 1.2.1h.2c.4 0 .7 0 .9-.1.2-.1.4-.2.4-.4v-1.8h-6.1v3.3h-.8v-8.1c-.4.5-.8.9-1.2 1.3-.4.4-.9.8-1.3 1-.4.3-.8.5-1.1.7-.1-.2-.3-.4-.5-.6 1.2-.7 2.2-1.5 3.1-2.5.9-1 1.6-2.1 2.2-3.4h-4.8v-.8h5.1c.1-.3.2-.6.4-1l.3-1.2.8.2-.1.1c-.1.2-.2.6-.3 1-.1.4-.2.7-.3.9h6.6zm-2 3.8h-6.1v2h6.1v-2zm-6.1 4.6h6.1v-2h-6.1v2zm20 .1c0 .5-.1.9-.3 1.3-.2.4-.5.7-.8 1-.3.3-.8.5-1.2.6-.5.1-1 .2-1.6.2-.3 0-.6 0-.9-.1-.3 0-.7-.1-1-.2-.3-.1-.6-.3-1-.5s-.6-.5-.7-.9-.3-.8-.3-1.3.1-.9.3-1.3c.2-.4.5-.7.9-1 .4-.3.8-.5 1.1-.6.4-.1.6-.2.8-.3-.4-.1-.9-.3-1.3-.6-.4-.2-.8-.6-1.1-1-.3-.4-.4-.9-.4-1.4 0-.4.1-.8.3-1.2s.4-.7.7-.9c.3-.3.7-.5 1.2-.6s.9-.2 1.4-.2c.5 0 .9.1 1.4.2.4.1.8.3 1.1.6.3.3.5.5.7.9s.2.7.2 1.1c0 1.5-.9 2.5-2.8 3.1 1.1.4 1.9.8 2.4 1.3s.9 1 .9 1.8zm-.8 0c0-.3-.1-.6-.2-.9-.1-.3-.3-.5-.6-.8-.2-.2-.6-.5-1-.7-.4-.2-.9-.4-1.4-.6-2 .6-3 1.6-3 2.9 0 .4.1.8.2 1.1.1.3.4.6.6.8.3.2.6.4 1 .5s.8.2 1.2.2c.4 0 .8-.1 1.2-.2.4-.1.7-.3 1-.5.3-.2.5-.5.6-.8s.4-.6.4-1zm-.4-6.4c0-.3-.1-.6-.2-.9-.1-.3-.3-.5-.5-.7-.2-.2-.5-.3-.8-.5-.3-.1-.7-.2-1-.2-.4 0-.7.1-1.1.2-.3.1-.6.3-.9.5s-.4.4-.6.7-.2.6-.2 1 .1.8.2 1.1.4.6.8.8c.4.3.9.5 1.7.8.4-.1.8-.3 1.1-.5.3-.2.6-.4.8-.6s.4-.5.5-.8c.2-.2.2-.5.2-.9zm16.9 5.6h1.2v.8h-6v3.8h-.9v-3.8h-7.2v-.8h2.9v-3.9h4.3V241h-3.8c-.3.4-.6.9-1.1 1.4s-.9 1-1.4 1.4l-.6-.6c.5-.4 1.1-.9 1.6-1.6.6-.7 1-1.4 1.4-2s.6-1.2.8-1.7l.8.2-.1.1c-.3.7-.6 1.4-1 2h9.1v.7h-4.9v2.7h4.4v.7h-4.4v3.2h4.9zm-9.1 0h3.5v-3.2h-3.5v3.2zm17.1 3.8v-7.2c0-1.6 0-2.9.1-4-.4.4-.9.8-1.6 1.4l-.7.6-.5-.6 2.8-2.3h.7v12.1h-.8zm14.3-3.7c0 .6-.1 1.1-.3 1.5-.2.5-.4.9-.8 1.2-.3.3-.7.6-1.2.8-.5.2-1 .3-1.5.3-.8 0-1.5-.2-2.1-.6-.6-.4-1-1-1.3-1.8-.3-.8-.4-1.8-.4-2.9 0-1.4.2-2.6.6-3.7.4-1.1 1-1.9 1.7-2.5.8-.6 1.7-.9 2.7-.9.7 0 1.4.1 2 .3l-.1.7c-.2-.1-.5-.2-.8-.3-.3-.1-.7-.1-1.1-.1-.3 0-.7 0-1 .1-.4.1-.7.3-1 .5s-.7.5-.9.9c-.3.4-.5.8-.7 1.3-.2.5-.3 1-.4 1.5-.1.5-.1 1.2-.2 1.8.1-.2.2-.5.4-.7s.4-.5.7-.7c.3-.2.6-.4 1-.5s.8-.2 1.2-.2c.2 0 .5 0 .8.1l.9.3c.3.2.6.4.8.7s.5.7.6 1.1c.3.7.4 1.2.4 1.8zm-.8 0c0-1-.2-1.7-.7-2.3s-1.2-.8-2.1-.8c-.4 0-.8.1-1.1.2-.4.1-.7.3-1 .6-.3.3-.5.6-.7.9-.2.4-.2.8-.2 1.2 0 .3 0 .7.1 1 .1.4.2.7.5 1.1.2.3.5.6.8.8.3.2.6.3.8.4s.5.1.7.1c.4 0 .8-.1 1.2-.2.4-.2.7-.4.9-.7.3-.3.5-.6.6-1 .1-.4.2-.8.2-1.3zm7.2-7.8h-3.5v-.7h3.5V238h.8v1.2h2.2v.7h-2.2v1.1h-.8v-1.1zm9.5 7.2v3.9c0 .2-.1.4-.2.6s-.4.3-.7.4c-.3.1-.9.1-1.6.1l-.4-.8c.1 0 .3 0 .5.1h.6c.3 0 .5 0 .7-.1.2-.1.3-.2.3-.4v-3.1h-4.9v2.1c1.2-.2 1.9-.3 2.1-.3-.3-.5-.5-.8-.6-.9l.5-.3c.5.7 1 1.4 1.4 2.3l-.6.4c-.1-.2-.2-.5-.4-.9-.9.2-2.9.5-5.9.9-.1 0-.3 0-.5.1l-.2-.8h.7c.5 0 1.4-.2 2.7-.4v-2.2h-4.6v4.4h-.8v-4.4h-1v-.7h1v-.9h.8v.9h4.6v-1.2h-4.2v-4.3h9.4v4.3h-4.4v1.2h5.7zm-6.5-5h-3.4v1.3h3.4v-1.3zm-3.4 1.8v1.4h3.4v-1.4h-3.4zm7.8-.5v-1.3h-3.6v1.3h3.6zm-3.6 1.9h3.6v-1.4h-3.6v1.4zm5.4-6.1h1.1v.7h-3.4v1.1h-.8v-1.1h-2.2v-.7h2.2V238h.8v1.2h2.3zm9.2 0c-.2.5-.4 1.1-.8 1.7l-1.2 1.8c-.4.6-.9 1.1-1.4 1.6-.5.5-.9.8-1.3 1.1-.1-.1-.3-.4-.6-.6.3-.2.7-.5 1.1-.9.5-.4 1-.9 1.5-1.6s1-1.3 1.3-1.8.6-1.1.7-1.6l.8.2-.1.1zm3.5 7.5.7-.4c.6.7 1.2 1.5 1.9 2.5s1.3 2 1.9 3l-.8.4c-.2-.4-.5-.9-.9-1.6-1.3.1-4.3.4-9.1.9-.4 0-.7.1-.9.1l-.3-.8c.5-.3 1-.8 1.5-1.3.5-.6 1-1.2 1.4-1.9s.9-1.4 1.2-2.1c.4-.7.6-1.2.8-1.6l.8.4-.2.3c-.4.9-.9 1.8-1.6 2.7-.6 1-1.1 1.7-1.5 2.2-.4.5-.8.9-1.1 1.2.5 0 1.3-.1 2.2-.2.9-.1 2-.2 3.2-.3 1.2-.1 2.2-.2 3-.3-.6-1.2-1.4-2.3-2.2-3.2zm.8-8.3c.2.6.4 1.1.7 1.7.3.6.7 1.2 1.1 1.7.4.6.9 1.1 1.4 1.6.5.5 1 .8 1.5 1.1l-.5.7c-.4-.2-.7-.5-1.1-.8-.4-.3-.7-.6-1.1-1-.4-.4-.7-.8-1-1.2-.3-.4-.6-.9-.9-1.5-.3-.5-.6-1.1-.8-1.7h-2.6v-.7h3.3zm20.1 12.3h1.2v.8h-13.8v-.8h6.4v-2.3h-5.4v-.8h5.4v-2h-4.6v-6.9h10v6.9h-4.7v2h5.4v.8h-5.4v2.3h5.5zm-6.2-11.1h-3.8v2.3h3.8v-2.3zm-3.8 2.9v2.5h3.8v-2.5h-3.8zm8.4-.6v-2.3h-3.9v2.3h3.9zm-3.9 3.1h3.9v-2.5h-3.9v2.5zm12.1-3.5v10.6h-.9v-3.8c0-1.5.1-3.4.1-5.6-.3.5-.6 1.1-1 1.6s-.7 1-1 1.3c-.1-.2-.3-.5-.4-.8.7-.8 1.5-1.9 2.1-3.3.7-1.3 1.2-2.6 1.5-3.8l.8.3-.1.1c-.2.5-.4 1.1-.6 1.7-.1.7-.3 1.3-.5 1.7zm7.2 4.6c.2.4.6.9 1 1.4.5.5 1 1.1 1.7 1.6s1.3.9 1.9 1.2l-.4.7c-.3-.1-.6-.3-1-.6-.4-.2-.8-.6-1.2-1s-.9-.8-1.3-1.3-.7-1-1-1.4v5.5h-.9v-5.5c-.2.3-.5.7-.8 1.1-.3.4-.6.8-1 1.2-.4.4-.8.8-1.3 1.1-.5.4-1 .7-1.5 1l-.4-.7c.7-.3 1.3-.8 2-1.3s1.2-1 1.6-1.5c.4-.5.8-1 1-1.4h-4.3v-.8h4.7v-2.1h-3.2V239h7.3v4.3h-3.3v2.1h4.6v.8h-4.2zm-3.6-6.6v3h5.7v-3h-5.7zm23.8 0v12.7h-.8V251h-10.7v1.2h-.8v-13.5h12.4l-.1.8zm-11.5 10.7h10.7v-10.8h-10.7v10.8zm8.7-8h.8v.7h-3.8v2h2.4v3.7h-5.5v-3.7h2.4v-2h-3.8v-.7h3.8v-1.9h.8v1.9h2.9zm-1.4 5.8v-2.4h-3.9v2.4h3.9zm-225.7 22.5c.5-.2 1.1-.4 1.6-.6.6-.3 1.1-.6 1.6-.9s1.1-.8 1.6-1.3 1-1 1.4-1.5h-3.5v-.8h4.6c.9 1.2 2 2.3 3.3 3.2s2.5 1.5 3.7 1.9c-.1.2-.2.4-.4.7-1.3-.4-2.5-1-3.7-1.9-1.2-.9-2.3-1.9-3.2-3.1-.3.4-.7.9-1.2 1.4s-1 1-1.6 1.4-1.2.9-1.9 1.2c-.7.4-1.4.7-2.2.9.2 0 0-.3-.1-.6zm7.5 7.4h6.6v.8h-13.9v-.8h6.4v-3.1h-4.6v-.8h4.6v-2.7h-3.8v-.8h8.6v.8h-4v2.7h4.8v.8h-4.8v3.1zm22.1-1.8h1.2v.8h-6.5v2.3h-.8v-2.3h-6.4v-.8h6.4v-1.6h-4.4V269h4.4v-1.7h-5.9v-.8h5.9v-1.7h.9v1.6h6.1v.8h-6.1v1.7h4.5v5.5h-4.5v1.6h5.2zm-6.1-6.4h-3.6v1.7h3.6v-1.7zm-3.6 2.4v1.8h3.6v-1.8h-3.6zm8.1-.7v-1.7h-3.7v1.7h3.7zm-3.7 2.4h3.7V272h-3.7v1.8zm9.3 4.8c.5-.4 1-.9 1.5-1.5s.9-1.1 1.1-1.6l.7.4c-.2.5-.6 1-1.1 1.6-.5.6-1 1.1-1.5 1.6l-.1-.1c-.1-.1-.2-.1-.3-.2-.2-.1-.3-.2-.3-.2zm1.2-3.5v-9.5h5.6v9.5h-5.6zm4.7-8.8h-4v2.2h4v-2.2zm-3.9 5.1h4v-2.2h-4v2.2zm0 3h4v-2.3h-4v2.3zm2.7 1.6.6-.4c.4.4.8.9 1.2 1.4.4.5.8 1 1 1.3l-.3.3c-.2.1-.3.3-.3.3-.2-.4-.6-.9-1-1.4-.4-.6-.8-1.1-1.2-1.5zm4.5-.6v-9.1h.9v9h-.9zm4.2-9.8v12.2c0 .3-.1.5-.2.6-.1.2-.3.3-.5.3-.2.1-.5.1-.8.2-.3 0-.8.1-1.3.1l-.5-.9c.6.1 1 .1 1.3.1h.7c.2 0 .4-.1.4-.2.1-.1.1-.2.1-.3v-12.5h.9c-.1.1-.1.3-.1.4zm16.4.8h1.2v.8h-14v-.8h6.8c-.3-.6-.5-1-.7-1.3l.8-.2c.3.5.6 1 .8 1.6h5.1zm-5.2 8.9h6.4v.7h-6.1c.1.4.2.9.2 1.3s0 .6-.1.9l-.3.6c-.1.1-.3.2-.6.3-.2.1-.6.1-.9.1-.6 0-1.1 0-1.6-.1l-.3-.8c.6.1 1.2.1 1.7.1.4 0 .7 0 .8-.1.2-.1.3-.2.4-.3.1-.2.1-.4.1-.7 0-.5-.1-.9-.2-1.3h-7.1v-.7h6.8c-.1-.1-.1-.2-.3-.4-.1-.1-.2-.3-.3-.4l.6-.1c1.7-.4 3.1-.9 4.2-1.4h-9.4v-.7h10.4l.1-.1c.2.1.4.3.7.5l-.3.1c-.7.4-1.4.7-2.2 1-.8.3-1.4.5-1.8.6-.5.1-.8.2-.9.3-.1.3-.1.5 0 .6zm-4.9-4.2v-2.8h8.5v2.8h-8.5zm7.8-2.1h-6.9v1.5h6.9V269zm18.9-2.1h1.2v.8h-8c-.4.8-.8 1.6-1.3 2.3h6.9v7.8c0 .3-.1.5-.2.7-.1.2-.4.3-.8.4-.4.1-1.1.1-2 .1l-.5-.9c.7.1 1.1.1 1.2.1h.2c.4 0 .7 0 .9-.1.2-.1.4-.2.4-.4v-1.8h-6.1v3.3h-.8v-8.1c-.4.5-.8.9-1.2 1.3-.4.4-.9.8-1.3 1-.4.3-.8.5-1.1.7-.1-.2-.3-.4-.5-.6 1.2-.7 2.2-1.5 3.1-2.5.9-1 1.6-2.1 2.2-3.4h-4.8v-.8h5.1c.1-.3.2-.6.4-1l.3-1.2.8.2-.1.1c-.1.2-.2.6-.3 1-.1.4-.2.7-.3.9h6.6zm-2 3.8h-6.1v2h6.1v-2zm-6.1 4.6h6.1v-2h-6.1v2zm17.8 3.1v-3h-6v-.8l5.7-8.3h1.1v8.4h1.9v.7h-1.9v3h-.8zm0-7.7v-3.8c-.3.6-.9 1.5-1.8 2.7l-3.4 5.1h5.2v-4zm17.9 3.9h1.2v.8h-6v3.8h-.9v-3.8h-7.2v-.8h2.9v-3.9h4.3V268h-3.8c-.3.4-.6.9-1.1 1.4s-.9 1-1.4 1.4l-.6-.6c.5-.4 1.1-.9 1.6-1.6.6-.7 1-1.4 1.4-2s.6-1.2.8-1.7l.8.2-.1.1c-.3.7-.6 1.4-1 2h9.1v.7h-4.9v2.7h4.4v.7h-4.4v3.2h4.9zm-9.1 0h3.5v-3.2h-3.5v3.2zm17.1 3.8v-7.2c0-1.6 0-2.9.1-4-.4.4-.9.8-1.6 1.4l-.7.6-.5-.6 2.8-2.3h.7v12.1h-.8zm6.6 0v-.8c1-.8 2-1.6 2.7-2.4.8-.8 1.4-1.5 2-2.1.5-.7.9-1.3 1.2-1.9.3-.6.4-1.2.4-1.7 0-.8-.2-1.5-.7-1.9-.5-.4-1.1-.7-2-.7-.4 0-.9.1-1.4.2s-1 .4-1.4.6l-.1-.8 1.5-.6c.5-.2 1.1-.2 1.5-.2 1.1 0 2 .3 2.6.8.6.5.9 1.3.9 2.4 0 .5-.1.9-.2 1.4-.2.5-.4 1-.7 1.4-.3.5-.7 1-1.1 1.5s-.9 1-1.4 1.6c-.8.8-1.8 1.6-2.8 2.4h6.3v.7h-7.3zm14.1-11.5h-3.5v-.7h3.5V265h.8v1.2h2.2v.7h-2.2v1.1h-.8v-1.1zm9.5 7.2v3.9c0 .2-.1.4-.2.6s-.4.3-.7.4c-.3.1-.9.1-1.6.1l-.4-.8c.1 0 .3 0 .5.1h.6c.3 0 .5 0 .7-.1.2-.1.3-.2.3-.4v-3.1h-4.9v2.1c1.2-.2 1.9-.3 2.1-.3-.3-.5-.5-.8-.6-.9l.5-.3c.5.7 1 1.4 1.4 2.3l-.6.4c-.1-.2-.2-.5-.4-.9-.9.2-2.9.5-5.9.9-.1 0-.3 0-.5.1l-.2-.8h.7c.5 0 1.4-.2 2.7-.4v-2.2h-4.6v4.4h-.8v-4.4h-1v-.7h1v-.9h.8v.9h4.6v-1.2h-4.2v-4.3h9.4v4.3h-4.4v1.2h5.7zm-6.5-5h-3.4v1.3h3.4v-1.3zm-3.4 1.8v1.4h3.4v-1.4h-3.4zm7.8-.5v-1.3h-3.6v1.3h3.6zm-3.6 1.9h3.6v-1.4h-3.6v1.4zm5.4-6.1h1.1v.7h-3.4v1.1h-.8v-1.1h-2.2v-.7h2.2V265h.8v1.2h2.3zm9.2 0c-.2.5-.4 1.1-.8 1.7l-1.2 1.8c-.4.6-.9 1.1-1.4 1.6-.5.5-.9.8-1.3 1.1-.1-.1-.3-.4-.6-.6.3-.2.7-.5 1.1-.9.5-.4 1-.9 1.5-1.6s1-1.3 1.3-1.8.6-1.1.7-1.6l.8.2-.1.1zm3.5 7.5.7-.4c.6.7 1.2 1.5 1.9 2.5s1.3 2 1.9 3l-.8.4c-.2-.4-.5-.9-.9-1.6-1.3.1-4.3.4-9.1.9-.4 0-.7.1-.9.1l-.3-.8c.5-.3 1-.8 1.5-1.3.5-.6 1-1.2 1.4-1.9s.9-1.4 1.2-2.1c.4-.7.6-1.2.8-1.6l.8.4-.2.3c-.4.9-.9 1.8-1.6 2.7-.6 1-1.1 1.7-1.5 2.2-.4.5-.8.9-1.1 1.2.5 0 1.3-.1 2.2-.2.9-.1 2-.2 3.2-.3 1.2-.1 2.2-.2 3-.3-.6-1.2-1.4-2.3-2.2-3.2zm.8-8.3c.2.6.4 1.1.7 1.7.3.6.7 1.2 1.1 1.7.4.6.9 1.1 1.4 1.6.5.5 1 .8 1.5 1.1l-.5.7c-.4-.2-.7-.5-1.1-.8-.4-.3-.7-.6-1.1-1-.4-.4-.7-.8-1-1.2-.3-.4-.6-.9-.9-1.5-.3-.5-.6-1.1-.8-1.7h-2.6v-.7h3.3zm20.1 12.3h1.2v.8h-13.8v-.8h6.4v-2.3h-5.4v-.8h5.4v-2h-4.6v-6.9h10v6.9h-4.7v2h5.4v.8h-5.4v2.3h5.5zm-6.2-11.1h-3.8v2.3h3.8v-2.3zm-3.8 2.9v2.5h3.8v-2.5h-3.8zm8.4-.6v-2.3h-3.9v2.3h3.9zm-3.9 3.1h3.9v-2.5h-3.9v2.5zm12.1-3.5v10.6h-.9v-3.8c0-1.5.1-3.4.1-5.6-.3.5-.6 1.1-1 1.6s-.7 1-1 1.3c-.1-.2-.3-.5-.4-.8.7-.8 1.5-1.9 2.1-3.3.7-1.3 1.2-2.6 1.5-3.8l.8.3-.1.1c-.2.5-.4 1.1-.6 1.7-.1.7-.3 1.3-.5 1.7zm7.2 4.6c.2.4.6.9 1 1.4.5.5 1 1.1 1.7 1.6s1.3.9 1.9 1.2l-.4.7c-.3-.1-.6-.3-1-.6-.4-.2-.8-.6-1.2-1s-.9-.8-1.3-1.3-.7-1-1-1.4v5.5h-.9v-5.5c-.2.3-.5.7-.8 1.1-.3.4-.6.8-1 1.2-.4.4-.8.8-1.3 1.1-.5.4-1 .7-1.5 1l-.4-.7c.7-.3 1.3-.8 2-1.3s1.2-1 1.6-1.5c.4-.5.8-1 1-1.4h-4.3v-.8h4.7v-2.1h-3.2V266h7.3v4.3h-3.3v2.1h4.6v.8h-4.2zm-3.6-6.6v3h5.7v-3h-5.7zm23.8 0v12.7h-.8V278h-10.7v1.2h-.8v-13.5h12.4l-.1.8zm-11.5 10.7h10.7v-10.8h-10.7v10.8zm8.7-8h.8v.7h-3.8v2h2.4v3.7h-5.5v-3.7h2.4v-2h-3.8v-.7h3.8v-1.9h.8v1.9h2.9zm-1.4 5.8v-2.4h-3.9v2.4h3.9zm-196.3-152h-23.5v10c0 4-.4 7.6-1.1 10.8-.8 3.2-1.8 5.6-3.1 7.2l-1.5-1.3c1.2-1.5 2.1-3.7 2.8-6.7.7-3 1.1-6.3 1.1-10.1v-11.5h27.8v1.8c-.6-.1-1.4-.2-2.5-.2zm-15.2 19.6-.3.3c-.3.6-.8 1.3-1.4 2.2-.6.8-1.4 1.7-2.3 2.6-.9.9-1.8 1.6-2.6 2.2-.7-.6-1.2-1-1.4-1.3 1.2-.7 2.3-1.7 3.5-2.9s2.1-2.5 2.8-3.9c.4.2 1 .5 1.7.8zm6.8-3.2v7.9l.1 1.8c0 .5-.1.9-.3 1.2-.2.3-.5.6-1 .8-.5.2-1.1.4-2 .5-.8.1-1.9.1-3.1.1l-1-1.9c.7.1 1.7.2 2.8.2.8 0 1.4-.1 1.9-.2.5-.2.7-.5.7-1v-9.3h-8.7c0-.4.1-.8.1-1v-9.7c0-.3 0-.6-.1-1h7.2c.8-1.6 1.3-3 1.7-4.2l1.9.6-.2.4c-.3 1-.8 2.1-1.4 3.3h9.4v11.7h-8zm6.1-10.3h-15v3.5h15v-3.5zm-14.9 5v3.7h15v-3.7h-15zm14.8 7.6c.8.7 1.7 1.7 2.9 2.9 1.1 1.2 2.3 2.5 3.4 4l-1.5 1.2c-.8-1.2-1.8-2.4-2.9-3.6-1.1-1.2-2.2-2.4-3.4-3.5l1.5-1zm41.9-17.3h-24.9v9.3c0 3.8-.3 7.2-.9 10.2-.6 3-1.4 5.3-2.5 6.9-.6-.6-1.1-1-1.5-1.2 1-1.5 1.7-3.6 2.3-6.4.6-2.8.8-6 .8-9.6v-10.1l-.1-.6h14.1c-.4-.8-1-1.8-1.7-2.8l1.5-.7c.4.5.8 1.1 1.1 1.7.4.6.7 1.2 1 1.8h13.2v1.7c-.4-.2-1.2-.2-2.4-.2zm-11.1 9.1v15.2c0 .5-.2.9-.5 1.3-.3.3-.9.5-1.5.6-.7.1-1.4.2-2.2.2l-.8-1.7c.7.1 1.3.1 1.8.1s.9-.1 1.2-.2c.3-.1.5-.3.5-.7v-13.5h-8.6v16.5h-1.6c0-.2.1-.6.1-1.2V134l-.1-.5h5.3v-6.6l-.1-.9c.8 0 1.3 0 1.7.1 0 .2-.1.5-.1.9v6.6h4.9zm-9.6-1.2c-.5-1.4-1.1-2.9-1.8-4.6l1.3-.4c.3.6.6 1.3.9 2.2s.6 1.6.8 2.4l-1.2.4zm2.3 12.9v1.7h-1.2v-9.3h5.2v7.7h-4zm2.7-6.4h-2.7v5.3h2.7v-5.3zm1.2-6.8c.4-.6.8-1.3 1.2-2.3.4-1 .8-1.8 1.1-2.7l1.4.5-.2.3c-.2.7-.6 1.5-1 2.4-.4.9-.8 1.7-1.2 2.4l-1.3-.6zm11.7 12.4c1.4 2.4 3.4 4.2 5.8 5.5-.2.4-.4.9-.7 1.5-.9-.5-1.7-1.1-2.5-1.7-.8-.7-1.5-1.4-2.1-2.1s-1-1.3-1.4-1.9c-.7 1.2-1.6 2.2-2.6 3.2-1 .9-2.1 1.8-3.3 2.5l-.8-1.5c1.4-.8 2.5-1.6 3.5-2.5.9-.9 1.7-1.9 2.3-3.1-1.3-2.4-2.2-5.5-2.8-9.1-.6 1.1-1.2 2-1.8 2.7l-1-1.4c.9-.9 1.7-2.4 2.6-4.4s1.5-4.2 1.9-6.4l1.6.3-.1.3c-.3 1.5-.8 3.2-1.4 4.9h8.1v1.6h-2.3c-.5 4.5-1.4 8.4-3 11.6zM1081 133c.5 3.9 1.3 7.2 2.6 9.8 1.3-2.7 2.1-6.1 2.4-10h-4.9l-.1.2zm31.1-6.5h-12.3v6.2h-1.8c0-.3.1-.6.1-.9V126c0-.2 0-.5-.1-.9h14.1v-2.8H1102c-1.1 0-1.9 0-2.4.1v-1.6h27v1.6c-.5 0-1.3-.1-2.4-.1h-10.3v2.8h14.2v7.5h-1.8v-6.2h-12.4v8.3h-1.8c0-.2.1-.6.1-1.2v-7zm15.3 18c.2.1.4.3.7.5.3.2.6.4.9.5-.1 1.6-.4 2.8-1 3.5-.6.8-1.5 1.3-2.7 1.7s-2.9.5-5.1.5c-2.1 0-3.7 0-4.7-.1s-1.7-.2-2-.4c-.4-.2-.8-.6-1-1-.2-.4-.3-1-.3-1.8v-1.3h-8.9v2.5h-1.7l.1-1v-10.7l-.1-1.1h23.2v10.3h-10.9v1.2c0 .8.4 1.4 1.1 1.6.8.1 2.6.2 5.5.2 2.4 0 4.2-.3 5.3-.9.6-.3 1-.8 1.2-1.5s.4-1.4.4-2.7zm-18-15.6v1.2h-6.9v-1.2h6.9zm-5.6 3.6h5.7v1.2h-6.9v-1.2h1.2zm8.4 5.2h-8.9v3.1h8.9v-3.1zm-8.9 7.6h8.9v-3.2h-8.9v3.2zm19.8-4.5v-3.1h-9.3v3.1h9.3zm-9.3 4.5h9.3v-3.2h-9.3v3.2zm9.5-16.4v1.2h-6.9v-1.2h6.9zm-5.6 3.6h5.7v1.2h-6.9v-1.2h1.2zm25.7 1-.9 1.5c-.4-.3-1.2-.8-2.4-1.6s-2.6-1.5-4.2-2.3l.9-1.5c1 .5 2.1 1.1 3.4 1.9 1.3.7 2.4 1.4 3.2 2zm-6.1 14.9c1-1.2 2.3-2.9 3.7-5.1 1.5-2.2 2.5-3.8 3.2-5l1.1 1.7c-.5.8-1.2 1.9-2.1 3.3-.9 1.4-1.8 2.7-2.6 3.8-.8 1.1-1.5 1.9-1.9 2.5-.3.4-.5.8-.8 1.1l-1.5-1.5.9-.8zm7.6-23.4-.9 1.5c-.9-.8-2-1.6-3.2-2.4-1.2-.8-2.3-1.4-3.2-1.9l.9-1.5c1 .6 2.1 1.2 3.3 2 1.2.9 2.2 1.6 3.1 2.3zm20.9 17.7c.5.4 1 .7 1.7 1.1-.1 1.4-.2 2.5-.5 3.3-.3.8-.7 1.5-1.3 2.1-.6.6-1.6 1.1-2.8 1.4s-3.1.5-5.5.5c-1.9 0-3.3 0-4.3-.1s-1.8-.2-2.4-.5c-.9-.3-1.6-.9-2-1.6-.4-.7-.6-1.7-.6-2.8v-10.9l-1.8.7c-.9.3-1.5.6-2 .8l-.4-1.8 2.1-.7 2.1-.8v-10.5l1.9.1c0 .1-.1.3-.1.5v9.1l5.9-2.3V120c.4 0 1 0 1.8.1v9.6l7.5-2.9.3-.3c.6.4 1.1.8 1.5 1.2l-.3.1c0 2.8 0 5-.1 6.5s-.3 2.6-.6 3.4c-.1.3-.3.6-.5.8-.2.3-.5.5-.8.7-.4.2-.9.4-1.5.6s-1.4.2-2.4.2c-.2-.5-.4-1.2-.8-2.1.5.2 1 .3 1.7.3 1.4 0 2.3-.5 2.7-1.4.1-.4.2-.8.3-1.4.1-.6.1-1.4.2-2.5 0-1.1.1-2.5.1-4.2l-7.2 2.7v10.4l.1 1.4h-1.9l.1-1.4V132l-5.9 2.3V146c0 .4.1.9.2 1.3s.4.8.7 1.1c.3.3.8.5 1.3.6.3.1.7.1 1.4.2.7 0 2 .1 4.1.1 1.5 0 2.8-.1 3.9-.3 1-.2 1.9-.5 2.5-.9.6-.4 1.1-1.1 1.4-1.9 0-.7.2-1.9.2-3.5zm9.4 7.2 9.9-27.1h1.5l-9.9 27.1h-1.5zm34-23.4H1197v6.2h-1.8c0-.3.1-.6.1-.9V126c0-.2 0-.5-.1-.9h14.1v-2.8h-10.2c-1.1 0-1.9 0-2.4.1v-1.6h27v1.6c-.5 0-1.3-.1-2.4-.1H1211v2.8h14.2v7.5h-1.8v-6.2H1211v8.3h-1.8c0-.2.1-.6.1-1.2v-7zm15.3 18c.2.1.4.3.7.5.3.2.6.4.9.5-.1 1.6-.4 2.8-1 3.5-.6.8-1.5 1.3-2.7 1.7s-2.9.5-5.1.5c-2.1 0-3.7 0-4.7-.1s-1.7-.2-2-.4c-.4-.2-.8-.6-1-1-.2-.4-.3-1-.3-1.8v-1.3h-8.9v2.5h-1.7l.1-1v-10.7l-.1-1.1h23.2v10.3H1211v1.2c0 .8.4 1.4 1.1 1.6.8.1 2.6.2 5.5.2 2.4 0 4.2-.3 5.3-.9.6-.3 1-.8 1.2-1.5s.3-1.4.4-2.7zm-18-15.6v1.2h-6.9v-1.2h6.9zm-5.6 3.6h5.7v1.2h-6.9v-1.2h1.2zm8.4 5.2h-8.9v3.1h8.9v-3.1zm-8.9 7.6h8.9v-3.2h-8.9v3.2zm19.8-4.5v-3.1h-9.3v3.1h9.3zm-9.3 4.5h9.3v-3.2h-9.3v3.2zm9.5-16.4v1.2h-6.9v-1.2h6.9zm-5.6 3.6h5.7v1.2h-6.9v-1.2h1.2zm46.8 12.3h2.7v1.8c-.6 0-1.5-.1-2.7-.1h-12v5.2h-1.9v-5.2H1236c-1.2 0-2.1 0-2.7.1v-1.8h14.4v-3.7h-9.9c0-.4.1-.8.1-1v-10c0-.3 0-.6-.1-1h9.9v-3.9H1237c-1.2 0-2 0-2.5.1v-1.7h13.4v-2.8l-.1-.9c.8 0 1.4 0 1.9.1 0 .3-.1.6-.1.9v2.8h13.7v1.7c-.5 0-1.4-.1-2.5-.1h-11.2v3.9h10.2v12h-10.2v3.7h12zm-13.8-14.3h-8.1v3.8h8.1v-3.8zm-8 5.2v4h8.1v-4h-8.1zm18.1-1.5v-3.8h-8.3v3.8h8.3zm-8.3 5.4h8.3v-4h-8.3v4zm-191 31.4c1.2 0 2.1 0 2.7-.1v1.7h-31.6v-1.7c.6 0 1.5.1 2.7.1h12.6c-.6-1.3-1.1-2.3-1.6-3l1.7-.5c.6 1 1.3 2.2 1.9 3.5h11.6zm-11.6 20h11.6c1.2 0 2.1 0 2.7-.1v1.7h-13.7c.3 1 .4 2 .4 3 0 .8-.1 1.4-.2 2-.1.5-.4.9-.7 1.2s-.8.5-1.3.7c-.6.1-1.3.2-2.1.2-1.3 0-2.5 0-3.6-.1l-.7-1.8c1.4.2 2.7.3 3.9.3.9 0 1.5-.1 1.9-.2.4-.1.7-.4.8-.8.2-.4.3-.9.3-1.6 0-1.1-.1-2-.4-2.8h-16V191c.6 0 1.5.1 2.7.1h12.6c-.1-.2-.3-.5-.6-.8s-.5-.6-.7-.8l1.3-.1c3.7-1 6.9-2 9.4-3.1h-19c-1 0-1.7 0-2.2.1v-1.6c.5 0 1.2.1 2.2.1h21.1l.2-.2c.5.3 1 .7 1.5 1.2l-.6.2c-1.6.8-3.2 1.6-4.9 2.2-1.7.6-3.1 1.1-4.1 1.4-1.1.3-1.8.5-2.1.6-.1 0 .1.3.3.7zm-11-9.5c0-.3.1-.6.1-.8v-4.5c0-.2 0-.5-.1-.9h19.2v6.2H1036zm17.4-4.8h-15.5v3.4h15.5v-3.4zm43.4-4.5h2.6v1.7c-.5 0-1.4-.1-2.6-.1h-15.2c-.9 1.9-1.9 3.6-2.9 5.3h15.6v17.6c0 .6-.2 1.2-.5 1.5-.3.4-1 .7-1.9.9-.9.2-2.4.3-4.4.3l-1.1-1.9c1.6.1 2.5.2 2.6.2h.5c.9 0 1.6-.1 2.1-.3.6-.2.8-.5.8-1v-4.1h-13.8v6l.1 1.4h-1.9l.1-1.4v-16.8c-.8 1.1-1.8 2.1-2.8 3-1 .9-2 1.7-2.9 2.4-.9.6-1.7 1.1-2.4 1.5-.2-.4-.6-.8-1.1-1.4 2.6-1.5 4.9-3.3 6.9-5.6s3.7-4.8 5-7.6h-8.1c-1.2 0-2.1 0-2.6.1v-1.7h11.5c.2-.6.5-1.3.8-2.3.3-.9.6-1.8.8-2.6l1.8.4-.1.3c-.1.6-.4 1.3-.7 2.2-.3.9-.5 1.6-.7 2.1h14.5zm-4.4 8.4h-13.8v4.5h13.8v-4.5zm-13.7 10.2h13.8v-4.4h-13.8v4.4zm34.2-15.1V198l.1 1.5h-2l.1-1.5v-1.2c0-.6 0-2.6.1-5.9 0-3.3.1-7.5.3-12.7-.6 1.2-1.4 2.4-2.2 3.6-.8 1.2-1.6 2.2-2.3 3-.2-.5-.6-1.1-1-1.7 1.7-1.9 3.3-4.3 4.8-7.3 1.6-3 2.7-5.8 3.4-8.4l1.7.6-.1.3c-.4 1.2-.8 2.5-1.3 3.8-.6 1.3-1.1 2.6-1.6 3.6zM1129 186c.6.9 1.3 2 2.4 3.2 1 1.2 2.3 2.4 3.7 3.5s2.9 2 4.3 2.6l-1 1.6c-.7-.3-1.4-.8-2.3-1.3-.8-.6-1.8-1.3-2.8-2.2-1-.9-2-1.9-2.9-3s-1.6-2.1-2.2-3.2l.1 11.2c0 .5 0 .9.1 1.2h-1.9v-1.2l.1-11.3c-.5.7-1 1.5-1.7 2.4-.7.9-1.4 1.7-2.3 2.6-.9.9-1.9 1.7-2.9 2.6-1.1.8-2.2 1.5-3.4 2.1l-1-1.5c1.5-.7 3-1.7 4.4-2.8 1.5-1.2 2.7-2.3 3.6-3.5 1-1.2 1.7-2.2 2.2-3.1h-9.5v-1.7h10.5v-4.7h-7.3c0-.4.1-.8.1-1v-8c0-.2 0-.6-.1-1h16.4v10h-7.4v4.7h10.3v1.7h-9.5zm-7.9-14.8v6.8h12.7v-6.8h-12.7zm54.4 0V198l.1 1.7h-1.9V197h-24v2.7h-1.9l.1-1.7v-26.8l-.1-1.7h27.8l-.1 1.7zm-25.9 24.1h24v-24.2h-24v24.2zm19.6-18h1.9v1.7h-8.7v4.5h5.3v8.4h-12.3c0-.4.1-.7.1-.9v-6.6c0-.2 0-.6-.1-.9h5.3V179h-8.5v-1.7h8.5v-3.5l-.1-1c.9 0 1.5 0 1.9.1 0 .3-.1.6-.1.9v3.4h6.8zm-3.2 13v-5.5h-8.9v5.5h8.9zm31.2-20.6-.1 1.5v23.7l.1 2.1c0 .8-.3 1.4-1 1.8-.7.4-1.9.6-3.7.6-.3-.7-.6-1.3-.9-1.9.8.1 1.4.1 2 .1s1-.1 1.4-.2c.3-.1.5-.4.5-.8v-8.8h-6.5c-.3 2.6-.8 4.9-1.4 6.9-.6 2-1.4 3.6-2.3 4.7l-1.4-1.3c1.1-1.5 2-3.6 2.7-6.3.7-2.7 1-5.9 1-9.5v-12.7h9.6zm-8.1 16.6h6.4v-6.8h-6.2v3.1c-.1 1.4-.1 2.6-.2 3.7zm6.3-14.9h-6.2v6.6h6.2v-6.6zm15 21.1c.8 1 1.7 2 2.8 2.8 1 .9 2.2 1.6 3.4 2.2l-.9 1.6c-2.4-1.4-4.5-3.1-6.2-5.3-1.6 2.1-3.4 3.7-5.4 4.7l-1-1.5c1-.5 2-1.2 2.9-2 .9-.8 1.7-1.7 2.5-2.7-.6-.9-1.1-1.8-1.6-2.8-.5-1-.9-2.1-1.3-3.2s-.7-2.4-1-3.8h-2.2v14.7c0 .7 0 1.4.1 2.1h-1.9c0-.7.1-1.4.1-2.1v-27.5h14v.6c0 1.6-.1 2.9-.2 3.7-.1.8-.2 1.5-.4 1.9-.3.7-.8 1.2-1.6 1.5-.8.3-1.9.5-3.4.5-.1-.4-.4-1.1-.8-1.9.5.2 1.1.3 1.7.3 1.3 0 2.1-.4 2.4-1.1.2-.4.3-.9.3-1.6.1-.7.1-1.4.1-2.2h-10.4v9.8h10.3l.2-.2c.4.3.9.6 1.4 1.2l-.3.1c-.3 1.9-.8 3.8-1.4 5.5-.5 1.7-1.3 3.3-2.2 4.7zm-4.2-10c.6 3.2 1.6 6 3.2 8.5 1.4-2.4 2.4-5.2 3-8.5h-6.2zm31.9-1.4-.3.1c-.5 1.2-1.1 2.5-1.8 3.8-.8 1.3-1.5 2.3-2.2 3.1-.4-.3-.8-.6-1.3-.9.6-.6 1.2-1.4 1.9-2.5s1.2-2.1 1.7-3h-4.4v15.1c0 .4-.1.8-.3 1.2-.2.3-.5.6-.9.8-.4.2-1.1.4-1.8.5-.8.1-1.8.1-2.9.1l-1-1.9s.4 0 1 .1 1.2.1 1.7.1c.7 0 1.4-.1 1.8-.2.5-.2.7-.5.7-1v-7.2c0-.7 0-1.7.1-3 0-1.3.1-2.4.2-3.3-.2.6-.5 1.3-.8 2.1-.3.9-.8 1.9-1.3 3s-1.2 2.3-1.9 3.5c-.7 1.2-1.5 2.2-2.3 3.1 0 0-.1-.1-.1-.2-.1-.1-.1-.2-.2-.3l-.5-.5c-.2-.2-.4-.3-.4-.4.8-.8 1.7-2 2.6-3.5.9-1.5 1.7-2.9 2.3-4.3.6-1.4 1.1-2.7 1.5-3.7h-5.9v-1.6h13.2l.2-.3c.2.2.5.4.8.6.3.4.5.5.6.6zm-3.7-10.1h-10.6v-1.7h11.4l.2-.3c.5.4 1 .8 1.5 1.3l-.4.2c-.6.9-1.4 1.9-2.3 3-.9 1.1-1.8 2.1-2.6 2.8 1 .6 2 1.2 3 2l-1 1.4c-1-.8-2.2-1.7-3.8-2.6-1.6-.9-3.1-1.7-4.4-2.3l.9-1.2c1.1.4 2.4 1 3.9 1.8.6-.6 1.2-1.3 2-2.1.9-.6 1.6-1.5 2.2-2.3zm19.7 16.7v.6c0 2.5-.1 4.4-.2 5.7-.1 1.3-.3 2.3-.7 3-.4.8-1.1 1.3-2.1 1.7-1 .4-2.5.6-4.4.6 0-.1-.3-.8-.8-2 .6.2 1.3.3 2.1.3 2 0 3.2-.5 3.7-1.4.3-.5.5-1.3.6-2.4.1-1 .2-2.6.2-4.6h-6.2c-.3 1.2-.8 2.4-1.3 3.4-.6 1.1-1.3 2-2.1 2.9s-1.8 1.6-2.9 2.3c-1.1.7-2.3 1.2-3.6 1.6l-1.2-1.4c1.2-.4 2.3-.8 3.2-1.3s1.7-1.1 2.5-1.7c.7-.6 1.4-1.4 2.1-2.4s1.2-2.1 1.6-3.4h-7.2v-1.6h7.5c.1-.4.1-.9.2-1.5 0-.6.1-1.1.1-1.5v-.7s.6 0 1.8.1c0 .2-.1.3-.1.5 0 .4 0 .9-.1 1.6 0 .7-.1 1.2-.2 1.5h7.5zm-6.8-7.7c2.1 1.5 4.7 2.7 7.9 3.4l-.7 1.7c-3.4-.9-6.2-2.2-8.3-4-1.1.9-2.3 1.7-3.7 2.3s-3 1.2-4.6 1.6c-.2-.5-.5-.9-.8-1.5 3.2-.7 5.8-1.9 7.9-3.5-.4-.4-.9-.9-1.4-1.5-.6-.7-1-1.4-1.5-2.1s-.8-1.4-1-1.9c-.8 1.1-1.6 1.9-2.4 2.5-.3-.4-.7-.8-1.3-1.2.7-.5 1.5-1.3 2.2-2.2.7-.9 1.4-1.9 1.9-2.9s1-2 1.3-3.1l1.7.3-.2.3c-.1.4-.3.9-.6 1.6s-.5 1.2-.7 1.6h11.5v1.6h-3.3c-.7 2.7-2 5-3.9 7zm-5.2-7c.8 2.3 2.2 4.2 4 6 1.6-1.6 2.7-3.6 3.5-6h-7.5z" style="fill:#fff"/>
</svg>
