<svg xmlns="http://www.w3.org/2000/svg" width="586.9" height="274.5" style="overflow:visible;enable-background:new 0 0 586.9 274.5" xml:space="preserve">
    <style>
        .st1{fill:#fff}
    </style>
    <g style="opacity:.21">
        <path class="st1" d="M428.4 86.4c-.2-3.2-1.5-6.2-3.6-8.7-5.5-6.4-17.8-20.3-35-37.4-17.2-17.2-31.1-29.5-37.4-35-2.4-2.1-5.4-3.3-8.6-3.6-8.2-.6-26.1-1.7-51.2-1.7s-43 1.1-51.2 1.7c-3.2.2-6.2 1.5-8.7 3.6-6.4 5.5-20.3 17.8-37.4 35-17.8 17.8-29.7 31.2-35 37.4-2.1 2.4-3.3 5.5-3.6 8.6-.6 8.1-1.7 26.1-1.7 51.2 0 24.3 1.1 42.8 1.7 51.2.2 3.2 1.5 6.3 3.6 8.7 5.3 6.2 17.2 19.6 35 37.4 17.2 17.2 31.1 29.5 37.4 35 2.4 2.1 5.5 2.8 8.7 3 8.1.6 26.1 1.7 51.2 1.7s43-1.1 51.2-1.7c3.2-.2 6.2-.9 8.7-3 6.4-5.5 20.3-17.8 37.4-35 17.8-17.8 29.6-31.2 35-37.4 2.1-2.4 3.3-5.5 3.6-8.7.6-8.4 1.7-26.9 1.7-51.2 0-25-1.1-43-1.8-51.1zm-10.8 98.7c-.2 2.7-1.3 5.3-3 7.4-4.8 5.6-15.8 18.1-32.4 34.7-16.1 16.1-29 27.5-34.7 32.4-2.1 1.8-4.6 2.8-7.3 3-7.3.6-24 1.6-47.5 1.6s-40.1-1-47.5-1.6c-2.7-.2-5.3-1.3-7.3-3-5.7-4.9-18.7-16.4-34.7-32.4-16.6-16.6-27.6-29.1-32.4-34.7-1.8-2.1-2.8-4.6-3-7.4-.6-7.5-1.6-24.8-1.6-47.5 0-23.5 1-40.2 1.6-47.5.2-2.7 1.3-5.2 3-7.3 4.8-5.6 15.8-18.1 32.5-34.7 16.1-16.1 29-27.5 34.7-32.4 2.1-1.8 4.6-2.8 7.3-3 7.3-.6 24-1.6 47.5-1.6s40.1 1 47.5 1.6c2.7.2 5.3 1.3 7.3 3 5.7 4.9 18.7 16.4 34.7 32.4 16.1 16.1 27.5 29 32.4 34.7 1.8 2.1 2.8 4.6 3 7.3.6 7.3 1.6 24 1.6 47.5 0 22.7-1.1 40-1.7 47.5z"/>
        <path class="st1" d="M402.4 111.6c-.2-9.2-.9-17.2-1.2-19-.4-.7-1.4-1.9-2-2.5-7.9-8.9-15.8-17.6-26.6-28.3-21-20.9-32.3-30.8-35.1-32.7-2.1-.2-5.9-.5-16.3-1-8.3-.4-18.7-.6-19.6-.6 0 1.8-.2 139.8-.1 218.3 0 1.4.1 1.9.1 1.9s24.2.2 35.9-1.4c8-6.7 23.2-21.1 34.3-32.2 11.8-12 22-22.9 24.6-25.9 1.1-1.3 3.5-3.9 4.8-5.7.2-1.5.3-2.8.5-5.6.9-13.9 1-38.7 1-39.5-1.1-.1-37.3 0-38.1 0 0 .6.1 19 .1 19.1h18.4c0 .3-.5 15.7-.9 18.3-1.4 1.9-3.6 3.9-6 6.7-2.7 3-6.5 7-14.4 15.1-9.8 10.1-25.2 24.4-32 30.5.1-.9-.2-177.3-.1-179.1 1.8 1.5 6.1 5.4 7.3 6.6 8.3 7.8 17 15.8 24.1 23.2 10.3 10.8 20.7 22.1 21.2 22.9.1.8.6 10.2.6 11 .6 0 18.7-.1 19.5-.1M255.3 246.7c2.9.2 14.8.8 25.7.9h2.7v-218s-.1-.8-.1-2.1c-.7 0-6.5-.1-13.8.2-7.1.3-13.9.6-14.5.6-.3.6-9.1 18.8-18.2 41.3-11.9 29.5-16.8 44.2-16.8 44.2s-.4-.6-4.1-6.8c-6.1-10.4-12.6-22-16.3-27.3-.6-.9-1.8-2.6-1.8-2.6s-.2.1-1.2 1c-2.1 2-10.5 11.5-12.3 13.6-.9 1-.6.9-.7 1.2-.1 1.9-1.2 17.3-1.4 41-.2 24.3.3 37.1 1.5 48.6 2.7 3.3 4.7 5.8 10.6 12.1 3.3 3.5 9.6 10 9.6 10s-.8-10.9-.9-12.8c-.7-15.1-1.3-29.1-1.5-46.5v-21l9.1 15.9 12.9 22.8.4.4c4.6-12.1 10.4-28.6 16.4-44.5 4.8-12.5 9.8-24.2 14.1-35.4.3-.3.6-1.3.6-1.3s.2 21.9 0 25.9v138.6"/>
    </g>
    <path d="m17.9 181.6 14.8-18.1h3v38.9h-3v-34.5l-14.8 18.2L3 167.9v34.5H0v-38.9h3l14.9 18.1zm65-15.3v3.4c-4.6-2.6-9.2-3.9-13.8-3.9-4.9 0-9 1.6-12.3 4.9-3.3 3.3-4.9 7.4-4.9 12.3s1.6 9 4.8 12.3c3.2 3.3 7.6 4.9 13.2 4.9 4 0 7.6-.8 10.7-2.4v-10.5h-8.2v-2.5h11.2v14.9c-4.6 2.2-9.2 3.3-13.8 3.3-6 0-11.1-1.9-15.1-5.7-4-3.8-6.1-8.6-6.1-14.3 0-5.7 2-10.4 5.9-14.2 4-3.8 8.9-5.7 14.9-5.7 4.2-.1 8.6 1 13.5 3.2zm14.7.4h14.6c1 0 1.8 0 2.4-.1v2.5c-.6 0-1.4-.1-2.4-.1H97.6c-1 0-1.8 0-2.4.1v-2.5c.5.1 1.3.1 2.4.1zm15.2 22.8-.1 1.5v13.3l.1 1.5h-2.5v-3.1H99.8v3.1h-2.5c.1-.6.1-1.1.1-1.5V191c0-.4 0-.9-.1-1.5h15.5zm-2.8-12.8h-9.9l-2.1.1v-2.4l2.1.1h9.9l2-.1v2.4l-2-.1zm-12 7.5v-2.3l2.1.1h9.9l2-.1v2.3l-2-.1h-9.9l-2.1.1zm1.8 16.4h10.5v-8.9H99.8v8.9zm8.4-36.4-2.3 1.3c-1.4-2.8-2.8-5.1-4.3-7.2l2.2-1.2c.7.8 1.4 1.9 2.2 3.2s1.6 2.7 2.2 3.9zm7.1 35.5c.8-1.2 1.7-3 2.6-5.4.9-2.4 1.5-4.6 1.7-6.7l2.3 1-.2.3c-.5 2.5-1.1 4.9-1.9 7.2s-1.6 4.1-2.5 5.4l-2-1.8zm1.7-20.4c.9-.3 1.9-.8 2.9-1.5 1.1-.7 2.1-1.5 3.2-2.6s2-2.2 2.8-3.5c-2.3-1.3-4.8-2.5-7.5-3.6.4-.6.8-1.3 1.3-1.9 2.6 1.1 5.1 2.2 7.3 3.4.4-.9.8-1.8 1-2.8.3-1 .5-2 .6-2.8.1-.9.2-1.7.2-2.3h-8.4c-1.1 0-2 0-2.6.1v-2.5c.6 0 1.5.1 2.6.1h22.4l-.1.9c0 4.7-.1 8.3-.2 10.7-.1 2.4-.4 4.2-.9 5.3-.5 1.3-1.4 2.3-2.7 2.8-1.3.6-3 .8-5.1.8-.1-.3-.3-.8-.5-1.4-.2-.6-.5-1.2-.7-1.6.4.1.9.2 1.5.3.6.1 1.1.1 1.5.1.9 0 1.7-.2 2.3-.6s1.1-.9 1.4-1.6c.2-.6.4-1.4.5-2.2s.2-2 .2-3.6c.1-1.6.1-4.1.1-7.6h-9c-.1 4.3-1.4 8.3-3.6 11.9-2.3 3.6-5.2 6.2-8.8 7.8l-1.7-2.1zm17.7 22.4c.4-.6.7-1.3.9-2.3s.2-2.6.2-4.8c.1.1.4.2.8.5.4.2 1 .6 1.6 1.1 0 1.7-.1 3.2-.3 4.3-.2 1.1-.6 2.1-1.1 2.8-.5.7-1.2 1.3-2.2 1.6-.9.3-2.1.5-3.5.5-1.1 0-2 0-2.9-.1s-1.6-.3-2.3-.6c-1-.5-1.4-1.8-1.4-3.9v-14.4l-.1-.7 2.7.2-.1.5V201c0 1.1.4 1.7 1.3 1.8.4.1 1.4.2 2.9.2.8 0 1.4-.1 2-.3.7-.3 1.1-.6 1.5-1zm-5.8-21.6c1 .8 2.1 1.8 3.2 3.1 1.1 1.2 2.1 2.4 2.9 3.6l-1.8 1.8c-.6-1.1-1.5-2.3-2.7-3.6-1.2-1.3-2.2-2.4-3.2-3.2l1.6-1.7zm11.5 6.7c.9 1.4 1.8 3.2 2.8 5.6 1 2.3 1.8 4.5 2.5 6.7l-2.3 1.4c-.3-1-.6-2.2-1.1-3.6-.5-1.4-1.1-3-1.8-4.7-.7-1.7-1.4-3-2.1-4.1l2-1.3zm30.6-17.6h-12.8c-.9 0-1.6 0-2.2.1v-2.5c.5 0 1.3.1 2.2.1H171c1 0 1.7 0 2.3-.1v2.5c-.6-.1-1.4-.1-2.3-.1zm.9 20.1c0 .3-.1.8-.1 1.5v13l.1 1.5h-2.5v-3h-9.5v3h-2.5c.1-.6.1-1.1.1-1.5v-13c0-.4 0-.9-.1-1.5h14.5zm-.8-15v2.3l-2-.1H160l-2 .1v-2.3l2 .1h9.1l2-.1zm-11.1 7.5h9.1l2-.1v2.4l-2-.1H160l-2 .1v-2.4l2 .1zm-.1 18.4h9.5v-8.7h-9.5v8.7zm7.4-36-2.3 1.3c-.4-1-1-2.2-1.8-3.6s-1.5-2.5-2.1-3.4l2.3-1.2c.7.9 1.4 2.1 2.2 3.5.7 1.3 1.3 2.5 1.7 3.4zm21.3-4.6c-.6 1.8-1.3 3.6-2.3 5.5-.9 1.9-2 3.7-3.2 5.4-1.2 1.7-2.6 3.3-4 4.7s-2.9 2.6-4.4 3.5c-.5-.7-1-1.4-1.6-2 .7-.3 1.4-.8 2.3-1.4.9-.6 1.8-1.4 2.8-2.3 1-.9 1.9-2 2.7-3.1-1.7-1.7-3.3-3.1-4.8-4.2l1.4-1.5c.8.6 1.6 1.2 2.4 2 .8.7 1.6 1.4 2.2 2 .7-1.1 1.4-2.3 2.1-3.7.7-1.3 1.2-2.6 1.7-3.9h-8c-.8 0-1.5 0-2 .1v-2.4c.5 0 1.2.1 2 .1h8.5l.4-.4c.9.6 1.6 1 2.1 1.5l-.3.1zm5.6 42.3h7.6c1.4 0 2.4 0 3.1-.1v2.5c-.7-.1-1.7-.1-3.1-.1h-23.7c-1.3 0-2.3 0-3 .1v-2.5c.7 0 1.7.1 3 .1h13.6c.5-1.1 1.2-2.5 1.9-4.2.7-1.7 1.3-3.2 1.7-4.5l2.3.9-.3.4c-.3 1-.8 2.2-1.4 3.6-.7 1.6-1.2 2.8-1.7 3.8zm5.5-21.8c0 .3-.1.8-.1 1.4v8.7l.1 1.3h-20.1c.1-.5.1-1 .1-1.3v-8.7c0-.3 0-.8-.1-1.4h20.1zm-15 21.2c-.4-1.2-.9-2.4-1.4-3.7-.6-1.3-1-2.4-1.5-3.3l2.2-.7c1.2 2.5 2.1 4.8 2.8 6.9l-2.1.8zm-2.6-11.9h15.2v-7.2h-15.2v7.2zm13.9-14-2-.1h-8.9l-2 .1v-2.3l2 .1h8.9l2-.1v2.3zm7.6 3.1c-2.9-2.2-5.6-5.1-8.1-8.9-2.5-3.8-4.2-7.6-5.2-11.5l2-.5c.2.7.5 1.5.9 2.6s.7 1.9 1 2.6c2.3-2.1 3.7-3.6 4.4-4.5.7.6 1.2 1.2 1.6 1.7l-.4.3c-1.6 1.7-3.1 3.2-4.7 4.5.8 1.5 1.6 3 2.6 4.4.9-.7 1.8-1.6 2.8-2.6 1-1 1.8-1.9 2.3-2.6l.6.6c.3.3.7.6 1.1 1l-.4.3a64.2 64.2 0 0 1-5.2 5c.9 1.1 1.9 2.2 2.9 3.2 1.1 1 2.1 1.9 3 2.5l-1.2 1.9zm75.6 14.4c1.8 0 3.2 0 4-.1v2.5c-.8 0-2.2-.1-4-.1h-7.8v3.6l.1 2.4c0 1-.3 1.8-.8 2.4-.5.6-1.5 1-3 1.3-1.5.3-3.9.5-7.2.5-.2-.4-.4-.9-.8-1.5-.3-.6-.6-1.1-.9-1.5 2.1.2 3.4.3 3.8.3h1.2c1.4 0 2.5-.1 3.4-.4.9-.3 1.3-.8 1.3-1.6v-5.6h-28.4c-1.8 0-3.2 0-4 .1v-2.5c.8.1 2.2.1 4 .1h28.4v-2.5l-.1-1.4c.8 0 1.8.1 3 .2-.1.4-.1.8-.1 1.3v2.5h7.9zm-21-29.3h-17.8c-1.8 0-3.1 0-3.9.1v-2.3c.8 0 2.1.1 3.9.1h17.8v-2.7l-.1-1.6c1.1 0 2.1 0 3 .1-.1.5-.1 1-.1 1.5v2.6h17.4c1.8 0 3.1 0 3.9-.1v2.3c-.8 0-2.1-.1-3.9-.1H261v3.9h15.2l-.2 1.6v11.6l.1 1.5h-1.8c1.2.9 2.4 2 3.8 3.3 1.4 1.3 2.6 2.6 3.7 3.9l-2.1 1.8c-.7-1-1.5-2.1-2.6-3.3h-.9c-.4 0-2.3.1-5.4.2-3.2.1-8.4.3-15.7.5-7.3.2-12.4.3-15.5.3-.2 0-.9.1-2.1.2 0-.6-.1-1.4-.3-2.5l2.5.1c3.2.1 9.3.1 18.5-.1v-4.3H243c.1-.6.1-1.1.1-1.5V169c0-.4 0-.9-.1-1.5h15.2v-3.9zm0 5.9h-12.5v4.3h12.5v-4.3zm-12.6 10.6h12.5v-4.5h-12.5v4.5zm.1 17.8 1.3-1.6c1.3.5 2.8 1.2 4.5 2.1s3.2 1.9 4.4 2.8l-1.4 2c-1-.9-2.4-1.8-4.1-2.8s-3.3-1.8-4.7-2.5zm27.8-28.4H261v4.3h12.5v-4.3zm-12.6 6.1v4.5h12.5v-4.5h-12.5zm0 6.5v4.3c7.3-.2 12-.4 14.3-.5-1.8-1.7-2.9-2.6-3.2-2.9l1.4-.9h-12.5zm62.3 10c2.2 2.2 5.3 4.2 9.2 5.9 3.9 1.7 8.1 3 12.6 3.7-.9 1.4-1.4 2.1-1.5 2.4-2.3-.5-4.6-1.1-6.8-1.8-2.2-.8-4.3-1.6-6.2-2.6-1.9-1-3.7-2-5.3-3.2-1.6-1.2-3-2.3-4.1-3.5l.1 11.3c0 .7 0 1.2.1 1.5h-2.8c.1-.3.1-.8.1-1.5l.1-11.1c-1.5 1.5-3.2 3-5.3 4.4s-4.5 2.7-7.3 3.9c-2.8 1.2-5.8 2.2-9.1 3-.1-.2-.6-1-1.5-2.4 4.2-.8 8.3-2.1 12.2-3.9 3.9-1.8 6.9-3.8 9-6.1h-16.6c-1.9 0-3.2 0-4.1.1v-2.4c.8 0 2.2.1 4.1.1h18.6v-5.3h-13.3c-1.5 0-2.7 0-3.4.1v-2.3c.7.1 1.8.1 3.4.1h13.3v-4.8h-15.5c-1.6 0-2.9 0-3.6.1v-2.4c.8.1 2 .1 3.6.1h9c-.2-.3-.5-.9-1-1.7-.5-.8-1.3-2-2.3-3.4l2.5-.8c.5.8 1.2 1.8 1.8 2.9.7 1.1 1.3 2.1 1.7 3.1h10.4c.7-1 1.4-2 2-3.1.6-1.1 1.1-2.1 1.4-2.9.7.3 1.6.6 2.6 1l-.3.5c-1.2 2.2-2.2 3.7-2.8 4.6h8.8c1.6 0 2.9 0 3.6-.1v2.4c-.8-.1-2-.1-3.6-.1h-15.9v4.8h13.5c1.5 0 2.6 0 3.4-.1v2.3c-.7 0-1.9-.1-3.4-.1h-13.5v5.3H340c1.8 0 3.2 0 4.1-.1v2.4c-.9-.1-2.2-.1-4.1-.1h-16.8zm16-23.7H301c-1.8 0-3.1 0-3.9.1v-2.4c.8.1 2.1.1 3.9.1h6.5c-.2-.4-.7-1.2-1.5-2.3-.8-1.2-1.9-2.6-3.3-4.3l2.5-.8c.7.8 1.5 1.9 2.4 3.3.9 1.3 1.7 2.5 2.3 3.5l-2.1.7h6v-7.6l-.1-1.4c1.3 0 2.2.1 2.8.2-.1.4-.1.8-.1 1.3v7.5h7.4v-7.6l-.1-1.4c1.2 0 2.1.1 2.7.2-.1.4-.1.8-.1 1.3v7.5h4.2c.8-1 1.8-2.3 2.8-3.8 1-1.5 1.7-2.9 2.2-4.1l2.5 1.2-.4.4c-1 1.9-2.3 4-4.1 6.3h5.7c1.8 0 3.1 0 4-.1v2.4c-.9-.2-2.2-.2-4-.2zm40-1h-18.8v9.4h-2.8c.1-.5.1-1 .1-1.4v-8.7c0-.3 0-.8-.1-1.4h21.6V161h-15.6c-1.7 0-2.9 0-3.7.1v-2.4c.8 0 2 .1 3.7.1h33.9c1.6 0 2.9 0 3.6-.1v2.4c-.8-.1-2-.1-3.6-.1h-15.8v4.3h21.7c0 .3-.1.8-.1 1.4v8.7l.1 1.4h-2.8v-9.4h-19v10.8l.1 1.8h-2.8c.1-.4.1-1 .1-1.8v-10.8zm23.3 27.6c.3.2.6.4 1.1.7.5.3.9.6 1.3.8-.1 2.4-.7 4.2-1.5 5.4-.9 1.2-2.2 2-4.1 2.6-1.9.5-4.4.8-7.8.8-3.3 0-5.7-.1-7.2-.2s-2.6-.3-3.1-.7c-.7-.4-1.2-.9-1.5-1.5s-.5-1.6-.5-2.7v-2h-13.6v3.8H363l.1-1.6v-16.3l-.1-1.7h35.4c0 .3-.1.8-.1 1.5v12.7l.1 1.5h-16.7v1.9c0 1.2.6 2.1 1.7 2.5 1.2.2 4 .3 8.4.3 3.6 0 6.3-.5 8.1-1.4.8-.5 1.5-1.3 1.8-2.2.5-.9.7-2.3.8-4.2zm-27.4-23.9v1.9l-1.8-.1h-6.9l-1.8.1v-1.9l1.8.1h6.9l1.8-.1zm-8.7 5.5h6.9l1.8-.1v1.9l-1.8-.1h-6.9l-1.8.1v-1.9l1.8.1zm12.9 8h-13.6v4.7h13.6v-4.7zm-13.6 11.6h13.6v-4.9h-13.6v4.9zm30.2-6.9v-4.7h-14.1v4.7h14.1zm-14.1 6.9h14.1v-4.9h-14.1v4.9zm14.5-25.1v1.9l-1.8-.1h-6.8l-1.8.1v-1.9l1.8.1h6.8l1.8-.1zm-8.6 5.5h6.8l1.8-.1v1.9l-1.8-.1h-6.8l-1.8.1v-1.9l1.8.1zm72.9 18.8c1.9 0 3.3 0 4.1-.1v2.7c-.8-.1-2.2-.1-4.1-.1h-18.3v6.3l.1 1.7h-2.9l.1-1.7v-6.3h-17.9c-1.9 0-3.3 0-4.1.1v-2.7c.8 0 2.2.1 4.1.1h17.9v-5.6h-15.2c.1-.7.1-1.2.1-1.6v-15.3c0-.4 0-.9-.1-1.6h15.2v-5.9H423c-1.8 0-3 0-3.8.1v-2.6c.8 0 2.1.1 3.8.1h16.6v-4.3l-.1-1.4c1.2 0 2.2 0 3 .1-.1.4-.1.9-.1 1.4v4.3h17.1c1.8 0 3 0 3.9-.1v2.6c-.8-.1-2.1-.1-3.9-.1h-17.1v5.9h15.5l-.1 1.6v15.3l.1 1.6h-15.5v5.6h18.2zm-21-21.9h-12.3v5.8h12.3v-5.8zm-12.4 7.9v6.1h12.3v-6.1h-12.3zm27.8-2.1v-5.8h-12.7v5.8H455zm-12.7 8.2H455v-6.1h-12.7v6.1zm54.5-27.4-.1 2.3v36.2l.1 3.1c0 1.2-.5 2.1-1.5 2.7-1 .6-2.9.9-5.7.9-.4-1-.9-2-1.4-3 1.2.1 2.2.2 3.1.2.9 0 1.6-.1 2.1-.2.5-.2.8-.6.8-1.2v-13.3h-9.9c-.4 3.9-1.2 7.4-2.1 10.6-1 3.1-2.1 5.5-3.5 7.2l-2.2-1.9c1.7-2.2 3.1-5.4 4.1-9.6s1.5-9 1.5-14.5v-18.5l-.1-.9h14.8zm-12.4 25.3h9.7v-10.3h-9.5v4.7c.1 2.1 0 4-.2 5.6zm9.8-22.7h-9.5v10h9.5v-10zm22.9 32.2c1.2 1.6 2.6 3 4.2 4.3 1.6 1.3 3.3 2.4 5.1 3.4L525 205c-3.7-2.1-6.9-4.8-9.5-8-2.4 3.2-5.2 5.6-8.2 7.2l-1.6-2.3c1.6-.8 3.1-1.8 4.5-3s2.7-2.6 3.8-4.1c-.9-1.4-1.7-2.8-2.4-4.3s-1.4-3.2-1.9-4.9c-.6-1.8-1.1-3.7-1.5-5.9h-3.3v22.4c0 1 0 2.1.1 3.2h-2.9c.1-1.1.1-2.2.1-3.2V161l-.1-.9h21.4l-.1.9c-.1 2.5-.2 4.4-.3 5.6-.1 1.2-.3 2.2-.7 3-.4 1-1.2 1.8-2.4 2.3-1.2.5-2.9.8-5.2.8-.2-.6-.6-1.6-1.2-3 .7.3 1.6.4 2.6.4 2 0 3.2-.6 3.7-1.7.3-.6.4-1.4.5-2.4s.2-2.1.2-3.4h-15.9v14.9h15.7l.3-.3c.6.4 1.4 1 2.2 1.8l-.4.2c-.4 3-1.1 5.8-2.1 8.5s-1.9 5-3.3 7.2zm-6.5-15.2c.9 4.9 2.5 9.2 4.9 12.9 2.2-3.7 3.7-8 4.6-12.9h-9.5zm50.1-2.1-.4.2c-.7 1.9-1.6 3.8-2.8 5.8-1.2 2-2.3 3.5-3.3 4.7-.6-.5-1.2-.9-2-1.4.9-.9 1.9-2.2 2.9-3.8s1.9-3.2 2.6-4.6H551v20.2l.1 2.8c0 .7-.1 1.2-.4 1.8s-.8.9-1.4 1.3c-.7.3-1.6.6-2.8.7s-2.7.2-4.5.2l-1.5-3c.1 0 .6.1 1.5.2s1.8.2 2.6.2c1.1 0 2.1-.1 2.8-.4s1.1-.7 1.1-1.5v-11c0-1.1 0-2.6.1-4.6.1-2 .2-3.7.3-5.1-.3.8-.7 1.9-1.2 3.3-.5 1.3-1.2 2.9-2 4.5-.8 1.7-1.8 3.4-2.9 5.3-1.1 1.8-2.3 3.4-3.5 4.7 0-.1-.1-.2-.2-.3l-.4-.4c-.1-.2-.4-.4-.7-.7-.3-.3-.5-.5-.7-.6 1.2-1.3 2.6-3 4-5.3s2.6-4.4 3.6-6.6 1.7-4.1 2.3-5.6h-6.6l-2.5.1v-2.5l2.5.1h17.8l.3-.4c.4.3.8.6 1.2 1 .3.3.6.5.8.7zm-5.6-15.4h-13.9c-1 0-1.7 0-2.3.1v-2.5c.6 0 1.4.1 2.3.1h15.2l.3-.4c.8.6 1.6 1.3 2.4 1.9l-.6.3c-.9 1.4-2.1 2.9-3.5 4.6-1.4 1.7-2.7 3.2-4 4.3 1.5.9 3 1.9 4.6 3.1l-1.5 2.1c-1.5-1.2-3.4-2.6-5.9-3.9-2.4-1.4-4.7-2.5-6.8-3.5l1.4-1.8c1.6.6 3.6 1.6 5.9 2.8.9-.8 1.9-1.9 3.1-3.3s2.4-2.7 3.3-3.9zm30.1 25.4-.1.9c0 3.8-.1 6.7-.3 8.7-.2 2-.5 3.5-1 4.6-.6 1.2-1.6 2.1-3.2 2.6-1.5.6-3.8.9-6.7.9 0-.2-.5-1.2-1.3-3.1 1 .3 2 .4 3.1.4 3 0 4.9-.7 5.7-2.1.4-.8.7-2 .9-3.6.2-1.6.3-3.9.3-7h-9.4c-.5 1.9-1.2 3.6-2 5.3s-2 3.1-3.2 4.5c-1.3 1.3-2.7 2.5-4.4 3.5-1.7 1-3.5 1.8-5.6 2.4l-1.8-2.1c1.9-.6 3.6-1.3 5-2 1.4-.8 2.6-1.6 3.8-2.6 1.1-1 2.2-2.2 3.2-3.7s1.8-3.2 2.4-5.2h-8.2c-1.2 0-2.1 0-2.7.1v-2.5c.6 0 1.5.1 2.7.1h8.7c.1-.6.2-1.3.3-2.3.1-1 .1-1.7.1-2.4l-.1-1c.1 0 1 .1 2.8.2-.1.3-.1.5-.1.7 0 .6 0 1.4-.1 2.4s-.2 1.8-.3 2.3h11.5zm-10.3-11.8c3.2 2.3 7.2 4.1 12 5.2l-1.1 2.6c-5.2-1.4-9.4-3.4-12.7-6.1-1.6 1.4-3.5 2.5-5.7 3.6-2.2 1-4.5 1.9-7 2.5-.4-.7-.8-1.4-1.3-2.3 4.9-1.1 8.9-2.9 12-5.4-.6-.6-1.3-1.3-2.1-2.3-.8-1-1.6-2.1-2.3-3.2s-1.2-2.1-1.5-2.9c-1.3 1.7-2.5 3-3.6 3.9-.5-.6-1.1-1.2-1.9-1.8 1.1-.8 2.3-1.9 3.4-3.3s2.1-2.9 2.9-4.5 1.5-3.1 2-4.7l2.6.5-.3.4c-.2.6-.5 1.4-.9 2.4s-.8 1.8-1.1 2.4h15.2c1 0 1.8 0 2.4-.1v2.4c-.6 0-1.4-.1-2.4-.1h-2.8c-1.1 4.2-3.1 7.8-5.8 10.8zm-8-10.6c1.3 3.4 3.3 6.5 6 9.1 2.4-2.4 4.1-5.5 5.3-9.2H567l-.1.1z" style="fill:#1a1a1a"/>
    <path d="M89.9 113.5c-5.8 0-10.4 4.5-10.4 9.9 0 5.5 4.7 9.9 10.4 9.9h11.5c5.8 0 10.4-4.5 10.4-9.9 0-5.5-4.7-9.9-10.4-9.9H89.9zm-6.1 10c0-3.4 2.9-6.2 6.5-6.2h10.8c3.6 0 6.5 2.8 6.5 6.2 0 3.4-2.9 6.2-6.5 6.2H90.3c-3.6 0-6.5-2.8-6.5-6.2zm108.1-10v3.6h13.4v12.6h-13.4v3.6h30.7v-3.6h-13.2v-12.6h13.2v-3.6h-30.7zm43.2 0c-3.3 0-6 2.7-6 5.9 0 3.3 2.7 5.9 6 5.9h18.4c1.2 0 2.3 1 2.3 2.2 0 1.2-1 2.2-2.3 2.2h-23.7v3.7h24.1c3.3 0 5.9-2.6 5.9-5.9 0-3.2-2.7-5.9-5.9-5.9h-18.4c-1.2 0-2.3-1-2.3-2.3 0-1.2 1-2.2 2.3-2.2h23.7v-3.7c-.2.1-24.1.1-24.1.1zm282.9 0c-3.3 0-6 2.7-6 5.9 0 3.3 2.7 5.9 6 5.9h18.4c1.2 0 2.3 1 2.3 2.2 0 1.2-1 2.2-2.3 2.2h-23.7v3.7h24.1c3.3 0 6-2.6 6-5.9 0-3.2-2.7-5.9-6-5.9h-18.4c-1.2 0-2.2-1-2.2-2.3 0-1.2 1-2.2 2.2-2.2h23.7v-3.7c-.2.1-24.1.1-24.1.1zm-218 0c-5.6 0-10.2 4.5-10.2 9.9 0 5.5 4.6 9.9 10.2 9.9h19c1 0 1.9-.8 1.9-1.8v-8.2c0-1-.8-1.8-1.9-1.8h-20.7v3.6h18.4v4.6h-16.2c-3.6 0-6.5-2.8-6.5-6.3s2.9-6.3 6.5-6.3h20.3v-3.6H300zm147.2 0c-5.6 0-10.2 4.5-10.2 9.9 0 5.5 4.6 9.9 10.2 9.9h19c1 0 1.9-.8 1.9-1.8v-8.2c0-1-.8-1.8-1.9-1.8h-20.8v3.6h18.4v4.6h-16.2c-3.6 0-6.5-2.8-6.5-6.3s2.9-6.3 6.5-6.3h20.3v-3.6h-20.7zm29.5 0c-1 0-1.8.8-1.8 1.8v16.2c0 1 .8 1.8 1.8 1.8h27.9v-3.7H479v-4.4h25.6v-3.7H479V117h25.6v-3.7c-.3.2-27.9.2-27.9.2zm-359.6 0v19.9h4.2v-7.9h13.8c.1 0 7.7 8 7.7 8h5.8c-.4-.4-7.6-7.9-7.6-7.9h1.2c3.5 0 6.3-2.6 6.3-6 0-3.3-2.8-6-6.3-6 0-.1-24.8-.1-25.1-.1zm4.2 8.1v-4.4h20.4c1.3 0 2.6.8 2.6 2.3 0 1.5-1.3 2.3-2.6 2.3h-20.4v-.2zm33.8-8.1v19.9h4.2v-7.9h13.8c.1 0 7.7 8 7.7 8h5.8c-.4-.4-7.6-7.9-7.6-7.9h1.2c3.5 0 6.3-2.6 6.3-6 0-3.3-2.8-6-6.3-6 0-.1-24.9-.1-25.1-.1zm4.2 8.1v-4.4h20.4c1.3 0 2.6.8 2.6 2.3 0 1.5-1.3 2.3-2.6 2.3h-20.4v-.2zm205.4-8.1v19.9h4.2v-7.9h13.8c.1 0 7.7 8 7.7 8h5.8c-.4-.4-7.6-7.9-7.6-7.9h1.2c3.5 0 6.3-2.6 6.3-6 0-3.3-2.8-6-6.3-6 0-.1-24.8-.1-25.1-.1zm4.2 8.1v-4.4h20.4c1.3 0 2.6.8 2.6 2.3 0 1.5-1.3 2.3-2.6 2.3h-20.4v-.2zm-326.5-8.1v19.9h4.2v-15.1s11.6 7.2 11.7 7.3c.1-.1 11.9-7.3 11.9-7.3v15.1h4.2v-19.9h-3.5l-12.5 7.7h-.1l-12.5-7.8c0 .1-2.9.1-3.4.1zm300.7 0c-.6 0-1.1.3-1.4.7 0 0-15.6 18.8-15.9 19.2h5.2c.1-.1 2.2-2.7 2.2-2.7H353s2.1 2.6 2.2 2.7h5.2c-.3-.4-15.9-19.2-15.9-19.2-.3-.4-.9-.7-1.4-.7zm-4.4 10.5 4.4-5.3 4.2 5.1 2.7 3.3h-13.8l.4-.5 2.1-2.6zm79.2-10.5c-.5 0-1.1.3-1.4.7 0 0-15.6 18.8-15.9 19.2h5.2c.1-.1 2.2-2.7 2.2-2.7h19.8s2.2 2.6 2.2 2.7h5.2c-.3-.4-15.9-19.2-15.9-19.2-.3-.4-.8-.7-1.4-.7zm-4.3 10.5 4.4-5.3 4.2 5.1 2.7 3.3H411l.4-.5 2.2-2.6z" style="fill:#333"/>
</svg>
