<svg version="1.1" id="圖層_1" xmlns="http://www.w3.org/2000/svg" x="0" y="0" viewBox="0 0 738.9 329.9" style="enable-background:new 0 0 738.9 329.9" xml:space="preserve">
    <style>
        .st1{fill:#fff}
    </style>
    <g style="opacity:.21">
        <path class="st1" d="M531.6 103.8c-.3-3.9-1.8-7.5-4.3-10.4-6.6-7.6-21.4-24.3-42-45-20.6-20.6-37.3-35.4-45-42-2.9-2.5-6.6-4-10.4-4.3-9.8-.8-31.4-2.1-61.5-2.1-30.2 0-51.7 1.3-61.5 2.1-3.9.3-7.5 1.8-10.4 4.3-7.6 6.6-24.3 21.4-45 42-21.4 21.4-35.7 37.5-42 45-2.5 2.9-4 6.6-4.3 10.4-.7 9.8-2.1 31.3-2.1 61.5 0 29.2 1.3 51.4 2.1 61.5.3 3.9 1.8 7.5 4.3 10.5 6.4 7.5 20.7 23.6 42 44.9 20.6 20.6 37.3 35.4 45 42 2.9 2.5 6.6 3.3 10.4 3.6 9.8.7 31.3 2.1 61.5 2.1s51.7-1.3 61.5-2.1c3.9-.3 7.5-1.1 10.4-3.6 7.6-6.6 24.3-21.4 45-42 21.3-21.3 35.6-37.5 42-44.9 2.5-2.9 4-6.6 4.3-10.4.7-10.1 2.1-32.3 2.1-61.5 0-30.3-1.3-51.8-2.1-61.6zm-13 118.6c-.2 3.3-1.5 6.4-3.7 8.8-5.7 6.7-19 21.7-39 41.7-19.3 19.3-34.9 33.1-41.7 39-2.5 2.1-5.6 3.4-8.8 3.7-8.8.7-28.8 1.9-57 1.9s-48.2-1.3-57-1.9c-3.3-.3-6.4-1.5-8.8-3.7-6.9-5.9-22.4-19.7-41.8-39-20-20-33.2-35-39-41.7-2.1-2.5-3.4-5.6-3.7-8.8-.7-9-2-29.8-2-57.1 0-28.3 1.3-48.3 1.9-57.1.3-3.2 1.5-6.3 3.6-8.8 5.7-6.7 19-21.7 39-41.8 19.3-19.3 34.9-33.1 41.8-39 2.5-2.1 5.6-3.4 8.8-3.7 8.8-.7 28.8-1.9 57-1.9s48.2 1.3 57 1.9c3.3.3 6.4 1.5 8.8 3.7 6.9 5.9 22.4 19.7 41.8 39 19.3 19.3 33.1 34.9 39 41.7 2.1 2.5 3.4 5.6 3.7 8.8.7 8.8 1.9 28.8 1.9 57 .2 27.5-1.1 48.2-1.8 57.3z"/>
        <path class="st1" d="M500.3 134.1c-.2-11-1.1-20.7-1.4-22.8-.5-.9-1.7-2.2-2.4-3.1-9.5-10.7-19-21.1-32-34-25.2-25.1-38.8-37-42.1-39.3-2.5-.3-7.1-.6-19.5-1.2-9.9-.4-22.5-.7-23.5-.7 0 2.2-.2 168-.1 262.2 0 1.7.1 2.3.1 2.3s29.1.3 43.2-1.7c9.6-8.1 27.9-25.3 41.2-38.6 14.2-14.4 26.4-27.5 29.5-31.1 1.3-1.5 4.2-4.7 5.7-6.8.2-1.8.4-3.3.6-6.7 1-16.7 1.2-46.5 1.2-47.5-1.3-.1-44.9 0-45.8 0 0 .7.1 22.9.1 23h22.1c0 .4-.6 18.9-1.1 21.9-1.7 2.3-4.3 4.7-7.3 8-3.2 3.6-7.8 8.4-17.3 18.1-11.8 12.1-30.2 29.4-38.5 36.6.1-1.1-.2-213-.1-215.2 2.2 1.8 7.3 6.5 8.8 7.9 10 9.4 20.5 19 29 27.9 12.4 13 24.9 26.5 25.4 27.5.2 1 .7 12.3.7 13.2.8.2 22.5.1 23.5.1M323.6 296.4c3.5.2 17.8 1 30.9 1h3.2V35.5s-.1-1-.1-2.6c-.9 0-7.8-.2-16.6.2-8.5.4-16.7.7-17.5.8-.3.7-11 22.6-21.9 49.7-14.3 35.5-20.2 53.1-20.2 53.1s-.5-.7-5-8.2c-7.4-12.5-15.2-26.4-19.6-32.8-.8-1.1-2.1-3.1-2.1-3.1s-.2.1-1.4 1.2c-2.5 2.4-12.6 13.8-14.8 16.3-1 1.2-.7 1.1-.8 1.5-.2 2.3-1.4 20.8-1.7 49.2-.2 29.2.4 44.6 1.8 58.4 3.2 4 5.6 7 12.8 14.5 4 4.3 11.5 12 11.6 12 0 0-.9-13-1-15.4-.9-18.2-1.6-35-1.8-55.9-.1-2.2 0-25.2 0-25.2l10.9 19 15.5 27.5.5.4c5.5-14.6 12.5-34.4 19.7-53.5 5.7-15 11.7-29.1 16.9-42.6.4-.4.7-1.6.7-1.6s.2 26.3 0 31.1v166.9"/>
    </g>
    <path d="m22.6 163.1 18.7-22.8h3.8v49.1h-3.8v-43.6l-18.7 23-18.8-23v43.6H0v-49.1h3.8l18.8 22.8zm78.5-19.2v4.3c-5.8-3.3-11.6-5-17.4-5-6.2 0-11.4 2.1-15.5 6.2s-6.2 9.3-6.2 15.5 2 11.4 6.1 15.5 9.6 6.2 16.6 6.2c5.1 0 9.6-1 13.5-3v-13.3H87.8v-3.2H102v18.8c-5.8 2.8-11.6 4.1-17.4 4.1-7.6 0-14-2.4-19.1-7.2s-7.6-10.9-7.6-18.1c0-7.2 2.5-13.1 7.5-17.9 5-4.8 11.3-7.2 18.9-7.2 5.1.1 10.7 1.5 16.8 4.3zm15 .2h18.6c1.3 0 2.3 0 3-.1v3.1c-.7 0-1.8-.1-3-.1h-18.6c-1.3 0-2.3 0-3.1.1V144c.8.1 1.8.1 3.1.1zm19.4 29-.1 2V192l.1 1.9h-3.1V190H119v3.9h-3.2c.1-.7.1-1.4.1-1.9v-17c0-.5 0-1.1-.1-2h19.7v.1zm-3.6-16.3h-12.6l-2.7.1v-3l2.7.1h12.6l2.6-.1v3l-2.6-.1zm-15.3 9.5v-2.9l2.7.1h12.6l2.6-.1v2.9l-2.6-.1h-12.6l-2.7.1zm2.4 20.8h13.4v-11.3H119v11.3zm10.7-46.2-2.9 1.7c-1.8-3.5-3.6-6.5-5.5-9.1l2.8-1.5c.8 1.1 1.8 2.5 2.8 4.1s1.9 3.2 2.8 4.8zm8.9 45.2c1.1-1.5 2.2-3.8 3.3-6.9 1.1-3 1.9-5.9 2.2-8.5l2.9 1.3-.2.4c-.6 3.2-1.4 6.2-2.5 9.1-1 2.9-2.1 5.2-3.1 6.9l-2.6-2.3zm2.3-26c1.1-.4 2.4-1.1 3.7-1.9 1.4-.9 2.7-2 4.1-3.3 1.4-1.4 2.5-2.8 3.5-4.4-2.9-1.7-6.1-3.2-9.5-4.5.5-.8 1-1.6 1.6-2.5 3.4 1.4 6.5 2.8 9.3 4.3.5-1.1 1-2.3 1.3-3.6.4-1.3.6-2.5.8-3.6.1-1.1.2-2.1.3-2.9h-10.6c-1.4 0-2.6 0-3.4.1v-3.1c.8 0 1.9.1 3.4.1h28.5l-.1 1.2c0 6-.2 10.6-.3 13.7-.2 3.1-.5 5.3-1.1 6.8-.7 1.7-1.8 2.9-3.5 3.6-1.7.7-3.8 1.1-6.5 1.1-.1-.4-.4-1-.7-1.8s-.6-1.5-.9-2.1c.5.1 1.1.3 1.9.4s1.4.1 1.9.1c1.2 0 2.2-.2 3-.7s1.4-1.2 1.8-2.1c.3-.8.5-1.7.6-2.8s.2-2.6.3-4.6.1-5.2.2-9.7H159c-.2 5.5-1.7 10.5-4.6 15.1-2.9 4.5-6.6 7.9-11.2 9.9l-2.3-2.8zm22.4 28.5c.5-.7.9-1.7 1.1-2.9.2-1.3.3-3.3.3-6.2.2.1.5.3 1.1.6.5.3 1.2.8 2.1 1.4 0 2.2-.1 4-.4 5.5-.3 1.4-.7 2.6-1.4 3.6-.7.9-1.6 1.6-2.8 2.1-1.2.4-2.7.7-4.5.7-1.4 0-2.6-.1-3.7-.2s-2.1-.4-2.9-.8c-1.2-.7-1.8-2.3-1.8-5V169l-.1-.9 3.4.3-.1.7v18.5c0 1.4.6 2.1 1.7 2.3.6.1 1.8.2 3.6.2 1 0 1.8-.1 2.6-.4.8-.3 1.4-.6 1.8-1.1zm-7.3-27.5c1.3 1 2.6 2.3 4.1 3.9 1.4 1.6 2.7 3.1 3.7 4.6l-2.2 2.3c-.8-1.4-1.9-2.9-3.4-4.6-1.5-1.7-2.8-3.1-4.1-4.1l1.9-2.1zm14.5 8.5c1.1 1.8 2.3 4.1 3.5 7.1 1.2 2.9 2.3 5.8 3.1 8.5l-2.9 1.8c-.3-1.2-.8-2.7-1.4-4.6-.6-1.8-1.4-3.8-2.3-6-.9-2.1-1.8-3.9-2.7-5.2l2.7-1.6zm39-22.4h-16.3c-1.2 0-2.1 0-2.8.1v-3.2c.7 0 1.6.1 2.8.1h16.3c1.2 0 2.2 0 2.9-.1v3.2c-.7-.1-1.7-.1-2.9-.1zm1.2 25.6c0 .4-.1 1.1-.1 2v16.6l.1 1.9h-3.1v-3.8h-12.1v3.8h-3.2c.1-.7.1-1.4.1-1.9v-16.6c0-.5 0-1.1-.1-2h18.4zm-1-19.1v2.9l-2.5-.1h-11.5l-2.5.1v-2.9l2.5.1h11.5l2.5-.1zm-14.1 9.5h11.5l2.5-.1v3l-2.5-.1h-11.5l-2.5.1v-3l2.5.1zm-.2 23.4h12.1v-11.1h-12.1v11.1zm9.4-45.8-2.9 1.6c-.6-1.3-1.3-2.8-2.3-4.6s-1.9-3.2-2.7-4.3l2.9-1.5c.8 1.2 1.8 2.6 2.8 4.4 1 1.8 1.8 3.3 2.2 4.4zm27.1-5.8c-.7 2.3-1.7 4.6-2.9 7s-2.6 4.7-4.1 6.9c-1.5 2.1-3.2 4.1-5.1 6-1.8 1.8-3.7 3.3-5.6 4.4-.7-.9-1.3-1.8-2-2.5.8-.4 1.8-1 2.9-1.8 1.1-.8 2.3-1.8 3.5-3s2.4-2.5 3.4-3.9c-2.1-2.1-4.2-3.9-6.1-5.4l1.8-2c1 .7 2 1.6 3.1 2.5s2 1.8 2.8 2.6c.9-1.4 1.8-3 2.7-4.7s1.6-3.3 2.1-4.9h-10.1c-1.1 0-1.9 0-2.6.1v-3.1c.7 0 1.5.1 2.6.1h10.9l.5-.5c1.1.7 2 1.3 2.7 1.9l-.5.3zm7.2 53.9h9.7c1.7 0 3 0 3.9-.1v3.2c-.9-.1-2.2-.1-3.9-.1h-30.2c-1.7 0-3 0-3.9.1v-3.2c.9 0 2.2.1 3.9.1h17.3c.7-1.4 1.5-3.2 2.4-5.4s1.6-4.1 2.2-5.7l2.9 1.1-.4.6c-.4 1.2-1 2.8-1.8 4.6-.8 1.9-1.5 3.5-2.1 4.8zm7-27.8c0 .4-.1 1-.1 1.8V174l.1 1.7h-25.6c.1-.7.1-1.2.1-1.7v-11.1c0-.4 0-1-.1-1.8h25.6zM227 188c-.5-1.5-1.1-3.1-1.8-4.8s-1.3-3.1-1.9-4.2l2.8-.9c1.5 3.2 2.7 6.2 3.5 8.8L227 188zm-3.3-15.1H243v-9.1h-19.3v9.1zm17.7-17.8-2.5-.1h-11.3l-2.5.1v-2.9l2.5.1h11.3l2.5-.1v2.9zm9.6 4c-3.7-2.8-7.2-6.5-10.3-11.3s-5.3-9.6-6.6-14.6l2.6-.7c.2.8.6 1.9 1.1 3.3.5 1.4.9 2.5 1.3 3.3 2.9-2.6 4.8-4.5 5.6-5.7.9.8 1.6 1.5 2.1 2.1l-.6.3c-2 2.2-4 4.1-6 5.7 1 1.9 2.1 3.8 3.3 5.6 1.1-.9 2.3-2 3.6-3.3s2.3-2.4 2.9-3.3c.1.1.4.3.8.7.4.4.9.8 1.4 1.3l-.6.4c-1.8 2-4 4.1-6.6 6.4 1.1 1.4 2.4 2.8 3.7 4.1 1.4 1.3 2.6 2.4 3.9 3.2l-1.6 2.5zm96.3 18.3c2.3 0 4 0 5.1-.1v3.1c-1.1 0-2.8-.1-5.1-.1h-9.9v4.5l.1 3.1c0 1.3-.3 2.3-1 3.1-.7.7-1.9 1.3-3.8 1.7s-4.9.6-9.1.6c-.2-.5-.6-1.1-1-1.9-.4-.8-.8-1.4-1.1-1.9 2.7.2 4.3.4 4.9.4h1.5c1.8 0 3.2-.2 4.4-.5 1.1-.4 1.7-1 1.7-2.1v-7.1h-36.2c-2.3 0-4 0-5.1.1v-3.1c1.1.1 2.8.1 5.1.1H334v-3.2l-.1-1.8c1 0 2.2.1 3.8.2-.1.5-.1 1-.1 1.6v3.2l9.7.1zm-26.8-37.3h-22.7c-2.3 0-3.9 0-5 .1v-2.9c1 0 2.7.1 5 .1h22.7V134l-.1-2c1.4 0 2.7 0 3.8.1-.1.7-.1 1.3-.1 2v3.4h22.2c2.2 0 3.9 0 5-.1v2.9c-1.1 0-2.7-.1-5-.1H324v5h19.3l-.1 1.9v14.8l.1 1.9h-2.2c1.5 1.2 3.1 2.6 4.9 4.2 1.8 1.7 3.3 3.3 4.7 5l-2.7 2.2c-.8-1.3-2-2.7-3.4-4.2h-1.1c-.5 0-2.9.1-6.9.3-4.1.2-10.7.4-20 .6-9.3.2-15.8.3-19.7.3-.2 0-1.1.1-2.7.2 0-.7-.2-1.8-.4-3.2l3.2.1c4 .2 11.9.1 23.5-.1v-5.5h-19.4c.1-.7.1-1.4.1-1.9V147c0-.5 0-1.1-.1-1.9h19.4v-5zm0 7.5h-16v5.5h16v-5.5zm-16 13.5h16v-5.7h-16v5.7zm.1 22.6 1.7-2c1.6.6 3.5 1.5 5.7 2.7s4 2.4 5.6 3.6l-1.8 2.5c-1.3-1.1-3-2.3-5.2-3.6-2.1-1.2-4.1-2.3-6-3.2zm35.3-36.1h-16v5.5h16v-5.5zm-15.9 7.8v5.7h16v-5.7h-16zm0 8.2v5.5c9.2-.3 15.3-.5 18.2-.7-2.3-2.1-3.7-3.4-4.1-3.6l1.8-1.1-15.9-.1zm79.2 12.8c2.8 2.8 6.7 5.3 11.7 7.5s10.3 3.8 16 4.7c-1.2 1.7-1.8 2.7-2 3-2.9-.6-5.8-1.4-8.6-2.3-2.8-1-5.4-2.1-7.9-3.3-2.4-1.2-4.7-2.6-6.7-4.1s-3.8-3-5.2-4.5l.1 14.4c0 .9 0 1.5.1 2h-3.5c.1-.4.1-1.1.1-2l.1-14.1c-1.9 2-4.1 3.8-6.8 5.6-2.6 1.8-5.7 3.4-9.3 5-3.5 1.6-7.4 2.8-11.6 3.8-.1-.3-.8-1.3-2-3 5.4-1 10.5-2.7 15.5-5 4.9-2.3 8.8-4.9 11.5-7.7h-21.1c-2.4 0-4.1 0-5.2.1v-3.1c1.1 0 2.8.1 5.2.1h23.7v-6.7h-16.9c-2 0-3.4 0-4.3.1V164c.9.1 2.3.1 4.3.1h16.9v-6.2h-19.7c-2.1 0-3.6 0-4.6.1v-3c1 .1 2.5.1 4.6.1h11.5c-.2-.4-.7-1.2-1.3-2.2s-1.6-2.5-2.9-4.3l3.2-1.1c.7 1 1.5 2.3 2.3 3.7.9 1.4 1.6 2.7 2.2 3.9H406c.9-1.3 1.7-2.6 2.5-4s1.4-2.6 1.8-3.7c.9.4 2 .8 3.3 1.3l-.4.6c-1.6 2.8-2.8 4.7-3.6 5.8h11.2c2.1 0 3.6 0 4.6-.1v3.1c-1-.1-2.5-.1-4.6-.1h-20.2v6.2h17.1c1.9 0 3.3 0 4.3-.1v2.9c-.9 0-2.4-.1-4.3-.1h-17.1v6.7h23.9c2.3 0 4.1 0 5.2-.1v3.1c-1.1-.1-2.8-.1-5.2-.1l-21.3-.1zm20.4-30.2H375c-2.3 0-3.9 0-5 .1v-3.1c1 .1 2.7.1 5 .1h8.3c-.3-.5-.9-1.5-1.9-3s-2.4-3.3-4.2-5.4l3.1-1c.9 1.1 1.9 2.5 3.1 4.2s2.2 3.2 3 4.4l-2.7.8h7.6v-9.7l-.1-1.8c1.6 0 2.8.1 3.5.2-.1.5-.1 1-.1 1.6v9.6h9.4v-9.7l-.1-1.8c1.6 0 2.7.1 3.4.2-.1.5-.1 1-.1 1.6v9.6h5.3c1.1-1.3 2.2-2.9 3.5-4.8 1.3-2 2.2-3.7 2.8-5.2l3.2 1.5-.5.5c-1.3 2.4-3 5.1-5.2 8.1h7.2c2.3 0 4 0 5-.1v3.1h-4.9zm51-1.3h-23.9v12h-3.6c.1-.7.1-1.2.1-1.8V144c0-.4 0-1-.1-1.8h27.4v-5.5h-19.8c-2.1 0-3.7 0-4.7.1v-3.1c1 0 2.5.1 4.7.1h43.2c2.1 0 3.6 0 4.6-.1v3.1c-1-.1-2.5-.1-4.6-.1h-20.1v5.5h27.6c0 .4-.1 1-.1 1.8v11.1l.1 1.8H502v-12h-24.1v13.7l.1 2.2h-3.5c.1-.5.1-1.2.1-2.2v-13.7zm29.6 35.2c.3.2.8.5 1.4.9s1.2.7 1.7 1c-.2 3.1-.8 5.4-1.9 6.9s-2.8 2.6-5.2 3.3c-2.4.7-5.7 1-9.9 1s-7.2-.1-9.1-.2c-1.9-.1-3.3-.4-4-.8-.8-.5-1.5-1.1-1.9-2-.4-.8-.6-2-.6-3.4v-2.5h-17.3v4.9H454l.1-2v-20.8l-.1-2.1h45.1c0 .4-.1 1.1-.1 2v16.1l.1 2h-21.3v2.4c0 1.6.7 2.6 2.2 3.2 1.6.3 5.1.4 10.6.4 4.6 0 8.1-.6 10.4-1.8 1.1-.7 1.9-1.6 2.3-2.8.5-1.5.8-3.4.9-5.7zm-34.9-30.5v2.4l-2.2-.1h-8.8l-2.3.1v-2.4l2.3.1h8.8l2.2-.1zm-11.1 7h8.8l2.2-.1v2.4l-2.2-.1h-8.8l-2.3.1v-2.4l2.3.1zm16.4 10.2h-17.3v6h17.3v-6zm-17.3 14.7h17.3v-6.2h-17.3v6.2zm38.5-8.7v-6h-18v6h18zm-18 8.7h18v-6.2h-18v6.2zm18.5-31.9v2.4l-2.3-.1h-8.7l-2.3.1v-2.4l2.3.1h8.7l2.3-.1zm-11 7h8.7l2.3-.1v2.4l-2.3-.1h-8.7l-2.3.1v-2.4l2.3.1zm92.9 24c2.4 0 4.2 0 5.2-.1v3.4c-1.1-.1-2.8-.1-5.2-.1h-23.3v8l.1 2.1h-3.6l.1-2.1v-8h-22.8c-2.4 0-4.2 0-5.2.1v-3.4c1.1 0 2.8.1 5.2.1h22.8v-7.1H532c.1-.8.1-1.5.1-2V152c0-.5 0-1.2-.1-2h19.3v-7.6h-21.1c-2.2 0-3.9 0-4.9.1v-3.3c1 0 2.7.1 4.9.1h21.1v-5.5l-.1-1.8c1.5 0 2.8 0 3.8.1-.1.6-.1 1.1-.1 1.8v5.5h21.8c2.2 0 3.9 0 4.9-.1v3.3c-1-.1-2.7-.1-4.9-.1h-21.8v7.6h19.7l-.1 2v19.5l.1 2h-19.7v7.1h23.3v-.1zm-26.9-27.9h-15.7v7.3h15.7v-7.3zm-15.6 10.1v7.8h15.7v-7.8h-15.7zM571 160v-7.3h-16.2v7.3H571zm-16.2 10.5H571v-7.8h-16.2v7.8zm69.4-34.8-.1 2.9v46.1l.1 4c0 1.5-.7 2.7-2 3.4s-3.7 1.1-7.3 1.1c-.6-1.3-1.1-2.6-1.8-3.8 1.5.2 2.8.3 3.9.3s2-.1 2.7-.3 1-.7 1-1.5V171h-12.6c-.6 5-1.5 9.5-2.7 13.4-1.3 4-2.7 7-4.4 9.2l-2.8-2.5c2.2-2.8 3.9-6.9 5.2-12.2s1.9-11.4 1.9-18.4v-23.6l-.1-1.2h19zm-15.7 32.2h12.4v-13.2h-12.1v6c-.1 2.7-.1 5.1-.3 7.2zm12.4-29h-12.1v12.7h12.1v-12.7zm29.1 41c1.5 2 3.3 3.8 5.4 5.5 2 1.7 4.2 3.1 6.5 4.4l-1.8 3.1c-4.8-2.7-8.8-6.1-12-10.2-3.1 4.1-6.6 7.1-10.5 9.2l-2-2.9c2-1 3.9-2.3 5.7-3.9 1.8-1.5 3.4-3.3 4.8-5.2-1.2-1.7-2.2-3.6-3.1-5.5-.9-1.9-1.7-4-2.5-6.3-.7-2.3-1.3-4.7-1.9-7.5h-4.2v28.6c0 1.3 0 2.7.1 4.1h-3.7c.1-1.4.1-2.8.1-4.1v-52.3l-.1-1.2H658l-.1 1.2c-.1 3.2-.2 5.6-.4 7.1-.1 1.6-.4 2.8-.8 3.8-.6 1.3-1.6 2.3-3.1 2.9-1.5.7-3.7 1-6.6 1-.2-.8-.7-2.1-1.5-3.8.9.3 2.1.5 3.4.5 2.5 0 4.1-.7 4.8-2.2.3-.8.5-1.8.7-3.1.1-1.3.2-2.7.2-4.3h-20.2v19h20l.3-.4c.8.5 1.7 1.3 2.8 2.2l-.5.2c-.6 3.8-1.5 7.4-2.7 10.8-1 3.5-2.5 6.6-4.3 9.3zm-8.2-19.3c1.1 6.3 3.2 11.7 6.2 16.5 2.8-4.7 4.7-10.2 5.8-16.5h-12zm63.7-2.7-.6.3c-.9 2.4-2.1 4.9-3.5 7.4-1.5 2.5-2.9 4.5-4.2 6-.7-.6-1.6-1.2-2.5-1.8 1.2-1.2 2.4-2.8 3.7-4.9 1.3-2.1 2.4-4 3.3-5.8h-8.5v25.8l.1 3.5c0 .8-.2 1.6-.5 2.2-.3.7-1 1.2-1.8 1.6-.9.4-2.1.7-3.6.9s-3.4.3-5.7.3l-2-3.8c.1 0 .7.1 1.9.2s2.3.2 3.3.2c1.4 0 2.6-.2 3.6-.5.9-.3 1.4-.9 1.4-1.9v-14c0-1.4 0-3.4.1-5.9s.2-4.7.3-6.5c-.4 1.1-.9 2.5-1.5 4.2-.7 1.7-1.5 3.6-2.5 5.8-1 2.1-2.2 4.4-3.6 6.7s-2.9 4.3-4.5 6c0-.1-.1-.2-.2-.3l-.5-.5-.9-.9-.8-.8c1.6-1.6 3.3-3.9 5-6.7 1.8-2.8 3.3-5.7 4.5-8.4 1.3-2.8 2.2-5.2 2.9-7.2h-8.4l-3.1.1V156l3.1.1h22.6l.4-.5c.5.3 1 .7 1.6 1.3.5.4.9.8 1.1 1zm-7.1-19.6h-17.6c-1.2 0-2.2 0-2.9.1v-3.2c.7 0 1.7.1 2.9.1h19.3l.4-.5c1 .8 2 1.6 3 2.5l-.8.3c-1.2 1.7-2.6 3.7-4.4 5.9s-3.5 4-5 5.5c1.9 1.1 3.8 2.4 5.9 3.9l-1.9 2.7c-1.9-1.6-4.4-3.3-7.5-5s-6-3.2-8.6-4.4l1.8-2.3c2.1.8 4.6 2 7.6 3.6 1.1-1.1 2.4-2.5 3.9-4.2 1.4-1.9 2.7-3.5 3.9-5zm38.3 32.3-.1 1.2c0 4.8-.2 8.5-.4 11s-.7 4.5-1.3 5.8c-.7 1.5-2.1 2.6-4 3.4-1.9.7-4.8 1.1-8.6 1.1 0-.2-.6-1.5-1.6-3.9 1.2.4 2.5.6 4 .6 3.8 0 6.2-.9 7.2-2.7.5-1 .9-2.6 1.1-4.6s.3-5 .4-8.9h-12c-.6 2.4-1.5 4.6-2.6 6.7-1.1 2.1-2.5 4-4.1 5.7s-3.5 3.2-5.6 4.5-4.5 2.3-7.1 3.1l-2.2-2.7c2.4-.7 4.5-1.6 6.3-2.6s3.4-2.1 4.8-3.3c1.4-1.2 2.8-2.8 4.1-4.7s2.3-4.1 3-6.7h-10.4c-1.5 0-2.6 0-3.4.1v-3.2c.8 0 1.9.1 3.4.1h11.1c.1-.7.3-1.7.4-2.9.1-1.2.1-2.2.1-3l-.1-1.3c.1 0 1.3.1 3.5.2-.1.3-.1.6-.1.9 0 .8 0 1.8-.1 3.1s-.2 2.3-.4 3h14.7zm-13.2-15c4 3 9.1 5.2 15.3 6.6l-1.4 3.3c-6.6-1.7-12-4.3-16.1-7.7-2.1 1.7-4.5 3.2-7.2 4.5-2.8 1.3-5.8 2.4-8.9 3.1-.5-.9-1-1.8-1.6-2.9 6.2-1.4 11.3-3.6 15.3-6.9-.7-.7-1.7-1.7-2.7-3-1.1-1.3-2-2.6-2.9-4.1-.8-1.4-1.5-2.7-1.9-3.6-1.6 2.1-3.2 3.8-4.6 4.9-.6-.7-1.4-1.5-2.4-2.3 1.4-1 2.9-2.4 4.3-4.2 1.4-1.8 2.7-3.7 3.7-5.7s1.9-4 2.5-6l3.3.6-.4.5c-.2.7-.6 1.8-1.2 3.1s-1 2.3-1.4 3.1h19.4c1.3 0 2.3 0 3-.1v3.1c-.7 0-1.8-.1-3-.1h-3.5c-1.5 5.5-4 10-7.6 13.8zm-10.1-13.5c1.6 4.4 4.2 8.3 7.7 11.6 3-3 5.3-7 6.7-11.8h-14.3l-.1.2z" style="fill:#1a1a1a"/>
</svg>
