<svg xmlns="http://www.w3.org/2000/svg" width="355.3" height="162.2" style="overflow:visible;enable-background:new 0 0 355.3 162.2" xml:space="preserve">
    <style>
        .st0{fill:#1a1a1a}.st2{fill:none;stroke:#1a1a1a;stroke-miterlimit:10;stroke-width:.75;stroke-linecap:round;stroke-linejoin:round}
    </style>
    <path class="st0" d="m112.7 23.1-.1.3c-.1.6-.3 1.2-.6 1.8-.3.7-.6 1.3-1.1 1.9 0-.1-.2-.2-.3-.3-.2-.1-.4-.3-.5-.4.3-.4.7-1 .9-1.6.3-.6.5-1.3.7-2.1l1 .4zm2.3 2v1.1c0 .5-.1.8-.5 1-.3.2-1 .3-1.9.3l-.6-1.2c.3.1.6.1 1 .1.3 0 .5 0 .7-.1.1-.1.2-.2.2-.4V22h-3.3v-9.2h1.1V21h6.2v1H115v3.1zm-1.8-5.2v-7.8h4.2v7.8h-4.2zm3.3-6.9h-2.2v1.5h2.2V13zm-2.2 3.7h2.2v-1.4h-2.2v1.4zm0 2.3h2.2v-1.5h-2.2V19zm2.3 3.7c.2.3.5.8.7 1.3.3.5.5 1 .7 1.4l-.9.5c-.1-.3-.3-.7-.5-1.3-.2-.5-.5-1.1-.8-1.6l.8-.3zm3.9 0c0 .1-.1.1-.1.2-.3 1.4-.7 2.7-1.4 3.9-.1-.1-.3-.2-.5-.3s-.4-.2-.5-.3c.2-.3.4-.6.5-1s.4-.8.5-1.4c.1-.5.3-1 .4-1.5l1.1.4zm2.2-1.4v4.9c0 .5-.2.8-.5 1s-1 .3-1.9.3l-.5-1.2c.3.1.6.1 1.1.1.3 0 .4 0 .5-.1.1-.1.2-.2.2-.4v-4.6l-2.2.2c-.3 0-.5.1-.7.1l-.2-1.1c.3 0 .9-.3 1.6-.9.7-.6 1.4-1.3 2.1-2.1l-3.1.3-.2-.9c.1 0 .2-.1.3-.1.1-.1.4-.3.6-.5.3-.3.6-.7 1-1.2s.8-1 1.1-1.6c-.3.1-.8.1-1.3.2s-1 .1-1.5.2c0-.1-.1-.2-.2-.4s-.2-.4-.2-.5c1.1-.1 2.3-.2 3.5-.4 1.2-.2 2.2-.4 3-.7l.7.9-.4.1c-.4.1-.9.2-1.5.4-.6.1-1.2.3-1.7.4l.7.4-.2.2c-.9 1.3-1.7 2.2-2.3 2.9l2.4-.2c.1-.1.3-.3.5-.7.2-.3.5-.7.7-1.2l1.1.6-.2.2c-.4.7-1.1 1.6-1.9 2.5s-1.6 1.8-2.4 2.4c1.5-.1 2.8-.2 3.8-.4-.2-.3-.3-.5-.5-.8-.1-.2-.3-.4-.4-.6l.8-.4c.3.4.6.9.9 1.4.3.6.7 1.2.9 1.8l-.9.5c-.1-.2-.2-.6-.5-1.1l-2.1.1zm.9 1.4 1-.4c.3.6.6 1.2.9 1.9s.5 1.3.7 1.9l-1 .5c-.2-.7-.4-1.3-.6-2-.4-.6-.7-1.3-1-1.9zm20.7-8.4h1.4v1.2h-7.3v2.7h5.8v6c0 .6-.3.9-.8 1.2-.5.2-1.4.3-2.6.3-.1-.1-.2-.3-.3-.6-.1-.3-.2-.5-.3-.7.5.1 1 .1 1.5.1.4 0 .7 0 .9-.1.2-.1.4-.2.4-.5v-4.7h-4.6v8.4h-1.3v-8.4h-4V26h-1.3v-7.8h5.3v-2.7h-7v-1.2h14.2zm-5.4-.5c-.3.1-.7.3-1.2.5-.2-.3-.4-.7-.7-1.2-.3-.5-.5-.8-.7-1.1l1.2-.5c.2.3.4.6.7 1.1s.6.9.7 1.2zm20.3 12.4c1.1 0 2.3-.1 3.6-.2 1.3-.1 2.4-.2 3.2-.3l-.3 1.2c-.7.1-1.7.2-3 .3-1.3.1-2.5.1-3.5.1-.8 0-1.5-.1-2.2-.2-.7-.1-1.3-.3-1.9-.5-.6-.2-1.1-.5-1.5-.8s-.8-.7-1-1.1l-.9 1.5c-.4.5-.8.9-1.3 1.2-.1-.1-.2-.3-.4-.5s-.3-.4-.4-.5c.7-.5 1.3-1.1 1.8-1.9s.8-1.8 1.1-2.9h-2l-.2-1c.1 0 .2-.1.3-.2l.2-.2c.2-.3.5-.6.7-1.1.3-.4.5-.8.7-1.2h-2.5v-1.1h3.1l.1-.1c.3.3.7.5.9.8l-.2.1c-.8 1.3-1.4 2.2-1.9 2.9h1.1l.1-.1c.2.1.5.4.8.7l-.2.1c-.2.9-.4 1.7-.6 2.3.1.4.3.8.7 1.1.3.3.8.6 1.3.8.5.2 1.1.4 1.9.5s1.6.3 2.4.3zm-6.7-10.8c-.3-.4-.6-.9-1-1.4-.4-.5-.8-1-1.2-1.3l.8-.6c.3.3.7.7 1.1 1.2.4.5.8 1 1.1 1.4l-.8.7zm10-2.2h-7.7v-1h8.5l.2-.2c.2.1.4.3.6.4s.3.2.4.3l-.2.1c-.4.4-.8.8-1.4 1.2-.5.4-1.1.7-1.5 1l1 .5-.1.1h2.3v8c0 .4-.2.7-.5.9s-1 .3-1.8.3l-.5-1.1c.3 0 .6.1.9.1.2 0 .4 0 .6-.1.1-.1.2-.2.2-.4v-1.5h-2.8v3.1h-1.1v-3.1h-2.8v3.1h-1.1v-9.3h4.8c-1.4-.6-2.5-1-3.5-1.3l.6-.7c.8.2 1.7.5 2.7 1l1.2-.6c.3-.3.7-.5 1-.8zm-3 3.4h-2.8v1.7h2.8v-1.7zm-2.8 4.4h2.8v-1.8h-2.8V21zm6.7-2.7v-1.7h-2.8v1.7h2.8zm-2.8 2.7h2.8v-1.8h-2.8V21zm17.1 4.1-.1 1c-.5.1-1.6.2-3.4.4-1.8.2-3.1.4-3.8.4l-.7.1-.1-1.1h.8c.7 0 1.6-.1 2.8-.3v-1.5h-2.9v-.9h2.9V22h-3.3v-1h3.3v-1.2h-3v-3h3v-1.2h-2v-1.8h-1.9v-1h1.9v-1.3h1.2v1.2h2.9v-1.2c.5 0 .9 0 1.2.1v1.3h2v1h-2v1.8h-2v1.2h3v3h-3v1.2h3.3v1h-3.3v1.2h2.9v.9h-2.9v1.4c1.4-.3 2.5-.4 3.2-.5zm-6.5-7.4v1.4h2v-1.4h-2zm1.1-2.8h2.9v-1.1h-2.9v1.1zm4 4.2v-1.4h-2v1.4h2zm8.9-3.3v5.1c0 1.2-.1 2.2-.2 3-.1.8-.2 1.4-.4 1.9-.1.4-.4.7-.7 1-.3.2-.7.4-1.1.5-.5.1-1 .2-1.7.2 0-.1-.2-.6-.5-1.4.3.1.6.1 1 .1.5 0 1-.1 1.3-.3s.5-.5.7-.8c.1-.3.2-.8.3-1.5s.1-1.5.1-2.5.1-2.4.1-4.3h-2.3c-.1 2.1-.3 3.9-.5 5.2-.3 1.3-.6 2.4-1.1 3.3-.5.9-1.1 1.7-1.9 2.4 0 0-.1-.1-.2-.1-.1-.1-.4-.2-.9-.5.4-.3.8-.7 1.1-1.1.3-.4.6-.9.9-1.4.3-.5.5-1.1.7-1.7.2-.6.3-1.4.5-2.4.1-.9.2-2.1.3-3.6h-2.5v-1.1h2.5c0-1.1.1-2.2.1-3.5v-.7l1.2.1v.3c0 1 0 2.2-.1 3.8h3.3zm10.2-2.7c-.2.6-.5 1.2-.9 1.9s-.8 1.4-1.3 2c-.5.7-1 1.3-1.6 1.8-.5.6-1 1-1.5 1.3-.3-.3-.6-.7-1-1 .4-.3.9-.6 1.3-1 .5-.4.9-.9 1.4-1.5.5-.6 1-1.2 1.4-2 .5-.7.8-1.5 1-2.2l1.2.3v.4zm3.6 8.4 1-.6c.6.7 1.3 1.7 2.1 2.8s1.5 2.3 2.1 3.4l-1.2.6c-.1-.2-.3-.5-.4-.8s-.3-.6-.5-.9c-1.6.2-4.9.5-9.8 1-.4 0-.8.1-1.3.2l-.5-1.2c.7-.4 1.4-1.1 2.2-2.1.8-.9 1.4-1.9 2.1-3.1.6-1.1 1.1-2 1.3-2.7l1.2.6c-.1.2-.2.4-.3.5-.3.7-.7 1.4-1.3 2.3-.6.9-1.1 1.7-1.7 2.5-.6.7-1 1.3-1.5 1.8.1 0 .3 0 .7-.1.4 0 1.4-.1 3.1-.3 1.7-.2 3.4-.3 5-.5-.6-1.4-1.5-2.5-2.3-3.4zm1.2-9.5c.2.6.5 1.2.8 1.9s.7 1.3 1.2 1.9c.5.6 1 1.2 1.6 1.8.6.5 1.2 1 1.8 1.3-.2.2-.4.6-.8 1.1-.4-.2-.9-.6-1.4-1s-1-1-1.6-1.6c-.6-.7-1.1-1.4-1.5-2.2-.5-.8-.8-1.5-1-2.1h-2.8v-1h3.7zm23.3 13.8h1.4V27h-15.6v-1.2h7.1v-2.3h-6v-1.1h6v-2h-5.1v-7.8h11.5v7.8h-5.2v2h6.1v1.1h-6.1v2.3h5.9zm-7-12.2h-4v2.3h4v-2.3zm-4 3.2v2.5h4v-2.5h-4zm9.1-.9v-2.3h-4.1v2.3h4.1zm-4 3.5h4.1v-2.5h-4.1v2.5zm18.4 3.7c-.1.4-.3.8-.5 1.2-.2.4-.5.7-.8 1 .7.3 1.6.6 2.6 1.1-.3.6-.5.9-.5.9-.6-.4-1.6-.8-2.8-1.4-1.2.8-2.8 1.3-4.8 1.6-.1-.3-.2-.7-.4-1 1.7-.1 3-.5 4-1-1-.4-1.8-.7-2.5-.9.3-.3.6-.8 1-1.5h-2.6v-1h3.1c.2-.4.4-.7.5-1.1h-2.9v-2.6h3.4v-1.2h-3.2v-1.9h-.8v-1h.8v-1.8h3.2v-.9c.6 0 1 0 1.2.1v1h3.2v1.9h.8v1h-.8v1.9H234v1.2h3.4v2.6h-3.8l-.1.1c-.1.3-.3.6-.5 1h5.2v1H236zm-5.5-4v1.3h2.4v-1.3h-2.4zm2.4-5.7h-2.2v1.1h2.2v-1.1zm-2.2 1.9v1.2h2.2v-1.2h-2.2zm1.1 8.9c.6.2 1.3.4 1.9.7.3-.2.5-.5.8-.8s.4-.6.5-1h-2.5c-.2.4-.4.7-.7 1.1zm4.4-9.7v-1.1H234v1.1h2.2zm-2.2 2h2.2v-1.2H234v1.2zm2.4 3.9v-1.3H234v1.3h2.4zm5.6 2.9c.7 1.3 1.8 2.4 3.2 3.2l-.4 1.1c-.3-.2-.7-.4-1.1-.7-.4-.3-.8-.7-1.2-1.1-.4-.5-.8-.9-1.1-1.5-.7 1.3-1.8 2.4-3.3 3.3 0-.1-.2-.5-.6-1.1.7-.4 1.2-.8 1.7-1.2.5-.4.8-.9 1.1-1.2s.4-.6.5-.8c-.7-1.5-1.2-3.4-1.5-5.6-.3.6-.6 1.1-1 1.5-.1-.2-.3-.6-.6-1 .4-.4.7-1 1.1-1.8.4-.8.7-1.6.9-2.4.2-.8.4-1.5.5-2.2l1 .3-.1.1c-.2.9-.4 1.9-.8 2.9h4.5v.9h-1.2c-.1 2.8-.7 5.2-1.6 7.3zm-2-7.3c.2 2.4.7 4.5 1.4 6 .4-.8.7-1.7.9-2.7.2-1 .4-2.1.5-3.4l-2.8.1z"/>
    <path d="M.2.2h354.9V162H.2zm0 38.1h354.9M.2 81.1h354.9M.2 124h354.9" style="fill:none;stroke:#1a1a1a;stroke-width:.4258;stroke-miterlimit:10"/>
    <path class="st0" d="M47.5 56.8c.7.6 1.6 1.4 2.5 2.3s1.8 1.9 2.6 2.9l-1 .9c-.4-.6-.9-1.3-1.5-1.9-.4 0-2.2.2-5.4.4s-5.1.3-5.6.4c-.4 0-.8.1-1.1.1-.2-.8-.3-1.2-.3-1.3.3 0 .7-.2 1.1-.5.4-.3 1-.7 1.6-1.3.6-.6 1.2-1.3 1.8-2 .6-.7 1-1.4 1.3-1.9.3.1.8.3 1.4.5l-.2.2c-1.7 2.2-3.2 3.8-4.6 5 1.1 0 2.7-.1 4.6-.3 1.9-.1 3.5-.2 4.6-.3-1-1-1.9-1.9-2.7-2.6l.9-.6zm2.9 6.8V71h-1.3v-1.1h-8.6V71h-1.3v-7.4h11.2zm-9.8 5.2h8.6v-4.1h-8.6v4.1zm22.3-12.9v15h-1.3v-4.1c-.3.1-.6.2-1 .4s-.9.4-1.4.6-.9.4-1.2.5c-.1 0-.3.1-.7.3 0-.1-.1-.6-.3-1.4l.7-.2c.3-.1.8-.3 1.6-.6s1.5-.6 2.3-.9v-5.1h-4.4v-1.2h4.5v-4.1H63c-.1.3-.1.6-.1.8zm8.7 9.8 1.2.8c0 .7-.1 1.4-.2 1.8s-.3.9-.5 1.2c-.3.3-.6.5-1.1.7-.5.1-1.1.2-1.9.2-.7 0-1.3 0-1.7-.1-.4-.1-.7-.2-.9-.3-.2-.1-.4-.3-.5-.5-.1-.2-.2-.5-.3-.8 0-.3-.1-.6-.1-.9V55.2l1.2.1v6.2c.9-.5 1.7-1.1 2.5-1.8s1.5-1.3 2-1.9l.9 1-.2.2c-.5.5-1.1 1-1.8 1.5s-1.3 1-1.9 1.4c-.6.4-1.1.7-1.5.9v5.1c0 .4.1.6.2.8.1.2.3.3.5.4.1 0 .2 0 .4.1s.6 0 1.2 0c.9 0 1.6-.2 1.9-.5.2-.2.3-.5.4-1 .2-.4.2-1.1.2-2zm46.9-1.3c.3.3.6.5 1.2.9.5.3 1.1.6 1.8 1s1.4.5 2.1.7c-.1.2-.3.3-.4.5-.1.2-.2.3-.3.5-1.1-.3-2.2-.8-3.2-1.4-1-.6-1.8-1.3-2.4-2.1h-3.2c-.3.3-.7.8-1.3 1.2-.5.5-1.2.9-2 1.4-.8.5-1.5.8-2.3 1.1-.1-.2-.4-.5-.8-.9.9-.3 1.8-.7 2.8-1.2s1.7-1.1 2.3-1.6h-5v-1.1h4v-5.6h-3.4v-1.1h3.4V55c.6 0 1 0 1.2.1v1.7h5.4v-1.7c.6 0 1 0 1.2.1v1.7h3.4V58h-3.4v5.6h4v1.1h-5.1zm-2.3 5.2h6.6v1.1h-14.2v-1.1h6.4v-1.7h-3.6v-1.1h3.6v-1.6h1.2v1.5h4v1.1h-4v1.8zm2.2-11.8H113v1.3h5.4v-1.3zm-5.4 2.1v1.3h5.4v-1.3H113zm0 2.2v1.3h5.4v-1.3H113zm18.2-.6c.3.3.5.5.7.8s.4.5.5.8c.1.2.2.5.3.8.1.3.2.5.2.8 0 .3.1.5.1.8 0 .4-.1.8-.2 1.2-.1.3-.3.6-.5.9-.2.3-.5.4-.8.6s-.7.2-1.2.2c0-.1-.2-.5-.6-1.2.2.1.5.1.8.1.1 0 .3 0 .4-.1.2-.1.3-.1.4-.3.1-.1.3-.3.4-.6s.2-.6.2-.9c0-.6-.2-1.3-.5-1.9-.3-.6-.8-1.2-1.4-1.7.1-.3.3-.7.5-1.2s.4-1.1.6-1.8c.2-.7.5-1.4.6-1.9h-2.5v14.3h-1.1V55.7h3.9l.2-.2c.3.3.7.5 1 .8 0 0-.1 0-.2.1-.4 1.2-.8 2.3-1.1 3.1-.2.8-.5 1.5-.7 2zm11.4 8.1h1.1v1.1h-11.1v-1.1h5.1V68h-3v-.9h3v-1.4H135c-.4.7-.8 1.3-1.3 1.8l-.8-.7c.4-.4.8-.8 1.2-1.4s.7-1.2.9-1.9l1 .3-.1.1c-.1.3-.2.6-.4.9h2.2v-1.4c.5 0 .9 0 1.2.1v1.4h4v1h-4v1.4h3.5v.7h-3.5v1.6h3.7zm-9.2-9.8c-.1-.2-.3-.4-.7-.8.6-.3 1.2-.7 1.8-1.2.6-.5 1.1-1 1.5-1.5.4-.5.7-1 .8-1.3l1.1.2-.1.1c-.1.2-.2.4-.3.5-.1.2-.2.3-.3.5h3.7l.1-.1c.4.3.8.5 1 .7l-.2.1c-.3.5-.7.9-1.2 1.4-.5.5-1 .9-1.5 1.3.6.4 1.3.7 2.1 1 .8.3 1.6.5 2.4.7-.1.1-.2.3-.2.5-.1.2-.1.3-.2.4-.6-.1-1.2-.3-1.7-.5v.9h-6.3V62c-.3.1-.6.2-1.1.3-.5.1-.8.2-1.1.3-.1-.2-.3-.5-.5-.9 1.9-.4 3.5-1 4.9-1.8-.3-.2-.6-.5-.9-.8-.3-.3-.5-.6-.7-.9-.7.6-1.5 1.2-2.4 1.6zm8 2.1c-1.1-.4-2.1-.9-3.1-1.5-.9.6-1.9 1.1-3 1.5h6.1zm-.9-4.6h-4v.1c.2.3.4.5.7.9.3.3.7.7 1.2 1 .3-.2.7-.5 1-.8.4-.3.8-.7 1.1-1.2zm-93 39.5c.7.6 1.6 1.4 2.5 2.3s1.8 1.9 2.6 2.9l-1 .9c-.4-.6-.9-1.3-1.5-1.9-.4 0-2.2.2-5.4.4s-5.1.3-5.6.4c-.4 0-.8.1-1.1.1-.2-.8-.3-1.2-.3-1.3.3 0 .7-.2 1.1-.5.4-.3 1-.7 1.6-1.3.6-.6 1.2-1.3 1.8-2 .6-.7 1-1.4 1.3-1.9.3.1.8.3 1.4.5l-.2.2c-1.7 2.2-3.2 3.8-4.6 5 1.1 0 2.7-.1 4.6-.3 1.9-.1 3.5-.2 4.6-.3-1-1-1.9-1.9-2.7-2.6l.9-.6zm2.9 6.8v7.4h-1.3v-1.1h-8.6v1.1h-1.3v-7.4h11.2zm-9.8 5.2h8.6v-4.1h-8.6v4.1zm30.9-9.7v7.1h-1.3v-1.1h-5.1v6H64v-6h-4.9v1.1h-1.3v-7.7H64V95h1.3v3.4h6.3l-.1.7zM59.1 104H64v-4.5h-4.9v4.5zm6.1 0h5.1v-4.5h-5.1v4.5zm51.1-3.7h-8.7v-1h2.6c-.1-.3-.3-.8-.5-1.3l1-.2c.2.5.4 1 .6 1.6h2.1c.1-.2.3-.5.4-.9.1-.3.2-.6.3-.8l1 .4-.1.2-.3.6-.3.6h2.8v1c-.1-.2-.4-.2-.9-.2zm-.2 8H113v2.8h-1.2v-2.8h-4.2v-1.1h4.2V106h-3v-4.6h7.1v4.6h-3v1.3h4.1v1.1c-.1-.1-.5-.1-.9-.1zm-.3-10.8h-7.7v-1h3.9c-.3-.6-.5-1-.8-1.4l1-.3c.2.2.3.5.5.8.2.3.3.6.4.9h3.5v1h-.8zm-.9 4.7H110v1.1h4.8v-1.1zM110 104v1.2h4.8V104H110zm12.9 1 .8 1s-.1 0-.2.1c-.5.6-1 1.3-1.7 1.9-.7.6-1.4 1.2-2.1 1.6-.7.5-1.5.8-2.3 1.1-.2-.3-.4-.7-.7-1.1.7-.2 1.4-.5 2.1-.9.7-.4 1.4-.9 2.1-1.5.8-.6 1.4-1.4 2-2.2zm-5.6-1.3c1.1-.5 2.1-1 2.9-1.7s1.6-1.4 2.2-2.2l.8 1s-.1 0-.2.1c-.7.8-1.4 1.5-2.2 2.2s-1.8 1.2-2.8 1.7l-.7-1.1zm5.2-7.5c-1 1.2-2.5 2.3-4.4 3.3 0-.1-.2-.3-.3-.6-.2-.3-.3-.4-.3-.5l1.2-.6c.4-.2.8-.5 1.2-.8s.8-.6 1.1-.9c.4-.3.7-.7.9-1.1l.7.9-.1.3zm4.7 6.5c.6-.5 1.1-1.1 1.7-1.8s1.1-1.4 1.5-2.1c.4-.7.8-1.4 1.1-2 .3-.6.5-1.2.6-1.7l1.2.5-.1.1c-.6 1.4-1.2 2.6-1.7 3.6v11.6h-1.4V107c0-1.5.1-3.6.1-6.2-.4.5-.8 1.1-1.2 1.6s-.9 1-1.3 1.3c.1-.1-.1-.5-.5-1zm14.9 3.1c.6.4 1 .7 1.2.8 0 1.2-.2 2-.5 2.5s-.7.9-1.2 1.2c-.6.2-1.4.4-2.4.4-.8 0-1.4 0-1.8-.1s-.7-.2-.9-.3c-.6-.4-1-1.1-1-2.3V95.2c.6 0 1 .1 1.3.1v6.9c1-.7 2-1.4 2.9-2.1s1.6-1.4 2.2-2.1l1 .9-.2.2c-.6.6-1.4 1.4-2.4 2.2-1 .8-2.1 1.6-3.4 2.4v4.4c0 .4.1.7.2.9.1.2.3.3.6.4.1 0 .3 0 .5.1h1.3c.4 0 .8 0 1.2-.1s.7-.2 1-.4c.2-.2.4-.6.5-1-.2-.6-.1-1.2-.1-2.2zm-91 31h1.4v1.1H37.3v-1.1h7.2c-.3-.6-.6-1.1-1-1.6l1.2-.4c.4.5.7 1.1 1.1 1.9h5.3zm.7 7.4v5.4c0 .2 0 .4-.1.5s-.2.3-.4.4c-.2.1-.5.2-.9.3s-1 .1-1.7.1l-.6-1.2c.5.1.9.1 1.3.1.3 0 .6 0 .8-.1.2-.1.3-.2.3-.4v-4.6H39.2v6.4H38v-7.4h13.8c.1.1 0 .3 0 .5zm-11.3-1.8v-3.3h8.8v3.3h-8.8zm7.7 6.4v.5h-5.5v.6h-1.1v-4h6.7v2.9zm0-8.8h-6.5v1.5h6.5V140zm-5.5 8.4h4.4v-1.7h-4.4v1.7zm20-9.2H60c-.1 1.2-.2 2.3-.4 3.4-.2 1-.4 2-.6 2.9-.2.9-.5 1.6-.8 2.4-.3.7-.6 1.3-1 1.9-.2-.3-.5-.6-.8-1 .5-.8 1-1.7 1.3-2.6.3-1 .6-2 .8-3.1.2-1.1.3-2.4.4-3.7h-2.1v-1.1H59c0-1.2.1-2.2.1-3 .5 0 .9.1 1.1.1v.2c0 1.2-.1 2.1-.1 2.7h3.4v1.1l-.8-.2zm-.8 6.2.8-.3c.2.5.4 1 .6 1.7.2.6.4 1.3.6 1.9.2.6.3 1.1.4 1.5l-.9.3c0-.2-.1-.6-.2-1.1-.1 0-.7.1-1.7.3-1 .2-1.6.3-1.8.3l-.5.1-.3-1.1c.1-.1.3-.3.5-.7s.4-.9.6-1.5c.2-.6.4-1.3.6-2.1.2-.8.3-1.4.4-2s.2-1 .2-1.3l1 .3-.1.2c-.1.9-.4 2.2-.8 3.7-.4 1.6-.8 2.7-1.2 3.3 1.1-.2 2-.3 2.8-.5-.1-.2-.2-.6-.4-1.2-.2-.7-.4-1.3-.6-1.8zm9.9 3.4h.9v1H66v1.2h-1.1v-9.3l.1-1.2c-.5.9-.9 1.5-1.3 2-.2-.3-.4-.7-.6-1 .5-.6 1.1-1.5 1.7-2.8.6-1.2 1.1-2.5 1.4-3.8l1.1.3-.1.1c-.3 1-.7 2-1 2.9h6.5v1.1h-3v2.4h2.6v1h-2.6v2.4h2.6v1h-2.6v2.7h2.1zm-5.9-9.4v2.4h2.5v-2.4h-2.5zm2.5 5.7v-2.4h-2.5v2.4h2.5zm-2.5 1v2.7h2.5v-2.7h-2.5zm4-8.4-.9.4c-.1-.2-.2-.5-.3-.8-.1-.3-.3-.6-.5-.9-.2-.3-.4-.6-.5-.8l.9-.4c.2.3.5.7.7 1.2.3.5.5 1 .6 1.3zm40.7 1.8v1.2c0 .5 0 1.2-.1 1.9 0 .7-.1 1.5-.2 2.2-.1.8-.2 1.5-.4 2.3s-.4 1.5-.7 2.2c-.3.7-.6 1.3-1 1.7l-.9-1c.3-.4.6-.9.9-1.6.3-.6.5-1.4.7-2.2.2-.8.3-1.7.4-2.7.1-1 .2-2 .2-3.1v-4.7h13v3.6h-11.9zm10.5-2.6h-10.5v1.7h10.5v-1.7zm1.2 9.3h1.2v1H120v4h-1.2v-4h-3.5c-.1.5-.3.9-.5 1.4s-.5.9-.9 1.3c-.3.4-.7.7-1 .9-.3.2-.7.4-1 .5l-.8-.8c.6-.3 1.1-.5 1.5-.9.4-.3.7-.7 1-1.1.3-.4.5-.8.6-1.3H111v-1h3.3v-2.6h-2.7v-1h3.2c-.6-.9-1.1-1.6-1.4-2.1l1-.4c.2.2.3.4.5.7l.6.9c.2.3.4.6.4.7l-.5.2h2.5c.1-.1.3-.4.6-.9s.6-1 .9-1.7l1.1.5-.1.2c-.4.7-.8 1.4-1.2 2h3.4v1H120v2.6h2.3zm-6.8 0h3.3v-2.6h-3.3v2.6zm28.3 3.3c-.1.1-.2.3-.4.5-.1.2-.2.4-.3.5-.9-.3-1.9-.7-2.8-1.2-.9-.5-1.8-1-2.5-1.6-.7-.5-1.4-1.1-2-1.6 0 1.5.1 3 .1 4.4v.6h-1.2v-.6c0-1.4 0-2.8.1-4.4-.9.9-2 1.7-3.2 2.5-1.3.8-2.5 1.4-3.8 1.9 0-.1-.1-.2-.3-.4-.2-.2-.3-.4-.5-.5 1.2-.4 2.4-.9 3.7-1.6 1.3-.7 2.3-1.4 3.1-2.2h-4.1v-6.3h5v-1.7h-7.1v-1.1h7.1v-1.8c.6 0 1 0 1.2.1v1.8h7.4v1.1h-7.4v1.7h5.1v6.3h-4.2c.4.4.9.8 1.6 1.2.7.5 1.5.9 2.5 1.4 1.1.3 2 .7 2.9 1zm-9-9h-3.9v1.6h3.9v-1.6zm-3.9 2.5v1.7h3.9V143h-3.9zm8.9-.9v-1.6h-3.9v1.6h3.9zm-3.9 2.6h3.9V143h-3.9v1.7z"/>
    <path class="st2" d="m99 60.5 3 3.4H79.6l3-3.4M99 67.2l3-3.3H79.6l3 3.3M99 100.7l3 3.3H79.6l3-3.3m16.4 6.7 3-3.4H79.6l3 3.4M99 140.5l3 3.4H79.6l3-3.4"/>
    <path class="st2" d="m99 147.2 3-3.3H79.6l3 3.3"/>
    <path class="st0" d="M174.3 63.5c.3.4.7.9 1.1 1.4.5.5 1 1 1.7 1.6.7.5 1.4 1 2.3 1.5.9.5 1.8.9 2.7 1.2-.3.6-.5 1-.6 1.1-1.5-.5-2.8-1.3-4.1-2.2-1.3-.9-2.4-2-3.3-3.1 0 .9 0 1.9.1 3.1v3H173v-3.4c0-1.2 0-2.1.1-2.7-.5.7-1.1 1.4-1.7 2-.7.6-1.4 1.2-2.3 1.8-.9.6-1.9 1.1-2.9 1.5-.2-.3-.4-.6-.8-1 .6-.2 1.2-.4 1.8-.8s1.4-.7 2.1-1.3c.7-.5 1.3-1 1.8-1.5s.9-1 1.2-1.4c.3-.4.5-.7.7-1v-4.9h-7.2v-1.2h7.2v-2.3c.6 0 1 0 1.3.1v2.2h7.4v1.2h-7.4v5.1zm-3.6-4.1-.1.1c-.3.6-.5 1.2-.9 1.8.8.6 1.5 1.3 2.1 2.1l-.7.8c-.8-1-1.5-1.6-1.9-2-.8 1.3-1.7 2.2-2.7 2.9-.1-.1-.4-.4-.8-.9.5-.4 1.1-.8 1.5-1.3.5-.5.9-1.1 1.3-1.7.4-.7.8-1.4 1.1-2.2l1.1.4zm8.6 0-.1.1c-.1.3-.2.6-.4.9-.1.3-.3.5-.4.7.5.4 1 .8 1.5 1.3s1 .9 1.3 1.3l-.7.9c-.4-.4-.8-.9-1.2-1.4-.5-.5-.9-.9-1.4-1.3-.5.8-1.2 1.5-1.9 2.2l-.4-.4-.4-.4c.6-.5 1.2-1.1 1.8-1.9.6-.8 1-1.6 1.3-2.5l1 .5zm21.3-2.4v14h-1.3v-1.5h-11.5V71h-1.3V56.1h14.1v.9zm-12.8 11.3h11.5V57.2h-11.5v11.1zm8.8-8.1v5.3h-6.1v-5.8h6.1v.5zm-5 4.3h3.9v-3.8h-3.9v3.8zm13.8 5.8c.2-.5.4-1.2.6-1.9.2-.7.3-1.4.4-2l.9.2c-.1.8-.2 1.6-.4 2.4s-.3 1.4-.5 1.8l-1-.5zm5.1-7.9.9-.3c.2.4.5 1 .8 1.7.3.7.5 1.2.6 1.7l-1 .4c-.1-.5-.3-.9-.4-1.2-.9.2-2.5.4-4.8.8l-.7.1-.3-1c.1 0 .3-.1.4-.3.5-.5 1-1.1 1.5-1.7.5-.6 1-1.2 1.4-1.8l-2.5.4-.6.1-.3-.9s.1 0 .1-.1.1-.1.2-.2c.5-.7 1-1.5 1.5-2.4s.9-1.8 1.2-2.5l1 .7-.2.3c-.3.7-.7 1.4-1.2 2.1-.4.8-.9 1.4-1.3 1.9 1.3-.2 2.2-.3 2.6-.4.6-.8 1-1.6 1.3-2.2l1 .7-.2.3c-.5.9-1.2 1.8-2 2.9-.8 1.1-1.6 2-2.4 2.9.8-.1 2.1-.3 3.9-.6-.1-.5-.2-.9-.5-1.4zm-2.1 4.1.9-.1c.1.5.2 1.1.3 1.8.1.7.2 1.3.2 1.8l-1 .2c0-1.3-.1-2.5-.4-3.7zm2.2-.2.8-.3c.2.4.4.8.6 1.3l.6 1.5-.9.4c-.2-.5-.3-1.1-.5-1.6-.3-.5-.4-1-.6-1.3zm10.1-8.3v.4c0 2.1 0 3.8-.1 5.1 0 1.3-.1 2.4-.2 3.4-.1.9-.3 1.6-.5 2.2-.1.3-.3.5-.5.8-.2.2-.5.4-.9.6s-.8.3-1.3.4c-.5.1-1.1.1-1.7.1l-.5-1.4c.3.1.7.1 1.2.1.8 0 1.3-.1 1.8-.3.4-.2.7-.5.9-1 .3-.6.4-1.7.5-3.3.1-1.6.1-3.6.1-6h-4.8c-.3.5-.5.9-.8 1.4-.3.4-.6.8-.9 1.1-.1-.1-.3-.2-.4-.4-.2-.2-.3-.3-.5-.4.4-.4.8-.9 1.3-1.6s.8-1.4 1.1-2.1c.3-.7.5-1.3.6-1.8l1.2.3-.1.2c-.1.4-.3.8-.4 1.2-.2.4-.3.8-.5 1.2h5.4zm-3.1 7.4-1 .6c-.2-.5-.5-1-.9-1.6-.4-.6-.8-1.1-1.2-1.5l.8-.6c.3.3.7.8 1.1 1.3.5.7.8 1.2 1.2 1.8zm20 4.8V67H231v-1.1l6.1-9.2h1.8V66h2v1h-2v3.2h-1.3zm0-8.5c0-1.5 0-2.9.1-4.2l-1.8 3-3.5 5.4h5.3v-4.2zm15.8 1.8c0 .5 0 1-.1 1.5 0 .5-.1 1-.3 1.6-.1.5-.3 1-.5 1.5s-.5.9-.9 1.3c-.3.4-.8.6-1.2.8-.5.2-1 .3-1.6.3-.6 0-1.1-.1-1.6-.3-.5-.2-1-.6-1.4-1.1-.4-.5-.8-1.3-1.1-2.2-.3-.9-.4-2.1-.4-3.4 0-.8.1-1.6.2-2.3.1-.7.3-1.3.5-1.9.2-.6.5-1.1.9-1.5.4-.4.8-.7 1.3-.9s1-.3 1.7-.3c1.5 0 2.6.6 3.3 1.8.8 1 1.2 2.8 1.2 5.1zm-1.4-.1c0-1.9-.3-3.3-.8-4.4-.6-1-1.3-1.5-2.3-1.5-.5 0-.9.1-1.3.4-.4.3-.7.6-1 1.1-.3.5-.5 1.1-.6 1.9-.1.7-.2 1.6-.2 2.5 0 .9.1 1.8.2 2.5s.4 1.4.6 1.9c.3.5.6.9 1 1.1.4.3.8.4 1.3.4.4 0 .7-.1 1-.2.3-.1.6-.4.9-.6.3-.3.5-.7.7-1.2.2-.5.4-1.1.4-1.8.1-.7.1-1.4.1-2.1zm17.5-6.8c-.2.6-.5 1.2-.9 1.9s-.8 1.4-1.4 2c-.5.7-1 1.3-1.6 1.8-.5.6-1 1-1.5 1.3-.3-.3-.6-.7-1-1 .4-.3.9-.6 1.3-1 .5-.4.9-.9 1.4-1.5.5-.6 1-1.2 1.4-2 .5-.7.8-1.5 1-2.2l1.2.3.1.4zm3.7 8.3 1-.6c.6.7 1.3 1.7 2.1 2.8.8 1.1 1.5 2.3 2.1 3.4l-1.2.6c-.1-.2-.3-.5-.4-.8s-.3-.6-.5-.9c-1.6.2-4.9.5-9.8 1-.4 0-.8.1-1.3.2l-.5-1.2c.7-.4 1.4-1.1 2.2-2.1.8-.9 1.4-1.9 2.1-3.1.6-1.1 1.1-2 1.3-2.7l1.2.6c-.1.2-.2.4-.3.5-.3.7-.7 1.4-1.3 2.3-.6.9-1.1 1.7-1.7 2.5-.6.7-1 1.3-1.5 1.8.1 0 .3 0 .7-.1.4 0 1.4-.1 3.1-.3 1.7-.2 3.4-.3 5-.5-.7-1.3-1.5-2.5-2.3-3.4zm1.2-9.5c.2.6.5 1.2.8 1.9.3.6.7 1.3 1.2 1.9.5.6 1 1.2 1.6 1.8.6.5 1.2 1 1.8 1.3-.2.2-.4.6-.8 1.1-.4-.2-.9-.6-1.4-1-.5-.4-1-1-1.6-1.6-.6-.7-1.1-1.4-1.5-2.2-.5-.8-.8-1.5-1-2.1h-2.8v-1h3.7zm23.3 13.8h1.4v1.2h-15.6v-1.2h7.1v-2.3h-6v-1.1h6v-2h-5.1V56H297v7.8h-5.2v2h6.1V67h-6.1v2.3h5.9zM290.6 57h-4v2.3h4V57zm-4 3.3v2.5h4v-2.5h-4zm9.2-1V57h-4.1v2.3h4.1zm-4.1 3.5h4.1v-2.5h-4.1v2.5zm-117.4 40.7c.3.4.7.9 1.1 1.4.5.5 1 1 1.7 1.6.7.5 1.4 1 2.3 1.5.9.5 1.8.9 2.7 1.2-.3.6-.5 1-.6 1.1-1.5-.5-2.8-1.3-4.1-2.2-1.3-.9-2.4-2-3.3-3.1 0 .9 0 1.9.1 3.1v3H173v-3.4c0-1.2 0-2.1.1-2.7-.5.7-1.1 1.4-1.7 2-.7.6-1.4 1.2-2.3 1.8-.9.6-1.9 1.1-2.9 1.5-.2-.3-.4-.6-.8-1 .6-.2 1.2-.4 1.8-.8s1.4-.7 2.1-1.3c.7-.5 1.3-1 1.8-1.5s.9-1 1.2-1.4c.3-.4.5-.7.7-1v-4.9h-7.2v-1.2h7.2v-2.3c.6 0 1 0 1.3.1v2.2h7.4v1.2h-7.4v5.1zm-3.6-4.1-.1.1c-.3.6-.5 1.2-.9 1.8.8.6 1.5 1.3 2.1 2.1l-.7.8c-.8-1-1.5-1.6-1.9-2-.8 1.3-1.7 2.2-2.7 2.9-.1-.1-.4-.4-.8-.9.5-.4 1.1-.8 1.5-1.3.5-.5.9-1.1 1.3-1.7.4-.7.8-1.4 1.1-2.2l1.1.4zm8.6 0-.1.1c-.1.3-.2.6-.4.9-.1.3-.3.5-.4.7.5.4 1 .8 1.5 1.3s1 .9 1.3 1.3l-.7.9c-.4-.4-.8-.9-1.2-1.4-.5-.5-.9-.9-1.4-1.3-.5.8-1.2 1.5-1.9 2.2l-.4-.4-.4-.4c.6-.5 1.2-1.1 1.8-1.9.6-.8 1-1.6 1.3-2.5l1 .5zm21.3-2.4v14h-1.3v-1.5h-11.5v1.5h-1.3V96.1h14.1v.9zm-12.8 11.3h11.5V97.2h-11.5v11.1zm8.8-8.1v5.3h-6.1v-5.8h6.1v.5zm-5 4.3h3.9v-3.8h-3.9v3.8zm13.8 5.8c.2-.5.4-1.2.6-1.9.2-.7.3-1.4.4-2l.9.2c-.1.8-.2 1.6-.4 2.4s-.3 1.4-.5 1.8l-1-.5zm5.1-7.9.9-.3c.2.4.5 1 .8 1.7.3.7.5 1.2.6 1.7l-1 .4c-.1-.5-.3-.9-.4-1.2-.9.2-2.5.4-4.8.8l-.7.1-.3-1c.1 0 .3-.1.4-.3.5-.5 1-1.1 1.5-1.7.5-.6 1-1.2 1.4-1.8l-2.5.4-.6.1-.3-.9s.1 0 .1-.1.1-.1.2-.2c.5-.7 1-1.5 1.5-2.4s.9-1.8 1.2-2.5l1 .7-.2.3c-.3.7-.7 1.4-1.2 2.1-.4.8-.9 1.4-1.3 1.9 1.3-.2 2.2-.3 2.6-.4.6-.8 1-1.6 1.3-2.2l1 .7-.2.3c-.5.9-1.2 1.8-2 2.9-.8 1.1-1.6 2-2.4 2.9.8-.1 2.1-.3 3.9-.6-.1-.5-.2-.9-.5-1.4zm-2.1 4.1.9-.1c.1.5.2 1.1.3 1.8.1.7.2 1.3.2 1.8l-1 .2c0-1.3-.1-2.5-.4-3.7zm2.2-.2.8-.3c.2.4.4.8.6 1.3l.6 1.5-.9.4c-.2-.5-.3-1.1-.5-1.6-.3-.5-.4-1-.6-1.3zm10.1-8.3v.4c0 2.1 0 3.8-.1 5.1 0 1.3-.1 2.4-.2 3.4-.1.9-.3 1.6-.5 2.2-.1.3-.3.5-.5.8-.2.2-.5.4-.9.6s-.8.3-1.3.4c-.5.1-1.1.1-1.7.1l-.5-1.4c.3.1.7.1 1.2.1.8 0 1.3-.1 1.8-.3.4-.2.7-.5.9-1 .3-.6.4-1.7.5-3.3.1-1.6.1-3.6.1-6h-4.8c-.3.5-.5.9-.8 1.4-.3.4-.6.8-.9 1.1-.1-.1-.3-.2-.4-.4-.2-.2-.3-.3-.5-.4.4-.4.8-.9 1.3-1.6s.8-1.4 1.1-2.1c.3-.7.5-1.3.6-1.8l1.2.3-.1.2c-.1.4-.3.8-.4 1.2-.2.4-.3.8-.5 1.2h5.4zm-3.1 7.4-1 .6c-.2-.5-.5-1-.9-1.6-.4-.6-.8-1.1-1.2-1.5l.8-.6c.3.3.7.8 1.1 1.3.5.7.8 1.2 1.2 1.8zm22.5.5c0 .6-.1 1.3-.4 1.8s-.6 1-1 1.4c-.4.4-1 .7-1.6.9-.6.2-1.3.3-2 .3-.5 0-1 0-1.5-.1s-1-.2-1.5-.4l.1-1.2c.4.2.9.3 1.4.5.5.1 1 .2 1.5.2.7 0 1.3-.1 1.9-.4.6-.2 1-.6 1.3-1.1.3-.5.5-1.1.5-1.8 0-.5-.1-.9-.2-1.3s-.4-.7-.7-1c-.3-.3-.7-.5-1.1-.6-.4-.1-1-.2-1.5-.2-.3 0-.7 0-1.2.1s-1 .2-1.6.4l.1-6.8h7.1v1.1h-5.9l-.1 4.4c.6-.2 1.3-.3 2-.3.8 0 1.6.2 2.3.5s1.2.8 1.6 1.4.5 1.4.5 2.2zm12.7.5c0 .6-.1 1.1-.4 1.6s-.6.9-1 1.3c-.4.3-1 .6-1.6.8-.6.2-1.3.3-2 .3-.5 0-1 0-1.6-.1-.6-.1-1.1-.2-1.6-.4l.1-1.2c.6.2 1.2.4 1.7.5.5.1 1 .2 1.5.2.7 0 1.4-.1 1.9-.4.5-.2 1-.6 1.3-1 .3-.4.4-1 .4-1.6 0-.9-.4-1.6-1.1-2-.7-.5-1.8-.7-3.2-.7h-.7v-1.1h.7c.6 0 1.2-.1 1.7-.2s1-.3 1.4-.5c.4-.2.7-.5.9-.8.2-.3.3-.7.3-1.2 0-.4-.1-.8-.3-1.1-.2-.3-.4-.6-.7-.8-.3-.2-.6-.4-1-.5-.4-.1-.8-.1-1.1-.1-.5 0-1 .1-1.5.2s-1 .3-1.6.5L245 97c.5-.2 1.1-.4 1.6-.4s1.1-.1 1.7-.1c.6 0 1.2.1 1.8.2s1 .4 1.4.7c.4.3.7.7.9 1.1.2.4.3.9.3 1.5 0 .5-.1.9-.3 1.3-.2.4-.4.7-.8 1-.3.3-.7.5-1.1.6-.4.2-.9.3-1.4.3.5 0 1 .1 1.4.3.4.2.8.4 1.2.7.3.3.6.6.8 1 .2.3.3.7.3 1.2zm16.7-9.8c-.2.6-.5 1.2-.9 1.9s-.8 1.4-1.4 2c-.5.7-1 1.3-1.6 1.8-.5.6-1 1-1.5 1.3-.3-.3-.6-.7-1-1 .4-.3.9-.6 1.3-1 .5-.4.9-.9 1.4-1.5.5-.6 1-1.2 1.4-2 .5-.7.8-1.5 1-2.2l1.2.3.1.4zm3.7 8.3 1-.6c.6.7 1.3 1.7 2.1 2.8.8 1.1 1.5 2.3 2.1 3.4l-1.2.6c-.1-.2-.3-.5-.4-.8s-.3-.6-.5-.9c-1.6.2-4.9.5-9.8 1-.4 0-.8.1-1.3.2l-.5-1.2c.7-.4 1.4-1.1 2.2-2.1.8-.9 1.4-1.9 2.1-3.1.6-1.1 1.1-2 1.3-2.7l1.2.6c-.1.2-.2.4-.3.5-.3.7-.7 1.4-1.3 2.3-.6.9-1.1 1.7-1.7 2.5-.6.7-1 1.3-1.5 1.8.1 0 .3 0 .7-.1.4 0 1.4-.1 3.1-.3 1.7-.2 3.4-.3 5-.5-.7-1.3-1.5-2.5-2.3-3.4zm1.2-9.5c.2.6.5 1.2.8 1.9.3.6.7 1.3 1.2 1.9.5.6 1 1.2 1.6 1.8.6.5 1.2 1 1.8 1.3-.2.2-.4.6-.8 1.1-.4-.2-.9-.6-1.4-1-.5-.4-1-1-1.6-1.6-.6-.7-1.1-1.4-1.5-2.2-.5-.8-.8-1.5-1-2.1h-2.8v-1h3.7zm23.3 13.8h1.4v1.2h-15.6v-1.2h7.1v-2.3h-6v-1.1h6v-2h-5.1V96H297v7.8h-5.2v2h6.1v1.1h-6.1v2.3h5.9zM290.6 97h-4v2.3h4V97zm-4 3.3v2.5h4v-2.5h-4zm9.2-1V97h-4.1v2.3h4.1zm-4.1 3.5h4.1v-2.5h-4.1v2.5zm-117.4 40.7c.3.4.7.9 1.1 1.4.5.5 1 1 1.7 1.6.7.5 1.4 1 2.3 1.5.9.5 1.8.9 2.7 1.2-.3.6-.5 1-.6 1.1-1.5-.5-2.8-1.3-4.1-2.2-1.3-.9-2.4-2-3.3-3.1 0 .9 0 1.9.1 3.1v3H173v-3.4c0-1.2 0-2.1.1-2.7-.5.7-1.1 1.4-1.7 2-.7.6-1.4 1.2-2.3 1.8-.9.6-1.9 1.1-2.9 1.5-.2-.3-.4-.6-.8-1 .6-.2 1.2-.4 1.8-.8s1.4-.7 2.1-1.3c.7-.5 1.3-1 1.8-1.5s.9-1 1.2-1.4c.3-.4.5-.7.7-1v-4.9h-7.2v-1.2h7.2v-2.3c.6 0 1 0 1.3.1v2.2h7.4v1.2h-7.4v5.1zm-3.6-4.1-.1.1c-.3.6-.5 1.2-.9 1.8.8.6 1.5 1.3 2.1 2.1l-.7.8c-.8-1-1.5-1.6-1.9-2-.8 1.3-1.7 2.2-2.7 2.9-.1-.1-.4-.4-.8-.9.5-.4 1.1-.8 1.5-1.3.5-.5.9-1.1 1.3-1.7.4-.7.8-1.4 1.1-2.2l1.1.4zm8.6 0-.1.1c-.1.3-.2.6-.4.9-.1.3-.3.5-.4.7.5.4 1 .8 1.5 1.3s1 .9 1.3 1.3l-.7.9c-.4-.4-.8-.9-1.2-1.4-.5-.5-.9-.9-1.4-1.3-.5.8-1.2 1.5-1.9 2.2l-.4-.4-.4-.4c.6-.5 1.2-1.1 1.8-1.9.6-.8 1-1.6 1.3-2.5l1 .5zm21.3-2.4v14h-1.3v-1.5h-11.5v1.5h-1.3v-14.9h14.1v.9zm-12.8 11.3h11.5v-11.2h-11.5v11.2zm8.8-8.1v5.3h-6.1v-5.8h6.1v.5zm-5 4.3h3.9v-3.8h-3.9v3.8zm13.8 5.8c.2-.5.4-1.2.6-1.9.2-.7.3-1.4.4-2l.9.2c-.1.8-.2 1.6-.4 2.4s-.3 1.4-.5 1.8l-1-.5zm5.1-7.9.9-.3c.2.4.5 1 .8 1.7.3.7.5 1.2.6 1.7l-1 .4c-.1-.5-.3-.9-.4-1.2-.9.2-2.5.4-4.8.8l-.7.1-.3-1c.1 0 .3-.1.4-.3.5-.5 1-1.1 1.5-1.7.5-.6 1-1.2 1.4-1.8l-2.5.4-.6.1-.3-.9s.1 0 .1-.1.1-.1.2-.2c.5-.7 1-1.5 1.5-2.4s.9-1.8 1.2-2.5l1 .7-.2.3c-.3.7-.7 1.4-1.2 2.1-.4.8-.9 1.4-1.3 1.9 1.3-.2 2.2-.3 2.6-.4.6-.8 1-1.6 1.3-2.2l1 .7-.2.3c-.5.9-1.2 1.8-2 2.9-.8 1.1-1.6 2-2.4 2.9.8-.1 2.1-.3 3.9-.6-.1-.5-.2-.9-.5-1.4zm-2.1 4.1.9-.1c.1.5.2 1.1.3 1.8.1.7.2 1.3.2 1.8l-1 .2c0-1.3-.1-2.5-.4-3.7zm2.2-.2.8-.3c.2.4.4.8.6 1.3l.6 1.5-.9.4c-.2-.5-.3-1.1-.5-1.6-.3-.5-.4-1-.6-1.3zm10.1-8.3v.4c0 2.1 0 3.8-.1 5.1 0 1.3-.1 2.4-.2 3.4-.1.9-.3 1.6-.5 2.2-.1.3-.3.5-.5.8-.2.2-.5.4-.9.6s-.8.3-1.3.4c-.5.1-1.1.1-1.7.1l-.5-1.4c.3.1.7.1 1.2.1.8 0 1.3-.1 1.8-.3.4-.2.7-.5.9-1 .3-.6.4-1.7.5-3.3.1-1.6.1-3.6.1-6h-4.8c-.3.5-.5.9-.8 1.4-.3.4-.6.8-.9 1.1-.1-.1-.3-.2-.4-.4-.2-.2-.3-.3-.5-.4.4-.4.8-.9 1.3-1.6s.8-1.4 1.1-2.1c.3-.7.5-1.3.6-1.8l1.2.3-.1.2c-.1.4-.3.8-.4 1.2-.2.4-.3.8-.5 1.2h5.4zm-3.1 7.4-1 .6c-.2-.5-.5-1-.9-1.6-.4-.6-.8-1.1-1.2-1.5l.8-.6c.3.3.7.8 1.1 1.3.5.7.8 1.2 1.2 1.8zm22.2 1c0 .6-.1 1.1-.4 1.6s-.6.9-1 1.3c-.4.3-1 .6-1.6.8-.6.2-1.3.3-2 .3-.5 0-1 0-1.6-.1-.6-.1-1.1-.2-1.6-.4l.1-1.2c.6.2 1.2.4 1.7.5.5.1 1 .2 1.5.2.7 0 1.4-.1 1.9-.4.5-.2 1-.6 1.3-1 .3-.4.4-1 .4-1.6 0-.9-.4-1.6-1.1-2-.7-.5-1.8-.7-3.2-.7h-.7v-1.1h.7c.6 0 1.2-.1 1.7-.2s1-.3 1.4-.5c.4-.2.7-.5.9-.8.2-.3.3-.7.3-1.2 0-.4-.1-.8-.3-1.1-.2-.3-.4-.6-.7-.8-.3-.2-.6-.4-1-.5-.4-.1-.8-.1-1.1-.1-.5 0-1 .1-1.5.2s-1 .3-1.6.5l-.1-1.2c.5-.2 1.1-.4 1.6-.4s1.1-.1 1.7-.1c.6 0 1.2.1 1.8.2s1 .4 1.4.7c.4.3.7.7.9 1.1.2.4.3.9.3 1.5 0 .5-.1.9-.3 1.3-.2.4-.4.7-.8 1-.3.3-.7.5-1.1.6-.4.2-.9.3-1.4.3.5 0 1 .1 1.4.3.4.2.8.4 1.2.7.3.3.6.6.8 1 0 .4.1.8.1 1.3zm9.1 3.8v-7.9c0-1.3 0-2.7.1-4.2l-1.6 1.4-.8.6-.8-.9 3.2-2.6h1.2v13.6h-1.3zm8.8 0v-1.6h1.6v1.6h-1.6zm14.9-3.5c0 .6-.1 1.1-.3 1.5-.2.5-.5.9-1 1.2-.4.3-.9.6-1.5.7-.6.2-1.2.3-1.8.3-.7 0-1.3-.1-1.8-.2-.6-.2-1-.4-1.4-.7s-.7-.7-.9-1.2c-.2-.5-.3-1-.3-1.5 0-.4.1-.8.2-1.2.1-.4.4-.7.7-1 .3-.3.6-.6 1.1-.8.4-.2.9-.5 1.4-.6-.8-.3-1.3-.6-1.8-.9-.4-.3-.7-.7-.9-1.1-.2-.4-.3-.8-.3-1.3s.1-.9.3-1.4.5-.8.9-1.1c.4-.3.8-.5 1.3-.7.5-.2 1.1-.2 1.7-.2.6 0 1.1.1 1.6.2s.9.4 1.3.7c.4.3.6.6.8 1 .2.4.3.8.3 1.3 0 .8-.2 1.5-.7 2-.5.6-1.2 1-2.2 1.4 1.2.4 2 .9 2.6 1.5.4.5.7 1.2.7 2.1zm-1.4 0c0-.7-.3-1.3-.8-1.8s-1.4-.9-2.6-1.3c-2 .6-3 1.7-3 3.1 0 .8.3 1.5.9 1.9s1.3.7 2.3.7c.4 0 .9-.1 1.3-.2s.7-.3 1-.5c.3-.2.5-.5.7-.8.1-.3.2-.7.2-1.1zm-.4-7c0-.3-.1-.7-.2-1-.2-.3-.4-.6-.7-.8-.3-.2-.7-.4-1-.4-.4-.1-.6-.1-.7-.1-.3 0-.6 0-.8.1s-.5.1-.7.3c-.2.1-.4.3-.6.5-.2.2-.4.4-.5.7-.1.3-.2.5-.2.8 0 .6.2 1.2.6 1.6.4.4 1.2.9 2.3 1.3.6-.2 1.1-.5 1.5-.8.4-.3.6-.6.8-.9.1-.4.2-.8.2-1.3zm17.9-3.1c-.2.6-.5 1.2-.9 1.9s-.8 1.4-1.4 2c-.5.7-1 1.3-1.6 1.8-.5.6-1 1-1.5 1.3-.3-.3-.6-.7-1-1 .4-.3.9-.6 1.3-1 .5-.4.9-.9 1.4-1.5.5-.6 1-1.2 1.4-2 .5-.7.8-1.5 1-2.2l1.2.3.1.4zm3.7 8.3 1-.6c.6.7 1.3 1.7 2.1 2.8.8 1.1 1.5 2.3 2.1 3.4l-1.2.6c-.1-.2-.3-.5-.4-.8s-.3-.6-.5-.9c-1.6.2-4.9.5-9.8 1-.4 0-.8.1-1.3.2l-.5-1.2c.7-.4 1.4-1.1 2.2-2.1.8-.9 1.4-1.9 2.1-3.1.6-1.1 1.1-2 1.3-2.7l1.2.6c-.1.2-.2.4-.3.5-.3.7-.7 1.4-1.3 2.3-.6.9-1.1 1.7-1.7 2.5-.6.7-1 1.3-1.5 1.8.1 0 .3 0 .7-.1.4 0 1.4-.1 3.1-.3 1.7-.2 3.4-.3 5-.5-.7-1.3-1.6-2.5-2.3-3.4zm1.1-9.5c.2.6.5 1.2.8 1.9.3.6.7 1.3 1.2 1.9.5.6 1 1.2 1.6 1.8.6.5 1.2 1 1.8 1.3-.2.2-.4.6-.8 1.1-.4-.2-.9-.6-1.4-1-.5-.4-1-1-1.6-1.6-.6-.7-1.1-1.4-1.5-2.2-.5-.8-.8-1.5-1-2.1h-2.8v-1h3.7zm23.4 13.8h1.4v1.2h-15.6v-1.2h7.1v-2.3h-6v-1.1h6v-2h-5.1V136h11.5v7.8H311v2h6.1v1.1H311v2.3h5.9zm-7.1-12.2h-4v2.3h4V137zm-4 3.3v2.5h4v-2.5h-4zm9.1-1V137h-4.1v2.3h4.1zm-4 3.5h4.1v-2.5h-4.1v2.5z"/>
</svg>
