<svg xmlns="http://www.w3.org/2000/svg" width="36.3" height="46" style="overflow:visible;enable-background:new 0 0 36.3 46" xml:space="preserve">
    <style>
        .st0{fill:#1a1a1a}
    </style>
    <g id="XMLID_1_">
        <path id="XMLID_39_" class="st0" d="M3.5 0C1.6 0 0 1.6 0 3.5v39C0 44.4 1.6 46 3.5 46h29.3c1.9 0 3.5-1.6 3.5-3.5v-39c0-1.9-1.6-3.5-3.5-3.5H3.5zm31.6 3.5v39c0 1.3-1 2.3-2.3 2.3H3.5c-1.3 0-2.3-1-2.3-2.3v-39c0-1.3 1-2.3 2.3-2.3h29.3c1.3 0 2.3 1.1 2.3 2.3z"/>
        <path id="XMLID_36_" class="st0" d="M32 5.4H4.3c-.5 0-.9.4-.9.9v8.5c0 .5.4.9.9.9H32c.5 0 .9-.4.9-.9V6.2c0-.5-.4-.8-.9-.8zm-.8 8.5h-26V7.1h26v6.8z"/>
        <path id="XMLID_33_" class="st0" d="M29.7 31.3h-5.3c-.5 0-.9.4-.9.9v9.5c0 .5.4.9.9.9h5.3c.5 0 .9-.4.9-.9v-9.5c-.1-.6-.5-.9-.9-.9zm-.9 9.4h-3.6V33h3.6v7.7z"/>
        <path id="XMLID_30_" class="st0" d="M25.5 22.5h3c.9 0 1.7-.9 1.7-2s-.8-2-1.7-2h-3c-.9 0-1.7.9-1.7 2s.8 2 1.7 2zm0-3.1h3c.5 0 .8.5.8 1.1 0 .6-.4 1.1-.8 1.1h-3c-.5 0-.8-.5-.8-1.1-.1-.6.3-1.1.8-1.1z"/>
        <path id="XMLID_27_" class="st0" d="M25.5 28.9h3c.9 0 1.7-.9 1.7-2s-.8-2-1.7-2h-3c-.9 0-1.7.9-1.7 2s.8 2 1.7 2zm0-3.1h3c.5 0 .8.5.8 1.1 0 .6-.4 1.1-.8 1.1h-3c-.5 0-.8-.5-.8-1.1-.1-.6.3-1.1.8-1.1z"/>
        <path id="XMLID_24_" class="st0" d="M19.9 18.6h-3.1c-.9 0-1.7.9-1.7 2s.8 2 1.7 2h3.1c.9 0 1.7-.9 1.7-2 0-1.2-.7-2-1.7-2zm0 3.1h-3.1c-.5 0-.8-.5-.8-1.1 0-.6.4-1.1.8-1.1h3.1c.5 0 .8.5.8 1.1.1.6-.3 1.1-.8 1.1z"/>
        <path id="XMLID_21_" class="st0" d="M19.9 24.8h-3.1c-.9 0-1.7.9-1.7 2s.8 2 1.7 2h3.1c.9 0 1.7-.9 1.7-2s-.7-2-1.7-2zm0 3.1h-3.1c-.5 0-.8-.5-.8-1.1 0-.6.4-1.1.8-1.1h3.1c.5 0 .8.5.8 1.1.1.6-.3 1.1-.8 1.1z"/>
        <path id="XMLID_18_" class="st0" d="M11.3 18.6h-3c-.9 0-1.7.9-1.7 2s.8 2 1.7 2h3c.9 0 1.7-.9 1.7-2 0-1.2-.8-2-1.7-2zm0 3.1h-3c-.5 0-.8-.5-.8-1.1 0-.6.4-1.1.8-1.1h3c.5 0 .8.5.8 1.1 0 .6-.3 1.1-.8 1.1z"/>
        <path id="XMLID_15_" class="st0" d="M11.3 24.8h-3c-.9 0-1.7.9-1.7 2s.8 2 1.7 2h3c.9 0 1.7-.9 1.7-2s-.8-2-1.7-2zm0 3.1h-3c-.5 0-.8-.5-.8-1.1 0-.6.4-1.1.8-1.1h3c.5 0 .8.5.8 1.1 0 .6-.3 1.1-.8 1.1z"/>
        <path id="XMLID_12_" class="st0" d="M11.3 31.1h-3c-.9 0-1.7.9-1.7 2s.8 2 1.7 2h3c.9 0 1.7-.9 1.7-2s-.8-2-1.7-2zm0 3.1h-3c-.5 0-.8-.5-.8-1.1 0-.6.4-1.1.8-1.1h3c.5 0 .8.5.8 1.1 0 .6-.3 1.1-.8 1.1z"/>
        <path id="XMLID_9_" class="st0" d="M11.3 37.3h-3c-.9 0-1.7.9-1.7 2s.8 2 1.7 2h3c.9 0 1.7-.9 1.7-2s-.8-2-1.7-2zm0 3.1h-3c-.5 0-.8-.5-.8-1.1 0-.6.4-1.1.8-1.1h3c.5 0 .8.5.8 1.1 0 .6-.3 1.1-.8 1.1z"/>
        <path id="XMLID_6_" class="st0" d="M19.7 31.1h-3.1c-.9 0-1.7.9-1.7 2s.8 2 1.7 2h3.1c.9 0 1.7-.9 1.7-2s-.8-2-1.7-2zm0 3.1h-3.1c-.5 0-.8-.5-.8-1.1 0-.6.4-1.1.8-1.1h3.1c.5 0 .8.5.8 1.1.1.6-.3 1.1-.8 1.1z"/>
        <path id="XMLID_3_" class="st0" d="M19.7 37.3h-3.1c-.9 0-1.7.9-1.7 2s.8 2 1.7 2h3.1c.9 0 1.7-.9 1.7-2s-.8-2-1.7-2zm0 3.1h-3.1c-.5 0-.8-.5-.8-1.1 0-.6.4-1.1.8-1.1h3.1c.5 0 .8.5.8 1.1.1.6-.3 1.1-.8 1.1z"/>
    </g>
</svg>
