<svg xmlns="http://www.w3.org/2000/svg" width="915" height="460.5" style="overflow:visible;enable-background:new 0 0 915 460.5" xml:space="preserve">
    <style>
        .st0{fill:#1a1a1a}.st1{fill:#ecf0f6}.st2{fill:none;stroke:#1a1a1a;stroke-width:.6222;stroke-miterlimit:10}
    </style>
    <path class="st0" d="m6.8 447 .3.8-3 .9 2.1 2.6-.7.5-1.8-2.7-1.8 2.7-.9-.5 2-2.6-3-.9.3-.8 3 1.1-.2-3.2h.8l-.1 3.2 3-1.1zM12.5 450v2.8h3.1V460.3h-.9V453.6h-2.2c-.1.9-.2 1.7-.3 2.5-.1.8-.3 1.5-.5 2.2-.2.7-.5 1.2-.8 1.7l-.7-.7c.5-.7.9-1.7 1.1-2.9.3-1.2.4-2.7.4-4.4v-6.9h.9v4.2h1.9v-4.7h.9V449.2H17v.8h-4.5zm13 5.6h1v.8h-3v3.9h-.9v-3.9h-6.2v-.8h6.2v-2.8c.4 0 .7 0 .9.1V455.6h2zm-8.4-1.1c.4-.1.8-.3 1.1-.4.3-.1.6-.3.9-.5.3-.2.5-.4.7-.7.2-.3.4-.5.6-.8h-2.9v-5.8h2.9c.1-.1.2-.3.4-.7s.3-.8.5-1.2l1 .1-.1.2c-.2.5-.4 1-.7 1.5h4.2v5.8h-4.3c-.2.4-.4.8-.6 1.1-.3.4-.6.7-1.1 1s-1.1.7-1.9 1c-.2-.1-.4-.3-.7-.6zm4.2-7.6h-2.9v1.9h2.8c.1-.5.1-1.2.1-1.9zm-2.9 4.5h2.3c.2-.5.3-1.2.5-2h-2.8v2zm3.2 0h3.2v-2H22c-.1.8-.3 1.4-.4 2zm3.1-2.6v-1.9h-2.6c0 .6 0 1.2-.1 1.9h2.7zM30.1 459.9c.5-.5.9-1 1.4-1.7.4-.7.7-1.3.9-1.7l.8.3c-.2.5-.5 1.1-.8 1.7-.3.6-.6 1-.9 1.3-.2.3-.4.5-.5.6l-.9-.5zm5.1-14.6V455.2h-4.5V445.4h4.5zm-.8.8h-2.8v3.7h2.8v-3.7zm-2.8 8.3h2.8v-3.9h-2.8v3.9zm3.7 2.4.8-.2c.1.4.2.9.3 1.5s.2 1.2.2 1.9l-.9.2c0-.5-.1-1-.2-1.7s-.1-1.2-.2-1.7zm5.7-10.6c0 .7-.2 1.3-.6 1.9-.3.6-.8 1-1.4 1.5-.6.4-1.3.8-2.2 1.2l-.5-.7c.6-.2 1.2-.4 1.6-.7.5-.3.9-.6 1.2-.9.3-.3.6-.7.7-1s.3-.7.3-1.1H37v-.8H44.9v.3c0 1.3-.1 2.2-.1 2.6-.1.4-.1.7-.2.9-.1.2-.2.4-.4.6-.2.2-.5.3-.8.4-.4.1-.9.1-1.5.1-.2-.4-.3-.7-.4-1 .3.1.6.1.9.1.7 0 1.2-.2 1.4-.6.1-.1.1-.4.2-.7 0-.3.1-1 .1-2H41zm-3.6 9.4v-4.4h6.8v4.4h-6.8zm.9-.7h5.1v-2.8h-5.1v2.8zm.4 2 .8-.2c.2.3.3.6.5 1l.6 1.2c.2.4.3.7.4 1l-.9.3c-.1-.4-.2-.8-.4-1.2-.2-.5-.4-.9-.5-1.2-.3-.5-.4-.8-.5-.9zm4.5-.4c.3.4.7.8 1.1 1.4.4.6.8 1.2 1.1 1.8l-.8.4c-.2-.5-.6-1.1-1-1.8-.4-.6-.8-1.2-1.1-1.6l.7-.2zM52.8 450.6V460.4h-.9v-3.5c0-1.5 0-3.3.1-5.4-.3 1.2-.8 2.3-1.2 3.3s-1 1.9-1.4 2.4c-.1-.3-.3-.5-.5-.8.5-.6 1-1.5 1.6-2.6.5-1.1.9-2.2 1.2-3.3h-2.5v-.8H52v-3.1c-.3.1-.7.2-1.1.3-.4.1-.9.2-1.2.3 0-.1-.2-.4-.3-.7.8-.1 1.6-.4 2.5-.7.9-.3 1.7-.7 2.3-1l.6.7c-.1 0-.2 0-.3.1-.3.1-.8.4-1.6.7v3.5H55v.8h-2.2zm2.6 4.1-.6.5c-.2-.5-.4-.9-.7-1.4-.3-.5-.5-.9-.7-1.1s-.3-.4-.3-.5l.6-.4c.3.4.6.8.9 1.4.2.4.5 1 .8 1.5zm8.9 2.1c.4.3.6.4.8.5 0 .7-.1 1.3-.2 1.7s-.2.6-.4.8c-.2.2-.4.3-.7.4s-.7.1-1.2.1H62c-.2 0-.4-.1-.5-.1-.1-.1-.2-.1-.3-.1-.3-.2-.4-.6-.4-1.2v-4.8h-2c0 .8-.1 1.6-.3 2.3-.2.7-.4 1.3-.7 1.8-.3.5-.7 1-1.2 1.4-.5.4-1.1.7-1.8.9-.1-.2-.3-.4-.6-.7.8-.3 1.5-.6 2-1.1s.9-1 1.2-1.8c.3-.7.5-1.6.5-2.8h-1.5v-5h6.7v5h-1.5v4.9c0 .3.1.4.3.5.1 0 .4.1.7.1.2 0 .4 0 .6-.1.2-.1.4-.2.5-.3.1-.2.2-.4.3-.7.1-.3.1-.6.1-1 .2-.3.2-.6.2-.7zm-9-7.4c-.2-.2-.4-.5-.5-.6.3-.2.6-.5 1-.8.4-.4.8-.9 1.2-1.4.4-.6.8-1.2 1-1.8l.8.3-.1.1c-.1.2-.2.4-.4.7-.2.3-.4.6-.6 1s-.5.7-.7 1-.5.6-.8.8c-.4.2-.7.5-.9.7zm2.1.4v3.5h4.9v-3.5h-4.9zm7.4-1.1-.6.7c-.2-.3-.5-.7-.9-1.2s-.8-1-1.3-1.6c-.5-.6-.9-1.1-1.3-1.5l.7-.4c.5.6 1.1 1.2 1.7 2 .7.7 1.2 1.4 1.7 2zM70.9 448.3V460.4h-1v-.8c0-2.1.1-5.5.2-9.9l-.9 1.8c-.3.6-.7 1.1-1 1.6l-.5-.9c.7-.9 1.4-2.1 2.1-3.7.7-1.5 1.2-3 1.5-4.3l.8.3-.1.1c-.2 1.3-.6 2.5-1.1 3.7zm13.8 11.4-.3.7c-2.3-.2-4.3-.6-6-1.4-1.6.7-3.8 1.2-6.5 1.4 0-.1-.1-.2-.2-.4-.1-.1-.2-.3-.2-.4 1.2-.1 2.3-.2 3.3-.4s1.9-.4 2.7-.7c-.8-.4-1.5-1-2.1-1.7-.4.2-.8.5-1.3.7s-1 .5-1.5.7c-.1-.1-.2-.3-.5-.6.7-.2 1.4-.5 2-.9.6-.3 1.2-.7 1.6-1 .4-.3.7-.6.9-.9l-.3-.1-.3-.3c-.1-.2-.1-.3-.1-.5v-1.5c.1 0 .3 0 .8.1v1.5c0 .2.1.3.4.4.2 0 .7.1 1.5.1.4 0 .7 0 .9-.1s.4-.1.6-.2l.3-.3c.1-.1.1-.3.1-.4 0-.2 0-.3.1-.5l.7.4c0 .3-.1.6-.2.8-.1.2-.2.4-.5.6s-.5.2-.8.3c-.3.1-.8.1-1.3.1h-1c0 .1-.2.2-.3.4s-.4.4-.6.6h4.6l.1-.1c.1.1.4.3.7.5l-.2.1c-.4.4-.8.8-1.3 1.2s-.9.7-1.4.9c1.6.4 3.4.7 5.6.9zm-12.1-5.8V451.2h2.3v-4.5h2.6c.2-.3.3-.6.4-.9H73v-.7h10.9v.7h-5.1l-.4.9h3.5v4.5h2.3V453.9h-.8v-2.1h-10v2.1h-.8zm.1 1.4c.3-.2.6-.5.9-.8s.6-.6.8-.9c.2-.3.4-.6.4-.8l.6.4-.1.1c-.2.4-.5.9-.9 1.3-.4.5-.8.9-1.2 1.2-.1-.1-.2-.3-.5-.5zm8.5-8h-5.5v.9h5.5v-.9zm-5.5 1.4v.9h5.5v-.9h-5.5zm0 1.5v1h5.5v-1h-5.5zm.4 6.4c.3.3.6.6 1 .9.4.3.8.5 1.2.7.3-.1.7-.3 1.1-.6s.9-.6 1.3-1h-4.6zm3.1-3.2c-.2-.2-.5-.4-.9-.6-.4-.2-.7-.4-1-.5l.4-.4c.3.1.6.3 1 .4.4.2.7.4 1 .6-.3.3-.4.5-.5.5zm2.7-1c.3.3.7.7 1.1 1.2.4.5.8 1 1.1 1.5l-.7.5c-.2-.5-.5-1-.9-1.5s-.8-1-1.1-1.3l.5-.4zM87.5 458.9c.4-.3.9-.7 1.5-1.3.5-.6.9-1.1 1.1-1.6l.8.3-.1.1c-.3.6-.7 1.2-1.2 1.8-.5.6-1 1.1-1.4 1.4l-.7-.7zm7.8-12.4h-7v-.8h7v-1.4c.4 0 .8 0 1 .1v1.4h7.2v.8h-7.2v1.2h4.9v4.8h-4.9v1.4c2.2-.1 3.8-.2 4.8-.3-.3-.3-.5-.6-.8-.8l.6-.4c.4.3.8.7 1.2 1.2.4.5.8.9 1.1 1.4l-.7.5c-.2-.3-.5-.7-.8-1.2-1.1.1-3.1.2-6 .3-2.9.1-5.1.2-6.4.2l-.7.1-.2-.9h.8c1.2 0 3.3 0 6.1-.1v-1.5h-4.9v-4.8h4.9v-1.2zm0 1.8h-4v1.4h4v-1.4zm-4 3.5h4v-1.4h-4v1.4zm7.1 7.3c.3-.2.4-.4.5-.6.1-.3.1-.6.2-1 .3.1.6.3.9.5-.1.7-.2 1.1-.5 1.5-.3.3-.7.5-1.2.7-.6.1-1.3.2-2.3.2h-2c-.5 0-.9-.1-1.1-.2-.2-.1-.4-.3-.5-.5-.1-.2-.1-.5-.1-.8v-3.1c.6 0 .9.1 1 .1V458.8c0 .3.2.6.6.6.2 0 1 .1 2.3.1.6 0 1.1 0 1.4-.1.2-.1.6-.2.8-.3zm-1.6-1.8c-.1-.1-.3-.3-.6-.5s-.5-.4-.9-.7l-.9-.6.6-.5c.4.2.8.5 1.3.8.5.3.9.6 1.2.9-.2.2-.4.4-.7.6zm3.4-9h-4v1.4h4v-1.4zm-4 3.5h4v-1.4h-4v1.4zm4.8 3.9c.4.3.8.7 1.4 1.3l1.5 1.8-.8.5c-.3-.5-.8-1.1-1.3-1.7-.5-.6-1-1.1-1.5-1.5l.7-.4zM108.1 447.3h5.1v.8H107.3v-.8h.8zm4.7 7.3v5.2h-.8v-1h-3.3v1h-.8v-5.2h4.9zm-1-4.1H107.9v-.8h4.7v.8h-.8zM108 453v-.8h4.7v.8H108zm.7 5.1h3.3v-2.8h-3.3v2.8zm2.4-11.5-.8.4c-.1-.3-.3-.7-.6-1.2s-.5-.8-.7-1.1l.8-.4c.2.3.4.6.7 1.1l.6 1.2zm6.3-1.7c-.3.7-.7 1.4-1.2 2.1-.5.7-.9 1.2-1.4 1.7-.4.4-.8.8-1.1 1-.2-.3-.4-.5-.5-.7.4-.3.8-.6 1.1-.9.3-.3.6-.6.8-.9.2-.3.5-.6.7-1.1.3-.4.6-1 .8-1.6l.8.4zm5.2 11.6s.1.1.2.1c.1.1.3.2.6.4 0 .5 0 .9-.1 1.3 0 .4-.1.7-.3 1-.1.3-.3.5-.6.6-.3.1-.7.2-1.3.2h-1c-.3 0-.5-.1-.6-.2-.3-.2-.4-.6-.4-1v-5.1h-1.7c0 .9-.1 1.9-.4 2.7s-.6 1.6-1.1 2.3c-.5.7-1.1 1.2-1.9 1.5l-.6-.7c.4-.2.8-.4 1.2-.7s.7-.7 1.1-1.3.6-1.2.7-1.9c.2-.7.2-1.4.3-2h-1.6v-4.8h6.6v4.8H120v5c0 .3.1.5.3.5.1 0 .4.1.9.1.3 0 .5 0 .7-.1.2-.1.3-.2.4-.3.1-.1.2-.3.2-.6s0-.9.1-1.8zm-6.8-6.7v3.2h4.9v-3.2h-4.9zm7.4-.9-.6.7c-.2-.3-.5-.8-.9-1.4-.4-.6-.9-1.2-1.4-1.8-.5-.7-1-1.2-1.3-1.6l.6-.4c1.3 1.5 2.5 3 3.6 4.5zM131.9 455.4h-3.6v1.7h-.9V445.7h5.4V456.5h-.9v-1.1zm0-9.1h-3.6v3.6h3.6v-3.6zm-3.7 8.3h3.6v-3.9h-3.6v3.9zm13.4-8.7v12.9c0 .2 0 .4-.1.6-.1.2-.2.3-.5.4-.2.1-.5.2-.9.2s-.8.1-1.4.1l-.5-1c.3.1.8.1 1.3.1.4 0 .6 0 .9-.1s.3-.2.3-.5v-4.3h-5.1c-.1.6-.3 1.2-.5 1.8-.2.6-.5 1.1-.8 1.6-.3.5-.6.9-1 1.3s-.8.8-1.2 1.1l-.8-.6c2.5-1.7 3.7-4.5 3.7-8.2v-6.2h6.6v.8zm-5.8 7.7h4.9v-3.5H136v1.3c0 .7-.1 1.4-.2 2.2zm4.9-7.6H136v3.3h4.8V446zM153.1 450.6V449h1.5v1.6h-1.5zm0 5.2v-1.6h1.5v1.6h-1.5zM173.1 455l-.1 1c-.5.2-1.6.6-3.3 1.2-1.8.6-3 1-3.8 1.2l-.7.2-.2-1 .8-.2.7-.2v-7.7c.4 0 .7 0 .9.1v7.4l1.7-.5V447h-3.6v-.9H173.1v.9H170v3.7h2.5v.8H170v4.7c.3-.1.7-.2 1.2-.4s.9-.3 1.3-.5c.1-.1.4-.2.6-.3zm4.2.7c.6.9 1.2 1.6 1.9 2.3.7.7 1.5 1.2 2.3 1.6-.2.3-.3.5-.5.8-.4-.2-.8-.5-1.3-.8-.5-.4-1-.8-1.5-1.4-.5-.6-1-1.1-1.4-1.7-.4.6-1 1.2-1.6 1.7-.7.6-1.3 1-2 1.4-.7.4-1.3.7-1.8.8-.1-.2-.2-.4-.5-.8.4-.1.9-.3 1.4-.6.5-.3 1-.5 1.5-.9.5-.3.9-.6 1.2-.9l.8-.8c.2-.3.4-.5.5-.7-.9-1.7-1.6-3.5-1.9-5.5-.1.2-.2.5-.4.8s-.3.6-.5.9c-.2.3-.3.5-.5.7-.1-.1-.2-.2-.3-.4s-.2-.2-.3-.3c.7-.9 1.3-2 1.8-3.4s.9-2.8 1.2-4.1l.9.2-.1.1c-.2 1-.5 2-.8 3H181.3v.9h-1.6c-.1 1-.3 2-.5 3-.3.9-.5 1.7-.8 2.4s-.8 1.2-1.1 1.7zm-2.2-7.2-.1.3c.1 1.1.4 2.2.7 3.2.3 1 .7 1.9 1.2 2.8 1.1-1.8 1.7-3.9 2-6.3h-3.8zM198.5 447.3h-11.4v4.6c0 1.1-.1 2.2-.2 3.3-.1 1.1-.3 2.1-.6 2.9-.3.8-.5 1.5-.9 1.9l-.8-.6c.5-.8.8-1.8 1.1-3.1.3-1.3.4-2.8.4-4.5v-5.3h13.5v.9c-.1-.1-.5-.1-1.1-.1zm-7.9 4.1v9h-1v-3.2c0-1.2.1-2.7.1-4.6-.6.9-1.2 1.7-1.9 2.4-.1-.2-.3-.5-.5-.8.6-.5 1.1-1.2 1.6-1.9.5-.8 1-1.5 1.3-2.2.3-.7.6-1.3.8-1.8l.8.3-.1.1c-.1.8-.6 1.8-1.1 2.7zm3.3-5.3-.8.4c-.5-.7-1-1.4-1.5-2l.8-.4c.6.7 1.2 1.4 1.5 2zm5.2 4.9h.9v.9h-2v6.8c0 .3-.1.6-.3.8-.2.2-.5.4-1 .5-.5.1-1.3.2-2.4.2l-.2-.4c-.1-.2-.2-.4-.4-.6.6.1 1.1.1 1.7.1.5 0 .8 0 1.1-.1s.4-.3.4-.5v-6.6H191.6V451H196.9v-2.7c.3 0 .6 0 1 .1v2.7h1.2zm-3.8 4.7-.6.6c-.3-.4-.6-.8-1-1.3s-.8-.8-1.1-1.2l.5-.5c.3.3.7.6 1.1 1.1.4.4.8.9 1.1 1.3zM203.8 459.6c.2-.5.4-1.1.6-1.9.2-.7.3-1.4.3-2l.7.2-.3 2.1c-.2.7-.3 1.4-.5 1.9-.4-.1-.6-.2-.8-.3zm.2-5.6c.2-.1.3-.2.4-.2.4-.5.9-1.1 1.4-1.8s.9-1.3 1.3-2l-2.3.3c-.2 0-.3.1-.5.1l-.2-.7c.1 0 .2-.1.3-.2.5-.7 1-1.5 1.5-2.4.5-.9.9-1.8 1.3-2.6l.7.4-.2.3c-.4.7-.8 1.5-1.2 2.3-.4.8-.9 1.5-1.3 2.1l2.4-.3c.4-.7.7-1.4 1-2l.7.4c-.1.1-.2.3-.3.4-1.4 2.5-2.6 4.4-3.7 5.7 1.5-.2 2.5-.4 3-.5-.3-.6-.5-1.1-.7-1.5l.6-.2c.4.8.9 1.9 1.4 3.2l-.7.3c-.1-.4-.3-.8-.4-1.2-1.4.3-2.6.5-3.6.7l-.6.1-.3-.7zm2.3 1.8.6-.1c.2.9.4 2 .5 3.6l-.7.2c0-.4 0-1-.1-1.6l-.3-2.1zm1.6-.1.6-.2c.2.4.4.9.6 1.5.2.6.4 1.1.5 1.6l-.6.3c-.1-.5-.3-1.1-.5-1.6-.2-.6-.4-1.1-.6-1.6zM219 459h.9v.8H210V445.1c.2 0 .5 0 .8.1v6.3h9.2v.8h-9.2v6.9h8.2zm-7.8-9c.2-.1.5-.3.9-.7.4-.4.8-.9 1.2-1.5l-1.8.3-.2-.6c.1 0 .2-.2.4-.4s.4-.6.7-1.1.5-.9.6-1.2l.6.3s-.1.1-.1.2c-.5 1-1 1.7-1.3 2.2l1.4-.1c.4-.6.6-1 .7-1.2l.6.3c-.1.1-.1.1-.2.3-.4.7-.9 1.3-1.3 1.9s-.8 1.1-1.2 1.4c.6-.1 1.3-.2 2-.3l-.5-.9.5-.2c.2.2.4.5.6.9.2.4.4.7.5 1.1l-.5.2c0-.2-.1-.4-.2-.6l-2.6.3c-.1 0-.2 0-.5.1l-.3-.7zm.1 7.5c.2-.1.5-.3.9-.7.4-.4.8-.9 1.1-1.5-.7.1-1.3.2-1.8.3l-.2-.6c.2 0 .5-.4.9-1.1s.7-1.2.8-1.6l.6.3s0 .1-.1.1 0 .1-.1.1c-.6 1.1-1 1.8-1.3 2.2.5 0 1-.1 1.4-.1.1-.2.2-.4.4-.6.1-.2.3-.4.3-.6l.6.3-.2.3c-1 1.6-1.8 2.7-2.5 3.3.9-.1 1.6-.2 1.9-.2-.1-.1-.2-.4-.5-.9l.5-.2c.2.2.4.6.6.9s.4.7.5 1.1l-.5.2c0-.2-.1-.4-.2-.6l-2.6.3c-.2 0-.3 0-.5.1v-.8zm4.1-7.5c.2-.1.5-.3.9-.7.4-.4.7-.9 1.1-1.5l-1.8.3-.2-.6c.1 0 .2-.2.4-.4s.4-.6.7-1.1.5-.9.6-1.2l.6.3s-.1.1-.1.2c-.5 1-1 1.7-1.3 2.2.9-.1 1.4-.1 1.5-.2.3-.4.5-.8.7-1.2l.6.3c-.1.1-.1.1-.2.3-.8 1.3-1.4 2.1-1.7 2.5s-.6.7-.8.9l2-.3c-.1-.1-.2-.4-.5-.9l.5-.2c.2.2.4.5.6.9s.4.7.5 1.1l-.5.2c0-.2-.1-.4-.2-.6l-2.6.3c-.1 0-.2 0-.5.1l-.3-.7zm.1 7.5c.2-.1.5-.3.9-.7.4-.4.7-.9 1.1-1.5l-1.8.3-.2-.6c.2 0 .5-.4.9-1.1s.7-1.2.8-1.6l.6.3s0 .1-.1.1c0 0 0 .1-.1.1-.6 1.1-1 1.8-1.3 2.2.5 0 1-.1 1.4-.1.3-.4.5-.8.7-1.2l.6.3-.2.3c-.6 1-1.1 1.7-1.5 2.2-.4.5-.7.9-1 1.1l1.9-.2c-.1-.1-.2-.4-.5-.9l.5-.2c.2.2.4.6.6.9.2.4.4.7.5 1.1l-.5.2c0-.2-.1-.4-.2-.6l-2.6.3c-.2 0-.3 0-.5.1v-.8zM223.2 459.6c.2-.5.4-1.2.6-1.9.2-.7.3-1.4.3-2l.7.2-.3 2.1c-.2.7-.3 1.4-.5 1.9l-.8-.3zm.1-5.6c.2-.1.3-.2.4-.2.4-.5.9-1.1 1.4-1.8.5-.7.9-1.3 1.3-2-.6.1-1.3.2-2.4.3l-.5.1-.2-.7c.1 0 .2-.1.3-.2.5-.7 1-1.5 1.5-2.4.5-.9.9-1.8 1.2-2.6l.7.5c-.1.1-.2.2-.2.3-.2.3-.4.8-.8 1.5s-.7 1.3-1 1.8c-.3.5-.6.9-.8 1.2.9-.1 1.8-.2 2.5-.4.5-.8.8-1.4 1.1-2l.7.5s-.1.1-.1.2c-.1.1-.1.1-.1.2-1.4 2.5-2.8 4.4-4 5.7 1.2-.2 2.3-.4 3.3-.6-.1-.2-.2-.4-.3-.7-.1-.3-.3-.5-.4-.7l.6-.3c.6 1.1 1.1 2.2 1.5 3.2l-.7.3c-.1-.4-.3-.8-.4-1.2-.6.1-1.9.4-3.8.7l-.6.1-.2-.8zm2.4 1.8.6-.1c.2.8.3 2 .5 3.5l-.7.1c0-1.3-.2-2.5-.4-3.5zm2.3-.3c.4.9.8 1.7 1.2 2.6l-.6.3c-.1-.5-.3-.9-.5-1.4s-.4-.9-.6-1.3l.5-.2zm.7 4.2c.6-.1 1.3-.4 2.1-.7.8-.3 1.4-.6 1.7-.9l.6.4c-.3.2-.7.5-1.2.7-.5.3-1 .5-1.5.6s-.9.3-1.2.4l-.5-.5zm5-13.6h-4.8v-.7h4.8v-1c.4 0 .7 0 .9.1v1h4.7v.7h-4.7v1.1h4v.7h-8.8v-.7h4v-1.2zm4.9 2.8V451.6h-9V448.9h9zm-8.2.6v1.5h2v-1.5h-2zm7.6 3v5.4h-7.7v-5.4h7.7zm-.8.6h-6v1h6v-1zm0 1.6h-6v1h6v-1zm-6 2.6h6v-1.1h-6v1.1zm3.9-7.8h-2v1.5h2v-1.5zm.8 8.7c.5.2 1.1.4 1.7.7.6.3 1.2.5 1.6.8l-.4.7c-.8-.5-2-1.1-3.4-1.7l.5-.5zm0-7.1h2v-1.5h-2v1.5zM257.6 456.1c.3.2.6.4.8.6 0 .6-.1 1.2-.2 1.6-.1.4-.3.8-.5 1-.2.3-.6.4-1 .6-.4.1-1 .2-1.7.2h-1.6c-.5 0-.9-.1-1.1-.2-.2-.1-.3-.3-.4-.5-.1-.2-.1-.4-.1-.7v-4.6h-1.4c-.2.7-.5 1.3-.9 2s-.9 1.3-1.4 1.9c-.6.6-1.2 1.1-2 1.5-.8.4-1.7.8-2.8 1-.2-.3-.4-.6-.6-.8.8-.2 1.6-.4 2.3-.7.7-.3 1.3-.7 1.9-1.1.6-.4 1.1-1 1.5-1.6.4-.6.8-1.3 1.1-2.1h-4.6v-4.8c-.6.4-1.3.8-1.8 1 0 0-.1-.1-.1-.2-.1-.1-.1-.2-.2-.3-.1-.1-.2-.2-.2-.3 1.1-.5 2.3-1.2 3.5-2.3 1.2-1 2.1-2 2.6-3.1l1 .2-.1.1c-.1.2-.2.4-.4.6-.2.3-.3.5-.5.6h4.3l.1-.1c.4.3.6.5.9.6l-.2.1c-.3.4-.6.9-1 1.4s-.8.9-1.2 1.2h5.2v5h-4.1v4.4c0 .2 0 .3.1.4.1.1.2.2.4.3.2.1.8.1 1.9.1.5 0 .9 0 1.2-.1.3-.1.5-.2.8-.4.2-.2.4-.5.4-.8 0-.3.1-.9.1-1.7zm-12.4-7.1h5.1c.2-.1.4-.4.7-.6.3-.3.6-.6.9-1 .3-.4.5-.6.7-.9h-4.7c-.8 1-1.7 1.8-2.7 2.5zm.5 4.2h4c.1-.4.2-.7.3-1.2s.1-.8.2-1.2c0-.4.1-.7.1-1h-4.6v3.4zm5.5-3.4c0 .3-.1.6-.1 1s-.1.8-.2 1.2l-.3 1.2h5.2v-3.3h-4.6zM261.5 453.5c.6-.6 1.3-1.4 2-2.3s1.1-1.8 1.4-2.6l.7.4-.1.1c-.3.7-.7 1.4-1.3 2.3v9h-.9v-.6c0-.8 0-3.2.1-7.3-.1.1-.3.4-.6.7-.3.4-.6.7-1 1.1-.1-.2-.2-.4-.3-.5s0-.3 0-.3zm.1-5.1c.4-.3.9-.7 1.4-1.3.5-.5.9-1 1.2-1.5.3-.5.6-.9.7-1.2l.7.5-.1.1c-.2.3-.5.8-.8 1.3s-.8 1-1.3 1.5-.9.9-1.3 1.2c-.2-.3-.4-.5-.5-.6zm10.6 8.8-.1.8c-2.5.5-4.3.8-5.4.9l-.6.1c0-.1-.1-.2-.1-.4s-.1-.3-.1-.5l.7-.1c.5 0 1.2-.2 2.2-.3v-2h-2.5v-.8h2.5v-1.6c-.9.1-1.7.2-2.4.3l-.4-.7c.9 0 1.9-.1 3-.3 1.1-.2 1.9-.3 2.6-.6l.4.6-.3.1c-.3.1-.6.1-1.1.2-.5.1-.8.2-1.1.2v1.7H271.9v.8H269.5v1.8c1.5 0 2.3-.1 2.7-.2zm3.3-1.3c.6 1.5 1.6 2.6 2.8 3.5 0 .1-.1.2-.1.3 0 .1-.1.2-.1.3s-.1.2-.1.2c-1.2-.9-2.1-2-2.8-3.4-.3.5-.6 1-.9 1.4s-.8.8-1.2 1.2c-.4.3-.8.6-1.2.8 0-.1-.2-.4-.5-.8.7-.4 1.3-.8 1.8-1.3s.9-1 1.1-1.4.4-.7.5-.8c-.3-.7-.6-1.6-.8-2.5-.2-1-.4-2-.5-3.2-.3.6-.6 1.1-.9 1.5l-.4-.6v.2h-6.3v-.8h6.3v.3c.5-.6.9-1.5 1.3-2.6s.7-2.4.9-3.7l.8.2-.1.1c-.2 1.1-.5 2.1-.8 3h3.7v.8h-1.1c0 .8-.1 1.7-.2 2.6s-.3 1.7-.5 2.5-.4 1.5-.7 2.2zm-9.2-6.8V445.4h.8v2.9h1.7v-3.8c.3 0 .5 0 .9.1V448.3h1.7v-3h.8v3.8h-5.9zm7.7-.3c.1 1.2.2 2.3.4 3.4.2 1 .4 1.9.7 2.7.3-.9.5-1.8.7-2.8s.3-2.2.4-3.5H274v.2zM296 456c.2.1.3.2.5.3.2.1.3.2.4.2 0 .7-.1 1.2-.2 1.6-.1.4-.3.8-.5 1-.2.3-.6.5-1 .6-.4.1-1 .2-1.7.2h-1.7c-.4 0-.7-.1-.9-.2-.2-.1-.3-.3-.4-.5-.1-.2-.1-.4-.1-.7v-4.9h-2.7c-.1.9-.2 1.7-.4 2.3-.2.6-.4 1.1-.7 1.5-.3.4-.6.8-1 1.1-.4.3-.9.6-1.5.9-.6.3-1.3.5-2 .7l-.5-.8c.9-.3 1.7-.5 2.3-.8s1.1-.7 1.5-1.1c.4-.4.7-.9.9-1.6.2-.6.4-1.4.4-2.2h-5v-.9H296.9v.9h-5.5v4.7c0 .2 0 .4.1.5.1.1.2.2.3.2.2 0 .8.1 1.9.1.5 0 .8 0 1.1-.1.3-.1.5-.2.7-.4.2-.2.3-.4.4-.8.1-.2.1-.8.1-1.8zm-13.7-5.9v-3.5h6.9c-.1-.1-.2-.4-.4-.8s-.5-.8-.7-1.1l.8-.4c.4.6.9 1.3 1.4 2.2h5.9v3.6h-.9v-2.8h-12.1v2.8h-.9zm2.5-.4h8.9v.9h-8.9v-.9zM300.6 450.7c.6-.2 1.2-.4 1.8-.7s1.2-.6 1.9-1.1 1.2-.9 1.8-1.4c.6-.5 1.1-1.1 1.6-1.7h-4v-.9h5.2c1 1.4 2.2 2.5 3.7 3.6 1.4 1 2.8 1.7 4.2 2.1-.1.2-.3.5-.4.8-1.4-.4-2.8-1.1-4.1-2.1s-2.5-2.1-3.6-3.5c-.4.5-.8 1-1.3 1.6s-1.1 1.1-1.8 1.6-1.4 1-2.1 1.4c-.8.4-1.6.8-2.4 1-.2-.1-.4-.4-.5-.7zm8.4 8.3h7.5v.9H300.8v-.9H308.1v-3.4H303v-.9h5.1v-3.1h-4.2v-.9h9.7v.9H309v3.1h5.4v.9H309v3.4zM327.6 453.7l-.1 1c-.6.2-1.6.7-3.2 1.4s-2.8 1.2-3.5 1.4c-.3.1-.5.2-.7.3l-.2-1 .7-.2 1.7-.7V445c.5 0 .8 0 1 .1v10.5c.3-.1.8-.3 1.4-.6.6-.2 1.2-.5 1.8-.7.5-.3.9-.5 1.1-.6zm4.2 1.2c.6.6 1.2 1.3 2 2.1.8.9 1.4 1.7 2.1 2.5l-.7.6c-.5-.7-1.1-1.5-1.9-2.4-.7-.9-1.4-1.6-2-2.2-.7.9-1.5 1.8-2.6 2.6s-2.3 1.5-3.9 2.2c-.1-.2-.3-.5-.6-.8 1.4-.6 2.5-1.2 3.5-1.8s1.8-1.3 2.4-2.1c.6-.8 1.1-1.6 1.5-2.5.4-.9.6-1.9.8-3.1.2-1.2.3-2.7.4-4.6v-.7l1 .1v.4c-.1 1.9-.2 3.5-.4 4.6s-.4 2.1-.7 2.9-.6 1.6-.9 2.2zm-2.7-4c-.4-.6-.9-1.3-1.5-2.1s-1.2-1.4-1.7-1.9l.6-.5c.6.6 1.2 1.2 1.8 2 .6.7 1.1 1.4 1.5 1.9l-.7.6zM346.9 447.8h-6.1v3.1h-.9V447h7.1v-1.4h-6.3v-.8H354.2v.8h-6.4v1.4h7.1v3.9h-.9v-3.1h-6.2v4.1h-.9v-4.1zm7.6 9c.1.1.2.1.4.2.1.1.3.2.4.3 0 .8-.2 1.4-.5 1.8-.3.4-.7.7-1.3.8-.6.2-1.5.3-2.5.3-1.1 0-1.9 0-2.3-.1-.5 0-.8-.1-1-.2-.2-.1-.4-.3-.5-.5-.1-.2-.2-.5-.2-.9v-.6h-4.4v1.3h-.8v-6.3h11.6v5.1h-5.5v.6c0 .4.2.7.6.8.4.1 1.3.1 2.7.1 1.2 0 2.1-.2 2.7-.5.3-.2.5-.4.6-.7-.1-.4 0-.9 0-1.5zm-9-7.8v.6H342v-.6h3.5zm-2.8 1.8h2.9v.6h-3.5v-.6h.6zm4.2 2.6h-4.4v1.5h4.4v-1.5zm-4.4 3.8h4.4v-1.6h-4.4v1.6zm9.9-2.2v-1.5h-4.6v1.5h4.6zm-4.7 2.2h4.6v-1.6h-4.6v1.6zm4.8-8.2v.6H349.1v-.6H352.5zm-2.9 1.8H352.4v.6H349v-.6h.6zM363.7 446.4l.7-.4c.2.3.5.6.8 1 .3.4.6.9.8 1.3.3.4.4.8.6 1l-.8.4c-.1-.2-.2-.5-.5-.9-.5 0-1.4.1-2.9.3-1.5.1-2.4.2-2.7.3h-.6l-.2-.9c.1 0 .2-.1.3-.2l.5-.5c.2-.3.5-.6.8-1.1.3-.5.6-.9.8-1.3s.4-.7.5-1l.9.3s-.1.1-.1.2c-.2.4-.5.8-.8 1.3-.3.5-.6.9-.9 1.3s-.6.7-.8.9c1.4-.1 2.9-.2 4.6-.4l-.6-.9c-.1-.2-.3-.5-.4-.7zm2 5.2V458.9c0 .3-.1.5-.2.7-.2.2-.4.3-.9.4-.4.1-1 .1-1.6.1-.1-.3-.3-.6-.4-.9.3 0 .7.1 1.2.1.3 0 .6 0 .8-.1.2-.1.3-.2.3-.4v-2h-4.1v3.4h-.9v-9.1h5.8v.5zm-.8.2h-4.1v1.7h4.1v-1.7zm-4.1 4.2h4.1v-1.8h-4.1v1.8zm7.3-4.8c-.2-.1-.3-.3-.4-.5-.1-.2-.1-.5-.1-.8V444.6l.9.1V447.4c.7-.2 1.6-.6 2.5-1s1.6-.7 1.9-.9l.5.7-.2.1c-.2.1-.6.3-1.1.5-.5.2-1.1.5-1.8.7-.7.3-1.3.5-1.9.6v1.8c0 .2 0 .3.1.4.1.1.2.1.3.2.2.1.9.1 1.9.1.5 0 .8 0 1.1-.1.3-.1.5-.1.7-.3.1-.1.3-.2.3-.4s.1-.4.2-.6c0-.2.1-.5.1-.7l.8.5c-.1.8-.2 1.3-.5 1.6-.3.3-.7.5-1.2.6-.5.1-1 .1-1.7.1h-1.7c-.2.1-.5 0-.7-.1zm5.5 5.7c.4.3.7.4.8.5 0 .4-.1.8-.2 1.1-.1.3-.3.6-.6.7-.3.2-.6.3-1.1.4-.4.1-1 .1-1.7.1-.9 0-1.6 0-1.9-.1s-.6-.1-.8-.2c-.2-.1-.3-.3-.4-.5-.1-.2-.1-.5-.1-.9V452.2l.9.1v2.8c.8-.3 1.7-.6 2.7-1.1 1-.5 1.7-.8 2.1-1.1l.5.7-.2.1c-.5.3-1.2.6-2.3 1.1-1.1.4-2 .8-2.8 1v2.2c0 .4.1.6.5.7.2.1.9.1 2 .1.5 0 .9 0 1.2-.1.3-.1.6-.2.8-.3.2-.1.4-.3.5-.6 0 0 .1-.4.1-.9zM393.5 453.7v.3c0 .8 0 1.5-.1 2.2 0 .6-.1 1.2-.1 1.6s-.2.8-.3 1.1c-.2.4-.6.7-1.1.9-.5.2-1.3.3-2.4.3 0-.1-.1-.2-.2-.5-.1-.2-.2-.4-.3-.5.3.1.7.1 1.1.1 1.1 0 1.8-.3 2.1-.8.2-.3.3-.7.3-1.3.1-.6.1-1.5.1-2.7h-11.1c-.9.9-2 1.8-3.2 2.5 0-.1-.2-.4-.5-.8 1.7-1.1 3.2-2.3 4.4-3.7 1.2-1.4 2.1-2.9 2.9-4.6H378.9v-.8h6.5c.3-.9.6-1.8.8-2.8l.9.2-.1.1c-.2.7-.4 1.5-.8 2.4h4.3c-.1.7-.3 1.9-.6 3.4h1.8c0 .4-.2 1.5-.4 3.2h2.2zm-14.2 6.2c.2-.2.4-.6.6-.9s.5-.9.7-1.4c.3-.6.4-1.1.5-1.6l.8.2c-.1.6-.4 1.3-.7 2.1-.3.8-.7 1.5-1.1 2.1l-.8-.5zm3.9-13.5-.8.3c-.3-.8-.7-1.5-1.1-2.2l.8-.3c.4.7.7 1.4 1.1 2.2zm7.4 7.3.3-2.4h-6.7c-.6.9-1.2 1.7-1.9 2.4h8.3zm-7.2 2.3.7-.2c.2.4.3 1 .5 1.6.2.7.3 1.4.4 2.1 0 0-.1 0-.2.1s-.3.1-.4.1h-.2c0-.5-.1-1.2-.3-1.9s-.3-1.2-.5-1.8zm6.1-8.1H386c-.4.9-.8 1.7-1.3 2.6h4.4l.4-2.6zM386 456l.6-.2c.2.2.3.6.5 1s.4.8.5 1.2c.2.4.3.7.3.9l-.8.3c-.1-.4-.3-.9-.5-1.5-.1-.8-.4-1.3-.6-1.7zm4.8 1.9s-.3.1-.7.3c-.3-.7-.9-1.6-1.7-2.7l.6-.2c.2.2.4.5.7.8s.5.7.7 1c.2.4.3.7.4.8zM406 458c0 .4 0 .6-.1.8-.4.1-1.6.2-3.6.4s-3.4.3-4.3.4l-.7.1-.1-.9h.7c.7 0 1.9-.1 3.4-.3v-1.9H397.6v-.8H401.3v-1.5H398v-4.8h3.3v-1.4h-3.9v-.8h3.9v-1.5c-.9.1-2.1.1-3.5.1-.1-.2-.2-.4-.4-.7 1 0 2 0 3.1-.1 1.1 0 2-.1 2.9-.2.8-.1 1.5-.2 2-.3l.5.6h-.3c-.4.1-.9.2-1.6.2-.7.1-1.3.2-1.8.2v1.6h3.9v.8h-3.9v1.4h3.3v4.9h-3.3v1.5h3.6v.8h-3.6v1.9c2.1-.3 3.3-.4 3.8-.5zm-4.6-7.8h-2.5v1.4h2.5v-1.4zm-2.5 2.1v1.5h2.5v-1.5h-2.5zm5.8-.7v-1.4h-2.5v1.4h2.5zm-2.5 2.1h2.5v-1.5h-2.5v1.5zm10.9-5v3.3c0 .9 0 1.8-.1 2.6s-.1 1.6-.1 2.3c-.1.7-.2 1.3-.3 1.7-.2.6-.5 1-1 1.2-.5.2-1.1.3-1.9.3 0 0-.1-.2-.2-.5s-.2-.5-.2-.5c.1 0 .2.1.4.1h.4c.4 0 .8-.1 1.1-.2.3-.1.5-.4.6-.8.1-.3.2-.7.2-1.3 0-.6.1-1.4.1-2.6 0-1.1.1-2.7.1-4.8h-2.7c-.2 3-.5 5.3-1 7-.5 1.7-1.3 3-2.3 3.8-.1-.1-.4-.3-.8-.5.4-.3.7-.6 1-1 .3-.4.6-.8.8-1.4.2-.5.5-1.1.6-1.8.2-.7.3-1.4.5-2.3s.2-1.6.3-2.3c.1-.7.1-1.2.1-1.5h-2.6v-.9h2.7c0-1 .1-2.2.1-3.7v-.5l.9.1v.3c0 1 0 2.3-.1 3.9h3.4zM431.3 448.7v.3c0 2.7-.1 4.8-.2 6.3s-.3 2.5-.7 3.1c-.1.2-.2.4-.4.5-.2.2-.3.3-.6.5-.2.1-.5.3-.9.4-.4.1-.8.2-1.3.3-.5.1-1.1.1-1.6.1 0 0 0-.1-.1-.2 0-.1-.1-.2-.1-.3 0-.1-.1-.2-.2-.4-.1-.1-.1-.2-.1-.3.3.1.7.1 1.2.1.9 0 1.6-.1 2.1-.3s.8-.5 1.1-.9c.2-.3.3-.8.4-1.4.1-.6.2-1.5.2-2.6.1-1.1.1-2.5.1-4.3h-5.8c-.4 2.7-1.1 5-2.3 6.8s-2.6 3.1-4.5 4l-.8-.7c1-.4 1.8-.9 2.6-1.5.7-.6 1.4-1.3 1.9-2.2s1-1.8 1.3-2.8c.3-1 .6-2.2.8-3.4h-5.5v-1H423.5c.1-1.1.2-2.3.2-3.6v-.7h1.1v.4c0 1.3-.1 2.6-.2 3.8h6.7zM446.6 458.8c1.6 0 3.4-.1 5.4-.4-.1.5-.2.8-.2.9-1.6.2-3.3.3-5.1.3-.3 0-.7 0-1.1-.1-.4 0-.9-.1-1.4-.3l-1.5-.6c-.5-.3-.9-.5-1.2-.8s-.8-.7-1.4-1.2c-.3-.3-.6-.3-.9-.1-.2.2-.5.5-.8 1.1-.3.6-.7 1.2-1.1 2.1l-.7-.6c.4-.9.9-1.7 1.3-2.3.4-.6.8-1 1.1-1.2.2-.2.5-.2.7-.2.2 0 .5.1.7.3l.6.6c.7-.5 1.6-1.1 2.5-1.8.9-.8 1.8-1.6 2.6-2.4.8-.9 1.4-1.6 1.8-2.1s.7-1 .9-1.4h-10.9v-.9H449l.1-.1c.4.3.7.5.9.6l-.2.1c-.9 1.5-2.1 3.1-3.7 4.8-1.6 1.6-3.1 2.9-4.6 3.9 1.6 1.2 3.2 1.8 5.1 1.8zm-2.2-11.1c-.3-.4-.7-.9-1.2-1.4l-1.2-1.2.8-.5c.2.2.5.5 1 .9.4.4.9 1 1.5 1.7l-.9.5zM469.8 457h1.4v.9h-7.4v2.6h-.9v-2.6H455.6v-.9H462.9v-1.8h-5v-6h5v-1.9h-6.7v-.8h6.7v-1.9h1v1.9H470.8v.8H463.9v1.9h5.1v6h-5.1v1.8h5.9zm-6.9-7.2h-4v1.9h4v-1.9zm-4 2.6v2h4v-2h-4zm9.1-.7v-1.9h-4.2v1.9h4.2zm-4.2 2.7h4.2v-2h-4.2v2zM477.9 456.8h2.3v.8h-2.3v3h-.8v-3h-2.5v-.8h2.5V455h-2v-6.1h2v-1.7h-2.4v-.8h2.4v-2.1h.8v2h2.2v.8h-2.2v1.7h2v6.1h-2v1.9zm-.8-7.3h-1.3v2h1.3v-2zm-1.2 2.7v2.1h1.3v-2.1h-1.3zm3.3-.7v-2h-1.3v2h1.3zm-1.4 2.8h1.3v-2.1h-1.3v2.1zm11.9-8.1H486v2h4.2v10.9c0 .4-.2.6-.5.8s-.9.3-1.7.3l-.4-.9c.3 0 .6.1.9.1.3 0 .5 0 .6-.1.2-.1.3-.2.3-.4V449h-3.5v11.2h-.8V449h-3.3V460.3h-.8v-12.1h4.1v-2h-4.7v-.8h10.3v.8c-.3.1-.6 0-1 0zm-5.9 4.9c0 .8.1 1.5.2 2.3s.3 1.4.4 1.9c.2.5.3.9.5 1.1-.1.2-.3.4-.4.6-.2-.3-.4-.8-.6-1.4-.2-.6-.3-1.2-.4-1.9-.1.5-.2 1.1-.4 1.7-.2.6-.4 1.1-.6 1.6 0-.1-.2-.3-.5-.6.3-.4.5-1 .8-1.8s.4-1.7.5-2.8h-.9v-.7h1.4zm4.8 5.8c-.2-.4-.4-.8-.6-1.4s-.3-1.2-.5-2c-.2 1.3-.6 2.5-1 3.4-.1-.2-.3-.4-.5-.5.3-.4.5-1 .7-1.8.2-.8.4-1.7.5-2.8h-.7v-.7h1.5c.1 1.2.2 2.2.4 3.1.2.9.5 1.6.7 2.2-.3.2-.4.4-.5.5zM496.3 450v2.8h3.1V460.3h-.9V453.6h-2.2c-.1.9-.2 1.7-.3 2.5-.1.8-.3 1.5-.5 2.2-.2.7-.5 1.2-.8 1.7l-.7-.7c.5-.7.9-1.7 1.1-2.9.3-1.2.4-2.7.4-4.4v-6.9h.9v4.2h1.9v-4.7h.9V449.2h1.6v.8h-4.5zm13 5.6h1v.8h-3v3.9h-.9v-3.9h-6.2v-.8h6.2v-2.8c.4 0 .7 0 .9.1V455.6h2zm-8.5-1.1c.4-.1.8-.3 1.1-.4.3-.1.6-.3.9-.5.3-.2.5-.4.7-.7.2-.3.4-.5.6-.8h-2.9v-5.8h2.9c.1-.1.2-.3.4-.7s.3-.8.5-1.2l1 .1-.1.2c-.2.5-.4 1-.7 1.5h4.2v5.8H505c-.2.4-.4.8-.6 1.1-.3.4-.6.7-1.1 1s-1.1.7-1.9 1c0-.1-.2-.3-.6-.6zm4.2-7.6h-2.9v1.9h2.8c.1-.5.1-1.2.1-1.9zm-2.8 4.5h2.3c.2-.5.3-1.2.5-2h-2.8v2zm3.1 0h3.2v-2h-2.8c-.1.8-.2 1.4-.4 2zm3.2-2.6v-1.9h-2.6c0 .6 0 1.2-.1 1.9h2.7zM513.8 459.9c.5-.5.9-1 1.4-1.7.4-.7.7-1.3.9-1.7l.8.3c-.2.5-.5 1.1-.8 1.7-.3.6-.6 1-.9 1.3-.2.3-.4.5-.5.6l-.9-.5zm5.2-14.6V455.2h-4.5V445.4h4.5zm-.9.8h-2.8v3.7h2.8v-3.7zm-2.7 8.3h2.8v-3.9h-2.8v3.9zm3.6 2.4.8-.2c.1.4.2.9.3 1.5.1.6.2 1.2.2 1.9l-.9.2c0-.5-.1-1-.2-1.7s-.1-1.2-.2-1.7zm5.7-10.6c0 .7-.2 1.3-.6 1.9-.3.6-.8 1-1.4 1.5-.6.4-1.3.8-2.2 1.2l-.5-.8c.6-.2 1.2-.4 1.6-.7.5-.3.9-.6 1.2-.9.3-.3.6-.7.7-1 .2-.4.3-.7.3-1.1H520.7v-.8H528.6v.3c0 1.3-.1 2.2-.1 2.6-.1.4-.1.7-.2.9-.1.2-.2.4-.4.6-.2.2-.5.3-.8.4-.4.1-.9.1-1.5.1-.2-.4-.3-.7-.4-1 .3.1.6.1.9.1.7 0 1.2-.2 1.4-.6.1-.1.1-.4.2-.7 0-.3.1-1 .1-2h-3.1zm-3.5 9.4v-4.4h6.8v4.4h-6.8zm.9-.7h5.1v-2.8h-5.1v2.8zm.4 2 .8-.2c.2.3.3.6.5 1l.6 1.2c.2.4.3.7.4 1l-.9.3c-.1-.4-.2-.8-.4-1.2-.2-.5-.4-.9-.5-1.2-.3-.5-.4-.8-.5-.9zm4.5-.4c.3.4.7.8 1.1 1.4s.8 1.2 1.1 1.8l-.8.4c-.2-.5-.6-1.1-1-1.8-.4-.6-.8-1.2-1.1-1.6l.7-.2zM536.6 450.6V460.4h-.9v-3.5c0-1.5 0-3.3.1-5.4-.3 1.2-.8 2.3-1.2 3.3s-1 1.9-1.4 2.4c-.1-.3-.3-.5-.5-.8.5-.6 1-1.5 1.6-2.6.5-1.1.9-2.2 1.2-3.3h-2.6v-.8h2.8v-3.1c-.3.1-.7.2-1.1.3-.4.1-.9.2-1.2.3 0-.1-.2-.4-.3-.7.8-.1 1.6-.4 2.5-.7s1.7-.7 2.3-1l.6.7c-.1 0-.2 0-.3.1-.3.1-.8.4-1.6.7v3.5h2v.8h-2zm2.5 4.1-.6.5c-.2-.5-.4-.9-.7-1.4-.3-.5-.5-.9-.7-1.1-.2-.2-.3-.4-.3-.5l.6-.4c.3.4.6.8.9 1.4.3.4.6 1 .8 1.5zm9 2.1c.4.3.6.4.8.5 0 .7-.1 1.3-.2 1.7s-.2.6-.4.8c-.2.2-.4.3-.7.4-.3.1-.7.1-1.2.1h-.6c-.2 0-.4-.1-.5-.1-.1-.1-.2-.1-.3-.1-.3-.2-.4-.6-.4-1.2v-4.8h-2c0 .8-.1 1.6-.3 2.3-.2.7-.4 1.3-.7 1.8-.3.5-.7 1-1.2 1.4s-1.1.7-1.8.9c-.1-.2-.3-.4-.6-.7.8-.3 1.5-.6 2-1.1.5-.5.9-1 1.2-1.8.3-.7.5-1.6.5-2.8h-1.5v-5h6.7v5h-1.5v4.9c0 .3.1.4.3.5.1 0 .4.1.7.1.2 0 .4 0 .6-.1.2-.1.4-.2.5-.3.1-.2.2-.4.3-.7.1-.3.1-.6.1-1s.2-.6.2-.7zm-9.1-7.4c-.2-.2-.4-.5-.5-.6.3-.2.6-.5 1-.8.4-.4.8-.9 1.2-1.4.4-.6.8-1.2 1-1.8l.8.3-.1.1c-.1.2-.2.4-.4.7-.2.3-.4.6-.6 1-.3.4-.5.7-.7 1-.2.3-.5.6-.8.8-.3.2-.6.5-.9.7zm2.2.4v3.5h4.9v-3.5h-4.9zm7.3-1.1-.6.7c-.2-.3-.5-.7-.9-1.2s-.8-1-1.3-1.6c-.5-.6-.9-1.1-1.3-1.5l.7-.4c.5.6 1.1 1.2 1.7 2 .7.7 1.3 1.4 1.7 2zM559.2 454.4c.3-.2.5-.4.7-.8.2-.3.3-.8.3-1.3h-.8v-1.6h1.5v1.1c0 .5-.1.9-.2 1.3s-.3.8-.5 1c-.2.3-.5.5-.7.6l-.3-.3zM586.5 456.1c.3.2.6.4.8.6 0 .6-.1 1.2-.2 1.6-.1.4-.3.8-.5 1-.2.3-.6.4-1 .6-.5.1-1 .2-1.7.2h-1.6c-.5 0-.9-.1-1.1-.2-.2-.1-.3-.3-.4-.5-.1-.2-.1-.4-.1-.7v-4.6h-1.4c-.2.7-.5 1.3-.9 2s-.9 1.3-1.4 1.9c-.6.6-1.2 1.1-2 1.5-.8.4-1.7.8-2.8 1-.2-.3-.4-.6-.6-.8.8-.2 1.6-.4 2.3-.7s1.3-.7 1.9-1.1c.6-.4 1.1-1 1.5-1.6s.8-1.3 1.1-2.1h-4.6v-4.8c-.6.4-1.3.8-1.8 1 0 0-.1-.1-.1-.2-.1-.1-.1-.2-.2-.3-.1-.1-.2-.2-.2-.3 1.1-.5 2.3-1.2 3.5-2.3 1.2-1 2.1-2 2.6-3.1l1 .2-.1.1c-.1.2-.2.4-.4.6-.2.3-.3.5-.5.6h4.3l.1-.1c.4.3.6.5.9.6l-.2.1c-.3.4-.6.9-1 1.4-.4.5-.8.9-1.2 1.2h5.2v5h-4.1v4.4c0 .2 0 .3.1.4.1.1.2.2.4.3.2.1.8.1 1.9.1.5 0 .9 0 1.2-.1.3-.1.5-.2.8-.4.2-.2.4-.5.4-.8.1-.3.1-.9.1-1.7zm-12.4-7.1h5.1c.2-.1.4-.4.7-.6.3-.3.6-.6.9-1 .3-.4.5-.6.7-.9h-4.7c-.8 1-1.7 1.8-2.7 2.5zm.6 4.2h4c.1-.4.2-.7.3-1.2s.1-.8.2-1.2.1-.7.1-1h-4.6v3.4zm5.4-3.4c0 .3-.1.6-.1 1s-.1.8-.2 1.2l-.3 1.2h5.2v-3.3h-4.6zM590.4 453.5c.6-.6 1.3-1.4 2-2.3s1.1-1.8 1.4-2.6l.7.4-.1.1c-.3.7-.7 1.4-1.3 2.3v9h-.9v-.6c0-.8 0-3.2.1-7.3-.1.1-.3.4-.6.7-.3.4-.6.7-1 1.1-.1-.2-.2-.4-.3-.5.1-.2.1-.3 0-.3zm.1-5.1c.4-.3.9-.7 1.4-1.3.5-.5.9-1 1.2-1.5.3-.5.6-.9.7-1.2l.7.5-.1.1c-.2.3-.5.8-.8 1.3s-.8 1-1.3 1.5-.9.9-1.3 1.2c-.2-.3-.3-.5-.5-.6zm10.6 8.8-.1.8c-2.5.5-4.3.8-5.4.9l-.6.1c0-.1-.1-.2-.1-.4s-.1-.3-.1-.5l.7-.1c.5 0 1.2-.2 2.2-.3v-2h-2.5v-.8h2.5v-1.6c-.9.1-1.7.2-2.4.3l-.4-.7c.9 0 1.9-.1 3-.3 1.1-.2 1.9-.3 2.6-.6l.5.6-.3.1c-.3.1-.6.1-1.1.2-.4.1-.8.2-1.1.2v1.7H600.9v.8H598.5v1.8c1.4 0 2.3-.1 2.6-.2zm3.4-1.3c.6 1.5 1.6 2.6 2.8 3.5 0 .1-.1.2-.1.3 0 .1-.1.2-.1.3s-.1.2-.1.2c-1.2-.9-2.1-2-2.8-3.4-.3.5-.6 1-.9 1.4s-.8.8-1.2 1.2c-.4.3-.8.6-1.2.8 0-.1-.2-.4-.5-.8.7-.4 1.3-.8 1.8-1.3s.9-1 1.1-1.4c.2-.4.4-.7.5-.8-.3-.7-.6-1.6-.8-2.5s-.4-2-.5-3.2c-.3.6-.6 1.1-.9 1.5l-.4-.6v.2h-6.3v-.8h6.3v.3c.5-.6.9-1.5 1.3-2.6s.7-2.4.9-3.7l.8.2-.1.1c-.2 1.1-.5 2.1-.8 3h3.7v.8h-1.1c0 .8-.1 1.7-.2 2.6s-.3 1.7-.5 2.5-.5 1.5-.7 2.2zm-9.2-6.8V445.4h.8v2.9h1.7v-3.8c.3 0 .5 0 .9.1V448.3h1.7v-3h.8v3.8h-5.9zm7.6-.3c.1 1.2.2 2.3.4 3.4.2 1 .4 1.9.7 2.7.3-.9.5-1.8.7-2.8.2-1 .3-2.2.4-3.5H603l-.1.2zM609.9 459.8c.1-.1.3-.2.5-.4s.5-.4.8-.7c.3-.3.6-.6.9-1 .3-.4.5-.7.7-1l.7.4c-.3.5-.7 1-1.2 1.6-.5.6-1.1 1.2-1.7 1.6-.2 0-.4-.2-.7-.5zm7.7-3.7h-7.5v-.8h1.9v-7.8H610.3v-.8H612v-2.2c.4 0 .7 0 .9.1v2.3h3.3v-2.4c.4 0 .7 0 .9.1v2.3h1.5v.8h-1.5v7.8h1.4v.8c-.2-.2-.5-.2-.9-.2zm-1.4-8.6h-3.3v2h3.3v-2zm-3.3 2.8v2h3.3v-2h-3.3zm0 2.8v2.3h3.3v-2.3h-3.3zm2.9 3.6c.6.6 1.2 1.2 1.8 2l-.3.3-.3.3c-.6-.8-1.2-1.5-1.9-2.1l.7-.5zm9.6-10.8v13.3c0 .2 0 .4-.1.5-.1.1-.2.3-.3.4-.2.1-.4.2-.7.2-.3.1-.8.1-1.5.1 0-.1-.1-.3-.2-.5s-.2-.4-.3-.5c.4.1.8.1 1.2.1.3 0 .6 0 .8-.1.2-.1.3-.2.3-.4v-4.5h-4.1c-.1.6-.2 1.3-.4 2.1s-.4 1.5-.8 2.2-.7 1.3-1.1 1.7l-.7-.6c.7-.8 1.3-1.9 1.6-3.3.4-1.4.5-3.1.5-4.9v-6.5h5.7l.1.7zm-4.8 7.8h4v-3.6h-3.9v1.6c0 .6 0 1.3-.1 2zm.1-7.8v3.4h3.9v-3.4h-3.9zM635.7 446l-.2.1c-.3.8-.7 1.7-1.1 2.6-.4 1-.8 1.7-1.1 2.4.7.6 1.3 1.2 1.6 1.8.4.7.6 1.3.6 2 0 .8-.2 1.5-.7 2-.5.5-1.2.8-2.1.8-.1-.3-.3-.6-.5-.9.3 0 .5.1.8.1.2 0 .4 0 .6-.1s.4-.2.5-.4c.2-.2.3-.4.4-.6.1-.3.1-.5.1-.8 0-.7-.2-1.3-.6-1.9-.4-.6-1-1.2-1.7-1.7.3-.5.6-1.2 1-2.1.4-.9.8-1.9 1.1-2.9h-3.2v14h-.9v-14.8h4.3l.1-.2c.4 0 .7.3 1 .6zm6.4 10.6c.5.7 1.1 1.2 1.7 1.7s1.3.9 2 1.1c-.2.3-.4.6-.5.8-1.4-.6-2.6-1.5-3.6-2.8-1-1.3-1.7-2.9-2.2-4.7h-1.8v6.2c.5-.2 1-.4 1.5-.7l1.4-.7.1.9c-.1 0-.2.1-.3.1-.1 0-.6.3-1.4.7-.9.4-1.5.7-1.8.8l-.5.3-.4-.8c.2-.1.3-.2.4-.3s.2-.3.2-.5V445.5h7V452.9h-3.6c.1.6.3 1.1.6 1.7.2.6.5 1.1.8 1.5.5-.3 1-.8 1.6-1.4.6-.6 1-1 1.2-1.3l.6.6h-.1l-1.3 1.3c-.6.5-1.1.9-1.6 1.3zm1-10.4h-5.3v2.4h5.3v-2.4zm-5.3 3.2v2.6h5.3v-2.6h-5.3zM654.1 444.9v15.6h-1V453.7h-1.9c0 1.6-.2 2.9-.6 4.1s-.9 2-1.6 2.6l-.6-.8c.6-.5 1.1-1.2 1.4-2.2.3-1 .5-2.2.5-3.7h-1.6v-.8h4.3v-2.6h-3.2V445h.9v4.5h2.3V444.3h.9l.2.6zm1.6 7.6c0-.1-.2-.3-.5-.7.7-.1 1.3-.3 2-.5s1.3-.5 1.8-.7c-.6-.5-1.3-.9-2.1-1.4l.5-.4c.3.1.7.4 1.1.6.4.3.8.5 1.2.8.4-.2.8-.5 1.3-.9-.8-.6-1.5-1-2.1-1.3l.5-.4c.3.1.7.3 1.1.6s.8.5 1.1.7c.8-.7 1.4-1.4 1.9-2.3H659c-.6.5-1.1.9-1.7 1.2-.6.3-1.1.6-1.5.8l-.5-.7c1.1-.4 2.1-.9 2.9-1.6.8-.6 1.5-1.3 1.9-2.1.2.1.5.1.8.2l-.1.1c-.3.4-.6.9-1 1.3h4.1l.1-.1c.1 0 .2.1.3.2.1.1.3.2.4.3l-.2.1c-.4.7-.9 1.4-1.4 2.1-.6.6-1.2 1.2-1.9 1.8-.7.5-1.6 1-2.5 1.4-1 .4-2 .7-3 .9zm8.5.8h1v.8h-2.6v4.9c0 .3-.1.5-.2.7-.2.2-.5.3-.9.4-.4.1-1.1.2-2.1.2l-.5-1c.2 0 .4 0 .7.1h.8c.4 0 .7 0 1-.1.3-.1.4-.2.4-.5v-4.7h-6.3v-.8h6.3v-2h1v2h1.4zm-4.6 3.7-.6.7c-.4-.3-.8-.6-1.4-1-.6-.4-1-.6-1.4-.8l.5-.6c.3.1.8.4 1.3.7.6.3 1.1.6 1.6 1zM678 459c2.4 0 4.6-.1 6.4-.3l-.3.9c-1.8.2-3.8.3-6.2.3-.7 0-1.4-.1-2.2-.2-.8-.1-1.5-.3-2.1-.5-.6-.2-1.1-.5-1.5-.8s-.8-.6-1-.9c-.8 1.2-1.7 2.1-2.6 2.7l-.2-.2c-.1-.1-.2-.3-.4-.4.9-.6 1.8-1.4 2.6-2.7-.7-1-1.1-2.2-1.3-3.6l.8-.3c.1 1.3.5 2.3 1 3.2.8-1.4 1.4-3 1.8-4.8h-3.1c-.3 0-.5 0-.7.1l-.2-.8c.3-.2.8-.7 1.5-1.4.6-.7 1.3-1.6 2.1-2.7H668.5v-.8h4.4l.1-.1c.1.1.3.2.4.3l.3.3-.2.1c-.4.6-.9 1.3-1.6 2.2s-1.3 1.6-1.8 2.1h3l.1-.1.7.6-.1.1c-.2 1-.5 2-.9 3s-.8 1.9-1.2 2.6c.4.4.8.8 1.3 1.1.5.3 1 .5 1.5.7s1.1.3 1.7.4c.6-.1 1.2-.1 1.8-.1zm4.9-2.5h-8.5v-.9h1.6v-6.1c.4 0 .7 0 .9.1v6.2h2.2v-9.1c-1.2.2-2.5.3-3.7.4l-.3-.8c1.4 0 2.8-.2 4.2-.4 1.4-.2 2.7-.5 3.8-.8l.6.7-.4.1c-.4.1-.9.2-1.5.4-.6.1-1.2.3-1.7.4v3.7h3.2v.8h-3.2v4.7h3.9v.9c-.4-.3-.7-.3-1.1-.3zM698.6 457.2c.8.5 1.6 1 2.5 1.4.9.4 1.9.7 2.8.9-.2.3-.4.5-.5.8-1.4-.3-2.7-.8-4-1.5-1.2-.7-2.2-1.5-3.1-2.4-.9-.9-1.6-1.8-2.1-2.8h-2.9v5.4c1.4-.3 2.9-.8 4.6-1.3v.8c-.7.2-2.2.7-4.6 1.3-.3.1-.6.2-.8.3l-.3-.9c.2-.1.3-.3.3-.7v-5h-2.8v-.8h3.2v-7.5h10.5v.8h-9.6v1.9h9v.8h-9v1.7h9v.8h-9v1.8h11.8v.8h-8.4c.6 1.1 1.5 2.1 2.7 3.1.3-.1.6-.4 1.1-.6.4-.3.9-.6 1.4-1 .5-.4.8-.7 1-.9l.7.6-.1.1c-.4.3-.9.7-1.6 1.2s-1.3.6-1.8.9zM721.5 458.7h1.3v.9H707.2v-.9H714.5v-3.6H708.9v-.9H714.5v-2.1c.5 0 .8 0 1 .1v2.1H721.6v.9H715.5v3.6h6zm-8.2-12.2h-5.7v-.9h14.8v.9H714.5c-.6.8-1.2 1.5-1.9 2.2-.7.7-1.4 1.3-2 1.9 1.4-.1 3-.2 4.7-.3 1.7-.1 3.1-.3 4.1-.4-.6-.6-1.3-1.2-1.8-1.7l.6-.5c.4.3.9.7 1.4 1.2.5.5 1 1 1.4 1.5.4.5.8.9 1.1 1.3l-.7.6c-.3-.4-.7-1-1.3-1.6-1.1.1-2.9.3-5.3.5s-4.2.4-5.2.4l-.7.1c0-.2-.1-.5-.1-.9.2 0 .5-.2.9-.5s1.1-.9 1.8-1.6c.8-.9 1.4-1.6 1.8-2.2zM736.6 459.5v-8c0-1.8 0-3.3.1-4.5h-.1c-.5.4-1.1.9-1.8 1.5l-.8.6-.5-.6 3.2-2.5h.8v13.6h-.9zM749 459.5v-8c0-1.8 0-3.3.1-4.5h-.1c-.5.4-1.1.9-1.8 1.5l-.8.6-.5-.6 3.2-2.5h.8v13.6h-.9zM763.1 459.5v-3.3h-6.7v-.8l6.4-9.4h1.2v9.4h2.1v.8H764v3.3h-.9zm0-8.6c0-1.8 0-3.3.1-4.3-.4.6-1 1.7-2 3.1l-3.9 5.7h5.8v-4.5zM789.2 455.2h1.4v.9h-6.9v4.3h-1v-4.3h-8v-.9h3.2V450.8h4.8v-3h-4.3c-.3.5-.7 1-1.2 1.6-.5.6-1 1.1-1.5 1.5-.2-.2-.4-.4-.7-.6.6-.4 1.2-1.1 1.8-1.8.6-.8 1.1-1.5 1.5-2.3.4-.7.7-1.4.9-1.9l.9.2-.1.1c-.3.8-.7 1.5-1.1 2.3H789.2v.8h-5.6v3h4.9v.8h-4.9v3.6h5.6zm-10.2 0h3.9v-3.6H779v3.6zM804.3 459.5v-8c0-1.8 0-3.3.1-4.5h-.1c-.5.4-1.1.9-1.8 1.5l-.8.6-.5-.6 3.2-2.5h.8v13.6h-.9zM812.3 459.5v-.9c1.2-.9 2.2-1.8 3.1-2.7s1.6-1.6 2.2-2.4c.6-.8 1-1.5 1.3-2.2.3-.7.4-1.3.4-1.9 0-.9-.3-1.6-.8-2.1s-1.3-.7-2.2-.7c-.5 0-1 .1-1.6.3-.6.2-1.1.4-1.6.7l-.1-.8c.5-.3 1.1-.5 1.7-.6.6-.2 1.2-.2 1.7-.2 1.2 0 2.2.3 2.9.9s1 1.5 1 2.7c0 .5-.1 1.1-.3 1.6-.2.5-.4 1.1-.8 1.6s-.7 1.1-1.2 1.7c-.5.6-1 1.2-1.6 1.7-.9.9-2 1.8-3.2 2.7 1.3 0 2.1-.1 2.5-.1h4.6v.8h-8zM843 446.1v12.6c0 .3-.1.5-.2.7-.1.2-.3.3-.6.5-.3.1-.7.2-1.2.3-.5.1-1.2.1-2 .1l-.6-1c.6.1 1.3.1 1.9.1.4 0 .7 0 1-.1.3 0 .5-.1.6-.2.1-.1.2-.3.2-.4V454.8h-7.8c-.1.6-.2 1.2-.4 1.7s-.3.9-.5 1.4c-.2.4-.4.9-.7 1.3-.3.5-.7.8-1.1 1.2-.2-.2-.4-.4-.8-.6.4-.4.8-.8 1.2-1.3.3-.5.6-1.1.9-1.8.3-.7.4-1.5.6-2.3.1-.9.2-1.8.2-2.7v-6.1h9.5l-.2.5zm-8.6 7.8h7.7v-3.5h-7.6v1.1c0 .8 0 1.6-.1 2.4zm7.7-7.8h-7.6v3.5h7.6v-3.5zM863.3 455.7c0 .6-.1 1.2-.4 1.7-.2.5-.6.9-1 1.3-.4.3-1 .6-1.6.7-.6.2-1.3.3-2 .3-.5 0-1 0-1.5-.1s-1.1-.2-1.6-.4l.1-.8c.5.2 1 .4 1.6.5.5.1 1 .2 1.5.2.4 0 .8 0 1.2-.1.4-.1.8-.2 1.2-.4.3-.2.6-.4.8-.7.2-.3.4-.6.5-.9.1-.3.2-.7.2-1.2 0-.4-.1-.7-.2-1s-.3-.6-.5-.8c-.2-.2-.5-.4-.8-.6-.3-.2-.7-.3-1.2-.4-.5-.1-1.1-.1-1.8-.1h-.8v-.9h.9c1.4 0 2.5-.2 3.3-.7.7-.5 1.1-1.2 1.1-2.1 0-.5-.1-.9-.3-1.2-.2-.3-.4-.6-.7-.9-.3-.2-.7-.4-1.1-.5-.4-.1-.8-.2-1.2-.2-.4 0-.7 0-1.1.1s-.7.1-1.1.3-.6.2-.9.4l-.1-.8c1.1-.4 2.2-.6 3.3-.6.6 0 1.1.1 1.6.2s1 .4 1.3.6c.4.3.7.6.9 1.1.2.4.3.9.3 1.5 0 .5-.1 1-.3 1.3-.2.4-.4.7-.7.9-.3.2-.6.4-.9.5l-.9.3c-.3.1-.6.1-.7.1v.1c.5 0 1 .1 1.4.3.4.1.8.4 1.2.6.3.3.6.6.8 1 .1.5.2.9.2 1.4zM872 459.5v-8c0-1.8 0-3.3.1-4.5h-.1c-.5.4-1.1.9-1.8 1.5l-.8.6-.5-.6 3.2-2.5h.8v13.6h-.9zM898.6 446.5v13.8h-1v-1.5H889v1.5h-1V445.7h10.5l.1.8zm-.9 0h-8.6v5.1h8.6v-5.1zm-8.6 11.5h8.6v-5.5h-8.6v5.5zM912.7 454.7c-.4 0-.8-.1-1.1-.3-.3-.2-.6-.5-.9-.8s-.3-.8-.3-1.2c0-.4.1-.8.3-1.1.2-.3.5-.6.8-.9s.8-.3 1.2-.3c.4 0 .8.1 1.1.3.3.2.6.5.9.8.2.4.3.8.3 1.2 0 .4-.1.8-.3 1.1-.2.3-.5.6-.8.9-.3.2-.7.3-1.2.3zm0-.7c.4 0 .8-.2 1.2-.5.3-.3.5-.7.5-1.2s-.2-.8-.5-1.2-.7-.5-1.2-.5c-.4 0-.8.2-1.2.5-.3.3-.5.7-.5 1.2s.2.8.5 1.2c.4.4.8.5 1.2.5z"/>
    <path class="st1" d="M54.5 54.4h813.3v38.9H54.5z"/>
    <path d="m85.8 136.2-.8 1.3c-.7-.6-1.5-1.1-2.5-1.7-.9-.6-1.8-1.1-2.5-1.4l.8-1.2c.7.4 1.6.9 2.6 1.5.9.5 1.8 1 2.4 1.5zM81 148.9c.7-.9 1.6-2.2 2.7-3.9 1.1-1.7 1.8-3.1 2.3-4l.9 1.4c-.4.7-.9 1.6-1.5 2.7-.7 1.1-1.3 2.1-1.9 3s-1 1.5-1.4 2c-.1.2-.3.5-.6 1l-1.3-1.2.8-1zm6.4-19.3c-.3.4-.6.8-.8 1.3-.7-.6-1.5-1.2-2.4-1.9-.9-.6-1.8-1.2-2.5-1.5l.7-1.2c2.1 1.2 3.8 2.3 5 3.3zm4.1 0c-.5 1.1-1.2 2.1-1.9 3-.7.9-1.4 1.7-2.1 2.4-.2-.2-.5-.6-1.1-1.1.8-.6 1.5-1.5 2.3-2.6.8-1.1 1.4-2.1 1.9-3.2s.8-2 1-2.7l1.4.3-.1.2c-.2.8-.5 1.6-.9 2.4h12.4v1.3H91.5zm13.4 13.8c.6.4 1 .7 1.3.8 0 2.2-.2 3.9-.6 5.1s-1 1.7-1.9 1.7c-.9 0-1.5-.3-2.1-1-.5-.7-.9-1.7-1.2-3.1-.3-1.4-.4-3.2-.4-5.5 0-.7 0-1.6.1-2.7H87.9v-1.4h13.8c-.1.9-.1 2.3-.1 4.2 0 2.6.2 4.6.6 5.9.4 1.4.9 2.1 1.6 2.1.4 0 .6-.5.8-1.5.2-1 .3-2.5.3-4.6zm-14.2-10.6c.6 0 1.1.1 1.3.1h8.9c.3 0 .7 0 1.4-.1v1.3H90.6v-1.3zM117.1 136.7l-.8 1.2c-.3-.2-.8-.6-1.7-1.2-.9-.6-1.9-1.2-3.1-1.9l.7-1.2c.7.4 1.6.9 2.5 1.5.9.5 1.7 1.1 2.4 1.6zm-4.7 12.4c.5-.7 1.2-1.7 2-2.9s1.4-2.3 1.9-3.3c.5-.9.9-1.7 1.1-2.1l.9 1.3c-.5 1-1.2 2.3-2.2 3.9s-1.8 3-2.5 3.9l-.6 1-1.3-1.2.7-.6zm5.8-19.4-.8 1.2c-.7-.6-1.5-1.2-2.4-1.8-.9-.6-1.7-1.1-2.4-1.5l.8-1.2c.7.4 1.5 1 2.4 1.6.9.5 1.7 1.1 2.4 1.7zm17.3 3.1v17.3l.1 1.2h-1.5v-1.7h-12.2v1.7h-1.5l.1-1.2v-17.3l-.1-1.2h6.7v-5.4l-.1-.8c.6 0 1.1 0 1.5.1 0 .2-.1.5-.1.7v5.4h7.1v1.2zm-8.4.1h-5.2v6.8h5.2v-6.8zm-5.3 15.5h5.2V141h-5.2v7.4zm12.3-15.5h-5.6v6.8h5.6v-6.8zm-5.6 15.5h5.6V141h-5.6v7.4zM166 145.9h2.2v1.4c-.4 0-1.2-.1-2.2-.1h-9.7v4.2h-1.5v-4.2h-9.5c-1 0-1.7 0-2.2.1v-1.4h11.7v-3h-8.1c0-.4.1-.6.1-.8v-8.2c0-.2 0-.5-.1-.8h8.1v-3.2H146c-.9 0-1.6 0-2 .1v-1.4h10.8v-2.3l-.1-.8c.6 0 1.1 0 1.6.1 0 .2-.1.5-.1.7v2.3h11.1v1.4c-.4 0-1.1-.1-2-.1h-9.1v3.2h8.2v9.8h-8.2v3h9.8zm-11.2-11.7h-6.5v3.1h6.5v-3.1zm-6.6 4.2v3.2h6.5v-3.2h-6.5zm14.8-1.1v-3.1h-6.8v3.1h6.8zm-6.8 4.4h6.8v-3.2h-6.8v3.2zM307.8 76.8v7.9c0 .6-.3 1.1-.8 1.4-.5.3-1.5.4-2.8.4l-.7-1.5c.1 0 .3 0 .6.1h.9c.4 0 .8 0 1.1-.1s.4-.3.4-.6v-7.2c-1.2.5-1.9.7-2.3.8l-.8.4-.3-1.3.9-.3c1.2-.4 2-.7 2.5-.9v-5.8h-3.3V69h3.3v-4.5l-.1-.8c.3 0 .8 0 1.4.1 0 .2-.1.5-.1.8V69h2.7v1.2h-2.7v5.3c1.5-.6 2.4-1 2.7-1.1v1.3c-.3.2-1.2.6-2.6 1.1zm7.5-12.4-.1-.7c.6 0 1 0 1.4.1 0 .2-.1.4-.1.7v11.2c0 1.2-.2 2.4-.5 3.6-.3 1.1-.7 2.2-1.3 3.1s-1.3 1.8-2.1 2.5-1.7 1.3-2.6 1.8c-.1-.2-.4-.5-1-1.1.9-.4 1.6-.9 2.2-1.4.6-.5 1.2-1 1.6-1.5s.8-1.1 1.1-1.7c.3-.6.5-1.1.7-1.6-.1 0-.3.1-.7.2-.4.1-1 .3-1.8.5-.9.2-1.3.3-1.4.4l-.9.3-.2-1.4.9-.1c.8-.1 2.3-.5 4.5-1.1.1-.8.2-1.7.2-2.6v-1.2H311v-1.2h4.2V69H310.6v-1.2H315.2v-3.4zm10.2 14.5h.9v1.3h-5.2v5.5l.1 1.3h-1.4l.1-1.3V64.6l-.1-.9c.5 0 1 0 1.4.1 0 .2-.1.4-.1.8v3.3h5.2v1.2h-5.2v4.2h4.9v1.2h-4.9v4.6h4.3zM340.6 80.5v5.7c0 .3 0 .6.1.7h-1.3v-.7c0-1.2 0-2.9.1-5.1-.4.5-.9 1-1.6 1.6-.7.6-1.5 1.2-2.5 1.8s-1.9 1.1-2.8 1.4c-.1-.2-.4-.6-.8-1.1.6-.2 1.3-.5 2.2-.9.8-.4 1.7-.9 2.6-1.6.9-.6 1.6-1.3 2.2-2h-6.4v-1.2c.3 0 .8.1 1.4.1h5.7v-3.5l-.1-.7c.6 0 1.1 0 1.3.1 0 .2-.1.4-.1.6v3.5h4.9c.6 0 1.1 0 1.4-.1v1.2H340.6zm-3.5-13.8c-.6 1-1.2 2-1.9 2.9-.7.9-1.4 1.6-2.1 2.1-.3-.3-.6-.6-1-.9.2-.2.5-.4.9-.7.4-.3.8-.8 1.3-1.4.5-.6.9-1.2 1.3-1.8.4-.6.7-1.2.9-1.7.3-.6.5-1.1.6-1.7.7.1 1.1.2 1.3.3-.1.1-.1.1-.1.2-.2.7-.4 1.3-.6 1.6h15.4v1.2h-16zm16.9 13c.5.4.9.7 1.2.8-.1 2.1-.4 3.6-.8 4.5s-1 1.4-1.9 1.4c-2.4 0-3.6-3.2-3.6-9.6 0-.7 0-1.7.1-2.9H333.2v-1.2h17.1c-.1.8-.1 2.3-.1 4.2 0 2.6.2 4.5.6 6 .4 1.4 1 2.1 1.7 2.1.2 0 .5-.2.7-.5.2-.3.4-.9.5-1.7s.3-1.7.3-3.1zm-16.7-1.6-.9.7c-.3-.4-.6-.7-1-1.2s-.8-.8-1.2-1.2l1-.6c.4.3.7.7 1.1 1.1.4.5.7.9 1 1.2zm-.2-8.9H351.3v1.1H337.1v-1.1zm4.4 13 .8-.8c.7.3 1.6.8 2.7 1.5 1.1.6 2 1.2 2.7 1.7l-.7 1c-.5-.4-1.3-.9-2.3-1.5-1-.7-2.1-1.3-3.2-1.9zm4.1-5.9c-1 1.1-1.5 1.8-1.7 1.9l-.4.4c-.1.1-.3.2-.4.3l-.8-.7c.3-.2.7-.6 1.2-1.2s1-1.1 1.3-1.6l.9.7-.1.2zM380.7 85h1.9v1.2H360V85h10.6v-2.1h-9.2v-1.1h9.2V80h-7.2c0-.3.1-.5.1-.7v-4.5c0-.2 0-.4-.1-.7h15.7V80h-7.3v1.8h9.5V83h-9.5v2h8.9zm0-12.3H360v-1.1H382.6v1.1h-1.9zm-17.5-2.5c0-.3.1-.5.1-.7V65c0-.2 0-.4-.1-.7H379v5.9h-15.8zm14.5-5.1h-13.1v1.7h13.1v-1.7zm-13.1 4.2h13.1v-1.7h-13.1v1.7zm6 5.8h-5.9v1.7h5.9v-1.7zm-5.9 2.5v1.7h5.9v-1.7h-5.9zm13.2-.8v-1.7h-6v1.7h6zm-6.1 2.5h6v-1.7h-6v1.7zM274.4 112.9v17.9h-1.3v-17.9h1.3zM285.5 128.3v2c0 1.6-.6 2.8-1.7 3.6v-.9c.4-.5.6-1.2.6-2.2h-.6v-2.6h1.7zM290.1 115.9v-1.6c1.3-1.1 2.7-1.6 4.2-1.6s2.7.5 3.7 1.5 1.5 2.2 1.5 3.7c0 2.9-2.2 6.8-6.6 11.8h8.3v1.2h-11.4c5.5-5.3 8.3-9.7 8.3-13 0-1.1-.4-2-1.2-2.8-.8-.8-1.7-1.1-2.9-1.1-.8 0-1.4.2-2 .5-.5.2-1.1.7-1.9 1.4zM310.6 112.7c1.6 0 3 .8 4.1 2.4 1.1 1.6 1.7 3.9 1.7 6.9 0 2.8-.5 5-1.6 6.6s-2.4 2.5-4.1 2.5c-1.7 0-3.1-.8-4.2-2.4-1.1-1.6-1.6-3.8-1.6-6.4 0-3.3.6-5.7 1.7-7.2s2.5-2.4 4-2.4zm0 17.2c1.3 0 2.4-.8 3.2-2.3s1.2-3.4 1.2-5.7c0-2.3-.4-4.1-1.2-5.6-.8-1.5-1.9-2.3-3.2-2.3-1.3 0-2.3.7-3.1 2.2-.8 1.5-1.2 3.4-1.2 5.7 0 2.4.4 4.3 1.2 5.7.7 1.5 1.8 2.3 3.1 2.3zM326.4 112.9v17.9H325v-17.9h1.4zM336 123.2v-1.4c1.4-1 2.6-1.5 3.7-1.5.7 0 1.8.3 3.4 1 1.6.7 2.6 1 3.1 1s1.1-.1 1.6-.4 1.2-.7 2-1.3v1.4c-1.4 1-2.6 1.6-3.6 1.6-.7 0-1.8-.3-3.3-1-1.5-.7-2.6-1-3.2-1-.5 0-1.1.1-1.6.3-.4.2-1.1.6-2.1 1.3zM360.8 112.9v17.9h-1.3v-17.9h1.3zM371.9 128.3v2c0 1.6-.6 2.8-1.7 3.6v-.9c.4-.5.6-1.2.6-2.2h-.6v-2.6h1.7zM379.5 121.5c-1.6-1.1-2.4-2.4-2.4-4 0-1.3.5-2.4 1.4-3.4s2.1-1.4 3.3-1.4c1.3 0 2.4.5 3.4 1.4.9.9 1.4 2.1 1.4 3.4 0 1.7-.8 3-2.3 4.1 1.8 1.1 2.6 2.5 2.6 4.4 0 1.4-.5 2.7-1.5 3.6-1 1-2.2 1.5-3.6 1.5s-2.7-.5-3.7-1.5-1.5-2.2-1.5-3.6c.2-1.9 1.1-3.4 2.9-4.5zm6.2 4.4c0-1-.4-1.9-1.1-2.6-.7-.7-1.6-1.1-2.7-1.1-1 0-1.9.4-2.6 1.1-.7.7-1.1 1.6-1.1 2.7s.4 2 1.1 2.7c.7.7 1.6 1.1 2.7 1.1s2-.4 2.7-1.1c.7-.7 1-1.7 1-2.8zm-7.2-8.4c0 1 .3 1.8 1 2.5s1.5 1 2.4 1c1 0 1.8-.3 2.4-1s1-1.5 1-2.5-.3-1.8-1-2.4c-.7-.7-1.5-1-2.4-1-.9 0-1.7.3-2.4 1-.7.6-1 1.4-1 2.4zM397.1 112.7c1.6 0 3 .8 4.1 2.4 1.1 1.6 1.7 3.9 1.7 6.9 0 2.8-.5 5-1.6 6.6s-2.4 2.5-4.1 2.5c-1.7 0-3.1-.8-4.2-2.4-1.1-1.6-1.6-3.8-1.6-6.4 0-3.3.6-5.7 1.7-7.2s2.5-2.4 4-2.4zm-.1 17.2c1.3 0 2.4-.8 3.2-2.3s1.2-3.4 1.2-5.7c0-2.3-.4-4.1-1.2-5.6-.8-1.5-1.9-2.3-3.2-2.3-1.3 0-2.3.7-3.1 2.2-.8 1.5-1.2 3.4-1.2 5.7 0 2.4.4 4.3 1.2 5.7.8 1.5 1.8 2.3 3.1 2.3zM412.2 112.7c1.6 0 3 .8 4.1 2.4 1.1 1.6 1.7 3.9 1.7 6.9 0 2.8-.5 5-1.6 6.6s-2.4 2.5-4.1 2.5c-1.7 0-3.1-.8-4.2-2.4-1.1-1.6-1.6-3.8-1.6-6.4 0-3.3.6-5.7 1.7-7.2s2.5-2.4 4-2.4zm-.1 17.2c1.3 0 2.4-.8 3.2-2.3s1.2-3.4 1.2-5.7c0-2.3-.4-4.1-1.2-5.6-.8-1.5-1.9-2.3-3.2-2.3-1.3 0-2.3.7-3.1 2.2-.8 1.5-1.2 3.4-1.2 5.7 0 2.4.4 4.3 1.2 5.7.8 1.5 1.9 2.3 3.1 2.3zM274.4 156.9v17.9h-1.3v-17.9h1.3zM285.5 172.3v2c0 1.6-.6 2.8-1.7 3.6v-.9c.4-.5.6-1.2.6-2.2h-.6v-2.6h1.7zM293.1 165.5c-1.6-1.1-2.4-2.4-2.4-4 0-1.3.5-2.4 1.4-3.4s2.1-1.4 3.3-1.4c1.3 0 2.4.5 3.4 1.4.9.9 1.4 2.1 1.4 3.4 0 1.7-.8 3-2.3 4.1 1.8 1.1 2.6 2.5 2.6 4.4 0 1.4-.5 2.7-1.5 3.6-1 1-2.2 1.5-3.6 1.5s-2.7-.5-3.7-1.5-1.5-2.2-1.5-3.6c.2-1.9 1.1-3.4 2.9-4.5zm6.2 4.4c0-1-.4-1.9-1.1-2.6-.7-.7-1.6-1.1-2.7-1.1-1 0-1.9.4-2.6 1.1-.7.7-1.1 1.6-1.1 2.7s.4 2 1.1 2.7c.7.7 1.6 1.1 2.7 1.1s2-.4 2.7-1.1c.6-.7 1-1.7 1-2.8zm-7.2-8.5c0 1 .3 1.8 1 2.5s1.5 1 2.4 1c1 0 1.8-.3 2.4-1s1-1.5 1-2.5-.3-1.8-1-2.4c-.7-.7-1.5-1-2.4-1-.9 0-1.7.3-2.4 1-.7.6-1 1.5-1 2.4zM310.6 156.7c1.6 0 3 .8 4.1 2.4 1.1 1.6 1.7 3.9 1.7 6.9 0 2.8-.5 5-1.6 6.6s-2.4 2.5-4.1 2.5c-1.7 0-3.1-.8-4.2-2.4-1.1-1.6-1.6-3.8-1.6-6.4 0-3.3.6-5.7 1.7-7.2s2.5-2.4 4-2.4zm0 17.1c1.3 0 2.4-.8 3.2-2.3s1.2-3.4 1.2-5.7c0-2.3-.4-4.1-1.2-5.6-.8-1.5-1.9-2.3-3.2-2.3-1.3 0-2.3.7-3.1 2.2-.8 1.5-1.2 3.4-1.2 5.7 0 2.4.4 4.3 1.2 5.7.7 1.6 1.8 2.3 3.1 2.3zM326.4 156.9v17.9H325v-17.9h1.4zM336 167.2v-1.4c1.4-1 2.6-1.5 3.7-1.5.7 0 1.8.3 3.4 1 1.6.7 2.6 1 3.1 1s1.1-.1 1.6-.4 1.2-.7 2-1.3v1.4c-1.4 1-2.6 1.6-3.6 1.6-.7 0-1.8-.3-3.3-1-1.5-.7-2.6-1-3.2-1-.5 0-1.1.1-1.6.3-.4.1-1.1.6-2.1 1.3zM354.8 159.9v-1.6c1.3-1.1 2.7-1.6 4.2-1.6s2.7.5 3.7 1.5 1.5 2.2 1.5 3.7c0 2.9-2.2 6.8-6.6 11.8h8.3v1.2h-11.4c5.5-5.3 8.3-9.7 8.3-13 0-1.1-.4-2-1.2-2.8-.8-.8-1.7-1.1-2.9-1.1-.8 0-1.4.2-2 .5-.5.2-1.1.7-1.9 1.4zM371.9 172.3v2c0 1.6-.6 2.8-1.7 3.6v-.9c.4-.5.6-1.2.6-2.2h-.6v-2.6h1.7zM385.2 156.7v10.2h2.5v1.1h-2.5v6.9h-1.3V168h-8.2v-.4l9-10.8h.5zm-1.3 10.1v-7.6l-6.3 7.6h6.3zM397.1 156.7c1.6 0 3 .8 4.1 2.4 1.1 1.6 1.7 3.9 1.7 6.9 0 2.8-.5 5-1.6 6.6s-2.4 2.5-4.1 2.5c-1.7 0-3.1-.8-4.2-2.4-1.1-1.6-1.6-3.8-1.6-6.4 0-3.3.6-5.7 1.7-7.2s2.5-2.4 4-2.4zm-.1 17.1c1.3 0 2.4-.8 3.2-2.3s1.2-3.4 1.2-5.7c0-2.3-.4-4.1-1.2-5.6-.8-1.5-1.9-2.3-3.2-2.3-1.3 0-2.3.7-3.1 2.2-.8 1.5-1.2 3.4-1.2 5.7 0 2.4.4 4.3 1.2 5.7.8 1.6 1.8 2.3 3.1 2.3zM412.2 156.7c1.6 0 3 .8 4.1 2.4 1.1 1.6 1.7 3.9 1.7 6.9 0 2.8-.5 5-1.6 6.6s-2.4 2.5-4.1 2.5c-1.7 0-3.1-.8-4.2-2.4-1.1-1.6-1.6-3.8-1.6-6.4 0-3.3.6-5.7 1.7-7.2s2.5-2.4 4-2.4zm-.1 17.1c1.3 0 2.4-.8 3.2-2.3s1.2-3.4 1.2-5.7c0-2.3-.4-4.1-1.2-5.6-.8-1.5-1.9-2.3-3.2-2.3-1.3 0-2.3.7-3.1 2.2-.8 1.5-1.2 3.4-1.2 5.7 0 2.4.4 4.3 1.2 5.7.8 1.6 1.9 2.3 3.1 2.3z"/>
    <path class="st2" d="M54.2 54.5H867v135.4H54.2zM203.9 54.4v134.9M473.8 54.4v134.9M53.6 92.7h813.8M203.9 143.2h663.5"/>
    <path d="m587.1 81.4-.9.9c-.3-.6-.7-1.2-1.1-1.9-.5-.7-.9-1.3-1.3-1.8-.2 1.3-.5 2.5-.9 3.6s-.8 2.1-1.3 2.8c-.4.7-.9 1.2-1.2 1.6l-.3-.3-.7-.7c1.1-1.2 2-2.9 2.7-5.2.7-2.3 1-4.9 1-7.9v-7.9l-.1-.7c.5 0 1 0 1.3.1 0 .2-.1.4-.1.6v6.9c.4-.5.9-1.2 1.3-1.9s.8-1.3 1-1.9l.9.9c-.1 0-.2.1-.2.2-.4.7-.9 1.4-1.4 2.2s-1.1 1.5-1.6 2c0 1.5-.1 2.9-.3 4.1.4.4.7.9 1.2 1.5.4.6.8 1.1 1.2 1.6s.7.9.8 1.2zm-6.3-6.4c-.1-.1-.5-.3-1-.5.2-.5.4-1.3.6-2.4.2-1 .2-2.2.2-3.6l1.1.1-.1.2c0 1.4-.1 2.6-.3 3.7-.1 1.2-.3 2-.5 2.5zm5.5 11.3c.4-.5.8-1.1 1.2-1.9.4-.8.7-1.5.9-2.1.2-.6.4-1.1.4-1.4l1.1.4c0 .1-.1.2-.1.4-.1.2-.2.6-.4 1.3-.2.7-.5 1.4-.9 2.2-.4.8-.7 1.4-1 1.8l-1.2-.7zm9.7-19.2-.2.1c-.7 2.9-1.7 5.4-3.1 7.5-1.4 2.2-3 3.8-4.9 5-.1-.2-.4-.5-.8-1 .8-.5 1.5-1 2.2-1.6.7-.6 1.3-1.3 1.9-2-.6-.4-1.4-.9-2.6-1.6l.5-.8c1.1.5 2 1 2.7 1.5.2-.3.4-.6.7-1.1.3-.5.5-.9.7-1.2-.1-.1-.4-.3-.8-.5s-1-.5-1.7-.9l.4-.8c.4.1.8.3 1.2.5.5.2.9.5 1.3.7.5-1.1.9-2.2 1.2-3.4h-3.5c-.4.8-.7 1.5-1.2 2.3-.4.7-.9 1.4-1.3 1.9s-.8.9-1.1 1.2l-.1-.1c-.1-.1-.1-.1-.3-.4-.2-.2-.3-.4-.4-.5.6-.6 1.2-1.4 1.8-2.2.6-.8 1.1-1.8 1.5-2.8.5-1 .9-2.1 1.2-3.3l1.2.2-.1.2c-.1.3-.2.7-.4 1.1-.2.5-.3.9-.4 1.1h3.3l.2-.2c.3.6.7.8.9 1.1zm-4 14.3 1.1-.2c.3 1.6.5 3.4.7 5.3l-1.2.3c0-.4 0-1-.1-1.8s-.1-1.5-.2-2.1c-.2-.8-.3-1.2-.3-1.5zm11.3-1.4c-.5-.4-1-.9-1.6-1.6-.6-.7-1.1-1.5-1.7-2.5-.5-1-.9-2-1.2-3.1-.4 1.5-1 2.9-1.9 4.1-.9 1.2-2 2.2-3.2 2.9-.2-.4-.5-.7-.8-1 3-1.7 4.7-4.3 5.2-8h-2.6v-1.2h2.7V64.4l-.1-.7c.5 0 .9 0 1.3.1 0 .2-.1.4-.1.6v5.2h3.9v1.2h-3.7c.2 1.7.8 3.3 1.6 4.7.8 1.5 1.8 2.6 3 3.5-.4.4-.6.8-.8 1zm-7.5 1.4 1-.3c.3.6.6 1.4.9 2.3.3 1 .6 1.9.8 2.8l-1.2.4c-.1-.7-.3-1.6-.6-2.6-.3-1.1-.6-1.9-.9-2.6zm4.1-.1 1-.3c.4.5.8 1.2 1.2 2s.7 1.5.9 2c.2.5.4.9.4 1.1l-1.1.5c-.3-.8-.6-1.8-1.1-2.8-.4-1.1-.9-1.9-1.3-2.5zm3.2-13.1-.9.7c-.7-1.3-1.4-2.5-2.1-3.4l.8-.6c.3.4.7.9 1.1 1.5.5.6.8 1.2 1.1 1.8zM614.6 73.2V86l.1 1h-1.4l.1-1 .1-11.4c-.4 1.3-.9 2.5-1.5 3.8-.6 1.2-1.1 2.3-1.6 3s-1 1.4-1.4 1.8c-.1-.3-.3-.5-.4-.7-.1-.2-.2-.4-.3-.4.8-.8 1.7-2.1 2.6-3.7.9-1.6 1.6-3.3 2.1-5h-4.4V72h4.9v-7.7l-.1-.7c.5 0 1 0 1.4.1 0 .2-.1.5-.1.7v7.7h4.2v1.2h-4.3zm-2.8-2.9-1.1.3c-.1-.6-.3-1.4-.6-2.2-.3-.9-.6-1.8-1-2.7l1.1-.3c.3.8.6 1.6.9 2.5.3.8.6 1.6.7 2.4zm3.9 4.3c1.2 1.4 2.2 2.7 2.9 3.8l-.9.7c-.2-.3-.5-.8-1.1-1.6-.5-.8-1.2-1.6-1.9-2.3l1-.6zm2.8-9c-.2.7-.5 1.6-.8 2.6-.4 1-.8 1.9-1.1 2.6l-1-.5c.4-.7.8-1.6 1.2-2.7.4-1.1.7-2 .7-2.6l1.1.4-.1.2zm11.9 14.1-1.3.2v5.8l.1 1.3h-1.4l.1-1.3V80l-7.8 1-1.4.2-.1-1.3c.4 0 .8-.1 1.4-.2l7.9-1V63.6c.3 0 .8 0 1.4.1v15l1.2-.2 1.4-.2.1 1.3c-.2 0-.4 0-.7.1h-.9zm-4.8-4.6-.7 1.1c-.6-.5-1.4-1-2.2-1.5s-1.5-1-2.2-1.3l.7-1.1c.7.4 1.5.9 2.3 1.4.8.5 1.5 1 2.1 1.4zm.5-6.1-.7 1.1c-.6-.5-1.4-1-2.2-1.6-.8-.5-1.5-.9-2-1.2l.7-1c1.1.6 2.5 1.5 4.2 2.7zM642.1 72.6V86l.1 1h-1.4l.1-1v-4.1c0-2.1.1-4.8.1-7.8-.5 1.7-1.1 3.3-1.8 4.8s-1.4 2.7-2.1 3.5c-.2-.4-.4-.8-.7-1.1.8-.9 1.5-2.2 2.3-3.8s1.4-3.2 1.8-4.9h-3.7v-1.2h4.1v-4.6c-.4.1-1 .3-1.6.5-.6.2-1.2.3-1.8.4-.1-.2-.2-.5-.5-1.1 1.1-.2 2.3-.5 3.7-1 1.3-.5 2.5-1 3.4-1.5l.8 1c-.1 0-.2.1-.5.2-.4.2-1.2.5-2.3 1v5h3.1v1.2h-3.1zm3.7 5.9-.9.7c-.3-.7-.7-1.4-1.1-2.1-.4-.7-.7-1.3-1-1.6-.2-.3-.4-.6-.5-.7l.8-.6c.4.5.9 1.2 1.4 2 .5.9.9 1.6 1.3 2.3zm13.1 3.2c.5.4.9.6 1.2.7 0 1.1-.1 1.9-.3 2.4s-.4.9-.6 1.2c-.3.3-.6.4-1 .6-.4.1-1 .2-1.7.2h-.9c-.3 0-.6-.1-.8-.2s-.3-.1-.4-.2c-.4-.3-.6-.8-.6-1.7v-7h-2.9c-.1 1.2-.2 2.3-.4 3.3s-.6 1.9-1 2.6c-.4.8-1 1.4-1.8 2-.7.6-1.6 1-2.6 1.3-.2-.3-.4-.6-.8-1.1 1.2-.4 2.2-.9 3-1.6s1.4-1.5 1.8-2.6c.4-1 .7-2.4.8-4h-2.3c0-.3.1-.6.1-.7V71c0-.2 0-.4-.1-.7h9.8v7.4h-2.2v7.2c0 .4.1.6.4.7.2.1.6.1 1.1.1.3 0 .6-.1.9-.2.3-.1.6-.2.8-.4.2-.2.4-.6.4-1 .1-.4.1-.9.2-1.4s-.1-.8-.1-1zm-13.2-10.9c-.3-.4-.5-.7-.8-.9.4-.3.9-.7 1.4-1.2.6-.5 1.1-1.2 1.8-2.1.6-.9 1.1-1.7 1.5-2.6l1.1.5-.1.2c-.1.3-.3.6-.6 1.1s-.6.9-.9 1.5-.7 1-1.1 1.4-.7.8-1.1 1.2l-1.2.9zm3.1.6v5.2h7.2v-5.2h-7.2zm10.8-1.5-.8 1c-.3-.5-.8-1.1-1.3-1.8-.6-.7-1.2-1.5-1.9-2.4-.7-.9-1.3-1.6-1.9-2.2l1-.5c.8.8 1.6 1.8 2.5 2.9.9 1 1.7 2 2.4 3zM680.8 74.9c0 .9-.1 1.8-.4 2.8-.2 1-.5 1.8-.9 2.6s-.7 1.4-1.1 1.8l3.3 3.5h-1.8l-2.4-2.6c-.8.9-1.7 1.7-2.8 2.1-1.1.5-2.2.7-3.4.7-.7 0-1.3-.1-1.9-.2-.6-.1-1.2-.4-1.8-.7s-1.1-.8-1.5-1.4c-.4-.6-.7-1.2-.8-1.7-.1-.6-.2-1.1-.2-1.4 0-1.3.4-2.4 1.2-3.4.8-.9 2-1.7 3.7-2.3-1.2-1.3-1.9-2.2-2.2-2.9-.3-.7-.5-1.4-.5-2 0-.8.2-1.5.6-2.1s.9-1.1 1.5-1.4c.6-.3 1.1-.5 1.7-.6.5-.1.9-.1 1.3-.1.5 0 1 .1 1.5.2s.9.3 1.2.5c.4.2.7.5 1 .9.3.4.5.8.7 1.2.1.5.2.9.2 1.4 0 1.2-.4 2.2-1.2 3-.8.8-2.1 1.6-3.8 2.4l5.7 6.1c.6-.9 1-1.9 1.4-3 .3-1.2.5-2.3.5-3.4h1.2zm-10 .8c-1.5.5-2.5 1.2-3.2 2-.7.8-1 1.7-1 2.9 0 .6.1 1.2.4 1.8.2.5.6 1 1 1.4.4.4 1 .7 1.6.9.6.2 1.3.3 2 .3.8 0 1.5-.1 2.2-.3.6-.2 1.2-.5 1.7-.9s1-.8 1.4-1.4l-6.1-6.7zm.5-1.3c1-.4 1.8-.8 2.4-1.2s1.1-.9 1.4-1.3c.3-.4.5-.9.5-1.2.1-.4.1-.7.1-.9 0-.4-.1-.9-.3-1.3-.2-.5-.5-.9-1.1-1.2-.5-.3-1.2-.5-2-.5-1.1 0-1.9.3-2.6.9-.7.6-1 1.3-1 2.3 0 .6.1 1.1.3 1.6.2.5.5 1 .9 1.5s.9.8 1.4 1.3zM689.4 71.8v4.1h4.5v10.9h-1.3V77h-3.3c-.1 1.3-.2 2.5-.4 3.7s-.5 2.2-.8 3.2c-.3 1-.7 1.8-1.2 2.5l-1-1c.7-1.1 1.3-2.5 1.7-4.3.4-1.8.6-3.9.6-6.4v-9.3c0-.2 0-.5-.1-.7.5 0 .9 0 1.3.1 0 .2-.1.4-.1.7v5.4h2.8v-6.1c0-.2 0-.4-.1-.7.5 0 .9 0 1.3.1 0 .2-.1.4-.1.7V71h2.3v1.2h-6.1zm19 8.2h1.5v1.2c-.3 0-.8-.1-1.5-.1h-3V86c0 .2 0 .5.1.8h-1.3v-5.6h-7.5c-.7 0-1.1 0-1.5.1V80h9v-4.1c.6 0 1 0 1.3.1v4h2.9zm-12.3-1.7c.6-.2 1.1-.4 1.6-.6.5-.2.9-.5 1.3-.7.4-.3.8-.6 1.1-1l.9-1.2h-4.2l.1-.8v-7l-.1-.8h4.3c.1-.2.3-.5.5-1 .3-.5.5-1.1.7-1.7l1.4.2-.2.3c-.3.7-.6 1.5-1.1 2.3h6.1v8.6h-6.3c-.2.6-.6 1.1-.9 1.6-.4.5-.9 1-1.6 1.5-.7.5-1.6 1-2.8 1.4-.1-.3-.4-.6-.8-1.1zm6.1-11.1H698v2.7h4.1c0-.7.1-1.6.1-2.7zm-4.2 6.5h3.4c.3-.8.5-1.7.7-2.9h-4v2.9zm4.6 0h4.6v-2.9h-4.1c-.1 1.2-.3 2.1-.5 2.9zm4.6-3.8v-2.7h-3.8c0 .9 0 1.8-.1 2.7h3.9zM715 86.1c.7-.7 1.3-1.5 2-2.5.6-1 1.1-1.8 1.3-2.5l1.2.5c-.3.8-.7 1.6-1.2 2.4-.5.9-.9 1.5-1.3 2s-.6.8-.7.9l-1.3-.8zm7.6-21.2-.1.9v12.5l.1 1H716l.1-1V65.8l-.1-.9h6.6zm-1.3 1.1h-4v5.3h4V66zm-4 12.2h4v-5.8h-4v5.8zm5.3 3.5 1.2-.2c.1.5.3 1.3.4 2.2.1.9.3 1.8.3 2.7l-1.3.3c0-.7-.1-1.5-.2-2.4-.1-1-.2-1.9-.4-2.6zm8.3-15.5c-.1 1-.3 1.9-.8 2.7-.5.8-1.2 1.5-2 2.2-.9.6-1.9 1.2-3.2 1.7l-.8-1.1c.9-.3 1.7-.6 2.4-1.1.7-.4 1.3-.8 1.7-1.3.5-.5.8-1 1.1-1.5.2-.5.4-1.1.4-1.7h-4.5v-1.2h11.6l-.1.4c0 1.9-.1 3.2-.2 3.8-.1.6-.2 1.1-.4 1.4-.1.3-.3.6-.6.8-.3.2-.7.4-1.2.6-.5.1-1.2.2-2.2.2-.2-.6-.4-1.1-.6-1.4.4.1.8.2 1.3.2 1.1 0 1.8-.3 2.1-.9.1-.2.2-.5.3-1s.1-1.4.2-2.9h-4.5zM725.8 80c0-.3.1-.5.1-.7v-4.9c0-.2 0-.4-.1-.7h10V80h-10zm1.2-1.1h7.5v-4.1H727v4.1zm.6 2.9 1.2-.3c.2.4.5.9.8 1.4.3.6.6 1.2.8 1.8.2.6.4 1.1.5 1.4l-1.3.4c-.1-.5-.3-1.1-.6-1.8s-.5-1.3-.8-1.8c-.2-.5-.4-.9-.6-1.1zm6.6-.5c.5.5 1 1.2 1.6 2.1.6.9 1.1 1.7 1.6 2.6l-1.2.6c-.4-.8-.8-1.6-1.4-2.6-.6-.9-1.1-1.7-1.6-2.3l1-.4zM748.3 72.6V86l.1 1H747l.1-1v-4.1c0-2.1.1-4.8.1-7.8-.5 1.7-1.1 3.3-1.8 4.8s-1.4 2.7-2.1 3.5c-.2-.4-.4-.8-.7-1.1.8-.9 1.5-2.2 2.3-3.8.8-1.6 1.4-3.2 1.8-4.9H743v-1.2h4.1v-4.6c-.4.1-1 .3-1.6.5-.6.2-1.2.3-1.8.4-.1-.2-.2-.5-.5-1.1 1.1-.2 2.4-.5 3.7-1 1.3-.5 2.5-1 3.4-1.5l.8 1c-.1 0-.2.1-.5.2-.4.2-1.2.5-2.3 1v5h3.1v1.2h-3.1zm3.6 5.9-.9.7c-.3-.7-.7-1.4-1.1-2.1s-.7-1.3-1-1.6c-.2-.3-.4-.6-.5-.7l.8-.6c.4.5.9 1.2 1.4 2 .6.9 1 1.6 1.3 2.3zm13.1 3.2c.5.4.9.6 1.2.7 0 1.1-.1 1.9-.3 2.4s-.4.9-.6 1.2c-.3.3-.6.4-1 .6s-1 .2-1.7.2h-.9c-.3 0-.6-.1-.8-.2-.2-.1-.3-.1-.4-.2-.4-.3-.6-.8-.6-1.7v-7H757c-.1 1.2-.2 2.3-.4 3.3s-.6 1.9-1 2.6c-.4.8-1 1.4-1.8 2-.7.6-1.6 1-2.6 1.3-.2-.3-.4-.6-.8-1.1 1.2-.4 2.2-.9 3-1.6.8-.7 1.4-1.5 1.8-2.6.4-1 .7-2.4.8-4h-2.3c0-.3.1-.6.1-.7V71c0-.2 0-.4-.1-.7h9.8v7.4h-2.2v7.2c0 .4.1.6.4.7.2.1.6.1 1.1.1.3 0 .6-.1.9-.2.3-.1.6-.2.8-.4.2-.2.4-.6.4-1 .1-.4.1-.9.2-1.4s-.1-.8-.1-1zm-13.2-10.9c-.3-.4-.5-.7-.8-.9.4-.3.9-.7 1.4-1.2.6-.5 1.1-1.2 1.8-2.1.6-.9 1.1-1.7 1.5-2.6l1.1.5-.1.2c-.1.3-.3.6-.6 1.1s-.6.9-.9 1.5c-.4.5-.7 1-1.1 1.4s-.7.8-1.1 1.2-.8.6-1.2.9zm3.2.6v5.2h7.2v-5.2H755zm10.7-1.5-.8 1c-.3-.5-.8-1.1-1.3-1.8-.6-.7-1.2-1.5-1.9-2.4s-1.3-1.6-1.9-2.2l1-.5c.8.8 1.6 1.8 2.5 2.9.9 1 1.7 2 2.4 3zM640.2 112.9v17.9h-1.3v-17.9h1.3zM655.3 112.9v17.9H654v-17.9h1.3zM666.4 128.3v2c0 1.6-.6 2.8-1.7 3.6v-.9c.4-.5.6-1.2.6-2.2h-.6v-2.6h1.7zM673.6 131.1l-.7-1c4-2.9 6.2-5.8 6.7-8.9-1.4.9-2.7 1.3-3.9 1.3-1.4 0-2.6-.5-3.6-1.4s-1.4-2.1-1.4-3.5c0-1.5.5-2.7 1.4-3.6.9-.9 2.2-1.4 3.6-1.4 1.7 0 3.1.6 4 1.7 1 1.1 1.5 2.7 1.5 4.6.1 4.5-2.5 8.6-7.6 12.2zm6.3-11.4v-.8c0-1.5-.4-2.7-1.1-3.6s-1.7-1.3-3-1.3c-1.1 0-2 .3-2.7 1-.7.7-1.1 1.6-1.1 2.6 0 1.1.4 2 1.1 2.7.7.7 1.6 1.1 2.7 1.1 1.5 0 2.8-.6 4.1-1.7zM686.2 115.9v-1.6c1.3-1.1 2.7-1.6 4.2-1.6s2.7.5 3.7 1.5 1.5 2.2 1.5 3.7c0 2.9-2.2 6.8-6.6 11.8h8.3v1.2H686c5.5-5.3 8.3-9.7 8.3-13 0-1.1-.4-2-1.2-2.8-.8-.8-1.7-1.1-2.9-1.1-.8 0-1.4.2-2 .5-.6.2-1.3.7-2 1.4zM706.7 112.7c1.6 0 3 .8 4.1 2.4 1.1 1.6 1.7 3.9 1.7 6.9 0 2.8-.5 5-1.6 6.6-1.1 1.7-2.4 2.5-4.1 2.5-1.7 0-3.1-.8-4.2-2.4-1.1-1.6-1.6-3.8-1.6-6.4 0-3.3.6-5.7 1.7-7.2s2.5-2.4 4-2.4zm-.1 17.2c1.3 0 2.4-.8 3.2-2.3s1.2-3.4 1.2-5.7c0-2.3-.4-4.1-1.2-5.6-.8-1.5-1.9-2.3-3.2-2.3-1.3 0-2.3.7-3.1 2.2-.8 1.5-1.2 3.4-1.2 5.7 0 2.4.4 4.3 1.2 5.7.8 1.5 1.9 2.3 3.1 2.3zM640.2 156.9v17.9h-1.3v-17.9h1.3zM660.6 156.9l-8.2 18.2-1.2-.5 7.4-16.4h-9.8V157h11.8zM666.4 172.3v2c0 1.6-.6 2.8-1.7 3.6v-.9c.4-.5.6-1.2.6-2.2h-.6v-2.6h1.7zM679.7 156.7v10.2h2.5v1.1h-2.5v6.9h-1.3V168h-8.2v-.4l9-10.8h.5zm-1.3 10.1v-7.6l-6.3 7.6h6.3zM692.2 156.9v17.9h-1.3v-17.9h1.3zM706.7 156.7c1.6 0 3 .8 4.1 2.4 1.1 1.6 1.7 3.9 1.7 6.9 0 2.8-.5 5-1.6 6.6-1.1 1.7-2.4 2.5-4.1 2.5-1.7 0-3.1-.8-4.2-2.4-1.1-1.6-1.6-3.8-1.6-6.4 0-3.3.6-5.7 1.7-7.2s2.5-2.4 4-2.4zm-.1 17.1c1.3 0 2.4-.8 3.2-2.3s1.2-3.4 1.2-5.7c0-2.3-.4-4.1-1.2-5.6-.8-1.5-1.9-2.3-3.2-2.3-1.3 0-2.3.7-3.1 2.2-.8 1.5-1.2 3.4-1.2 5.7 0 2.4.4 4.3 1.2 5.7.8 1.6 1.9 2.3 3.1 2.3z"/>
    <path class="st0" d="M347.8 24.2c.6.4 1.1.8 1.7 1.1 0 1.3-.2 2.4-.4 3.3-.2.9-.6 1.5-1 2.1s-1.2.9-2.1 1.2c-.9.2-2.1.4-3.5.4h-.9c-.5 0-1.2 0-2.2-.1s-1.8-.2-2.3-.5c-.4-.2-.7-.6-.8-.9s-.3-.9-.3-1.5V20h-2.8c-.5 1.4-1.1 2.7-1.9 4.1-.8 1.4-1.7 2.6-2.9 3.8-1.2 1.1-2.5 2.1-4.1 3-1.6.9-3.4 1.6-5.6 2.1-.5-.7-.9-1.2-1.3-1.7 1.6-.3 3.2-.8 4.6-1.4 1.4-.6 2.7-1.3 3.9-2.2 1.2-.9 2.2-2 3.1-3.3.9-1.3 1.7-2.7 2.3-4.3h-9.4c0-.4.1-.7.1-1v-8.5c-1.3.9-2.5 1.6-3.7 2.1 0-.1-.1-.2-.2-.4-.1-.1-.3-.4-.5-.6-.2-.3-.3-.4-.4-.5 2.3-1 4.6-2.5 7.1-4.6 2.4-2.1 4.2-4.2 5.4-6.2l1.9.4-.2.3c-.2.3-.5.7-.8 1.3s-.7 1-.9 1.3h8.8l.3-.3c.7.5 1.3 1 1.8 1.3l-.4.1c-.6.9-1.3 1.8-2.1 2.8s-1.6 1.8-2.4 2.5h10.6v10H338v9c0 .3.1.6.2.8.1.2.4.4.8.5.4.1 1.7.2 3.8.2 1 0 1.8-.1 2.4-.2.6-.1 1.1-.4 1.6-.7.4-.4.7-.9.9-1.7 0-1.1.1-2.2.1-3.8zM322.6 9.8H333c.4-.3.9-.7 1.5-1.3.6-.6 1.2-1.2 1.8-1.9s1.1-1.3 1.4-1.8h-9.5c-1.7 1.9-3.6 3.5-5.6 5zm1.2 8.4h8.1c.2-.7.4-1.5.5-2.4.2-.8.3-1.6.4-2.4.1-.8.2-1.4.2-2h-9.2v6.8zm11-6.8c0 .6-.1 1.3-.2 2-.1.8-.2 1.6-.4 2.4s-.4 1.6-.5 2.4h10.6v-6.8h-9.5zM361.9 11.9v5.6h6.2v15.2h-1.8V19h-4.6c-.1 1.8-.3 3.5-.6 5.1-.3 1.6-.6 3.1-1.1 4.5-.5 1.4-1 2.5-1.6 3.4-.4-.4-.8-.9-1.4-1.4 1-1.5 1.8-3.4 2.3-5.9.5-2.5.8-5.5.8-8.9v-13c0-.3 0-.6-.1-1 .7 0 1.3 0 1.8.1 0 .3-.1.6-.1 1v7.5h3.9V1.8c0-.3 0-.6-.1-1 .7 0 1.3 0 1.8.1 0 .3-.1.6-.1.9v8.5h3.2v1.6h-8.5zm26.4 11.3h2v1.7c-.5 0-1.1-.1-2-.1h-4.1v6.7c0 .3 0 .7.1 1.2h-1.8v-7.9H372c-.9 0-1.6 0-2 .1v-1.7h12.5v-5.7c.8 0 1.4 0 1.8.1V23.2h4zm-17.1-2.3c.8-.3 1.5-.5 2.2-.8.7-.3 1.3-.6 1.8-1 .6-.4 1.1-.8 1.5-1.3s.8-1.1 1.2-1.7h-5.8l.1-1.1V5.1l-.1-1.1h5.9c.1-.2.4-.7.7-1.4s.7-1.5.9-2.4l2 .3-.3.4c-.4 1-.9 2-1.5 3.1h8.5v12h-8.7c-.3.8-.8 1.5-1.3 2.2-.5.7-1.3 1.4-2.2 2.1-.9.7-2.2 1.3-3.9 1.9 0-.2-.4-.7-1-1.3zm8.5-15.4h-5.8v3.8h5.7c.1-1.1.1-2.3.1-3.8zm-5.8 9h4.7c.4-1 .7-2.4.9-4h-5.6v4zm6.4 0h6.4v-4h-5.6c-.2 1.6-.5 2.9-.8 4zm6.4-5.3V5.5h-5.3c0 1.2-.1 2.5-.2 3.8h5.5zM398.5 31.8c1-.9 1.9-2.1 2.8-3.5.9-1.4 1.5-2.6 1.8-3.5l1.7.7c-.4 1.1-1 2.2-1.7 3.4-.7 1.2-1.3 2.1-1.8 2.7s-.8 1.1-1 1.3l-1.8-1.1zm10.4-29.5-.1 1.3V21l.1 1.4h-9.1l.1-1.4V3.6l-.1-1.3h9.1zm-1.7 1.5h-5.6v7.4h5.6V3.8zm-5.6 17h5.6v-8h-5.6v8zm7.4 4.8 1.7-.3c.2.8.4 1.8.6 3 .2 1.3.4 2.5.5 3.8l-1.9.4c0-.9-.1-2.1-.3-3.4-.2-1.3-.4-2.5-.6-3.5zm11.5-21.5c-.1 1.4-.5 2.6-1.1 3.8-.7 1.1-1.6 2.1-2.8 3s-2.7 1.7-4.5 2.4l-1.1-1.5c1.2-.4 2.3-.9 3.3-1.5s1.8-1.2 2.4-1.8c.6-.7 1.1-1.4 1.5-2.1.3-.7.5-1.5.6-2.3h-6.3V2.5h16.1l-.1.6c0 2.7-.1 4.4-.2 5.3-.1.9-.3 1.5-.5 1.9-.2.4-.5.8-.9 1.1-.4.3-.9.6-1.7.8-.7.2-1.7.3-3 .3-.3-.8-.6-1.5-.8-2 .5.2 1.2.3 1.9.3 1.5 0 2.5-.4 2.9-1.3.1-.3.3-.8.4-1.4.1-.6.2-2 .2-4.1h-6.3zm-7.1 19.1c0-.4.1-.7.1-1v-6.9c0-.2 0-.6-.1-1h13.8v8.9h-13.8zm1.8-1.5h10.4V16h-10.4v5.7zm.8 4 1.6-.5c.3.5.7 1.2 1.1 2 .4.8.8 1.7 1.1 2.5.3.8.6 1.5.7 2l-1.9.6c-.2-.7-.5-1.6-.8-2.5s-.7-1.8-1.1-2.5c-.2-.7-.5-1.2-.7-1.6zm9.2-.7c.7.7 1.4 1.7 2.3 2.9.9 1.2 1.6 2.4 2.2 3.6l-1.7.9c-.5-1.1-1.1-2.3-2-3.6-.8-1.3-1.6-2.4-2.3-3.2l1.5-.6zM445.6 12.9v18.6l.1 1.4h-1.9l.1-1.4v-.7c0-.4 0-2 .1-5s.1-6.6.2-10.9c-.7 2.3-1.5 4.6-2.5 6.7-1 2.1-2 3.8-2.9 4.9-.3-.5-.6-1.1-1-1.6 1-1.2 2.1-3 3.2-5.2 1.1-2.3 1.9-4.5 2.5-6.8h-5.1v-1.6h5.6V5c-.6.2-1.3.4-2.2.7-.9.3-1.7.5-2.5.6-.1-.2-.3-.7-.7-1.5 1.6-.3 3.3-.7 5.1-1.4 1.9-.7 3.4-1.3 4.7-2l1.1 1.4c-.1 0-.3.1-.7.2-.6.3-1.6.8-3.2 1.4v7h4.2V13h-4.2zm5.1 8.3-1.3.9c-.4-.9-.9-1.9-1.5-2.9s-1-1.8-1.4-2.3c-.3-.5-.6-.8-.7-.9l1.2-.8c.6.8 1.2 1.7 1.9 2.8.7 1.2 1.3 2.2 1.8 3.2zm18.2 4.3c.8.5 1.3.9 1.6 1 0 1.5-.2 2.6-.4 3.4-.2.8-.5 1.3-.9 1.7-.4.4-.8.6-1.4.8-.6.2-1.3.3-2.3.3-.4 0-.8 0-1.2-.1-.5 0-.8-.1-1.1-.2-.2-.1-.4-.2-.5-.3-.6-.4-.8-1.2-.8-2.3V20h-4.1c-.1 1.7-.3 3.2-.6 4.6-.3 1.4-.8 2.6-1.4 3.6s-1.4 2-2.4 2.8c-1 .8-2.2 1.4-3.6 1.9-.2-.4-.6-.9-1.1-1.5 1.7-.5 3.1-1.3 4.1-2.2s1.9-2.1 2.4-3.6c.6-1.4.9-3.3 1-5.6H453c0-.4.1-.8.1-1v-8.2c0-.2 0-.6-.1-1h13.6V20h-3v10c0 .6.2.9.6 1 .3.1.8.1 1.5.1.5 0 .9-.1 1.3-.2s.8-.3 1.1-.5c.3-.3.5-.8.6-1.4.1-.6.2-1.3.2-1.9-.1-.8 0-1.3 0-1.6zm-18.4-15c-.4-.5-.7-.9-1.1-1.3.5-.4 1.2-.9 2-1.7.8-.8 1.6-1.7 2.4-2.9.9-1.2 1.6-2.4 2.1-3.6l1.5.7-.2.2c-.2.4-.4.9-.8 1.5-.3.6-.8 1.3-1.3 2s-1 1.4-1.5 2c-.5.6-1 1.1-1.6 1.7-.4.5-.9 1-1.5 1.4zm4.4.8v7.2h9.9v-7.2h-9.9zm14.9-2.1-1.1 1.4c-.5-.7-1.1-1.5-1.9-2.5-.8-1-1.7-2.1-2.6-3.3-1-1.2-1.9-2.2-2.7-3l1.4-.7c1.1 1.1 2.2 2.5 3.5 4 1.3 1.4 2.4 2.8 3.4 4.1zM500.3 25.1l-1.3 1.3c-.4-.8-.9-1.7-1.6-2.7-.6-1-1.2-1.9-1.8-2.6-.3 1.8-.8 3.5-1.3 5-.6 1.6-1.2 2.8-1.8 3.8s-1.2 1.7-1.7 2.2l-.4-.4c-.2-.2-.5-.5-1-.9 1.6-1.6 2.8-4 3.8-7.2.9-3.2 1.4-6.8 1.4-11v-11l-.1-.9c.8 0 1.4 0 1.9.1 0 .3-.1.6-.1.9v9.6c.6-.8 1.2-1.6 1.8-2.6.6-1 1.1-1.9 1.4-2.6l1.3 1.2c-.1 0-.2.1-.3.3-.5.9-1.2 1.9-2 3.1s-1.5 2-2.2 2.8c0 2.1-.2 4-.4 5.6.5.6 1 1.3 1.7 2.1.6.8 1.2 1.6 1.6 2.3.5.7.8 1.2 1.1 1.6zm-8.9-8.7c-.2-.1-.7-.4-1.4-.7.3-.7.6-1.8.8-3.3s.3-3.1.3-5l1.5.2-.1.3c0 1.9-.2 3.6-.4 5.1-.1 1.5-.4 2.6-.7 3.4zm7.7 15.5c.5-.7 1.1-1.6 1.6-2.6.5-1.1 1-2 1.2-2.9.3-.9.5-1.5.6-2l1.5.6c0 .1-.1.3-.1.6l-.6 1.8c-.3.9-.7 1.9-1.2 3s-1 1.9-1.4 2.5l-1.6-1zm13.5-26.6-.3.1c-1 4-2.4 7.5-4.3 10.5s-4.2 5.3-6.8 6.9c-.2-.2-.6-.7-1.2-1.4 1-.7 2-1.4 3-2.2.9-.8 1.8-1.8 2.6-2.8-.8-.6-2-1.3-3.6-2.2l.7-1.1c1.5.7 2.8 1.4 3.8 2.1.3-.4.6-.9 1-1.6.4-.7.7-1.2.9-1.7-.2-.1-.6-.4-1.2-.7l-2.4-1.2.6-1.1c.5.2 1.1.4 1.7.7s1.2.6 1.8 1c.7-1.5 1.2-3.1 1.6-4.7h-4.9c-.5 1.1-1 2.1-1.6 3.2-.6 1-1.2 1.9-1.8 2.6-.6.7-1.1 1.3-1.5 1.7l-.1-.1s-.2-.2-.4-.5-.5-.5-.6-.7c.9-.9 1.7-1.9 2.5-3.1.8-1.2 1.5-2.4 2.1-3.9.6-1.4 1.2-2.9 1.6-4.6l1.7.3-.2.3c-.1.4-.3.9-.5 1.6-.2.7-.4 1.2-.6 1.6h4.6l.2-.2c.8.5 1.3.9 1.6 1.2zM507 25.1l1.5-.3c.4 2.2.7 4.7.9 7.3l-1.7.4c0-.6 0-1.4-.1-2.5s-.2-2.1-.3-3c-.1-.8-.2-1.5-.3-1.9zm15.7-1.8c-.7-.5-1.4-1.3-2.2-2.2-.8-1-1.6-2.1-2.3-3.5-.7-1.4-1.3-2.8-1.7-4.3-.5 2.1-1.4 4-2.7 5.7-1.2 1.7-2.7 3-4.5 4-.3-.5-.7-1-1.1-1.4 4.1-2.3 6.5-6 7.2-11.2h-3.5V8.8h3.7V1.7l-.1-.9c.7 0 1.3 0 1.8.1 0 .2-.1.5-.1.8V8.9h5.4v1.6H517.4c.3 2.3 1.1 4.5 2.2 6.5s2.5 3.6 4.2 4.9c-.5.5-.8 1-1.1 1.4zm-10.4 1.8 1.4-.4c.4.8.9 1.9 1.3 3.2.4 1.3.8 2.6 1.1 3.8l-1.7.5c-.2-1-.5-2.2-.9-3.6-.4-1.3-.8-2.5-1.2-3.5zm5.8-.1 1.4-.5c.5.7 1.1 1.7 1.6 2.8.6 1.1 1 2.1 1.3 2.8.3.7.5 1.2.6 1.5l-1.6.7c-.4-1.2-.9-2.5-1.5-3.9s-1.3-2.5-1.8-3.4zm4.4-18.1-1.2.9c-.9-1.9-1.9-3.4-2.9-4.8l1.1-.8c.5.6 1 1.3 1.5 2.1.6.9 1.1 1.8 1.5 2.6zM539.3 13.8v17.7l.1 1.4h-1.9l.1-1.4.2-15.9c-.6 1.8-1.2 3.5-2 5.3-.8 1.7-1.6 3.1-2.3 4.2-.7 1.1-1.4 1.9-1.9 2.5-.2-.4-.4-.7-.6-1-.2-.3-.3-.5-.4-.6 1.2-1.2 2.4-2.9 3.6-5.2 1.2-2.3 2.2-4.6 2.8-6.9h-6.2v-1.7h6.9V1.5l-.1-1c.7 0 1.4 0 1.9.1 0 .3-.1.7-.1.9v10.6h5.8v1.7h-5.9zm-3.8-4.1-1.5.4c-.2-.9-.5-1.9-.9-3.1-.4-1.2-.8-2.5-1.3-3.7l1.5-.4c.4 1.1.8 2.3 1.2 3.5.4 1.2.8 2.3 1 3.3zm5.3 6c1.7 2 3.1 3.8 4.1 5.3l-1.2 1c-.2-.4-.7-1.1-1.5-2.2-.7-1.1-1.6-2.2-2.6-3.3l1.2-.8zm4-12.4c-.2 1-.6 2.2-1.2 3.6-.5 1.4-1 2.6-1.5 3.6l-1.4-.7c.5-.9 1.1-2.2 1.7-3.8.6-1.6.9-2.8 1-3.7l1.6.7-.2.3zm16.5 19.5-1.8.2v8l.1 1.8h-2l.1-1.8v-7.8l-10.9 1.4-1.9.3-.1-1.8c.5 0 1.2-.1 1.9-.2l11-1.4V.5c.5 0 1.1 0 1.9.1v20.8l1.6-.2 1.9-.3.1 1.8c-.2 0-.6.1-1 .1h-.9zm-6.7-6.4-.9 1.5c-.9-.7-1.9-1.4-3-2.1-1.1-.7-2.1-1.3-3.1-1.8l.9-1.5c1 .6 2.1 1.2 3.2 1.9 1.1.8 2.1 1.5 2.9 2zm.7-8.5-1 1.5c-.9-.7-1.9-1.4-3-2.2-1.1-.7-2-1.3-2.8-1.7l.9-1.4c1.6.9 3.5 2.2 5.9 3.8zM578.5 12.9v18.6l.1 1.4h-1.9l.1-1.4v-.7c0-.4 0-2 .1-5s.1-6.6.2-10.9c-.7 2.3-1.5 4.6-2.5 6.7-1 2.1-2 3.8-2.9 4.9-.3-.5-.6-1.1-1-1.6 1-1.2 2.1-3 3.2-5.2 1.1-2.3 1.9-4.5 2.5-6.8h-5.1v-1.6h5.6V5c-.6.2-1.3.4-2.2.7-.9.3-1.7.5-2.5.6-.1-.2-.3-.7-.7-1.5 1.6-.3 3.3-.7 5.1-1.4 1.9-.7 3.4-1.3 4.7-2l1.1 1.4c-.1 0-.3.1-.7.2-.6.3-1.6.8-3.2 1.4v7h4.2V13h-4.2zm5.1 8.3-1.3.9c-.4-.9-.9-1.9-1.5-2.9s-1-1.8-1.4-2.3c-.3-.5-.6-.8-.7-.9l1.2-.8c.6.8 1.2 1.7 1.9 2.8.7 1.2 1.3 2.2 1.8 3.2zm18.2 4.3c.8.5 1.3.9 1.6 1 0 1.5-.2 2.6-.4 3.4-.2.8-.5 1.3-.9 1.7-.4.4-.8.6-1.4.8-.6.2-1.3.3-2.3.3-.4 0-.8 0-1.2-.1-.5 0-.8-.1-1.1-.2-.2-.1-.4-.2-.5-.3-.6-.4-.8-1.2-.8-2.3V20h-4.1c-.1 1.7-.3 3.2-.6 4.6-.3 1.4-.8 2.6-1.4 3.6s-1.4 2-2.4 2.8c-1 .8-2.2 1.4-3.6 1.9-.2-.4-.6-.9-1.1-1.5 1.7-.5 3.1-1.3 4.1-2.2s1.9-2.1 2.4-3.6c.6-1.4.9-3.3 1-5.6H586c0-.4.1-.8.1-1v-8.2c0-.2 0-.6-.1-1h13.6V20h-3v10c0 .6.2.9.6 1 .3.1.8.1 1.5.1.5 0 .9-.1 1.3-.2s.8-.3 1.1-.5c.3-.3.5-.8.6-1.4.1-.6.2-1.3.2-1.9-.1-.8-.1-1.3-.1-1.6zm-18.4-15c-.4-.5-.7-.9-1.1-1.3.5-.4 1.2-.9 2-1.7.8-.8 1.6-1.7 2.4-2.9.9-1.2 1.6-2.4 2.1-3.6l1.5.7-.2.2c-.2.4-.4.9-.8 1.5-.3.6-.8 1.3-1.3 2s-1 1.4-1.5 2c-.5.6-1 1.1-1.6 1.7-.3.5-.9 1-1.5 1.4zm4.4.8v7.2h9.9v-7.2h-9.9zm14.9-2.1-1.1 1.4c-.5-.7-1.1-1.5-1.9-2.5-.8-1-1.7-2.1-2.6-3.3-1-1.2-1.9-2.2-2.7-3l1.4-.7c1.1 1.1 2.2 2.5 3.5 4 1.3 1.4 2.4 2.8 3.4 4.1z"/>
    <path class="st1" d="M53.4 277.8H867v38.9H53.4z"/>
    <path class="st0" d="m89.6 338.6-.8 1.3c-.7-.6-1.5-1.1-2.5-1.7-.9-.6-1.8-1.1-2.5-1.4l.8-1.2c.7.4 1.6.9 2.6 1.5.9.5 1.7 1 2.4 1.5zm-4.8 12.7c.7-.9 1.6-2.2 2.7-3.9 1.1-1.7 1.8-3.1 2.3-4l.9 1.4c-.4.7-.9 1.6-1.5 2.7-.7 1.1-1.3 2.1-1.9 3-.6.9-1 1.5-1.4 2-.1.2-.3.5-.6 1l-1.3-1.2.8-1zm6.4-19.3c-.3.4-.6.8-.8 1.3-.7-.6-1.5-1.2-2.4-1.9-.9-.6-1.8-1.2-2.5-1.5l.7-1.2c2.1 1.2 3.8 2.3 5 3.3zm4 0c-.5 1.1-1.2 2.1-1.9 3-.7.9-1.4 1.7-2.1 2.4-.2-.2-.5-.6-1.1-1.1.8-.6 1.5-1.5 2.3-2.6.8-1.1 1.4-2.1 1.9-3.2s.8-2 1-2.7l1.4.3-.1.2c-.2.8-.5 1.6-.9 2.4h12.4v1.3H95.2zm13.5 13.8c.6.4 1 .7 1.3.8 0 2.2-.2 3.9-.6 5.1-.4 1.1-1 1.7-1.9 1.7-.9 0-1.5-.3-2.1-1-.5-.7-.9-1.7-1.2-3.1-.3-1.4-.4-3.2-.4-5.5 0-.7 0-1.6.1-2.7H91.7v-1.4h13.8c-.1.9-.1 2.3-.1 4.2 0 2.6.2 4.6.6 5.9.4 1.4.9 2.1 1.6 2.1.4 0 .6-.5.8-1.5.2-1 .3-2.5.3-4.6zm-14.2-10.6c.6 0 1.1.1 1.3.1h8.9c.3 0 .7 0 1.4-.1v1.3H94.4v-1.3zM120.9 339.1l-.8 1.2c-.3-.2-.8-.6-1.7-1.2-.9-.6-1.9-1.2-3.1-1.9l.7-1.2c.7.4 1.6.9 2.5 1.5.9.5 1.7 1.1 2.4 1.6zm-4.7 12.4c.5-.7 1.2-1.7 2-2.9s1.4-2.3 1.9-3.3c.5-.9.9-1.7 1.1-2.1l.9 1.3c-.5 1-1.2 2.3-2.2 3.9-1 1.7-1.8 3-2.5 3.9l-.6 1-1.3-1.2.7-.6zm5.8-19.4-.8 1.2c-.7-.6-1.5-1.2-2.4-1.8-.9-.6-1.7-1.1-2.4-1.5l.8-1.2c.7.4 1.5 1 2.4 1.6.9.5 1.7 1.1 2.4 1.7zm17.3 3.1v17.3l.1 1.2h-1.5V352h-12.2v1.7h-1.5l.1-1.2v-17.3l-.1-1.2h6.7v-5.4l-.1-.8c.6 0 1.1 0 1.5.1 0 .2-.1.5-.1.7v5.4h7.1v1.2zm-8.4.1h-5.2v6.8h5.2v-6.8zm-5.3 15.5h5.2v-7.3h-5.2v7.3zm12.3-15.5h-5.6v6.8h5.6v-6.8zm-5.7 15.5h5.6v-7.3h-5.6v7.3zM169.7 348.3h2.2v1.4c-.4 0-1.2-.1-2.2-.1H160v4.2h-1.5v-4.2H149c-1 0-1.7 0-2.2.1v-1.4h11.7v-3h-8.1c0-.4.1-.6.1-.8v-8.2c0-.2 0-.5-.1-.8h8.1v-3.2h-8.8c-.9 0-1.6 0-2 .1V331h10.8v-2.3l-.1-.8c.6 0 1.1 0 1.6.1 0 .2-.1.5-.1.7v2.3H171v1.4c-.4 0-1.1-.1-2-.1h-9v3.2h8.2v9.8H160v3h9.7zm-11.1-11.7H152v3.1h6.5v-3.1zm-6.6 4.2v3.2h6.5v-3.2H152zm14.8-1.1v-3.1H160v3.1h6.8zm-6.8 4.4h6.8v-3.2H160v3.2zM95.8 381.5h-10v5h-1.5c0-.3.1-.5.1-.7v-4.6c0-.2 0-.4-.1-.7h11.5v-2.3h-8.3c-.9 0-1.5 0-2 .1V377h21.9v1.3c-.4 0-1.1-.1-1.9-.1h-8.4v2.3h11.5v6h-1.5v-5h-9.9V388.1h-1.5c0-.2.1-.5.1-.9v-5.7zm12.4 14.7c.1.1.3.2.6.4.2.2.5.3.7.4-.1 1.3-.3 2.2-.8 2.9-.5.6-1.2 1.1-2.2 1.4-1 .3-2.4.4-4.1.4-1.7 0-3 0-3.8-.1-.8-.1-1.4-.2-1.7-.4-.4-.2-.6-.5-.8-.8-.2-.4-.3-.8-.3-1.4v-1.1h-7.2v2h-1.4l.1-.8v-8.7l-.1-.9H106v8.3h-8.9v1c0 .7.3 1.1.9 1.3.7.1 2.1.2 4.4.2 1.9 0 3.4-.3 4.3-.8.4-.3.8-.7 1-1.2.3-.4.4-1.1.5-2.1zm-14.6-12.8v1H88v-1H93.6zm-4.6 3H93.6v1H88v-1h1zm6.8 4.2h-7.2v2.5h7.2v-2.5zm-7.2 6.2h7.2v-2.6h-7.2v2.6zm16.1-3.7v-2.5h-7.5v2.5h7.5zm-7.5 3.7h7.5v-2.6h-7.5v2.6zm7.7-13.4v1h-5.6v-1h5.6zm-4.6 3h4.6v1h-5.6v-1h1zM128.9 398.1c0 .6-.1 1-.1 1.3-.7.1-2.7.3-5.8.7s-5.5.6-7 .7l-1.1.1-.2-1.5h1.2c1.2-.1 3-.2 5.5-.4v-3.2h-5.9v-1.2h5.9v-2.4H116c0-.4.1-.6.1-.8v-6.3c0-.2 0-.5-.1-.8h5.4v-2.2H115v-1.2h6.4v-2.5c-1.5.1-3.4.1-5.8.1-.1-.3-.3-.6-.6-1.2 1.6 0 3.3 0 5-.1 1.8-.1 3.3-.2 4.6-.4 1.3-.2 2.4-.3 3.2-.5l.9 1.1c-.2 0-.4.1-.5.1-.7.1-1.5.2-2.6.4-1.1.1-2.1.2-3 .3v2.6h6.4v1.2h-6.4v2.2h5.4V392.1h-5.4v2.4H128.4v1.2H122.6v3c3.6-.3 5.6-.5 6.3-.6zm-7.4-12.7h-4.1v2.2h4.1v-2.2zm-4.1 3.3v2.4h4.1v-2.4h-4.1zm9.5-1.1v-2.2h-4.1v2.2h4.1zm-4.1 3.5h4.1v-2.4h-4.1v2.4zm17.7-8.1v5.3c0 1.5 0 2.9-.1 4.3s-.1 2.6-.2 3.7-.3 2.1-.5 2.8c-.3.9-.8 1.6-1.6 1.9-.8.4-1.8.6-3 .6 0-.1-.1-.3-.3-.8-.2-.5-.3-.7-.4-.9.2.1.4.1.6.1s.5.1.7.1c.7 0 1.3-.1 1.7-.4.5-.2.8-.7 1-1.4.2-.5.3-1.2.4-2.1.1-.9.1-2.3.2-4.2.1-1.9.1-4.5.1-7.8h-4.4c-.3 4.8-.8 8.6-1.7 11.4s-2.1 4.8-3.8 6.2c-.2-.2-.6-.5-1.3-.9.6-.4 1.2-1 1.7-1.6.5-.6 1-1.4 1.3-2.2s.7-1.8 1-2.9c.3-1.1.6-2.3.8-3.7.2-1.4.4-2.6.4-3.8s.1-2 .2-2.4H129V383h4.3c.1-1.6.1-3.6.1-6v-.9l1.5.1c0 .1-.1.3-.1.5 0 1.7 0 3.8-.1 6.3h5.8zM169.7 396.4h2.2v1.4c-.4 0-1.2-.1-2.2-.1H160v4.2h-1.5v-4.2H149c-1 0-1.7 0-2.2.1v-1.4h11.7v-3h-8.1c0-.4.1-.6.1-.8v-8.2c0-.2 0-.5-.1-.8h8.1v-3.2h-8.8c-.9 0-1.6 0-2 .1v-1.4h10.8v-2.3l-.1-.8c.6 0 1.1 0 1.6.1 0 .2-.1.5-.1.7v2.3H171v1.4c-.4 0-1.1-.1-2-.1h-9v3.2h8.2v9.8H160v3h9.7zm-11.1-11.7H152v3.1h6.5v-3.1zm-6.6 4.2v3.2h6.5v-3.2H152zm14.8-1.1v-3.1H160v3.1h6.8zm-6.8 4.4h6.8V389H160v3.2zM495.4 292.7v16.5l.1 1.1H494l.1-1.1v-.9c0-.4 0-1.9.1-4.3 0-2.5.1-5.6.2-9.3-.5.9-1 1.8-1.6 2.7-.6.9-1.2 1.6-1.7 2.2-.2-.4-.4-.8-.7-1.3 1.2-1.4 2.4-3.2 3.6-5.4 1.2-2.2 2-4.3 2.5-6.2l1.3.5-.1.2c-.3.9-.6 1.8-1 2.8-.5.8-.9 1.7-1.3 2.5zm11.9 7.5c.4.7 1 1.5 1.7 2.3.8.9 1.7 1.7 2.7 2.6 1.1.8 2.1 1.5 3.2 2l-.7 1.2c-.5-.2-1.1-.6-1.7-1-.6-.4-1.3-.9-2.1-1.6-.8-.7-1.5-1.4-2.1-2.2-.7-.8-1.2-1.6-1.6-2.3l.1 8.3c0 .4 0 .7.1.9h-1.4v-.9l.1-8.3c-.3.5-.8 1.1-1.2 1.8-.5.6-1.1 1.3-1.7 1.9-.6.6-1.4 1.3-2.2 1.9-.8.6-1.6 1.1-2.5 1.6l-.7-1.1c1.1-.5 2.2-1.2 3.3-2.1 1.1-.8 2-1.7 2.7-2.5.7-.8 1.3-1.6 1.7-2.3h-7V299H505.7v-3.4h-5.4c0-.3.1-.6.1-.7V289c0-.2 0-.4-.1-.7h12.1V295.6H507v3.4h7.6v1.3H507.3zm-5.8-10.8v5h9.4v-5h-9.4zM536 296.1c.3.4.8.9 1.5 1.4.7.5 1.5 1 2.6 1.5 1 .5 2.1.9 3.2 1.1l-.6 1.2c-.6-.2-1.2-.4-1.9-.7-.7-.3-1.5-.7-2.3-1.2-.8-.5-1.5-1.1-2.2-1.7-.6-.6-1.1-1.2-1.5-1.7h-7c-.4.5-1 1.1-1.7 1.8s-1.7 1.4-2.8 2c-1.1.7-2.2 1.2-3.3 1.6-.1-.2-.3-.6-.7-1.1.6-.2 1.3-.5 2.2-.9s1.8-.9 2.7-1.6c.9-.6 1.7-1.3 2.3-1.9h-4.8c-.9 0-1.5 0-1.9.1v-1.1c.4 0 1.1.1 1.9.1h8.8v-2H524c-.7 0-1.3 0-1.6.1v-1h8.2v-2H523c-.8 0-1.4 0-1.8.1v-1.1h6.5c-.4-.8-.8-1.5-1.2-1.9l1.2-.4c.4.6.9 1.4 1.4 2.3h4.4c.1-.2.3-.4.6-.8.2-.4.4-.7.6-1 .1-.3.2-.5.3-.6l1.3.4-.2.2-1.1 1.7h6.5v1.1c-.4 0-1-.1-1.8-.1h-7.9v2h8.6v1c-.4 0-.9-.1-1.6-.1h-7v2h9c.9 0 1.5 0 1.9-.1v1.1c-.4 0-1-.1-1.9-.1H536zm-9.4 8.9v3.8l5.5-1.1-.1 1.1-5.7 1-.9.2-.5-1.1c.3-.1.5-.4.5-.9v-9.1h11.8v5.9h-10.6zm9.3-5h-9.3v1.6h9.3V300zm-9.3 4.1h9.3v-1.6h-9.3v1.6zm7.9-6.1H528.1v-.9H534.5v.9zm6.1 7.2c-1.1.8-2.4 1.5-3.8 2.2 2.4.8 4.2 1.4 5.1 1.8l-.7 1c-4.7-1.8-8.4-3-11.3-3.8l.8-.8c1.2.3 2.8.8 4.8 1.4.7-.3 1.5-.8 2.3-1.3.9-.5 1.5-1 2-1.4l1 .8-.2.1zM557 300.4l-.1 1.4s-.1 0-.2.1-1.1.4-3 1.2c-1.9.7-3.4 1.3-4.4 1.6l-1 .4-.3-1.4 1-.3c.4-.1 1.3-.4 2.6-.9v-11.1H548.3v-1.3h8.1v1.3h-3.5V302c2.1-.7 3.4-1.2 4.1-1.6zm-2.1 8.7c1.2-.4 2.4-.8 3.6-1.5 1.2-.6 2.2-1.2 2.7-1.8l1.1.7c-.7.6-1.6 1.2-2.9 1.9-1.2.7-2.5 1.2-3.7 1.7 0-.1-.1-.1-.2-.2 0-.1-.2-.4-.6-.8zm8.7-19.6h-5.3c-.7 0-1.1 0-1.5.1v-1.2c.3 0 .8.1 1.5.1h11.9c.7 0 1.2 0 1.5-.1v1.2c-.3 0-.8-.1-1.5-.1h-5.4c-.4 1.1-.7 2.1-1.1 3h6.1V305h-11.1c0-.4.1-.7.1-.9v-10.7l-.1-.9h3.7c.1-.2.2-.5.4-1.1.4-.6.6-1.2.8-1.9zm5.1 6.8v-2.7h-8.5v2.7h8.5zm-8.6 1v2.6h8.5v-2.6h-8.5zm0 6.6h8.5v-3h-8.5v3zm6.3 2c.9.4 1.9.8 3 1.4 1.1.6 2.1 1.2 3 1.7l-.9 1.1c-.9-.7-1.9-1.3-2.9-1.8-1-.6-2-1.1-3.1-1.6l.9-.8zM596.7 289.6V309l.1 1.2h-1.4v-2h-13.9v2h-1.4l.1-1.2v-19.4l-.1-1.2h16.6v1.2zm-1.3 0h-13.9v4.9h13.9v-4.9zm0 6.1h-13.9v4.9h13.9v-4.9zm-13.9 11.2h13.9v-5.2h-13.9v5.2zM551.8 333.5c-1.2 1.8-2.8 3.5-4.7 5.1-1.9 1.5-3.9 2.8-5.9 3.8-2.1 1-4.1 1.7-6.1 2.3-.2-.3-.5-.7-.9-1.1 1.7-.4 3.5-1 5.2-1.7s3.3-1.6 4.8-2.6c-.5-.4-1.2-.9-1.9-1.4-.8-.5-1.4-.9-2-1.2 0-.1.1-.1.2-.2l.6-.6c.6.3 1.3.7 2.1 1.3.8.5 1.5 1 2.1 1.4.4-.3.9-.7 1.6-1.3.7-.6 1.4-1.2 1.9-1.8.5-.6.9-1.1 1.2-1.5h-7.3c-.5.4-1.1.9-1.8 1.5-.7.5-1.5 1.1-2.5 1.6-.9.5-1.8 1-2.7 1.4-.3-.4-.6-.7-1-1 1.4-.6 2.7-1.3 4.1-2.2 1.4-.9 2.4-1.7 3.2-2.4.8-.7 1.3-1.3 1.7-1.8.4-.5.7-.9.9-1.2l1.5.3-.2.2c-.6.8-1.3 1.6-2.1 2.5h6.8l.2-.2c.4.2.8.5 1.2.9l-.2-.1zm4.9 8.4-.2.1c-1 2-2.5 3.8-4.3 5.4-1.8 1.6-4 3-6.5 4s-5.1 1.9-8 2.4l-.8-1.1c2.3-.4 4.5-1 6.6-1.8 2.1-.8 3.9-1.7 5.6-2.8-.6-.4-1.3-.9-2.1-1.4-.8-.5-1.5-.9-2.1-1.2l.8-.7c.6.3 1.4.7 2.2 1.2.9.5 1.6 1 2.2 1.4 2-1.5 3.6-3.2 4.7-5h-6.7c-1.4 1.2-2.9 2.2-4.5 3.1-1.6.9-3.3 1.6-4.9 2.1-.1-.3-.4-.6-.7-1.1 1.5-.4 3.1-1 4.6-1.8 1.5-.8 2.9-1.7 4.1-2.7 1.2-1 2.2-2 3-3l1.3.4-.2.2c-.5.7-1.1 1.3-1.6 1.8h5.9l.2-.2c.4-.1.8.2 1.4.7zM540.3 382.5c-.5 1.8-1.3 3.6-2.3 5.3s-2 3-2.9 3.8c-.5-.5-.8-.8-1-1.1.7-.6 1.5-1.4 2.2-2.6.8-1.1 1.4-2.2 1.8-3.3.5-1.1.8-2.1 1-2.9l1.3.5-.1.3zm-5 17.8c2.1-.2 4-.7 5.7-1.2s3.2-1.3 4.5-2.2c1.3-.9 2.5-2 3.5-3.3s1.9-2.7 2.6-4.3l1.2.8-.1.2c-.7 1.5-1.6 2.8-2.5 4.1-.9 1.2-2 2.4-3.4 3.4s-2.9 1.9-4.7 2.5c-1.8.7-3.8 1.1-5.9 1.4-.2-.3-.5-.7-.9-1.4zm10.9-8.8c0 .5-.1.9-.4 1.1-.2.3-.7.5-1.3.7-.6.2-1.7.2-3 .2-.2-.5-.5-1-.8-1.6.8.1 1.5.1 2.1.1.6 0 1.1-.1 1.5-.2.4-.1.6-.4.6-.7V379l-.1-.8c.4 0 .9 0 1.5.1 0 .2-.1.5-.1.7v12.5zm5.4-9.8c.8 1 1.8 2.3 2.9 3.9 1.2 1.6 2.1 3.1 2.9 4.4l-1 1c-.7-1.3-1.7-2.7-2.8-4.3-1.1-1.6-2.2-3.1-3.1-4.4l1.1-.6zM672.8 300.7h-9.4c-.1.5-.5 1.2-.9 2.2h10.4v5.8c0 .3-.1.5-.2.8s-.4.4-.7.6c-.3.1-.7.2-1.2.3-.4 0-.9.1-1.4.1l-.6-1.4c.6.1 1 .1 1.4.1.4 0 .7 0 1-.1.2-.1.4-.3.4-.5V304h-4.5v5.5c0 .3 0 .6.1.7h-1.4c0-.1.1-.4.1-.7V304h-4.3v6.2h-1.3V304h-4.4v6.3h-1.3v-7.4h6.6l.7-1.4c.2-.4.3-.6.3-.8h-9.6v-1.1H674.8v1.1h-2zm-19.8-4c0-.3.1-.5.1-.7v-4.3c0-.2 0-.4-.1-.7h9.9v-2H654.1v-1.2c.4 0 .9.1 1.7.1h15.6c.8 0 1.3 0 1.7-.1v1.2h-8.9v2.1h10v5.7h-1.3v-4.6h-8.7v6.2h-1.3v-6.2h-8.6v4.6H653zm8-2.7v.9h-4.9v-.9h4.9zm-4 2.7h4v.9h-4.9v-.9h.9zm13.9-2.7v.9H666v-.9h4.9zm-4 2.7h4v.9H666v-.9h.9zM696.2 308.2c3.1 0 5.7-.1 7.8-.4 0 .1-.1.2-.1.5-.1.2-.1.4-.1.6 0 .1 0 .2-.1.3-.7.1-1.6.2-2.7.3-1.1.1-2.7.1-4.8.1-1.2 0-2.2-.1-3.3-.3-1-.2-2-.5-2.9-1s-1.7-1-2.4-1.8-1.3-1.6-1.7-2.6c-.5 1.3-1 2.5-1.7 3.6s-1.4 2-2.2 2.8c-.2-.1-.6-.4-1.2-.8 1.2-1.1 2.3-2.6 3.2-4.5s1.5-3.9 1.8-6l1.3.3-.1.2c0 .2-.1.5-.2 1s-.2 1.1-.4 1.7c.2.7.5 1.4.8 2 .4.6.8 1.2 1.4 1.6.5.5 1 .8 1.5 1.1s1 .5 1.4.6v-11.3h-7.1V295H700.2v1.3h-7.4v4.7h7v1.2h-7v5.8c1.1.1 2.2.2 3.4.2zm-14.3-13.3c0-.2.1-.5.1-.7v-3.8c0-.2 0-.4-.1-.7H692c-.1-.2-.3-.5-.6-1s-.6-1-1-1.6l1.2-.5c.5.7 1.1 1.8 1.9 3.1h8.9v5.2H701V291h-17.8v3.9h-1.3zM708.4 309.5c.2-.1.5-.3.8-.6.3-.3.7-.6 1.1-1s.9-.9 1.3-1.4.8-1 1-1.5l1.1.6c-.4.7-1 1.5-1.8 2.4-.8.9-1.6 1.7-2.5 2.4-.2-.3-.6-.6-1-.9zm11.3-5.5h-11v-1.1h2.8v-11.5H709.1v-1.1H711.5v-2.7c0-.2 0-.5-.1-.8.6 0 1.1 0 1.4.1 0 .2-.1.5-.1.7v2.7h4.9v-2.7c0-.2 0-.5-.1-.8.6 0 1.1 0 1.4.1 0 .2-.1.5-.1.7v2.7h2.3v1.1h-2.3v11.5h2.1v1.1h-1.2zm-2-12.6h-4.9v3h4.9v-3zm-4.9 4v3h4.9v-3h-4.9zm0 4.1v3.4h4.9v-3.4h-4.9zm4.3 5.4c.9.8 1.8 1.8 2.7 2.9-.1.1-.2.3-.4.4-.2.2-.4.3-.5.4-.9-1.2-1.8-2.2-2.7-3.1l.9-.6zm14.2-16V307l.1 1.5c0 .3-.1.5-.2.7-.1.2-.3.4-.5.5-.2.1-.6.3-1.1.4-.5.1-1.2.1-2.2.1-.1-.2-.2-.4-.3-.7s-.3-.5-.4-.7c.6.1 1.2.2 1.7.1.5 0 .9 0 1.2-.1.3-.1.5-.3.5-.6v-6.7h-6c-.1.9-.3 2-.6 3.1s-.6 2.2-1.1 3.3c-.5 1-1 1.9-1.6 2.5l-1-.9c1.1-1.2 1.9-2.8 2.4-4.9.5-2.1.8-4.5.8-7.2v-9.6h8.3v1.1zm-7.1 11.5h5.9v-5.3h-5.8v2.4c0 .9 0 1.9-.1 2.9zm.1-11.5v5.1h5.8v-5.1h-5.8zM747.6 305.7c1.9 1.1 4 1.9 6.4 2.5 2.4.5 4.9.8 7.4.7 0 .1-.1.5-.4 1.2-1 0-2.1 0-3.2-.1-1.2-.1-2.3-.2-3.4-.5-1.1-.2-2.1-.5-2.9-.8-.9-.3-1.7-.6-2.5-1s-1.6-.8-2.3-1.2c-.7.6-1.6 1.2-2.6 1.7s-2 .9-3 1.2c-1 .3-1.9.5-2.7.7 0 0 0-.1-.1-.2s-.2-.2-.3-.5c-.2-.3-.3-.4-.3-.5 1.6-.3 3-.7 4.4-1.2 1.3-.5 2.5-1.2 3.4-1.9-1.2-.8-2.3-1.8-3.2-2.8l1-.7c.9 1 1.9 1.9 3.1 2.7 1.1-1 1.8-2.2 2.1-3.6H741c0-.3.1-.6.1-.8v-7.4c0-.2 0-.5-.1-.8h7.7v-3.2h-8.8c-.9 0-1.6 0-2 .1V288c.4 0 1.1.1 2 .1h19c.9 0 1.6 0 2-.1v1.3c-.4 0-1.1-.1-2-.1H750v3.2h7.9V301.4h-8c-.1.6-.3 1.1-.5 1.7-.2.6-.5 1.1-.8 1.5s-.7.8-1 1.1zm1.1-12.2h-6.3v2.8h6.3v-2.8zm-6.3 6.8h6.3V297.4h-6.3v2.9zm14.2-6.8H750v2.8h6.6v-2.8zm-6.6 6.8h6.6v-3H750v3zM770.7 300v8c0 .6-.3 1.1-.8 1.4-.5.3-1.5.4-2.8.4l-.7-1.5c.6.1 1.2.1 1.5.1.4 0 .8 0 1.1-.1.3-.1.4-.3.4-.6v-7.2c-.9.4-1.7.6-2.3.8l-.9.4-.3-1.4.9-.3c1.3-.5 2.2-.8 2.5-.9v-5.8H766v-1.2h3.3v-4.5l-.1-.8c.6 0 1.1 0 1.4.1 0 .2-.1.5-.1.8v4.5h2.3v1.2h-2.3v5.4c1.6-.7 2.5-1 2.7-1.1v1.3c-.3.2-1.2.5-2.5 1zm11.5 3.6c.3.6.6 1.2 1.1 1.8s1 1.1 1.7 1.6c.6.5 1.4.9 2.2 1.3.8.4 1.7.6 2.6.8l-.6 1.2c-.7-.2-1.5-.4-2.3-.7-.8-.3-1.6-.8-2.4-1.3-.8-.5-1.5-1.2-2-1.9s-1-1.4-1.3-2.1c-.7 1.6-1.7 2.8-3.1 3.8-1.4 1-3.1 1.6-5.3 2.1l-.6-1.2c1-.2 2-.4 2.8-.7s1.6-.7 2.3-1.1c.7-.4 1.2-1 1.7-1.6.5-.6.9-1.3 1.2-2h-7.1v-1.2c.3 0 .9.1 1.6.1h5.9c.2-.7.3-1.5.4-2.3l1.3.2-.1.3c-.1.7-.2 1.3-.3 1.9h6.3c.7 0 1.2 0 1.6-.1v1.2h-7.6zm-6.8-9.8c-.5.5-.9.8-1.2 1.1-.1-.1-.2-.3-.5-.5-.2-.3-.3-.4-.4-.5.7-.4 1.4-1.1 2.2-2.1.8-.9 1.5-1.9 2.1-2.8.6-.9 1-1.7 1.3-2.3l1.3.3-.2.2c-.3.5-.6 1.1-.9 1.7h4.2l.2-.2c.2.1.6.4 1.1.8l-.2.1c-.3.5-.6 1.1-1.1 1.8-.4.7-.8 1.2-1.2 1.6h5.4v8.5h-1.2V294h-9.9v7.5h-1.2V293.8zm7.6-3.9h-4.4c-.7 1.1-1.5 2.1-2.4 3.1h4.6c.2-.3.6-.7 1-1.2s.8-1.2 1.2-1.9zm-.4 4.9-.1.2c-.1.5-.3 1-.5 1.5.5.4 1.1 1 1.8 1.6l1.8 1.8-.8 1c-.4-.5-.9-1.1-1.6-1.7-.6-.7-1.2-1.2-1.7-1.6-.4.6-.8 1.2-1.4 1.8-.6.6-1.2 1.2-1.8 1.7l-.9-.9c1-.6 1.9-1.4 2.6-2.3.7-1 1.2-2 1.5-3.1h1.1zM803.5 300.4l-.1 1.4s-.1 0-.2.1-1.1.4-3 1.2c-1.9.7-3.4 1.3-4.4 1.6l-1 .4-.3-1.4 1-.3c.4-.1 1.3-.4 2.6-.9v-11.1H794.8v-1.3h8.1v1.3h-3.5V302c2-.7 3.4-1.2 4.1-1.6zm-2.2 8.7c1.2-.4 2.4-.8 3.6-1.5 1.2-.6 2.2-1.2 2.7-1.8l1.1.7c-.7.6-1.6 1.2-2.9 1.9-1.2.7-2.5 1.2-3.7 1.7 0-.1-.1-.1-.2-.2.1-.1-.1-.4-.6-.8zm8.7-19.6h-5.3c-.7 0-1.1 0-1.5.1v-1.2c.3 0 .8.1 1.5.1h11.9c.7 0 1.2 0 1.5-.1v1.2c-.3 0-.8-.1-1.5-.1h-5.4c-.4 1.1-.7 2.1-1.1 3h6.1V305h-11.1c0-.4.1-.7.1-.9v-10.7l-.1-.9h3.7c.1-.2.2-.5.4-1.1.4-.6.6-1.2.8-1.9zm5.1 6.8v-2.7h-8.5v2.7h8.5zm-8.5 1v2.6h8.5v-2.6h-8.5zm0 6.6h8.5v-3h-8.5v3zm6.3 2c.9.4 1.9.8 3 1.4 1.1.6 2.1 1.2 3 1.7l-.9 1.1c-.9-.7-1.9-1.3-2.9-1.8-1-.6-2-1.1-3.1-1.6l.9-.8zM843.2 289.6V309l.1 1.2h-1.4v-2H828v2h-1.4l.1-1.2v-19.4l-.1-1.2h16.6v1.2zm-1.4 0H828v4.9h13.9v-4.9zm0 6.1H828v4.9h13.9v-4.9zM828 306.9h13.9v-5.2H828v5.2zM742.3 331.4v18.1H741v-18.1h1.3zM757.5 331.4v18.1h-1.3v-18.1h1.3zM752.9 376.7v1.3h-6.4v5.7c.5-.1 1-.1 1.5-.1 1.8 0 3.3.5 4.4 1.5 1.1 1 1.6 2.4 1.6 4.1 0 1.7-.6 3.1-1.7 4.2s-2.5 1.7-4.2 1.7c-1.4 0-2.9-.4-4.4-1.2v-1.5c1.7 1 3.2 1.5 4.4 1.5 1.3 0 2.4-.4 3.2-1.3.8-.8 1.3-1.9 1.3-3.2 0-1.4-.4-2.5-1.3-3.3-.9-.8-2.1-1.2-3.6-1.2-.8 0-1.6.1-2.5.4v-8.5h7.7z"/>
    <path class="st2" d="M53.6 277.9h813.8v135.4H53.6zM203.9 277.7v134.9M464.1 277.8v134.8M623 277.8v134.8M53.3 316.1h813.5M53.3 364.6h813.5"/>
    <path class="st0" d="M279.7 292.7v16.5l.1 1.1h-1.5l.1-1.1v-.9c0-.4 0-1.9.1-4.3 0-2.5.1-5.6.2-9.3-.5.9-1 1.8-1.6 2.7-.6.9-1.2 1.6-1.7 2.2-.2-.4-.4-.8-.7-1.3 1.2-1.4 2.4-3.2 3.6-5.4 1.2-2.2 2-4.3 2.5-6.2l1.3.5-.1.2c-.3.9-.6 1.8-1 2.8-.5.8-.9 1.7-1.3 2.5zm12 7.5c.4.7 1 1.5 1.7 2.3.8.9 1.7 1.7 2.7 2.6 1.1.8 2.1 1.5 3.2 2l-.7 1.2c-.5-.2-1.1-.6-1.7-1-.6-.4-1.3-.9-2.1-1.6-.8-.7-1.5-1.4-2.1-2.2-.7-.8-1.2-1.6-1.6-2.3l.1 8.3c0 .4 0 .7.1.9h-1.4v-.9l.1-8.3c-.3.5-.8 1.1-1.2 1.8-.5.6-1.1 1.3-1.7 1.9-.6.6-1.4 1.3-2.2 1.9-.8.6-1.6 1.1-2.5 1.6l-.7-1.1c1.1-.5 2.2-1.2 3.3-2.1 1.1-.8 2-1.7 2.7-2.5.7-.8 1.3-1.6 1.7-2.3h-7V299H290.1v-3.4h-5.4c0-.3.1-.6.1-.7V289c0-.2 0-.4-.1-.7h12.1V295.6h-5.4v3.4h7.6v1.3H291.7zm-5.9-10.8v5h9.4v-5h-9.4zM320.3 296.1c.3.4.8.9 1.5 1.4.7.5 1.5 1 2.6 1.5 1 .5 2.1.9 3.2 1.1l-.6 1.2c-.6-.2-1.2-.4-1.9-.7-.7-.3-1.5-.7-2.3-1.2-.8-.5-1.5-1.1-2.2-1.7-.6-.6-1.1-1.2-1.5-1.7h-7c-.4.5-1 1.1-1.7 1.8s-1.7 1.4-2.8 2c-1.1.7-2.2 1.2-3.3 1.6-.1-.2-.3-.6-.7-1.1.6-.2 1.3-.5 2.2-.9s1.8-.9 2.7-1.6c.9-.6 1.7-1.3 2.3-1.9H306c-.9 0-1.5 0-1.9.1v-1.1c.4 0 1.1.1 1.9.1h8.8v-2h-6.6c-.7 0-1.3 0-1.6.1v-1h8.2v-2h-7.5c-.8 0-1.4 0-1.8.1v-1.1h6.5c-.4-.8-.8-1.5-1.2-1.9l1.2-.4c.4.6.9 1.4 1.4 2.3h4.4c.1-.2.3-.4.6-.8.2-.4.4-.7.6-1 .1-.3.2-.5.3-.6l1.3.4-.2.2-1.1 1.7h6.5v1.1c-.4 0-1-.1-1.8-.1h-7.9v2h8.6v1c-.4 0-.9-.1-1.6-.1h-7v2h9c.9 0 1.5 0 1.9-.1v1.1c-.4 0-1-.1-1.9-.1h-4.8zm-9.4 8.9v3.8l5.5-1.1-.1 1.1-5.7 1-.9.2-.5-1.1c.3-.1.5-.4.5-.9v-9.1h11.8v5.9h-10.6zm9.3-5h-9.3v1.6h9.3V300zm-9.3 4.1h9.3v-1.6h-9.3v1.6zm7.9-6.1H312.4v-.9H318.8v.9zm6.2 7.2c-1.1.8-2.4 1.5-3.8 2.2 2.4.8 4.2 1.4 5.1 1.8l-.7 1c-4.7-1.8-8.4-3-11.3-3.8l.8-.8c1.2.3 2.8.8 4.8 1.4.7-.3 1.5-.8 2.3-1.3.9-.5 1.5-1 2-1.4l1 .8-.2.1zM346.3 308.6c1.5 0 3.2-.1 5.1-.2s3.4-.3 4.5-.5c0 0-.1.2-.2.6-.1.4-.2.6-.2.8-1 .1-2.4.3-4.3.4-1.9.1-3.5.1-5 .1-1.2 0-2.3-.1-3.4-.3s-2-.4-2.8-.8c-.8-.4-1.5-.8-2.1-1.3-.6-.5-1-1.1-1.3-1.8-.8 1.7-2 3.2-3.5 4.3-.4-.4-.7-.8-.9-1 .8-.5 1.5-1.2 2.1-1.9s1.1-1.6 1.5-2.6c.4-1 .7-2.1.9-3.4H334c-.2 0-.4 0-.6.1l-.2-1.1c.1-.1.2-.1.4-.3s.3-.2.3-.3c.4-.5.9-1.2 1.4-2s.9-1.6 1.2-2.3H332.4v-1.2H337l.1-.2 1.1.9-.2.1c-.4.8-.9 1.7-1.5 2.7-.6.9-1.1 1.7-1.6 2.4h2.3l.1-.2 1 .8-.2.1c-.2 1.3-.5 2.5-.9 3.6.2.9.7 1.7 1.5 2.3.8.7 1.8 1.2 3.1 1.5 1.4.5 2.9.7 4.5.7zm-8.6-17.3-1 .8c-.4-.6-.9-1.3-1.5-2-.6-.8-1.2-1.4-1.7-1.9l.9-.7c.5.4 1 1 1.6 1.7.7.7 1.2 1.5 1.7 2.1zm3.8 3.6v-6.3l-.1-.4h13l-.1 1v15.4c0 .1 0 .3-.1.6s-.2.5-.5.7c-.3.2-.7.3-1.2.4-.5.1-1.3.1-2.4.1l-.7-1.4c.6.1 1.2.1 1.9.1.5 0 1-.1 1.3-.2s.5-.3.5-.7v-15h-10.5v5.6c0 1.6-.1 3.1-.3 4.7-.2 1.6-.5 2.9-.9 4s-.8 2-1.3 2.6c-.2-.2-.5-.5-1-.9.7-1 1.3-2.4 1.7-4.2.5-1.6.7-3.7.7-6.1zm3.2-.1h2.6v-2h-3v-1h3V290h.6c.3 0 .5 0 .6.1V291.8h3v1h-3v2h3.5v1.1h-3.5v1.6h-1.2v-1.6h-3.7v-1.1h1.1zm.3 8.9c0-.2.1-.5.1-.6v-3.7c0-.2 0-.4-.1-.7h5.7v5H345zm4.5-4h-3.3v3h3.3v-3zM360.5 309.5c.2-.1.5-.3.8-.6.3-.3.7-.6 1.1-1s.9-.9 1.3-1.4.8-1 1-1.5l1.1.6c-.4.7-1 1.5-1.8 2.4-.8.9-1.6 1.7-2.5 2.4-.3-.3-.6-.6-1-.9zm11.3-5.5h-11v-1.1h2.8v-11.5H361.2v-1.1H363.6v-2.7c0-.2 0-.5-.1-.8.6 0 1.1 0 1.4.1 0 .2-.1.5-.1.7v2.7h4.9v-2.7c0-.2 0-.5-.1-.8.6 0 1.1 0 1.4.1 0 .2-.1.5-.1.7v2.7h2.3v1.1h-2.3v11.5h2.1v1.1h-1.2zm-2-12.6h-4.9v3h4.9v-3zm-5 4v3h4.9v-3h-4.9zm0 4.1v3.4h4.9v-3.4h-4.9zm4.3 5.4c.9.8 1.8 1.8 2.7 2.9-.1.1-.2.3-.4.4-.2.2-.4.3-.5.4-.9-1.2-1.8-2.2-2.7-3.1l.9-.6zm14.3-16V307l.1 1.5c0 .3-.1.5-.2.7-.1.2-.3.4-.5.5-.2.1-.6.3-1.1.4-.5.1-1.2.1-2.2.1-.1-.2-.2-.4-.3-.7s-.3-.5-.4-.7c.6.1 1.2.2 1.7.1.5 0 .9 0 1.2-.1.3-.1.5-.3.5-.6v-6.7h-6c-.1.9-.3 2-.6 3.1s-.6 2.2-1.1 3.3c-.5 1-1 1.9-1.6 2.5l-1-.9c1.1-1.2 1.9-2.8 2.4-4.9.5-2.1.8-4.5.8-7.2v-9.6h8.3v1.1zm-7.2 11.5h5.9v-5.3h-5.8v2.4c.1.9 0 1.9-.1 2.9zm.2-11.5v5.1h5.8v-5.1h-5.8zM248.6 344.6c.9 0 1.6 0 2-.1v1.4c-.4 0-1.1-.1-2-.1h-9v6.2l.1 1.3h-1.5l.1-1.3v-6.2h-8.9c-.9 0-1.6 0-2 .1v-1.4c.4 0 1.1.1 2 .1h8.9v-4.7h-6.9c-.8 0-1.4 0-1.8.1v-1.4H238.3v-8.7c.3 0 .8 0 1.5.1 0 .2-.1.4-.1.8v7.8h9.1v1.4c-.4 0-1-.1-1.8-.1h-7.3v4.7h8.9zm-13.8-7.9-1.1.7c-.2-.3-.5-.9-1-1.8s-1.2-2-2.2-3.4l1.2-.6c.5.7 1 1.6 1.6 2.6.7.9 1.1 1.7 1.5 2.5zm12.2-4.6c-.4.8-.9 1.8-1.6 2.9s-1.3 2-1.9 2.8l-1.1-.7c.4-.5.9-1.2 1.5-2 .5-.8 1-1.6 1.3-2.2.3-.7.6-1.2.7-1.6l1.2.6-.1.2zM277.2 345.9h2v1.3h-10v5.2l.1 1.2h-1.4l.1-1.2v-5.2h-11.9v-1.3h4.9v-6l-.1-.5h7.1v-4.5h-6.3c-.5.7-1 1.5-1.8 2.3s-1.5 1.6-2.3 2.3c-.3-.3-.6-.6-1-.9.9-.7 1.8-1.6 2.7-2.7.9-1.1 1.7-2.3 2.3-3.3.6-1.1 1-2 1.3-2.7l1.3.3-.1.2c-.4 1.1-1 2.2-1.7 3.4h15.1v1.2h-8.2v4.5h7.3v1.2h-7.3v5.3h7.9zm-15.1 0h5.7v-5.3h-5.7v5.3zM295.8 346.2l-.1 1.4c-.9.3-2.5.8-4.6 1.5-2.1.7-3.7 1.2-4.9 1.5l-.9.3-.5-1.4c.5-.1.8-.2 1.1-.2 1.2-.3 2.9-.8 5.2-1.5 2.3-.7 3.9-1.2 4.7-1.6zm11.1.7c.6.7 1 1.1 1.1 1.2-.2 3.4-1 5-2.4 5-.3 0-.6-.1-1-.2s-.8-.4-1.2-.8c-.4-.4-.9-.9-1.4-1.6-.5-.7-1-1.6-1.5-2.6-1 1.1-2.1 2.1-3.3 2.9-1.3.9-2.6 1.6-4.1 2.2-.2-.3-.5-.7-1-1.1 3.3-1.2 5.9-3 7.8-5.3-1.1-2.9-1.9-6.5-2.4-10.7h-12.6v-1.3h12.5c-.1-1.2-.2-2.5-.2-3.8l-.1-.9c.4 0 .9.1 1.4.2v.8c0 .6 0 1.2.1 1.9 0 .7.1 1.3.1 1.9h8.6v1.3h-8.4c.4 3.6 1 6.7 2 9.5.6-1 1.2-2 1.7-3.2.5-1.2.9-2.4 1.1-3.7l1.2.6-.1.2c-.7 2.9-1.8 5.5-3.4 7.6.7 1.6 1.4 2.8 2.1 3.6.7.9 1.4 1.3 2 1.3.2 0 .5-.2.7-.5s.4-.9.5-1.6c.1-.9.2-1.8.2-2.9zm-20.4-1.8c0-.3.1-.5.1-.7v-5c0-.2 0-.4-.1-.7h7.7v6.4h-7.7zm6.3-5.2h-5v4h5v-4zm12.5-7-.8.9c-.2-.2-.5-.4-.9-.7s-.8-.5-1.3-.8c-.5-.3-1-.5-1.4-.8l.7-.8c.5.2 1.2.5 1.9.9.7.5 1.3.9 1.8 1.3zM321.6 333.7v1.3h-6.4v5.7c.5-.1 1-.1 1.5-.1 1.8 0 3.3.5 4.4 1.5 1.1 1 1.6 2.4 1.6 4.1 0 1.7-.6 3.1-1.7 4.2s-2.5 1.7-4.2 1.7c-1.4 0-2.9-.4-4.4-1.2v-1.5c1.7 1 3.2 1.5 4.4 1.5 1.3 0 2.4-.4 3.2-1.3.8-.8 1.3-1.9 1.3-3.2 0-1.4-.4-2.5-1.3-3.3-.9-.8-2.1-1.2-3.6-1.2-.8 0-1.6.1-2.5.4v-8.5h7.7zM329.8 349.2v2c0 1.6-.6 2.8-1.7 3.7v-.9c.4-.5.6-1.2.6-2.2h-.6v-2.6h1.7zM339.9 333.4c1.6 0 3 .8 4.1 2.4 1.1 1.6 1.7 3.9 1.7 6.9 0 2.8-.5 5-1.6 6.7-1.1 1.7-2.5 2.5-4.1 2.5-1.7 0-3.1-.8-4.2-2.5-1.1-1.6-1.6-3.8-1.6-6.5 0-3.3.6-5.8 1.8-7.3 1-1.4 2.4-2.2 3.9-2.2zm-.1 17.3c1.3 0 2.4-.8 3.3-2.3.8-1.5 1.2-3.4 1.2-5.8 0-2.3-.4-4.2-1.2-5.7-.8-1.5-1.9-2.3-3.2-2.3-1.3 0-2.3.7-3.2 2.2-.8 1.5-1.3 3.4-1.3 5.8s.4 4.3 1.2 5.8 2 2.3 3.2 2.3zM355.2 333.4c1.6 0 3 .8 4.1 2.4 1.1 1.6 1.7 3.9 1.7 6.9 0 2.8-.5 5-1.6 6.7-1.1 1.7-2.5 2.5-4.1 2.5-1.7 0-3.1-.8-4.2-2.5-1.1-1.6-1.6-3.8-1.6-6.5 0-3.3.6-5.8 1.8-7.3 1-1.4 2.3-2.2 3.9-2.2zm-.1 17.3c1.3 0 2.4-.8 3.3-2.3.8-1.5 1.2-3.4 1.2-5.8 0-2.3-.4-4.2-1.2-5.7-.8-1.5-1.9-2.3-3.2-2.3-1.3 0-2.3.7-3.2 2.2-.8 1.5-1.3 3.4-1.3 5.8s.4 4.3 1.2 5.8 1.9 2.3 3.2 2.3zM370.4 333.4c1.6 0 3 .8 4.1 2.4 1.1 1.6 1.7 3.9 1.7 6.9 0 2.8-.5 5-1.6 6.7-1.1 1.7-2.5 2.5-4.1 2.5-1.7 0-3.1-.8-4.2-2.5-1.1-1.6-1.6-3.8-1.6-6.5 0-3.3.6-5.8 1.8-7.3 1.1-1.4 2.4-2.2 3.9-2.2zm0 17.3c1.3 0 2.4-.8 3.3-2.3.8-1.5 1.2-3.4 1.2-5.8 0-2.3-.4-4.2-1.2-5.7-.8-1.5-1.9-2.3-3.2-2.3-1.3 0-2.3.7-3.2 2.2-.8 1.5-1.3 3.4-1.3 5.8s.4 4.3 1.2 5.8 1.9 2.3 3.2 2.3zM389.3 332c-.3.9-.7 1.8-1.3 2.8s-1.3 2-2 3c-.8 1-1.6 1.9-2.4 2.7-.8.8-1.5 1.4-2.2 1.8l-1-1c.5-.3 1.1-.8 1.9-1.4.8-.7 1.6-1.6 2.5-2.6.9-1.1 1.6-2.1 2.2-3.1.6-1 1-1.8 1.2-2.7l1.3.3-.2.2zm5.8 12.4 1.1-.6c.9 1.1 2 2.5 3.2 4.2 1.2 1.7 2.2 3.3 3.2 5l-1.3.6c-.3-.6-.8-1.5-1.5-2.7-2.2.2-7.2.7-15.1 1.5-.6.1-1.1.1-1.5.2l-.5-1.4c.8-.5 1.6-1.3 2.4-2.2.8-1 1.6-2 2.4-3.2s1.5-2.3 2-3.4c.6-1.1 1-2 1.3-2.7l1.4.7-.3.6c-.7 1.5-1.6 3-2.6 4.6s-1.9 2.8-2.5 3.6c-.7.8-1.3 1.5-1.8 2 .9-.1 2.1-.2 3.7-.3 1.5-.1 3.3-.3 5.4-.5 2-.2 3.7-.4 5-.5-1.4-2.2-2.7-4-4-5.5zm1.3-13.8c.3.9.7 1.9 1.2 2.8.5 1 1.1 1.9 1.8 2.9s1.5 1.8 2.3 2.6c.8.8 1.7 1.4 2.5 1.8l-.8 1.2c-.6-.3-1.2-.8-1.9-1.3-.6-.5-1.2-1.1-1.8-1.7-.6-.6-1.1-1.3-1.6-2s-1-1.5-1.5-2.4c-.5-.9-.9-1.8-1.3-2.8H391v-1.2h5.4zM430.4 351h2v1.3c-.4 0-1.1-.1-2-.1h-18.9c-.9 0-1.6 0-2 .1V351h10.6v-3.8H413c-.8 0-1.4 0-1.8.1V346h8.9v-3.3h-7.6c0-.4.1-.6.1-.8v-9.7l-.1-.8h16.6v11.3h-7.7v3.3h9v1.3c-.4 0-.9-.1-1.7-.1h-7.3v3.8h9zm-10.3-18.5h-6.3v3.8h6.3v-3.8zm-6.3 5v4.1h6.3v-4.1h-6.3zm13.9-1.2v-3.8h-6.4v3.8h6.4zm-6.4 5.3h6.4v-4.1h-6.4v4.1zM221.8 389h19.1c1 0 1.6 0 2-.1v1.5h-23.1v-1.5c.4.1 1.1.1 2 .1zM269.5 394h2v1.3h-10v5.2l.1 1.2h-1.4l.1-1.2v-5.2h-11.9V394h4.9v-6l-.1-.5h7.1V383H254c-.5.7-1 1.5-1.8 2.3s-1.5 1.6-2.3 2.3c-.3-.3-.6-.6-1-.9.9-.7 1.8-1.6 2.7-2.7.9-1.1 1.7-2.3 2.3-3.3.6-1.1 1-2 1.3-2.7l1.3.3-.1.2c-.4 1.1-1 2.2-1.7 3.4h15.1v1.2h-8.2v4.5h7.3v1.2h-7.3v5.3h7.9zm-15.1 0h5.7v-5.3h-5.7v5.3zM288.2 394.3l-.1 1.4c-.9.3-2.5.8-4.6 1.5-2.1.7-3.7 1.2-4.9 1.5l-.9.3-.5-1.4c.5-.1.8-.2 1.1-.2 1.2-.3 2.9-.8 5.2-1.5 2.3-.7 3.8-1.2 4.7-1.6zm11 .7c.6.7 1 1.1 1.1 1.2-.2 3.4-1 5-2.4 5-.3 0-.6-.1-1-.2s-.8-.4-1.2-.8c-.4-.4-.9-.9-1.4-1.6-.5-.7-1-1.6-1.5-2.6-1 1.1-2.1 2.1-3.3 2.9-1.3.9-2.6 1.6-4.1 2.2-.2-.3-.5-.7-1-1.1 3.3-1.2 5.9-3 7.8-5.3-1.1-2.9-1.9-6.5-2.4-10.7h-12.6v-1.3h12.5c-.1-1.2-.2-2.5-.2-3.8l-.1-.9c.4 0 .9.1 1.4.2v.8c0 .6 0 1.2.1 1.9 0 .7.1 1.3.1 1.9h8.6v1.3h-8.4c.4 3.6 1 6.7 2 9.5.6-1 1.2-2 1.7-3.2.5-1.2.9-2.4 1.1-3.7l1.2.6-.1.2c-.7 2.9-1.8 5.5-3.4 7.6.7 1.6 1.4 2.8 2.1 3.6.7.9 1.4 1.3 2 1.3.2 0 .5-.2.7-.5s.4-.9.5-1.6c.2-.9.2-1.8.2-2.9zm-20.4-1.8c0-.3.1-.5.1-.7v-5c0-.2 0-.4-.1-.7h7.7v6.4h-7.7zm6.4-5.2h-5v4h5v-4zm12.4-7-.8.9c-.2-.2-.5-.4-.9-.7s-.8-.5-1.3-.8c-.5-.3-1-.5-1.4-.8l.7-.8c.5.2 1.2.5 1.9.9.7.5 1.3.9 1.8 1.3zM304.9 384.8v-1.6c1.3-1.1 2.7-1.6 4.2-1.6s2.7.5 3.8 1.5 1.5 2.2 1.5 3.7c0 2.9-2.2 6.8-6.7 11.9h8.4v1.2h-11.5c5.6-5.4 8.4-9.8 8.4-13.1 0-1.1-.4-2.1-1.2-2.8-.8-.8-1.7-1.1-2.9-1.1-.8 0-1.4.2-2 .5-.6.2-1.2.7-2 1.4zM325.6 381.5c1.6 0 3 .8 4.1 2.4 1.1 1.6 1.7 3.9 1.7 6.9 0 2.8-.5 5-1.6 6.7-1.1 1.7-2.5 2.5-4.1 2.5-1.7 0-3.1-.8-4.2-2.5-1.1-1.6-1.6-3.8-1.6-6.5 0-3.3.6-5.8 1.8-7.3 1-1.4 2.4-2.2 3.9-2.2zm-.1 17.3c1.3 0 2.4-.8 3.3-2.3.8-1.5 1.2-3.4 1.2-5.8 0-2.3-.4-4.2-1.2-5.7-.8-1.5-1.9-2.3-3.2-2.3-1.3 0-2.3.7-3.2 2.2-.8 1.5-1.3 3.4-1.3 5.8s.4 4.3 1.2 5.8 1.9 2.3 3.2 2.3zM337.4 397.3v2c0 1.6-.6 2.8-1.7 3.7v-.9c.4-.5.6-1.2.6-2.2h-.6v-2.6h1.7zM347.5 381.5c1.6 0 3 .8 4.1 2.4 1.1 1.6 1.7 3.9 1.7 6.9 0 2.8-.5 5-1.6 6.7-1.1 1.7-2.5 2.5-4.1 2.5-1.7 0-3.1-.8-4.2-2.5-1.1-1.6-1.6-3.8-1.6-6.5 0-3.3.6-5.8 1.8-7.3 1.1-1.4 2.4-2.2 3.9-2.2zm0 17.3c1.3 0 2.4-.8 3.3-2.3.8-1.5 1.2-3.4 1.2-5.8 0-2.3-.4-4.2-1.2-5.7-.8-1.5-1.9-2.3-3.2-2.3-1.3 0-2.3.7-3.2 2.2-.8 1.5-1.3 3.4-1.3 5.8s.4 4.3 1.2 5.8 1.9 2.3 3.2 2.3zM362.8 381.5c1.6 0 3 .8 4.1 2.4 1.1 1.6 1.7 3.9 1.7 6.9 0 2.8-.5 5-1.6 6.7-1.1 1.7-2.5 2.5-4.1 2.5-1.7 0-3.1-.8-4.2-2.5-1.1-1.6-1.6-3.8-1.6-6.5 0-3.3.6-5.8 1.8-7.3 1-1.4 2.4-2.2 3.9-2.2zm-.1 17.3c1.3 0 2.4-.8 3.3-2.3.8-1.5 1.2-3.4 1.2-5.8 0-2.3-.4-4.2-1.2-5.7-.8-1.5-1.9-2.3-3.2-2.3-1.3 0-2.3.7-3.2 2.2-.8 1.5-1.3 3.4-1.3 5.8s.4 4.3 1.2 5.8 2 2.3 3.2 2.3zM378.1 381.5c1.6 0 3 .8 4.1 2.4 1.1 1.6 1.7 3.9 1.7 6.9 0 2.8-.5 5-1.6 6.7-1.1 1.7-2.5 2.5-4.1 2.5-1.7 0-3.1-.8-4.2-2.5-1.1-1.6-1.6-3.8-1.6-6.5 0-3.3.6-5.8 1.8-7.3 1-1.4 2.3-2.2 3.9-2.2zm-.1 17.3c1.3 0 2.4-.8 3.3-2.3.8-1.5 1.2-3.4 1.2-5.8 0-2.3-.4-4.2-1.2-5.7-.8-1.5-1.9-2.3-3.2-2.3-1.3 0-2.3.7-3.2 2.2-.8 1.5-1.3 3.4-1.3 5.8s.4 4.3 1.2 5.8 1.9 2.3 3.2 2.3zM397 380.1c-.3.9-.7 1.8-1.3 2.8s-1.3 2-2 3c-.8 1-1.6 1.9-2.4 2.7-.8.8-1.5 1.4-2.2 1.8l-1-1c.5-.3 1.1-.8 1.9-1.4.8-.7 1.6-1.6 2.5-2.6.9-1.1 1.6-2.1 2.2-3.1.6-1 1-1.8 1.2-2.7l1.3.3-.2.2zm5.7 12.4 1.1-.6c.9 1.1 2 2.5 3.2 4.2 1.2 1.7 2.2 3.3 3.2 5l-1.3.6c-.3-.6-.8-1.5-1.5-2.7-2.2.2-7.2.7-15.1 1.5-.6.1-1.1.1-1.5.2l-.5-1.4c.8-.5 1.6-1.3 2.4-2.2.8-1 1.6-2 2.4-3.2s1.5-2.3 2-3.4c.6-1.1 1-2 1.3-2.7l1.4.7-.3.6c-.7 1.5-1.6 3-2.6 4.6s-1.9 2.8-2.5 3.6c-.7.8-1.3 1.5-1.8 2 .9-.1 2.1-.2 3.7-.3 1.5-.1 3.3-.3 5.4-.5 2-.2 3.7-.4 5-.5-1.4-2.2-2.7-4-4-5.5zm1.4-13.8c.3.9.7 1.9 1.2 2.8.5 1 1.1 1.9 1.8 2.9s1.5 1.8 2.3 2.6c.8.8 1.7 1.4 2.5 1.8l-.8 1.2c-.6-.3-1.2-.8-1.9-1.3-.6-.5-1.2-1.1-1.8-1.7-.6-.6-1.1-1.3-1.6-2s-1-1.5-1.5-2.4c-.5-.9-.9-1.8-1.3-2.8h-4.3v-1.2h5.4zM438 399.1h2v1.3c-.4 0-1.1-.1-2-.1h-18.9c-.9 0-1.6 0-2 .1v-1.3h10.6v-3.8h-7.1c-.8 0-1.4 0-1.8.1v-1.3h8.9v-3.3h-7.6c0-.4.1-.6.1-.8v-9.7l-.1-.8h16.6v11.3H429v3.3h9v1.3c-.4 0-.9-.1-1.7-.1H429v3.8h9zm-10.3-18.5h-6.3v3.8h6.3v-3.8zm-6.2 5v4.1h6.3v-4.1h-6.3zm13.9-1.1v-3.8H429v3.8h6.4zm-6.4 5.2h6.4v-4.1H429v4.1zM369.8 231.9v22.7l.1 1.5h-2l.1-1.5v-1.2c0-.6 0-2.6.1-6s.1-7.7.3-12.8c-.7 1.2-1.4 2.5-2.2 3.7s-1.6 2.2-2.3 3.1c-.2-.5-.6-1.1-1-1.8 1.7-1.9 3.3-4.4 4.9-7.4 1.6-3.1 2.7-5.9 3.4-8.6l1.8.6-.1.3c-.4 1.2-.8 2.5-1.4 3.8-.7 1.3-1.2 2.5-1.7 3.6zm16.4 10.4c.6.9 1.4 2 2.4 3.2s2.3 2.4 3.8 3.6c1.5 1.2 2.9 2.1 4.3 2.7l-1 1.6c-.7-.3-1.4-.8-2.3-1.4-.9-.6-1.8-1.3-2.8-2.2-1-.9-2-1.9-2.9-3s-1.7-2.2-2.3-3.2l.1 11.4c0 .5 0 .9.1 1.2h-2V255l.1-11.4c-.5.7-1 1.5-1.7 2.4-.7.9-1.5 1.8-2.4 2.6-.9.9-1.9 1.8-3 2.6s-2.2 1.6-3.4 2.2l-1-1.6c1.5-.8 3-1.7 4.5-2.9s2.7-2.3 3.7-3.5c1-1.2 1.7-2.2 2.3-3.1H373v-1.8H383.6v-4.8h-7.4c0-.4.1-.8.1-1v-8.1c0-.2 0-.6-.1-1H393v10.1h-7.5v4.8H396v1.8h-9.8zm-8-14.9v6.9h12.9v-6.9h-12.9zM426.6 236.7c.5.6 1.2 1.2 2.1 2s2.1 1.4 3.6 2.1c1.4.7 2.9 1.2 4.3 1.6-.3.6-.6 1.1-.8 1.6-.8-.2-1.7-.6-2.6-1s-2-1-3.1-1.7-2.1-1.5-3-2.3-1.6-1.6-2.1-2.3h-9.6c-.6.7-1.4 1.5-2.4 2.5s-2.3 1.9-3.9 2.8c-1.5.9-3 1.7-4.5 2.2-.1-.3-.5-.8-1-1.5.8-.3 1.8-.7 3-1.2s2.4-1.3 3.7-2.1c1.3-.9 2.3-1.8 3.1-2.6h-6.6c-1.2 0-2.1 0-2.7.1v-1.5c.6 0 1.4.1 2.7.1H419v-2.8h-9c-1 0-1.8 0-2.3.1v-1.4H419.1v-2.7h-10.3c-1.1 0-1.9 0-2.4.1V227h8.9c-.6-1.1-1.2-2-1.6-2.6l1.6-.5c.6.8 1.2 1.9 1.9 3.1h6.1c.2-.2.5-.6.8-1.1.3-.5.6-.9.8-1.3s.3-.7.3-.8l1.8.5-.2.3-1.5 2.3h8.9v1.5c-.5 0-1.4-.1-2.4-.1h-10.9v2.7H432.8v1.4c-.5 0-1.3-.1-2.3-.1h-9.6v2.8h12.4c1.2 0 2.1 0 2.7-.1v1.5c-.5 0-1.4-.1-2.7-.1h-6.7zm-13 12.2v5.2l7.6-1.5-.1 1.6-7.9 1.4-1.2.4-.7-1.6c.4-.2.6-.6.6-1.2v-12.4h16.3v8.1h-14.6zm12.8-6.9h-12.8v2.2h12.8V242zm-12.8 5.6h12.8v-2.2h-12.8v2.2zm10.9-8.3H415.7v-1.2H424.5v1.2zm8.5 9.8c-1.5 1.1-3.2 2.1-5.2 3 3.4 1.1 5.7 1.9 7.1 2.4l-1 1.3c-6.4-2.4-11.6-4.2-15.5-5.2l1.1-1.1c1.7.4 3.8 1.1 6.5 1.9.9-.5 2-1.1 3.2-1.8 1.2-.7 2.1-1.4 2.8-1.9l1.4 1.1-.4.3zM463.2 253.8c2.1 0 4.4-.1 7-.3 2.6-.2 4.7-.4 6.2-.6 0 0-.1.3-.2.8-.2.5-.2.9-.3 1.1-1.3.2-3.3.4-5.9.5s-4.9.2-6.8.2c-1.7 0-3.2-.1-4.6-.4-1.4-.2-2.7-.6-3.8-1.1-1.1-.5-2.1-1.1-2.8-1.8-.8-.7-1.4-1.6-1.8-2.5-1.1 2.4-2.7 4.4-4.8 5.9-.5-.6-.9-1.1-1.2-1.4 1.1-.7 2-1.6 2.9-2.6.8-1 1.5-2.2 2.1-3.6s1-2.9 1.3-4.7h-3.8c-.3 0-.6 0-.8.1l-.3-1.5c.1-.1.3-.2.5-.3s.3-.3.4-.4c.5-.7 1.2-1.6 1.9-2.8s1.3-2.3 1.7-3.1h-5.7v-1.6H450.8l.1-.2 1.5 1.2-.3.1c-.6 1.1-1.2 2.4-2 3.7-.8 1.3-1.5 2.4-2.2 3.3h3.1l.2-.2 1.4 1.2-.3.1c-.3 1.8-.7 3.5-1.3 5 .3 1.2 1 2.3 2.1 3.2 1.1.9 2.5 1.6 4.3 2.1s3.6.6 5.8.6zm-11.8-23.7-1.3 1.1c-.5-.8-1.2-1.7-2-2.8-.8-1-1.6-1.9-2.4-2.7l1.2-.9c.6.6 1.4 1.4 2.2 2.4 1 1 1.7 1.9 2.3 2.9zm5.2 4.9v-8.6l-.1-.6h17.8l-.1 1.3v21.2c0 .2 0 .4-.1.8s-.3.7-.7.9-1 .5-1.7.6c-.8.1-1.8.2-3.3.2l-.9-1.9c.8.1 1.6.1 2.6.1.7 0 1.3-.1 1.8-.2s.7-.5.7-.9v-20.6h-14.4v7.7c0 2.2-.1 4.3-.4 6.5-.3 2.1-.7 4-1.2 5.6-.5 1.6-1.2 2.8-1.8 3.6-.3-.3-.8-.7-1.4-1.3 1-1.3 1.8-3.3 2.4-5.8.5-2.5.8-5.4.8-8.6zm4.5-.2h3.5v-2.7H460.4v-1.4H464.6v-2.5h.9c.4 0 .6 0 .8.1v2.4h4.1v1.4h-4.1v2.7h4.8v1.5h-4.8v2.3h-1.6v-2.3h-5v-1.5h1.4zm.3 12.2c0-.3.1-.6.1-.9V241c0-.3 0-.6-.1-.9h7.9v6.9h-7.9zm6.3-5.4h-4.6v4.1h4.6v-4.1zM483.7 255.1c.3-.2.6-.4 1.1-.8.5-.4 1-.8 1.6-1.4.6-.6 1.2-1.2 1.8-2 .6-.7 1.1-1.4 1.4-2.1l1.5.9c-.6 1-1.4 2-2.5 3.3-1.1 1.2-2.2 2.4-3.4 3.3l-1.5-1.2zm15.5-7.6H484V246H487.9v-15.9h-3.3v-1.6h3.3v-3.8c0-.3 0-.7-.1-1.1.9 0 1.5 0 1.9.1 0 .3-.1.6-.1 1v3.7h6.8v-3.8c0-.3 0-.7-.1-1.1.9 0 1.5 0 1.9.1 0 .3-.1.6-.1 1v3.7h3.1v1.6h-3.1V246H501v1.5h-1.8zm-2.8-17.4h-6.8v4.1h6.8v-4.1zm-6.8 5.6v4.1h6.8v-4.1h-6.8zm0 5.6v4.6h6.8v-4.6h-6.8zm6 7.5c1.3 1.2 2.5 2.5 3.7 4l-.6.6c-.3.3-.5.5-.7.6-1.2-1.6-2.5-3-3.8-4.2l1.4-1zm19.6-22v24.9l.1 2c0 .4-.1.7-.2 1-.1.3-.4.5-.7.7-.3.2-.8.4-1.5.5-.7.1-1.7.2-3 .2-.1-.2-.2-.6-.4-1s-.4-.7-.5-1c.9.1 1.6.2 2.4.2.7 0 1.2-.1 1.6-.2.4-.1.6-.4.6-.9v-9.1h-8.3c-.1 1.3-.4 2.7-.8 4.3-.4 1.6-.9 3.1-1.5 4.5-.7 1.4-1.4 2.6-2.2 3.5l-1.4-1.3c1.5-1.6 2.6-3.9 3.3-6.8.7-2.9 1.1-6.2 1.1-9.9v-13.2h11.5l-.1 1.6zm-9.8 15.8h8.1v-7.3h-7.9v3.3c-.1 1.2-.1 2.6-.2 4zm.1-15.8v7h7.9v-7h-7.9zM546.7 249.7c1.6 1.1 3.3 2.1 5.1 2.9 1.9.8 3.8 1.4 5.8 1.9-.4.6-.8 1.1-1 1.5-2.9-.7-5.6-1.7-8-3.1-2.5-1.4-4.6-3-6.3-4.8-1.8-1.8-3.2-3.7-4.3-5.7h-5.8v10.9c2.8-.7 5.9-1.6 9.3-2.7v1.7c-1.4.4-4.5 1.3-9.4 2.7-.7.2-1.2.4-1.6.5l-.7-1.8c.4-.2.6-.6.6-1.4v-10.1h-5.5v-1.6H531.2v-14.1l-.1-1.2h21.4v1.6H533v3.8h18.2v1.5H533v3.4h16.3c.9 0 1.5 0 1.9-.1v1.6c-.4 0-1.1-.1-1.9-.1H533v3.7H557.1v1.6H540c1.3 2.2 3.1 4.3 5.4 6.2.6-.3 1.3-.7 2.2-1.3.9-.6 1.8-1.2 2.8-2 .9-.7 1.6-1.3 2-1.8l1.5 1.3-.3.2c-.8.7-1.8 1.4-3.2 2.4-1.6 1-2.7 1.8-3.7 2.4z"/>
</svg>
