<svg xmlns="http://www.w3.org/2000/svg" width="16.7" height="31.1" style="overflow:visible;enable-background:new 0 0 16.7 31.1" xml:space="preserve">
    <style>
        .st0{fill:#fff}
    </style>
    <g id="XMLID_1_">
        <path id="XMLID_12_" class="st0" d="M1.5 15.2c0 .9.1 1.7.3 2.9C2.3 20.2 3.6 23 4 24c-.2.3-.3.6-.3.9 0 .4.1.8.4 1.1-.3.3-.4.7-.4 1 0 .5.2.9.5 1.2-.2.3-.4.6-.4 1 0 .9.8 1.7 1.8 1.7l6.5.1c.5 0 1-.2 1.3-.5.3-.3.5-.7.5-1.1 0-.5-.2-.9-.5-1.2.2-.3.4-.6.4-1s-.1-.8-.4-1.1c.3-.3.4-.7.4-1 0-.4-.1-.8-.4-1.1.5-1 1.7-3.8 2.2-5.9.3-1.2.3-2 .3-2.9 0-4-3.2-7.2-7.2-7.2s-7.2 3.2-7.2 7.2zm11.2 14.6c-.1.1-.3.2-.6.2l-6.5-.1c-.4 0-.7-.3-.7-.6 0-.2.2-.5.5-.5.2-.1.4-.3.4-.6s-.2-.5-.5-.5c-.3-.1-.6-.3-.6-.6 0-.2.2-.4.5-.5.2-.1.4-.3.4-.5s-.2-.5-.4-.5c-.2-.2-.4-.4-.4-.6 0-.1 0-.2.1-.3h7.7c.1.1.2.2.2.4s-.2.4-.5.5c-.2.1-.4.3-.4.5s.2.5.4.5c.3.1.5.3.5.6 0 .2-.2.5-.5.5-.2.1-.4.3-.4.6s.2.5.5.5c.3.1.6.3.6.6-.1.2-.2.3-.3.4zm-4-20.7c3.4 0 6.1 2.8 6.1 6.1 0 .8-.1 1.6-.3 2.7-.5 2-1.7 4.8-2.1 5.7H5c-.4-.9-1.6-3.7-2.1-5.7-.3-1.1-.3-1.8-.3-2.7 0-3.4 2.7-6.1 6.1-6.1z"/>
        <path id="XMLID_9_" class="st0" d="M1.1 2.6C1 2.4.9 2.4.7 2.3c-.2 0-.3 0-.5.1-.1.2-.2.3-.2.5s0 .3.1.5l3.3 4.2c.1.2.3.2.5.2.1 0 .3-.1.4-.1.1-.1.2-.3.2-.4 0-.2 0-.3-.1-.5L1.1 2.6zM4 7.2c-.1 0-.1 0 0 0h-.1L.6 3v-.2h.2L4 7.1v.1z"/>
        <path id="XMLID_6_" class="st0" d="M13 7.6c.1.1.2.1.4.1s.4-.1.5-.3l2.7-4.1c.1-.1.1-.3.1-.5s-.1-.3-.3-.4c-.1-.1-.3-.1-.5-.1s-.3.1-.4.3l-2.7 4.1c-.1.1-.1.3-.1.5s.1.3.3.4zm.3-.6L16 3h.2v.2l-2.7 4.1h-.2V7c-.1.1-.1.1 0 0z"/>
        <path id="XMLID_3_" class="st0" d="M8.6 6.7c.4 0 .7-.3.7-.6L9.5.7c0-.2-.1-.3-.2-.5C9.2.1 9 0 8.9 0c-.2 0-.4.1-.5.2-.1.1-.2.2-.2.4L8 6c0 .2 0 .3.2.5.1.1.2.2.4.2zM8.5 6 8.7.6V.5h.2v.1L8.7 6c0 .1 0 .1-.2 0 .1.1.1.1 0 0 0 .1 0 .1 0 0z"/>
        <path id="XMLID_2_" class="st0" d="M4.8 14.2c.3 0 .6-.2.6-.6 0-.2 0-.3.1-.5.3-1 1.1-1.4 1.7-1.5.3-.1.5-.1.5-.1.3 0 .6-.3.6-.6s-.3-.6-.6-.6c-1.1 0-3.3.7-3.5 3.2.1.4.3.7.6.7z"/>
    </g>
</svg>
