<svg xmlns="http://www.w3.org/2000/svg" xmlns:xlink="http://www.w3.org/1999/xlink" width="1438.7" height="191" style="overflow:visible;enable-background:new 0 0 1438.7 191" xml:space="preserve">
    <g style="opacity:.35">
        <defs>
            <path id="a" d="M0 0h1438.7v191H0z"/>
        </defs>
        <clipPath id="b">
            <use xlink:href="#a" style="overflow:visible"/>
        </clipPath>
        <path d="M126.1 187.6H0L37.1 6.1H202l31.4 113.3L312.1 6.1h153.7l-37.3 181.5H309.7L335.1 63l-67.2 113.1h-89.8L151.6 63.2zM949.2 62.8c2.5-10.8 8.4-26.4 5.7-30.4C950 25.6 938 20 919 15.6c-19.1-4.4-43.7-7.2-74-8.5-12.1-.5-29.3-.9-49-1.2-14.8-.8-30.5-1.2-47.2-1.2-10.6 0-20.9.2-31.1.5-130.4 4.1-220.6 34.4-241.5 81-1.6 3.5-2.7 7-3.5 10.7-2.7 12.6-.4 24.4 6.6 35.1 9.3 14.4 26.8 26.7 52 36 41 15.4 101.2 22.9 180.5 22.9 46.2 0 92.3-2.6 133.8-7.3 27.6-3.1 44.9-5.8 78-12.6 1.4-.3 2.7-.6 4.2-.9l.5-2.2 9.5-44.9 8.1-38-238.5-.2-7.4 34.4h76c3 0 5.3 2.8 4.7 5.7l-3.5 18c-.4 2-2 6-3.8 6.9-2.8 1.4-6.1 2.3-13.9 2.7-13.2.7-26.6 1.5-41.1 1.5-39.3 0-69-4.1-87.4-11.6-16.8-6.9-26.5-17.1-28.9-29.9-.9-4.6-.8-9.6.3-14.9 3-14 12.2-25.6 26.9-34.5 23.1-14 59.8-21.4 108.6-21.4 2 0 3.9 0 5.8.1 19.4.4 44.5 1.7 42.9 7l-3 14.2h165.6zm484.2 58.6c-8.3.1-16.6-.1-24.9-.1-10.4-.1-10.7-.5-8.1-10.2C1409.6 77 1418.7 43 1428.1 9c1.6-5.8.2-8.2-5.9-8.2-45.1 0-90.2-1.7-135.2.1-58.1 2.3-115.1 14-171.8 26.2-32.1 6.9-63.9 15.3-95.5 24.3-23.1 6.6-38.8 21.8-45 45.6-4.1 15.8-8.2 31.5-12 47.4-3.8 16-3.6 16.3 13.2 16.4l124.3.9v-.1l130.2.9c8 .1 8.6 1 6.9 8.5-2.2 9.5-2.2 9.5 7.2 9.6 42.2.3 84.3.4 126.5 1 7.9.1 11.9-2.3 12.9-10 .8-6.2 4.6-8.3 10.8-8.1 9 .4 18 .1 27.1.2 4.3.1 6.8-1.4 8-5.7 2.7-10.1 5.8-20.1 8.7-30.1 1.1-4.6-.4-6.5-5.1-6.5m-163.3-71.7c-4 16.5-8.5 33-13 49.4-6.9 25.4-5.7 20.9-27.8 21-20 .1-40-.2-60-.4-23.6-.2-47.3-.3-70.9-.5-10.3-.1-12.1-3-7.9-12.6 2.5-5.8 5.1-11.6 7.9-17.2 7.2-14.2 18.3-23.8 33.7-28.2 39.9-11.4 80.6-19.1 121.8-23.9 2.4-.3 4.9-.3 7.3 0 8.2 1.1 10.8 4.3 8.9 12.4" style="clip-path:url(#b);fill:#d6d6d6"/>
    </g>
</svg>
