<svg xmlns="http://www.w3.org/2000/svg" width="333.3" height="362.4" style="overflow:visible;enable-background:new 0 0 333.3 362.3" xml:space="preserve">
    <style>
        .st3{fill:#040000}
    </style>
    <path d="M92.7 265.8c-.5 1.4-1.2 2.8-2.1 4.4-.9 1.6-1.9 3.1-3 4.5s-2.2 2.8-3.4 4c-1.2 1.3-2.4 2.3-3.6 3.1-.5-.7-1.4-1.5-2.6-2.6 1.1-.7 2.4-1.7 3.8-3s2.6-2.7 3.8-4.3c1.2-1.6 2-3 2.7-4.2.6-1.2 1.1-2.3 1.3-3.2l3.3.9c-.1.1-.1.3-.2.4zm8 18.9 2.8-1.5c.8 1 1.8 2.2 2.8 3.6 1 1.4 2.2 3 3.4 4.9 1.2 1.9 2.4 3.8 3.4 5.9l-3.2 1.6c-.4-.9-1.1-2.2-2-3.8-2.1.2-5.2.5-9.5 1-4.3.4-8.4.8-12.3 1.1-.4.1-1 .1-1.6.2-.6.1-1.2.1-1.6.2l-1.2-3.3c1-.6 2-1.5 3.2-2.7s2.4-2.7 3.6-4.4c1.2-1.7 2.4-3.6 3.5-5.6 1.1-2 1.9-3.7 2.4-5.1l3.4 1.6c-.2.3-.5.8-.8 1.4-.7 1.4-1.5 2.9-2.5 4.7-1 1.8-2.2 3.5-3.4 5.2-1.2 1.7-2.4 3.2-3.7 4.5 1.8-.1 4-.3 6.6-.6s4.9-.5 6.9-.7c2-.2 3.7-.4 5-.5-1.4-2.7-3.3-5.3-5.2-7.7zm3-21.7c.4 1.4 1 2.8 1.8 4.3s1.6 2.8 2.5 4c.9 1.2 1.8 2.3 2.7 3.2.9.9 1.8 1.7 2.7 2.4.9.7 1.7 1.2 2.4 1.6l-2.1 3c-1-.6-2.1-1.3-3.2-2.3-1.1-1-2.3-2.1-3.4-3.5s-2.2-2.9-3.3-4.6c-1-1.7-1.9-3.5-2.7-5.4h-6.3v-2.8h8.9zm53.3 3.2v25.9l.1 2.7c0 .5-.1.9-.3 1.4s-.5.8-1 1.2c-.5.3-1.3.6-2.3.8-1 .2-2.4.3-4.1.3 0-.1-.1-.2-.2-.4s-.3-.7-.7-1.5l-.8-1.6c1.1.2 2.3.3 3.3.3.8 0 1.4-.1 1.9-.2s.8-.5.8-1v-7.5h-9.9v9.2c0 .6 0 1.4.1 2.3h-3.4c.1-.9.1-1.7.1-2.3v-9.2H131c-.2 1.8-.5 3.4-1 4.9-.4 1.5-1 2.9-1.7 4.1-.7 1.3-1.5 2.4-2.5 3.3-1-1-1.9-1.7-2.6-2.3 1.1-1.2 2-2.5 2.7-3.9.7-1.4 1.2-3.1 1.6-5 .4-1.9.6-4.4.6-7.3v-14.9c0-.3 0-.6-.1-1h29.2l-.2 1.7zm-25.8 17.3h9.3v-6.7h-9.3v6.7zm9.3-16.2h-9.3v6.5h9.3v-6.5zm13.2 0h-9.9v6.5h9.9v-6.5zm-9.9 16.2h9.9v-6.7h-9.9v6.7zm58.3 3.7 3.3 2.1c-.1 2.7-.4 4.7-1 5.9-.5 1.2-1.4 2.1-2.6 2.6-1.2.5-2.9.8-5.1.8-1.5 0-2.8 0-3.9-.1s-2-.3-2.5-.7c-.5-.3-.8-.8-1-1.4s-.3-1.4-.3-2.5v-13.4l-5 .4c-.1 2.5-.4 4.8-.9 6.8-.6 2-1.4 3.8-2.5 5.3s-2.5 2.7-4.2 3.8-3.6 1.8-5.8 2.4c-.2-.3-1-1.3-2.5-3 2.2-.5 4.1-1.2 5.7-2 1.6-.8 2.9-1.9 3.9-3.1 1-1.2 1.8-2.6 2.3-4.3.5-1.7.8-3.5.8-5.7l-5.5.3c-1.4.1-2.4.2-2.9.2l-.9-3.2c.5-.1 1.3-.5 2.4-1.1 1-.7 2.3-1.7 3.9-3.2 1.6-1.5 2.9-3 4.1-4.6h-9.3c-1.7 0-2.9 0-3.5.1v-3.3c.7.1 1.8.1 3.5.1h13.3c-.5-1-1.3-2.1-2.3-3.6l3.2-.9c.7 1 1.3 1.9 1.8 2.8.5.9.9 1.4 1 1.7h11.6c1.6 0 2.8 0 3.4-.1v3.3c-.7-.1-1.8-.1-3.4-.1H186c-1 1.4-2.3 2.9-3.9 4.6-1.6 1.7-3 3.1-4.3 4.2 5.3-.2 11.1-.6 17.4-1.2-1.4-1.3-2.8-2.6-4.2-3.7l2.4-1.7c1.4 1.1 3.1 2.5 5 4.2 1.9 1.7 3.6 3.5 5.1 5.3l-2.6 2.2c-.7-1-1.7-2.2-3-3.6l-5.5.5V294c0 .7.3 1.1.9 1.2.1.1.4.1.7.1h3c1 0 1.8-.1 2.4-.3.6-.2 1.1-.5 1.5-.9.2-.2.4-.6.6-1.1.2-.5.3-1.3.4-2.3.2-.9.2-2.1.2-3.5zm28.5-16.6H218v6.8h-3.3c.1-.4.1-.8.1-1.1v-7c0-.3 0-.7-.1-1.1h15.9v-2.4h-10.7c-1.4 0-2.4 0-3 .1v-2.8h30.6v2.8c-.6-.1-1.5-.1-2.9-.1h-11v2.4h16.2v9.2h-3.2v-6.8h-12.9v7.3c0 .7 0 1.2.1 1.5h-3.2c.1-.3.1-.8.1-1.5v-7.3zm17.7 19.4c.3.2.7.5 1.3.8s1.1.6 1.6.9c0 .1 0 .3-.1.7 0 .3-.1.8-.2 1.4-.1.6-.3 1.2-.7 1.8-.3.6-.8 1.1-1.5 1.6-.6.5-1.6.8-2.9 1.1-1.3.3-3.1.4-5.5.4-2.2 0-4 0-5.4-.1-1.4-.1-2.3-.3-2.8-.6s-.9-.7-1.1-1.2c-.2-.5-.3-.9-.3-1.4v-2h-8.9v2.7h-3c.1-.5.1-1 .1-1.4v-12.1c0-.4 0-.9-.1-1.4h27.1v12.1h-12.2v.9c0 .7.4 1.2 1.1 1.4.7.2 2.7.2 5.9.2 1.1 0 2.2-.1 3.2-.2s1.9-.4 2.7-.8c.5-.4 1-.9 1.2-1.7.3-.7.4-1.8.5-3.1zm-20.1-17.4v2h-7.7v-2h7.7zm-6.3 3.9h6.3v1.9h-7.7v-1.9h1.4zm8.8 7h-8.9v2.5h8.9v-2.5zm-8.9 7.4h8.9v-2.7h-8.9v2.7zm21.1-4.9v-2.5h-9.2v2.5h9.2zm-9.2 4.9h9.2v-2.7h-9.2v2.7zm10.1-18.3v2h-7.7v-2h7.7zm-6.3 3.9h6.3v1.9h-7.7v-1.9h1.4z" style="fill:#3dae2b"/>
    <path d="M63.2 324.3c.7-.2 1.3-.5 2-.8.7-.3 1.4-.7 2.1-1.2.7-.5 1.3-1 2-1.6s1.2-1.2 1.8-1.9h-4.4v-1h5.8c1.1 1.5 2.5 2.8 4.1 4s3.1 1.9 4.7 2.4c-.2.3-.3.6-.4.9-1.6-.5-3.1-1.2-4.6-2.3-1.5-1.1-2.8-2.4-4-3.8-.4.6-.9 1.1-1.5 1.8-.6.6-1.2 1.2-2 1.8-.7.6-1.5 1.1-2.4 1.6-.9.5-1.8.8-2.7 1.1-.2-.3-.3-.6-.5-1zm9.4 9.3h8.3v1H63.5v-1h8v-3.8h-5.7v-1h5.7v-3.4h-4.7v-1h10.7v1h-5v3.4h6v1h-6v3.8zM96 319.5c.6.5 1.3 1.1 2 1.8.8.7 1.5 1.5 2.1 2.2.6.7 1.2 1.4 1.6 1.9l-.8.7c-.1-.1-.3-.4-.5-.8s-.7-.9-1.2-1.5c-.5 0-2.5.2-6.1.4-3.6.2-5.7.4-6.2.4h-1.2c-.1-.6-.2-1-.3-1.1.2 0 .5-.2.9-.4s.9-.6 1.5-1.1 1.2-1.2 1.8-1.9 1.1-1.3 1.5-1.8c.4-.5.6-.9.8-1.2.2.1.6.2 1.1.4l-.2.2c-1.2 1.6-2.3 2.8-3.1 3.6-.8.8-1.6 1.6-2.3 2.2h.8c.4 0 1.8-.1 4.2-.2 2.4-.1 4.4-.3 6-.4l-.9-.9c-.4-.4-.8-.8-1.2-1.1s-.8-.7-1-.9c.1-.1.4-.3.7-.5zm3.1 7.5v8.1H98v-1.3h-9.9v1.3H87V327h12.1zm-10.9 5.9h9.9v-5h-9.9v5zm20.5-10.9v13.2h-1.1v-4.8c0-1.9.1-4.2.2-7-.3.6-.7 1.3-1.1 1.9-.4.7-.8 1.2-1.2 1.7l-.5-.9c.4-.5.9-1.3 1.4-2.2.5-.9 1.1-2 1.6-3.2.5-1.2.9-2.4 1.2-3.4l1 .3-.1.1c-.4 1.7-.9 3.1-1.4 4.3zm13.1-.7h-6.7c-.3.7-.6 1.3-1 2s-.8 1.3-1.2 1.9h4v-2.5c.5 0 .8 0 1 .1v2.4h4.2v6.5c0 .4-.2.7-.6.9-.4.2-1.1.3-2.1.3l-.5-1c.5.1.8.1 1.1.1.3 0 .6 0 .8-.1.2-.1.3-.2.3-.4v-5.4h-3.3v9.1h-1v-9.1h-3.2v6.8h-1v-7.4c-.8 1.1-1.7 2.1-2.8 3l-.6-.9c1-.8 1.9-1.7 2.7-2.8.8-1 1.4-2.2 2-3.5h-3.5v-1h3.9c.4-1 .7-2 .9-3.1l1 .2-.1.2c-.2.8-.5 1.7-.8 2.7h7.7v1h-1.2zm21.1 3.7v.4c0 2.4-.1 4.2-.1 5.5s-.2 2.1-.5 2.6c-.2.5-.6.9-1.2 1.1s-1.5.4-2.6.4c-.1-.2-.2-.6-.5-1.2.4.1.7.1 1.1.1.5 0 .9 0 1.2-.2.3-.1.6-.2.7-.4.2-.2.3-.3.4-.5.1-.2.2-.5.2-.9.1-.4.1-1 .2-1.9 0-.9.1-2.3.1-4.1h-12.3c0 .9-.1 1.9-.2 2.8-.1.9-.3 1.7-.6 2.4-.2.7-.5 1.4-.8 1.9-.3.5-.5.9-.7 1.1s-.3.4-.4.5l-.3-.3c-.1-.1-.3-.3-.6-.5.4-.4.7-.9 1-1.5.3-.6.6-1.2.8-2 .2-.7.4-1.6.5-2.5.1-.9.2-1.8.2-2.8v-6.8h13.2v4.5h-12.2v2.3h13.4zm-2.1-5.9h-11.2v2.7h11.2v-2.7zm-2.6 12.8v.5h-5.4v1.4h-1v-6.1h6.4v4.2zm-5.4-.3h4.4v-3h-4.4v3zm21.1-12.6c-.2.7-.6 1.4-1 2.1-.4.8-1 1.5-1.5 2.3s-1.2 1.4-1.8 2c-.6.6-1.2 1.1-1.7 1.4l-.8-.8c.4-.2.9-.6 1.4-1.1.6-.5 1.2-1.2 1.9-2s1.2-1.6 1.6-2.3c.4-.7.7-1.4.9-2l1 .2v.2zm4.3 9.3.9-.5c.7.8 1.5 1.9 2.4 3.1.9 1.3 1.7 2.5 2.4 3.8l-1 .5c-.2-.5-.6-1.1-1.1-2-1.6.2-5.4.6-11.4 1.1-.4 0-.8.1-1.2.2l-.4-1c.6-.4 1.2-1 1.8-1.7.6-.7 1.2-1.5 1.8-2.4.6-.9 1.1-1.7 1.5-2.6.4-.8.8-1.5 1-2.1l1 .5-.2.4c-.5 1.1-1.2 2.2-2 3.4-.8 1.2-1.4 2.1-1.9 2.7-.5.6-1 1.1-1.3 1.5.7-.1 1.6-.1 2.8-.2 1.2-.1 2.5-.2 4-.4s2.8-.3 3.7-.4c-.8-1.4-1.8-2.7-2.8-3.9zm1-10.4c.2.7.5 1.4.9 2.1s.9 1.5 1.4 2.2c.5.7 1.1 1.4 1.8 2 .6.6 1.3 1 1.9 1.4l-.6.9c-.5-.3-.9-.6-1.4-1-.5-.4-.9-.8-1.4-1.3-.4-.5-.9-1-1.2-1.5s-.8-1.1-1.1-1.8c-.4-.7-.7-1.4-1-2.1h-3.3v-.9h4zm25 1.6v14c0 .6-.3 1-.8 1.2-.6.2-1.4.3-2.6.3l-.6-1.1c.6.1 1.2.1 1.5.1.4 0 .8 0 1-.1.3-.1.4-.3.4-.5v-4.3h-5.5v5.7h-1.1v-5.7h-5.3c-.1.9-.3 1.7-.5 2.4s-.5 1.4-.8 2.1c-.3.6-.7 1.2-1.2 1.6-.2-.2-.5-.5-.8-.7.8-.9 1.4-2 1.8-3.3.4-1.3.6-2.9.6-4.8v-7.8H184l.2.9zm-12.7 8.5h5.2v-3.9h-5.2v3.9zm5.2-8.5h-5.2v3.7h5.2v-3.7zm6.5 0h-5.5v3.7h5.5v-3.7zm-5.5 8.5h5.5v-3.9h-5.5v3.9zm28.2 1.8 1 .7c0 1-.1 1.7-.2 2.3s-.3.9-.6 1.2c-.3.3-.7.5-1.1.7-.5.2-1.1.2-2 .2-1 0-1.7 0-2.1-.1-.4 0-.7-.1-.9-.2-.4-.2-.6-.7-.6-1.5V326c-1.1.1-2.1.2-2.8.2v1.1c0 .5-.1.9-.2 1.4s-.2.9-.3 1.3c-.1.4-.3.9-.6 1.4-.3.5-.7 1-1.1 1.5-.5.5-1.1.9-1.8 1.3s-1.6.7-2.5.9l-.7-.9c1.1-.2 2.1-.6 2.9-1 .8-.4 1.5-1 2-1.7s.9-1.4 1.1-2.3c.2-.9.4-1.9.4-3-.2 0-.7.1-1.6.1-.9.1-1.5.1-1.8.1-.3 0-.7 0-1 .1l-.3-1c.3 0 .7-.3 1.3-.7.6-.4 1.3-1 2.1-1.9.8-.8 1.5-1.6 2.1-2.4h-7.1v-1h8.6c-.2-.3-.4-.7-.7-1.1s-.5-.7-.7-1l.9-.3c.2.2.5.6.8 1s.6.8.8 1.2l-.4.1h8v1h-9.1c-.3.5-.8 1.1-1.5 1.8s-1.3 1.4-1.8 1.9c-.6.5-1 .9-1.4 1.2 3-.1 6.3-.4 9.8-.7-.7-.7-1.5-1.4-2.4-2.1l.7-.5c.5.4 1.1.8 1.8 1.4.7.6 1.3 1.1 1.8 1.7s1 1.1 1.4 1.5l-.8.7c-.4-.5-.9-1.2-1.6-1.9l-3.1.3v7.3c0 .2.1.4.2.5s.3.2.4.2c.1 0 .2 0 .5.1h1.7c.5 0 1 0 1.4-.1.4-.1.7-.2.9-.5.1-.1.2-.3.3-.6.1-.3.2-.6.2-1.2-.3-.3-.3-.9-.3-1.6zm12.7-8.6h-6.8v3.4h-1v-4.2h7.8v-1.6h-6.9v-.8h14.9v.9h-7v1.6h7.9v4.2h-1v-3.4h-6.9v4.5h-1v-4.6zm8.5 10c.1.1.2.2.4.3.2.1.3.2.5.3-.1.9-.2 1.5-.5 2s-.8.7-1.5.9c-.7.2-1.6.3-2.8.3-1.2 0-2.1 0-2.6-.1s-.9-.1-1.1-.2c-.2-.1-.4-.3-.5-.6s-.2-.6-.2-1v-.7h-4.9v1.4h-.9v-7.1h12.9v5.8h-6.1v.7c0 .5.2.8.6.9.5.1 1.5.1 3 .1 1.3 0 2.3-.2 3-.5.3-.2.5-.5.7-.8-.1-.5 0-1 0-1.7zm-10-8.7v.7h-3.8v-.7h3.8zm-3.1 2h3.1v.7h-3.8v-.7h.7zm4.7 2.9h-4.9v1.7h4.9v-1.7zm-5 4.2h4.9v-1.8h-4.9v1.8zm11-2.5v-1.7h-5.1v1.7h5.1zm-5.1 2.5h5.1v-1.8h-5.1v1.8zm5.3-9.1v.7H221v-.7h3.9zm-3.2 2h3.2v.7H221v-.7h.7zm15.9-.5c0 1-.2 2.2-.4 3.7-.2 1.4-.5 2.7-.8 3.8.4-.1.8-.2 1.3-.4.5-.1.8-.3 1.1-.4 0 .4-.1.7-.1 1-.8.2-1.9.6-3.3 1s-2.5.8-3.2.9c-.3.1-.6.2-.7.2l-.2-1.1.8-.2c.6-.1 1.7-.4 3.3-.9.3-1.1.6-2.5.9-4.2.3-1.7.4-3 .4-4.1l.9.2v.5zm-5.2-2.1h6.5v.9h-7.4v-.9h.9zm1.2 2.2c.1.8.2 1.8.3 2.8.1 1 .1 2 .2 3l-.9.2c-.1-2.3-.3-4.2-.5-5.9l.9-.1zm2.4-3.3-.8.5c-.2-.5-.5-1-.8-1.6s-.6-1.1-.9-1.4l.8-.4c.3.4.6.8.9 1.4s.6 1 .8 1.5zm12.1.1h.8v1h-4.7v3.9h3.7v9.5h-1v-1.4h-6.2v1.4h-1v-9.5h3.5v-8.4h1.1v3.4h3.8zm-1.2 11.9v-6.2h-6.2v6.2h6.2zm13.2-4.3c.3-.2.6-.5.8-.8.2-.4.3-.9.3-1.5h-.9v-1.7h1.7v1.2c0 .5-.1 1-.2 1.5s-.3.8-.6 1.2-.5.5-.8.7l-.3-.6zm-245 32.9v.7h-1v-4.2c0-1.7.1-3 .1-4.1-.4.5-.9 1-1.4 1.5-.5.5-1 .9-1.4 1.2l-.6-.8c.5-.4 1.1-.8 1.7-1.4s1.1-1.2 1.7-1.9v-.9l.5.2c.9-1.2 1.6-2.4 2.2-3.7h-5.7v-1h6.1c.4-1 .7-1.9.8-2.8l1 .2-.1.1c-.1.3-.2.7-.4 1.2s-.3.9-.4 1.2h10v1H17.9c-.3.7-.7 1.5-1.2 2.3-.5.8-1 1.6-1.5 2.2v9zm12.1-1.2h1.2v1h-12v-1H22v-5.3h-4.7v-1H22v-3.7h1.1v3.7h4.6v1h-4.6v5.3h4.1zm4.4-7.1c.4-.5.9-1.2 1.5-2.1s1.1-1.9 1.7-3.2 1-2.4 1.3-3.5l.9.3-.1.1c-.5 1.6-1 3-1.6 4.2v13.2h-1.1v-.9c0-1.2 0-2.9.1-5.2 0-2.3.1-4.2.1-5.7-.3.7-.7 1.3-1.1 2s-.8 1.2-1.2 1.7l-.5-.9zm6.2-1.4-.7-.7c.4-.5.8-1.1 1.1-1.8.4-.7.7-1.4 1-2.2.3-.8.5-1.7.7-2.6l1 .2-.1.1c-.1.3-.2.7-.3 1.3-.1.5-.3.9-.4 1.2h8.3l.1-.2c.2.1.4.2.5.3.1.1.3.2.4.3l-.1.1c-.2.7-.5 1.4-.8 2.1-.3.7-.6 1.3-.9 1.7-.3-.2-.5-.4-.8-.5.2-.3.5-.8.7-1.3s.5-1.1.6-1.6h-8.5c-.2.6-.5 1.2-.9 1.8s-.5 1.3-.9 1.8zm3.1.9c-.1.1-.1.2-.1.3-.3 1.2-.7 2.3-1.2 3.4s-1 2-1.7 3c-.2-.2-.4-.3-.5-.5l-.3-.3c.5-.6 1-1.3 1.4-2.1s.7-1.6 1-2.3c.2-.7.4-1.3.5-1.8l.9.3zm3-3v10.8c0 .3-.1.6-.3.8-.2.2-.5.4-1 .5-.5.1-1.3.2-2.3.2-.1-.1-.3-.5-.6-1.1 0 0 .2 0 .6.1s.7.1 1.1.1c.5 0 .8 0 1.1-.1.3-.1.4-.3.4-.5v-10.6c.4-.2.7-.2 1-.2zm2.7 2.6c.4.7.8 1.6 1.4 2.7.5 1.1 1 2.3 1.5 3.7l-.8.6c-.4-1.1-.8-2.2-1.3-3.3-.5-1.2-1-2.2-1.6-3.2l.8-.5zm13.1-4.7v12.3h-1v-1h-3.9v1.9h-1v-13.1h1.8c.1-.2.2-.6.4-1 .1-.5.3-.9.3-1.3.1-.4.1-.6.1-.8l1.1.2-.1.2c-.1.4-.2.8-.4 1.3s-.3 1-.5 1.4h3.2zm-1 .9h-3.9v4.2h3.9v-4.2zm-3.9 9.5h3.9v-4.5h-3.9v4.5zm14.9-10.3v.4c0 3.5-.1 6.2-.2 8-.1 1.8-.3 3.1-.7 3.8-.1.1-.2.3-.3.5-.1.2-.3.4-.6.6-.2.2-.5.3-.8.4-.3.1-.7.2-1.1.3-.5.1-1.1.1-1.8.1 0 0 0-.1-.1-.2 0-.1-.1-.3-.2-.5l-.2-.4c.2 0 .4.1.6.1h.6c.9 0 1.5-.1 2-.4.5-.2.8-.6 1-1.1.1-.3.3-.8.4-1.4.1-.6.2-1.6.2-3s.1-3.5.1-6.4H63c-.1.3-.3.6-.5 1s-.4.7-.7 1.1c-.3.4-.5.7-.7.9-.1-.1-.4-.4-.8-.6.4-.5.9-1.1 1.4-1.9.5-.8.9-1.6 1.2-2.4.3-.8.5-1.5.7-2l1 .2-.1.1c-.3.9-.6 1.9-1 2.8h6.2zm-3.6 8.2-.8.6c-.3-.5-.7-1.2-1.2-1.9s-1-1.3-1.4-1.7l.7-.5c.3.3.8.9 1.3 1.5.6.6 1 1.3 1.4 2zm23.8 4.6h1.5v1H73.9v-1h8.3v-5.1h-5.7v-1h5.7v-4.5h-4.7c-.4.7-.7 1.4-1.2 2-.4.6-.8 1.1-1.2 1.5-.2-.2-.4-.5-.8-.7.4-.4.9-1 1.4-1.8.5-.8 1-1.7 1.4-2.6s.7-1.9.9-2.8l1 .2-.1.2c-.3 1-.6 2.1-1.1 3.1h4.3v-4.4c.5 0 .9 0 1.2.1v4.3h6.4v1h-6.4v4.5h6v1h-6v5.1h6.6zm9.1-8.6c-.2.4-.4.7-.5.9-.5-.4-1.2-.8-1.8-1.2-.7-.4-1.3-.7-1.8-1l.5-.8c.7.3 1.3.7 2 1.1.6.3 1.1.7 1.6 1zm-3.4 8.7c.6-.7 1.3-1.6 2.1-2.9s1.4-2.2 1.8-2.9c.3.4.5.8.6 1-.2.3-.5.8-.9 1.4s-.9 1.3-1.4 2.1c-.6.8-1 1.4-1.4 1.9l-.4.6-.9-.8.5-.4zm4.3-13.5c-.1.2-.3.5-.5.9-.5-.4-1.1-.9-1.8-1.3-.6-.4-1.2-.8-1.8-1l.5-.9c.9.5 1.7 1 2.2 1.3.5.4 1 .7 1.4 1zm11.4 3.6h1.2v1h-5.7v3.3h4v7.2h-1v-1.2h-7.1v1.2h-1v-7.2h4.1v-3.3h-5.7v-1h5.7v-3.7c-1.6.2-3.1.4-4.6.4 0-.1-.2-.5-.3-1 1.8 0 3.6-.2 5.4-.5 1.8-.3 3.3-.6 4.5-1.1.1.2.3.5.6.9l-.4.1c-.6.2-1.3.4-2 .5-.7.2-1.4.3-2.1.4v3.9h4.4zm-1.4 9.4v-4.3h-7.1v4.3h7.1zm22.4-13.7v15.8h-1v-1.5H118v1.5h-1v-16.7h15.4l-.1.9zM118 359.8h13.4v-13.6H118v13.6zm5.2-7.5c-.4.6-.9 1.1-1.5 1.7h5.8v.3c0 .2 0 .5-.1.8 0 .3-.1.5-.2.7-.1.3-.4.6-.7.7s-.8.2-1.5.2c-.1-.3-.2-.6-.4-1 .3.1.5.1.8.1.2 0 .4 0 .6-.1.2-.1.3-.2.4-.5 0-.1.1-.3.1-.7h-4.1v2.6c0 .3.1.5.4.6.2.1 1 .1 2.5.1.4 0 .8 0 1.2-.1.4 0 .8-.2 1.1-.3.2-.1.4-.3.5-.6s.2-.6.2-1.1l.8.5c0 .3-.1.6-.2.9s-.3.5-.5.8c-.2.2-.6.4-1.1.5-.5.1-1.2.2-2.2.2h-2c-.6 0-1-.1-1.2-.2-.3-.2-.5-.6-.5-1.2V354c-.5.5-1 .8-1.4 1.1-.5.3-.8.5-1.2.7-.1-.1-.1-.2-.3-.4s-.2-.3-.3-.4c1.6-.7 2.8-1.6 3.7-2.8h-3.2v-.8h3.7c.3-.5.5-1 .7-1.5h-3.8v-.8h4.1c.1-.4.2-.8.2-1.2.1-.4.1-.8.1-1.2l.9.2v.2c-.1.7-.2 1.4-.3 2h2.7l-.6-.2c.5-.5.8-1.2 1.2-1.9l.8.3-.1.2c-.3.5-.6 1.1-1 1.6h2.3v.8h-5.4c-.1.2-.2.5-.3.8-.1.3-.3.6-.4.8h6.6v.8h-2.9c.3.4.7.7 1.1 1 .4.3.8.6 1.3.9.5.3.9.5 1.3.7l-.5.8c-.7-.3-1.4-.8-2.2-1.3-.7-.6-1.4-1.3-2.1-2.1h-2.9zm-.8-3.5c-.1.1-.2.1-.4.2s-.3.1-.4.2c-.4-.6-.8-1.2-1.2-1.7l.7-.4c.4.4.8.9 1.3 1.7zm22.2 6.7c.3-.2.6-.5.8-.8.2-.4.3-.9.3-1.5h-.9v-1.7h1.7v1.2c0 .5-.1 1-.2 1.5s-.3.8-.6 1.2c-.3.3-.5.5-.8.7l-.3-.6zm18.9 3.5h-2.1v3.3h-.9V359h-3v-.9h3v-1.9h-2.4v-6.9h2.4v-1.9h-2.8v-.9h2.8v-2.3h.9v2.3h2.7v.9h-2.7v1.9h2.4v6.9h-2.4v1.9h3v.9h-.9zm-2.9-8.9h-1.5v2.2h1.5v-2.2zm-1.5 3v2.3h1.5v-2.3h-1.5zm4-.7v-2.2h-1.6v2.2h1.6zm-1.7 3h1.6v-2.3h-1.6v2.3zm13.2 5.3h1.1v.9h-11.3v-.9h5v-4.2h-4.2v-.9h9.5v.9h-4.3v4.2h4.2zm-.5-14.6h-9.4v-.9h10.5v.9c-.2.1-.6 0-1.1 0zm-5.9 8.1-.8.4c-.3-.5-.8-1.2-1.3-2.1-.6-.9-1-1.5-1.3-1.8.3-.3.5-.8.9-1.3s.6-1 .8-1.4l.5-1 .9.3-.2.3c-.3.5-.6 1-.9 1.6-.3.6-.6 1-.9 1.4.2.2.4.5.7.9.3.4.6.8 1 1.4.1.6.4 1 .6 1.3zm2.9-6.8s-.1.1-.2.3c-.2.4-.5.9-.9 1.5s-.7 1.1-1 1.5c.3.4.7 1 1.3 1.7.5.7.9 1.3 1.2 1.8-.3.1-.6.3-.8.4-.3-.5-.7-1.2-1.3-2-.6-.9-1-1.5-1.3-1.8.3-.5.7-1.1 1.2-1.8.4-.7.8-1.3 1-1.9l.8.3zm3.8 6.7c-.3.2-.6.3-.8.4-.3-.4-.7-1.1-1.3-2-.6-.9-1.1-1.5-1.4-1.9.3-.4.7-1 1.2-1.8.4-.7.8-1.3 1-1.9l.9.3c-.1.1-.2.2-.2.3-1 1.6-1.6 2.6-2 3 .1.2.4.5.7.8.3.4.6.8 1 1.3s.7 1.2.9 1.5zm8.9 2.1.4-.3c.3.3.6.7.9 1.1.3.4.6.8.8 1.2.2.4.4.7.6 1l-.6.5c-.3-.5-.6-1.1-1-1.6-.3-.5-.7-1-1.1-1.5v5.6h-1v-.6c0-1.5 0-3.2.1-5-.2.4-.5.9-.9 1.4-.4.5-.8 1-1.3 1.5s-1 .9-1.5 1.2c-.1-.1-.1-.2-.2-.4s-.2-.3-.3-.4c.7-.4 1.4-1 2.1-1.8.7-.8 1.3-1.5 1.8-2.4h-3.5v-.8h3.8v-2.1c.5 0 .8 0 1 .1v2.1h3v.8h-3v.4zm-2.2-6.1h-2.9v-.7h1.7V345h7.1v.7h-6.2v.9h5.4v.6h-5.4v.9h5.4v.6h-5.4v.9h6.9v.7h-5.6c-.2.3-.5.6-.9.9-.3.3-.7.6-1 .8 1.3-.1 2.9-.2 4.8-.5-.3-.4-.6-.7-.9-.9l.7-.3 1 1c.4.4.7.8.9 1.2l-.8.4c-.2-.3-.3-.6-.5-.7-.6.1-1.5.2-2.7.3-1.2.1-2.3.2-3.2.3l-.6.1-.2-.9c.3-.2.7-.4 1.1-.8s1-.8 1.3-1.1zm8.1 4c-.3.7-.6 1.3-1.1 2-.5.6-.9 1.1-1.4 1.5-.2-.2-.3-.5-.5-.7.3-.2.7-.5 1-.9.3-.4.6-.7.8-1.1s.4-.7.5-1.1l.8.2-.1.1zm3 4.1.7-.4c.6.7 1.2 1.3 1.7 2s.9 1.3 1.2 1.9l-.8.4c-.2-.3-.4-.8-.8-1.4l-6.1.7-.9.1-.2-.9c.2 0 .5-.3.9-.8s.9-1.1 1.4-1.9c.5-.8.9-1.5 1.1-2.1l.9.3-.1.1c-.2.5-.4 1-.7 1.5-.3.5-.6 1-1 1.6-.4.5-.7.9-1 1.3.7-.1 1.6-.2 2.7-.3 1.1-.1 2-.3 2.5-.4-.6-.6-1-1.2-1.5-1.7zm2.7-13.2c-.4.3-.8.5-1.5.9-.6.3-1.4.6-2.2.9s-1.7.5-2.5.6l-.4-.7c1.2-.1 2.3-.4 3.3-.8s2-.8 2.7-1.4l.6.5zm-6.2 6.6c1.2-.2 2.4-.5 3.6-.9s2.2-1 3.1-1.6l.7.5-.1.1c-.9.6-1.9 1.2-3 1.6-1.2.4-2.4.8-3.7 1l-.6-.7zm.1-2.6c.6-.1 1.2-.2 1.9-.4s1.5-.5 2.2-.8c.8-.3 1.4-.7 2-1.1l.7.5-.2.1c-.7.5-1.7 1-2.9 1.5s-2.3.8-3.2.9l-.5-.7zm4.4 4.2c.1.5.4 1 .7 1.5.3.5.7.9 1.1 1.3.4.4.8.6 1.2.8 0 0-.1.1-.2.3-.1.1-.1.3-.2.3 0 .1-.1.1-.1.2-.4-.2-.9-.6-1.3-1s-.8-.9-1.1-1.3c-.3-.5-.5-.9-.7-1.3h-2.7v-.9h3.3zm23.2 1.5v.3c0 .9 0 1.7-.1 2.4 0 .7-.1 1.3-.2 1.8s-.2.9-.4 1.3-.6.8-1.2 1c-.6.2-1.5.3-2.7.3 0-.1-.1-.3-.2-.5s-.2-.5-.3-.6c.4.1.8.2 1.2.2 1.2 0 2-.3 2.3-.9.2-.3.3-.8.4-1.5.1-.7.1-1.7.1-3h-12.3c-1.1 1-2.3 2-3.6 2.8-.1-.1-.2-.4-.5-.9 1.9-1.2 3.6-2.6 4.9-4.1 1.3-1.5 2.4-3.2 3.2-5.1h-6.8v-.9h7.2c.4-1 .7-2 .9-3.1l1 .2-.1.2c-.2.8-.5 1.7-.9 2.7h4.8c-.1.8-.3 2.1-.6 3.8h2c-.1.5-.2 1.7-.4 3.6h2.3zm-15.8 6.9c.2-.3.5-.6.7-1l.8-1.6c.3-.6.5-1.2.6-1.8l.9.2c-.2.7-.4 1.5-.8 2.4s-.8 1.6-1.2 2.3l-1-.5zm4.4-15-.9.4c-.4-.9-.8-1.7-1.2-2.4l.9-.3c.4.6.8 1.4 1.2 2.3zm8.2 8.1.3-2.7h-7.4c-.7 1-1.4 1.9-2.1 2.7h9.2zm-7.9 2.6.8-.2c.2.5.3 1.1.5 1.8.2.8.3 1.5.4 2.3 0 0-.1 0-.3.1-.2.1-.3.1-.4.1h-.2c-.1-.6-.2-1.3-.3-2.1-.2-.7-.4-1.4-.5-2zm6.7-9.1h-4c-.4 1-.9 1.9-1.5 2.9h4.9l.6-2.9zm-3.9 9.1.7-.3c.2.3.4.6.6 1.1.2.4.4.9.6 1.3.2.4.3.8.4 1l-.8.3c-.1-.5-.3-1-.6-1.7s-.6-1.3-.9-1.7zm5.4 2.1s-.3.1-.8.4c-.3-.7-1-1.8-1.9-3l.7-.2c.2.2.5.5.7.9.3.4.5.8.8 1.1.2.3.3.6.5.8zm24.7 1.7c-.2.4-.3.7-.4 1-1.6-.1-3.2-.3-4.6-.7-1.4-.3-2.7-.8-3.8-1.3-2.2 1.1-5.1 1.7-8.8 2-.1-.1-.1-.2-.2-.4s-.2-.3-.3-.5c1.8-.1 3.4-.3 4.8-.6 1.3-.3 2.6-.6 3.6-1.1-.2-.1-.5-.4-.9-.6-.4-.3-.7-.6-1.1-.9l-.8-.8c-.6.5-1.3 1-2 1.4s-1.5.8-2.2 1.1c-.2-.2-.4-.5-.6-.7 1-.4 2-.8 2.9-1.4.9-.6 1.7-1.2 2.3-1.8s1.1-1.1 1.4-1.5c-.1 0-.3 0-.5-.1-.2 0-.4-.1-.5-.2-.2-.1-.4-.3-.5-.5-.1-.2-.1-.5-.1-.9v-2.3c.1 0 .4 0 1 .1v2.4c0 .2 0 .3.1.4.1.1.2.2.5.2.2.1 1 .1 2.4.1.6 0 1.1 0 1.5-.1.4-.1.7-.2.9-.3.3-.2.5-.4.6-.8.1-.3.1-.7.2-1 .5.3.8.4.9.5 0 .5-.1.8-.3 1.1-.1.3-.4.6-.7.8-.3.2-.7.4-1.2.5-.5.1-1.2.2-2 .2h-1.1c-.1.2-.4.5-.6.8-.3.3-.5.6-.7.8h6.4l.1-.1.2.2c.1.1.3.2.4.3.1.1.2.1.2.2l-.2.1c-.6.7-1.2 1.2-1.9 1.8-.6.5-1.3 1-2 1.4.9.4 1.9.7 3.1 1 .9-.1 2.5.1 4.5.2zm-17-5.8-.7-.7s.1-.1.3-.2c.1-.1.4-.3.7-.6l1.2-1.2c.5-.5.7-1 .9-1.4l.8.5-.1.1c-.4.6-.8 1.3-1.5 1.9-.5.8-1.1 1.2-1.6 1.6zm0-3.4v-3.4h3.5c-.3-.7-.7-1.3-1-1.8l.9-.2c.5.8.8 1.4 1.1 2h3.2c-.2-.3-.3-.7-.5-1-.2-.3-.3-.6-.4-.7-.1-.2-.2-.3-.2-.3l.9-.2c.2.3.4.7.6 1.1s.4.8.5 1.1h2.5c.2-.3.5-.7.7-1.2s.4-.9.5-1.2l1 .3-.1.2c-.2.5-.4.9-.7 1.2-.2.3-.4.6-.4.7h3.7v3.4h-1v-2.6h-13.8v2.6h-1zm14.8-6.6c-4.2.7-8.8 1.1-13.8 1l-.4-.9c3.1 0 5.8 0 8.1-.2s4.3-.4 6-.8l.7.8-.6.1zm-9.8 11.5c.5.5 1 1 1.5 1.4.5.4 1 .8 1.6 1 1.2-.6 2.4-1.4 3.5-2.5l-6.6.1zm4.4-4.6c-.3-.3-.7-.5-1.2-.8s-1-.5-1.6-.8l.5-.5c.3.1.6.3 1 .4.4.2.7.4 1 .6.3.2.6.3.7.5l-.4.6zm4.1-1.1c.5.3 1 .8 1.6 1.4.6.6 1.2 1.3 1.7 1.9l-.8.6c-.4-.6-.9-1.2-1.5-1.8-.6-.7-1.2-1.2-1.7-1.7l.7-.4zm22.5 7.2h1.5v1H251v2.9h-1v-2.9h-8v-1h8v-2h-5.5v-6.8h5.5v-2.2h-7.4v-.9h7.4v-2.1h1.1v2.1h7.6v.9h-7.6v2.2h5.6v6.8h-5.6v2h6.6zm-7.6-7.9h-4.5v2.1h4.5v-2.1zm-4.5 2.9v2.2h4.5v-2.2h-4.5zm10.1-.8v-2.1h-4.6v2.1h4.6zm-4.6 3h4.6v-2.2h-4.6v2.2zm28.3 1.3 1 .7c0 1-.1 1.7-.2 2.3s-.3.9-.6 1.2c-.3.3-.7.5-1.1.7-.5.2-1.1.2-2 .2-1 0-1.7 0-2.1-.1-.4 0-.7-.1-.9-.2-.4-.2-.6-.7-.6-1.5V353c-1.1.1-2.1.2-2.8.2v1.1c0 .5-.1.9-.2 1.4s-.2.9-.3 1.3c-.1.4-.3.9-.6 1.4-.3.5-.7 1-1.1 1.5-.5.5-1.1.9-1.8 1.3s-1.6.7-2.5.9l-.7-.9c1.1-.2 2.1-.6 2.9-1 .8-.4 1.5-1 2-1.7s.9-1.4 1.1-2.3c.2-.9.4-1.9.4-3-.2 0-.7.1-1.6.1-.9.1-1.5.1-1.8.1-.3 0-.7 0-1 .1l-.3-1c.3 0 .7-.3 1.3-.7.6-.4 1.3-1 2.1-1.9.8-.8 1.5-1.6 2.1-2.4h-6.8v-1h8.6c-.2-.3-.4-.7-.7-1.1s-.5-.7-.7-1l.9-.3c.2.2.5.6.8 1s.6.8.8 1.2l-.4.1h8v1h-9.1c-.3.5-.8 1.1-1.5 1.8s-1.3 1.4-1.8 1.9c-.6.5-1 .9-1.4 1.2 3-.1 6.3-.4 9.8-.7-.7-.7-1.5-1.4-2.4-2.1l.7-.5c.5.4 1.1.8 1.8 1.4.7.6 1.3 1.1 1.8 1.7s1 1.1 1.4 1.5l-.8.7c-.4-.5-.9-1.2-1.6-1.9l-3.1.3v7.3c0 .2.1.4.2.5s.3.2.4.2c.1 0 .2 0 .5.1h1.7c.5 0 1 0 1.4-.1.4-.1.7-.2.9-.5.1-.1.2-.3.3-.6.1-.3.2-.6.2-1.2-.6-.3-.6-.9-.6-1.6zm12.7-8.6h-6.8v3.4h-1v-4.2h7.8v-1.6h-7v-.8H300v.9h-7v1.6h7.9v4.2h-1v-3.4H293v4.5h-1v-4.6zm8.5 10c.1.1.2.2.4.3.2.1.3.2.5.3-.1.9-.2 1.5-.5 2s-.8.7-1.5.9c-.7.2-1.6.3-2.8.3-1.2 0-2.1 0-2.6-.1s-.9-.1-1.1-.2c-.2-.1-.4-.3-.5-.6s-.2-.6-.2-1v-.7h-4.9v1.4h-.9v-7.1h12.9v5.8h-6.1v.7c0 .5.2.8.6.9.5.1 1.5.1 3 .1 1.3 0 2.3-.2 3-.5.3-.2.5-.5.7-.8-.1-.5 0-1 0-1.7zm-10-8.7v.7h-3.8v-.7h3.8zm-3.1 2h3.1v.7h-3.8v-.7h.7zm4.7 2.9h-4.9v1.7h4.9v-1.7zm-5 4.2h4.9v-1.8h-4.9v1.8zm11-2.5v-1.7h-5.1v1.7h5.1zm-5.1 2.5h5.1v-1.8h-5.1v1.8zm5.3-9.1v.7h-3.9v-.7h3.9zm-3.2 2h3.2v.7h-3.9v-.7h.7zm18.4 4.3c-.4 0-.8-.1-1.2-.3s-.7-.5-1-.9c-.2-.4-.4-.8-.4-1.3 0-.4.1-.8.3-1.2.2-.4.5-.7.9-.9.4-.2.8-.4 1.3-.4.4 0 .8.1 1.2.3.4.2.7.5.9.9.2.4.4.8.4 1.3 0 .4-.1.8-.3 1.2-.2.4-.5.7-.9 1-.3.2-.7.3-1.2.3zm0-.7c.5 0 .9-.2 1.3-.5.4-.4.5-.8.5-1.3s-.2-.9-.5-1.3c-.4-.4-.8-.5-1.3-.5s-.9.2-1.3.5c-.4.4-.5.8-.5 1.3s.2.9.5 1.3c.4.3.8.5 1.3.5z" style="fill:#1a1a1a"/>
    <g style="opacity:.6">
        <path class="st3" d="M203 206.1h-99c-1.3 0-2.4-1.1-2.4-2.4v-13.3c0-1.3 1.1-2.4 2.4-2.4h99c1.3 0 2.4 1.1 2.4 2.4v13.3c0 1.3-1 2.4-2.4 2.4zm-96.6-4.8h94.2v-8.5h-94.2v8.5z"/>
        <path class="st3" d="M191.2 192.8h-75.4c-1.3 0-2.4-1.1-2.4-2.4V77.2c0-3.3 2.7-6 6-6h68.1c3.3 0 6 2.7 6 6v113.2c.1 1.3-1 2.4-2.3 2.4zm-72.9-4.8h70.6V77.2c0-.7-.6-1.2-1.2-1.2h-68.1c-.7 0-1.2.6-1.2 1.2V188z"/>
        <path class="st3" d="M191.2 192.8h-75.4c-1.3 0-2.4-1.1-2.4-2.4v-64.5c0-1.3 1.1-2.4 2.4-2.4h75.4c1.3 0 2.4 1.1 2.4 2.4v64.5c0 1.3-1.1 2.4-2.4 2.4zm-72.9-4.8h70.6v-59.7h-70.6V188zm42.3-112h-14.1c-1.3 0-2.4-1.1-2.4-2.4V67c0-1.3 1.1-2.4 2.4-2.4h14.1c1.3 0 2.4 1.1 2.4 2.4v6.6c0 1.3-1.1 2.4-2.4 2.4zm-11.7-4.8h9.3v-1.8h-9.3v1.8zm29.9 37.6h-50.5c-2 0-3.7-1.6-3.7-3.7V89.3c0-2 1.6-3.7 3.7-3.7h50.5c2 0 3.7 1.6 3.7 3.7v15.8c-.1 2-1.7 3.7-3.7 3.7zm-49.4-4.8h48.2V90.4h-48.2V104z"/>
        <path class="st3" d="M115.9 128.3h-7.3c-1.9 0-3.4-1.5-3.4-3.4v-16.3c0-1.9 1.5-3.4 3.4-3.4h7.3c1.3 0 2.4 1.1 2.4 2.4v18.2c0 1.4-1.1 2.5-2.4 2.5zm-5.9-4.8h3.5v-13.4H110v13.4zm117.3-14.1c-2.4 0-4.3 1.9-4.3 4.3v9.9h-3.2c-.8 0-1.5.7-1.5 1.5v7.4c0 .8.7 1.5 1.5 1.5h32.3c.8 0 1.5-.7 1.5-1.5v-7.4c0-.8-.7-1.5-1.5-1.5h-3.2v-9.9c0-2.4-1.9-4.3-4.3-4.3s-4.3 1.9-4.3 4.3v9.9h-8.6v-9.9c0-2.4-2-4.3-4.4-4.3zm18.7 14.2h-2.7v-9.9c0-.8.6-1.4 1.4-1.4.8 0 1.4.6 1.4 1.4v9.9zm-21.5 3h26.2v4.5h-29.4v-4.5h3.2zm2.8-14.3c.8 0 1.4.6 1.4 1.4v9.9H226v-9.9c0-.8.6-1.4 1.3-1.4z"/>
        <path class="st3" d="M236 154.8c7.6 0 13.7-6.1 13.7-13.7v-8.6h-27.4v8.6c0 7.5 6.1 13.7 13.7 13.7z"/>
        <path class="st3" d="M238.7 157.5c0 7.8-6.4 14.2-14.2 14.2h-33.6v-5.5h33.6c4.8 0 8.7-3.9 8.7-8.7v-3.7h5.5v3.7z"/>
    </g>
    <path d="M292.6 274.9c25-29.1 40.1-66.9 40.1-108.2C332.7 74.9 258.3.6 166.6.6S.5 74.9.5 166.6c0 41.4 15.1 79.2 40.1 108.2" style="fill:none;stroke:#1a1a1a;stroke-linecap:round;stroke-linejoin:round;stroke-miterlimit:10"/>
</svg>
