<svg xmlns="http://www.w3.org/2000/svg" width="333.3" height="299.2" style="overflow:visible;enable-background:new 0 0 333.3 299.2" xml:space="preserve">
    <path d="M135.4 220.5h1.6v1.7h-7.3v2.6h5.4v7.8h-1.9v-1.2h-8.5v1.2h-1.9v-7.8h5.2v-2.6h-7v-1.7h7v-2.7h-7.2v2.5c0 2.6-.3 4.9-.9 7-.6 2.1-1.3 3.6-2.3 4.6-.3-.4-.8-.9-1.5-1.5.5-.6 1-1.3 1.4-2.3s.7-2 .9-3.1c.2-1.1.4-2.1.4-3 0-.9.1-1.5.1-1.9v-8.4H136v6h-6.2v2.8h5.6zm-14.8-7v2.6h13.3v-2.6h-13.3zm12.5 16.1v-3.2h-8.5v3.2h8.5zm24.9-6.7c.3.5.6 1 .9 1.6.4.6.8 1.1 1.3 1.7s1.1 1.1 1.7 1.6c.7.5 1.4 1 2.2 1.4l-.2.2c-.1.1-.4.6-.9 1.5-1.4-.8-2.7-1.8-3.8-3.1-1.1-1.3-2-2.7-2.7-4.3l-.9.4c.3.8.5 1.6.7 2.5.2.9.3 1.8.3 2.6 0 1.1-.4 1.9-1.1 2.4s-1.9.7-3.4.7c-.1 0-.6 0-1.3-.1-.2-.7-.4-1.3-.6-1.8.3 0 .6.1 1 .1h1c.9 0 1.5-.1 1.9-.3s.6-.6.6-1.1c0-.8-.1-1.7-.3-2.6-.9.7-2 1.4-3.3 2.1-1.3.7-2.6 1.3-3.9 1.8-1.3.5-2.5.9-3.6 1.2-.1-.2-.3-.5-.5-.8-.2-.3-.4-.6-.6-.8 1-.2 2.2-.6 3.6-1.1s2.7-1.1 4.1-1.8c1.4-.7 2.6-1.5 3.6-2.3-.2-.7-.4-1.2-.6-1.5-1.2.7-2.6 1.4-4.3 2.1-1.7.7-3.4 1.2-5.2 1.6-.3-.6-.6-1.1-.9-1.6 1.8-.3 3.6-.8 5.3-1.4 1.7-.6 3.1-1.3 4.4-2.1-.1-.2-.3-.4-.5-.6s-.4-.4-.5-.6c-1.7.9-4.1 1.6-7.2 2.2-.2-.4-.6-.9-1-1.5 1.9-.3 3.7-.7 5.4-1.2 1.7-.5 3-1.1 4.1-1.7h-6.5v-1.8h14v1.8h-4.8c-.3.2-.7.4-1.2.7-.5.3-.9.5-1.2.7.3.3.6.7 1 1.1s.6 1 .9 1.5c.5-.2 1.1-.5 1.9-.9l2.1-1.2c.7-.4 1.2-.8 1.4-1.1l1.4 1.4-.5.3c-1 .9-2.2 1.6-3.3 2.1zm-14.5-4.8v-4.9h9l-.6-1.2c-.2-.4-.4-.7-.6-1l2-.2c.5.7.9 1.5 1.3 2.4h8.7v4.9h-1.9v-3.4h-15.9v3.4h-2zm45.1 7.6 1.9 1.2c-.1 1.6-.3 2.7-.6 3.4-.3.7-.8 1.2-1.5 1.5-.7.3-1.7.5-3 .5-.9 0-1.6 0-2.3-.1-.7-.1-1.1-.2-1.5-.4-.3-.2-.5-.5-.6-.8-.1-.4-.2-.8-.2-1.5v-7.8l-2.9.2c0 1.5-.2 2.8-.6 4-.3 1.2-.8 2.2-1.5 3.1s-1.5 1.6-2.4 2.2c-1 .6-2.1 1.1-3.4 1.4-.1-.2-.6-.8-1.4-1.7 1.3-.3 2.4-.7 3.3-1.2.9-.5 1.7-1.1 2.3-1.8.6-.7 1-1.5 1.3-2.5.3-1 .4-2.1.5-3.3l-3.2.2c-.8 0-1.4.1-1.7.1l-.6-1.9c.3 0 .8-.3 1.4-.6.6-.4 1.4-1 2.3-1.9s1.7-1.8 2.4-2.7h-7.5v-1.9h9.9c-.3-.6-.7-1.3-1.3-2.1l1.9-.6c.4.6.8 1.1 1.1 1.6.3.5.5.8.6 1h8.8v1.9h-10.9c-.6.8-1.3 1.7-2.3 2.7s-1.8 1.8-2.5 2.4c3.1-.1 6.5-.3 10.2-.7-.8-.8-1.6-1.5-2.4-2.2l1.4-1c.8.6 1.8 1.4 2.9 2.5 1.1 1 2.1 2 3 3.1l-1.5 1.3c-.4-.6-1-1.3-1.8-2.1l-3.2.3v8.1c0 .4.2.6.6.7.1 0 .2.1.4.1h1.7c.6 0 1-.1 1.4-.2.4-.1.7-.3.9-.5.1-.1.2-.3.3-.6.1-.3.2-.7.2-1.4.1-.5.1-1.2.1-2zm16.7-9.8h-7.4v4H196v-5.3h9.3v-1.4h-8v-1.6h17.8v1.6H207v1.4h9.5v5.3h-1.9v-4H207v5.2h-1.8v-5.2zm10.3 11.4c.2.1.4.3.7.5.3.2.6.4.9.5v.4c0 .2-.1.5-.1.8-.1.4-.2.7-.4 1-.2.3-.5.6-.9.9-.4.3-.9.5-1.7.6s-1.8.3-3.2.3c-1.3 0-2.3 0-3.1-.1s-1.4-.2-1.7-.4c-.3-.2-.5-.4-.6-.7-.1-.3-.2-.5-.2-.8V229h-5.2v1.6h-1.8v-8.7h15.8v7.1H207v.5c0 .4.2.7.6.8.4.1 1.6.1 3.5.1.6 0 1.3 0 1.9-.1.6-.1 1.1-.2 1.6-.5.3-.2.6-.5.7-1 .2-.1.3-.7.3-1.5zm-11.7-10.2v1.2h-4.5v-1.2h4.5zm-3.7 2.3h3.7v1.1h-4.5v-1.1h.8zm5.1 4.1h-5.2v1.5h5.2v-1.5zm-5.2 4.3h5.2v-1.6h-5.2v1.6zm12.4-2.8v-1.5h-5.4v1.5h5.4zm-5.4 2.8h5.4v-1.6h-5.4v1.6zm5.9-10.7v1.2h-4.5v-1.2h4.5zm-3.7 2.3h3.7v1.1h-4.5v-1.1h.8z" style="fill:#3aae36"/>
    <path d="M95.8 271.4v.6H95v-3.4c0-1.3 0-2.4.1-3.3-.4.4-.7.8-1.1 1.2s-.8.7-1.1 1l-.5-.6c.4-.3.9-.7 1.4-1.1.5-.4.9-.9 1.3-1.5v-.7l.4.2c.7-.9 1.3-1.9 1.8-3h-4.6v-.8h4.9c.3-.8.5-1.5.7-2.3l.7.3-.1.1c-.1.2-.2.6-.3 1s-.2.7-.3 1h8v.8H98c-.3.6-.6 1.2-1 1.9s-.8 1.3-1.2 1.8v6.8zm9.7-.9h.9v.8h-9.5v-.8h4.4v-4.3h-3.6v-.8h3.6v-2.9h.9v2.8h3.6v.8h-3.6v4.3h3.3zm13.6-5c.4 1.1 1 2 1.7 2.8.7.8 1.5 1.4 2.4 1.9-.2.2-.3.5-.4.7-.9-.4-1.6-1.1-2.4-1.9s-1.4-1.9-1.9-3.2c-.2.1-.6.3-1 .4.2.5.4 1.1.5 1.7.1.6.2 1.2.2 1.8 0 .7-.2 1.1-.6 1.4-.4.3-1.1.4-2 .4h-1.1l-.3-.8c.2 0 .4 0 .7.1h.7c.6 0 1.1-.1 1.4-.2.3-.2.4-.5.4-.9 0-.8-.1-1.5-.2-2.3-.6.5-1.3 1-2.1 1.5s-1.7.9-2.6 1.2c-.9.4-1.8.7-2.7.9l-.4-.7c.5-.1 1.1-.3 1.7-.5.6-.2 1.3-.5 2-.8.7-.3 1.4-.7 2.1-1.1.7-.4 1.3-.8 1.9-1.3-.2-.5-.3-.9-.5-1.3-.4.3-1 .6-1.6.9-.6.3-1.4.6-2.2.9-.8.3-1.7.6-2.6.8 0-.1-.1-.2-.2-.3-.1-.1-.2-.3-.2-.3.8-.1 1.7-.4 2.6-.7.9-.3 1.7-.6 2.3-1 .6-.3 1.1-.6 1.5-.9-.3-.4-.6-.8-.9-1.1-.5.3-1.1.5-1.9.8-.7.2-1.7.5-2.8.7l-.4-.6c.5-.1.9-.2 1.4-.3.5-.1.9-.2 1.4-.4.5-.1 1-.3 1.6-.6.6-.3 1.2-.6 1.7-.9h-4.5v-.8h9.2v.8h-3.6c-.5.4-1 .7-1.5 1 .3.2.6.6.8.9.3.4.5.8.7 1.2.4-.1.8-.3 1.3-.6.5-.2 1-.5 1.4-.8.5-.3.8-.6 1-.8l.6.6-.2.1c-.3.2-.7.5-1.1.7-.6.5-1 .7-1.3.9zm-9.4-3.1v-3.1h6.1c-.3-.6-.6-1.1-.9-1.5l.8-.1c.2.2.3.5.5.8.2.3.3.6.5.8h6v3.1h-.8V260h-11.3v2.4h-.9zm29.3-.9v6.2h-.8v-1h-4.8v5.4h-.9v-5.4h-4.7v1h-.8V261h5.6v-3.2h.9v3.2h5.7l-.2.5zm-11.1 4.4h4.7v-4.3h-4.7v4.3zm5.5 0h4.8v-4.3h-4.8v4.3zm10.1-5.2h5.1v.7h-5.8v-.7h.7zm4.6 6.5v4.6h-.7v-.8h-3.2v.9h-.8v-4.6h4.7zm-.9-3.7h-3.6v-.7h4.2v.7h-.6zm-3.6 2.2v-.7h4.2v.7h-4.2zm.6 4.7h3.2v-2.5h-3.2v2.5zm2.4-10.4-.7.4c-.4-.8-.8-1.5-1.2-2.1l.6-.3c.2.3.4.6.6 1 .3.2.5.6.7 1zm10.5 11.3c-.1.2-.3.5-.4.7-.7-.2-1.4-.6-2-.9-.6-.4-1.2-.8-1.7-1.3-1 1-2.3 1.7-4 2.2-.1-.2-.2-.4-.4-.7 1.5-.4 2.8-1.1 3.8-2-.4-.5-.8-1.1-1.2-1.7-.3-.6-.6-1.3-.8-2h-1.1v-.7h5.5l.1-.1c.4.3.6.5.7.5h-.1c-.4 1.6-1.1 2.9-2.1 4 1.1.8 2.3 1.5 3.7 2zm-5.3-11.2c0 .8-.2 1.5-.6 2.2-.4.6-1 1.2-1.8 1.5-.1-.1-.2-.4-.4-.6.8-.4 1.3-.9 1.6-1.4s.5-1.1.5-1.8v-1.5h3.7v3.5c0 .2.1.3.2.3h.9c.5 0 .8 0 1.1-.1l-.1.7h-2c-.3 0-.5-.1-.6-.2-.2-.1-.3-.5-.3-.9V259h-2.2v1.1zm3 5.4h-3.5c.4 1.2.9 2.3 1.7 3.2.9-1 1.4-2 1.8-3.2zm17.6 5h1.2v.8h-13.8v-.8h2.8v-6.4h3.2c.1-.2.2-.5.3-1h-5.7v-.7h5.9c.1-.6.2-1 .3-1.2H161v-2.9h11.6v2.9h-5.2c-.1.2-.2.6-.3 1.2h6.3v.7H167l-.2 1h4.3v6.4h1.3zm-10.8-11.6v1.7h2.9v-1.7h-2.9zm8.5 5.7h-6.8v1.1h6.8v-1.1zm0 2.7v-1.1h-6.8v1.1h6.8zm-6.8.5v1.1h6.8v-1.1h-6.8zm0 1.6v1.1h6.8v-1.1h-6.8zm1.9-8.8h2.9v-1.7h-2.9v1.7zm6.5 0v-1.7h-2.9v1.7h2.9zm18 7.2.8.5c0 .8-.1 1.4-.2 1.8-.1.4-.3.8-.5 1s-.5.4-.9.5c-.4.1-.9.2-1.6.2-.8 0-1.3 0-1.7-.1s-.6-.1-.7-.2c-.3-.2-.5-.6-.5-1.2v-5.7c-.9.1-1.7.1-2.3.2v.9c0 .4-.1.7-.1 1.1-.1.4-.2.7-.3 1.1-.1.3-.3.7-.5 1.1-.2.4-.5.8-.9 1.2-.4.4-.9.7-1.4 1-.6.3-1.2.6-2 .7l-.6-.7c.9-.2 1.7-.5 2.3-.8.7-.4 1.2-.8 1.6-1.3.4-.5.7-1.1.9-1.9.2-.7.3-1.5.3-2.4-.1 0-.6 0-1.3.1-.7.1-1.2.1-1.5.1-.3 0-.5 0-.8.1l-.2-.8c.2 0 .5-.2 1-.6.5-.3 1.1-.8 1.7-1.5.7-.7 1.2-1.3 1.7-1.9h-5.5v-.8h6.9c-.1-.3-.3-.6-.5-.9-.2-.3-.4-.6-.6-.8l.8-.3c.2.2.4.5.6.8.2.3.5.7.6 1l-.3.1h6.4v.8H183c-.3.4-.7.9-1.2 1.5s-1 1.1-1.5 1.5c-.5.4-.8.7-1.1.9 2.4-.1 5-.3 7.8-.6-.6-.6-1.2-1.1-1.9-1.6l.6-.4c.4.3.9.7 1.4 1.1.5.5 1 .9 1.4 1.4s.8.8 1.1 1.2l-.6.8c-.3-.4-.7-.9-1.3-1.5l-2.4.2v5.8c0 .2 0 .3.1.4.1.1.2.1.3.2h1.7c.4 0 .8 0 1.1-.1.3-.1.5-.2.7-.4.1-.1.2-.2.3-.4s.2-.5.2-.9v-1.5zm10.1-6.9h-5.5v2.7h-.8v-3.3h6.3V259h-5.6v-.7h12.1v.7h-5.7v1.3h6.3v3.3h-.8v-2.7h-5.5v3.6h-.8v-3.6zm6.8 8c.1.1.2.1.3.2.1.1.3.2.4.2 0 .7-.2 1.2-.4 1.6-.3.3-.6.6-1.2.7-.5.2-1.3.2-2.3.2h-2.1c-.5 0-.7-.1-.9-.2-.2-.1-.3-.3-.4-.4-.1-.2-.1-.5-.1-.8v-.6h-4v1.1h-.8v-5.8h10.3v4.5h-4.9v.5c0 .4.2.6.5.7.4.1 1.2.1 2.4.1 1.1 0 1.8-.1 2.4-.4.2-.1.4-.4.5-.6.2 0 .3-.5.3-1zm-8-7v.5h-3v-.5h3zm-2.5 1.6h2.5v.5h-3v-.5h.5zm3.8 2.4h-4v1.4h4v-1.4zm-4 3.3h4v-1.4h-4v1.4zm8.8-2v-1.4h-4.1v1.4h4.1zm-4.1 2h4.1v-1.4h-4.1v1.4zm4.2-7.3v.5h-3v-.5h3zm-2.5 1.6h2.5v.5h-3v-.5h.5zm12.3 2.5-.5.5c-.3-.9-.7-1.9-1.2-2.8v8.3h-.8v-.6c0-1.8 0-4.5.1-8.1-.2.8-.4 1.6-.7 2.4s-.5 1.4-.8 1.9c-.3.5-.5.9-.7 1.2 0-.1-.2-.4-.4-.8.3-.3.5-.8.8-1.4.3-.6.6-1.3.9-2.1.3-.8.5-1.6.7-2.4h-2.1v-.8h2.2v-3.4h.8v3.4h1.6v.8h-1.6v1.2l.3-.2c.2.4.5.9.7 1.4.3.5.5 1 .7 1.5zm9.4 1.6c-.5-.3-1-.7-1.4-1v5.4h-.8v-.6h-5.2v.6h-.8v-5.2c-.1.1-.4.3-.6.5s-.5.4-.7.5l-.4-.7c.6-.4 1.1-.8 1.6-1.3s.9-1 1.3-1.6h-2.3v-.7h2.7c.1-.2.2-.4.3-.7.1-.3.2-.6.3-.8h-2.5v-.7h2.7c.1-.5.2-1 .3-1.4h-3.7v-.7h3.8c.1-.4.1-.9.1-1.3l.8.1v.1l-.1 1.1h4.1v.7h-4.3c-.1.5-.2.9-.3 1.4h4.1v.7h-4.3c-.1.2-.2.5-.3.8-.1.3-.2.6-.4.8h5.8v.7h-2.6c.6 1.1 1.6 2 2.9 2.8 0 .2-.1.4-.1.5zm-1.6-1.2c-.3-.3-.6-.7-.9-1.1s-.5-.8-.7-1.1h-2.9c-.2.4-.5.8-.8 1.2-.3.4-.6.8-.9 1.1h.1c.9-.2 1.7-.5 2.4-.8.1.1.2.3.4.5l-.3.1c-.6.2-1.3.5-2.2.7v1.6h2v.6h-2v1.6h5.2v-1.6h-2v-.6h2V267h-2.3v-.6h2.9zm10.6.4c.3-.2.5-.4.6-.7.2-.3.3-.7.3-1.2h-.8v-1.4h1.4v1c0 .4-.1.8-.2 1.2s-.3.7-.5.9-.4.4-.7.6l-.1-.4zM78.4 290.6l-.4.7c-.3-.3-.7-.6-1.2-.9-.4-.3-.8-.6-1.2-.8.1-.2.3-.4.4-.6.3.2.7.4 1.2.8.5.2.9.5 1.2.8zm-2.4 7.2c.3-.5.7-1.3 1.2-2.2.5-1 .8-1.7 1-2.2l.6.7c-.2.5-.5 1.2-1 2.1-.5.9-.8 1.6-1.1 2.1l-.3.6-.7-.6.3-.5zm.3-12 .5-.6c.3.2.7.5 1.2.8.4.3.8.7 1.2.9l-.4.7c-.4-.3-.8-.7-1.2-1-.6-.4-1-.7-1.3-.8zm13.1.4h.5v.7h-2.5v2H85v1.3h4.1v7.6c0 .3-.1.6-.4.7s-.8.2-1.6.2c-.1-.2-.2-.5-.3-.8h.8c.2 0 .4 0 .6-.1.1 0 .2-.2.2-.3v-6.6H85v8h-.8v-8h-3.4v8.1H80v-8.8h4.1v-1.3h-2.4v-2h-2.3v-.7h2.3v-1.3h.8v1.3h4v-1.4h.8v1.4h2.1zm-6.3 6.1c0 .5.1 1 .2 1.5l.3 1.5c.1.4.3.8.5 1-.2.1-.3.3-.4.4-.4-.6-.6-1.4-.8-2.5-.1.6-.3 1.1-.5 1.5s-.4.8-.6 1.1c-.1-.2-.3-.3-.4-.4.3-.3.6-.8.8-1.4s.4-1.3.5-2.1h-1.1v-.6h1.5zm-.5-4h4v-1.4h-4v1.4zm5.1 8.4c-.3-.5-.6-1.4-.8-2.5-.1.6-.3 1.1-.5 1.5-.2.4-.4.8-.6 1-.1-.2-.3-.3-.4-.4.3-.3.5-.7.8-1.4.2-.6.4-1.3.5-2.1h-.9v-.6h1.5c0 .4.1.9.1 1.4.1.5.2 1 .3 1.4.1.4.3.8.5 1.1l-.5.6zm13.8 1.2c1.7 0 3.4-.1 5-.3l-.2.8c-1.6.1-3.2.2-4.8.2-.3 0-.7 0-1.2-.1s-.9-.2-1.4-.3-.9-.3-1.3-.6c-.4-.2-.8-.5-1.1-.8-.3-.3-.6-.7-.8-1-.2-.3-.3-.7-.4-.9-.3.8-.6 1.6-1 2.3s-.8 1.3-1.2 1.8c-.2-.2-.4-.4-.7-.5.7-.7 1.3-1.6 1.8-2.7s.8-2.3 1-3.6l.8.2-.1.1c0 .2-.1.4-.1.7-.1.3-.1.5-.1.6.1.9.4 1.7 1.1 2.4.6.7 1.4 1.2 2.4 1.5v-7H95v-5h9.2v5h-4.3v3h5.2v.8h-5.2v3.5c.5-.1 1.1-.1 1.6-.1zm-5.8-11.6v3.5h7.6v-3.5h-7.6zm25.2.4V299h-.9v-1.3h-7.6v1.3h-.9v-13.1h9.4v.8zm-.8 0h-7.6v4.6h7.6v-4.6zm-7.7 10.3h7.6v-5h-7.6v5zm27-9.2v3h-.8v-2.7h-11.1v2.7h-.8v-3.4h3.3c-.2-.3-.4-.6-.7-.9-.3-.3-.5-.6-.7-.9l.8-.3c.3.3.5.7.8 1.1.3.4.5.8.7 1h1.8v-2.7h.9v2.7h1.7c.1-.1.3-.3.5-.6s.4-.5.6-.9.4-.6.5-.8l.8.4-.1.1c-.3.5-.8 1.1-1.3 1.7h3.2c-.1.2-.1.3-.1.5zm-1.1 6.7v2.5c0 .2-.1.4-.2.6-.1.1-.3.3-.6.3-.3.1-.5.1-.8.1h-1l-.4-.8c.1 0 .3 0 .5.1h.6c.4 0 .7 0 .8-.1s.2-.2.2-.4v-2.1h-4.1v4.3h-.9v-4.3h-4v3.2h-.8V294h4.9v-1.5h-3.2v-3.2h7.3v3.2h-3.3v1.5h5v.5zm-8.2-4.3v1.9h5.7v-1.9h-5.7zm12.4 2.8c.4-.2.8-.5 1.1-.8.4-.3.7-.6 1.1-1s.7-.8 1.1-1.2.7-1 .9-1.4l.7.4s-.1 0-.1.1c-.5.7-1 1.4-1.6 2.1v7.9h-.7v-2.9c0-1.2 0-2.6.1-4.3-.3.3-.7.7-1.1 1-.4.3-.8.6-1.1.9 0-.1-.1-.2-.2-.4s-.2-.3-.2-.4zm4.6-7.6c-.2.4-.6.8-1 1.2-.4.5-.9.9-1.5 1.4-.6.5-1.1.8-1.6 1.1l-.5-.7c.7-.4 1.5-.9 2.3-1.6.8-.7 1.4-1.4 1.7-2l.7.5-.1.1zm8.9 4.5h.8v.8h-2.4v7c0 .2 0 .4-.1.5-.1.2-.2.3-.4.4-.2.1-.5.2-1 .3-.4.1-1.1.1-1.9.1l-.5-.9c.5.1 1.1.1 1.6.1.3 0 .6 0 .8-.1.2 0 .4-.1.5-.2s.2-.2.2-.4v-6.9h-5.2v-.8h7.6zm-.5-3.2H149v-.8h7.3v.8h-.8zm4 11.8c.2-.6.3-1.2.4-2 .1-.8.2-1.5.2-2.1l.6.1c0 .5 0 1-.1 1.5-.1.6-.1 1.1-.2 1.6s-.2.9-.3 1.2l-.6-.3zm6.5-5.9v.3c0 1.4 0 2.5-.1 3.2 0 .7-.1 1.3-.2 1.6-.1.4-.3.6-.6.8-.3.1-.6.2-.8.3h-.6l-.4-.9c.2.1.4.1.7.1.6 0 .9-.2 1.1-.7.1-.2.1-.4.1-.6 0-.3.1-.7.1-1.3v-2.3h-5v-7.6h5.8v.7h-2.3v1.7h1.8v.6h-1.8v1.7h1.8v.6h-1.8v1.7h2.2zm-3-6.4h-2v1.7h2v-1.7zm0 4.1v-1.7h-2v1.7h2zm-1.9 2.3h2v-1.7h-2v1.7zm.2 1.9.5-.1c.1.4.1.8.2 1.5.1.6.1 1.2.1 1.9l-.5.1v-1.1c0-.5-.1-.9-.1-1.3-.1-.5-.1-.8-.2-1zm1.6-.2c.3.9.4 1.8.5 2.5l-.4.2c-.1-.6-.2-1.5-.5-2.6l.4-.1zm1.7 1.8-.5.1c0-.1-.1-.4-.2-.7-.1-.3-.2-.8-.4-1.2l.4-.1c.1.2.2.5.3.9.2.3.3.7.4 1zm4.9-.2c.4.4.8.8 1.3 1.1s1 .5 1.5.7c.5.2 1 .3 1.6.4-.1.3-.2.6-.3.8-.3-.1-.7-.2-1-.3s-.7-.3-1.1-.5-.8-.4-1.2-.7c-.4-.3-.8-.6-1.1-1-.7 1.1-1.6 1.9-2.8 2.5l-.5-.7c.6-.3 1.1-.6 1.6-1s.9-.9 1.2-1.4c-.3-.4-.5-.7-.7-1.1l-.6-1.2.6-.4c.3.8.6 1.5 1 2.1.1-.3.3-.6.4-1 .1-.4.2-.7.2-1s.1-.6.1-.9h-3v-4.7h3v-2.7h.8v2.7h2.9v4.7h-2.9c0 .5-.1 1.1-.2 1.7s-.5 1.3-.8 1.9zm-2-7.6v3.3h2.2v-3.3h-2.2zm5.1 3.3v-3.3h-2.2v3.3h2.2zm16.6 6h1.2v.8h-13.8v-.8h6.4v-2.3h-5.4v-.8h5.4v-2h-4.6v-6.9h10v6.9h-4.7v2h5.4v.8h-5.4v2.3h5.5zm-6.2-11.2h-3.8v2.3h3.8v-2.3zm-3.8 3v2.5h3.8v-2.5h-3.8zm8.4-.7v-2.3h-3.9v2.3h3.9zm-3.9 3.2h3.9v-2.5h-3.9v2.5zm13.1-1.6v8.6h-.8v-3.3c0-1.4 0-2.9.1-4.6-.2.7-.5 1.3-.8 2-.3.7-.6 1.3-1 1.9-.3.5-.7 1-1 1.3-.1-.3-.3-.5-.4-.7.2-.2.5-.6.9-1.1s.7-1.1 1.1-1.9.7-1.5.9-2.3h-2.5v-.7h2.7v-2.7c-.5.2-1 .3-1.3.4-.4.1-.6.1-.8.2l-.3-.7c.7-.1 1.6-.3 2.4-.6.9-.3 1.6-.6 2.2-.9l.5.6c-.1 0-.2.1-.3.1-.4.2-1 .4-1.7.7v3h2.1v.7h-2zm2.3 3.6-.5.4c-.4-.9-1-1.7-1.6-2.5.2-.1.4-.3.5-.3.5.7 1.1 1.5 1.6 2.4zm7.2 3.7h.9v.7h-8.8v-.7h4.1v-2.2h-2.7v-.7h2.7v-2.1c-.7.1-1.6.1-2.9.2l-.2-.7c.6 0 1.1 0 1.8-.1s1.2-.1 1.8-.1c.5-.1 1.1-.1 1.6-.2s1-.2 1.4-.3c0 0 .2.2.5.6l-.3.1c-.8.2-1.7.3-2.8.4v2.2h2.8v.7h-2.8v2.2h2.9zm-6.3-7.3v-4.2h6v4.2h-6zm5.2-3.6h-4.4v2.9h4.4v-2.9zm6.6 6.2c0 .7-.1 1.4-.1 2s-.2 1.2-.3 1.7c-.1.5-.3 1-.5 1.4-.2.4-.4.7-.7 1l-.3-.3-.3-.3c.5-.5.8-1.3 1.1-2.2.3-.9.4-2.1.4-3.4v-6.5l.4.2c.8-.1 1.7-.3 2.6-.6s1.7-.6 2.3-.9l.4.7-.3.1c-.7.3-1.5.5-2.3.7-.8.2-1.6.4-2.5.6v1.4h4.1v4.3h-4zm0-3.6v2.9h3.4v-2.9h-3.4zm11.8.6h.7v.8h-2.1v8.2h-.8v-8.2h-2.7v.3c0 .9-.1 1.7-.2 2.5s-.4 1.5-.7 2.2c-.3.7-.7 1.3-1.1 1.8-.4.5-.9.9-1.4 1.3l-.7-.6c.5-.3.9-.7 1.4-1.2s.8-1 1.1-1.6c.3-.6.5-1.3.7-2 .2-.7.2-1.5.2-2.4v-4.5l.5.2c.8-.2 1.6-.4 2.5-.7.9-.3 1.6-.6 2.3-.9.2.4.4.6.5.7-.1 0-.2.1-.3.1-.7.3-1.5.6-2.3.9-.8.3-1.6.5-2.4.7v2.6h4.8zm15.8 3.4h-5.7c-.1.3-.3.7-.6 1.3h6.3v3.5c0 .2 0 .3-.1.5-.1.1-.2.3-.4.3-.2.1-.4.1-.7.2h-.8l-.4-.8c.3 0 .6.1.9.1.2 0 .4 0 .6-.1.1 0 .2-.2.2-.3v-2.7H236v3.7h-.8v-3.7h-2.6v3.7h-.8v-3.7h-2.7v3.8h-.8v-4.5h4c.2-.3.3-.6.4-.9.1-.2.2-.4.2-.5h-5.8v-.7h13.4v.7c-.2.1-.6.1-1.1.1zm-12-2.5v-3.4h6v-1.3h-5.3v-.7h11.4v.7h-5.4v1.3h6v3.4h-.8V288h-5.2v3.7h-.8V288h-5.2v2.8h-.7zm4.9-1.6v.5h-2.9v-.5h2.9zm-2.4 1.6h2.4v.5h-2.9v-.5h.5zm8.3-1.6v.5h-2.9v-.5h2.9zm-2.4 1.6h2.4v.5h-2.9v-.5h.5zm14.8 3.2c-.3 0-.7-.1-1-.3s-.6-.4-.8-.7-.3-.7-.3-1c0-.3.1-.7.3-1s.4-.6.7-.8c.3-.2.7-.3 1-.3.3 0 .7.1 1 .3.3.2.6.4.8.7s.3.7.3 1c0 .3-.1.7-.3 1-.2.3-.4.6-.7.8-.2.2-.6.3-1 .3zm0-.6c.4 0 .7-.1 1-.4.3-.3.4-.6.4-1s-.1-.7-.4-1c-.3-.3-.6-.4-1-.4s-.7.1-1 .4c-.3.3-.4.6-.4 1s.1.7.4 1 .6.4 1 .4z" style="fill:#1a1a1a"/>
    <g style="opacity:.6">
        <path d="M211 188.1h-88.8c-6.2 0-11.3-5.1-11.3-11.3v-69.5c0-1.7 1.4-3.1 3.1-3.1 1.7 0 3.1 1.4 3.1 3.1v69.5c0 2.8 2.3 5.1 5.1 5.1H211c2.8 0 5.1-2.3 5.1-5.1v-69.5c0-1.7 1.4-3.1 3.1-3.1 1.7 0 3.1 1.4 3.1 3.1v69.5c0 6.2-5.1 11.3-11.3 11.3z"/>
        <path d="M199.2 170.2H134c-1.7 0-3.1-1.4-3.1-3.1v-46.8c0-1.7 1.4-3.1 3.1-3.1h65.2c1.7 0 3.1 1.4 3.1 3.1v46.8c0 1.7-1.4 3.1-3.1 3.1zm-62.1-6.2h59v-40.6h-59V164zm76-74.6c-1.7 0-3.1-1.4-3.1-3.1V60.4h-16v8.3c0 1.7-1.4 3.1-3.1 3.1-1.7 0-3.1-1.4-3.1-3.1V57.3c0-1.7 1.4-3.1 3.1-3.1H213c1.7 0 3.1 1.4 3.1 3.1v29c.1 1.7-1.3 3.1-3 3.1z"/>
        <path d="M237.5 112.3c-.7 0-1.4-.2-2-.7l-68.9-59.3-68.9 59.3c-1.3 1.1-3.2 1-4.4-.3-1.1-1.3-1-3.3.3-4.4l70.9-61c1.2-1 2.9-1 4 0l70.9 61c1.3 1.1 1.4 3.1.3 4.4-.4.6-1.3 1-2.2 1zm-70.9 56.6c-1.7 0-3.1-1.4-3.1-3.1v-19.2h-27.2c-1.7 0-3.1-1.4-3.1-3.1 0-1.7 1.4-3.1 3.1-3.1h27.2v-19.2c0-1.7 1.4-3.1 3.1-3.1 1.7 0 3.1 1.4 3.1 3.1v19.2H198c1.7 0 3.1 1.4 3.1 3.1 0 1.7-1.4 3.1-3.1 3.1h-28.2v19.2c-.1 1.7-1.5 3.1-3.2 3.1z"/>
        <path d="M164.2 74.6h11.2l-8.1 16.2h10.6L162.7 120l3.9-21.5h-8.9z"/>
    </g>
    <path d="M292.6 274.9c25-29.1 40.1-66.9 40.1-108.2C332.7 74.9 258.3.6 166.6.6S.5 74.9.5 166.6c0 41.4 15.1 79.2 40.1 108.2" style="fill:none;stroke:#1a1a1a;stroke-linecap:round;stroke-linejoin:round;stroke-miterlimit:10"/>
</svg>
