<svg xmlns="http://www.w3.org/2000/svg" width="333.3" height="299.1" style="overflow:visible;enable-background:new 0 0 333.3 299.1" xml:space="preserve">
    <path d="M135.3 213.2h1.9v1.7h-20.5v-1.7h9.5c-.1-.3-.3-.6-.5-1s-.4-.7-.6-.9l1.8-.6c.5.7 1 1.5 1.4 2.5h7zm1.2 9.3v7.9c0 .5-.2.9-.5 1.2-.3.3-.8.5-1.4.6-.6.1-1.4.2-2.4.2l-.9-1.9c.1 0 .4.1.7.1h1c.3 0 .5 0 .8-.1.2 0 .4-.1.5-.2.1-.1.2-.3.2-.4v-5.8h-14.9v8.5h-2v-10h18.9zm-15.4-1.5v-4.6h12.1v4.6h-12.1zm10.5 8.6v.6h-7.3v.7h-1.8v-5.4h9.1v4.1zm-.2-11.9h-8.5v1.8h8.5v-1.8zm-7.1 11.1h5.6v-2h-5.6v2zm22.6-11.1c-.4 1-.9 1.9-1.5 2.9s-1.3 1.8-2 2.5c-.5-.6-.9-1-1.3-1.4.5-.4 1-.9 1.5-1.6.5-.6.9-1.3 1.2-1.9.3-.6.5-1.1.7-1.6l1.6.9-.2.2zm2.8 7.6c.5.5 1 .9 1.5 1.5s1 1 1.4 1.5l-1.3 1.3c-.3-.3-.7-.8-1.2-1.3l-1.2-1.2c-1.3 2.4-3.1 4.2-5.3 5.5-.1-.1-.4-.4-.7-.8l-.6-.6c2.1-1.2 3.9-3.1 5.2-5.5-.3-.3-.7-.6-1.1-1.1-.5-.4-.9-.8-1.3-1.1l1.2-1.2 2 1.8c.2-.4.4-.9.6-1.4.2-.5.3-1 .4-1.4l.3-1.2 1.7.8-.1.2c-.4 1.3-.9 2.8-1.5 4.2zm2.7-9.2h-9.7v-1.8h5.1c-.6-1.2-1.1-2-1.5-2.4l1.6-.7c.3.4.6 1 1 1.6s.7 1.1.8 1.5h3.9v1.8h-1.2zm-.5 5.7c-.5-1.1-1.4-2.6-2.5-4.4l1.5-.7c1.1 1.7 2 3 2.4 4-.4.3-.9.7-1.4 1.1zm7.7 4.7c.3.4.6.9 1.1 1.4.4.5 1 1 1.6 1.5.6.5 1.3.9 2.1 1.2-.4 1-.7 1.6-.7 1.8-1-.5-1.9-1.1-2.8-1.8-.9-.7-1.6-1.6-2.2-2.5-1.2 1.7-2.8 3.2-4.9 4.3l-.4-.8c-.2-.4-.4-.7-.6-1 1.1-.5 2.1-1.2 2.9-1.8.8-.7 1.4-1.4 2-2.3-.5-.9-.9-2-1.3-3.3-.4-1.2-.7-2.6-.9-3.9-.4.8-.9 1.5-1.3 2-.1-.1-.2-.3-.4-.6s-.4-.6-.7-1c.7-.8 1.4-2 2-3.6.7-1.6 1.2-3.3 1.5-5l1.7.4-.1.2c-.2 1.1-.6 2.3-1 3.6h7.2v1.7h-2c-.2 1.9-.5 3.7-1 5.2-.6 1.5-1.1 3-1.8 4.3zm-1-1.8c.4-.8.7-1.6 1-2.5s.5-1.8.7-2.7c.2-.9.3-1.7.3-2.5h-4c.1 1.1.3 2.1.5 3.2s.5 2 .7 2.7c.3.7.5 1.3.8 1.8zm30 1 1.9 1.2c-.1 1.6-.3 2.7-.6 3.4-.3.7-.8 1.2-1.5 1.5-.7.3-1.7.5-3 .5-.9 0-1.6 0-2.3-.1-.7-.1-1.1-.2-1.5-.4-.3-.2-.5-.5-.6-.8-.1-.4-.2-.8-.2-1.5v-7.8l-2.9.2c0 1.5-.2 2.8-.6 4-.3 1.2-.8 2.2-1.5 3.1-.6.9-1.5 1.6-2.4 2.2-1 .6-2.1 1.1-3.4 1.4-.1-.2-.6-.8-1.4-1.7 1.3-.3 2.4-.7 3.3-1.2.9-.5 1.7-1.1 2.3-1.8.6-.7 1-1.5 1.3-2.5.3-1 .4-2.1.5-3.3l-3.2.2c-.8 0-1.4.1-1.7.1l-.6-1.9c.3 0 .8-.3 1.4-.6.6-.4 1.4-1 2.3-1.9.9-.9 1.7-1.8 2.4-2.7h-7.5v-1.9h9.9c-.3-.6-.7-1.3-1.3-2.1l1.9-.6c.4.6.8 1.1 1.1 1.6.3.5.5.8.6 1h8.8v1.9h-10.9c-.6.8-1.3 1.7-2.3 2.7s-1.8 1.8-2.5 2.4c3.1-.1 6.5-.3 10.2-.7-.8-.8-1.6-1.5-2.4-2.2l1.4-1c.8.6 1.8 1.4 2.9 2.5 1.1 1 2.1 2 3 3.1l-1.5 1.3c-.4-.6-1-1.3-1.8-2.1l-3.2.3v8.1c0 .4.2.6.6.7.1 0 .2.1.4.1h1.7c.6 0 1-.1 1.4-.2.4-.1.7-.3.9-.5.1-.1.2-.3.3-.6.1-.3.2-.7.2-1.4.1-.5.1-1.2.1-2zm16.7-9.8h-7.4v4H196v-5.3h9.3v-1.4h-8v-1.6h17.8v1.6H207v1.4h9.5v5.3h-1.9v-4H207v5.2h-1.8v-5.2zm10.3 11.4c.2.1.4.3.7.5.3.2.6.4.9.5v.4c0 .2-.1.5-.1.8-.1.4-.2.7-.4 1s-.5.6-.9.9-.9.5-1.7.6-1.8.3-3.2.3c-1.3 0-2.3 0-3.1-.1-.8 0-1.4-.2-1.7-.4-.3-.2-.5-.4-.6-.7-.1-.3-.2-.5-.2-.8V229h-5.2v1.6h-1.8v-8.7h15.8v7.1H207v.5c0 .4.2.7.6.8.4.1 1.6.1 3.5.1.6 0 1.3 0 1.9-.1.6-.1 1.1-.2 1.6-.5.3-.2.6-.5.7-1 .2-.1.3-.7.3-1.5zm-11.7-10.2v1.2h-4.5v-1.2h4.5zm-3.7 2.3h3.7v1.1h-4.5v-1.1h.8zm5.1 4.1h-5.2v1.5h5.2v-1.5zm-5.2 4.3h5.2v-1.6h-5.2v1.6zm12.4-2.8v-1.5h-5.4v1.5h5.4zm-5.4 2.8h5.4v-1.6h-5.4v1.6zm5.9-10.7v1.2h-4.5v-1.2h4.5zm-3.7 2.3h3.7v1.1h-4.5v-1.1h.8z" style="fill:#3aae36"/>
    <path d="M108.7 271c.9 0 1.9 0 3.2-.1 1.2 0 2.3-.1 3.3-.2-.1.2-.1.5-.2.8-.8.1-1.7.1-2.9.2s-2.3.1-3.3.1c-.6 0-1.2 0-1.9-.1s-1.3-.3-1.9-.5c-.6-.3-1.1-.6-1.5-.9-.4-.4-.7-.7-.9-1.1s-.4-.7-.5-1c-.1.9-.3 1.6-.5 2.3-.2.7-.4 1.2-.6 1.6l-.6-.6c.2-.4.5-1 .7-1.8s.4-1.6.5-2.5c.1-.9.2-1.6.2-2.3l.8.1v.1c0 .7-.1 1.1-.1 1.5 0 .3.1.6.2 1 .1.3.3.7.5 1 .2.3.5.7.8.9v-5.8h-3.2v-.8h3.1v-2.4h-2.6v-.5h2.5v-2.1h.8v2.1h2.5v.7h-2.5v2.4h2.7v.8h-2.7v2.3h2.7v.8h-2.7v3.3c1.2.4 2.5.7 4.1.7zm-1.2-7.7 1.2-.6c.4-.2.6-.5.9-.9.2-.3.4-.7.5-1 .1-.4.2-.7.2-1.1h-2.5v-.7h6.6v.3c0 .9 0 1.7-.1 2.2 0 .5-.1.9-.3 1.2-.1.2-.3.4-.5.6-.2.1-.5.3-.9.3-.3.1-.7.1-1.1.1l-.4-.9c.2.1.5.1.8.1h.5c.2 0 .3-.1.5-.2l.3-.3c.1-.2.1-.5.2-.8 0-.4.1-.9.1-1.8H111c0 .7-.2 1.3-.4 1.8-.3.5-.6 1-1 1.4-.4.4-.9.7-1.5 1-.2-.2-.4-.4-.6-.7zm6.5 1.5v4.6h-5.8v-4.6h5.8zm-5 4h4.3v-3.3H109v3.3zm21.1-9.2h1.1v.7h-13.3v-.7h6.5c-.3-.6-.6-1.1-1-1.6l.8-.3c.4.5.7 1.1 1.1 1.8h4.8zm.6 6.4v4.8c0 .2 0 .4-.1.5-.1.2-.3.3-.5.4s-.5.1-.9.2h-1l-.4-.8c.4 0 .8.1 1.1.1.3 0 .6 0 .8-.1.2-.1.3-.2.3-.4v-4.4h-10.4v5.8h-.8v-6.5h12c-.1.1-.1.2-.1.4zm-9.8-1.7v-2.8h7.6v2.8h-7.6zm6.8-2.2h-6v1.5h6v-1.5zm-.2 5.4v2.9h-5v.5h-.8v-3.4h5.8zm-5 2.3h4.2v-1.7h-4.2v1.7zm20.2 1.2c1 0 2 0 3.2-.1 1.2-.1 2.1-.2 2.8-.3 0 .1-.1.1-.1.3 0 .1-.1.2-.1.3v.2c-.6.1-1.5.2-2.6.2-1.2.1-2.2.1-3.1.1-1.5 0-2.7-.2-3.7-.6-1-.4-1.7-1-2.1-1.9-.5 1.1-1.2 1.9-2 2.5-.1-.2-.3-.4-.5-.6.3-.2.6-.4.8-.7.2-.2.5-.5.7-.8.2-.3.4-.7.6-1.2.2-.5.4-1.1.5-1.8h-1.7l-.4-.6c.2-.1.3-.2.4-.4.2-.3.5-.7.8-1.1.3-.4.5-.8.6-1.1h-2.4v-.7h2.7l.1-.1c.2.1.4.3.6.5l-.2.1c-.5 1-1.1 1.9-1.7 2.7h1.2l.1-.1.6.5-.1.1c-.1.7-.3 1.4-.5 2 .1.3.2.5.4.8.2.3.4.5.7.7s.7.4 1.1.6c.4.2 1 .3 1.6.4.6.1 1.2.1 1.7.1zm-5.8-9.9c-.2-.4-.5-.8-.9-1.2s-.7-.8-1-1.1l.5-.4c.3.2.6.6 1 1s.7.9 1 1.3l-.6.4zm1.4 7.2c.7-.3 1.5-.7 2.2-1.2.7-.5 1.3-1 1.8-1.6h-2.9v-3.6h3.3v-1.7h-4.1v-.8h4.1v-1.5h.8v1.5h4.3v.8h-4.3v1.7h3.4v3.6h-3.5v4.4h-.8v-4.1c-.5.6-1.1 1.2-1.8 1.8s-1.5 1-2.3 1.3c0 0-.1-.1-.2-.3.2-.1.1-.3 0-.3zm1.9-5.8v2.4h2.6v-2.4h-2.6zm6 2.3v-2.4h-2.7v2.4h2.7zm-2.4 1.4.4-.5c.1 0 .2.1.4.2s.5.3 1 .6l1.5.9c.5.3.9.6 1.2.8 0 0-.1.1-.2.3-.1.2-.2.3-.2.4-.3-.2-.7-.5-1.2-.8s-1.5-1-2.9-1.9zm20.7 1.6.8.5c0 .8-.1 1.4-.2 1.8-.1.4-.3.8-.5 1s-.5.4-.9.5c-.4.1-.9.2-1.6.2-.8 0-1.3 0-1.7-.1s-.6-.1-.7-.2c-.3-.2-.5-.6-.5-1.2v-5.7c-.9.1-1.7.1-2.3.2v.9c0 .4-.1.7-.1 1.1-.1.4-.2.7-.3 1.1-.1.3-.3.7-.5 1.1-.2.4-.5.8-.9 1.2-.4.4-.9.7-1.4 1-.6.3-1.2.6-2 .7l-.6-.7c.9-.2 1.7-.5 2.3-.8.7-.4 1.2-.8 1.6-1.3.4-.5.7-1.1.9-1.9.2-.7.3-1.5.3-2.4-.1 0-.6 0-1.3.1-.7.1-1.2.1-1.5.1-.3 0-.5 0-.8.1l-.2-.8c.2 0 .5-.2 1-.6.5-.3 1.1-.8 1.7-1.5.7-.7 1.2-1.3 1.7-1.9h-5.5v-.8h6.9c-.1-.3-.3-.6-.5-.9-.2-.3-.4-.6-.6-.8l.8-.3c.2.2.4.5.6.8.2.3.5.7.6 1l-.3.1h6.4v.8h-7.3c-.3.4-.7.9-1.2 1.5s-1 1.1-1.5 1.5c-.5.4-.8.7-1.1.9 2.4-.1 5-.3 7.8-.6-.6-.6-1.2-1.1-1.9-1.6l.6-.4c.4.3.9.7 1.4 1.1.5.5 1 .9 1.4 1.4s.8.8 1.1 1.2l-.6.5c-.3-.4-.7-.9-1.3-1.5l-2.4.2v5.8c0 .2 0 .3.1.4.1.1.2.1.3.2h1.7c.4 0 .8 0 1.1-.1.3-.1.5-.2.7-.4.1-.1.2-.2.3-.4s.2-.5.2-.9c-.1-.2-.1-.7-.1-1.2zm10.1-6.9h-5.5v2.7h-.8v-3.3h6.3V259H169v-.7h12.1v.7h-5.7v1.3h6.3v3.3h-.8v-2.7h-5.5v3.6h-.8v-3.6zm6.8 8c.1.1.2.1.3.2.1.1.3.2.4.2 0 .7-.2 1.2-.4 1.6-.2.3-.6.6-1.2.7-.5.2-1.3.2-2.3.2h-2.1c-.4 0-.7-.1-.9-.2-.2-.1-.3-.3-.4-.4-.1-.2-.1-.5-.1-.8v-.6h-4v1.1h-.8v-5.8h10.3v4.5h-4.9v.5c0 .4.2.6.5.7.4.1 1.2.1 2.4.1 1.1 0 1.8-.1 2.4-.4.2-.1.4-.4.5-.6.2 0 .3-.5.3-1zm-8-7v.5h-3v-.5h3zm-2.5 1.6h2.5v.5h-3v-.5h.5zm3.7 2.4h-4v1.4h4v-1.4zm-3.9 3.3h4v-1.4h-4v1.4zm8.8-2v-1.4h-4.1v1.4h4.1zm-4.1 2h4.1v-1.4h-4.1v1.4zm4.2-7.3v.5h-3v-.5h3zm-2.5 1.6h2.5v.5h-3v-.5h.5zm13.4-1.1v2.7h-.7v-2h-4.3v2h-.7v-2.7h.8v-3.8h4.2v3.8h.7zm-.9 2.1v6.5c0 .2-.1.4-.2.6-.1.1-.3.2-.6.3-.3.1-.6.1-1.1.1l-.4-.8h.8c.2 0 .4 0 .6-.1.1 0 .2-.1.2-.3V269h-2.5v2.9h-.7v-7.5h3.9zm-3.4-5.3v3.2h1.2v-1.9h1.7v-1.3h-2.9zm2.7 6h-2.5v1.4h2.5v-1.4zm-2.5 3.3h2.5v-1.3h-2.5v1.3zm1.6-7.4v1.3h1.1v-1.3H188zm10.1 9.7h.8v.7h-8.2v-.7h2.5c-.1-.4-.3-.9-.6-1.5l.6-.2c.3.7.5 1.3.7 1.7h2c.1-.3.3-.6.5-1s.3-.7.3-.8l.6.3-.1.1-.3.6-.4.8h1.6zm-.1-5.9h-7v-.7h7.8v.7h-.8zm-6.7-1.6v-4.2h2V258h.8v1.1h1.4V258h.8v1.1h2.1v4.2h-7.1zm6.4 2.7v2.8h-5.9V266h5.9zm-4.3-6.4H192v1.3h1.5v-1.3zm-1.4 3.1h1.5v-1.3H192v1.3zm.6 5.4h4.4v-1.6h-4.4v1.6zm2.9-8.5H194v1.3h1.4v-1.3zm-1.5 3.1h1.4v-1.3H194v1.3zm3.6-1.8v-1.3h-1.5v1.3h1.5zm-1.5 1.8h1.5v-1.3h-1.5v1.3zm5.7 4.7.5.1c0 .6 0 1.3-.1 2.1s-.2 1.5-.4 2.2l-.6-.4c.2-.6.3-1.2.4-2 .1-.7.2-1.4.2-2zm5.4-1.8v3.4c0 .8-.1 1.4-.2 1.8-.1.4-.4.7-.7.8-.3.2-.8.2-1.3.2l-.3-.8c.2.1.4.1.7.1.1 0 .3 0 .4-.1s.3-.1.4-.2.2-.2.2-.4c.1-.1.1-.4.1-.6 0-.3.1-.7.1-1.3v-2.3H202v-7.5h5.5v.6h-2.3v1.7h1.7v.6h-1.7v1.7h1.7v.6h-1.7v1.8h2zm-2.7-6.3h-1.8v1.7h1.8v-1.7zm0 4v-1.7h-1.8v1.7h1.8zm-1.8 2.3h1.8v-1.8h-1.8v1.8zm.2 1.9.5-.1c.2 1 .3 2.1.3 3.3l-.5.1c0-.5 0-1.1-.1-1.7 0-.6-.1-1.1-.2-1.6zm1.6-.2c.1.4.2.8.3 1.3.1.5.1.9.2 1.3l-.5.1c0-.2 0-.5-.1-.8s-.1-.7-.2-1c-.1-.3-.1-.6-.2-.7l.5-.2zm1.5 1.7-.4.1c0-.1-.1-.3-.1-.5s-.2-.7-.4-1.5l.4-.1.3.9c.1.5.1.8.2 1.1zm4.9 1.7c-.3-.5-.7-.9-1.3-1.4-.3.5-.6 1-1 1.5s-.7.8-1.1 1.1c-.2-.2-.3-.4-.5-.6.4-.3.8-.6 1.2-1.1.4-.5.7-1 .9-1.5.2-.5.3-.9.4-1.3l.7.2-.1.1c0 .1-.1.3-.2.6-.1.2-.1.4-.2.5.3.2.5.4.8.7.3.2.5.5.7.7l-.3.5zm.8-11.9c-.3.5-.8 1.1-1.2 1.6-.5.5-1 1-1.4 1.3-.4.4-.8.6-1.1.8-.1-.1-.2-.3-.4-.7.7-.4 1.4-1 2.2-1.7s1.3-1.5 1.7-2.2l.8.1-.1.1c.4.7.9 1.4 1.6 2s1.4 1.2 2.1 1.5c-.1.1-.1.2-.2.4-.1.1-.1.3-.2.3-.7-.4-1.3-.9-2-1.6s-1.3-1.2-1.8-1.9zm-.6 4.7v3.6h-2.9v-3.6h2.9zm-2.2 3h1.5v-2.3h-1.5v2.3zm4.9-4.3h-4.1v-.7h4.1v.7zm-.4 6.8c.3.2.7.5 1.1.8.4.3.8.7 1.3 1.2l-.4.6c-.3-.3-.6-.6-.9-1-.4-.4-.8-.7-1.4-1.1-.1.2-.3.5-.6.8-.2.3-.5.6-.8.9-.3.3-.6.5-.9.7 0-.1-.2-.3-.4-.6.4-.2.9-.6 1.3-1.1.4-.5.8-.9 1-1.4s.4-.9.5-1.4l.7.1-.1.1c0 .2-.1.4-.2.7 0 .4-.1.6-.2.7zm1.7-5.5v3.6h-3v-3.6h3zm-2.3 3h1.6v-2.3h-1.6v2.3zm11.8.3c.3-.2.5-.4.6-.7.2-.3.3-.7.3-1.2h-.8v-1.4h1.4v1c0 .4-.1.8-.2 1.2s-.3.7-.5.9-.4.4-.7.6l-.1-.4zM53.8 298.4v.6H53v-3.4c0-1.3 0-2.4.1-3.3-.4.4-.7.8-1.1 1.2-.4.4-.8.7-1.1 1l-.5-.6c.4-.3.9-.7 1.4-1.1.5-.4.9-.9 1.3-1.5v-.7l.4.2c.7-.9 1.3-1.9 1.8-3h-4.6v-.8h4.9c.3-.8.5-1.5.7-2.3l.7.3-.1.1c-.1.2-.2.6-.3 1s-.2.7-.3 1h7.9v.8H56c-.3.6-.6 1.2-1 1.9s-.8 1.3-1.2 1.8v6.8zm9.7-.9h.9v.8h-9.5v-.8h4.4v-4.3h-3.6v-.8h3.6v-2.9h.9v2.8h3.6v.8h-3.6v4.3h3.3zm13.3-1.3c.7.5 1.4.9 2.2 1.3.8.4 1.7.6 2.5.8-.2.3-.3.5-.4.7-1.3-.3-2.4-.8-3.5-1.4-1.1-.6-2-1.3-2.8-2.1s-1.4-1.6-1.9-2.5h-2.6v4.8c1.2-.3 2.6-.7 4.1-1.2v.8c-.6.2-2 .6-4.1 1.2-.3.1-.5.2-.7.2l-.3-.8c.2-.1.3-.3.3-.6V293h-2.4v-.7H70v-6.7h9.4v.7h-8.5v1.6h7.9v.7h-7.9v1.5h7.9v.7h-7.9v1.6h10.6v.7H74c.6 1 1.4 1.9 2.4 2.7.2-.1.6-.3 1-.6.4-.2.8-.5 1.2-.9.4-.3.7-.6.9-.8l.6.6-.1.1c-.3.3-.8.6-1.4 1s-1.3.7-1.8 1zm15.5 1.8c1 0 2 0 3.2-.1s2.1-.2 2.8-.3l-.2.8c-.6.1-1.5.2-2.6.2-1.2.1-2.2.1-3.1.1-1.5 0-2.7-.2-3.7-.6-1-.4-1.7-1-2.1-1.9-.5 1.1-1.2 1.9-2 2.5-.1-.2-.3-.4-.5-.6.3-.2.6-.4.8-.7.2-.2.5-.5.7-.8.2-.3.4-.7.6-1.2s.4-1.1.5-1.8H85l-.1-.7c.2-.1.3-.2.4-.4.2-.3.5-.7.8-1.1s.5-.8.6-1.1h-2.4v-.7H87l.1-.1c.2.1.4.3.6.5l-.2.1c-.5 1-1.1 1.9-1.7 2.7H87l.1-.1.6.5-.1.1c-.1.7-.3 1.4-.5 2 .1.3.2.5.4.8.2.3.4.5.7.7.3.2.7.4 1.1.6.4.2 1 .3 1.6.4.3.2.9.2 1.4.2zm-5.8-9.9c-.2-.4-.5-.8-.9-1.2-.4-.5-.7-.8-1-1.1l.5-.4c.3.2.6.6 1 1s.7.9 1 1.3l-.6.4zm6.4-2.4c-.6.8-1.3 1.6-2.1 2.3-.9.7-1.7 1.3-2.6 1.7-.1-.1-.2-.4-.5-.7.7-.3 1.3-.7 2-1.2s1.2-1 1.7-1.5.9-1 1.2-1.5l.8.1-.1.1c.5.8 1.2 1.5 2.1 2.3s1.8 1.3 2.7 1.7c-.2.4-.3.6-.3.7-.9-.4-1.8-1-2.7-1.7-.9-.7-1.6-1.5-2.2-2.3zm-2.6 7.1.7.4-.1.1c-.2.4-.5.9-.9 1.4-.4.5-.8.9-1.2 1.3l-.6-.6c.2-.2.5-.4.7-.7s.5-.6.8-1c.3-.2.5-.6.6-.9zm6.4-.7h-3.3v3.6c0 .3-.1.5-.2.6s-.4.3-.7.3c-.3.1-.8.1-1.4.1l-.4-.8c.1 0 .2 0 .4.1h.6c.3 0 .5 0 .7-.1s.3-.2.3-.4v-3.4h-4.2v-.8h4.2v-1.8h-2.5v-.7h5.7v.7h-2.4v1.8h4.2v.8h-1zm.9 3.3-.3.3-.3.3c-.3-.4-.6-.9-1.1-1.4-.4-.5-.8-1-1.2-1.4l.6-.4c1 1 1.8 1.9 2.3 2.6zm8.7-4.6v3.4c0 .9 0 1.6-.1 2.1 0 .5-.1 1-.2 1.3-.1.4-.4.7-.7.9-.3.2-.8.3-1.4.3 0 0 0-.1-.1-.2 0-.1-.1-.3-.3-.7.2.1.4.1.7.1.6 0 1-.3 1.1-.8.1-.2.1-.6.2-1s.1-1.1.1-1.8v-2.7h-2.1c-.2 2-.4 3.6-.8 4.8-.4 1.2-.8 2.1-1.4 2.6-.1-.1-.2-.2-.3-.4-.1-.2-.2-.3-.3-.4.2-.2.5-.5.7-.8.2-.4.4-.8.6-1.3.2-.5.3-1.1.4-1.7.1-.7.2-1.4.3-2.2.1-.8.1-1.6.2-2.3s0-1.2.1-1.4h-1.7v-.8h5.7v.8h-3.3c0 .8 0 1.6-.1 2.4h2.7zm-1.5-3.6-.7.3c-.1-.3-.3-.7-.5-1.2-.2-.4-.4-.8-.6-1.1l.7-.3c.1.2.3.5.5.9s.4.9.6 1.4zm9 .7h-5.1c-.2.4-.5.9-.9 1.3-.3.4-.6.8-1 1.1-.1-.2-.3-.5-.5-.7.3-.3.6-.6 1-1.1.4-.5.7-1 1-1.7s.6-1.3.8-2l.8.2-.1.1c-.2.7-.5 1.4-.8 2h5.4v.8h-.6zm-2 6.3c.3.8.7 1.5 1.2 2.1.5.6 1.1 1.3 1.9 1.8-.3.4-.5.7-.5.7-.6-.5-1.2-1.1-1.7-1.7-.5-.6-.9-1.2-1.2-1.8-.3-.6-.6-1.3-.7-2.1-.2-.8-.3-1.6-.4-2.5-.6.1-1.2.2-1.6.2v6.8c.3-.2.8-.4 1.3-.7s.9-.5 1.1-.7v.8c-.3.2-.7.4-1.2.7s-1 .6-1.3.8c-.2.1-.4.2-.5.3l-.3-.8c.2-.1.3-.3.3-.6V290l.5.2c.8-.1 1.7-.2 2.7-.4 1-.2 1.8-.5 2.4-.8l.5.7-.3.1c-.9.3-1.8.6-2.7.8.1.6.1 1.1.2 1.6s.2 1 .3 1.4c.4-.2.8-.5 1.3-.8.5-.3.8-.6 1-.8l.5.6-.2.1c-.6.5-1.5 1-2.6 1.5zm9.4-3.9v8.6h-.8v-3.3c0-1.4 0-2.9.1-4.6-.2.7-.5 1.3-.8 2-.3.7-.6 1.3-1 1.9-.3.5-.7 1-1 1.3-.1-.3-.3-.5-.4-.7.2-.2.5-.6.9-1.1s.7-1.1 1.1-1.9c.4-.8.7-1.5.9-2.3h-2.5v-.7h2.7v-2.7c-.5.2-1 .3-1.3.4-.4.1-.6.1-.8.2l-.3-.7c.7-.1 1.6-.3 2.4-.6.9-.3 1.6-.6 2.2-.9l.5.6c-.1 0-.2.1-.3.1-.4.2-1 .4-1.7.7v3h2.1v.7h-2zm2.3 3.6-.5.4c-.4-.9-1-1.7-1.6-2.5.2-.1.4-.3.5-.3.5.7 1.1 1.5 1.6 2.4zm7.2 3.7h.9v.7h-8.8v-.7h4.1v-2.2h-2.7v-.7h2.7v-2.1c-.7.1-1.6.1-2.9.2l-.2-.7c.6 0 1.1 0 1.8-.1.6 0 1.2-.1 1.8-.1.5-.1 1.1-.1 1.6-.2s1-.2 1.4-.3c0 0 .2.2.5.6l-.3.1c-.8.2-1.7.3-2.8.4v2.2h2.8v.7h-2.8v2.2h2.9zm-6.3-7.3v-4.2h6v4.2h-6zm5.2-3.6h-4.4v2.9h4.4v-2.9zm17.8 1.8v6.2h-.8v-1h-4.8v5.4h-.9v-5.4h-4.7v1h-.9V288h5.6v-3.2h.9v3.2h5.7l-.1.5zm-11.1 4.4h4.7v-4.3h-4.7v4.3zm5.5 0h4.8v-4.3h-4.8v4.3zm15.6.9c.3-.2.5-.4.6-.7.2-.3.3-.7.3-1.2h-.8v-1.4h1.4v1c0 .4-.1.8-.2 1.2s-.3.7-.5.9-.4.4-.7.6l-.1-.4zm13.4-3.3c.3.4.6.7.9 1.2.2.4.4.9.5 1.3s.1.7.1 1c0 .5-.1.9-.2 1.3s-.4.7-.7.9c-.3.2-.7.3-1.1.3-.1-.2-.2-.5-.4-.8.1 0 .3.1.5.1.3 0 .6-.2.8-.5.2-.3.3-.8.3-1.3 0-.4-.1-.8-.2-1.3-.2-.4-.3-.8-.6-1.2-.2-.3-.5-.6-.7-.8 0-.1.1-.2.1-.3.1-.2.2-.6.4-1.3.2-.7.5-1.7.9-2.9h-2.1V299h-.7v-13.5h2.9l.1-.1c.2.2.5.4.7.6l-.1.1c-.6 2.3-1.1 3.8-1.4 4.4zm7.1 7.5c1.3 0 2.8-.1 4.4-.2l-.2.7c-1.7.1-3.1.2-4.2.2-.8 0-1.4-.1-1.9-.2s-.9-.3-1.2-.6-.5-.6-.7-1c-.2.4-.5.8-.8 1.2-.3.4-.6.7-.9.9-.1-.2-.3-.4-.5-.6.3-.2.6-.5.9-.8.3-.3.5-.7.8-1 .2-.4.4-.8.6-1.3.2-.5.3-1 .4-1.6h-1.7l-.1-.6c.1 0 .3-.2.4-.3.2-.2.4-.6.7-1.1.3-.5.5-.9.6-1.2h-2.1v-.7h2.1l.1-.1c.2.2.4.4.6.5l-.1.1c-.6 1.1-1.1 2-1.5 2.7h1l.1-.1.2.2.4.4h-.1c-.2 1-.5 1.9-.8 2.7.1.6.5 1.1 1 1.4.5.2 1.4.4 2.5.4zm-3.1-10.3-.6.4-.6-1.2c-.2-.4-.5-.8-.8-1.2l.6-.3c.1.1.2.3.4.6.2.2.3.5.5.8.2.3.3.6.5.9zm2.2-.8h-1.8v-.7h2.1c.1-.2.2-.4.3-.7.1-.2.1-.5.2-.7l.7.1v.1c-.1.3-.2.7-.4 1.2h4.2v.7h-4.5c-.3.6-.7 1.1-1.1 1.5-.4.5-.9.8-1.4 1.1-.1-.1-.2-.3-.4-.6l.9-.6c.3-.2.6-.5.8-.8.1-.2.2-.4.4-.6zm5.1 3.3h-5.9v-.6h2.5v-1.3h-1.6v-.6h4.4v.6h-2.1v1.3h2.7v.6zm-.8 1v4.9c0 .3-.1.6-.4.7-.3.2-.8.2-1.6.2l-.4-.8h.9c.3 0 .5 0 .6-.1.1 0 .2-.2.2-.3v-1h-3.4v2.1h-.8V291h4.9zm-.7.6h-3.4v1.1h3.4v-1.1zm-3.4 2.6h3.4v-1h-3.4v1zm12.1-8.4v10.8h-.8v-.8h-2.4v1.6h-.8v-11.4h4zm-.8.7h-2.4v3.7h2.4v-3.7zm-2.4 8.5h2.4v-4h-2.4v4zm11.8-4.5H190v-.8h4v-2.3h-3.4v-.7h3.4v-2h.8v2h3.4v.7h-3.4v2.3h4.1v.8h-1zm.1 2.2h.9v.8h-2.1v4c0 .4-.1.6-.3.8-.2.2-.5.3-1 .4s-1 .1-1.8.1l-.5-.9c.1 0 .4 0 .6.1h.8c.4 0 .7 0 1-.1.2-.1.4-.2.4-.5v-3.9h-5.9v-.8h5.9v-1.8h.8v1.8h1.2zm-6.5 1.5c.4.3.8.6 1.2 1l1 1-.6.6c-.2-.3-.6-.7-1-1.1s-.8-.7-1.1-1l.5-.5zm12.9-3.8-.4.7c-.3-.3-.7-.6-1.2-.9s-.8-.6-1.2-.8c.1-.2.3-.4.4-.6.3.2.7.4 1.2.8.5.2.9.5 1.2.8zm-2.4 7.2c.3-.5.7-1.3 1.2-2.2s.8-1.7 1-2.2l.6.7c-.2.5-.5 1.2-1 2.1-.5.9-.8 1.6-1.1 2.1l-.3.6-.7-.6.3-.5zm.3-12 .5-.6c.3.2.7.5 1.2.8.4.3.8.7 1.2.9l-.4.7c-.4-.3-.8-.7-1.2-1s-1-.7-1.3-.8zm13.1.4h.5v.7h-2.5v2H211v1.3h4.1v7.6c0 .3-.1.6-.4.7s-.8.2-1.6.2c-.1-.2-.2-.5-.3-.8h.8c.2 0 .4 0 .6-.1.1 0 .2-.2.2-.3v-6.6H211v8h-.8v-8h-3.4v8.1h-.8v-8.8h4.1v-1.3h-2.4v-2h-2.3v-.7h2.3v-1.3h.8v1.3h4v-1.4h.8v1.4h2.1zm-6.4 6.1c0 .5.1 1 .2 1.5l.3 1.5c.1.5.3.8.5 1-.2.1-.3.3-.4.4-.4-.6-.6-1.4-.8-2.5-.1.6-.3 1.1-.5 1.5s-.4.8-.6 1.1c-.1-.2-.3-.3-.4-.4.3-.3.6-.8.8-1.4s.4-1.3.5-2.1h-1v-.6h1.4zm-.4-4h4v-1.4h-4v1.4zm5.1 8.4c-.3-.5-.6-1.4-.8-2.5-.1.6-.3 1.1-.5 1.5s-.4.8-.6 1c-.1-.2-.3-.3-.4-.4.3-.3.5-.7.8-1.4.2-.6.4-1.3.5-2.1h-.9v-.6h1.5c0 .4.1.9.1 1.4.1.5.2 1 .3 1.4.1.4.3.8.5 1.1l-.5.6zm18.2-1.9c.3.4.5.6.5.6l.1.1c0 .7-.1 1.4-.2 1.8s-.3.9-.4 1.1-.4.4-.8.4c-.3 0-.6-.1-.8-.3-.3-.2-.5-.5-.8-.9-.2-.4-.5-.8-.7-1.4-.9 1-1.9 1.9-3.2 2.6-.1-.2-.3-.4-.5-.6 1.3-.6 2.5-1.6 3.4-2.8-.2-.8-.4-1.7-.6-2.8-.2-1.1-.3-2.3-.4-3.7h-9v-.7h3.6v-1.5h-2.8v-.7h2.8v-1.2h.8v1.2h3.3v.7h-3.3v1.5h4.7c-.1-1.2-.1-2.1-.1-2.8v-.6h.4c.2 0 .4 0 .4.1v.5c0 1.1.1 2 .1 2.8h4.2v.7h-4.1c.1 1.2.2 2.2.3 3.2.1 1 .3 1.8.5 2.5.4-.7.7-1.4 1-2.1s.5-1.6.7-2.4l.7.4-.1.1c-.5 2.1-1.2 3.7-2.1 5 .1.4.3.8.5 1.2.2.4.4.7.6.9.2.2.5.3.7.3.2 0 .4-.3.5-.8 0-.6.1-1.4.1-2.4zm-9 2.5v1.7h-.8v-1.7h-3.6v-.7h3.6v-1h-2.6v-3.8h2.6v-1h-3.4v-.7h3.4v-1h.8v1h3.4v.7h-3.4v1h2.7v3.8h-2.7v1h3.4v.7h-3.4zm-.7-4.9h-1.9v1.1h1.9v-1.1zm-1.9 1.6v1.2h1.9V294h-1.9zm4.6-.5v-1.1h-2v1.1h2zm-2 1.7h2V294h-2v1.2zm8.2-7.6c-.2-.3-.4-.7-.8-1-.3-.4-.7-.7-1-1l.5-.4c.4.3.7.6 1 1 .3.4.6.7.8 1l-.5.4zm10.7.3h-5.5v2.7h-.8v-3.3h6.3V286h-5.6v-.7h12.1v.7h-5.7v1.3h6.3v3.3h-.8v-2.7h-5.5v3.6h-.8v-3.6zm6.8 8c.1.1.2.1.3.2.1.1.3.2.4.2 0 .7-.2 1.2-.4 1.6-.2.3-.6.6-1.2.7-.5.2-1.3.2-2.3.2h-2.1c-.4 0-.7-.1-.9-.2-.2-.1-.3-.3-.4-.4-.1-.2-.1-.5-.1-.8v-.6h-4v1.1h-.8v-5.8h10.3v4.5h-4.9v.5c0 .4.2.6.5.7.4.1 1.2.1 2.4.1 1.1 0 1.8-.1 2.4-.4.2-.1.4-.4.5-.6.2 0 .3-.5.3-1zm-8-7v.5h-3v-.5h3zm-2.5 1.6h2.5v.5h-3v-.5h.5zm3.7 2.4h-4v1.4h4v-1.4zm-3.9 3.3h4v-1.4h-4v1.4zm8.8-2v-1.4h-4.1v1.4h4.1zm-4.1 2h4.1v-1.4h-4.1v1.4zm4.2-7.3v.5h-3v-.5h3zm-2.5 1.6h2.5v.5h-3v-.5h.5zm12-3.9.6-.3c.2.2.4.5.7.9.3.4.5.8.8 1.2.2.4.4.7.5.9l-.7.4-.4-.8c-.4 0-1.3.1-2.6.2s-2.1.2-2.4.2h-.5l-.2-.8c.1 0 .2-.1.3-.2l.5-.5c.2-.2.4-.5.7-.9s.5-.8.7-1.2c.2-.4.3-.7.4-.9l.8.3s0 .1-.1.2c-.2.3-.4.7-.7 1.2-.3.4-.6.8-.8 1.2s-.5.6-.7.8c1.2-.1 2.6-.2 4.1-.4-.2-.3-.4-.6-.6-.8 0-.3-.2-.5-.4-.7zm1.9 4.6v6.4c0 .2-.1.4-.2.6s-.4.3-.8.3c-.4.1-.9.1-1.5.1-.1-.2-.2-.5-.4-.8.3 0 .6.1 1.1.1.3 0 .5 0 .7-.1.2-.1.3-.2.3-.4v-1.8h-3.6v3.1h-.8v-8h5.2v.5zm-.8.2h-3.6v1.5h3.6v-1.5zm-3.6 3.7h3.6v-1.6h-3.6v1.6zm6.5-4.2c-.2-.1-.3-.2-.3-.4-.1-.2-.1-.4-.1-.7v-4.7l.8.1v2.4c.7-.2 1.4-.5 2.2-.9s1.4-.6 1.7-.8l.4.6-.2.1c-.2.1-.5.3-.9.5s-1 .4-1.6.6c-.6.2-1.2.4-1.6.6v1.6c0 .2 0 .3.1.4.1.1.2.1.3.2.2.1.8.1 1.7.1.4 0 .8 0 1-.1s.5-.1.6-.2l.3-.3c.1-.1.1-.3.2-.5v-.6l.8.4c-.1.7-.2 1.1-.5 1.4-.3.3-.6.4-1 .5-.4.1-.9.1-1.5.1h-1.5c-.3 0-.7-.3-.9-.4zm4.9 5c.4.2.6.4.7.4 0 .4-.1.7-.2 1-.1.3-.3.5-.5.7-.2.2-.5.3-.9.4-.4.1-.9.1-1.5.1-.8 0-1.4 0-1.7-.1-.3 0-.6-.1-.7-.2-.2-.1-.3-.2-.4-.4-.1-.2-.1-.5-.1-.8v-5.1l.8.1v2.5c.7-.2 1.5-.6 2.4-1 .9-.4 1.5-.7 1.9-.9l.4.6-.2.1c-.4.2-1.1.6-2 1-.9.4-1.8.7-2.5.9v1.9c0 .3.1.5.4.6.2.1.8.1 1.8.1.4 0 .8 0 1.1-.1s.5-.1.7-.3c.2-.1.3-.3.4-.5 0-.2.1-.5.1-1zm10.6-1.9c-.3 0-.7-.1-1-.3-.3-.2-.6-.4-.8-.7s-.3-.7-.3-1c0-.3.1-.7.3-1 .2-.3.4-.6.7-.8.3-.2.7-.3 1-.3.3 0 .7.1 1 .3.3.2.6.4.8.7s.3.7.3 1c0 .3-.1.7-.3 1-.2.3-.4.6-.7.8s-.6.3-1 .3zm0-.6c.4 0 .7-.1 1-.4.3-.3.4-.6.4-1s-.1-.7-.4-1c-.3-.3-.6-.4-1-.4s-.7.1-1 .4c-.3.3-.4.6-.4 1s.1.7.4 1c.3.3.6.4 1 .4z" style="fill:#1a1a1a"/>
    <path d="M292.6 274.9c25-29.1 40.1-66.9 40.1-108.2C332.7 74.9 258.3.6 166.6.6S.5 74.9.5 166.6c0 41.4 15.1 79.2 40.1 108.2" style="fill:none;stroke:#1a1a1a;stroke-linecap:round;stroke-linejoin:round;stroke-miterlimit:10"/>
    <g style="opacity:.6">
        <path d="M120.3 186.9c-1 0-1.9-.1-2.8-.1H96.1c-7.1 0-11.8-4.8-11.8-11.9v-98c0-7.1 4.8-11.7 11.9-11.8h14.9c.2-1.6.3-3 .7-4.3.9-2.8 3.2-4.5 6.3-4.7 2.3-.1 4.5 0 6.8 0 6.7 0 8.7 1.9 9.1 9 3.8 0 7.6.2 11.3 0 11.3-.9 15.8 4.8 15.7 15.5-.4 31.1-.1 62.2-.1 93.3 0 8.6-4.4 13-13 13h-27.6zm36-61V77.7c0-5.7-2.5-8.2-8.3-8.2H97c-6 0-8.4 2.4-8.4 8.4v96c0 5.9 2.5 8.3 8.4 8.3h50.7c6.1 0 8.5-2.4 8.5-8.5.1-15.9.1-31.8.1-47.8zm-27.1-61c.1-3.9-.3-4.4-3.8-4.4h-5.9c-3.4 0-3.9.7-3.5 4.4h13.2zm67.4-8.6c-4.8 0-8.7 3.9-8.7 8.7v19.9h-6.4c-1.6 0-3 1.3-3 3v14.8c0 1.6 1.3 3 3 3h64.7c1.6 0 3-1.3 3-3V87.8c0-1.6-1.3-3-3-3h-6.4V65c0-4.8-3.9-8.7-8.7-8.7s-8.7 3.9-8.7 8.7v19.9h-17.2V65c.1-4.8-3.8-8.7-8.6-8.7zm37.3 28.5h-5.5V65c0-1.5 1.2-2.7 2.7-2.7 1.5 0 2.7 1.2 2.7 2.7v19.8zm-43 6h52.3v8.9h-58.7v-8.9h6.4zm5.7-28.5c1.5 0 2.7 1.2 2.7 2.7v19.9h-5.5V65c.1-1.5 1.3-2.7 2.8-2.7z"/>
        <path d="M213.9 151.8c15.1 0 27.4-12.3 27.4-27.4v-21.8h-54.7v21.8c-.1 15.2 12.1 27.4 27.3 27.4z"/>
        <path d="M219.4 158.3c0 15.7-12.8 28.5-28.5 28.5h-45v-2.9l8.9-1.7 2.7-6.4H191c9.6 0 17.5-7.8 17.5-17.5v-7.4h11v7.4z"/>
        <text transform="translate(195.175 131.63)" style="letter-spacing:2;font-size:23.1072px;font-family:&quot;GillSans-SemiBold&quot;;fill:#fff">DC</text>
        <path d="M122.6 108.2c-9.7 0-17.8 7.9-17.8 17.8s7.9 17.8 17.8 17.8c9.7 0 17.8-7.9 17.8-17.8s-8.1-17.8-17.8-17.8zm-2.3 31.5 2.1-11.5c0-.2-.1-.4-.4-.4h-5c-.2 0-.4-.2-.4-.5l4.2-15.3c0-.2.2-.3.4-.3h6.6c.3 0 .5.3.3.5l-4.9 9.8c-.1.2.1.5.3.5h5.9c.3 0 .5.3.3.5l-8.7 16.8c-.2.5-.8.3-.7-.1z"/>
        <path d="M144.2 104.4h-43.1c-2.4 0-4.3-1.9-4.3-4.3v-17c0-2.4 1.9-4.3 4.3-4.3h43.1c2.4 0 4.3 1.9 4.3 4.3V100c0 2.5-1.9 4.4-4.3 4.4zm0 34.6h-43.1c-2.4 0-4.3-1.9-4.3-4.3v-16.9c0-2.4 1.9-4.3 4.3-4.3h43.1c2.4 0 4.3 1.9 4.3 4.3v16.9c0 2.4-1.9 4.3-4.3 4.3zm0 35.9h-43.1c-2.4 0-4.3-1.9-4.3-4.3v-16.9c0-2.4 1.9-4.3 4.3-4.3h43.1c2.4 0 4.3 1.9 4.3 4.3v16.9c0 2.3-1.9 4.3-4.3 4.3z" style="fill:none;stroke:#000;stroke-width:4.0416;stroke-miterlimit:10"/>
    </g>
</svg>
