<svg xmlns="http://www.w3.org/2000/svg" width="333.3" height="362.4" style="overflow:visible;enable-background:new 0 0 333.3 362" xml:space="preserve">
    <style>
        .st3{fill:#040000}
    </style>
    <path d="M112.6 278.8c1.3 0 2.2 0 2.7-.1v2.8H103v4.4h8.9v12.9h-3.2v-2H94.5v2h-3.2l.1-1.3V287l-.1-1.2h8.7v-4.4H88.3v-2.8c.6.1 1.5.1 2.7.1h9v-4.5H88v4.1c0 4.3-.5 8.2-1.4 11.6-.9 3.4-2.2 6-3.9 7.7-.6-.7-1.4-1.5-2.6-2.5.9-1 1.7-2.2 2.3-3.8.7-1.6 1.2-3.3 1.6-5.1.4-1.8.6-3.5.7-4.9.1-1.4.1-2.5.1-3.2v-13.9h28.6v10H103v4.6h9.6zM87.9 267v4.3h22.2V267H87.9zm20.8 26.9v-5.4H94.5v5.4h14.2zm41.6-11.2c.4.9.9 1.7 1.6 2.7.6.9 1.3 1.9 2.2 2.8.8.9 1.8 1.8 2.9 2.7s2.4 1.6 3.7 2.3c-.1.1-.1.2-.3.4-.1.2-.6 1-1.6 2.5-2.4-1.3-4.5-3-6.4-5.1s-3.3-4.5-4.4-7.1l-1.6.6c.5 1.3.8 2.7 1.1 4.2.3 1.5.4 3 .4 4.3 0 1.8-.6 3.1-1.8 3.9-1.2.8-3.1 1.2-5.7 1.2-.2 0-1 0-2.2-.1-.3-1.1-.7-2.1-1-3 .4.1 1 .1 1.7.2s1.2.1 1.6.1c1.5 0 2.6-.2 3.2-.6.6-.4.9-1 .9-1.9 0-1.4-.1-2.8-.4-4.4-1.5 1.2-3.3 2.4-5.4 3.5-2.1 1.1-4.3 2.1-6.5 3-2.2.8-4.2 1.5-6 2-.2-.3-.4-.8-.8-1.3s-.7-1-.9-1.4c1.7-.4 3.7-1 6-1.8s4.6-1.8 6.9-3c2.3-1.2 4.3-2.5 6-3.8-.4-1.1-.7-1.9-.9-2.4-1.9 1.2-4.3 2.4-7.1 3.5s-5.7 2-8.7 2.7c-.6-1-1.1-1.9-1.5-2.6 3.1-.5 6-1.3 8.8-2.3 2.8-1 5.2-2.2 7.3-3.5-.2-.3-.5-.6-.8-1.1s-.6-.7-.9-.9c-2.8 1.5-6.8 2.7-12 3.7-.4-.7-.9-1.5-1.7-2.5 3.1-.5 6.1-1.1 8.9-2 2.8-.9 5.1-1.8 6.8-2.8h-8.3c-1.1 0-2 0-2.5.1v-3h23.3v3c-.5-.1-1.3-.1-2.5-.1h-5.5c-.5.3-1.1.7-1.9 1.2-.8.5-1.4.9-1.9 1.1.5.5 1.1 1.1 1.6 1.9s1.1 1.7 1.5 2.6c.9-.3 1.9-.8 3.1-1.4 1.2-.6 2.4-1.3 3.5-2s1.9-1.4 2.4-1.9l2.4 2.3-.8.4c-2 1.1-4 2.2-5.8 3.1zm-24.2-8.1c.1-.4.1-.8.1-1.1v-6.2c0-.3 0-.7-.1-1H141c-.3-.6-.6-1.3-1-1.9-.4-.7-.7-1.2-1-1.7l3.4-.4c.8 1.1 1.5 2.5 2.2 4H159v8.3h-3.2V269h-26.5v5.7h-3.2zm75.2 12.7 3.2 2c-.1 2.6-.4 4.6-.9 5.7-.5 1.2-1.4 2-2.5 2.6-1.1.5-2.8.8-5 .8-1.5 0-2.7 0-3.8-.1-1.1-.1-1.9-.3-2.4-.7-.5-.3-.8-.8-1-1.4-.2-.6-.3-1.4-.3-2.4v-13l-4.8.4c-.1 2.5-.4 4.7-.9 6.7-.6 2-1.4 3.7-2.5 5.1-1.1 1.5-2.4 2.7-4.1 3.7-1.6 1-3.5 1.8-5.6 2.3-.2-.3-1-1.3-2.4-2.9 2.2-.5 4-1.2 5.5-2s2.8-1.8 3.8-3 1.7-2.6 2.2-4.2.7-3.5.8-5.5l-5.4.3c-1.4.1-2.3.1-2.8.2l-.9-3.1c.5-.1 1.3-.4 2.3-1.1 1-.6 2.3-1.7 3.8-3.2 1.5-1.5 2.9-3 4-4.5h-9.1c-1.7 0-2.8 0-3.4.1v-3.2c.6.1 1.8.1 3.4.1h13c-.5-.9-1.2-2.1-2.2-3.5l3.2-.9c.7 1 1.3 1.9 1.8 2.7.5.8.8 1.4 1 1.7h11.4c1.6 0 2.7 0 3.4-.1v3.2c-.6-.1-1.8-.1-3.4-.1h-14.8c-1 1.3-2.2 2.8-3.8 4.5-1.5 1.7-2.9 3-4.2 4.1 5.2-.2 10.9-.6 17-1.2-1.4-1.3-2.7-2.5-4.1-3.6l2.3-1.6c1.4 1 3 2.4 4.9 4.1 1.9 1.7 3.5 3.4 4.9 5.1l-2.6 2.2c-.6-1-1.6-2.1-3-3.6l-5.4.4V294c0 .7.3 1.1.9 1.2.1.1.4.1.7.1h2.9c1 0 1.7-.1 2.3-.3.6-.2 1.1-.5 1.5-.9.2-.2.4-.6.6-1.1.2-.5.3-1.2.4-2.3 0-.8.1-2 .1-3.4zm27.8-16.2h-12.3v6.6h-3.2c.1-.4.1-.8.1-1.1v-6.8c0-.3 0-.7-.1-1.1h15.5v-2.4h-10.4c-1.3 0-2.3 0-2.9.1v-2.7h29.8v2.7c-.6-.1-1.5-.1-2.8-.1H232v2.4h15.8v9h-3.2v-6.6H232v7.2c0 .7 0 1.1.1 1.4H229c.1-.3.1-.8.1-1.4v-7.2zm17.2 18.9c.3.2.7.4 1.2.8.5.3 1.1.6 1.6.9 0 .1 0 .3-.1.6 0 .3-.1.8-.2 1.4-.1.6-.3 1.2-.7 1.7s-.8 1.1-1.4 1.5c-.6.4-1.6.8-2.8 1.1-1.2.3-3 .4-5.3.4-2.2 0-3.9 0-5.2-.1-1.3-.1-2.3-.3-2.8-.6s-.9-.7-1.1-1.2c-.2-.5-.3-.9-.3-1.3v-2h-8.6v2.6h-2.9c.1-.5.1-1 .1-1.3v-11.8c0-.4 0-.8-.1-1.3H244v11.8h-11.9v.9c0 .7.4 1.1 1.1 1.4.7.2 2.6.2 5.8.2 1.1 0 2.1-.1 3.1-.2s1.9-.4 2.6-.8c.5-.4.9-.9 1.2-1.6.2-.7.3-1.8.4-3.1zm-19.6-16.9v1.9h-7.6v-1.9h7.6zm-6.1 3.8h6.2v1.9h-7.6v-1.9h1.4zm8.5 6.8h-8.6v2.5h8.6v-2.5zm-8.6 7.2h8.6v-2.6h-8.6v2.6zm20.6-4.7v-2.5h-9v2.5h9zm-9 4.7h9v-2.6h-9v2.6zm9.8-17.8v1.9h-7.4v-1.9h7.4zm-6.1 3.8h6.1v1.9h-7.4v-1.9h1.3z" style="fill:#3dae2b"/>
    <path d="M78.1 334.1v.7h-1v-4.2c0-1.7.1-3 .1-4.1-.4.5-.9 1-1.4 1.5-.5.5-1 .9-1.4 1.2l-.6-.8c.5-.4 1.1-.8 1.7-1.4s1.1-1.2 1.7-1.9v-.9l.5.2c.9-1.2 1.6-2.4 2.2-3.7h-5.7v-1h6.1c.4-1 .7-1.9.8-2.8l1 .2-.1.1c-.1.3-.2.7-.4 1.2s-.3.9-.4 1.2h10v1H80.9c-.3.7-.7 1.5-1.2 2.3-.5.8-1 1.6-1.5 2.2v9zm12.1-1.3h1.2v1h-12v-1H85v-5.3h-4.7v-1H85v-3.7h1.1v3.7h4.6v1h-4.6v5.3h4.1zm17-6.2c.6 1.3 1.3 2.5 2.1 3.5s1.9 1.8 3 2.4l-.6.9c-1.1-.5-2.1-1.3-3-2.4a14 14 0 0 1-2.3-4c-.3.1-.7.3-1.3.6.3.7.4 1.4.6 2.2.1.8.2 1.5.2 2.3 0 .8-.3 1.4-.8 1.8s-1.4.5-2.5.5h-1.3l-.4-1c.2 0 .5.1.9.1h.9c.8 0 1.4-.1 1.7-.3.4-.2.5-.6.5-1.1 0-1-.1-1.9-.3-2.8-.7.6-1.6 1.3-2.7 1.8s-2.1 1.1-3.2 1.5c-1.1.4-2.2.8-3.4 1.1l-.5-.8c.6-.2 1.4-.4 2.1-.6.8-.3 1.6-.6 2.5-.9.9-.4 1.7-.8 2.6-1.3s1.7-1 2.4-1.6c-.2-.6-.4-1.2-.7-1.7-.6.4-1.2.8-2 1.2-.8.4-1.7.8-2.8 1.2s-2.1.7-3.2.9c-.1-.1-.1-.2-.2-.4s-.2-.3-.3-.4c1.1-.2 2.1-.5 3.3-.9 1.1-.4 2.1-.8 2.9-1.2.8-.4 1.4-.8 1.9-1.1-.3-.5-.7-1-1.2-1.4-.6.3-1.4.7-2.3 1-.9.3-2.1.6-3.4.9l-.6-.8c.6-.1 1.1-.2 1.7-.3s1.2-.3 1.8-.5c.6-.2 1.3-.4 2.1-.8.8-.3 1.5-.7 2.1-1.1h-5.6V322h11.4v.9h-4.5c-.6.5-1.2.9-1.8 1.2.4.3.7.7 1.1 1.2l.9 1.5c.5-.2 1-.4 1.6-.7s1.2-.7 1.8-1c.6-.4 1-.7 1.3-1l.7.7-.3.1c-.4.3-.9.6-1.4.9s-1 .6-1.5.8zm-11.7-3.9v-3.9h7.6c-.4-.7-.8-1.3-1.2-1.9l1-.2c.2.3.4.6.7 1 .2.4.4.7.6 1h7.4v3.9h-1v-3h-14v3h-1.1zm36.6-1.1v7.8H131v-1.3h-6v6.8h-1v-6.8h-5.9v1.3H117V321h6.9v-4c.5 0 .8 0 1.1.1v3.9h7.1v.6zm-13.9 5.6h5.9v-5.4h-5.9v5.4zm6.9 0h6v-5.4h-6v5.4zm12.6-6.6h6.4v.9h-7.3v-.9h.9zm5.7 8.2v5.9h-.9v-1.1h-4v1.1h-.9v-5.9h5.8zm-1-4.6h-4.5v-.9h5.2v.9h-.7zm-4.5 2.7v-.9h5.2v.9h-5.2zm.7 5.9h4v-3.2h-4v3.2zm3-13.1-.9.4c-.5-1-1-1.8-1.5-2.6l.8-.4c.3.3.5.7.8 1.2.3.5.6 1 .8 1.4zm13.1 14.1c-.2.3-.3.6-.5.9-.9-.3-1.7-.7-2.5-1.2s-1.5-1-2.1-1.6c-1.3 1.2-2.9 2.1-5 2.7-.1-.2-.2-.5-.5-.9 1.9-.5 3.5-1.4 4.8-2.5-.5-.6-1-1.3-1.4-2.1-.4-.8-.8-1.6-1-2.5h-1.4v-.9h7l.1-.1c.5.4.8.6.8.6l-.1.1c-.5 2-1.4 3.7-2.6 5 1.2 1.1 2.7 2 4.4 2.5zm-6.6-13.9c0 1-.3 1.9-.8 2.7s-1.3 1.5-2.2 1.9c-.1-.2-.3-.4-.6-.8 1-.5 1.6-1.1 2-1.8.4-.6.6-1.4.6-2.2v-1.8h4.7v4.5c0 .2.1.4.3.4h1.1c.6 0 1 0 1.4-.1l-.1.9c-.5 0-.9.1-1.3.1H152c-.4 0-.6-.1-.7-.2-.2-.2-.4-.6-.4-1.2v-3.5h-2.7v1.1zm3.7 6.7h-4.3c.4 1.5 1.2 2.9 2.1 4 1.1-1.2 1.8-2.5 2.2-4zm22 6.2h1.5v1H158v-1h3.5v-8h4c.1-.3.2-.7.4-1.3h-7.3v-.8h7.4c.2-.7.3-1.2.4-1.5h-7v-3.6h14.5v3.6h-6.5c-.1.2-.2.7-.4 1.5h7.8v.8h-8l-.3 1.3h5.4v8h1.9zm-13.4-14.4v2.1h3.6v-2.1h-3.6zm10.5 7.2h-8.5v1.3h8.5v-1.3zm0 3.2v-1.3h-8.5v1.3h8.5zm-8.5.7v1.3h8.5v-1.3h-8.5zm0 2v1.3h8.5v-1.3h-8.5zm2.4-11h3.6v-2.1h-3.6v2.1zm8.1 0v-2.1h-3.6v2.1h3.6zm22.5 9 1 .7c0 1-.1 1.7-.2 2.3s-.3.9-.6 1.2c-.3.3-.7.5-1.1.7s-1.1.2-2 .2c-1 0-1.7 0-2.1-.1-.4 0-.7-.1-.9-.2-.4-.2-.6-.7-.6-1.5v-7.1c-1.1.1-2.1.2-2.8.2v1.1c0 .5-.1.9-.2 1.4s-.2.9-.3 1.3c-.1.4-.3.9-.6 1.4-.3.5-.7 1-1.1 1.5-.5.5-1.1.9-1.8 1.3s-1.6.7-2.5.9l-.7-.9c1.1-.2 2.1-.6 2.9-1 .8-.4 1.5-1 2-1.7s.9-1.4 1.1-2.3c.2-.9.4-1.9.4-3-.2 0-.7.1-1.6.1s-1.5.1-1.8.1c-.3 0-.7 0-1 .1l-.3-1c.3 0 .7-.3 1.3-.7s1.3-1 2.1-1.9c.8-.8 1.5-1.6 2.1-2.4h-6.8v-1h8.6c-.2-.3-.4-.7-.7-1.1s-.5-.7-.7-1l.9-.3c.2.2.5.6.8 1s.6.8.8 1.2l-.4.1h8v1h-9.1c-.3.5-.8 1.1-1.5 1.8s-1.3 1.4-1.8 1.9c-.6.5-1 .9-1.4 1.2 3-.1 6.3-.4 9.8-.7-.7-.7-1.5-1.4-2.4-2.1l.7-.5c.5.4 1.1.8 1.8 1.4.7.6 1.3 1.1 1.8 1.7s1 1.1 1.4 1.5l-.8.7c-.4-.5-.9-1.2-1.6-1.9l-3.1.3v7.3c0 .2.1.4.2.5s.3.2.4.2c.1 0 .2 0 .5.1h1.7c.5 0 1 0 1.4-.1s.6-.2.9-.5c.1-.1.2-.3.3-.6.1-.3.2-.6.2-1.2-.6-.3-.6-.9-.6-1.6zm12.7-8.7h-6.8v3.4h-1V320h7.8v-1.6h-7v-.9H216v.9h-7v1.6h7.9v4.2h-1v-3.4H209v4.5h-1v-4.5zm8.5 10.1c.1.1.2.2.4.3.2.1.3.2.5.3-.1.9-.2 1.5-.5 2-.3.4-.8.7-1.5.9-.7.2-1.6.3-2.8.3-1.2 0-2.1 0-2.6-.1-.6 0-.9-.1-1.1-.2-.2-.1-.4-.3-.5-.6-.1-.2-.2-.6-.2-1v-.7h-4.9v1.4h-.9v-7.1h12.9v5.8h-6.1v.7c0 .5.2.8.6.9.5.1 1.5.1 3 .1 1.3 0 2.3-.2 3-.5.3-.2.5-.5.7-.8s0-1 0-1.7zm-10-8.7v.7h-3.8v-.7h3.8zm-3.1 2h3.1v.7h-3.8v-.7h.7zm4.7 2.9h-4.9v1.7h4.9v-1.7zm-5 4.2h4.9v-1.8h-4.9v1.8zm11-2.5v-1.7h-5.1v1.7h5.1zm-5.1 2.5h5.1v-1.8h-5.1v1.8zm5.3-9.1v.7h-3.9v-.7h3.9zm-3.2 2h3.2v.7h-3.9v-.7h.7zm15.4 3-.6.6c-.4-1.2-.9-2.4-1.5-3.5v10.4h-1v-.8c0-2.2 0-5.6.1-10.2-.2 1-.5 2-.9 3-.3 1-.7 1.8-1 2.4-.3.7-.6 1.2-.8 1.5-.1-.2-.2-.5-.5-1 .3-.4.7-1 1-1.8.4-.8.7-1.7 1.1-2.7s.6-2 .8-3h-2.6v-.9h2.8V317c.5 0 .8 0 1 .1v4.2h2.1v.9h-2.1v1.5l.4-.2c.3.5.6 1.1.9 1.8.3.7.6 1.3.8 1.9zm11.7 2.1c-.6-.4-1.2-.8-1.7-1.3v6.8h-1v-.8h-6.5v.8h-1v-6.6c-.2.2-.4.4-.8.6-.3.3-.6.5-.8.6l-.5-.8c.7-.5 1.4-1 2.1-1.6.6-.6 1.2-1.3 1.6-2h-2.8v-.9h3.4c.1-.2.3-.5.4-.9.2-.4.3-.7.4-1H228v-.9h3.4c.2-.7.3-1.2.4-1.8h-4.6v-.9h4.7c.1-.5.1-1.1.2-1.6l1 .1-.1.1-.2 1.4h5.1v.9h-5.3c-.1.6-.3 1.2-.4 1.8h5.1v.9H232c-.1.3-.2.6-.4 1-.1.4-.3.7-.4 1h7.2v.9h-3.2c.7 1.3 1.9 2.5 3.6 3.5-.3.3-.4.6-.5.7zm-2-1.6c-.4-.4-.8-.8-1.1-1.3-.4-.5-.6-1-.9-1.4h-3.6c-.3.5-.6 1-1 1.5s-.8 1-1.1 1.3l.2.1c1.2-.3 2.1-.6 2.9-1 .1.1.3.3.6.7l-.4.1c-.7.3-1.6.6-2.7.9v1.9h2.4v.8h-2.4v2h6.5v-2h-2.5v-.8h2.5v-2h-2.8v-.8h3.4zm13.3.5c.3-.2.6-.5.8-.8.2-.4.3-.9.3-1.5h-.9v-1.7h1.7v1.2c0 .5-.1 1-.2 1.5s-.3.8-.6 1.2c-.3.3-.5.5-.8.7l-.3-.6zM56.3 351.3l-.6.8c-.4-.4-.9-.7-1.5-1.1s-1-.7-1.5-1c.1-.2.3-.5.5-.8.4.2.9.5 1.5.9.7.5 1.2.8 1.6 1.2zm-2.9 9a55.343 55.343 0 0 0 2.8-5.6l.7.9c-.3.6-.7 1.5-1.2 2.6s-1 2-1.4 2.6l-.3.7-.9-.8.3-.4zm.3-15.1.6-.8c.4.3.9.6 1.4 1l1.5 1.2-.6.8-1.5-1.2c-.5-.4-1-.8-1.4-1zm16.4.6h.7v.9h-3.2v2.4h-3v1.7h5.2v9.6c0 .4-.2.7-.6.9-.4.2-1 .3-1.9.3-.1-.3-.2-.6-.4-1 .3 0 .6.1 1 .1.3 0 .5 0 .7-.1.2-.1.3-.2.3-.4v-8.6h-4.3v9.9h-.9v-9.9h-4.3v10.2h-1v-11h5.2v-1.7h-3v-2.4h-3v-.9h3v-1.7c.2 0 .6 0 1 .1v1.7h5v-1.7c.4 0 .8 0 1 .1v1.7h2.5zm-7.9 7.6c0 .6.1 1.2.2 1.9s.2 1.3.4 1.9c.2.6.4 1 .6 1.3l-.5.5c-.5-.7-.8-1.8-1-3.1-.2.7-.4 1.3-.6 1.9-.2.6-.5 1-.8 1.3-.2-.2-.3-.4-.5-.6.4-.4.7-1 1-1.8s.5-1.6.6-2.7h-1.2v-.8h1.8zm-.6-5h5v-1.8h-5v1.8zm6.3 10.5c-.4-.7-.8-1.7-1-3.1-.2.7-.4 1.4-.6 1.9-.2.5-.5 1-.8 1.3-.2-.2-.3-.4-.5-.6.3-.4.7-.9.9-1.7.3-.8.5-1.6.6-2.6h-1.1v-.8h1.9c0 .6.1 1.2.2 1.8.1.6.2 1.2.4 1.8.2.6.4 1 .6 1.3l-.6.7zm17.4 1.5c2.2 0 4.2-.1 6.2-.3l-.3 1c-2 .1-4 .2-6 .2-.4 0-.9 0-1.5-.1s-1.1-.2-1.7-.4c-.6-.2-1.1-.4-1.7-.7s-1-.6-1.4-1c-.4-.4-.7-.8-1-1.2-.2-.4-.4-.8-.5-1.2-.3 1-.7 1.9-1.2 2.8s-1 1.6-1.5 2.2c-.3-.2-.6-.5-.9-.7.8-.9 1.6-2 2.2-3.4.6-1.4 1-2.9 1.2-4.5l1 .2-.1.2c0 .2-.1.5-.1.8-.1.3-.1.6-.2.8.1 1.2.6 2.2 1.3 3 .8.8 1.7 1.5 3 1.9v-8.7h-5.2V345h11.5v6.3h-5.3v3.8h6.5v1h-6.5v4.3c.8-.1 1.5 0 2.2 0zM78 345.9v4.4h9.5v-4.4H78zm31.5.5v15.3h-1.1V360h-9.6v1.7h-1.1v-16.2h11.7l.1.9zm-1.1 0h-9.6v5.7h9.6v-5.7zm-9.5 12.8h9.6V353h-9.6v6.2zm33.6-11.5v3.8h-1v-3.4h-13.9v3.4h-1v-4.3h4.1c-.2-.4-.5-.8-.8-1.2-.3-.4-.6-.8-.9-1.1l.9-.4c.3.4.7.8 1 1.3.4.5.7.9.9 1.3h2.2v-3.4c.3 0 .6 0 1.1.1v3.3h2.2c.2-.2.4-.4.6-.7.3-.3.5-.7.8-1.1.3-.4.5-.7.6-1l1 .5-.2.2c-.4.7-.9 1.4-1.6 2.1h4v.6zm-1.2 8.5v3.2c0 .3-.1.6-.2.7-.2.2-.4.3-.7.4-.3.1-.7.1-1 .2h-1.2l-.5-1c.1 0 .3 0 .6.1h.8c.5 0 .9 0 1-.1.2-.1.3-.2.3-.5v-2.6h-5.2v5.4H124v-5.4h-5v4h-1v-4.9h6.1v-1.8h-4V350h9.1v3.9h-4.1v1.8h6.2v.5zm-10.3-5.5v2.3h7.2v-2.3H121zm15.4 3.6c.5-.3 1-.7 1.4-1s.9-.8 1.4-1.2.9-1 1.4-1.6c.5-.6.9-1.2 1.2-1.8l.9.5-.1.1c-.6.9-1.2 1.8-1.9 2.6v9.8h-1v-3.5c0-1.5.1-3.3.1-5.3-.4.4-.9.9-1.4 1.3-.5.4-1 .8-1.4 1.1-.1-.1-.1-.3-.2-.5s-.3-.4-.4-.5zm5.9-9.5c-.3.4-.7.9-1.2 1.5s-1.1 1.2-1.9 1.7c-.7.6-1.4 1-2 1.4l-.6-.8c.9-.5 1.8-1.2 2.8-2.1s1.7-1.7 2.1-2.4l.8.6v.1zm11 5.6h1.1v1h-3v8.6c0 .2 0 .4-.1.7-.1.2-.2.4-.5.5-.3.1-.7.3-1.2.3-.5.1-1.3.1-2.4.1l-.6-1.1c.7.1 1.3.1 2 .1.4 0 .7 0 1-.1.3-.1.5-.1.6-.2.1-.1.2-.3.2-.5v-8.5H144v-1h9.3zm-.6-4.1h-8.2v-1h9.2v1h-1zm5 14.9c.2-.7.4-1.5.6-2.5.1-1 .2-1.9.2-2.6l.7.2c0 .6-.1 1.2-.1 1.9-.1.7-.2 1.4-.3 2s-.2 1.1-.3 1.5l-.8-.5zm8.1-7.4v.3c0 1.8 0 3.1-.1 4s-.1 1.6-.3 2c-.2.4-.4.8-.8.9-.3.2-.7.3-1.1.3h-.8l-.4-1.1c.2.1.5.2.9.2.7 0 1.2-.3 1.3-.8.1-.2.1-.5.2-.8 0-.3.1-.8.1-1.6v-2.8h-6.2v-9.6h7.1v.8h-2.8v2.2h2.4v.8H163v2.1h2.4v.8H163v2.2h2.8zm-3.7-8h-2.5v2.2h2.5v-2.2zm0 5.1v-2.1h-2.5v2.1h2.5zm-2.4 2.9h2.5v-2.2h-2.5v2.2zm.3 2.3.6-.1c.1.5.2 1.1.3 1.8.1.8.1 1.6.2 2.4l-.6.1c0-.3 0-.8-.1-1.4s-.1-1.2-.1-1.7c-.2-.4-.3-.8-.3-1.1zm2-.2c.3 1.1.5 2.2.6 3.2l-.6.1c-.1-.8-.3-1.9-.6-3.2l.6-.1zm2.1 2.3-.6.2c0-.2-.1-.5-.2-.9s-.3-.9-.5-1.6l.5-.1c.1.3.3.6.4 1.1.2.4.3.8.4 1.3zm6.2-.4c.5.6 1.1 1 1.6 1.4.6.4 1.2.7 1.8.9s1.3.4 2 .5c-.2.4-.3.7-.4 1-.4-.1-.8-.2-1.3-.3-.5-.1-.9-.3-1.4-.6s-1-.5-1.5-.9c-.5-.3-1-.8-1.4-1.2-.9 1.4-2 2.4-3.5 3.1l-.6-.8c.7-.3 1.4-.8 1.9-1.3.6-.5 1.1-1.1 1.5-1.7-.3-.4-.6-.9-.9-1.4s-.5-1-.7-1.6l.8-.5c.3 1 .7 1.8 1.3 2.6.2-.4.3-.8.5-1.2.1-.4.2-.9.3-1.3 0-.4.1-.8.1-1.1h-3.7v-6h3.7V344c.5 0 .8 0 1 .1v3.3h3.7v6h-3.7c0 .7-.1 1.4-.3 2.2-.2.7-.5 1.5-.8 2.2zm-2.6-9.4v4.2h2.7v-4.2h-2.7zm6.4 4.2v-4.2h-2.7v4.2h2.7zm20.7 7.4h1.5v1h-17.2v-1h8v-2.8h-6.6v-1h6.6v-2.5h-5.7v-8.5h12.5v8.5H188v2.5h6.8v1H188v2.8h6.8zm-7.7-13.9h-4.7v2.9h4.7v-2.9zm-4.8 3.7v3.1h4.7v-3.1h-4.7zm10.5-.9V346H188v2.9h4.8zm-4.8 4h4.8v-3.1H188v3.1zm16.4-2v10.8h-1.1v-4.1c0-1.8.1-3.7.1-5.8-.3.8-.6 1.7-1 2.5-.4.9-.8 1.7-1.2 2.3-.4.7-.8 1.2-1.2 1.6-.2-.3-.4-.6-.5-.9.3-.3.7-.8 1.1-1.4.4-.6.9-1.4 1.3-2.3.5-.9.8-1.9 1.1-2.8h-3.2v-.8h3.5v-3.4c-.7.2-1.2.4-1.7.5s-.8.2-.9.2l-.4-.8c.9-.1 1.9-.4 3-.8s2-.7 2.7-1.1l.6.7c-.1 0-.3.1-.4.1-.5.2-1.2.5-2.1.9v3.8h2.7v.9h-2.4zm2.9 4.5-.6.6c-.6-1.1-1.2-2.1-2-3.1.2-.2.4-.3.6-.4.6.8 1.3 1.8 2 2.9zm9 4.6h1.1v.9h-11v-.9h5.1v-2.8h-3.3v-.9h3.3v-2.6c-.8.1-2 .2-3.6.3l-.3-.9c.7 0 1.4 0 2.2-.1.8 0 1.5-.1 2.2-.2.7-.1 1.4-.2 2-.3.6-.1 1.2-.2 1.7-.4 0 0 .3.3.7.8l-.4.1c-1 .2-2.2.4-3.5.6v2.7h3.5v.9h-3.5v2.8h3.8zm-7.9-9.1v-5.3h7.5v5.3h-7.5zm6.5-4.5h-5.5v3.6h5.5v-3.6zm8.1 7.7c0 .9-.1 1.7-.2 2.5s-.2 1.5-.4 2.1c-.2.6-.4 1.2-.6 1.7-.3.5-.5.9-.8 1.2-.1-.1-.2-.2-.3-.4l-.4-.4c.6-.7 1-1.6 1.4-2.8.3-1.2.5-2.6.5-4.3v-7.9l.6.3c1-.1 2.1-.4 3.2-.7 1.1-.3 2.1-.7 2.9-1.1l.6.9-.3.1c-.9.3-1.8.7-2.8.9-1 .3-2 .5-3.1.7v1.7h5.2v5.4H223zm0-4.5v3.6h4.2v-3.6H223zm14.8.8h.9v1h-2.6v10.2H235v-10.2h-3.4v.4c0 1.1-.1 2.1-.3 3.1-.2 1-.5 1.9-.9 2.8-.4.8-.8 1.6-1.4 2.2-.5.6-1.1 1.2-1.8 1.6l-.8-.7c.6-.4 1.2-.9 1.7-1.5s1-1.3 1.3-2c.4-.8.6-1.6.8-2.6.2-.9.3-1.9.3-2.9v-5.6l.7.3c1-.2 2-.5 3.1-.9s2-.8 2.8-1.2c.3.4.5.7.6.8-.1.1-.2.1-.3.1-.9.4-1.9.7-2.8 1.1-1 .3-2 .6-3 .8v3.2h6.2zm19.7 4.2h-7.1c-.1.3-.3.9-.7 1.7h7.9v4.4c0 .2 0 .4-.1.6-.1.2-.3.3-.5.4-.3.1-.5.2-.9.2H255l-.5-1c.4.1.8.1 1.1.1.3 0 .6 0 .7-.1.2-.1.3-.2.3-.4V357h-3.4v4.7h-1V357h-3.3v4.7h-1V357h-3.3v4.8h-1v-5.6h5c.2-.4.4-.8.5-1.1.1-.3.2-.5.2-.6h-7.2v-.8h16.6v.8c0 .1-.5.1-1.2.1zm-14.9-3v-4.2h7.5v-1.6h-6.6v-.9h14.4v.9H251v1.6h7.6v4.2h-1v-3.4H251v4.6h-1v-4.6h-6.5v3.4h-.9zm6.1-2.1v.7h-3.8v-.7h3.8zm-3 2.1h3.1v.7H245v-.7h.7zm10.4-2.1v.7h-3.8v-.7h3.8zm-3 2.1h3.1v.7h-3.8v-.7h.7zm18.5 3.9c-.4 0-.8-.1-1.2-.3s-.7-.5-.9-.9c-.2-.4-.4-.8-.4-1.3 0-.4.1-.8.3-1.2s.5-.7.9-.9c.4-.2.8-.4 1.3-.4.4 0 .8.1 1.2.3.4.2.7.5.9.9.2.4.4.8.4 1.3 0 .4-.1.8-.3 1.2-.2.4-.5.7-.9 1-.4.2-.8.3-1.3.3zm0-.7c.5 0 .9-.2 1.3-.5.4-.4.5-.8.5-1.3s-.2-.9-.5-1.3-.8-.5-1.3-.5-.9.2-1.3.5c-.4.4-.5.8-.5 1.3s.2.9.5 1.3c.4.3.8.5 1.3.5z" style="fill:#1a1a1a"/>
    <g style="opacity:.6">
        <path class="st3" d="M211 208.1h-88.8c-6.2 0-11.3-5.1-11.3-11.3v-69.5c0-1.7 1.4-3.1 3.1-3.1 1.7 0 3.1 1.4 3.1 3.1v69.5c0 2.8 2.3 5.1 5.1 5.1H211c2.8 0 5.1-2.3 5.1-5.1v-69.5c0-1.7 1.4-3.1 3.1-3.1 1.7 0 3.1 1.4 3.1 3.1v69.5c0 6.2-5.1 11.3-11.3 11.3z"/>
        <path class="st3" d="M199.2 190.2H134c-1.7 0-3.1-1.4-3.1-3.1v-46.8c0-1.7 1.4-3.1 3.1-3.1h65.2c1.7 0 3.1 1.4 3.1 3.1v46.8c0 1.7-1.4 3.1-3.1 3.1zm-62.1-6.2h59v-40.6h-59V184zm76-74.6c-1.7 0-3.1-1.4-3.1-3.1V80.4h-16v8.3c0 1.7-1.4 3.1-3.1 3.1-1.7 0-3.1-1.4-3.1-3.1V77.3c0-1.7 1.4-3.1 3.1-3.1H213c1.7 0 3.1 1.4 3.1 3.1v29c.1 1.7-1.3 3.1-3 3.1z"/>
        <path class="st3" d="M237.5 132.3c-.7 0-1.4-.2-2-.7l-68.9-59.3-68.9 59.3c-1.3 1.1-3.2 1-4.4-.3-1.1-1.3-1-3.3.3-4.4l70.9-61c1.2-1 2.9-1 4 0l70.9 61c1.3 1.1 1.4 3.1.3 4.4-.4.6-1.3 1-2.2 1zm-70.9 56.6c-1.7 0-3.1-1.4-3.1-3.1v-19.2h-27.2c-1.7 0-3.1-1.4-3.1-3.1 0-1.7 1.4-3.1 3.1-3.1h27.2v-19.2c0-1.7 1.4-3.1 3.1-3.1 1.7 0 3.1 1.4 3.1 3.1v19.2H198c1.7 0 3.1 1.4 3.1 3.1 0 1.7-1.4 3.1-3.1 3.1h-28.2v19.2c-.1 1.7-1.5 3.1-3.2 3.1z"/>
        <path class="st3" d="M164.2 94.6h11.2l-8.1 16.2h10.6L162.7 140l3.9-21.5h-8.9z"/>
    </g>
    <path d="M292.6 274.9c25-29.1 40.1-66.9 40.1-108.2C332.7 74.9 258.3.6 166.6.6S.5 74.9.5 166.6c0 41.4 15.1 79.2 40.1 108.2" style="fill:none;stroke:#1a1a1a;stroke-linecap:round;stroke-linejoin:round;stroke-miterlimit:10"/>
</svg>
