<svg xmlns="http://www.w3.org/2000/svg" width="1034.9" height="182.8" style="overflow:visible;enable-background:new 0 0 1034.9 182.8" xml:space="preserve">
    <style>
        .st0{fill:#1a1a1a}.st1{fill:#ecf0f6}.st2{fill:none;stroke:#1a1a1a;stroke-width:.4258;stroke-miterlimit:10}
    </style>
    <path class="st0" d="m6.1 172.3.2.6-2.4.7 1.6 2-.5.4-1.4-2.1-1.5 2.1-.5-.4 1.6-2-2.4-.7.2-.6 2.3.9-.1-2.5h.7l-.1 2.5 2.3-.9zm4.5 2.4v2.1H13v5.7h-.7v-5.2h-1.8c0 .7-.1 1.3-.2 1.9-.1.6-.2 1.2-.4 1.7s-.4 1-.6 1.3c-.1-.2-.3-.3-.5-.5.4-.6.7-1.3.9-2.3s.3-2.1.3-3.4v-5.4h.7v3.3h1.5v-3.7h.7v3.5h1.2v.6h-3.5zm10.1 4.3h.8v.7h-2.4v3h-.7v-3h-4.8v-.7h4.8v-2.2h.7v2.1h1.6zm-6.6-.9c.3-.1.6-.2.8-.3.3-.1.5-.2.7-.4s.4-.3.6-.5c.2-.2.3-.4.5-.7h-2.2v-4.6h2.3c0-.1.1-.3.3-.6.1-.3.3-.6.4-.9l.8.1-.1.2c-.2.4-.3.8-.6 1.2h3.3v4.6h-3.3c-.1.3-.3.6-.5.9-.2.3-.5.5-.8.8-.4.3-.9.5-1.5.7-.3 0-.4-.2-.7-.5zm3.3-5.9h-2.2v1.4h2.2v-1.4zm-2.3 3.5h1.8c.1-.4.3-.9.3-1.5h-2.1v1.5zm2.5 0H20v-1.5h-2.2c0 .6-.1 1.1-.2 1.5zm2.4-2v-1.4h-2c0 .5 0 1-.1 1.4H20zm4.2 8.6c.4-.4.7-.8 1.1-1.3.3-.5.6-1 .7-1.3l.7.3c-.2.4-.4.8-.7 1.3-.3.5-.5.8-.7 1.1-.2.2-.3.4-.4.5l-.7-.6zm4-11.3v7.7h-3.5V171h3.5zm-.6.6h-2.2v2.8h2.2v-2.8zm-2.2 6.5h2.2V175h-2.2v3.1zm2.8 1.9.7-.1c.1.3.2.7.2 1.2s.1 1 .2 1.5l-.7.2c0-.4 0-.8-.1-1.3-.1-.7-.2-1.2-.3-1.5zm4.5-8.3c0 .5-.2 1-.4 1.4-.3.4-.6.8-1.1 1.2-.5.3-1 .6-1.7.9l-.4-.6c.5-.2.9-.3 1.3-.6.4-.2.7-.4.9-.7.2-.3.4-.5.6-.8.1-.3.2-.6.2-.9h-2.5v-.6h6.2v.2c0 1 0 1.7-.1 2-.1.3-.1.6-.2.7-.1.2-.2.3-.3.4-.1.1-.4.2-.6.3-.3.1-.7.1-1.1.1-.1-.3-.2-.6-.3-.8.2.1.4.1.7.1.6 0 .9-.2 1.1-.5.1-.1.1-.3.1-.5s.1-.8.1-1.6h-2.5zm-2.8 7.3v-3.4h5.3v3.4h-5.3zm.7-.5h4v-2.2h-4v2.2zm.3 1.5.6-.2c.1.2.3.5.4.8.2.3.3.6.4 1s.2.6.3.7l-.7.2c-.1-.3-.2-.6-.3-1-.1-.4-.3-.7-.4-.9-.1-.3-.2-.5-.3-.6zm3.5-.3c.3.3.5.6.9 1.1.3.5.6.9.9 1.4l-.7.3c-.2-.4-.4-.9-.7-1.4s-.6-.9-.9-1.2l.5-.2zm7.5-4.6v7.6h-.7V180c0-1.1 0-2.5.1-4.2-.3.9-.6 1.8-1 2.6s-.8 1.4-1.1 1.9c-.1-.2-.2-.4-.4-.6.4-.5.8-1.1 1.2-2s.7-1.7 1-2.6h-2v-.6h2.2V172c-.2.1-.5.2-.9.3-.3.1-.7.2-1 .2 0-.1-.1-.3-.3-.6.6-.1 1.3-.3 2-.5s1.3-.5 1.8-.8l.4.5s-.1 0-.3.1c-.2.1-.6.3-1.2.5v2.7h1.6v.6h-1.4zm2 3.2-.5.4c-.2-.4-.3-.7-.6-1.1-.2-.4-.4-.7-.5-.9-.1-.2-.2-.3-.3-.4l.4-.3c.2.3.5.6.7 1.1.4.4.6.8.8 1.2zm6.9 1.6c.3.2.5.3.6.4 0 .6-.1 1-.2 1.3-.1.3-.2.5-.3.6-.1.1-.3.2-.5.3-.2.1-.5.1-.9.1H49c-.2 0-.3 0-.4-.1-.1 0-.2-.1-.2-.1-.2-.1-.3-.4-.3-.9v-3.7h-1.6c0 .7-.1 1.2-.2 1.8s-.3 1-.5 1.4c-.2.4-.6.8-.9 1.1-.4.3-.8.5-1.4.7-.1-.1-.2-.3-.4-.6.6-.2 1.2-.5 1.6-.8.4-.4.7-.8.9-1.4.2-.6.4-1.3.4-2.1h-1.2V174H50v3.9h-1.2v3.8c0 .2.1.3.2.4.1 0 .3.1.6.1.2 0 .3 0 .5-.1s.3-.1.4-.2c.1-.1.2-.3.2-.6 0-.2.1-.5.1-.7v-.7zm-7-5.7c-.1-.2-.3-.4-.4-.5.2-.1.5-.4.8-.6s.6-.7.9-1.1c.3-.5.6-.9.8-1.4l.6.3-.1.1c-.1.1-.2.3-.3.6-.1.2-.3.5-.5.8-.2.3-.4.5-.6.7-.2.2-.4.4-.6.7-.2 0-.4.2-.6.4zm1.7.3v2.8h3.8v-2.8h-3.8zm5.7-.8-.4.5c-.2-.3-.4-.6-.7-1s-.6-.8-1-1.3-.7-.8-1-1.2l.5-.3c.4.4.9.9 1.3 1.5.5.7.9 1.3 1.3 1.8zm4.8-.3v9.4h-.7v-.6c0-1.7.1-4.2.2-7.7-.2.5-.4.9-.7 1.4s-.5.9-.8 1.2l-.4-.7c.5-.7 1.1-1.7 1.6-2.9s.9-2.3 1.2-3.4l.7.2-.1.1c-.3 1.1-.7 2-1 3zm10.7 8.8-.3.6c-1.8-.1-3.3-.5-4.7-1.1-1.2.6-2.9.9-5.1 1.1 0-.1-.1-.2-.2-.3-.1-.1-.1-.2-.2-.3 1-.1 1.8-.2 2.6-.3.8-.1 1.5-.3 2.1-.6-.6-.3-1.1-.8-1.6-1.3-.3.2-.6.4-1 .6s-.8.4-1.2.5c-.1-.1-.2-.2-.4-.5.5-.2 1.1-.4 1.6-.7.5-.3.9-.5 1.2-.8s.6-.5.7-.7l-.2-.1c-.1-.1-.2-.1-.2-.3 0-.1-.1-.3-.1-.4v-1.2h.6v1.1c0 .1.1.2.3.3h1.2c.3 0 .6 0 .7-.1.2 0 .3-.1.4-.2.1-.1.2-.1.2-.2.1-.1.1-.2.1-.3v-.4l.5.3c0 .2-.1.4-.1.6-.1.2-.2.3-.4.4-.2.1-.4.2-.6.2-.3.1-.6.1-1 .1h-.8s-.1.1-.2.3l-.5.5H64l.1-.1c.1.1.3.2.6.4l-.1.1c-.3.3-.7.7-1 .9-.4.3-.7.5-1.1.7 1.1.8 2.5 1.1 4.2 1.2zm-9.4-4.5v-2.1h1.8v-3.5h2c.1-.2.2-.5.3-.7h-3.8v-.6h8.5v.6h-4l-.3.7h2.8v3.5h1.8v2.1h-.6v-1.6h-7.7v1.6h-.8zm0 1.1c.2-.2.4-.4.7-.6.2-.3.5-.5.6-.7.2-.2.3-.4.4-.6l.5.3-.1.1c-.2.3-.4.7-.7 1.1-.3.4-.6.7-.9.9-.1-.2-.2-.3-.5-.5zm6.6-6.3h-4.3v.7h4.3v-.7zm-4.2 1.2v.7H64v-.7h-4.3zm0 1.1v.8H64v-.8h-4.3zm.3 5c.2.2.5.5.8.7l.9.6c.2-.1.5-.3.9-.5.3-.2.7-.5 1-.8H60zm2.4-2.5c-.2-.1-.4-.3-.7-.5s-.6-.3-.8-.4l.3-.3c.2.1.5.2.7.3.3.1.5.3.7.5 0 .2-.1.4-.2.4zm2.1-.7c.2.2.5.5.8.9.3.4.6.8.8 1.2l-.5.3c-.2-.4-.4-.7-.7-1.2-.3-.4-.6-.8-.9-1l.5-.2zm4.4 5c.3-.2.7-.6 1.1-1s.7-.9.9-1.3l.7.2-.1.1c-.2.5-.6.9-1 1.4-.4.5-.8.8-1.1 1.1 0-.1-.2-.2-.5-.5zm6-9.7h-5.4v-.6h5.4v-1.1h.8v1.1h5.6v.6h-5.6v.9h3.8v3.7h-3.8v1.1c1.7-.1 2.9-.1 3.7-.2l-.6-.6.5-.3c.3.2.6.5.9.9.3.4.6.7.9 1.1l-.6.4c-.1-.3-.3-.6-.6-.9-.8.1-2.4.1-4.7.2s-3.9.1-5 .1l-.5.1-.1-.7h.7c1 0 2.5 0 4.8-.1v-1.1h-3.8v-3.7h3.8v-.9zm0 1.4h-3.1v1.1h3.1v-1.1zm-3.1 2.7h3.1v-1.1h-3.1v1.1zm5.5 5.7c.2-.1.3-.3.4-.5.1-.2.1-.5.1-.8.2.1.4.2.7.4 0 .5-.2.9-.4 1.1s-.5.4-1 .5c-.4.1-1 .2-1.8.2h-1.5c-.4 0-.7-.1-.9-.1-.2-.1-.3-.2-.4-.4-.1-.2-.1-.4-.1-.6v-2.3c.5 0 .7 0 .8.1v2.2c0 .3.1.4.4.5.2 0 .8.1 1.8.1.5 0 .8 0 1.1-.1.4-.1.7-.2.8-.3zm-1.2-1.4-.4-.4c-.2-.2-.4-.3-.7-.5s-.5-.3-.7-.5l.4-.4c.3.2.6.4 1 .6.4.3.7.5.9.7-.1.2-.3.4-.5.5zm2.6-7h-3.1v1.1h3.1v-1.1zm-3.1 2.7h3.1v-1.1h-3.1v1.1zm3.8 3.1c.3.2.7.6 1.1 1 .4.4.8.9 1.2 1.4l-.6.4c-.3-.4-.6-.9-1-1.3-.4-.5-.8-.9-1.1-1.2l.4-.3zm5.5-6.6h3.9v.6h-4.5v-.6h.6zm3.6 5.8v4.1h-.6v-.8h-2.5v.8h-.6v-4.1h3.7zm-.7-3.2h-3v-.6h3.6v.6h-.6zm-3 1.9v-.6h3.6v.6h-3.6zm.5 4h2.5v-2.2h-2.5v2.2zm1.9-9-.6.3c-.1-.3-.3-.6-.5-.9-.2-.4-.4-.6-.5-.9l.6-.3c.2.2.3.5.6.9.2.4.3.7.4.9zm5-1.3c-.2.6-.5 1.1-.9 1.7-.4.5-.7 1-1.1 1.3-.3.3-.6.6-.9.8-.1-.2-.3-.4-.4-.5.3-.2.6-.5.9-.7.2-.2.5-.5.6-.7.2-.2.4-.5.6-.8s.4-.8.6-1.3l.6.2zm3.9 9 .1.1s.2.2.5.3c0 .4 0 .7-.1 1s-.1.6-.2.8-.3.4-.5.5c-.2.1-.6.2-1 .2h-.8c-.2 0-.4-.1-.5-.2-.2-.2-.3-.4-.3-.8v-4H92c0 .7-.1 1.4-.3 2.1s-.5 1.3-.9 1.8-.9.9-1.5 1.2l-.5-.5c.3-.1.6-.3.9-.5s.6-.6.8-1c.3-.4.4-.9.6-1.5s.2-1.1.2-1.6H90v-3.7h5.2v3.7h-1.3v3.9c0 .2.1.4.2.4s.3.1.7.1c.2 0 .4 0 .5-.1.1-.1.3-.1.3-.2.1-.1.1-.2.2-.5.3-.3.3-.8.3-1.5zm-5.2-5.2v2.5h3.8v-2.5h-3.8zm5.7-.7-.5.5c-.2-.3-.4-.6-.7-1.1s-.7-.9-1.1-1.4-.8-.9-1-1.2l.5-.3c1 1.1 1.9 2.3 2.8 3.5zm6.8 5h-2.8v1.3h-.7v-9h4.2v8.3h-.7v-.6zm0-7h-2.8v2.8h2.8v-2.8zm-2.8 6.4h2.8v-3h-2.8v3zm10.4-6.7v10c0 .2 0 .3-.1.4-.1.1-.2.2-.4.3s-.4.1-.7.2-.7.1-1.1.1l-.4-.8c.3 0 .6.1 1 .1.3 0 .5 0 .7-.1s.3-.2.3-.3V178h-3.9c-.1.5-.2 1-.4 1.4s-.4.9-.6 1.2c-.2.4-.5.7-.8 1-.3.3-.6.6-.9.8l-.6-.5c1.9-1.4 2.9-3.5 2.9-6.4v-4.8h5.1l-.1.8zm-4.6 5.9h3.8v-2.7h-3.7v1c.1.6 0 1.2-.1 1.7zm3.9-5.9h-3.7v2.6h3.7v-2.6zm9.6 3.6v-1.2h1.2v1.2h-1.2zm0 4v-1.2h1.2v1.2h-1.2zm15.5-.5-.1.7c-.4.1-1.2.4-2.6.9s-2.4.8-3 1l-.5.2-.2-.7.6-.1.5-.2v-6h.7v5.8l1.3-.4v-7.4h-2.8v-.7h6v.7h-2.5v2.9h1.9v.7h-1.9v3.7l.9-.3c.3-.1.7-.2 1-.4.4-.3.6-.4.7-.4zm3.3.5c.4.7 1 1.3 1.5 1.8.6.5 1.1.9 1.8 1.2l-.3.6c-.3-.1-.6-.4-1-.6-.4-.3-.8-.6-1.2-1.1-.4-.4-.8-.9-1.1-1.4-.3.5-.7.9-1.3 1.3s-1 .8-1.6 1.1l-1.4.7c-.1-.1-.2-.3-.4-.6.3-.1.7-.3 1.1-.4s.8-.4 1.2-.7c.4-.3.7-.5.9-.7.2-.2.5-.4.6-.7.2-.2.3-.4.4-.6-.7-1.3-1.2-2.7-1.5-4.3l-.3.6c-.1.2-.2.4-.4.7-.1.2-.3.4-.4.6-.1-.1-.1-.2-.2-.3l-.3-.3c.5-.7 1-1.6 1.4-2.6s.7-2.2.9-3.2l.7.1-.1.1c-.1.8-.4 1.5-.6 2.4h4.5v.7h-1.3c-.1.8-.2 1.6-.4 2.3-.2.7-.4 1.4-.7 1.9 0 .5-.3 1-.5 1.4zm-1.7-5.6-.1.3c.1.9.3 1.7.5 2.5s.5 1.5.9 2.2c.8-1.4 1.3-3.1 1.5-4.9H137zm18.2-1h-8.8v3.5c0 .8-.1 1.7-.2 2.6-.1.9-.3 1.6-.5 2.3-.2.6-.4 1.2-.7 1.5l-.6-.5c.4-.6.6-1.4.8-2.4.2-1 .3-2.2.3-3.5v-4.2H156v.7c-.1.1-.4 0-.8 0zm-6.2 3.3v6.9h-.8v-2.4c0-.9.1-2.1.1-3.6-.5.7-1 1.3-1.5 1.8-.1-.2-.2-.4-.4-.6.4-.4.9-.9 1.3-1.5s.8-1.2 1-1.7c.3-.5.5-1 .6-1.4l.7.2-.1.1c-.1.7-.4 1.4-.9 2.2zm2.6-4.2-.7.3c-.4-.6-.7-1.1-1.1-1.6l.6-.3c.6.6 1 1.2 1.2 1.6zm4.1 3.8h.7v.7h-1.6v5.3c0 .3-.1.5-.2.6-.1.2-.4.3-.8.4s-1 .1-1.8.1c0 0-.1-.1-.1-.3-.1-.1-.2-.3-.3-.5.4.1.9.1 1.3.1s.6 0 .9-.1c.2-.1.3-.2.3-.4v-5.2h-4.2v-.7h4.2v-2.2h.8v2.1h.8zm-3 3.7-.5.5c-.2-.3-.5-.6-.8-1-.3-.4-.6-.7-.9-.9l.4-.4c.3.2.6.5.9.8.4.3.7.6.9 1zm6.6 3c.2-.4.3-.9.4-1.4.1-.6.2-1.1.3-1.6l.5.1c-.1.5-.1 1.1-.3 1.7-.1.6-.3 1.1-.4 1.5-.2-.1-.3-.2-.5-.3zm.2-4.4c.1-.1.2-.1.3-.2.3-.4.7-.8 1.1-1.4.4-.5.7-1 1-1.5l-1.8.3c-.1 0-.3 0-.4.1l-.2-.6c.1 0 .2-.1.2-.2.4-.5.8-1.1 1.1-1.8.4-.7.7-1.4 1-2.1l.6.3-.2.3-.9 1.8c-.4.6-.7 1.2-1 1.6l1.9-.3c.3-.5.6-1.1.8-1.6l.6.4c-.1.1-.2.2-.2.3-1.1 1.9-2 3.4-2.9 4.4 1.1-.2 1.9-.3 2.3-.4-.2-.5-.4-.9-.5-1.1l.5-.2c.3.6.7 1.5 1.1 2.5l-.5.2-.3-.9c-1.1.2-2 .4-2.8.5l-.5.1-.3-.5zm1.7 1.5.5-.1c.1.7.3 1.6.4 2.8l-.6.1c0-.3 0-.8-.1-1.3 0-.5-.1-1-.2-1.5zm1.3-.1.4-.2c.1.3.3.7.5 1.2s.3.9.4 1.3l-.5.2c-.1-.4-.2-.8-.4-1.3-.1-.4-.2-.8-.4-1.2zm8.6 2.5h.7v.6h-7.7v-11.4h.6v4.9h7v.6h-7v5.4h6.4zm-6-7c.2 0 .4-.2.7-.5s.6-.7.9-1.1c-.5.1-.9.1-1.4.2l-.1-.5c.1 0 .2-.1.3-.3s.3-.5.5-.9.4-.7.4-.9l.5.2s0 .1-.1.1c-.4.8-.7 1.3-1 1.7l1.1-.1c.3-.5.5-.8.5-.9l.5.2-.2.2c-.3.5-.7 1-1 1.5-.3.5-.6.8-1 1.1.5-.1 1-.1 1.5-.2l-.4-.7.4-.1c.1.2.3.4.4.7.2.3.3.6.4.8l-.4.2c0-.1-.1-.3-.2-.4l-2 .3c-.1 0-.2 0-.4.1l.1-.7zm0 5.9c.2 0 .4-.2.7-.5s.6-.7.9-1.1c-.5.1-1 .1-1.4.2l-.1-.5c.1 0 .4-.3.7-.8.3-.5.5-.9.6-1.3l.5.2-.1.1v.1c-.4.8-.8 1.4-1 1.7.4 0 .8-.1 1.1-.1.1-.1.2-.3.3-.5.1-.2.2-.3.3-.5l.5.3-.2.2c-.8 1.2-1.4 2.1-1.9 2.6.7-.1 1.2-.1 1.5-.2 0-.1-.2-.3-.4-.7l.4-.1c.1.2.3.4.4.7.2.3.3.6.4.8l-.4.2c0-.1-.1-.3-.2-.4l-2 .3c-.1 0-.3 0-.4.1l-.2-.8zm3.3-5.9c.2 0 .4-.2.7-.5.3-.3.6-.7.9-1.1-.5.1-1 .1-1.4.2l-.1-.5c.1 0 .2-.1.3-.3.2-.2.3-.5.5-.9s.4-.7.4-.9l.5.2s0 .1-.1.1c-.4.8-.7 1.3-1 1.7.7-.1 1-.1 1.1-.1.2-.3.4-.7.5-.9l.5.2-.2.2c-.6 1-1.1 1.6-1.3 1.9-.2.3-.4.5-.6.7l1.5-.2c0-.1-.2-.3-.4-.7l.4-.1c.1.2.3.4.4.7.2.3.3.6.4.8l-.4.2c0-.1-.1-.3-.2-.4l-2 .3c-.1 0-.2 0-.4.1v-.7zm0 5.9c.2 0 .4-.2.7-.5.3-.3.6-.7.9-1.1-.5.1-1 .1-1.4.2l-.1-.5c.1 0 .4-.3.7-.8.3-.5.5-.9.6-1.3l.5.2-.1.1v.1c-.4.8-.8 1.4-1 1.7.4 0 .8-.1 1.1-.1.2-.3.4-.6.5-.9l.5.3-.2.2c-.5.8-.9 1.3-1.1 1.7-.3.4-.5.7-.7.9l1.5-.2c0-.1-.2-.3-.4-.7l.4-.1c.1.2.3.4.4.7.2.3.3.6.4.8l-.4.2c0-.1-.1-.3-.2-.4l-2 .3c-.1 0-.3 0-.4.1l-.2-.9zm6 1.6c.2-.4.3-.9.4-1.5.1-.6.2-1.1.3-1.5l.5.1c-.1.5-.1 1.1-.3 1.6-.1.6-.3 1.1-.4 1.5l-.5-.2zm.1-4.4c.1-.1.2-.1.3-.2.3-.4.7-.8 1.1-1.4.4-.5.7-1 1-1.5-.4.1-1 .2-1.8.3l-.4.1-.2-.6c.1 0 .1-.1.2-.2.4-.5.8-1.2 1.2-1.9.4-.7.7-1.4 1-2.1l.6.3c-.1.1-.1.2-.2.3l-.6 1.2c-.3.6-.5 1-.8 1.4-.2.4-.4.7-.6.9.7-.1 1.4-.2 2-.3.4-.6.6-1.1.8-1.6l.6.4-.1.1c0 .1-.1.1-.1.1-1.1 1.9-2.1 3.4-3.1 4.4.9-.1 1.8-.3 2.5-.5-.1-.1-.1-.3-.2-.5l-.3-.6.4-.2c.5.9.8 1.7 1.2 2.5l-.5.2-.3-.9-3 .6-.5.1-.2-.4zm1.9 1.5.5-.1c.1.6.3 1.5.4 2.7l-.6.1c-.1-1.1-.2-2-.3-2.7zm1.8-.3c.3.7.6 1.3.9 2l-.5.2c-.1-.4-.2-.7-.4-1.1s-.3-.7-.5-1l.5-.1zm.5 3.3c.5-.1 1-.3 1.6-.5.6-.2 1.1-.5 1.3-.7l.5.3c-.2.2-.5.4-1 .6-.4.2-.8.4-1.2.5-.4.1-.7.2-.9.3l-.3-.5zm3.9-10.6h-3.7v-.5h3.7v-.8h.7v.8h3.7v.5h-3.7v.9h3.1v.5h-6.9v-.5h3.1v-.9zm3.8 2.2v2.1h-7v-2.1h7zm-6.4.5v1.2h1.6v-1.2H180zm5.9 2.3v4.2h-6v-4.2h6zm-.6.5h-4.6v.8h4.6v-.8zm0 1.2h-4.6v.7h4.6v-.7zm-4.6 2h4.6v-.9h-4.6v.9zm3-6h-1.6v1.2h1.6v-1.2zm.6 6.7c.4.1.8.3 1.3.5s.9.4 1.3.6l-.3.5c-.7-.4-1.5-.8-2.7-1.3l.4-.3zm0-5.5h1.6v-1.2h-1.6v1.2zm16.9 3.9c.2.2.4.3.7.4 0 .5-.1.9-.1 1.2s-.2.6-.4.8c-.2.2-.5.3-.8.4-.3.1-.8.1-1.4.1H198c-.4 0-.7-.1-.9-.2-.1-.1-.3-.2-.3-.4s-.1-.3-.1-.6v-3.7h-1.1c-.2.5-.4 1-.7 1.6-.3.5-.7 1-1.1 1.4s-1 .8-1.6 1.2c-.6.3-1.3.6-2.1.8-.2-.3-.3-.5-.5-.6.6-.1 1.2-.3 1.8-.5.5-.2 1-.5 1.5-.9.4-.4.8-.8 1.2-1.3.3-.5.6-1 .9-1.7h-3.6v-3.7c-.5.3-1 .6-1.4.8 0 0 0-.1-.1-.1 0-.1-.1-.1-.2-.2s-.1-.2-.1-.2c.9-.4 1.8-1 2.7-1.8.9-.8 1.6-1.6 2.1-2.4l.7.2-.1.1c-.1.1-.2.3-.3.5s-.3.4-.4.5h3.4l.1-.1c.3.2.5.4.7.5l-.2.1c-.2.3-.5.7-.8 1.1-.3.4-.6.7-.9 1h4.1v3.9h-3.2v3.5c0 .1 0 .2.1.3s.1.2.3.2c.2 0 .7.1 1.5.1.4 0 .7 0 .9-.1.2-.1.4-.1.6-.3.2-.1.3-.4.3-.7s-.1-.6 0-1.2zm-9.7-5.5h4c.1-.1.3-.3.6-.5s.5-.5.7-.7c.2-.3.4-.5.5-.7h-3.6c-.7.7-1.4 1.3-2.2 1.9zm.4 3.2h3.1c.1-.3.1-.6.2-.9.1-.3.1-.6.1-.9 0-.3.1-.6.1-.8h-3.5v2.6zm4.3-2.6c0 .2 0 .5-.1.8 0 .3-.1.6-.1.9s-.1.6-.2.9h4v-2.6h-3.6zm8 2.9c.5-.5 1-1.1 1.5-1.8s.9-1.4 1.1-2l.6.3-.1.1c-.2.5-.6 1.1-1 1.8v7h-.7v-.5c0-.6 0-2.5.1-5.7-.1.1-.2.3-.4.6s-.5.6-.8.8c-.1-.1-.1-.3-.2-.4 0-.1-.1-.2-.1-.2zm.1-4c.3-.3.7-.6 1.1-1 .4-.4.7-.8 1-1.2.3-.4.4-.7.6-.9l.5.4-.1.1c-.1.3-.4.6-.7 1-.3.4-.6.8-1 1.2-.4.4-.7.7-1 .9-.2-.2-.3-.4-.4-.5zm8.2 6.8-.1.7c-1.9.4-3.4.6-4.2.7l-.5.1c0-.1 0-.2-.1-.3 0-.1-.1-.3-.1-.4h.5c.4 0 .9-.1 1.7-.3v-1.5h-1.9v-.6h1.9v-1.2c-.7.1-1.3.2-1.9.2l-.3-.6c.7 0 1.5-.1 2.3-.2.8-.1 1.5-.3 2.1-.4l.4.5-.2.1c-.2 0-.5.1-.8.2-.4.1-.6.1-.9.2v1.3h1.8v.6h-1.8v1.4c1.2-.3 1.8-.4 2.1-.5zm2.6-.9c.5 1.1 1.2 2 2.1 2.7 0 .1-.1.1-.1.2s-.1.2-.1.3c0 .1-.1.1-.1.2-.9-.7-1.6-1.6-2.2-2.7-.2.4-.4.8-.7 1.1l-.9.9c-.3.3-.6.5-.9.6 0-.1-.2-.3-.4-.6.5-.3 1-.6 1.4-1 .4-.4.7-.8.8-1.1.2-.3.3-.5.4-.7-.2-.6-.4-1.2-.6-2-.2-.8-.3-1.6-.4-2.5-.2.5-.5.9-.7 1.2l-.3-.5v.2h-4.8v-.6h4.8v.3c.4-.5.7-1.1 1-2 .3-.9.6-1.9.7-2.9l.6.1-.1.1c-.2.9-.4 1.7-.6 2.4h2.9v.6h-.9c0 .7-.1 1.3-.2 2s-.2 1.3-.4 2c.1.5-.1 1.1-.3 1.7zm-7.1-5.4V171h.6v2.2h1.3v-3h.7v2.8h1.3v-2.3h.6v2.8H208zm5.9-.2c.1 1 .2 1.8.3 2.6s.3 1.5.5 2.1c.2-.7.4-1.4.6-2.2.1-.8.2-1.7.3-2.8H214l-.1.3zm17.2 5.7c.1.1.3.2.4.3.1.1.2.1.3.2 0 .5-.1.9-.1 1.3-.1.3-.2.6-.4.8s-.4.4-.8.4c-.3.1-.8.1-1.3.1h-1.3c-.3 0-.6-.1-.7-.2l-.3-.3c-.1-.1-.1-.3-.1-.6v-3.8h-2.1c-.1.7-.2 1.3-.3 1.8-.1.5-.3.9-.5 1.2-.2.3-.5.6-.8.9s-.7.5-1.2.7c-.5.2-1 .4-1.6.6l-.4-.6c.7-.2 1.3-.4 1.8-.7.5-.2.9-.5 1.2-.8.3-.3.6-.7.7-1.2.2-.5.3-1.1.3-1.7h-4v-.7h11.8v.7h-4.3v3.7c0 .2 0 .3.1.4l.2.2c.1 0 .6.1 1.5.1.4 0 .7 0 .9-.1.2-.1.4-.1.6-.3.1-.1.2-.3.3-.6 0-.7 0-1.1.1-1.8zm-10.7-4.7V172h5.4c0-.1-.2-.3-.3-.6s-.4-.6-.6-.9l.6-.3c.3.4.7 1 1.1 1.7h4.6v2.7h-.7v-2.2h-9.4v2.2h-.7zm1.9-.3h6.8v.7h-6.8v-.7zm12.3.8c.5-.1.9-.3 1.4-.6.5-.2 1-.5 1.4-.8.5-.3.9-.7 1.4-1.1.4-.4.9-.9 1.2-1.3h-3v-.7h4c.8 1.1 1.7 2 2.9 2.8 1.1.8 2.2 1.3 3.3 1.7l-.3.6c-1.1-.3-2.2-.9-3.2-1.6s-2-1.7-2.8-2.7c-.3.4-.6.8-1 1.2s-.9.8-1.4 1.2c-.5.4-1.1.8-1.7 1.1-.6.3-1.2.6-1.9.8l-.3-.6zm6.6 6.5h5.7v.7h-12v-.7h5.5V179h-4v-.7h4v-2.4h-3.3v-.7h7.6v.7h-3.5v2.4h4.1v.7h-4.1v2.7zm14.4-4.2-.1.8c-.4.2-1.3.5-2.5 1.1-1.3.5-2.2.9-2.7 1.1-.2.1-.4.2-.5.2l-.2-.8.6-.2 1.3-.5v-8.5h.8v8.2c.2-.1.6-.2 1.1-.4.5-.2.9-.4 1.4-.6.4-.2.7-.3.8-.4zm3.3.9c.4.4 1 1 1.6 1.7.6.7 1.1 1.3 1.6 1.9l-.5.5c-.4-.6-.9-1.2-1.4-1.8-.6-.7-1.1-1.2-1.5-1.7-.5.7-1.2 1.4-2 2-.8.6-1.8 1.2-3 1.7-.1-.2-.3-.4-.5-.6 1.1-.4 2-.9 2.7-1.4.8-.5 1.4-1 1.9-1.6.5-.6.9-1.2 1.2-1.9.3-.7.5-1.5.6-2.4.1-.9.2-2.1.3-3.6v-.6l.8.1v.3c0 1.5-.1 2.7-.3 3.6s-.3 1.7-.5 2.3c-.5.6-.8 1.1-1 1.5zm-2.1-3c-.3-.5-.7-1-1.2-1.6-.5-.6-.9-1.1-1.3-1.4l.5-.4c.5.4.9.9 1.4 1.5.5.6.9 1.1 1.2 1.5l-.6.4zm13.8-2.5h-4.8v2.4h-.7v-2.9h5.5v-1.1h-4.9v-.6h10.4v.6h-4.9v1.1h5.5v2.9h-.7v-2.4h-4.8v3.1h-.7v-3.1zm5.9 7.1c.1 0 .2.1.3.2.1.1.2.1.3.2 0 .6-.2 1.1-.4 1.4-.2.3-.6.5-1 .7-.5.1-1.1.2-2 .2h-1.8c-.4 0-.7-.1-.8-.2-.2-.1-.3-.2-.4-.4s-.1-.4-.1-.7v-.5h-3.5v1h-.7v-5h9v4h-4.3v.5c0 .3.1.5.4.6.3.1 1 .1 2.1.1.9 0 1.6-.1 2.1-.4.2-.1.4-.3.5-.6s.3-.7.3-1.1zm-6.9-6.1v.5h-2.7v-.5h2.7zm-2.3 1.4h2.2v.5h-2.7v-.5h.5zm3.3 2h-3.5v1.2h3.5v-1.2zm-3.4 3h3.5V179h-3.5v1.3zm7.7-1.8v-1.2h-3.6v1.2h3.6zm-3.6 1.8h3.6V179h-3.6v1.3zm3.7-6.4v.5h-2.7v-.5h2.7zm-2.2 1.4h2.2v.5h-2.7v-.5h.5zm10.9-3.5.5-.3c.2.2.4.5.6.8s.5.7.7 1 .3.6.4.8l-.6.3c-.1-.1-.2-.4-.3-.7-.4 0-1.1.1-2.2.2s-1.8.2-2.1.2h-.4l-.1-.7c.1 0 .1-.1.2-.1l.4-.4c.2-.2.4-.5.6-.8s.5-.7.6-1c.2-.3.3-.6.4-.8l.7.2s0 .1-.1.1c-.1.3-.3.6-.6 1s-.5.7-.7 1-.4.5-.6.7c1.1-.1 2.2-.2 3.6-.3-.2-.2-.3-.5-.5-.7-.3-.1-.4-.3-.5-.5zm1.5 4.1v5.6c0 .2-.1.4-.2.5-.1.1-.3.2-.7.3-.3.1-.8.1-1.3.1-.1-.2-.2-.4-.3-.7.2 0 .6.1.9.1.3 0 .5 0 .6-.1.2-.1.2-.2.2-.3v-1.5h-3.2v2.7h-.7v-7h4.5l.2.3zm-.6.1h-3.2v1.3h3.2V176zm-3.2 3.3h3.2v-1.4h-3.2v1.4zm5.7-3.7c-.1-.1-.2-.2-.3-.4-.1-.2-.1-.4-.1-.7v-4.1l.7.1v2.1c.6-.2 1.2-.4 1.9-.7.7-.3 1.2-.6 1.5-.7l.4.5-.1.1c-.2.1-.5.2-.8.4-.4.2-.8.4-1.4.6-.5.2-1 .4-1.4.5v1.4c0 .2 0 .3.1.3.1.1.1.1.2.1.2 0 .7.1 1.5.1.4 0 .7 0 .9-.1s.4-.1.6-.2l.3-.3c.1-.1.1-.3.1-.5v-.5l.7.4c0 .6-.2 1-.4 1.2s-.5.4-.9.5c-.4.1-.8.1-1.3.1H288c-.3 0-.7-.1-.9-.2zm4.3 4.4c.3.2.5.3.6.4 0 .3-.1.6-.2.9-.1.2-.2.4-.4.6-.2.1-.5.3-.8.3-.3.1-.8.1-1.3.1h-1.5c-.3 0-.5-.1-.6-.2-.1-.1-.3-.2-.3-.4-.1-.2-.1-.4-.1-.7v-4.5l.7.1v2.2c.6-.2 1.3-.5 2.1-.8.8-.3 1.3-.6 1.6-.8l.4.6-.2.1c-.4.2-1 .5-1.8.8-.8.3-1.5.6-2.1.8v1.7c0 .3.1.5.3.5.2.1.7.1 1.6.1.4 0 .7 0 .9-.1.2 0 .4-.1.6-.2.2-.1.3-.3.4-.5 0-.3.1-.6.1-1zm15.4-2.5v1.9c0 .5-.1.9-.1 1.3-.1.4-.1.7-.3.9-.2.3-.4.5-.9.7-.4.2-1 .2-1.9.2 0-.1-.1-.2-.1-.4-.1-.2-.1-.3-.2-.4.3.1.5.1.9.1.9 0 1.4-.2 1.6-.6.1-.2.2-.6.3-1 0-.5.1-1.2.1-2.1h-8.6c-.7.7-1.6 1.4-2.5 2 0-.1-.2-.3-.4-.6 1.4-.9 2.5-1.8 3.4-2.9.9-1.1 1.7-2.3 2.2-3.6h-4.7v-.6h5c.3-.7.5-1.4.7-2.1l.7.2-.1.1c-.1.5-.3 1.2-.6 1.9h3.3c-.1.6-.2 1.5-.4 2.6h1.4c0 .3-.1 1.2-.3 2.5h1.5zm-11 4.9c.1-.2.3-.4.5-.7.2-.3.4-.7.6-1.1.2-.4.3-.9.4-1.2l.6.2c-.1.5-.3 1-.6 1.6-.3.6-.5 1.2-.8 1.6l-.7-.4zm3.1-10.5-.7.3c-.3-.6-.6-1.2-.9-1.7l.7-.2c.3.4.6.9.9 1.6zm5.7 5.6.2-1.9h-5.2c-.5.7-1 1.3-1.5 1.9h6.5zm-5.6 1.9.5-.1c.1.3.2.7.4 1.3.1.5.2 1.1.3 1.6 0 0-.1 0-.2.1-.1 0-.2.1-.3.1h-.1c0-.4-.1-.9-.2-1.5-.1-.7-.2-1.1-.4-1.5zm4.8-6.4H301c-.3.7-.6 1.4-1 2h3.5l.3-2zm-2.8 6.3.5-.2c.1.2.3.4.4.7.2.3.3.6.4.9.1.3.2.5.3.7l-.6.2c-.1-.3-.2-.7-.4-1.2s-.4-.8-.6-1.1zm3.8 1.5s-.2.1-.5.3c-.2-.5-.7-1.2-1.4-2.1l.5-.2c.1.2.3.4.5.6.2.3.4.5.5.8s.3.5.4.6zm11.8.1c0 .3 0 .5-.1.6-.3.1-1.3.2-2.8.3-1.5.2-2.6.3-3.3.3l-.5.1-.1-.7h.6c.6 0 1.4-.1 2.6-.2v-1.5h-2.9v-.6h2.9v-1.1h-2.6v-3.8h2.6v-1.1h-3.1v-.6h3.1v-1.2c-.7 0-1.6.1-2.8.1 0-.1-.1-.3-.3-.6h2.4c.8 0 1.6-.1 2.2-.2.6-.1 1.2-.1 1.5-.2l.4.5h-.3c-.3.1-.7.1-1.2.2s-1 .1-1.4.2v1.2h3.1v.6h-3.1v1.1h2.6v3.8h-2.6v1.1h2.8v.6h-2.8v1.5c1.8-.2 2.7-.4 3.1-.4zm-3.6-6.1h-2v1.1h2v-1.1zm-2 1.6v1.1h2v-1.1h-2zm4.6-.5v-1.1h-2v1.1h2zm-2 1.6h2v-1.1h-2v1.1zm8.5-3.8v4.5c0 .6-.1 1.2-.1 1.8 0 .5-.1 1-.2 1.3-.1.4-.4.7-.8.9-.4.2-.9.3-1.5.3l-.2-.4c-.1-.2-.1-.4-.2-.4.1 0 .2.1.3.1h.3c.3 0 .6-.1.8-.2.2-.1.4-.3.5-.7.1-.2.1-.6.2-1 0-.4.1-1.1.1-2v-3.7h-2.1c-.1 2.3-.4 4.1-.8 5.5-.4 1.3-1 2.3-1.8 3-.1-.1-.3-.2-.6-.4.3-.2.6-.5.8-.8.2-.3.5-.7.6-1.1s.4-.9.5-1.4.3-1.1.4-1.8.2-1.3.2-1.8.1-1 .1-1.2h-2v-.7h2c0-.8.1-1.7.1-2.9v-.4h.7v.2c0 .8 0 1.8-.1 3h2.8zm14.2-.1v.3c0 2.1-.1 3.7-.1 4.9-.1 1.1-.3 1.9-.5 2.4-.1.1-.2.3-.3.4l-.4.4c-.2.1-.4.2-.7.3-.3.1-.6.2-1 .2s-.8.1-1.2.1v-.1c0-.1-.1-.1-.1-.2s-.1-.2-.1-.3c-.1-.1-.1-.2-.1-.2.3.1.6.1 1 .1.7 0 1.2-.1 1.6-.2s.7-.4.8-.7c.1-.2.2-.6.3-1.1.1-.5.1-1.1.2-2s.1-2 .1-3.4H331c-.3 2.1-.9 3.9-1.8 5.3s-2 2.4-3.5 3.1l-.6-.6c.7-.3 1.4-.7 2-1.2.6-.5 1.1-1 1.5-1.7s.8-1.4 1-2.2c.3-.8.5-1.7.6-2.7h-4.3v-.7h4.3c.1-.8.1-1.8.1-2.8v-.5h.8v.3c0 1-.1 2-.2 3h5.4zm11.9 7.9c1.2 0 2.6-.1 4.2-.3-.1.4-.2.6-.2.7-1.3.1-2.6.2-4 .2h-.9c-.3 0-.7-.1-1.1-.2-.4-.1-.8-.3-1.2-.5-.4-.2-.7-.4-1-.6-.3-.2-.6-.5-1.1-.9-.2-.2-.5-.2-.7 0-.2.1-.4.4-.6.8-.3.4-.5 1-.8 1.6l-.6-.4c.3-.7.7-1.3 1-1.8.3-.5.6-.8.8-.9.2-.1.4-.2.5-.2.2 0 .4.1.5.2l.5.4c.6-.4 1.2-.8 1.9-1.4s1.4-1.2 2-1.9c.6-.7 1.1-1.2 1.4-1.6.3-.4.6-.8.7-1.1H341v-.7h8.8l.1-.1c.3.2.6.4.7.5l-.1.1c-.7 1.2-1.6 2.4-2.9 3.7-1.3 1.3-2.4 2.3-3.6 3 1.4.9 2.7 1.4 4.2 1.4zm-1.8-8.6c-.3-.3-.6-.7-.9-1.1s-.7-.7-1-1l.6-.4c.2.1.4.4.7.7s.7.8 1.2 1.3l-.6.5zm19.8 7.2h1v.7h-5.7v2h-.7v-2h-5.6v-.7h5.6v-1.4H357V174h3.9v-1.5h-5.2v-.7h5.2v-1.5h.8v1.5h5.4v.7h-5.4v1.5h3.9v4.7h-3.9v1.4h4.5zm-5.3-5.6h-3.1v1.5h3.1v-1.5zm-3.2 2v1.6h3.1v-1.6h-3.1zm7.1-.5v-1.5h-3.2v1.5h3.2zm-3.2 2.1h3.2v-1.6h-3.2v1.6zm10.9 1.8h1.9v.6h-1.9v2.3h-.6v-2.3h-2v-.6h2v-1.4h-1.5v-4.8h1.5v-1.4H370v-.6h1.9V170h.6v1.7h1.8v.6h-1.8v1.4h1.6v4.8h-1.6v1.4zm-.6-5.6h-1v1.6h1v-1.6zm-1 2.1v1.7h1v-1.7h-1zm2.6-.5v-1.6h-1v1.6h1zm-1 2.1h1v-1.7h-1v1.7zm9.2-6.3h-2.9v1.6h3.3v8.6c0 .3-.1.5-.4.6-.3.1-.7.2-1.4.2l-.3-.7h.7c.2 0 .4 0 .5-.1.1 0 .2-.1.2-.3v-7.9h-2.7v8.8h-.7v-8.8h-2.6v8.8h-.7v-9.3h3.2v-1.6h-3.7v-.7h8v.7c.1.1-.2.1-.5.1zm-4.6 3.8c0 .6.1 1.2.2 1.8.1.6.2 1.1.3 1.5s.2.7.3.9c-.1.1-.2.3-.3.4-.1-.3-.3-.6-.4-1.1-.1-.4-.3-.9-.4-1.5-.1.4-.2.8-.3 1.3-.1.5-.3.9-.5 1.2 0-.1-.2-.2-.4-.4.2-.3.4-.8.6-1.4.2-.6.3-1.4.4-2.2h-.7v-.5h1.2zm3.8 4.5c-.1-.3-.3-.6-.4-1.1-.1-.5-.3-1-.3-1.5-.2 1-.4 1.9-.8 2.6-.1-.1-.2-.3-.4-.4.2-.3.4-.8.6-1.4.2-.6.3-1.4.4-2.2h-.7v-.5h1.2c0 .9.1 1.7.3 2.4.2.7.3 1.3.6 1.7-.4.2-.5.4-.5.4zm5.9-5.3v2.1h2.4v5.7h-.7v-5.2h-1.8c0 .7-.1 1.3-.2 1.9-.1.6-.2 1.2-.4 1.7s-.4 1-.6 1.3c-.1-.2-.3-.3-.5-.5.4-.6.7-1.3.9-2.3s.3-2.1.3-3.4v-5.4h.7v3.3h1.5v-3.7h.7v3.5h1.2v.6h-3.5zm10.1 4.3h.8v.7h-2.4v3h-.7v-3h-4.8v-.7h4.8v-2.2h.7v2.1h1.6zm-6.5-.9c.3-.1.6-.2.8-.3.3-.1.5-.2.7-.4s.4-.3.6-.5c.2-.2.3-.4.5-.7h-2.2v-4.6h2.3c0-.1.1-.3.3-.6.1-.3.3-.6.4-.9l.8.1-.1.2c-.2.4-.3.8-.6 1.2h3.3v4.6h-3.3c-.1.3-.3.6-.5.9-.2.3-.5.5-.8.8s-.9.5-1.5.7c-.3 0-.5-.2-.7-.5zm3.2-5.9h-2.2v1.4h2.2v-1.4zm-2.2 3.5h1.8c.1-.4.3-.9.3-1.5h-2.1v1.5zm2.4 0h2.5v-1.5h-2.2c0 .6-.1 1.1-.3 1.5zm2.5-2v-1.4h-2c0 .5 0 1-.1 1.4h2.1zm4.2 8.6c.4-.4.7-.8 1.1-1.3.3-.5.6-1 .7-1.3l.7.3c-.2.4-.4.8-.7 1.3-.3.5-.5.8-.7 1.1-.2.2-.3.4-.4.5l-.7-.6zm4-11.3v7.7H401V171h3.5zm-.7.6h-2.2v2.8h2.2v-2.8zm-2.2 6.5h2.2V175h-2.2v3.1zm2.9 1.9.7-.1c.1.3.2.7.2 1.2s.1 1 .2 1.5l-.7.2c0-.4 0-.8-.1-1.3-.2-.7-.2-1.2-.3-1.5zm4.4-8.3c0 .5-.2 1-.4 1.4-.3.4-.6.8-1.1 1.2-.5.3-1 .6-1.7.9l-.4-.6c.5-.2.9-.3 1.3-.6.4-.2.7-.4.9-.7.2-.3.4-.5.6-.8.1-.3.2-.6.2-.9h-2.5v-.6h6.2v.2c0 1 0 1.7-.1 2-.1.3-.1.6-.2.7-.1.2-.2.3-.3.4-.1.1-.4.2-.6.3-.3.1-.7.1-1.1.1-.1-.3-.2-.6-.3-.8.2.1.4.1.7.1.6 0 .9-.2 1.1-.5.1-.1.1-.3.1-.5s.1-.8.1-1.6h-2.5zm-2.7 7.3v-3.4h5.3v3.4h-5.3zm.7-.5h4v-2.2h-4v2.2zm.3 1.5.6-.2c.1.2.3.5.4.8.2.3.3.6.4 1s.2.6.3.7l-.7.2c-.1-.3-.2-.6-.3-1-.1-.4-.3-.7-.4-.9-.1-.3-.2-.5-.3-.6zm3.5-.3c.3.3.5.6.9 1.1.3.5.6.9.9 1.4l-.7.3c-.2-.4-.4-.9-.7-1.4s-.6-.9-.9-1.2l.5-.2zm7.5-4.6v7.6h-.7V180c0-1.1 0-2.5.1-4.2-.3.9-.6 1.8-1 2.6s-.8 1.4-1.1 1.9c-.1-.2-.2-.4-.4-.6.4-.5.8-1.1 1.2-2s.7-1.7 1-2.6h-2v-.6h2.2V172c-.2.1-.5.2-.9.3-.3.1-.7.2-1 .2 0-.1-.1-.3-.3-.6.6-.1 1.3-.3 2-.5s1.3-.5 1.8-.8l.4.5s-.1 0-.3.1c-.2.1-.6.3-1.2.5v2.7h1.6v.6h-1.4zm1.9 3.2-.5.4c-.2-.4-.3-.7-.6-1.1-.2-.4-.4-.7-.5-.9-.1-.2-.2-.3-.3-.4l.4-.3c.2.3.5.6.7 1.1.4.4.6.8.8 1.2zm7 1.6c.3.2.5.3.6.4 0 .6-.1 1-.2 1.3-.1.3-.2.5-.3.6-.1.1-.3.2-.5.3-.2.1-.5.1-.9.1h-.5c-.2 0-.3 0-.4-.1-.1 0-.2-.1-.2-.1-.2-.1-.3-.4-.3-.9v-3.7h-1.6c0 .7-.1 1.2-.2 1.8s-.3 1-.5 1.4c-.2.4-.6.8-.9 1.1-.4.3-.8.5-1.4.7-.1-.1-.2-.3-.4-.6.6-.2 1.2-.5 1.6-.8.4-.4.7-.8.9-1.4.2-.6.4-1.3.4-2.1H421V174h5.2v3.9H425v3.8c0 .2.1.3.2.4.1 0 .3.1.6.1.2 0 .3 0 .5-.1s.3-.1.4-.2c.1-.1.2-.3.2-.6 0-.2.1-.5.1-.7.1-.4.1-.6.1-.7zm-7.1-5.7c-.1-.2-.3-.4-.4-.5.2-.1.5-.4.8-.6s.6-.7.9-1.1c.3-.5.6-.9.8-1.4l.6.3-.1.1c-.1.1-.2.3-.3.6-.1.2-.3.5-.5.8-.2.3-.4.5-.6.7-.2.2-.4.4-.6.7-.1 0-.3.2-.6.4zm1.7.3v2.8h3.8v-2.8h-3.8zm5.7-.8-.4.5c-.2-.3-.4-.6-.7-1s-.6-.8-1-1.3-.7-.8-1-1.2l.5-.3c.4.4.9.9 1.3 1.5.5.7 1 1.3 1.3 1.8zm8.4 4.4c.2-.1.4-.3.6-.6.2-.3.2-.6.2-1h-.7v-1.2h1.2v.8c0 .4 0 .7-.1 1s-.2.6-.4.8c-.2.2-.4.4-.6.5l-.2-.3zm21.2 1.3c.2.2.4.3.7.4 0 .5-.1.9-.1 1.2s-.2.6-.4.8c-.2.2-.5.3-.8.4-.3.1-.8.1-1.4.1h-1.2c-.4 0-.7-.1-.9-.2-.1-.1-.3-.2-.3-.4s-.1-.3-.1-.6v-3.7h-1.1c-.2.5-.4 1-.7 1.6-.3.5-.7 1-1.1 1.4s-1 .8-1.6 1.2c-.6.3-1.3.6-2.1.8-.2-.3-.3-.5-.5-.6.6-.1 1.2-.3 1.8-.5.5-.2 1-.5 1.5-.9.4-.4.8-.8 1.2-1.3.3-.5.6-1 .9-1.7h-3.6v-3.7c-.5.3-1 .6-1.4.8 0 0 0-.1-.1-.1 0-.1-.1-.1-.2-.2s-.1-.2-.1-.2c.9-.4 1.8-1 2.7-1.8.9-.8 1.6-1.6 2.1-2.4l.7.2-.1.1c-.1.1-.2.3-.3.5s-.3.4-.4.5h3.4l.1-.1c.3.2.5.4.7.5l-.2.1c-.2.3-.5.7-.8 1.1-.3.4-.6.7-.9 1h4.1v3.9h-3.2v3.5c0 .1 0 .2.1.3s.1.2.3.2c.2 0 .7.1 1.5.1.4 0 .7 0 .9-.1.2-.1.4-.1.6-.3.2-.1.3-.4.3-.7v-1.2zm-9.7-5.5h4c.1-.1.3-.3.6-.5s.5-.5.7-.7c.2-.3.4-.5.5-.7h-3.6c-.7.7-1.4 1.3-2.2 1.9zm.5 3.2h3.1c.1-.3.1-.6.2-.9.1-.3.1-.6.1-.9 0-.3.1-.6.1-.8h-3.5v2.6zm4.2-2.6c0 .2 0 .5-.1.8 0 .3-.1.6-.1.9s-.1.6-.2.9h4v-2.6H452zm8 2.9c.5-.5 1-1.1 1.5-1.8s.9-1.4 1.1-2l.6.3-.1.1c-.2.5-.6 1.1-1 1.8v7h-.7v-.5c0-.6 0-2.5.1-5.7-.1.1-.2.3-.4.6s-.5.6-.8.8c-.1-.1-.1-.3-.2-.4 0-.1 0-.2-.1-.2zm.1-4c.3-.3.7-.6 1.1-1 .4-.4.7-.8 1-1.2.3-.4.4-.7.6-.9l.5.4-.1.1c-.1.3-.4.6-.7 1-.3.4-.6.8-1 1.2-.4.4-.7.7-1 .9-.1-.2-.3-.4-.4-.5zm8.3 6.8-.1.7c-1.9.4-3.4.6-4.2.7l-.5.1c0-.1 0-.2-.1-.3 0-.1-.1-.3-.1-.4h.5c.4 0 .9-.1 1.7-.3v-1.5h-1.9v-.6h1.9v-1.2c-.7.1-1.3.2-1.9.2l-.3-.6c.7 0 1.5-.1 2.3-.2.8-.1 1.5-.3 2.1-.4l.4.5-.2.1c-.2 0-.5.1-.8.2-.4.1-.6.1-.9.2v1.3h1.8v.6h-1.8v1.4c1.1-.3 1.8-.4 2.1-.5zm2.6-.9c.5 1.1 1.2 2 2.1 2.7 0 .1-.1.1-.1.2s-.1.2-.1.3c0 .1-.1.1-.1.2-.9-.7-1.6-1.6-2.2-2.7-.2.4-.4.8-.7 1.1l-.9.9c-.3.3-.6.5-.9.6 0-.1-.2-.3-.4-.6.5-.3 1-.6 1.4-1 .4-.4.7-.8.8-1.1.2-.3.3-.5.4-.7-.2-.6-.4-1.2-.6-2-.2-.8-.3-1.6-.4-2.5-.2.5-.5.9-.7 1.2l-.3-.5v.2h-4.8v-.6h4.8v.3c.4-.5.7-1.1 1-2 .3-.9.6-1.9.7-2.9l.6.1-.1.1c-.2.9-.4 1.7-.6 2.4h2.9v.6h-.8c0 .7-.1 1.3-.2 2s-.2 1.3-.4 2c-.1.5-.2 1.1-.4 1.7zm-7.2-5.4V171h.6v2.2h1.3v-3h.7v2.8h1.3v-2.3h.6v2.8h-4.5zm5.9-.2c.1 1 .2 1.8.3 2.6s.3 1.5.5 2.1c.2-.7.4-1.4.6-2.2.1-.8.2-1.7.3-2.8h-1.6l-.1.3zm5.5 8.6c.1-.1.2-.2.4-.3.2-.1.4-.3.6-.5l.7-.7c.2-.3.4-.6.5-.8l.6.3c-.2.4-.5.8-.9 1.3s-.9.9-1.3 1.3c-.2-.3-.4-.4-.6-.6zm6-2.9h-5.9v-.6h1.5v-6.1h-1.3v-.6h1.3v-1.8h.7v1.8h2.6v-1.8h.7v1.8h1.2v.6h-1.2v6.1h1.1v.6h-.7zm-1.1-6.7h-2.6v1.6h2.6v-1.6zm-2.6 2.2v1.6h2.6v-1.6h-2.6zm0 2.1v1.8h2.6V177h-2.6zm2.3 2.9c.5.4 1 1 1.4 1.5 0 .1-.1.1-.2.2s-.2.2-.3.2c-.5-.6-.9-1.1-1.4-1.6l.5-.3zm7.5-8.4v10.3c0 .1 0 .3-.1.4-.1.1-.1.2-.3.3-.1.1-.3.1-.6.2s-.7.1-1.2.1c0-.1-.1-.2-.2-.4s-.1-.3-.2-.4c.3.1.6.1.9.1.3 0 .5 0 .6-.1.2-.1.2-.2.2-.3v-3.6h-3.2c-.1.5-.2 1-.3 1.6-.1.6-.3 1.2-.6 1.7s-.5 1-.8 1.3l-.5-.5c.6-.6 1-1.5 1.3-2.6.3-1.1.4-2.4.4-3.8v-5h4.4l.2.7zm-3.8 6h3.1v-2.8h-3v1.2c0 .5 0 1.1-.1 1.6zm.1-6v2.7h3v-2.7h-3zm11.7 0-.1.1c-.2.6-.5 1.3-.8 2.1-.3.7-.6 1.4-.8 1.8.6.4 1 .9 1.3 1.4s.4 1 .4 1.6c0 .6-.2 1.2-.5 1.6-.4.4-.9.6-1.6.6-.1-.2-.2-.4-.4-.7.2 0 .4.1.6.1.2 0 .3 0 .5-.1s.3-.2.4-.3c.1-.1.2-.3.3-.5s.1-.4.1-.7c0-.5-.1-1-.4-1.5-.3-.5-.7-.9-1.3-1.3.2-.4.5-.9.7-1.6.3-.7.6-1.5.9-2.3h-2.5v10.8h-.7v-11.4h3.3l.1-.1s.2.2.5.4zm4.9 8.3c.4.5.8 1 1.3 1.3s1 .7 1.6.9c-.2.3-.3.5-.4.6-1.1-.4-2-1.2-2.8-2.2s-1.3-2.2-1.7-3.6h-1.4v4.8c.4-.1.8-.3 1.2-.5.4-.2.8-.4 1.1-.6l.1.7c-.1 0-.2.1-.2.1-.1 0-.4.2-1.1.5-.7.3-1.1.5-1.4.6l-.4.2-.3-.6c.1-.1.2-.1.3-.2.1-.1.1-.2.1-.4v-10.3h5.5v5.6h-2.8c.1.4.3.9.5 1.3l.6 1.2c.4-.3.8-.6 1.2-1.1.4-.4.8-.8.9-1l.5.5-.1.1-1 1c-.4.4-.9.8-1.3 1.1zm.8-8.1h-4.1v1.9h4.1v-1.9zm-4.1 2.5v2h4.1v-2h-4.1zm12.7-3.5v12.1h-.8v-5.3h-1.5c0 1.2-.2 2.3-.4 3.2-.3.9-.7 1.6-1.3 2l-.4-.6c.5-.4.8-.9 1.1-1.7.3-.8.4-1.7.4-2.9h-1.2v-.7h3.3v-2h-2.4v-4.2h.7v3.4h1.8v-4h.7v.7zm1.2 5.9c0-.1-.2-.2-.4-.5.5-.1 1-.2 1.6-.4s1-.4 1.4-.6c-.4-.4-1-.7-1.6-1.1l.4-.3c.2.1.5.3.9.5l.9.6c.3-.2.6-.4 1-.7-.6-.4-1.1-.8-1.7-1l.4-.3c.2.1.5.2.8.4l.9.6c.6-.5 1.1-1.1 1.5-1.8h-3.5c-.4.4-.9.7-1.3.9l-1.2.6-.4-.5c.8-.3 1.6-.7 2.2-1.2s1.2-1 1.5-1.6c.1 0 .4.1.7.2l-.1.1c-.2.3-.5.7-.8 1h3.2l.1-.1c.1 0 .1.1.3.2l.3.3-.1.1c-.3.6-.7 1.1-1.1 1.6-.4.5-.9 1-1.5 1.4-.6.4-1.2.8-1.9 1.1-.9.1-1.7.4-2.5.5zm6.6.7h.8v.7h-2.1v3.8c0 .2-.1.4-.2.6-.1.1-.4.3-.7.3-.3.1-.9.1-1.6.1l-.4-.8c.1 0 .3 0 .5.1h.6c.3 0 .6 0 .8-.1.2-.1.3-.2.3-.4v-3.7h-4.9v-.7h4.9v-1.6h.7v1.5h1.3zm-3.6 2.8-.4.5c-.3-.2-.7-.5-1.1-.8-.4-.3-.8-.5-1.1-.6l.4-.5c.3.1.6.3 1 .5.4.3.9.6 1.2.9zm14.4 1.6c1.9 0 3.5-.1 5-.2l-.2.7c-1.4.1-3 .2-4.8.2-.5 0-1.1 0-1.7-.1-.6-.1-1.1-.2-1.6-.4s-.9-.4-1.2-.6-.6-.5-.8-.7c-.6.9-1.3 1.6-2 2.1 0 0-.1-.1-.1-.2l-.3-.3c.7-.4 1.4-1.1 2.1-2.1-.5-.8-.9-1.7-1-2.8l.6-.3c.1 1 .4 1.8.8 2.5.6-1.1 1.1-2.3 1.4-3.7h-2.9l-.2-.6c.3-.2.7-.5 1.2-1.1.5-.6 1-1.3 1.6-2.1h-3v-.7h3.3l.1-.1.3.3.2.2-.2.1c-.3.5-.7 1-1.2 1.7s-1 1.2-1.4 1.6h2.3l.1-.1.5.5-.1.1c-.2.8-.4 1.6-.7 2.3-.3.8-.6 1.4-1 2.1.3.3.6.6 1 .8.4.2.8.4 1.2.5.4.1.9.2 1.3.3.4 0 .9.1 1.4.1zm3.7-2h-6.6v-.7h1.3v-4.9h.7v4.8h1.8V172c-1 .1-1.9.2-2.9.3l-.2-.6c1.1 0 2.1-.1 3.3-.3 1.1-.2 2.1-.4 2.9-.7l.4.5-.3.1c-.3.1-.7.2-1.2.3-.5.1-.9.2-1.4.3v2.9h2.5v.7h-2.5v3.6h3.1v.7c-.3-.1-.5-.1-.9-.1zm12.2.5c.6.4 1.3.8 2 1.1s1.4.6 2.2.7c-.2.2-.3.4-.4.6-1.1-.3-2.1-.7-3.1-1.2-.9-.5-1.8-1.1-2.4-1.8-.7-.7-1.2-1.4-1.6-2.2h-2.2v4.2c1.1-.3 2.2-.6 3.6-1v.7c-.5.2-1.7.5-3.6 1-.3.1-.5.1-.6.2l-.3-.7c.1-.1.2-.2.2-.5v-3.9h-2.2v-.6h2.5v-5.9h8.2v.6h-7.5v1.4h6.9v.6h-6.9v1.3h6.9v.6h-6.9v1.4h9.2v.6h-6.5c.5.9 1.2 1.7 2.1 2.4.2-.1.5-.3.8-.5.3-.2.7-.5 1.1-.7.4-.3.6-.5.8-.7l.6.5-.1.1c-.3.3-.7.6-1.2.9-.7.3-1.2.6-1.6.8zm17.9 1.2h1v.7h-12v-.7h5.6v-2.8h-4.3v-.6h4.3v-1.6h.8v1.6h4.7v.7h-4.7v2.8h4.6zm-6.4-9.5h-4.4v-.7h11.5v.7h-6.2c-.4.6-.9 1.2-1.5 1.8s-1.1 1-1.6 1.4c1.1-.1 2.3-.2 3.7-.3 1.4-.1 2.4-.2 3.2-.3-.5-.5-1-.9-1.4-1.3l.5-.4c.3.2.7.6 1.1.9s.8.8 1.1 1.1.6.7.8 1l-.6.4c-.2-.3-.6-.8-1-1.3-.8.1-2.2.2-4.1.4-1.9.2-3.3.3-4.1.3l-.5.1c0-.2-.1-.4-.1-.7.1 0 .4-.2.7-.4.4-.3.8-.7 1.4-1.2s1.2-1 1.5-1.5zm18.1 10.2v-6.3c0-1.4 0-2.6.1-3.5-.4.3-.8.7-1.4 1.2l-.6.5-.4-.5 2.5-2h.6v10.6h-.8zm9.7 0v-6.3c0-1.4 0-2.6.1-3.5-.4.3-.8.7-1.4 1.2l-.6.5-.4-.5 2.5-2h.6v10.6h-.8zm10.9 0v-2.6h-5.2v-.7l5-7.3h1v7.3h1.6v.6H595v2.6h-.7zm0-6.7v-3.3c-.3.5-.8 1.3-1.5 2.4l-3 4.4h4.5v-3.5zm20.4 3.3h1.1v.7h-5.3v3.3h-.8v-3.3h-6.2v-.7h2.5v-3.4h3.7V173h-3.3c-.2.4-.6.8-.9 1.2-.4.5-.8.9-1.2 1.2-.1-.2-.3-.3-.5-.5.5-.3.9-.8 1.4-1.4.5-.6.9-1.2 1.2-1.8s.5-1.1.7-1.4l.7.2-.1.1c-.2.6-.5 1.2-.9 1.8h7.9v.6h-4.3v2.4h3.8v.6h-3.8v2.8h4.3zm-8 0h3v-2.8h-3v2.8zm19.7 3.4v-6.3c0-1.4 0-2.6.1-3.5-.4.3-.8.7-1.4 1.2l-.6.5-.4-.5 2.5-2h.6v10.6h-.8zm6.2 0v-.7c.9-.7 1.7-1.4 2.4-2.1.7-.7 1.3-1.3 1.7-1.9s.8-1.2 1-1.7c.2-.5.3-1 .3-1.5 0-.7-.2-1.3-.6-1.7-.4-.4-1-.6-1.8-.6-.4 0-.8.1-1.2.2-.4.1-.9.3-1.3.5l-.1-.7c.4-.2.9-.4 1.3-.5.5-.1.9-.2 1.3-.2 1 0 1.7.2 2.2.7s.8 1.2.8 2.1c0 .4-.1.8-.2 1.3-.1.4-.3.8-.6 1.3-.3.4-.6.8-.9 1.3-.4.4-.8.9-1.2 1.4-.7.7-1.5 1.4-2.5 2.1h5.5v.6h-6.1zm23.9-10.5v9.9c0 .2 0 .4-.1.6-.1.1-.3.3-.5.4s-.5.2-.9.2-.9.1-1.5.1l-.5-.8c.5.1 1 .1 1.5.1.3 0 .5 0 .8-.1.2 0 .4-.1.5-.2.1-.1.1-.2.1-.3v-3h-6.1c-.1.5-.2.9-.3 1.3s-.3.7-.4 1.1c-.1.3-.3.7-.6 1-.2.4-.5.7-.8.9-.1-.1-.3-.3-.6-.5.3-.3.6-.6.9-1 .3-.4.5-.9.7-1.4.2-.5.3-1.1.4-1.8.1-.7.2-1.4.2-2.1v-4.8h7.4l-.2.4zm-6.7 6.1h6V175h-5.9v.9c0 .6 0 1.2-.1 1.8zm6-6.1h-5.9v2.7h5.9v-2.7zm16.5 7.5c0 .5-.1.9-.3 1.3s-.5.7-.8 1c-.3.3-.7.5-1.2.6-.5.1-1 .2-1.5.2-.4 0-.8 0-1.2-.1l-1.2-.3.1-.7c.4.2.8.3 1.2.4.4.1.8.1 1.2.1.3 0 .6 0 1-.1s.6-.2.9-.3c.3-.1.5-.3.7-.5.2-.2.3-.4.4-.7.1-.3.1-.6.1-.9 0-.3 0-.5-.1-.8-.1-.2-.2-.4-.4-.6s-.4-.3-.6-.4c-.2-.1-.6-.2-.9-.3-.4-.1-.8-.1-1.4-.1h-.7v-.6h.7c1.1 0 2-.2 2.5-.6s.9-.9.9-1.6c0-.4-.1-.7-.2-.9-.1-.3-.3-.5-.6-.7-.2-.2-.5-.3-.8-.4s-.6-.1-.9-.1c-.3 0-.6 0-.9.1s-.6.1-.8.2-.5.2-.7.3l-.1-.6c.8-.3 1.7-.5 2.6-.5.5 0 .9.1 1.3.2s.7.3 1 .5c.3.2.5.5.7.8.2.3.2.7.2 1.1 0 .4-.1.7-.2 1-.1.3-.3.5-.6.7-.2.2-.5.3-.7.4-.2.1-.5.2-.7.2-.2 0-.4.1-.6.1.4 0 .7.1 1.1.2s.7.3.9.5.5.5.6.8 0 .7 0 1.1zm6.8 3v-6.3c0-1.4 0-2.6.1-3.5-.4.3-.8.7-1.4 1.2l-.6.5-.4-.5 2.5-2h.6v10.6h-.8zm20.7-10.1v10.8h-.8v-1.2h-6.7v1.2h-.8v-11.5h8.2l.1.7zm-.8-.1h-6.7v4h6.7v-4zm-6.7 9h6.7v-4.3h-6.7v4.3zm18.4-2.6c-.3 0-.6-.1-.9-.2-.3-.1-.5-.4-.7-.6-.2-.3-.3-.6-.3-.9 0-.3.1-.6.2-.9.1-.3.4-.5.6-.7s.6-.3.9-.3c.3 0 .6.1.9.2.3.1.5.4.7.6.2.3.3.6.3.9 0 .3-.1.6-.2.9s-.4.5-.6.7-.6.3-.9.3zm0-.5c.3 0 .6-.1.9-.4.3-.3.4-.6.4-.9 0-.3-.1-.6-.4-.9-.3-.3-.6-.4-.9-.4-.3 0-.6.1-.9.4-.3.3-.4.6-.4.9 0 .3.1.6.4.9.3.3.6.4.9.4z"/>
    <path class="st1" d="M477.7 44.1h556.8v26.6H477.7z"/>
    <path class="st0" d="m502.5 85.7-.5.9c-.5-.4-1.1-.8-1.7-1.2-.6-.4-1.2-.7-1.7-1l.5-.8c.5.3 1.1.6 1.8 1 .6.4 1.1.8 1.6 1.1zm-3.3 8.7c.5-.6 1.1-1.5 1.8-2.7.7-1.2 1.3-2.1 1.6-2.8l.6.9c-.2.5-.6 1.1-1.1 1.8-.5.8-.9 1.4-1.3 2s-.7 1-.9 1.3c-.1.1-.2.4-.4.7l-.9-.8.6-.4zm4.4-13.2c-.2.3-.4.6-.5.9-.5-.4-1-.8-1.7-1.3-.6-.4-1.2-.8-1.7-1.1l.5-.8c1.4.8 2.5 1.6 3.4 2.3zm2.7 0c-.4.7-.8 1.4-1.3 2.1-.5.6-1 1.2-1.4 1.6-.1-.2-.4-.4-.7-.7.5-.4 1-1 1.6-1.8s1-1.5 1.3-2.2c.3-.7.6-1.3.7-1.9l1 .2-.1.2c-.2.5-.4 1.1-.6 1.6h8.5v.9h-9zm9.3 9.4c.4.3.7.5.9.6 0 1.5-.1 2.7-.4 3.5-.3.8-.7 1.2-1.3 1.2-.6 0-1.1-.2-1.4-.7-.4-.5-.6-1.2-.8-2.1s-.3-2.2-.3-3.8v-1.9h-8.4v-.9h9.5c-.1.6-.1 1.5-.1 2.9 0 1.8.1 3.1.4 4.1.3.9.6 1.4 1.1 1.4.2 0 .4-.3.6-1s.1-1.8.2-3.3zm-9.8-7.2h7.9v.9h-8v-.9zm18.1 2.6-.6.8c-.2-.1-.6-.4-1.2-.8s-1.3-.9-2.1-1.3l.5-.8c.5.3 1.1.6 1.7 1 .7.4 1.2.8 1.7 1.1zm-3.2 8.5c.4-.5.8-1.2 1.3-2s1-1.6 1.3-2.2c.4-.6.6-1.1.8-1.5l.6.9c-.3.7-.8 1.6-1.5 2.7s-1.3 2-1.7 2.7l-.4.7-.9-.8.5-.5zm3.9-13.3-.6.8c-.5-.4-1-.8-1.6-1.2s-1.2-.8-1.6-1l.5-.8c.5.3 1 .7 1.7 1.1.6.4 1.2.8 1.6 1.1zm11.9 2.2v12.7h-1V95h-8.4v1.1h-1V82.6h4.6v-4.2h1v4.2h4.9l-.1.8zm-5.8.1h-3.6v4.6h3.6v-4.6zM527.1 94h3.6v-5h-3.6v5zm8.4-10.5h-3.8v4.6h3.8v-4.6zM531.7 94h3.8v-5h-3.8v5zm25.6-1.7h1.5v1h-8.2v2.9h-1v-2.9h-8v-1h8v-2h-5.5v-6.8h5.5v-2.2h-7.4v-.9h7.4v-2.1h1.1v2.1h7.6v.9h-7.6v2.2h5.6v6.8h-5.6v2h6.6zm-7.6-7.9h-4.5v2.1h4.5v-2.1zm-4.5 2.8v2.2h4.5v-2.2h-4.5zm10.1-.7v-2.1h-4.6v2.1h4.6zm-4.6 3h4.6v-2.2h-4.6v2.2zm-44 25.6h-6.8v3.4h-1v-4.2h7.8v-1.6h-7v-.9h14.9v.9h-7v1.6h7.9v4.2h-1v-3.4h-6.9v4.5h-1v-4.5zm8.5 10c.1.1.2.2.4.3.2.1.3.2.5.3-.1.9-.2 1.5-.5 2s-.8.7-1.5.9c-.7.2-1.6.3-2.8.3-1.2 0-2.1 0-2.6-.1-.6 0-.9-.1-1.1-.2-.2-.1-.4-.3-.5-.6s-.2-.6-.2-1v-.7H502v1.4h-.9v-7.1H514v5.8h-6.1v.7c0 .5.2.8.6.9.5.1 1.5.1 3 .1 1.3 0 2.3-.2 3-.5.3-.2.5-.5.7-.8-.1-.5 0-1 0-1.7zm-10-8.7v.7h-3.8v-.7h3.8zm-3.1 2h3.1v.7h-3.8v-.7h.7zm4.6 2.9h-4.9v1.7h4.9v-1.7zm-4.9 4.2h4.9v-1.8h-4.9v1.8zm11-2.5v-1.7h-5.1v1.7h5.1zm-5.1 2.5h5.1v-1.8h-5.1v1.8zm5.2-9.1v.7H509v-.7h3.9zm-3.1 2h3.2v.7h-3.9v-.7h.7zm19.6 8c0 .4-.1.7-.1.9-.5.1-1.8.2-4 .5s-3.8.4-4.8.5l-.7.1-.1-1h.8c.8 0 2.1-.1 3.8-.3v-2.2h-4.1v-.9h4.1v-1.6h-3.7V117h3.7v-1.5h-4.4v-.8h4.4V113c-1 .1-2.3.1-3.9.1l-.4-.8c1.1 0 2.2 0 3.4-.1 1.2-.1 2.3-.1 3.2-.2.9-.1 1.7-.2 2.2-.3l.6.7h-.4c-.5.1-1 .2-1.8.3-.7.1-1.4.2-2 .2v1.8h4.4v.8h-4.4v1.5h3.7v5.4h-3.7v1.6h4v.8h-4v2.1c2.3-.2 3.7-.4 4.2-.5zm-5.1-8.6h-2.8v1.5h2.8v-1.5zm-2.8 2.2v1.6h2.8V120h-2.8zm6.5-.7v-1.5h-2.8v1.5h2.8zm-2.8 2.4h2.8V120h-2.8v1.7zm12.1-5.6v3.6c0 1 0 2-.1 2.9 0 .9-.1 1.8-.1 2.5s-.2 1.4-.3 1.9c-.2.6-.6 1.1-1.1 1.3-.5.3-1.2.4-2.1.4 0-.1-.1-.2-.2-.5s-.2-.5-.2-.6c.1 0 .3.1.4.1h.5c.5 0 .9-.1 1.2-.2.3-.2.6-.5.7-.9.1-.3.2-.8.2-1.4s.1-1.6.1-2.9c0-1.3.1-3 .1-5.3h-3c-.2 3.3-.6 5.9-1.2 7.8-.6 1.9-1.5 3.3-2.6 4.2-.1-.1-.4-.3-.9-.6.4-.3.8-.7 1.1-1.1.3-.4.7-.9.9-1.5s.5-1.2.7-2 .4-1.6.5-2.5c.1-.9.2-1.8.3-2.6.1-.8.1-1.4.1-1.7h-2.9v-1h3c.1-1.1.1-2.5.1-4.1v-.6l1 .1v.3c0 1.1 0 2.6-.1 4.3h3.9zm20 9.2h1.5v1h-8.2v2.9h-1v-2.9h-8v-1h8v-2h-5.5v-6.8h5.5v-2.2h-7.4v-.9h7.4v-2.1h1.1v2.1h7.6v.9h-7.6v2.2h5.6v6.8h-5.6v2h6.6zm-7.6-8h-4.5v2.1h4.5v-2.1zm-4.5 2.9v2.2h4.5v-2.2h-4.5zm10.1-.8v-2.1h-4.6v2.1h4.6zm-4.6 3h4.6v-2.2h-4.6v2.2zm229.5-68.1v12.1h-1V62c0-1.7.1-3.8.1-6.4-.3.6-.7 1.2-1.1 1.8-.4.6-.8 1.1-1.2 1.5-.1-.3-.3-.5-.5-.9.8-.9 1.6-2.2 2.4-3.7.8-1.5 1.4-2.9 1.7-4.3l.9.3-.1.1c-.2.6-.4 1.2-.7 1.9s-.3 1.4-.5 2zm8.1 5.2c.3.5.7 1 1.2 1.6.5.6 1.1 1.2 1.9 1.8.7.6 1.5 1 2.2 1.3l-.5.8c-.3-.2-.7-.4-1.1-.7-.4-.3-.9-.6-1.4-1.1-.5-.5-1-1-1.4-1.5-.4-.6-.8-1.1-1.1-1.6v6.3h-1v-6.3c-.2.4-.5.8-.9 1.2-.3.4-.7.9-1.2 1.3-.4.4-.9.9-1.5 1.3s-1.1.8-1.7 1.1l-.5-.8c.8-.4 1.5-.9 2.2-1.4.7-.6 1.3-1.2 1.8-1.7s.9-1.1 1.1-1.5h-4.8v-.9h5.3v-2.4h-3.7v-5h8.3v5H788v2.4h5.2v.9h-4.9zm-4-7.5v3.4h6.4V52h-6.4zm23.7 4.7c.2.3.6.6 1 1 .5.4 1.1.7 1.8 1.1.7.3 1.4.6 2.2.8-.2.3-.3.6-.4.8-.4-.1-.8-.3-1.3-.5s-1-.5-1.5-.8c-.6-.3-1-.7-1.5-1.1-.4-.4-.8-.8-1-1.2h-4.8c-.3.4-.7.8-1.2 1.2-.5.5-1.2.9-1.9 1.4-.8.5-1.5.8-2.2 1.1-.1-.1-.2-.4-.5-.7.4-.1.9-.3 1.5-.6s1.2-.6 1.8-1.1c.6-.4 1.2-.9 1.6-1.3H797V56h7.3v-1.4h-5.6v-.7h5.6v-1.4H798v-.7h4.4c-.3-.6-.6-1-.8-1.3l.8-.3c.3.4.6.9.9 1.5h3c.1-.1.2-.3.4-.5s.3-.5.4-.7c.1-.2.1-.3.2-.4l.9.3-.1.2-.7 1.2h4.4v.7h-6.6v1.4h5.9v.7h-5.9V56h7.5v.8H808zm-6.5 6v2.6l3.8-.7v.8l-3.9.7-.6.2-.3-.8c.2-.1.3-.3.3-.6v-6.2h8.1v4.1h-7.4zm6.4-3.4h-6.4v1.1h6.4v-1.1zm-6.4 2.8h6.4V61h-6.4v1.1zm5.4-4.1h-4.3v-.6h4.3v.6zm4.2 4.8c-.8.5-1.6 1-2.6 1.5 1.7.6 2.8 1 3.5 1.2l-.5.7c-3.2-1.2-5.8-2.1-7.7-2.6l.5-.5c.8.2 1.9.5 3.3 1 .5-.2 1-.5 1.6-.9s1.1-.7 1.4-.9l.7.5h-.2zm11.2-3.2-.1 1s-.1 0-.1.1c-.1 0-.8.3-2.1.8s-2.3.9-3 1.1l-.7.3-.2-1 .7-.2 1.8-.6v-7.6h-2.2v-.9h5.5v.9h-2.4v7.3c1.4-.6 2.4-1 2.8-1.2zm-1.4 5.9c.8-.2 1.6-.6 2.5-1 .9-.4 1.5-.8 1.9-1.2l.7.5c-.5.4-1.1.9-2 1.3-.8.5-1.7.8-2.5 1.1 0 0-.1-.1-.1-.2-.1 0-.2-.2-.5-.5zm5.9-13.4h-4.6v-.8h10.2v.8h-4.7c-.2.8-.5 1.4-.7 2.1h4.2v8.5h-7.6v-8.5h2.5c0-.1.1-.4.3-.7s.3-.9.4-1.4zm3.5 4.6v-1.9h-5.8v1.9h5.8zm-5.8.8v1.8h5.8v-1.8h-5.8zm0 4.5h5.8v-2.1h-5.8V62zm4.3 1.4c.6.3 1.3.6 2.1 1 .7.4 1.4.8 2 1.2l-.6.7c-.6-.5-1.3-.9-2-1.3s-1.4-.7-2.2-1.1l.7-.5zm20.7-11.2v14.1h-.9v-1.4h-9.5v1.4h-.9v-15h11.4l-.1.9zm-.9 0h-9.5v3.4h9.5v-3.4zm0 4.1h-9.5v3.3h9.5v-3.3zm-9.5 7.7h9.5v-3.5h-9.5V64zm-20.3 18.2c-.8 1.3-1.9 2.4-3.2 3.5s-2.6 1.9-4 2.6c-1.4.7-2.8 1.2-4.2 1.5-.2-.2-.4-.5-.6-.7 1.2-.3 2.4-.7 3.6-1.2 1.2-.5 2.3-1.1 3.3-1.8-.4-.3-.8-.6-1.3-1s-1-.6-1.4-.9l.1-.1.4-.4c.4.2.9.5 1.5.9s1 .7 1.4 1c.2-.2.6-.5 1.1-.9.5-.4.9-.8 1.3-1.3.4-.4.6-.7.8-1h-5c-.3.3-.7.6-1.2 1s-1.1.8-1.7 1.1c-.6.4-1.2.7-1.8 1-.2-.3-.4-.5-.7-.7.9-.4 1.9-.9 2.8-1.5.9-.6 1.6-1.2 2.2-1.7l1.2-1.2c.3-.3.5-.6.6-.8l1 .2-.1.1c-.4.6-.9 1.1-1.4 1.7h4.7l.1-.1c.3.2.5.4.8.6l-.3.1zm3.3 5.8-.2.1c-.7 1.4-1.7 2.6-3 3.7s-2.7 2-4.4 2.8c-1.7.7-3.5 1.3-5.5 1.6l-.6-.8c1.6-.3 3.1-.7 4.5-1.2s2.7-1.2 3.8-1.9c-.4-.3-.9-.6-1.4-1s-1-.6-1.4-.8l.6-.5c.4.2.9.5 1.5.8.6.3 1.1.7 1.5 1 1.4-1 2.4-2.2 3.2-3.4h-4.6c-.9.8-2 1.5-3.1 2.1-1.1.6-2.2 1.1-3.4 1.4-.1-.2-.2-.4-.5-.7 1-.3 2.1-.7 3.1-1.3 1.1-.6 2-1.2 2.8-1.8.8-.7 1.5-1.4 2.1-2.1l.9.3-.1.1c-.4.5-.7.9-1.1 1.2h4.1l.1-.1c.4 0 .7.2 1.1.5zm-11.2 27.8c-.4 1.2-.9 2.4-1.5 3.6-.7 1.2-1.3 2.1-2 2.6l-.7-.7c.5-.4 1-1 1.5-1.8s.9-1.5 1.2-2.3c.3-.8.5-1.4.7-2l.9.3-.1.3zm-3.4 12.1c1.4-.2 2.7-.5 3.9-.9s2.2-.9 3.1-1.5c.9-.6 1.7-1.4 2.4-2.2.7-.9 1.3-1.9 1.8-3l.8.5-.1.1c-.5 1-1.1 1.9-1.7 2.8s-1.4 1.6-2.3 2.3c-.9.7-2 1.3-3.2 1.7-1.2.4-2.6.8-4.1 1-.1 0-.3-.3-.6-.8zm7.4-5.9c0 .3-.1.6-.2.8-.2.2-.5.3-.9.5-.4.1-1.1.2-2.1.2-.2-.4-.3-.7-.5-1.1.5.1 1 .1 1.5.1.4 0 .7 0 1-.1s.4-.2.4-.5v-9.1c.3 0 .6 0 1 .1v8.2l-.2.9zm3.7-6.8c.6.7 1.2 1.6 2 2.7s1.5 2.1 2 3l-.7.7c-.5-.9-1.1-1.8-1.9-3-.8-1.1-1.5-2.1-2.1-3l.7-.4zm83-55.4h-6.4c-.1.3-.3.8-.6 1.5h7.1v3.9c0 .2 0 .4-.1.5-.1.2-.3.3-.5.4-.2.1-.5.2-.8.2h-1l-.4-.9c.4 0 .7.1 1 .1.3 0 .5 0 .7-.1.2-.1.3-.2.3-.4v-3h-3.1v4.3h-.9V62h-3v4.3h-.9V62h-3v4.4h-.9v-5.1h4.5c.2-.4.3-.7.5-1 .1-.3.2-.4.2-.5h-6.6V59h15.2v.8h-1.3zM888 57v-3.9h6.8v-1.5h-6.1V51h13.1v.8h-6.2v1.5h6.9v3.9h-.9v-3.1h-6v4.3h-.9v-4.3h-5.9V57h-.8zm5.5-1.8v.6h-3.3v-.6h3.3zm-2.7 1.8h2.7v.6h-3.3V57h.6zm9.5-1.8v.6H897v-.6h3.3zm-2.8 1.8h2.7v.6h-3.3V57h.6zm20.1 7.9c2.1 0 3.9-.1 5.3-.3 0 0 0 .2-.1.3 0 .2-.1.3-.1.4v.2c-.5.1-1.1.1-1.8.2-.7 0-1.8.1-3.3.1-.8 0-1.5-.1-2.3-.2-.7-.1-1.4-.4-2-.7-.6-.3-1.2-.7-1.6-1.2-.5-.5-.9-1.1-1.2-1.8-.3.9-.7 1.7-1.2 2.5s-.9 1.4-1.5 1.9c-.1-.1-.4-.3-.8-.6.8-.8 1.6-1.8 2.2-3.1s1-2.6 1.2-4.1l.9.2-.1.2c0 .1-.1.4-.1.7-.1.3-.2.7-.3 1.2.1.5.3.9.6 1.4.3.4.6.8.9 1.1s.7.6 1.1.7c.3.2.7.3 1 .4v-7.7h-4.8v-.9h10.8v.9h-5.1v3.2h4.7v.9h-4.7v4c.7 0 1.5.1 2.3.1zm-9.8-9.1v-3.6h6.9c-.1-.1-.2-.4-.4-.7-.2-.3-.4-.7-.7-1.1l.8-.3c.3.5.8 1.2 1.3 2.1h6.1v3.6h-.9v-2.7h-12.2v2.7h-.9zm18.2 10c.1-.1.3-.2.5-.4s.5-.4.8-.7c.3-.3.6-.6.9-1 .3-.4.5-.7.7-1l.7.4c-.3.5-.7 1-1.2 1.6-.5.6-1.1 1.2-1.7 1.7-.3-.2-.5-.4-.7-.6zm7.7-3.8h-7.6v-.8h1.9v-7.9h-1.7v-.8h1.7v-2.4c.4 0 .7 0 .9.1v2.4h3.4v-2.4c.4 0 .7 0 .9.1v2.4h1.6v.8h-1.6v7.9h1.4v.6h-.9zm-1.4-8.6h-3.4v2h3.4v-2zm-3.4 2.8v2.1h3.4v-2.1h-3.4zm0 2.8v2.3h3.4V59h-3.4zm3 3.7c.6.6 1.2 1.2 1.8 2l-.3.3c-.1.1-.3.2-.3.3-.6-.8-1.2-1.5-1.9-2.1l.7-.5zm9.7-11v13.4c0 .2 0 .4-.1.5-.1.1-.2.3-.3.4-.2.1-.4.2-.8.2s-.9.1-1.5.1c0-.1-.1-.3-.2-.5s-.2-.4-.3-.5c.4.1.8.1 1.2.1.3 0 .6 0 .8-.1.2-.1.3-.2.3-.4v-4.5h-4.1c-.1.6-.2 1.3-.4 2.1s-.4 1.5-.8 2.2c-.3.7-.7 1.3-1.1 1.7l-.7-.6c.7-.8 1.3-1.9 1.7-3.4.4-1.4.6-3.1.6-4.9V51h5.7v.7zm-4.9 7.9h4V56h-3.9v1.6c0 .6 0 1.3-.1 2zm.1-7.9v3.5h3.9v-3.5h-3.9zm16 11.5c1.3.8 2.8 1.3 4.4 1.7 1.6.4 3.3.5 5.1.5 0 .1-.1.4-.3.9-.7 0-1.4 0-2.2-.1-.8-.1-1.6-.2-2.3-.3-.7-.2-1.4-.3-2-.5-.6-.2-1.2-.4-1.7-.7-.6-.3-1.1-.6-1.6-.9-.5.4-1.1.8-1.8 1.1-.7.3-1.3.6-2 .8-.7.2-1.3.4-1.8.5 0 0 0-.1-.1-.1s-.1-.2-.2-.4-.2-.3-.2-.3c1.1-.2 2.1-.5 3-.9.9-.4 1.7-.8 2.3-1.3-.8-.6-1.6-1.2-2.2-1.9l.7-.5c.6.7 1.3 1.3 2.1 1.9.8-.7 1.2-1.5 1.4-2.5h-5.2v-6h5.2V52H946v-.9h15.8v.9h-7.5v2.2h5.4v6h-5.5l-.3 1.2c-.2.4-.4.7-.6 1-.1.4-.3.6-.5.8zm.7-8.3h-4.3v1.9h4.3v-1.9zm-4.3 4.6h4.3v-2.1h-4.3v2.1zm9.7-4.6h-4.5v1.9h4.5v-1.9zm-4.5 4.6h4.5v-2h-4.5v2zm14.1-.2v5.6c0 .4-.2.7-.5.9s-1 .3-1.9.3l-.5-1c.4 0 .8.1 1.1.1.3 0 .5 0 .7-.1.2-.1.3-.2.3-.4v-4.9c-.6.2-1.1.4-1.5.6l-.6.3-.2-.9.6-.2c.9-.3 1.5-.5 1.7-.6v-4h-2.3v-1h2.3v-3.7c.4 0 .8 0 .9.1V54h1.6v.8h-1.6v3.7c1.1-.4 1.7-.7 1.8-.7v.9c-.3 0-.9.3-1.9.6zm7.9 2.5c.2.4.4.8.8 1.2.3.4.7.8 1.1 1.1.4.3.9.6 1.5.9l1.8.6-.4.8c-.5-.1-1-.3-1.6-.5s-1.1-.5-1.6-.9c-.6-.4-1-.8-1.4-1.3-.4-.5-.7-.9-.9-1.4-.5 1.1-1.2 1.9-2.1 2.6-.9.7-2.1 1.1-3.6 1.4l-.4-.8c.7-.1 1.3-.3 1.9-.5.6-.2 1.1-.4 1.5-.7s.8-.7 1.2-1.1c.3-.4.6-.9.8-1.4h-4.9V61h5.1c.1-.5.2-1 .3-1.6l.9.1-.1.2c-.1.5-.1.9-.2 1.3h5.4v.8h-5.1zm-4.6-6.7c-.3.3-.6.6-.8.7-.1-.1-.2-.2-.3-.4s-.2-.3-.3-.3c.5-.3 1-.8 1.5-1.4.6-.6 1-1.3 1.4-1.9s.7-1.2.9-1.6l.9.2-.1.1c-.2.4-.4.8-.6 1.1h2.9l.1-.1c.2.1.4.3.7.5l-.1.1c-.2.4-.4.8-.7 1.2-.3.5-.6.8-.8 1.1h3.7v5.9h-.9v-5.2h-6.8v5.2h-.9v-5.2zm5.2-2.7h-3c-.5.8-1 1.5-1.6 2.1h3.1c.2-.2.4-.5.7-.8.2-.4.5-.8.8-1.3zm-.3 3.3-.1.1c-.1.4-.2.7-.3 1 .4.3.8.7 1.3 1.1l1.2 1.2-.5.7c-.3-.3-.6-.7-1.1-1.2s-.8-.8-1.2-1.1c-.2.4-.6.8-1 1.3-.4.4-.8.8-1.2 1.1l-.6-.6c.7-.4 1.3-.9 1.8-1.6.5-.7.8-1.4 1-2.2l.7.2zm14.3 3.9-.1 1s-.1 0-.1.1c-.1 0-.8.3-2.1.8s-2.3.9-3 1.1l-.7.3-.2-1 .7-.2 1.8-.6v-7.6h-2.2v-.9h5.5v.9h-2.4v7.3c1.4-.6 2.3-1 2.8-1.2zm-1.5 5.9c.8-.2 1.6-.6 2.5-1 .9-.4 1.5-.8 1.9-1.2l.7.5c-.5.4-1.1.9-2 1.3-.8.5-1.7.8-2.5 1.1 0 0-.1-.1-.1-.2l-.5-.5zm6-13.4h-4.6v-.8h10.2v.8h-4.7c-.2.8-.5 1.4-.7 2.1h4.2v8.5h-7.6v-8.5h2.5c0-.1.1-.4.3-.7s.2-.9.4-1.4zm3.4 4.6v-1.9h-5.8v1.9h5.8zm-5.8.8v1.8h5.8v-1.8h-5.8zm0 4.5h5.8v-2.1h-5.8V62zm4.3 1.4c.6.3 1.3.6 2.1 1 .7.4 1.4.8 2 1.2l-.6.7c-.6-.5-1.3-.9-2-1.3s-1.4-.7-2.2-1.1l.7-.5zm20.7-11.2v14.1h-.9v-1.4h-9.5v1.4h-.9v-15h11.4l-.1.9zm-.9 0h-9.5v3.4h9.5v-3.4zm0 4.1h-9.5v3.3h9.5v-3.3zm-9.4 7.7h9.5v-3.5h-9.5V64zm-58.7 16.8v12.4h-.9V80.8h.9zm10.4 0v12.4h-.9V80.8h.9zm-3.2 31v.9H952v3.9c.3-.1.7-.1 1-.1 1.2 0 2.2.3 3 1 .8.7 1.1 1.6 1.1 2.8 0 1.1-.4 2.1-1.1 2.9s-1.7 1.1-2.9 1.1c-1 0-2-.3-3-.8v-1.1c1.2.7 2.2 1 3 1 .9 0 1.6-.3 2.2-.9.6-.6.9-1.3.9-2.2 0-1-.3-1.7-.9-2.3-.6-.5-1.4-.8-2.4-.8-.5 0-1.1.1-1.7.3v-5.8h5.1z"/>
    <path class="st2" d="M477.8 44.2h556.9v92.7H477.8zm102.9-.1v92.3m178-92.3v92.3m108.8-92.3v92.3M477.6 70.3h556.7m-556.7 33.2h556.7"/>
    <path class="st0" d="M632.6 54.3v12.1h-1V62c0-1.7.1-3.8.1-6.4-.3.6-.7 1.2-1.1 1.8-.4.6-.8 1.1-1.2 1.5-.1-.3-.3-.5-.5-.9.8-.9 1.6-2.2 2.4-3.7.8-1.5 1.4-2.9 1.7-4.3l.9.3-.1.1c-.2.6-.4 1.2-.7 1.9s-.3 1.4-.5 2zm8.1 5.2c.3.5.7 1 1.2 1.6.5.6 1.1 1.2 1.9 1.8.7.6 1.5 1 2.2 1.3l-.5.8c-.3-.2-.7-.4-1.1-.7-.4-.3-.9-.6-1.4-1.1-.5-.5-1-1-1.4-1.5-.4-.6-.8-1.1-1.1-1.6v6.3h-1v-6.3c-.2.4-.5.8-.9 1.2-.3.4-.7.9-1.2 1.3-.4.4-.9.9-1.5 1.3s-1.1.8-1.7 1.1l-.5-.8c.8-.4 1.5-.9 2.2-1.4.7-.6 1.3-1.2 1.8-1.7s.9-1.1 1.1-1.5H634v-.9h5.3v-2.4h-3.7v-5h8.3v5h-3.7v2.4h5.2v.9h-4.7zm-4-7.5v3.4h6.4V52h-6.4zm23.7 4.7c.2.3.6.6 1 1 .5.4 1.1.7 1.8 1.1.7.3 1.4.6 2.2.8-.2.3-.3.6-.4.8-.4-.1-.8-.3-1.3-.5s-1-.5-1.5-.8c-.6-.3-1-.7-1.5-1.1-.4-.4-.8-.8-1-1.2h-4.8c-.3.4-.7.8-1.2 1.2-.5.5-1.2.9-1.9 1.4-.8.5-1.5.8-2.2 1.1-.1-.1-.2-.4-.5-.7.4-.1.9-.3 1.5-.6s1.2-.6 1.8-1.1c.6-.4 1.2-.9 1.6-1.3h-4.6V56h7.3v-1.4h-5.6v-.7h5.6v-1.4h-6.3v-.7h4.4c-.3-.6-.6-1-.8-1.3l.8-.3c.3.4.6.9.9 1.5h3c.1-.1.2-.3.4-.5s.3-.5.4-.7c.1-.2.1-.3.2-.4l.9.3-.1.2-.7 1.2h4.4v.7h-6.6v1.4h5.9v.7h-5.9V56h7.5v.8h-4.7zm-6.5 6v2.6l3.8-.7v.8l-3.9.7-.6.2-.3-.8c.2-.1.3-.3.3-.6v-6.2h8.1v4.1h-7.4zm6.4-3.4h-6.4v1.1h6.4v-1.1zm-6.4 2.8h6.4V61h-6.4v1.1zm5.4-4.1H655v-.6h4.3v.6zm4.2 4.8c-.8.5-1.6 1-2.6 1.5 1.7.6 2.8 1 3.5 1.2l-.5.7c-3.2-1.2-5.8-2.1-7.7-2.6l.5-.5c.8.2 1.9.5 3.3 1 .5-.2 1-.5 1.6-.9s1.1-.7 1.4-.9l.7.5h-.2zm14.6 2.4c1 0 2.2 0 3.5-.1s2.3-.2 3.1-.3c0 0 0 .1-.1.4-.1.3-.1.4-.1.5-.7.1-1.6.2-2.9.2-1.3.1-2.4.1-3.4.1-.8 0-1.6-.1-2.3-.2-.7-.1-1.3-.3-1.9-.5-.6-.2-1-.5-1.4-.9s-.7-.8-.9-1.2c-.6 1.2-1.4 2.2-2.4 2.9-.2-.3-.4-.5-.6-.7.5-.4 1-.8 1.4-1.3.4-.5.8-1.1 1.1-1.8.3-.7.5-1.5.6-2.3h-2.3l-.1-.7c.1 0 .1-.1.2-.2s.2-.1.2-.2c.3-.3.6-.8 1-1.4.4-.6.6-1.1.8-1.6h-2.8v-.8h3.1l.1-.1.7.6-.2.1c-.3.6-.6 1.2-1 1.8s-.8 1.2-1.1 1.7h1.5l.1-.1.7.6-.2.1c-.1.9-.4 1.7-.6 2.5.2.6.5 1.2 1 1.6.5.5 1.2.8 2.1 1 1 .2 2 .3 3.1.3zm-5.9-11.8-.7.6c-.3-.4-.6-.9-1-1.4-.4-.5-.8-1-1.2-1.3l.6-.5c.3.3.7.7 1.1 1.2s.9.9 1.2 1.4zm2.6 2.4v-4.6h8.9v11.3c0 .1 0 .2-.1.4 0 .2-.2.3-.4.5-.2.1-.5.2-.9.3-.4.1-.9.1-1.6.1l-.5-.9c.4 0 .8.1 1.3.1.4 0 .7 0 .9-.1.2-.1.3-.2.3-.5V52h-7.2v3.9c0 1.1-.1 2.1-.2 3.2s-.3 2-.6 2.8-.6 1.4-.9 1.8c-.1-.2-.4-.4-.7-.6.5-.7.9-1.6 1.2-2.9.4-1.3.5-2.8.5-4.4zm2.3-.1h1.8v-1.3h-2.1v-.7h2.1v-1.2h.8v1.1h2v.7h-2v1.3h2.4v.7h-2.4v1.2h-.8v-1.1h-2.5v-.7h.7zm.1 6.1v-3.4h3.9v3.4h-3.9zm3.1-2.7H678v2h2.3v-2zm7.5 6.7c.1-.1.3-.2.5-.4s.5-.4.8-.7c.3-.3.6-.6.9-1 .3-.4.5-.7.7-1l.7.4c-.3.5-.7 1-1.2 1.6-.5.6-1.1 1.2-1.7 1.7-.2-.2-.4-.4-.7-.6zm7.8-3.8h-7.5v-.8h1.9v-7.9h-1.7v-.8h1.7v-2.4c.4 0 .7 0 .9.1v2.4h3.4v-2.4c.4 0 .7 0 .9.1v2.4h1.6v.8H695v7.9h1.4v.6h-.8zm-1.4-8.6h-3.4v2h3.4v-2zm-3.4 2.8v2.1h3.4v-2.1h-3.4zm0 2.8v2.3h3.4V59h-3.4zm3 3.7c.6.6 1.2 1.2 1.8 2l-.3.3c-.1.1-.3.2-.3.3-.6-.8-1.2-1.5-1.9-2.1l.7-.5zm9.7-11v13.4c0 .2 0 .4-.1.5-.1.1-.2.3-.3.4-.2.1-.4.2-.8.2s-.9.1-1.5.1c0-.1-.1-.3-.2-.5s-.2-.4-.3-.5c.4.1.8.1 1.2.1.3 0 .6 0 .8-.1.2-.1.3-.2.3-.4v-4.5h-4.1c-.1.6-.2 1.3-.4 2.1s-.4 1.5-.8 2.2c-.3.7-.7 1.3-1.1 1.7l-.7-.6c.7-.8 1.3-1.9 1.7-3.4.4-1.4.6-3.1.6-4.9V51h5.7v.7zm-4.9 7.9h4V56h-3.9v1.6c0 .6 0 1.3-.1 2zm.1-7.9v3.5h3.9v-3.5h-3.9zm-87.4 38.1h1.4v.9h-7.6v5.1h-1v-5.1h-7.5v-.9h7.5v-3.2h-5.9v-.9h5.9v-5.9c.2 0 .6 0 1 .1v5.9h6.2v.9h-6.2v3.2h6.2zm-9.4-5.4-.7.5c-.1-.2-.3-.6-.7-1.2-.3-.6-.8-1.4-1.5-2.3.3-.1.6-.3.8-.4.4.5.7 1.1 1.1 1.8s.7 1.1 1 1.6zm8.3-3.2c-.3.6-.6 1.2-1.1 2-.5.8-.9 1.4-1.3 1.9l-.7-.5c.3-.4.6-.8 1-1.4.4-.6.7-1.1.9-1.5s.4-.8.5-1.1l.9.4-.2.2zm20.6 9.5h1.4v.9h-6.9v4.3h-1v-4.3h-8.2v-.9h3.4v-4.4h4.8v-3.1H620c-.3.5-.7 1-1.2 1.6-.5.6-1 1.1-1.6 1.6-.2-.2-.4-.4-.7-.6.6-.4 1.2-1.1 1.8-1.8s1.2-1.5 1.6-2.3c.4-.7.7-1.4.9-1.9l.9.2-.1.1c-.3.8-.7 1.5-1.1 2.3h10.4v.8h-5.6v3.1h4.9v.8h-4.9v3.6h5.5zm-10.3 0h3.9v-3.6h-3.9v3.6zm23.1.2-.1.9c-.6.2-1.7.6-3.1 1-1.4.5-2.6.8-3.4 1l-.6.2-.4-.9c.3-.1.6-.1.8-.2.8-.2 2-.5 3.5-1 1.6-.3 2.7-.7 3.3-1zm7.6.5c.4.5.7.8.7.8-.2 2.3-.7 3.5-1.7 3.5-.2 0-.4 0-.7-.1-.2-.1-.5-.3-.8-.5-.3-.3-.6-.6-.9-1.1-.3-.5-.7-1.1-1-1.8-.7.8-1.4 1.4-2.3 2-.9.6-1.8 1.1-2.8 1.5-.1-.2-.4-.5-.7-.7 2.3-.8 4-2.1 5.3-3.7-.8-2-1.3-4.4-1.6-7.3h-8.6v-1h8.5c-.1-.8-.1-1.7-.2-2.6l-.1-.6c.3 0 .6.1.9.1v.6c0 .4 0 .8.1 1.3s.1.9.1 1.3h5.8v.9h-5.7c.3 2.4.7 4.6 1.4 6.5.4-.7.8-1.4 1.1-2.2.3-.8.6-1.7.8-2.6l.8.4-.1.1c-.5 2-1.3 3.7-2.3 5.2.5 1.1.9 1.9 1.4 2.5.5.6.9.9 1.3.9.2 0 .3-.1.5-.3.1-.2.3-.6.3-1.1.4-.7.4-1.3.5-2zm-14-1.2v-4.4h5.2v4.4h-5.2zm4.3-3.6h-3.4v2.8h3.4v-2.8zm8.6-4.8-.6.6c-.1-.1-.3-.3-.6-.5-.2-.2-.5-.4-.9-.6-.3-.2-.7-.4-1-.5l.5-.5c.4.1.8.4 1.3.6s.9.6 1.3.9zm11.1.5v.9h-4.4v3.9c.3-.1.7-.1 1-.1 1.2 0 2.2.3 3 1 .8.7 1.1 1.6 1.1 2.8 0 1.1-.4 2.1-1.1 2.9s-1.7 1.1-2.9 1.1c-1 0-2-.3-3-.8v-1c1.2.7 2.2 1 3 1 .9 0 1.6-.3 2.2-.9.6-.6.9-1.3.9-2.2 0-1-.3-1.7-.9-2.3-.6-.5-1.4-.8-2.4-.8-.5 0-1.1.1-1.7.3v-5.8h5.2zm5.6 10.7v1.4c0 1.1-.4 1.9-1.2 2.5v-.6c.3-.4.4-.9.4-1.5h-.4V93h1.2zm7-10.8c1.1 0 2 .6 2.8 1.7.8 1.1 1.1 2.7 1.1 4.7 0 1.9-.4 3.4-1.1 4.6-.7 1.1-1.7 1.7-2.8 1.7-1.2 0-2.1-.6-2.9-1.7-.7-1.1-1.1-2.6-1.1-4.4 0-2.3.4-4 1.2-5 .8-1.1 1.7-1.6 2.8-1.6zm-.1 11.8c.9 0 1.7-.5 2.2-1.6s.8-2.4.8-4-.3-2.9-.8-3.9-1.3-1.6-2.2-1.6c-.9 0-1.6.5-2.2 1.5-.6 1-.9 2.3-.9 4 0 1.6.3 3 .8 4 .7 1.1 1.4 1.6 2.3 1.6zm10.5-11.8c1.1 0 2 .6 2.8 1.7.8 1.1 1.1 2.7 1.1 4.7 0 1.9-.4 3.4-1.1 4.6-.7 1.1-1.7 1.7-2.8 1.7-1.2 0-2.1-.6-2.9-1.7-.7-1.1-1.1-2.6-1.1-4.4 0-2.3.4-4 1.2-5 .8-1.1 1.8-1.6 2.8-1.6zm0 11.8c.9 0 1.7-.5 2.2-1.6s.8-2.4.8-4-.3-2.9-.8-3.9-1.3-1.6-2.2-1.6c-.9 0-1.6.5-2.2 1.5-.6 1-.9 2.3-.9 4 0 1.6.3 3 .8 4 .7 1.1 1.4 1.6 2.3 1.6zm10.4-11.8c1.1 0 2 .6 2.8 1.7.8 1.1 1.1 2.7 1.1 4.7 0 1.9-.4 3.4-1.1 4.6-.7 1.1-1.7 1.7-2.8 1.7-1.2 0-2.1-.6-2.9-1.7-.7-1.1-1.1-2.6-1.1-4.4 0-2.3.4-4 1.2-5 .9-1.1 1.8-1.6 2.8-1.6zm0 11.8c.9 0 1.7-.5 2.2-1.6s.8-2.4.8-4-.3-2.9-.8-3.9-1.3-1.6-2.2-1.6c-.9 0-1.6.5-2.2 1.5-.6 1-.9 2.3-.9 4 0 1.6.3 3 .8 4 .7 1.1 1.4 1.6 2.3 1.6zm13-12.8c-.2.6-.5 1.3-.9 1.9-.4.7-.9 1.4-1.4 2.1-.5.7-1.1 1.3-1.6 1.8-.6.5-1.1 1-1.5 1.2-.1-.2-.4-.4-.7-.7.3-.2.8-.5 1.3-1s1.1-1.1 1.7-1.8c.6-.7 1.1-1.4 1.5-2.1.4-.7.7-1.3.8-1.8l.9.2-.1.2zm3.9 8.5.8-.4c.6.8 1.4 1.7 2.2 2.8s1.5 2.3 2.2 3.4l-.9.4c-.2-.4-.5-1-1-1.8-1.5.2-4.9.5-10.3 1-.4 0-.8.1-1.1.1l-.3-.9c.5-.4 1.1-.9 1.7-1.5.6-.7 1.1-1.4 1.6-2.2.5-.8 1-1.6 1.4-2.3.4-.8.7-1.4.9-1.9l.9.5-.2.4c-.5 1-1.1 2-1.8 3.1s-1.3 1.9-1.7 2.5c-.5.6-.9 1-1.2 1.4.6 0 1.5-.1 2.5-.2s2.3-.2 3.7-.4c1.4-.1 2.5-.3 3.4-.4-1-1.4-1.9-2.6-2.8-3.6zm.9-9.5c.2.6.5 1.3.8 1.9s.8 1.3 1.3 2 1 1.3 1.6 1.8c.6.5 1.2.9 1.7 1.2l-.6.8c-.4-.2-.8-.5-1.3-.9-.4-.3-.8-.7-1.2-1.2-.4-.4-.8-.9-1.1-1.4-.4-.5-.7-1-1-1.7-.3-.6-.6-1.2-.9-1.9h-3V80h3.7zm23.3 14h1.3v.9h-15.6v-.9h7.3v-2.6h-6.1v-.9h6.1v-2.3h-5.2v-7.8h11.4v8h-5.3v2.3h6.2v.9h-6.2v2.6h6.1zm-7.1-12.6h-4.3v2.6h4.3v-2.6zm-4.3 3.3v2.8h4.3v-2.8h-4.3zm9.6-.7v-2.6h-4.4v2.6h4.4zm-4.4 3.6h4.4V85h-4.4v2.8zM593 120.2h14.4v1h-15.8v-1h1.4zm32.6 3.4h1.4v.9h-6.9v4.3h-1v-4.3h-8.2v-.9h3.4v-4.4h4.8v-3.1h-4.3c-.3.5-.7 1-1.2 1.6-.5.6-1 1.1-1.6 1.6-.2-.2-.4-.4-.7-.6.6-.4 1.2-1.1 1.8-1.8s1.2-1.5 1.6-2.3c.4-.7.7-1.4.9-1.9l.9.2-.1.1c-.3.8-.7 1.5-1.1 2.3h10.4v.8h-5.6v3.1h4.9v.8h-4.9v3.6h5.5zm-10.3 0h3.9V120h-3.9v3.6zm23.1.3-.1.9c-.6.2-1.7.6-3.1 1-1.4.5-2.6.8-3.4 1l-.6.2-.4-.9c.3-.1.6-.1.8-.2.8-.2 2-.5 3.5-1 1.6-.4 2.7-.8 3.3-1zm7.5.4c.4.5.7.8.7.8-.2 2.3-.7 3.5-1.7 3.5-.2 0-.4 0-.7-.1-.2-.1-.5-.3-.8-.5-.3-.3-.6-.6-.9-1.1-.3-.5-.7-1.1-1-1.8-.7.8-1.4 1.4-2.3 2-.9.6-1.8 1.1-2.8 1.5-.1-.2-.4-.5-.7-.7 2.3-.8 4-2.1 5.3-3.7-.8-2-1.3-4.4-1.6-7.3h-8.6v-.9h8.5c-.1-.8-.1-1.7-.2-2.6l-.1-.6c.3 0 .6.1.9.1v.6c0 .4 0 .8.1 1.3s.1.9.1 1.3h5.8v.9h-5.7c.3 2.4.7 4.6 1.4 6.5.4-.7.8-1.4 1.1-2.2.3-.8.6-1.7.8-2.6l.8.4-.1.1c-.5 2-1.3 3.7-2.3 5.2.5 1.1.9 1.9 1.4 2.5.5.6.9.9 1.3.9.2 0 .3-.1.5-.3.1-.2.3-.6.3-1.1.5-.7.5-1.3.5-2.1zm-13.9-1.2v-4.4h5.2v4.4H632zm4.3-3.6h-3.4v2.8h3.4v-2.8zm8.5-4.8-.6.6c-.1-.1-.3-.3-.6-.5-.2-.2-.5-.4-.9-.6-.3-.2-.7-.4-1-.5l.5-.5c.4.1.8.4 1.3.6s1 .7 1.3.9zm5 2.6v-1.1c.9-.8 1.9-1.1 2.9-1.1s1.9.3 2.6 1c.7.7 1.1 1.5 1.1 2.5 0 2-1.5 4.7-4.6 8.1h5.8v.9h-7.9c3.8-3.7 5.7-6.7 5.7-9 0-.8-.3-1.4-.8-1.9s-1.2-.8-2-.8c-.5 0-1 .1-1.4.3s-.9.6-1.4 1.1zm14.2-2.2c1.1 0 2 .6 2.8 1.7.8 1.1 1.1 2.7 1.1 4.7 0 1.9-.4 3.4-1.1 4.6-.7 1.1-1.7 1.7-2.8 1.7-1.2 0-2.1-.6-2.9-1.7-.7-1.1-1.1-2.6-1.1-4.4 0-2.3.4-4 1.2-5 .8-1.1 1.7-1.6 2.8-1.6zm-.1 11.8c.9 0 1.7-.5 2.2-1.6s.8-2.4.8-4-.3-2.9-.8-3.9-1.3-1.6-2.2-1.6c-.9 0-1.6.5-2.2 1.5-.6 1-.9 2.3-.9 4 0 1.6.3 3 .8 4 .7 1.1 1.4 1.6 2.3 1.6zm8.2-1v1.4c0 1.1-.4 1.9-1.2 2.5v-.6c.3-.4.4-.9.4-1.5h-.4v-1.8h1.2zm6.9-10.8c1.1 0 2 .6 2.8 1.7.8 1.1 1.1 2.7 1.1 4.7 0 1.9-.4 3.4-1.1 4.6-.7 1.1-1.7 1.7-2.8 1.7-1.2 0-2.1-.6-2.9-1.7-.7-1.1-1.1-2.6-1.1-4.4 0-2.3.4-4 1.2-5 .8-1.1 1.7-1.6 2.8-1.6zm-.1 11.8c.9 0 1.7-.5 2.2-1.6s.8-2.4.8-4-.3-2.9-.8-3.9-1.3-1.6-2.2-1.6c-.9 0-1.6.5-2.2 1.5-.6 1-.9 2.3-.9 4 0 1.6.3 3 .8 4 .7 1.1 1.5 1.6 2.3 1.6zm10.5-11.8c1.1 0 2 .6 2.8 1.7.8 1.1 1.1 2.7 1.1 4.7 0 1.9-.4 3.4-1.1 4.6-.7 1.1-1.7 1.7-2.8 1.7-1.2 0-2.1-.6-2.9-1.7-.7-1.1-1.1-2.6-1.1-4.4 0-2.3.4-4 1.2-5 .9-1.1 1.8-1.6 2.8-1.6zm0 11.8c.9 0 1.7-.5 2.2-1.6s.8-2.4.8-4-.3-2.9-.8-3.9-1.3-1.6-2.2-1.6c-.9 0-1.6.5-2.2 1.5-.6 1-.9 2.3-.9 4 0 1.6.3 3 .8 4 .7 1.1 1.4 1.6 2.3 1.6zm10.5-11.8c1.1 0 2 .6 2.8 1.7.8 1.1 1.1 2.7 1.1 4.7 0 1.9-.4 3.4-1.1 4.6-.7 1.1-1.7 1.7-2.8 1.7-1.2 0-2.1-.6-2.9-1.7-.7-1.1-1.1-2.6-1.1-4.4 0-2.3.4-4 1.2-5 .8-1.1 1.7-1.6 2.8-1.6zm-.1 11.8c.9 0 1.7-.5 2.2-1.6s.8-2.4.8-4-.3-2.9-.8-3.9-1.3-1.6-2.2-1.6c-.9 0-1.6.5-2.2 1.5-.6 1-.9 2.3-.9 4 0 1.6.3 3 .8 4 .7 1.1 1.5 1.6 2.3 1.6zm13-12.8c-.2.6-.5 1.3-.9 1.9-.4.7-.9 1.4-1.4 2.1-.5.7-1.1 1.3-1.6 1.8-.6.5-1.1 1-1.5 1.2-.1-.2-.4-.4-.7-.7.3-.2.8-.5 1.3-1s1.1-1.1 1.7-1.8c.6-.7 1.1-1.4 1.5-2.1.4-.7.7-1.3.8-1.8l.9.2-.1.2zm3.9 8.5.8-.4c.6.8 1.4 1.7 2.2 2.8s1.5 2.3 2.2 3.4l-.9.4c-.2-.4-.5-1-1-1.8-1.5.2-4.9.5-10.3 1-.4 0-.8.1-1.1.1l-.3-.9c.5-.4 1.1-.9 1.7-1.5.6-.7 1.1-1.4 1.6-2.2.5-.8 1-1.6 1.4-2.3.4-.8.7-1.4.9-1.9l.9.5-.2.4c-.5 1-1.1 2-1.8 3.1s-1.3 1.9-1.7 2.5c-.5.6-.9 1-1.2 1.4.6 0 1.5-.1 2.5-.2s2.3-.2 3.7-.4c1.4-.1 2.5-.3 3.4-.4-1-1.3-1.9-2.5-2.8-3.6zm1-9.4c.2.6.5 1.3.8 1.9s.8 1.3 1.3 2 1 1.3 1.6 1.8c.6.5 1.2.9 1.7 1.2l-.6.8c-.4-.2-.8-.5-1.3-.9-.4-.3-.8-.7-1.2-1.2-.4-.4-.8-.9-1.1-1.4-.4-.5-.7-1-1-1.7-.3-.6-.6-1.2-.9-1.9h-3v-.8h3.7zm23.2 13.9h1.3v.9h-15.6v-.9h7.3v-2.6h-6.1v-.9h6.1v-2.3h-5.2v-7.8H740v7.8h-5.3v2.3h6.2v.9h-6.2v2.6h6.2zm-7-12.6h-4.3v2.6h4.3v-2.6zm-4.3 3.4v2.8h4.3v-2.8h-4.3zm9.5-.8v-2.6h-4.4v2.6h4.4zm-4.4 3.6h4.4v-2.8h-4.4v2.8z"/>
    <path class="st1" d="M.6 44.1h409.7v26.6H.6z"/>
    <path d="m22 100.1-.5.9c-.5-.4-1.1-.8-1.7-1.2-.6-.4-1.2-.7-1.7-1l.5-.8c.5.3 1.1.6 1.8 1 .6.3 1.2.7 1.6 1.1zm-3.2 8.6c.5-.6 1.1-1.5 1.8-2.7.7-1.2 1.3-2.1 1.6-2.8l.6.9c-.2.5-.6 1.1-1.1 1.8-.5.8-.9 1.4-1.3 2s-.7 1-.9 1.3c-.1.1-.2.4-.4.7l-.9-.8.6-.4zm4.3-13.2c-.2.3-.4.6-.5.9-.5-.4-1-.8-1.7-1.3-.6-.4-1.2-.8-1.7-1.1l.5-.8c1.5.9 2.6 1.6 3.4 2.3zm2.8 0c-.4.7-.8 1.4-1.3 2.1-.5.6-1 1.2-1.4 1.6-.1-.2-.4-.4-.7-.7.5-.4 1-1 1.6-1.8s1-1.5 1.3-2.2c.3-.7.6-1.3.7-1.9l1 .2-.2.2c-.2.5-.4 1.1-.6 1.6h8.5v.9h-8.9zm9.2 9.5c.4.3.7.5.9.6 0 1.5-.1 2.7-.4 3.5-.3.8-.7 1.2-1.3 1.2-.6 0-1.1-.2-1.4-.7-.4-.5-.6-1.2-.8-2.1-.2-1-.3-2.2-.3-3.8v-1.9h-8.4v-.9h9.5c-.1.6-.1 1.5-.1 2.9 0 1.8.1 3.1.4 4.1.3.9.6 1.4 1.1 1.4.2 0 .4-.3.6-1s.2-1.9.2-3.3zm-9.7-7.3h7.9v.9h-8v-.9zm18 2.7-.6.8c-.2-.1-.6-.4-1.2-.8s-1.3-.9-2.1-1.3l.5-.8c.5.3 1.1.6 1.7 1 .7.4 1.3.7 1.7 1.1zm-3.2 8.5c.4-.5.8-1.2 1.3-2s1-1.6 1.3-2.2c.4-.6.6-1.1.8-1.5l.6.9c-.3.7-.8 1.6-1.5 2.7s-1.3 2-1.7 2.7l-.4.7-.9-.8.5-.5zm4-13.3-.6.8c-.5-.4-1-.8-1.6-1.2s-1.2-.8-1.6-1l.5-.8c.5.3 1 .7 1.7 1.1.6.3 1.1.7 1.6 1.1zm11.9 2.1v12.7h-1v-1.1h-8.4v1.1h-1V96.9h4.6v-4.2h1v4.2h4.9l-.1.8zm-5.8.1h-3.6v4.6h3.6v-4.6zm-3.6 10.6h3.6v-5h-3.6v5zm8.4-10.6h-3.8v4.6h3.8v-4.6zm-3.9 10.6H55v-5h-3.8v5zm25.7-1.7h1.5v1h-8.2v2.9h-1v-2.9h-8v-1h8v-2h-5.5v-6.8h5.5v-2.2h-7.4v-.9h7.4v-2.1h1.1v2.1h7.6v.9h-7.6v2.2h5.6v6.8h-5.6v2h6.6zm-7.7-8h-4.5v2.1h4.5v-2.1zm-4.5 2.9v2.2h4.5v-2.2h-4.5zm10.1-.8v-2.1h-4.6v2.1h4.6zm-4.6 3h4.6v-2.2h-4.6v2.2zm81.1-44.4v5.4c0 .4-.2.7-.5.9-.4.2-1 .3-1.9.3l-.5-1h1c.3 0 .5 0 .7-.1.2-.1.3-.2.3-.4v-4.9c-.8.3-1.3.5-1.5.6l-.6.3-.2-.9.6-.2c.8-.3 1.4-.5 1.7-.6v-4h-2.2V54h2.2v-3.6c.2 0 .5 0 .9.1V54h1.9v.8h-1.9v3.6c1.1-.4 1.7-.7 1.9-.7v.9c-.4.2-1 .4-1.9.8zm5.1-8.5v-.5h.9v8.2c0 .9-.1 1.7-.3 2.5-.2.8-.5 1.5-.9 2.2-.4.6-.9 1.2-1.4 1.7s-1.1.9-1.8 1.2c-.1-.1-.3-.4-.7-.7.6-.3 1.1-.6 1.5-.9.4-.3.8-.7 1.1-1.1.3-.4.6-.7.8-1.1.2-.4.4-.8.5-1.1-.1 0-.2.1-.5.1-.2.1-.7.2-1.3.3-.6.2-.9.2-1 .2l-.6.2-.1-1 .6-.1c.5-.1 1.6-.3 3.1-.7.1-.6.1-1.2.1-1.7v-.8h-2.8V57h2.8v-2.8h-3.1v-.8h3.1v-2.5zm7 9.9h.6v.9h-3.6v4.7h-1v-16h1v2.8h3.5v.8h-3.5v2.8h3.3v.8h-3.3v3.1h3zm10.3 1.1v4.4h-.9v-.5c0-.8 0-2 .1-3.5-.3.3-.6.7-1.1 1.1s-1 .8-1.7 1.2c-.7.4-1.3.7-1.9 1-.1-.1-.3-.4-.6-.7.4-.1.9-.3 1.5-.6s1.2-.6 1.8-1.1c.6-.4 1.1-.9 1.5-1.3H168v-.8h4.9v-2.9c.4 0 .7 0 .9.1v2.8h4.3v.8h-4.4zm-2.3-9.4c-.4.7-.8 1.4-1.3 2-.5.6-1 1.1-1.4 1.4-.2-.2-.4-.4-.7-.6.2-.1.4-.3.6-.5.3-.2.6-.5.9-.9l.9-1.2c.3-.4.5-.8.6-1.2.2-.4.3-.8.4-1.1.5.1.8.2.9.2l-.1.1c-.2.5-.3.9-.4 1.1h10.5v.8h-10.9zm11.5 8.9c.4.3.6.5.8.5-.1 1.4-.3 2.5-.6 3.1-.3.6-.7.9-1.3.9-1.7 0-2.5-2.2-2.5-6.6v-2h-10.8v-.8h11.7c0 .6-.1 1.5-.1 2.9 0 1.8.1 3.1.4 4.1.3 1 .7 1.4 1.2 1.4.2 0 .3-.1.5-.3.1-.2.3-.6.4-1.1.2-.5.3-1.2.3-2.1zm-11.4-1.1-.6.5c-.2-.2-.4-.5-.7-.8s-.5-.6-.8-.8l.7-.4.8.8c.2.2.4.4.6.7zm-.2-6.1h9.8v.8h-9.8v-.8zm3 8.9.6-.6c.5.2 1.1.6 1.9 1 .8.4 1.4.8 1.9 1.2l-.5.7c-.4-.3-.9-.6-1.6-1-.8-.5-1.5-.9-2.3-1.3zm2.9-4c-.7.8-1 1.2-1.1 1.3l-.3.3c-.1.1-.2.2-.3.2l-.5-.5.8-.8c.4-.4.7-.8.9-1.1l.6.5-.1.1zm24 5.9h1.3v.8H187V65h7.3v-1.4H188v-.7h6.3v-1.2h-4.9v-4.1h10.7v4.1h-5v1.2h6.5v.7h-6.5V65h6.1zm-.1-8.4h-14.2v-.7h15.5v.7h-1.3zm-11.9-1.7v-4.1H200v4.1h-10.8zm9.9-3.5h-9v1.1h9v-1.1zm-9 2.9h9v-1.2h-9v1.2zm4.2 3.9h-4.1v1.2h4.1v-1.2zm-4.1 1.8v1.1h4.1V60h-4.1zm9-.6v-1.2h-4.1v1.2h4.1zm-4.1 1.7h4.1V60h-4.1v1.1zm-66.7 23v12.3h-.9V84.1h.9zm7.6 10.6V96c0 1.1-.4 1.9-1.2 2.5v-.6c.3-.4.4-.8.4-1.5h-.4v-1.7h1.2zm3.2-8.5v-1.1c.9-.7 1.9-1.1 2.9-1.1s1.9.3 2.5 1 1 1.5 1 2.5c0 2-1.5 4.6-4.5 8.1h5.7v.8H139c3.8-3.7 5.7-6.6 5.7-8.9 0-.8-.3-1.4-.8-1.9s-1.2-.8-2-.8c-.5 0-1 .1-1.4.3s-.8.6-1.3 1.1zm14-2.2c1.1 0 2 .6 2.8 1.7s1.1 2.7 1.1 4.7c0 1.9-.4 3.4-1.1 4.5-.7 1.1-1.7 1.7-2.8 1.7-1.2 0-2.1-.6-2.8-1.7-.7-1.1-1.1-2.6-1.1-4.4 0-2.3.4-3.9 1.2-5 .8-1 1.7-1.5 2.7-1.5zm0 11.7c.9 0 1.6-.5 2.2-1.5s.8-2.3.8-3.9c0-1.5-.3-2.8-.8-3.9-.5-1-1.3-1.5-2.2-1.5-.9 0-1.6.5-2.2 1.5-.6 1-.9 2.3-.9 3.9s.3 2.9.8 3.9c.7 1 1.4 1.5 2.3 1.5zM164 84.1v12.3h-.9V84.1h.9zm6.6 7.1v-1c1-.7 1.8-1.1 2.5-1.1.5 0 1.2.2 2.3.7s1.8.7 2.1.7c.4 0 .7-.1 1.1-.3s.8-.5 1.4-.9v1c-1 .7-1.8 1.1-2.5 1.1-.5 0-1.2-.2-2.3-.7s-1.8-.7-2.2-.7c-.4 0-.7.1-1.1.2s-.6.5-1.3 1zm17-7.1v12.3h-.9V84.1h.9zm7.6 10.6V96c0 1.1-.4 1.9-1.2 2.5v-.6c.3-.4.4-.8.4-1.5h-.4v-1.7h1.2zm5.2-4.7c-1.1-.7-1.6-1.6-1.6-2.8 0-.9.3-1.7 1-2.3s1.4-1 2.3-1c.9 0 1.7.3 2.3 1 .6.6 1 1.4 1 2.3 0 1.2-.5 2.1-1.6 2.8 1.2.7 1.8 1.7 1.8 3 0 1-.3 1.8-1 2.5s-1.5 1-2.5 1-1.8-.3-2.5-1-1-1.5-1-2.4c-.1-1.3.5-2.3 1.8-3.1zm4.2 3c0-.7-.3-1.3-.8-1.8s-1.1-.7-1.8-.7-1.3.3-1.8.8-.7 1.1-.7 1.8.3 1.3.8 1.8 1.1.8 1.9.8c.7 0 1.4-.3 1.8-.8s.6-1.1.6-1.9zm-4.9-5.8c0 .7.2 1.2.7 1.7.5.5 1 .7 1.7.7s1.2-.2 1.7-.7.7-1 .7-1.7-.2-1.2-.7-1.7-1-.7-1.7-.7c-.6 0-1.2.2-1.6.7-.6.5-.8 1.1-.8 1.7zm12.7-3.2c1.1 0 2 .6 2.8 1.7s1.1 2.7 1.1 4.7c0 1.9-.4 3.4-1.1 4.5-.7 1.1-1.7 1.7-2.8 1.7-1.2 0-2.1-.6-2.8-1.7-.7-1.1-1.1-2.6-1.1-4.4 0-2.3.4-3.9 1.2-5 .7-1 1.6-1.5 2.7-1.5zm-.1 11.7c.9 0 1.6-.5 2.2-1.5s.8-2.3.8-3.9c0-1.5-.3-2.8-.8-3.9-.5-1-1.3-1.5-2.2-1.5-.9 0-1.6.5-2.2 1.5-.6 1-.9 2.3-.9 3.9s.3 2.9.8 3.9c.7 1 1.5 1.5 2.3 1.5zM222.7 84c1.1 0 2 .6 2.8 1.7s1.1 2.7 1.1 4.7c0 1.9-.4 3.4-1.1 4.5-.7 1.1-1.7 1.7-2.8 1.7-1.2 0-2.1-.6-2.8-1.7-.7-1.1-1.1-2.6-1.1-4.4 0-2.3.4-3.9 1.2-5 .8-1 1.7-1.5 2.7-1.5zm0 11.7c.9 0 1.6-.5 2.2-1.5s.8-2.3.8-3.9c0-1.5-.3-2.8-.8-3.9-.5-1-1.3-1.5-2.2-1.5-.9 0-1.6.5-2.2 1.5-.6 1-.9 2.3-.9 3.9s.3 2.9.8 3.9c.7 1 1.4 1.5 2.3 1.5zm-94.3 18.5v12.3h-.9v-12.3h.9zm7.6 10.5v1.4c0 1.1-.4 1.9-1.2 2.5v-.6c.3-.4.4-.8.4-1.5h-.4v-1.7h1.2zm5.2-4.6c-1.1-.7-1.6-1.6-1.6-2.8 0-.9.3-1.7 1-2.3s1.4-1 2.3-1c.9 0 1.7.3 2.3 1 .6.6 1 1.4 1 2.3 0 1.2-.5 2.1-1.6 2.8 1.2.7 1.8 1.7 1.8 3 0 1-.3 1.8-1 2.5s-1.5 1-2.5 1-1.8-.3-2.5-1-1-1.5-1-2.4c0-1.3.6-2.4 1.8-3.1zm4.2 3c0-.7-.3-1.3-.8-1.8s-1.1-.7-1.8-.7-1.3.3-1.8.8-.7 1.1-.7 1.8.3 1.3.8 1.8 1.1.8 1.9.8c.7 0 1.4-.3 1.8-.8s.6-1.1.6-1.9zm-4.9-5.8c0 .7.2 1.2.7 1.7.5.5 1 .7 1.7.7s1.2-.2 1.7-.7.7-1 .7-1.7-.2-1.2-.7-1.7-1-.7-1.7-.7c-.6 0-1.2.2-1.6.7-.6.5-.8 1.1-.8 1.7zm12.7-3.2c1.1 0 2 .6 2.8 1.7s1.1 2.7 1.1 4.7c0 1.9-.4 3.4-1.1 4.5-.7 1.1-1.7 1.7-2.8 1.7-1.2 0-2.1-.6-2.8-1.7-.7-1.1-1.1-2.6-1.1-4.4 0-2.3.4-3.9 1.2-5 .8-1 1.7-1.5 2.7-1.5zm0 11.7c.9 0 1.6-.5 2.2-1.5s.8-2.3.8-3.9c0-1.5-.3-2.8-.8-3.9-.5-1-1.3-1.5-2.2-1.5-.9 0-1.6.5-2.2 1.5-.6 1-.9 2.3-.9 3.9s.3 2.9.8 3.9c.7 1 1.4 1.5 2.3 1.5zm10.8-11.6v12.3h-.9v-12.3h.9zm6.6 7.1v-1c1-.7 1.8-1.1 2.5-1.1.5 0 1.2.2 2.3.7s1.8.7 2.1.7c.4 0 .7-.1 1.1-.3s.8-.5 1.4-.9v1c-1 .7-1.8 1.1-2.5 1.1-.5 0-1.2-.2-2.3-.7s-1.8-.7-2.2-.7c-.4 0-.7.1-1.1.2s-.6.5-1.3 1zm12.8-5v-1.1c.9-.7 1.9-1.1 2.9-1.1s1.9.3 2.5 1 1 1.5 1 2.5c0 2-1.5 4.6-4.5 8.1h5.7v.8h-7.8c3.8-3.7 5.7-6.6 5.7-8.9 0-.8-.3-1.4-.8-1.9s-1.2-.8-2-.8c-.5 0-1 .1-1.4.3s-.7.6-1.3 1.1zm11.8 8.4v1.4c0 1.1-.4 1.9-1.2 2.5v-.6c.3-.4.4-.8.4-1.5h-.4v-1.7h1.2zm9.1-10.6v7h1.7v.7h-1.7v4.7h-.9v-4.7h-5.6v-.3l6.2-7.4h.3zm-.9 6.9v-5.2L199 121h4.4zm9-6.9c1.1 0 2 .6 2.8 1.7s1.1 2.7 1.1 4.7c0 1.9-.4 3.4-1.1 4.5-.7 1.1-1.7 1.7-2.8 1.7-1.2 0-2.1-.6-2.8-1.7-.7-1.1-1.1-2.6-1.1-4.4 0-2.3.4-3.9 1.2-5 .7-1 1.6-1.5 2.7-1.5zm-.1 11.7c.9 0 1.6-.5 2.2-1.5s.8-2.3.8-3.9c0-1.5-.3-2.8-.8-3.9-.5-1-1.3-1.5-2.2-1.5-.9 0-1.6.5-2.2 1.5-.6 1-.9 2.3-.9 3.9s.3 2.9.8 3.9c.7 1 1.5 1.5 2.3 1.5zm10.4-11.7c1.1 0 2 .6 2.8 1.7s1.1 2.7 1.1 4.7c0 1.9-.4 3.4-1.1 4.5-.7 1.1-1.7 1.7-2.8 1.7-1.2 0-2.1-.6-2.8-1.7-.7-1.1-1.1-2.6-1.1-4.4 0-2.3.4-3.9 1.2-5 .8-1 1.7-1.5 2.7-1.5zm0 11.7c.9 0 1.6-.5 2.2-1.5s.8-2.3.8-3.9c0-1.5-.3-2.8-.8-3.9-.5-1-1.3-1.5-2.2-1.5-.9 0-1.6.5-2.2 1.5-.6 1-.9 2.3-.9 3.9s.3 2.9.8 3.9c.7 1 1.4 1.5 2.3 1.5z"/>
    <path class="st2" d="M.4 44.2h409.3v92.7H.4zm98.3-.1v92.3m158-92.3v92.3M0 70.3h410M99.1 104.8H410"/>
    <path d="m272.3 62.5-.6.6c-.2-.4-.4-.8-.8-1.3-.3-.5-.6-.9-.9-1.3-.2.9-.4 1.7-.6 2.5-.3.8-.6 1.4-.9 1.9-.3.5-.6.9-.8 1.1l-.2-.2-.5-.5c.8-.8 1.4-2 1.9-3.6s.7-3.4.7-5.4v-5.8h.9v5.1c.3-.4.6-.8.9-1.3.3-.5.5-.9.7-1.3l.6.6c-.1 0-.1.1-.1.1-.3.5-.6 1-1 1.5s-.8 1-1.1 1.4c0 1.1-.1 2-.2 2.8.2.3.5.6.8 1 .3.4.6.8.8 1.1.1.5.2.8.4 1zm-4.4-4.3c-.1-.1-.3-.2-.7-.4.2-.4.3-.9.4-1.6.1-.7.2-1.5.1-2.4l.8.1-.1.1c0 .9-.1 1.8-.2 2.5 0 .8-.2 1.3-.3 1.7zm3.8 7.7c.3-.3.5-.8.8-1.3.3-.5.5-1 .6-1.4.1-.4.2-.7.3-1l.7.3s0 .1-.1.3-.1.4-.3.9c-.2.5-.4.9-.6 1.5-.3.5-.5.9-.7 1.2l-.7-.5zm6.6-13.2-.1.1c-.5 2-1.2 3.7-2.1 5.2-.9 1.5-2 2.6-3.3 3.4-.1-.1-.3-.3-.6-.7.5-.3 1-.7 1.5-1.1.5-.4.9-.9 1.3-1.4-.4-.3-1-.6-1.8-1.1l.4-.6c.8.3 1.4.7 1.9 1 .1-.2.3-.4.5-.8.2-.3.3-.6.5-.8-.1-.1-.3-.2-.6-.4s-.7-.4-1.2-.6l.3-.6c.3.1.5.2.8.4.3.1.6.3.9.5.3-.8.6-1.5.8-2.3H275c-.2.5-.5 1.1-.8 1.6-.3.5-.6.9-.9 1.3-.3.4-.5.6-.7.8l-.2-.2c-.1-.1-.2-.3-.3-.3.4-.4.9-.9 1.2-1.5.4-.6.7-1.2 1-1.9.3-.7.6-1.4.8-2.2l.8.2-.1.1c0 .2-.1.5-.2.8s-.2.6-.3.8h2.3l.1-.1c.2.1.5.3.6.4zm-2.7 9.8.8-.1c.2 1.1.4 2.3.5 3.6l-.8.2c0-.3 0-.7-.1-1.2 0-.5-.1-1-.2-1.5-.1-.4-.2-.8-.2-1zm7.7-.9c-.3-.3-.7-.6-1.1-1.1-.4-.5-.8-1-1.1-1.7-.4-.7-.6-1.4-.8-2.1-.3 1-.7 2-1.3 2.8-.6.8-1.3 1.5-2.2 2-.2-.2-.3-.5-.5-.7 2-1.1 3.2-3 3.5-5.5h-1.7v-.8h1.8v-4h.9v3.9h2.7v.8h-2.6c.2 1.2.5 2.2 1.1 3.2s1.2 1.8 2.1 2.4c-.5.4-.7.6-.8.8zm-5.1.9.7-.2c.2.4.4.9.6 1.6.2.7.4 1.3.5 1.9l-.8.3c-.1-.5-.2-1.1-.4-1.8s-.4-1.3-.6-1.8zm2.8 0 .7-.2c.3.4.5.8.8 1.4.3.6.5 1 .6 1.4.1.4.2.6.3.7l-.8.4c-.2-.6-.4-1.2-.8-1.9-.2-.8-.5-1.4-.8-1.8zm2.2-9-.6.5c-.5-.9-.9-1.7-1.4-2.4l.6-.4c.2.3.5.6.7 1 .2.5.5.9.7 1.3zM291 57v9.4h-1v-.7l.1-7.8c-.3.9-.6 1.7-1 2.6-.4.9-.8 1.5-1.1 2.1-.4.5-.7.9-.9 1.2-.1-.2-.2-.3-.3-.5-.1-.2-.2-.3-.2-.3.6-.6 1.2-1.4 1.8-2.5.6-1.1 1.1-2.3 1.4-3.4h-3v-.8h3.3v-5.8h.9v5.7h2.8v.8H291zm-1.8-2.1-.7.2c-.1-.4-.2-.9-.4-1.5s-.4-1.2-.7-1.8l.8-.2c.2.5.4 1.1.6 1.7.1.6.2 1.1.4 1.6zm2.6 3c.9 1 1.5 1.8 2 2.6l-.6.5c-.1-.2-.4-.6-.7-1.1-.4-.5-.8-1.1-1.3-1.6l.6-.4zm1.9-6.1c-.1.5-.3 1.1-.6 1.8s-.5 1.3-.8 1.8l-.7-.3c.3-.5.5-1.1.8-1.9.3-.8.5-1.4.5-1.8l.8.3v.1zm8.2 9.6-.9.1v4.9h-1v-4.7l-5.4.7-1 .1-.1-.9c.3 0 .6 0 1-.1l5.4-.7V50.4c.2 0 .5 0 .9.1v10.2l.8-.1 1-.1.1.9c-.1 0-.3 0-.5.1-.1-.1-.2-.1-.3-.1zm-3.3-3.2-.5.7c-.4-.3-.9-.7-1.5-1-.6-.4-1.1-.7-1.5-.9l.5-.7c.5.3 1 .6 1.6.9.5.4 1 .7 1.4 1zm.3-4.2-.5.7c-.4-.3-.9-.7-1.5-1.1-.5-.4-1-.6-1.4-.8l.4-.7c.9.5 1.8 1.1 3 1.9zm11 2.5v9.8h-.9v-3.5c0-1.5 0-3.3.1-5.4-.3 1.2-.8 2.3-1.2 3.3s-1 1.9-1.4 2.4c-.1-.3-.3-.5-.5-.8.5-.6 1-1.5 1.6-2.6.5-1.1.9-2.2 1.2-3.3h-2.6v-.8h2.8v-3.1c-.3.1-.7.2-1.1.3-.4.1-.9.2-1.2.3 0-.1-.2-.4-.3-.7.8-.1 1.6-.4 2.5-.7s1.7-.7 2.3-1l.6.7c-.1 0-.2 0-.3.1-.3.1-.8.4-1.6.7v3.5h2v.8h-2zm2.5 4.1-.6.5c-.2-.5-.4-.9-.7-1.4-.3-.5-.5-.9-.7-1.1-.2-.2-.3-.4-.3-.5l.6-.4c.3.4.6.8.9 1.4.3.5.6 1 .8 1.5zm9 2.1c.4.3.6.4.8.5 0 .7-.1 1.3-.2 1.7s-.2.6-.4.8c-.2.2-.4.3-.7.4-.3.1-.7.1-1.2.1h-.6c-.2 0-.4-.1-.5-.1-.1-.1-.2-.1-.3-.1-.3-.2-.4-.6-.4-1.2V60h-2c0 .8-.1 1.6-.3 2.3-.2.7-.4 1.3-.7 1.8-.3.5-.7 1-1.2 1.4s-1.1.7-1.8.9c-.1-.2-.3-.4-.6-.7.8-.3 1.5-.6 2-1.1.5-.5.9-1 1.2-1.8.3-.7.5-1.6.5-2.8h-1.5v-5h6.7v5h-1.5v4.9c0 .3.1.4.3.5.1 0 .4.1.7.1.2 0 .4 0 .6-.1.2-.1.4-.2.5-.3.1-.2.2-.4.3-.7.1-.3.1-.6.1-1s.2-.5.2-.7zm-9.1-7.4c-.2-.2-.4-.5-.5-.6.3-.2.6-.5 1-.8.4-.4.8-.9 1.2-1.4.4-.6.8-1.2 1-1.8l.8.3-.1.1c-.1.2-.2.4-.4.7-.2.3-.4.6-.6 1-.3.4-.5.7-.7 1-.2.3-.5.6-.8.8-.3.3-.6.5-.9.7zm2.2.4v3.5h4.9v-3.5h-4.9zm7.3-1-.6.7c-.2-.3-.5-.7-.9-1.2s-.8-1-1.3-1.6c-.5-.6-.9-1.1-1.3-1.5l.7-.4c.5.6 1.1 1.2 1.7 2 .7.6 1.3 1.3 1.7 2zm14.6 3.4c0 .6-.1 1.3-.3 1.9s-.4 1.3-.6 1.8c-.2.5-.5.9-.7 1.3l2.3 2.4h-1.2l-1.7-1.7c-.6.6-1.2 1.1-1.9 1.5-.7.3-1.5.5-2.4.5-.5 0-.9 0-1.3-.1s-.8-.3-1.2-.5c-.4-.2-.7-.5-1-.9-.3-.4-.5-.8-.5-1.2-.1-.4-.1-.7-.1-1 0-.9.3-1.7.8-2.3.5-.6 1.4-1.2 2.6-1.6-.8-.9-1.3-1.5-1.5-2-.2-.5-.3-.9-.3-1.4 0-.5.1-1 .4-1.4s.6-.8 1-1c.4-.2.8-.4 1.1-.4.3-.1.6-.1.9-.1.4 0 .7 0 1 .1.3.1.6.2.8.3.3.1.5.3.7.6s.4.5.5.9c.1.3.1.6.1.9 0 .8-.3 1.5-.8 2.1s-1.4 1.1-2.6 1.7l3.9 4.2c.4-.6.7-1.3.9-2.1.2-.8.4-1.6.4-2.3h.7zm-6.9.5c-1 .4-1.7.8-2.2 1.4-.5.5-.7 1.2-.7 2 0 .4.1.9.3 1.2s.4.7.7.9c.3.3.7.5 1.1.6.4.1.9.2 1.4.2.6 0 1-.1 1.5-.2.4-.1.8-.3 1.2-.6.4-.3.7-.6 1-.9l-4.3-4.6zm.4-.8c.7-.3 1.2-.5 1.6-.8.4-.3.7-.6.9-.9.2-.3.3-.6.4-.8 0-.3.1-.5.1-.6 0-.3-.1-.6-.2-.9s-.4-.6-.7-.8c-.4-.2-.8-.4-1.4-.4-.7 0-1.3.2-1.8.6s-.7.9-.7 1.6c0 .4.1.8.2 1.1.1.3.4.7.6 1s.6.5 1 .9zm12.3-1.8v2.8h3.1v7.5h-.9v-6.7h-2.2c-.1.9-.2 1.7-.3 2.5-.1.8-.3 1.5-.5 2.2-.2.7-.5 1.2-.8 1.7l-.7-.7c.5-.7.9-1.7 1.1-2.9.3-1.2.4-2.7.4-4.4v-6.9h.9v4.2h1.9v-4.8h.9v4.6h1.6v.9h-4.5zm13 5.6h1v.8h-3v3.9h-.9v-3.9h-6.2v-.8h6.2v-2.8c.4 0 .7 0 .9.1v2.7h2zm-8.4-1.2c.4-.1.8-.3 1.1-.4.3-.1.6-.3.9-.5.3-.2.5-.4.7-.7.2-.3.4-.5.6-.8h-2.9v-5.8h2.9c.1-.1.2-.3.4-.7s.3-.8.5-1.2l1 .1-.1.2c-.2.5-.4 1-.7 1.5h4.2v5.8H351c-.2.4-.4.8-.6 1.1-.3.4-.6.7-1.1 1s-1.1.7-1.9 1c-.1 0-.3-.2-.6-.6zm4.2-7.6h-2.9v1.9h2.8c.1-.5.1-1.1.1-1.9zm-2.9 4.5h2.3c.2-.5.3-1.2.5-2h-2.8v2zm3.2 0h3.2v-2h-2.8c-.1.8-.3 1.5-.4 2zm3.1-2.6v-1.9h-2.6c0 .6 0 1.2-.1 1.9h2.7zm5.4 11.1c.5-.5.9-1 1.4-1.7.4-.7.7-1.3.9-1.7l.8.3c-.2.5-.5 1.1-.8 1.7-.3.6-.6 1-.9 1.3-.2.3-.4.5-.5.6l-.9-.5zm5.1-14.5v9.9h-4.5v-9.9h4.5zm-.8.7h-2.8v3.7h2.8V52zm-2.8 8.4h2.8v-3.9h-2.8v3.9zm3.7 2.4.8-.2c.1.4.2.9.3 1.5.1.6.2 1.2.2 1.9l-.9.2c0-.5-.1-1-.2-1.7s-.1-1.2-.2-1.7zm5.6-10.7c0 .7-.2 1.3-.6 1.9-.3.6-.8 1-1.4 1.5-.6.4-1.3.8-2.2 1.2l-.5-.7c.6-.2 1.2-.4 1.6-.7.5-.3.9-.6 1.2-.9.3-.3.6-.7.7-1 .2-.4.3-.7.3-1.1h-3.1v-.8h7.9v.3c0 1.3-.1 2.2-.1 2.6-.1.4-.1.7-.2.9-.1.2-.2.4-.4.6-.2.2-.5.3-.8.4-.4.1-.9.1-1.5.1-.2-.4-.3-.7-.4-1 .3.1.6.1.9.1.7 0 1.2-.2 1.4-.6.1-.1.1-.4.2-.7 0-.3.1-1 .1-2h-3.1zm-3.5 9.5v-4.4h6.8v4.4h-6.8zm.9-.8h5.1V58H368v2.8zm.4 2 .8-.2c.2.3.3.6.5 1l.6 1.2c.2.4.3.7.4 1l-.9.3c-.1-.4-.2-.8-.4-1.2-.2-.5-.4-.9-.5-1.2-.3-.4-.4-.7-.5-.9zm4.5-.3c.3.4.7.8 1.1 1.4s.8 1.2 1.1 1.8l-.8.4c-.2-.5-.6-1.1-1-1.8-.4-.6-.8-1.2-1.1-1.6l.7-.2zm9.6-6v9.8h-.9v-3.5c0-1.5 0-3.3.1-5.4-.3 1.2-.8 2.3-1.2 3.3s-1 1.9-1.4 2.4c-.1-.3-.3-.5-.5-.8.5-.6 1-1.5 1.6-2.6.5-1.1.9-2.2 1.2-3.3h-2.6v-.8h2.8v-3.1c-.3.1-.7.2-1.1.3-.4.1-.9.2-1.2.3 0-.1-.2-.4-.3-.7.8-.1 1.6-.4 2.5-.7s1.7-.7 2.3-1l.6.7c-.1 0-.2 0-.3.1-.3.1-.8.4-1.6.7v3.5h2v.8h-2zm2.5 4.1-.6.5c-.2-.5-.4-.9-.7-1.4-.3-.5-.5-.9-.7-1.1-.2-.2-.3-.4-.3-.5l.6-.4c.3.4.6.8.9 1.4.3.5.6 1 .8 1.5zm9 2.1c.4.3.6.4.8.5 0 .7-.1 1.3-.2 1.7s-.2.6-.4.8c-.2.2-.4.3-.7.4-.3.1-.7.1-1.2.1h-.6c-.2 0-.4-.1-.5-.1-.1-.1-.2-.1-.3-.1-.3-.2-.4-.6-.4-1.2V60h-2c0 .8-.1 1.6-.3 2.3-.2.7-.4 1.3-.7 1.8-.3.5-.7 1-1.2 1.4s-1.1.7-1.8.9c-.1-.2-.3-.4-.6-.7.8-.3 1.5-.6 2-1.1.5-.5.9-1 1.2-1.8.3-.7.5-1.6.5-2.8h-1.5v-5h6.7v5h-1.5v4.9c0 .3.1.4.3.5.1 0 .4.1.7.1.2 0 .4 0 .6-.1.2-.1.4-.2.5-.3.1-.2.2-.4.3-.7.1-.3.1-.6.1-1s.2-.5.2-.7zm-9-7.4c-.2-.2-.4-.5-.5-.6.3-.2.6-.5 1-.8.4-.4.8-.9 1.2-1.4.4-.6.8-1.2 1-1.8l.8.3-.1.1c-.1.2-.2.4-.4.7-.2.3-.4.6-.6 1-.3.4-.5.7-.7 1-.2.3-.5.6-.8.8-.4.3-.7.5-.9.7zm2.1.4v3.5h4.9v-3.5h-4.9zm7.4-1-.6.7c-.2-.3-.5-.7-.9-1.2s-.8-1-1.3-1.6c-.5-.6-.9-1.1-1.3-1.5l.7-.4c.5.6 1.1 1.2 1.7 2 .6.6 1.2 1.3 1.7 2zm-85.9 29.4v12.3h-.9V84.1h.9zm10.3 0v12.3h-.9V84.1h.9zm7.6 10.6V96c0 1.1-.4 1.9-1.2 2.5v-.6c.3-.4.4-.8.4-1.5h-.4v-1.7h1.2zm5 1.9-.5-.7c2.7-2 4.2-4 4.6-6.1-1 .6-1.9.9-2.7.9-1 0-1.8-.3-2.4-1-.7-.6-1-1.4-1-2.4s.3-1.8 1-2.5c.6-.6 1.5-1 2.5-1 1.2 0 2.1.4 2.8 1.2.7.8 1 1.8 1 3.1-.1 3.2-1.9 6-5.3 8.5zm4.2-7.9v-.5c0-1.1-.2-1.9-.7-2.5-.5-.6-1.2-.9-2.1-.9-.7 0-1.3.2-1.8.7-.5.5-.8 1.1-.8 1.8s.2 1.3.7 1.8c.5.5 1.1.7 1.8.7 1.1.1 2.1-.3 2.9-1.1zm4.3-2.5v-1.1c.9-.7 1.9-1.1 2.9-1.1s1.9.3 2.5 1 1 1.5 1 2.5c0 2-1.5 4.6-4.5 8.1h5.7v.8h-7.8c3.8-3.7 5.7-6.6 5.7-8.9 0-.8-.3-1.4-.8-1.9s-1.2-.8-2-.8c-.5 0-1 .1-1.4.3s-.7.6-1.3 1.1zm14.1-2.2c1.1 0 2 .6 2.8 1.7s1.1 2.7 1.1 4.7c0 1.9-.4 3.4-1.1 4.5-.7 1.1-1.7 1.7-2.8 1.7-1.2 0-2.1-.6-2.8-1.7-.7-1.1-1.1-2.6-1.1-4.4 0-2.3.4-3.9 1.2-5 .7-1 1.6-1.5 2.7-1.5zm-.1 11.7c.9 0 1.6-.5 2.2-1.5s.8-2.3.8-3.9c0-1.5-.3-2.8-.8-3.9-.5-1-1.3-1.5-2.2-1.5-.9 0-1.6.5-2.2 1.5-.6 1-.9 2.3-.9 3.9s.3 2.9.8 3.9c.7 1 1.5 1.5 2.3 1.5zm-45.4 18.5v12.3h-.9v-12.3h.9zm13.9 0-5.6 12.4-.8-.3 5.1-11.2h-6.7v-.9h8zm4 10.5v1.4c0 1.1-.4 1.9-1.2 2.5v-.6c.3-.4.4-.8.4-1.5h-.4v-1.7h1.2zm9.1-10.6v7h1.7v.7h-1.7v4.7h-.9v-4.7h-5.6v-.3l6.2-7.4h.3zm-.9 6.9v-5.2l-4.3 5.2h4.3zm9.5-6.8v12.3h-.9v-12.3h.9zm9.9-.1c1.1 0 2 .6 2.8 1.7s1.1 2.7 1.1 4.7c0 1.9-.4 3.4-1.1 4.5-.7 1.1-1.7 1.7-2.8 1.7-1.2 0-2.1-.6-2.8-1.7-.7-1.1-1.1-2.6-1.1-4.4 0-2.3.4-3.9 1.2-5 .7-1 1.6-1.5 2.7-1.5zm-.1 11.7c.9 0 1.6-.5 2.2-1.5s.8-2.3.8-3.9c0-1.5-.3-2.8-.8-3.9-.5-1-1.3-1.5-2.2-1.5-.9 0-1.6.5-2.2 1.5-.6 1-.9 2.3-.9 3.9s.3 2.9.8 3.9c.7 1 1.5 1.5 2.3 1.5z"/>
    <path class="st0" d="M128.2 16.6c.4.3.8.6 1.2.8 0 .9-.1 1.6-.3 2.2-.1.6-.4 1.1-.7 1.4s-.8.6-1.4.8c-.6.2-1.4.2-2.4.2h-2.2c-.7 0-1.2-.1-1.6-.3-.3-.2-.5-.4-.6-.6-.1-.3-.2-.6-.2-1v-6.4h-1.9c-.3.9-.7 1.9-1.3 2.8-.5.9-1.2 1.8-2 2.6s-1.7 1.5-2.8 2.1c-1.1.6-2.4 1.1-3.8 1.4-.3-.5-.6-.8-.9-1.2 1.1-.2 2.2-.5 3.1-1 1-.4 1.9-.9 2.7-1.5.8-.6 1.5-1.4 2.1-2.2.6-.9 1.1-1.9 1.6-3h-6.5c0-.3.1-.5.1-.7V7c-.9.6-1.7 1.1-2.5 1.5 0-.1-.1-.1-.2-.2s-.2-.2-.3-.4-.2-.3-.3-.3c1.6-.7 3.2-1.7 4.8-3.2 1.7-1.4 2.9-2.8 3.7-4.3l1.3.3-.1.2c-.1.2-.3.5-.6.9s-.5.7-.6.9h6l.2-.2c.5.3.9.6 1.2.9l-.3.1c-.4.6-.9 1.2-1.4 1.9s-1.1 1.3-1.6 1.7h7.3v6.9h-5.7v6.2c0 .2 0 .4.1.6.1.2.3.3.5.4.3.1 1.2.1 2.6.1.7 0 1.3 0 1.7-.1.4-.1.8-.3 1.1-.5.3-.2.5-.6.6-1.2s.2-1.6.3-2.6zm-17.3-9.9h7.1c.2-.2.6-.5 1-.9l1.3-1.3c.5-.5.7-.9 1-1.2h-6.5c-1.2 1.3-2.5 2.4-3.9 3.4zm.8 5.8h5.5c.1-.5.3-1 .4-1.6s.2-1.1.3-1.7c.1-.5.1-1 .1-1.4h-6.3v4.7zm7.5-4.7c0 .4-.1.9-.1 1.4-.1.5-.1 1.1-.3 1.6-.1.6-.2 1.1-.4 1.6h7.2V7.8h-6.4zm18.6.3v3.8h4.3v10.4h-1.2V13h-3.1c-.1 1.2-.2 2.4-.4 3.5s-.4 2.1-.8 3-.7 1.7-1.1 2.3c-.2-.3-.6-.6-1-.9.7-1 1.2-2.4 1.6-4.1.4-1.7.6-3.7.6-6.1V1.2c.5 0 .9 0 1.2.1V7h2.7V.5h1.2v6.4h2.2V8h-6.2zm18.1 7.8h1.4v1.2c-.3 0-.8-.1-1.4-.1h-2.8v5.4h-1.2V17h-7.2c-.6 0-1.1 0-1.4.1v-1.2h8.6V12c.6 0 1 0 1.2.1v3.8h2.8zm-11.7-1.6c.6-.2 1.1-.4 1.5-.6.5-.2.9-.4 1.2-.7.4-.3.7-.6 1-.9.3-.4.6-.7.8-1.2h-4V2.8h4c.1-.2.2-.5.5-1s.5-1.1.6-1.6l1.3.2-.2.3c-.3.7-.6 1.4-1 2.2h5.8V11h-6c-.2.5-.5 1-.9 1.5s-.9 1-1.5 1.4-1.5.9-2.6 1.3c.2-.1-.1-.5-.5-.9zM150 3.8h-4v2.6h3.9c0-.8.1-1.6.1-2.6zm-4 6.2h3.2c.3-.7.5-1.6.6-2.7H146V10zm4.4 0h4.4V7.2h-3.9c-.1 1.1-.3 2-.5 2.8zm4.4-3.7V3.8h-3.7c0 .9 0 1.7-.1 2.6h3.8zm8 15.5c.6-.6 1.3-1.4 1.9-2.4.6-.9 1-1.8 1.2-2.4l1.2.5c-.3.7-.7 1.5-1.2 2.3-.5.8-.9 1.4-1.2 1.9-.3.4-.6.7-.7.9l-1.2-.8zM170 1.6v13.7h-6.2V1.6h6.2zm-1.2 1H165v5.1h3.8V2.6zm-3.9 11.6h3.8V8.8h-3.8v5.4zm5.1 3.4 1.2-.2c.1.5.3 1.2.4 2.1s.2 1.7.3 2.6l-1.3.3c0-.6-.1-1.4-.2-2.3-.1-1.1-.2-1.9-.4-2.5zm7.9-14.8c0 1-.3 1.8-.8 2.6s-1.1 1.5-1.9 2.1c-.8.6-1.8 1.1-3.1 1.6l-.8-1c.9-.3 1.6-.6 2.3-1 .7-.4 1.2-.8 1.6-1.2s.8-.9 1-1.4.4-1 .4-1.6h-4.4V1.7h11.1v.4c0 1.8-.1 3-.2 3.6-.1.6-.2 1-.3 1.3-.1.3-.3.6-.6.8-.3.2-.6.4-1.1.5s-1.2.2-2 .2c-.2-.6-.4-1-.6-1.4.4.1.8.2 1.3.2 1 0 1.7-.3 2-.9.1-.2.2-.5.2-.9s.1-1.4.2-2.8h-4.3zM173 15.9c0-.3.1-.5.1-.7v-4.7c0-.2 0-.4-.1-.7h9.5v6.1H173zm1.2-1h7.1V11h-7.1v3.9zm.6 2.7 1.1-.3c.2.3.5.8.8 1.4s.5 1.1.8 1.7c.2.6.4 1 .5 1.3l-1.3.4c-.1-.5-.3-1.1-.6-1.7s-.5-1.2-.7-1.7-.5-.8-.6-1.1zm6.3-.5c.4.5 1 1.2 1.5 2 .6.8 1.1 1.6 1.5 2.5l-1.2.6c-.3-.7-.8-1.5-1.3-2.4-.6-.9-1.1-1.6-1.6-2.2l1.1-.5zM195 8.8v12.7l.1 1h-1.3l.1-1v-3.9c0-2 .1-4.5.1-7.4-.5 1.6-1 3.1-1.7 4.6-.7 1.5-1.4 2.6-2 3.4-.2-.4-.4-.7-.7-1.1.7-.9 1.4-2 2.2-3.6.7-1.5 1.3-3.1 1.7-4.6H190V7.7h3.8V3.4c-.4.1-.9.3-1.5.5s-1.2.3-1.7.4c0-.2-.2-.5-.5-1 1.1-.2 2.2-.5 3.5-1s2.3-.9 3.2-1.4l.8.9c-.1 0-.2.1-.4.1-.4.2-1.1.5-2.2 1v4.8h2.9v1.1H195zm3.5 5.7-.9.6c-.3-.6-.6-1.3-1-2s-.7-1.2-.9-1.5c-.2-.3-.4-.5-.5-.6l.8-.5c.4.5.8 1.2 1.3 1.9s.9 1.4 1.2 2.1zm12.5 3c.5.4.9.6 1.1.7 0 1-.1 1.8-.3 2.3-.2.5-.3.9-.6 1.1-.2.2-.6.4-.9.5-.4.1-.9.2-1.6.2h-.8c-.3 0-.6-.1-.7-.2-.2-.1-.3-.1-.3-.2-.4-.3-.6-.8-.6-1.6v-6.7h-2.8c0 1.2-.2 2.2-.4 3.1-.2.9-.5 1.8-1 2.5-.4.7-1 1.4-1.7 1.9s-1.5 1-2.5 1.3c-.2-.3-.4-.6-.8-1 1.2-.4 2.1-.9 2.8-1.5.7-.6 1.3-1.5 1.7-2.4s.6-2.3.7-3.8h-2.2c0-.3.1-.5.1-.7V7.4c0-.2 0-.4-.1-.7h9.3v7h-2.1v6.8c0 .4.1.6.4.7.2.1.5.1 1 .1.3 0 .6-.1.9-.2s.5-.2.7-.4c.2-.2.3-.6.4-1 .1-.4.1-.9.2-1.3s.1-.7.1-.9zM198.4 7.2c-.2-.3-.5-.6-.8-.9.4-.2.8-.6 1.4-1.2.5-.5 1.1-1.2 1.7-2 .6-.8 1.1-1.7 1.5-2.5l1 .5-.1.2-.5 1c-.2.4-.5.9-.9 1.4-.3.5-.7.9-1 1.3s-.7.8-1.1 1.2-.8.7-1.2 1zm3 .6v4.9h6.8V7.8h-6.8zm10.2-1.5-.8.9c-.3-.5-.7-1-1.3-1.7-.5-.7-1.1-1.5-1.8-2.3-.7-.8-1.3-1.5-1.8-2.1l1-.5c.7.8 1.5 1.7 2.4 2.7.9 1.1 1.7 2.1 2.3 3zm20.9 10.9-.9.9c-.3-.5-.6-1.2-1.1-1.9-.4-.7-.8-1.3-1.2-1.8-.2 1.2-.5 2.4-.9 3.4-.4 1.1-.8 2-1.2 2.6-.4.7-.8 1.2-1.2 1.5l-.3-.3c-.2-.2-.4-.4-.7-.6 1.1-1.1 1.9-2.8 2.6-4.9.6-2.2 1-4.7 1-7.5v-8h1.3v7.1c.4-.5.8-1.1 1.2-1.8.4-.7.7-1.3.9-1.8l.9.9c-.1 0-.2.1-.2.2-.4.6-.8 1.3-1.4 2.1-.5.8-1 1.4-1.5 1.9 0 1.5-.1 2.8-.3 3.8.3.4.7.9 1.1 1.4.4.6.8 1.1 1.1 1.6.4.5.6.9.8 1.2zm-6.1-6c-.1-.1-.5-.2-1-.5.2-.5.4-1.2.6-2.2.1-1 .2-2.1.2-3.4l1.1.1-.1.2c0 1.3-.1 2.5-.3 3.5-.1 1-.3 1.8-.5 2.3zm5.3 10.7c.4-.5.7-1.1 1.1-1.8.4-.7.7-1.4.8-2 .2-.6.3-1 .4-1.3l1 .4c0 .1-.1.2-.1.4s-.2.6-.4 1.2-.5 1.3-.9 2c-.3.7-.7 1.3-.9 1.7l-1-.6zm9.2-18.3-.2.1c-.7 2.7-1.7 5.1-3 7.2-1.3 2.1-2.8 3.6-4.6 4.8-.1-.1-.4-.5-.8-.9.7-.5 1.4-1 2-1.5.7-.6 1.2-1.2 1.8-1.9-.5-.4-1.4-.9-2.5-1.5l.5-.8c1.1.5 1.9.9 2.6 1.4.2-.2.4-.6.7-1.1.3-.5.5-.8.6-1.1-.1-.1-.4-.3-.8-.5s-.9-.5-1.6-.8l.4-.8c.4.1.7.3 1.2.5.4.2.8.4 1.2.7.4-1 .8-2.1 1.1-3.2h-3.3c-.3.8-.7 1.5-1.1 2.2-.3.6-.7 1.1-1.1 1.6-.4.5-.7.9-1 1.2l-.1-.1-.3-.3c-.2-.2-.3-.4-.4-.5.6-.6 1.2-1.3 1.7-2.1s1-1.7 1.5-2.6.8-2 1.1-3.1l1.2.2-.1.2c-.1.3-.2.6-.3 1.1s-.3.8-.4 1.1h3.2l.2-.2c.1.3.4.5.6.7zm-3.8 13.6 1.1-.2c.3 1.5.5 3.2.6 5l-1.2.3c0-.4 0-1-.1-1.7s-.1-1.4-.2-2-.1-1.1-.2-1.4zm10.7-1.2c-.5-.4-1-.9-1.5-1.5-.6-.7-1.1-1.5-1.6-2.4s-.9-1.9-1.2-2.9c-.4 1.5-1 2.8-1.8 3.9-.9 1.2-1.9 2.1-3.1 2.8-.2-.3-.5-.6-.7-.9 2.8-1.6 4.5-4.1 4.9-7.7h-2.4V6.1h2.5V.6h1.2v5.6h3.7v1.1h-3.6c.2 1.6.7 3.1 1.5 4.5s1.7 2.5 2.9 3.3c-.4.3-.6.6-.8.9zm-7.1 1.2 1-.3c.3.5.6 1.3.9 2.2.3.9.5 1.8.7 2.6l-1.2.4c-.1-.7-.3-1.5-.6-2.5-.2-.9-.5-1.7-.8-2.4zm4-.1.9-.3c.4.5.7 1.1 1.1 1.9.4.8.7 1.4.9 1.9s.3.8.4 1l-1.1.5c-.2-.8-.6-1.7-1-2.7-.4-.9-.9-1.7-1.2-2.3zm3-12.4-.9.6c-.6-1.3-1.3-2.4-2-3.3l.8-.5c.3.4.7.9 1 1.4.4.7.8 1.2 1.1 1.8zm11.5 4.8v13h-1.3v-.9l.1-10.9c-.4 1.2-.8 2.4-1.4 3.6-.5 1.2-1.1 2.1-1.6 2.9-.5.7-.9 1.3-1.3 1.7-.1-.2-.3-.5-.4-.7s-.2-.4-.3-.4c.8-.8 1.6-2 2.5-3.5.8-1.6 1.5-3.1 2-4.7h-4.3V8.3h4.7V.4c.5 0 .9 0 1.3.1v7.9h4v1.2h-4zm-2.6-2.8-1 .3c-.1-.6-.3-1.3-.6-2.1s-.6-1.7-.9-2.6l1-.3c.3.8.6 1.5.8 2.4.3.8.5 1.6.7 2.3zm3.6 4c1.2 1.3 2.1 2.6 2.8 3.6l-.9.7c-.2-.3-.5-.8-1-1.5s-1.1-1.5-1.8-2.2l.9-.6zm2.7-8.5c-.2.7-.4 1.5-.8 2.5s-.7 1.8-1 2.5l-.9-.5c.4-.6.7-1.5 1.1-2.6.4-1.1.6-1.9.7-2.5l1 .4-.1.2zm11.4 13.4-1.2.2v6.7h-1.3V16l-7.5 1-1.3.2-.1-1.2c.3 0 .8-.1 1.3-.2l7.5-1V.4c.3 0 .8 0 1.3.1v14.2l1.1-.1 1.3-.2.1 1.2c-.2 0-.4 0-.7.1s-.4-.1-.5-.1zm-4.7-4.4-.7 1c-.6-.5-1.3-.9-2-1.4-.8-.5-1.5-.9-2.1-1.2l.6-1c.7.4 1.4.8 2.2 1.3.8.5 1.5 1 2 1.3zm.5-5.8-.7 1c-.6-.5-1.3-1-2-1.5s-1.4-.9-1.9-1.2l.6-1c1.1.7 2.4 1.6 4 2.7zM286 8.8v12.7l.1 1h-1.3l.1-1v-3.9c0-2 .1-4.5.1-7.4-.5 1.6-1 3.1-1.7 4.6-.7 1.5-1.4 2.6-2 3.4-.2-.4-.4-.7-.7-1.1.7-.9 1.4-2 2.2-3.6.7-1.5 1.3-3.1 1.7-4.6H281V7.7h3.8V3.4c-.4.1-.9.3-1.5.5s-1.2.3-1.7.4c0-.2-.2-.5-.5-1 1.1-.2 2.2-.5 3.5-1s2.3-.9 3.2-1.4l.8.9c-.1 0-.2.1-.4.1-.4.2-1.1.5-2.2 1v4.8h2.9v1.1H286zm3.5 5.7-.9.6c-.3-.6-.6-1.3-1-2s-.7-1.2-.9-1.5c-.2-.3-.4-.5-.5-.6l.8-.5c.4.5.8 1.2 1.3 1.9s.8 1.4 1.2 2.1zm12.4 3c.5.4.9.6 1.1.7 0 1-.1 1.8-.3 2.3-.2.5-.3.9-.6 1.1-.2.2-.6.4-.9.5-.4.1-.9.2-1.6.2h-.8c-.3 0-.6-.1-.7-.2-.2-.1-.3-.1-.3-.2-.4-.3-.6-.8-.6-1.6v-6.7h-2.8c0 1.2-.2 2.2-.4 3.1-.2.9-.5 1.8-1 2.5-.4.7-1 1.4-1.7 1.9s-1.5 1-2.5 1.3c-.2-.3-.4-.6-.8-1 1.2-.4 2.1-.9 2.8-1.5.7-.6 1.3-1.5 1.7-2.4s.6-2.3.7-3.8H291c0-.3.1-.5.1-.7V7.4c0-.2 0-.4-.1-.7h9.3v7h-2.1v6.8c0 .4.1.6.4.7.2.1.5.1 1 .1.3 0 .6-.1.9-.2s.5-.2.7-.4c.2-.2.3-.6.4-1 .1-.4.1-.9.2-1.3s.1-.7.1-.9zM289.4 7.2c-.2-.3-.5-.6-.8-.9.4-.2.8-.6 1.4-1.2.5-.5 1.1-1.2 1.7-2 .6-.8 1.1-1.7 1.5-2.5l1 .5-.2.1-.5 1c-.2.4-.5.9-.9 1.4-.3.5-.7.9-1 1.3s-.7.8-1.1 1.2-.7.8-1.1 1.1zm3 .6v4.9h6.8V7.8h-6.8zm10.2-1.5-.8.9c-.3-.5-.7-1-1.3-1.7-.5-.7-1.1-1.5-1.8-2.3-.7-.8-1.3-1.5-1.8-2.1l1-.5c.7.8 1.5 1.7 2.4 2.7.8 1.1 1.6 2.1 2.3 3zm393.7-.4v16.6H695v-6c0-2.3.1-5.2.2-8.8-.5.8-1 1.7-1.5 2.5s-1.1 1.5-1.6 2.1c-.2-.4-.4-.8-.7-1.2 1.2-1.3 2.3-3 3.4-5.1 1.1-2.1 1.9-4 2.3-5.9l1.2.4-.1.2c-.3.8-.6 1.7-.9 2.6-.3 1-.6 1.8-1 2.6zm11.2 7.1c.4.6.9 1.4 1.6 2.2.7.8 1.6 1.6 2.6 2.4 1 .8 2 1.4 3 1.8l-.7 1.1c-.5-.2-1-.5-1.6-.9-.6-.4-1.2-.9-1.9-1.5s-1.4-1.3-2-2.1c-.6-.8-1.1-1.5-1.5-2.2v8.6h-1.3v-8.6c-.3.5-.7 1-1.2 1.6-.5.6-1 1.2-1.6 1.8-.6.6-1.3 1.2-2 1.8s-1.5 1.1-2.3 1.5l-.7-1.1c1.1-.5 2.1-1.2 3.1-2s1.8-1.6 2.5-2.4c.7-.8 1.2-1.5 1.6-2.1h-6.6v-1.2h7.3V8.6h-5V1.7h11.4v6.9H707v3.3h7.1V13h-6.6zM702 2.8v4.7h8.8V2.8H702zm33.2 6.4c.3.4.8.8 1.4 1.3s1.5 1 2.4 1.5c1 .5 2 .8 3 1.1-.2.4-.4.8-.5 1.1-.5-.2-1.2-.4-1.8-.7-.7-.3-1.4-.7-2.1-1.1-.8-.5-1.4-1-2-1.6-.6-.6-1.1-1.1-1.4-1.6h-6.6c-.4.5-.9 1-1.6 1.7s-1.6 1.3-2.6 1.9c-1 .6-2.1 1.1-3.1 1.5-.1-.2-.3-.5-.7-1 .6-.2 1.3-.5 2.1-.8.8-.4 1.7-.9 2.5-1.5.9-.6 1.6-1.2 2.1-1.8H720v-1h10.1V6.3h-7.7v-1h7.7V3.5H723c-.8 0-1.3 0-1.7.1v-1h6.1c-.4-.8-.8-1.4-1.1-1.8l1.1-.3c.4.6.8 1.3 1.3 2.1h4.2c.1-.2.3-.4.5-.8.2-.3.4-.6.5-.9s.2-.5.2-.5l1.2.4-.1.2-1 1.6h6.2v1c-.4 0-.9-.1-1.7-.1h-7.4v1.9h8v1h-8v1.9h10.3v1h-6.4zm-8.9 8.3v3.6l5.2-1v1.1l-5.4 1-.9.2-.5-1.1c.3-.1.4-.4.4-.8V12h11.1v5.5h-9.9zm8.7-4.7h-8.8v1.5h8.8v-1.5zm-8.7 3.8h8.8v-1.5h-8.8v1.5zm7.5-5.7h-6v-.8h6v.8zm5.7 6.8c-1 .7-2.2 1.4-3.6 2 2.3.8 3.9 1.3 4.8 1.7l-.7.9c-4.4-1.7-7.9-2.9-10.6-3.6l.7-.7c1.1.3 2.6.7 4.5 1.3.7-.3 1.4-.7 2.2-1.2s1.5-.9 1.9-1.3l.9.7-.1.2zm20.7 3.2c1.4 0 3-.1 4.8-.2 1.8-.1 3.2-.3 4.2-.4 0 0-.1.2-.2.6-.1.3-.2.6-.2.7-.9.1-2.3.2-4 .3-1.8.1-3.3.1-4.7.1-1.1 0-2.2-.1-3.2-.2-1-.2-1.8-.4-2.6-.8-.8-.3-1.4-.8-1.9-1.2-.5-.5-.9-1.1-1.2-1.7-.8 1.6-1.9 3-3.3 4-.3-.4-.6-.7-.8-1 .7-.5 1.4-1.1 2-1.8.6-.7 1.1-1.5 1.4-2.4s.7-2 .9-3.2h-3.1l-.2-1c.1 0 .2-.1.3-.2l.3-.3c.4-.5.8-1.1 1.3-1.9.5-.8.9-1.5 1.1-2.2h-3.9V7h4.4l.1-.2 1 .8-.2.1c-.4.8-.8 1.6-1.4 2.5s-1 1.6-1.5 2.3h2.1l.1-.1.9.8-.2.1c-.2 1.2-.5 2.4-.9 3.4.2.8.7 1.6 1.4 2.2.7.6 1.7 1.1 2.9 1.4s2.8.6 4.3.6zm-8.1-16.3-.9.8c-.3-.5-.8-1.2-1.4-1.9-.6-.7-1.1-1.3-1.6-1.8l.9-.7c.4.4.9.9 1.5 1.6s1.1 1.4 1.5 2zm3.6 3.4V1.7h12.2v15.4c0 .1 0 .3-.1.5s-.2.5-.5.6-.7.3-1.2.4-1.3.1-2.2.1l-.6-1.3c.5.1 1.1.1 1.8.1.5 0 .9 0 1.2-.1.3-.1.5-.3.5-.6V2.7h-9.9V8c0 1.5-.1 3-.3 4.4-.2 1.5-.5 2.7-.9 3.8s-.8 1.9-1.2 2.5c-.2-.2-.5-.5-1-.9.7-.9 1.2-2.2 1.6-4 .4-1.6.6-3.6.6-5.8zm3.1-.1h2.4V6h-2.8V5h2.8V3.3h1.1v1.6h2.7v1h-2.7v1.8h3.3v1h-3.3v1.5h-1.1V8.8h-3.4v-1l1 .1zm.2 8.3v-4.7h5.4v4.7H759zm4.3-3.7h-3.2v2.8h3.2v-2.8zm10.9 9.2c.2-.1.4-.3.7-.5s.7-.6 1.1-1 .8-.8 1.2-1.3c.4-.5.7-1 1-1.4l1 .6c-.4.6-.9 1.4-1.7 2.2-.7.8-1.5 1.6-2.3 2.3-.3-.3-.6-.6-1-.9zm10.7-5.2h-10.3v-1h2.6V4.7H775V3.6h2.2V.3c.6 0 1 0 1.3.1v3.2h4.7V.3c.6 0 1 0 1.3.1v3.2h2.1v1.1h-2.1v10.8h1.9v1h-1.5zM783 4.7h-4.7v2.8h4.7V4.7zm-4.7 3.8v2.8h4.7V8.5h-4.7zm0 3.8v3.2h4.7v-3.2h-4.7zm4.1 5.1c.9.8 1.7 1.7 2.5 2.7l-.4.4c-.2.2-.3.3-.5.4-.8-1.1-1.7-2-2.6-2.9l1-.6zm13.4-15v18.4c0 .3 0 .5-.2.7-.1.2-.3.4-.5.5-.2.1-.6.2-1 .3s-1.2.1-2.1.1c-.1-.2-.2-.4-.3-.7-.1-.3-.2-.5-.3-.7.6.1 1.1.1 1.6.1s.8 0 1.1-.1.4-.3.4-.6v-6.3H789c-.1.9-.3 1.8-.5 2.9s-.6 2.1-1 3.1c-.5 1-.9 1.8-1.5 2.4l-1-.9c1-1.1 1.8-2.7 2.3-4.6s.8-4.2.8-6.8V1.3h7.9l-.2 1.1zm-6.7 10.8h5.5v-5h-5.4v2.2c0 .9 0 1.8-.1 2.8zm.1-10.8v4.8h5.4V2.4h-5.4zM817.3 18c1.1.8 2.2 1.4 3.5 2 1.3.6 2.6 1 3.9 1.3-.3.4-.5.8-.7 1-2-.5-3.8-1.2-5.5-2.1-1.7-1-3.1-2-4.3-3.3s-2.2-2.5-2.9-3.9h-4v7.4c1.9-.5 4-1.1 6.3-1.8v1.2c-.9.3-3.1.9-6.5 1.9-.5.1-.8.3-1.1.4l-.5-1.2c.3-.1.4-.4.4-.9v-6.9h-3.8V12h4.3V1.5H821v1.1h-13.4v2.6h12.7v1.1h-12.4v2.3h12.4v1.1h-12.4V12h16.5v1.1h-11.7c.9 1.5 2.1 2.9 3.7 4.2.4-.2.9-.5 1.5-.9s1.2-.8 1.9-1.3 1.1-.9 1.4-1.2l1 .9-.2.1c-.5.5-1.3 1-2.2 1.6-1 .6-1.8 1.1-2.5 1.5z"/>
</svg>
