<svg xmlns="http://www.w3.org/2000/svg" width="989" height="88.4" style="overflow:visible;enable-background:new 0 0 989 88.4" xml:space="preserve">
    <style>
        .st0{fill:#1a1a1a}.st1{fill:#fff}.st2{fill:#3aae36}.st3{fill:none;stroke:#3aae36;stroke-width:2;stroke-miterlimit:10}
    </style>
    <path class="st0" d="M0 42.5h141.7v45.9H0z"/>
    <path class="st1" d="m28.4 62.6-.3.1c-.4 1.1-.8 2.1-1.4 3.2-.6 1.1-1.2 1.9-1.7 2.5-.2-.3-.7-.8-1.3-1.4.4-.4.8-.9 1.3-1.6.4-.7.8-1.4 1.1-2.1h-2.7v8.2l.1 1.8c0 .7-.3 1.2-.9 1.6-.6.4-1.7.5-3.1.5l-.9-2.1c.6.1 1.2.1 1.6.1.5 0 .9-.1 1.1-.2.2-.1.3-.3.3-.5v-9.4h-4.2v-1.8h9.4l.2-.2c.3.4.9.8 1.4 1.3zm-3.6-7h-7.2v-1.8h8.3l.2-.2c.7.5 1.3.9 1.6 1.2l-.4.2c-.4.6-.9 1.3-1.6 2.1s-1.2 1.4-1.7 2c.8.5 1.3.8 1.7 1.1l-1.2 1.5c-.9-.6-1.9-1.3-3-1.9-1.1-.6-2-1.2-2.9-1.5l1.2-1.4c.7.3 1.6.8 2.6 1.4.9-.9 1.7-1.7 2.4-2.7zM26.6 74c.7-.2 1.4-.4 2.3-.8.8-.4 1.5-.8 2.1-1.1s.9-.6 1.1-.9l1.4 1.2c-.7.6-1.5 1.2-2.5 1.8-1 .6-2.1 1-3.2 1.5-.3-.5-.5-.8-.7-1.1s-.4-.5-.5-.6zm6.8-18.4h-5.5v-1.9h13v1.9h-5.7c-.2.6-.5 1.4-.9 2.4h4.9v12.7h-9.8c0-.4.1-.7.1-1V59l-.1-1h3.1c.4-.9.7-1.7.9-2.4zm4.1 6.1v-2.1h-6.1v2.1h6.1zm-6.1 1.6v2h6.1v-2h-6.1zm0 5.8h6.1v-2.3h-6.1v2.3zm5 2.1c.7.3 1.5.8 2.5 1.3s1.7 1.1 2.2 1.5l-1 1.6c-.6-.5-1.4-1.1-2.4-1.7s-1.8-1.1-2.6-1.5l1.3-1.2zm9.5 3.5c.3-.8.5-1.7.8-2.7s.4-2 .5-2.9l1.6.3c-.1 1-.2 2-.4 3.2-.2 1.1-.5 2.1-.7 3l-1.8-.9zm7.4-11.4 1.6-.5c.3.6.7 1.4 1 2.3.4 1 .7 1.8.9 2.5l-1.7.6c-.2-.6-.3-1.2-.5-1.7-2.2.4-4.5.8-6.8 1.2-.3 0-.6.1-1 .2l-.5-1.8c.1 0 .1-.1.3-.1.1-.1.2-.1.3-.3 1.4-1.4 2.7-3.1 4-4.9l-3.5.5-.8.1-.5-1.4c.2-.1.4-.2.5-.4.7-1 1.4-2 2-3.1.6-1.1 1.1-2 1.4-2.7s.5-1.1.5-1.3l1.7 1.2-.3.4c-.5.9-1 1.9-1.6 2.9s-1.2 1.9-1.7 2.6c.8-.1 2-.3 3.5-.5.9-1.4 1.5-2.4 1.8-3.1l1.7 1.2-.3.4c-.7 1.2-1.6 2.5-2.8 4-1.1 1.5-2.3 2.9-3.5 4.1 1.6-.2 3.3-.5 5.1-.8-.1-.2-.2-.5-.3-.8s-.3-.5-.5-.8zm-3 6 1.5-.2c.2.7.3 1.6.5 2.5.2 1 .3 1.8.4 2.5l-1.7.4c-.1-.7-.1-1.6-.3-2.6-.1-1-.2-1.9-.4-2.6zm3.1-.4 1.4-.5c.3.5.6 1.1.9 1.9.3.8.6 1.5.8 2.1l-1.5.7c-.2-.7-.4-1.4-.7-2.2-.3-.8-.6-1.5-.9-2zm15-12.2v.7c0 3 0 5.4-.1 7.3-.1 1.9-.2 3.5-.3 4.9-.1 1.3-.4 2.4-.7 3.2-.2.5-.5.9-.9 1.3s-.9.7-1.5.9c-.6.2-1.3.4-2 .5-.7.1-1.4.1-2.2.1-.2-.6-.5-1.4-.9-2.4.5.1 1.1.2 1.8.2 1.1 0 1.9-.1 2.5-.4.6-.3 1-.7 1.3-1.4.2-.4.3-1 .5-1.8.1-.8.2-2 .3-3.7.1-1.7.1-4.2.2-7.6h-6.6c-.4.7-.8 1.4-1.2 2-.4.6-.8 1.1-1.2 1.5-.7-.6-1.2-1-1.6-1.3.8-.8 1.6-1.9 2.5-3.5.8-1.5 1.5-3.1 1.8-4.6l2 .5-.1.3c-.3 1.2-.8 2.3-1.2 3.3h7.6zm-4.7 10.8L62 68.7c-.2-.4-.5-.9-.9-1.6-.4-.7-.8-1.3-1.2-1.8s-.7-.9-1-1.2l1.5-1c.5.5 1 1.1 1.6 2 .7.8 1.2 1.6 1.7 2.4zm31.8-3.1h-3.4c-.7 2.6-1.7 4.6-3 6.1 3 1.2 5.4 2.4 7.3 3.4l-1.2 2c-2-1.2-4.5-2.5-7.6-3.8-.6.5-1.3.9-2.2 1.4s-1.8.8-2.7 1.1c-.9.3-1.9.5-2.8.7-1 .2-2.1.4-3.4.6-.2-.6-.4-1.3-.8-2.1 4.2-.4 7.4-1.3 9.5-2.7-2.5-1-4.7-1.7-6.7-2.3.8-1 1.8-2.4 3-4.4H75v-2c.4 0 1.1.1 2.2.1h5.4c.9-1.8 1.5-3.2 1.8-4.2l2.2.4c0 .1-.1.2-.2.4s-.2.5-.4 1-.6 1.3-1.1 2.3h10.5c1 0 1.8 0 2.2-.1v2c-.3.1-1 .1-2.1.1zm-19.7-3.8c0-.3.1-.5.1-.7v-4.1c0-.2 0-.4-.1-.7h9.7c-.1-.2-.3-.5-.5-.9-.3-.5-.5-.9-.8-1.3l1.9-.8c.6.8 1.1 1.8 1.8 3h8.7v5.5h-2.1V57H77.9v3.6h-2.1zM87 69.7c1.3-1.3 2.2-3.1 2.8-5.3h-5.9c-.6 1.1-1.3 2.2-2.1 3.4 1.3.4 3.1 1.1 5.2 1.9zm34 1.9c1.6 1 3.5 1.8 5.8 2.3-.2.2-.3.5-.6.9s-.4.7-.5.9c-1.3-.3-2.5-.8-3.7-1.3-1.1-.5-2.1-1.2-3.1-1.9-.9-.7-1.7-1.5-2.4-2.4s-1.3-1.9-1.7-3h-1.5c-.8.7-1.7 1.5-2.7 2.1v4.4c2.4-.6 4.4-1.2 5.9-1.6-.1.8-.2 1.5-.2 2-3.7.9-5.9 1.5-6.6 1.7-.1 0-.2.1-.4.1s-.5.2-1.1.4l-.6-1.8c.3-.1.6-.3.7-.5.1-.2.2-.5.2-.8v-2.4c-.7.4-1.5.8-2.4 1.1-.9.4-1.7.7-2.5.9-.1-.3-.5-.9-1-1.8 1.4-.3 2.9-.8 4.4-1.5 1.5-.7 2.8-1.4 3.8-2.1h-7.7v-1.8h11c-.4-.7-.8-1.5-1.4-2.2l1.8-.8c.6.7 1.1 1.5 1.6 2.4l-1.5.6h11.5v1.8h-9.3c.3.6.7 1.2 1.1 1.8.5.6.9 1.1 1.5 1.6.6-.4 1.3-.8 2.1-1.4.8-.5 1.3-1 1.7-1.4l1.7 1.2-.3.2c-1.1.7-2.3 1.5-3.6 2.3zm-18-8.1c.4-.1.8-.3 1.2-.6.4-.3.8-.6 1.2-1 .3-.4.6-.9.7-1.4h-2.9v-1.7h6.7v-1.6h-5.4c0-.2.1-.4.1-.7v-3.8h1c.5 0 .8 0 .9.1v2.7h3.5v-3c1 0 1.6 0 2 .1v10.7c0 .3 0 .6.1 1H110c0-.3.1-.7.1-1v-2.9H108c-.1.7-.3 1.3-.6 1.9-.3.6-.8 1.1-1.2 1.5-.5.4-.9.6-1.3.8-1.1-.6-1.6-1-1.9-1.1zm15.3-6.3h-4.1c-.7 0-1.2 0-1.5.1v-1.8c.3 0 .8.1 1.5.1h4.1v-2.1l-.1-.8c1 0 1.8 0 2.2.1 0 .2-.1.5-.1.7v2.1h4.5c.7 0 1.2 0 1.5-.1v1.8c-.3 0-.8-.1-1.5-.1h-4.5v3.2h5.1v1.8h-12v-1.8h4.9v-3.2z"/>
    <path class="st2" d="M41.6 1.5v2.1c-2.1-1.3-4-1.9-5.5-1.9s-2.7.4-3.7 1.3S31 5.1 31 6.4c0 .9.3 1.8.9 2.6s1.8 1.5 3.7 2.2 3.2 1.3 4.1 1.8 1.6 1.1 2.2 2 .9 2 .9 3.5c0 1.9-.7 3.5-2.1 4.8s-3.1 2-5.1 2c-2 0-4.1-.7-6.3-2.1V21c2.4 1.7 4.4 2.6 6.2 2.6 1.5 0 2.7-.5 3.7-1.4s1.5-2.1 1.5-3.5c0-1-.3-2-.9-2.8s-1.9-1.6-3.8-2.3c-1.9-.7-3.3-1.3-4.1-1.8-.8-.4-1.5-1.1-2.1-1.9-.6-.8-.9-1.9-.9-3.2 0-1.8.7-3.3 2.1-4.6S34 0 36 0c1.9 0 3.8.5 5.6 1.5zm8.3 1.8v5.4h4.5v1.4h-4.5v9.6c0 1.5.1 2.6.4 3s.9.7 2 .7c.8 0 1.8-.3 3-.8v1.7c-1.1.6-2.2.8-3.3.8-1.1 0-2-.3-2.7-.9s-1.1-1.5-1.1-2.5V10.1h-4.4V8.7h4.4V4.9l1.2-1.5h.5zm21.8 12.9H59c0 .3-.1.6-.1.8 0 1.8.6 3.3 1.9 4.6s2.8 1.9 4.6 1.9c2.1 0 4.1-.8 6-2.4v2c-1.9 1.4-3.9 2.1-6.2 2.1-2.3 0-4.3-.8-5.8-2.4s-2.3-3.7-2.3-6.2c0-2.4.7-4.3 2.1-5.9s3.2-2.3 5.3-2.3c2 0 3.7.7 5.1 2.1s2.1 3.3 2.1 5.7zm-12.5-1.4h10.5c-.6-3.2-2.3-4.7-5.1-4.7-1.3 0-2.5.4-3.4 1.2s-1.7 2-2 3.5zm18.1-6.1v.9c1.6-.8 3.3-1.2 4.9-1.2 2.3 0 4.2.8 5.7 2.4s2.3 3.6 2.3 6-.8 4.4-2.3 6-3.5 2.5-5.7 2.5c-1.6 0-3.2-.4-4.8-1.2v9.2h-1.7V8.7h1.6zm0 2.6v11c1.5.8 3 1.2 4.5 1.2 1.9 0 3.5-.6 4.7-1.8s1.8-2.8 1.8-4.8-.6-3.6-1.9-4.9-2.9-1.9-4.8-1.9c-1.4 0-2.8.4-4.3 1.2zm35-11v24.6h-1.8V.3h1.8z"/>
    <path class="st3" d="m165.2 54 11.4 9.5-11.4 9.5"/>
    <path class="st0" d="M196.9 42.5h141.7v45.9H196.9z"/>
    <path class="st1" d="m221.7 65.1.2 2.1c-.3.2-.8.4-1.5.7-.7.3-1.5.7-2.5 1.1s-1.8.8-2.5 1l-1 .5-.6-2.1c.6-.2 1-.3 1.1-.3.4-.1 1.1-.4 2.2-.8v-7h-2.8v-1.9h2.8v-4.9c0-.3 0-.6-.1-.9h1.1c.5 0 .8 0 1 .1 0 .3-.1.6-.1.8v4.9h2.5v1.9H219v6.1c1.3-.6 2.2-1 2.7-1.3zm14.4-.6h-8.4c-.1.2-.3.5-.5.8-.2.3-.4.6-.6.8h10.3c0 .2-.1.5-.1.6 0 2.3-.1 4-.1 5s-.2 1.8-.4 2.3c-.1.2-.2.5-.4.7-.2.2-.4.4-.8.6-.3.2-.7.3-1.3.5-.5.1-1.2.2-2 .2-.1-.3-.3-1.1-.8-2.2.5.1.9.2 1.4.2 1.1 0 1.8-.3 2.1-1 .2-.4.3-1 .3-1.8s.1-2 .1-3.5h-1.4c-.3.8-.9 1.8-1.5 2.9-.7 1.1-1.5 2.2-2.5 3.2s-2 1.8-3.1 2.4c-.2-.2-.7-.7-1.5-1.3.8-.4 1.6-.9 2.4-1.6.8-.7 1.6-1.5 2.4-2.4.8-1 1.4-2 2-3.2h-2c-.6 1-1.3 1.9-2.2 2.9-.9.9-1.7 1.7-2.5 2.3-.8.6-1.5 1.1-2.1 1.4-.1-.2-.3-.4-.6-.7-.3-.3-.5-.5-.8-.7.8-.4 1.6-.9 2.5-1.5s1.6-1.3 2.2-1.9c.6-.6 1.1-1.2 1.4-1.7h-2.2c-.6.7-1.3 1.3-2 1.9-.7.6-1.4 1-2.1 1.4-.2-.3-.6-.7-1.3-1.4 1-.5 2.1-1.2 3.1-2.1 1.1-.9 1.9-1.9 2.6-3h-3.5v-1.8c.3 0 .9.1 1.6.1h12.4c.7 0 1.3 0 1.6-.1v1.8c-.4-.1-1-.1-1.7-.1zM224 61.3c0-.3.1-.6.1-.8v-6.3l-.1-.8h11.5v7.9H224zm9.6-6.5H226v1.8h7.6v-1.8zm-7.6 5h7.6V58H226v1.8zm39.9-1.7-.1.7c0 2.6 0 4.8-.1 6.7 0 1.9-.1 3.4-.2 4.7s-.3 2.2-.5 3c-.3.8-.8 1.4-1.5 1.9-.7.4-1.8.7-3.2.7-.2-.5-.4-1.3-.8-2.4.2.1.4.1.6.1.3 0 .5.1.7.1.5 0 .9-.1 1.2-.2.3-.1.6-.3.7-.6.2-.3.3-.5.4-.8.2-.7.4-1.9.4-3.7.1-1.8.1-4.5.2-8.2h-2.9c-.1 2.8-.3 5.1-.6 7-.3 1.8-.7 3.5-1.4 4.9-.6 1.4-1.6 2.7-2.8 3.9-.2-.2-.5-.7-1.1-1.3h-11.4v-7.2l-.9.1v-1.8c.3 0 .8.1 1.5.1h1v-8.6h-2.5v-1.8c.3 0 .8.1 1.5.1h1v-1.8c0-.3 0-.6-.1-.8.5 0 1.2 0 1.9.1 0 .3-.1.5-.1.8v1.7h5v-1.8c0-.3 0-.6-.1-.8.5 0 1.2 0 2 .1 0 .3-.1.5-.1.8v1.7h.9c.7 0 1.2 0 1.5-.1v1.8h-2.4v8.6h1.1c.7 0 1.2 0 1.5-.1v1.8c-.3 0-.8-.1-1.5-.1h-2.8v1.9c0 .2.1.3.2.4.3.1.7.1 1.3.1.5 0 1 0 1.4-.1l-.1 1.6c-1 .1-1.8.2-2.5.1s-1.2-.2-1.5-.5c-.3-.2-.4-.7-.4-1.3v-2.2H249c0 .4-.1.8-.1 1.2-.1.4-.1.8-.3 1.1-.1.4-.3.8-.6 1.2-.3.4-.6.8-1 1.2-.4-.4-.8-.9-1.3-1.3.3-.2.6-.5.9-.9.2-.4.4-.8.5-1.2.1-.4.2-.8.2-1.2h-2.1v5.4h9.8v.9c.8-.9 1.5-1.8 2-2.9.5-1 .9-2.4 1.2-4 .3-1.6.5-3.8.6-6.6h-3.3v-2h3.3v-4.4c0-.4 0-.7-.1-1.1l1.9.1v.5c0 2.3 0 3.9-.1 4.9h5.4zM252 56.9h-5v1.8h5v-1.8zm-5 3.3V62h5v-1.8h-5zm0 3.3v1.9h5v-1.9h-5zm25.6-6.5h8.4v1.8h-9.6V57h1.2zm7.6 10.7v8h-1.8v-1.2h-4.2v1.2h-1.8l.1-.8v-6.4l-.1-.8h7.8zm-1.4-5.4h-6v-1.7h7v1.7h-1zm-6.1 3.6v-1.7h7v1.7h-7zm5.2-10.2-1.8 1c-.6-1.2-1.2-2.3-2-3.3l1.7-.9c.6.7 1.3 1.8 2.1 3.2zm-3.7 17.1h4.2v-3.5h-4.2v3.5zm19-8.1c.7 0 1.2 0 1.6-.1v2c-.3 0-.8-.1-1.6-.1h-4.4v7.7c0 .4 0 .9.1 1.5h-2.2c0-.6.1-1.1.1-1.5v-7.7h-4.1c-.7 0-1.2 0-1.5.1v-2c.3 0 .8.1 1.5.1h4.1v-9.3h-5.3v-2H294v2h-5.2v9.3h4.4zm-7.9-2.3-1.6.7c-.2-.8-.4-1.8-.7-2.8-.3-1-.6-1.9-.9-2.6l1.7-.6c.3.8.6 1.7.9 2.7s.4 1.9.6 2.6zm4.8 0c.4-.7.8-1.7 1.3-2.8.4-1.1.7-2 .8-2.6l1.7.7-.1.3c-.1.5-.3 1.2-.6 1.9-.3.8-.5 1.4-.8 2-.3.6-.5 1.1-.7 1.4l-1.6-.9zm9.3.9c.7-.7 1.4-1.7 2.1-2.8.7-1.2 1.4-2.5 2-4 .6-1.5 1.1-2.9 1.4-4.1l2 .7-.1.2c-.5 1.7-1.1 3.3-1.8 4.9v16.2c0 .3 0 .8.1 1.4h-2.3c0-.6.1-1 .1-1.4v-.9c0-.5 0-1.7.1-3.9 0-2.2.1-4.9.3-8.3-.4.7-.8 1.5-1.3 2.2-.5.7-.9 1.3-1.3 1.8-.5-.5-.9-1.2-1.3-2zm22.3-3.5h-5.1v5.3h5.4v10.8h-2.1v-1.4h-8.7v1.4H309c0-.4.1-.7.1-.9v-9c0-.3 0-.6-.1-1h5.5v-5.3H309c-.8 0-1.4 0-1.7.1v-2.1c.3 0 .9.1 1.7.1h5.4v-4.4l-.1-.9h1.1c.5 0 .9 0 1.1.1 0 .3-.1.5-.1.8v4.4h5.1c.8 0 1.4 0 1.7-.1v2.1h-1.5zm-1.8 12.8V67h-8.7v5.5h8.7z"/>
    <path class="st2" d="M238.5 1.5v2.1c-2.1-1.3-4-1.9-5.5-1.9s-2.7.4-3.7 1.3-1.5 2-1.5 3.3c0 .9.3 1.8.9 2.6s1.8 1.5 3.7 2.2 3.2 1.3 4.1 1.8 1.6 1.1 2.2 2 .9 2 .9 3.5c0 1.9-.7 3.5-2.1 4.8s-3.1 2-5.1 2c-2 0-4.1-.7-6.3-2.1v-2.2c2.4 1.7 4.4 2.6 6.2 2.6 1.5 0 2.7-.5 3.7-1.4s1.5-2.1 1.5-3.5c0-1-.3-2-.9-2.8s-1.9-1.6-3.8-2.3c-1.9-.7-3.3-1.3-4.1-1.8-.8-.4-1.5-1.1-2.1-1.9-.6-.8-.9-1.9-.9-3.2 0-1.8.7-3.3 2.1-4.6s3-1.9 5-1.9c1.9-.1 3.8.4 5.7 1.4zm8.3 1.8v5.4h4.5v1.4h-4.5v9.6c0 1.5.1 2.6.4 3s.9.7 2 .7c.8 0 1.8-.3 3-.8v1.7c-1.1.6-2.2.8-3.3.8-1.1 0-2-.3-2.7-.9s-1.1-1.5-1.1-2.5V10.1h-4.4V8.7h4.4V4.9l1.2-1.5h.5zm21.8 12.9h-12.7c0 .3-.1.6-.1.8 0 1.8.6 3.3 1.9 4.6s2.8 1.9 4.6 1.9c2.1 0 4.1-.8 6-2.4v2c-1.9 1.4-3.9 2.1-6.2 2.1-2.3 0-4.3-.8-5.8-2.4s-2.3-3.7-2.3-6.2c0-2.4.7-4.3 2.1-5.9s3.2-2.3 5.3-2.3c2 0 3.7.7 5.1 2.1s2.1 3.3 2.1 5.7zm-12.5-1.4h10.5c-.6-3.2-2.3-4.7-5.1-4.7-1.3 0-2.5.4-3.4 1.2s-1.7 2-2 3.5zm18.1-6.1v.9c1.6-.8 3.3-1.2 4.9-1.2 2.3 0 4.2.8 5.7 2.4s2.3 3.6 2.3 6-.8 4.4-2.3 6-3.5 2.5-5.7 2.5c-1.6 0-3.2-.4-4.8-1.2v9.2h-1.7V8.7h1.6zm0 2.6v11c1.5.8 3 1.2 4.5 1.2 1.9 0 3.5-.6 4.7-1.8s1.8-2.8 1.8-4.8-.6-3.6-1.9-4.9-2.9-1.9-4.8-1.9c-1.4 0-2.9.4-4.3 1.2zm26.7-6.9V2.2c1.8-1.5 3.7-2.2 5.7-2.2s3.7.7 5.1 2 2.1 3 2.1 5c0 3.9-3 9.3-9 16.1h11.4v1.7h-15.6C308.2 17.5 312 11.6 312 7c0-1.5-.5-2.8-1.6-3.8s-2.4-1.5-3.9-1.5c-1 0-2 .2-2.8.6s-1.8 1.2-2.8 2.1z"/>
    <path class="st3" d="m362.1 54 11.3 9.5-11.3 9.5"/>
    <path class="st0" d="M393.7 42.5h201.5v45.9H393.7z"/>
    <path class="st1" d="M432 64.4h-3.4c-.7 2.6-1.7 4.6-3 6.1 3 1.2 5.4 2.4 7.3 3.4l-1.2 2c-2-1.2-4.5-2.5-7.6-3.8-.6.5-1.3.9-2.2 1.4-.9.5-1.8.8-2.7 1.1-.9.3-1.9.5-2.8.7-1 .2-2.1.4-3.4.6-.2-.6-.4-1.3-.8-2.1 4.2-.4 7.4-1.3 9.5-2.7-2.5-1-4.7-1.7-6.7-2.3.8-1 1.8-2.4 3-4.4h-6.5v-2c.4 0 1.1.1 2.2.1h5.4c.9-1.8 1.5-3.2 1.8-4.2l2.2.4c0 .1-.1.2-.2.4s-.2.5-.4 1-.6 1.3-1.1 2.3H432c1 0 1.8 0 2.2-.1v2c-.4.1-1.1.1-2.2.1zm-19.7-3.8c0-.3.1-.5.1-.7v-4.1c0-.2 0-.4-.1-.7h9.7c-.1-.2-.3-.5-.5-.9-.3-.5-.5-.9-.8-1.3l1.9-.8c.6.8 1.1 1.8 1.8 3h8.7v5.5H431V57h-16.5v3.6h-2.2zm11.2 9.1c1.3-1.3 2.2-3.1 2.8-5.3h-5.9c-.6 1.1-1.3 2.2-2.1 3.4 1.4.4 3.1 1.1 5.2 1.9zm34.1 1.9c1.6 1 3.5 1.8 5.8 2.3-.2.2-.3.5-.6.9s-.4.7-.5.9c-1.3-.3-2.5-.8-3.7-1.3-1.1-.5-2.1-1.2-3.1-1.9-.9-.7-1.7-1.5-2.4-2.4s-1.3-1.9-1.7-3H450c-.8.7-1.7 1.5-2.7 2.1v4.4c2.4-.6 4.4-1.2 5.9-1.6-.1.8-.2 1.5-.2 2-3.7.9-5.9 1.5-6.6 1.7-.1 0-.2.1-.4.1-.2.1-.5.2-1.1.4l-.6-1.8c.3-.1.6-.3.7-.5.1-.2.2-.5.2-.8v-2.4c-.7.4-1.5.8-2.4 1.1-.9.4-1.7.7-2.5.9-.1-.3-.5-.9-1-1.8 1.4-.3 2.9-.8 4.4-1.5 1.5-.7 2.8-1.4 3.8-2.1h-7.7v-1.8h11c-.4-.7-.8-1.5-1.4-2.2l1.8-.8c.6.7 1.1 1.5 1.6 2.4l-1.5.6h11.5v1.8h-9.3c.3.6.7 1.2 1.1 1.8.5.6.9 1.1 1.5 1.6.6-.4 1.3-.8 2.1-1.4.8-.5 1.3-1 1.7-1.4l1.7 1.2-.3.2c-1.3.7-2.5 1.5-3.7 2.3zm-18-8.1c.4-.1.8-.3 1.2-.6.4-.3.8-.6 1.2-1s.6-.9.7-1.4h-2.9v-1.7h6.7v-1.6H441c0-.2.1-.4.1-.7v-3.8h1c.5 0 .8 0 .9.1v2.7h3.5v-3c1 0 1.6 0 2 .1v10.7c0 .3 0 .6.1 1h-2.1c0-.3.1-.7.1-1v-2.9h-2.1c-.1.7-.3 1.3-.6 1.9-.3.6-.8 1.1-1.2 1.5s-.9.6-1.3.8c-1.1-.6-1.6-1-1.8-1.1zm15.2-6.3h-4.1c-.7 0-1.2 0-1.5.1v-1.8c.3 0 .8.1 1.5.1h4.1v-2.1l-.1-.8c1 0 1.8 0 2.2.1 0 .2-.1.5-.1.7v2.1h4.5c.7 0 1.2 0 1.5-.1v1.8c-.3 0-.8-.1-1.5-.1h-4.5v3.2h5.1v1.8h-12v-1.8h4.9v-3.2zM468 73.9c.7 0 1.5-.1 2.6-.3 1-.2 2.1-.4 3.3-.7 1.1-.3 1.9-.6 2.4-.9l1.7 1c-.4.2-1.1.5-1.9.8s-1.9.7-3.1 1-2.4.6-3.5.8l-1.5-1.7zm1.2-9.2c-.1-.3-.3-.8-.7-1.6 1.2-.2 2.3-.4 3.2-.6.9-.2 1.7-.5 2.2-.8s1-.5 1.2-.8h-5.5c.2-.6.3-1.2.5-2 .2-.7.3-1.3.3-1.5 0-.3.1-.5.1-.5v-.2c.2 0 .9 0 1.9.1h3.8v-1.4h-6.5v-1.6h6.5v-.7l-.1-.7h1c.5 0 .8 0 1 .1 0 .2-.1.4-.1.6v.7h4.2v-.6l-.1-.7h1c.5 0 .8 0 1 .1 0 .2-.1.4-.1.6v.6h5.2v4.3H484v1.4h7c0 .2-.1.4-.1.5 0 .4-.1.8-.1 1.2-.1.4-.1.8-.2 1-.4.9-1.4 1.4-3.1 1.5v8.2h-15.3c0-.3.1-.6.1-.9v-7.1c-1 .3-2.1.6-3.1.8zm2.9-6.6-.3 1.4h4.3c.1-.2.1-.5.1-.8v-.6h-4.1zm13.4 5.9h-11.2v1.4h11.2V64zm-11.2 2.6v1.3h11.2v-1.3h-11.2zm0 4h11.2V69h-11.2v1.6zm7.9-9.7h-5c-.5.7-1.2 1.3-2.1 1.8h7.1v-1.8zm0-1.4v-1.4H478v.4c0 .3 0 .7-.1.9h4.3zm-4.2-4.1v1.4h4.2v-1.4H478zm5.6 16.6c.1 0 .3.1.6.1.3.1 1.2.3 2.8.7 1.5.4 3.1.8 4.6 1.3-.3.4-.7.9-1.2 1.5-.8-.3-2-.7-3.5-1.2s-3.2-1-5-1.5l1.7-.9zm3.9-16.6H484v1.4h3.5v-1.4zm.3 6.7c.3 0 .6-.1.8-.2.2-.1.4-.3.5-.5l.1-.6H484v1.8h2.9l-.3-.8c.4.3.8.3 1.2.3zm30.2-6.9v16.4l.1 1.7c0 .3-.1.6-.2.9-.1.3-.3.5-.7.7-.3.2-.8.4-1.4.5-.6.1-1.5.2-2.6.2 0-.1-.1-.1-.1-.2-.1-.1-.2-.4-.5-1-.3-.5-.4-.9-.5-1 .7.1 1.4.2 2.1.2.5 0 .9-.1 1.2-.2.3-.1.5-.3.5-.6V68h-6.3v5.9c0 .4 0 .9.1 1.5h-2.2c0-.6.1-1.1.1-1.5V68h-6.1c-.1 1.1-.3 2.2-.6 3.1-.3.9-.6 1.8-1.1 2.6-.4.8-1 1.5-1.6 2.1-.6-.6-1.2-1.1-1.7-1.5.7-.7 1.3-1.6 1.7-2.5s.8-2 1-3.2c.2-1.2.4-2.8.4-4.6v-9.5c0-.2 0-.4-.1-.7H518v1.4zm-16.4 10.9h5.9v-4.3h-5.9v4.3zm5.9-10.3h-5.9v4.1h5.9v-4.1zm8.4 0h-6.3v4.1h6.3v-4.1zm-6.3 10.3h6.3v-4.3h-6.3v4.3zm29.9-4.2c1.2.8 2.7 1.5 4.5 2.3 1.8.7 3.5 1.3 5 1.6l-1 1.7c-1.9-.6-3.9-1.3-5.9-2.3s-3.7-2-5-3c-.7.6-1.5 1.1-2.5 1.7-1 .6-2.2 1.2-3.7 1.9s-3.1 1.2-4.9 1.7c-.2-.4-.4-.7-.6-1.1-.2-.3-.3-.5-.4-.6 1.8-.4 3.5-1 5.3-1.8 1.8-.8 3.3-1.6 4.5-2.4-2.9.3-5.5.5-7.7.6l-.9.1-.3-1.6c.4-.2.9-.4 1.4-.7.5-.3 1-.7 1.5-1.2s.9-.9 1.3-1.4c-.4 0-.8 0-1.3.1-.1 0-.4 0-1 .1l-.3-1.8c.6-.2 1.4-.4 2.2-.8.9-.4 1.7-.8 2.5-1.4s1.5-1 1.9-1.4l2 .8-.3.3-2.7 1.8c-.6.3-1.1.6-1.5.7 4.1-.1 7.2-.3 9.4-.4-.8-.6-1.6-1.1-2.3-1.5l1.2-1c1.1.7 2.2 1.4 3.2 2.2 1.1.8 1.9 1.5 2.6 2.1l-1.4 1c-.5-.5-1-.9-1.5-1.2-.8.1-2.9.1-6.2.3-3.3.1-5.5.2-6.6.3l1.7.7-.2.2c-.8.9-1.7 1.7-2.7 2.3l4.8-.4c-.5-.7-.8-1.2-1.1-1.5l1.4-.6c.7.9 1.4 1.7 1.9 2.4l.1-.1 1.7.4-.1-.4c.3-.1.7-.4 1.1-.9.4-.4.8-.9 1.1-1.3s.5-.7.6-1l1.8.6-.2.2c-.2.4-.5.8-.9 1.2-.4.4-.7.8-1.1 1.1 1.9-.1 3.5-.2 4.7-.3-.5-.6-.8-1.1-.9-1.2l1.4-.7c.5.5 1 1.2 1.5 1.9s.9 1.4 1.2 2l-1.5.7c-.3-.5-.5-.9-.7-1.2-2.7 0-5 .1-6.1.2zm-11.1 12.3c3.7-.2 6.9-.8 9.7-2 2.8-1.1 5.1-2.6 7-4.6l1.5 1-.2.1c-.5.5-1.1 1.1-1.8 1.7-.7.6-1.6 1.2-2.6 1.8s-2.1 1.1-3.4 1.7c-1.3.5-2.7.9-4.4 1.3-1.6.3-3.3.5-5.1.6-.4-.7-.6-1.3-.7-1.6zm.9-1.8c-.3-.7-.5-1.2-.8-1.6 1.7-.2 3.4-.5 5.1-.9 1.7-.5 3.2-1 4.5-1.7 1.3-.7 2.5-1.4 3.4-2.3l1.5.9-.2.1c-.4.4-.9.8-1.5 1.2-.6.5-1.3.9-2.1 1.4-.8.4-1.7.9-2.7 1.2-1 .4-2.1.7-3.4 1-1.3.4-2.6.6-3.8.7zm10.4-7.3-.2.2c-.6.5-1.4 1.1-2.4 1.6s-2.2 1-3.6 1.5-2.7.7-3.8.8c-.3-.7-.5-1.2-.7-1.5 1.6-.2 3.3-.6 5.1-1.2 1.8-.6 3.2-1.4 4.2-2.3l1.4.9zm35.5-3.5h-7.1c-.6.5-1.3.9-2 1.4s-1.3.8-1.8 1.1h11.2v1.8H563l-.6 2.5h10.7c0 .2-.1.5-.1.6 0 1.5-.1 2.6-.2 3.3-.1.7-.4 1.3-.7 1.8-.4.6-1.2 1.1-2.3 1.4-1.1.3-2.6.4-4.6.4l-.9-2.3c.6.2 1.4.2 2.2.2 1.9 0 3.1-.3 3.7-.9.2-.3.3-.6.4-1 .1-.4.2-1 .2-1.7h-11.2c.5-1.6.9-3 1.2-4.4h-.3c-1.9.9-3.9 1.6-5.9 2.2-.1-.1-.2-.4-.4-.7-.2-.3-.4-.7-.7-1.2 4-1 7.7-2.5 11-4.6h-8.4c-1 0-1.7 0-2.2.1v-1.9h9.2v-2.9h-6.4V55h6.4v-2l-.1-.8h1.1c.5 0 .9 0 1.1.1 0 .2-.1.5-.1.7v2h5v1.8h-5v2.9h1.9c2.6-2 4.8-4.4 6.6-7l1.6 1.2-.2.2c-1.6 2.1-3.3 3.9-5.2 5.5h7.1v1.9c0 .1-.7.1-1.7.1z"/>
    <path class="st2" d="M461.6 1.5v2.1c-2.1-1.3-4-1.9-5.5-1.9s-2.7.4-3.7 1.3-1.5 2-1.5 3.3c0 .9.3 1.8.9 2.6s1.8 1.5 3.7 2.2 3.2 1.3 4.1 1.8 1.6 1.1 2.2 2 .9 2 .9 3.5c0 1.9-.7 3.5-2.1 4.8s-3.1 2-5.1 2c-2 0-4.1-.7-6.3-2.1v-2.2c2.4 1.7 4.4 2.6 6.2 2.6 1.5 0 2.7-.5 3.7-1.4s1.5-2.1 1.5-3.5c0-1-.3-2-.9-2.8s-1.9-1.6-3.8-2.3c-1.9-.7-3.3-1.3-4.1-1.8-.8-.4-1.5-1.1-2.1-1.9-.6-.8-.9-1.9-.9-3.2 0-1.8.7-3.3 2.1-4.6s3-1.9 5-1.9c2-.1 3.9.4 5.7 1.4zm8.3 1.8v5.4h4.5v1.4h-4.5v9.6c0 1.5.1 2.6.4 3s.9.7 2 .7c.8 0 1.8-.3 3-.8v1.7c-1.1.6-2.2.8-3.3.8-1.1 0-2-.3-2.7-.9s-1.1-1.5-1.1-2.5V10.1h-4.4V8.7h4.4V4.9l1.2-1.5h.5zm21.8 12.9H479c0 .3-.1.6-.1.8 0 1.8.6 3.3 1.9 4.6s2.8 1.9 4.6 1.9c2.1 0 4.1-.8 6-2.4v2c-1.9 1.4-3.9 2.1-6.2 2.1-2.3 0-4.3-.8-5.8-2.4s-2.3-3.7-2.3-6.2c0-2.4.7-4.3 2.1-5.9s3.2-2.3 5.3-2.3c2 0 3.7.7 5.1 2.1s2.1 3.3 2.1 5.7zm-12.5-1.4h10.5c-.6-3.2-2.3-4.7-5.1-4.7-1.3 0-2.5.4-3.4 1.2s-1.7 2-2 3.5zm18.1-6.1v.9c1.6-.8 3.3-1.2 4.9-1.2 2.3 0 4.2.8 5.7 2.4s2.3 3.6 2.3 6-.8 4.4-2.3 6-3.5 2.5-5.7 2.5c-1.6 0-3.2-.4-4.8-1.2v9.2h-1.7V8.7h1.6zm0 2.6v11c1.5.8 3 1.2 4.5 1.2 1.9 0 3.5-.6 4.7-1.8s1.8-2.8 1.8-4.8-.6-3.6-1.9-4.9-2.9-1.9-4.8-1.9c-1.4 0-2.8.4-4.3 1.2zm27.8-8V1.6c1.4-1.1 3.2-1.6 5.2-1.6 2.1 0 3.9.6 5.3 1.7s2 2.6 2 4.4c0 1.3-.4 2.4-1.1 3.4s-1.9 1.7-3.3 2.2v.1c3.2 1.1 4.8 3.2 4.8 6.3 0 2.2-.7 3.9-2.2 5.2s-3.2 1.9-5.2 1.9-3.9-.4-5.7-1.2v-1.7c1.7.8 3.5 1.2 5.4 1.2 1.7 0 3.1-.5 4.1-1.4s1.6-2.2 1.6-3.8c0-1.7-.6-3-1.7-4s-2.7-1.5-4.6-1.4v-1.7c1.8 0 3.3-.5 4.4-1.4s1.7-2.1 1.7-3.4c0-1.3-.5-2.4-1.6-3.3s-2.4-1.3-4-1.3c-1.9-.1-3.5.5-5.1 1.5z"/>
    <path class="st3" d="m618.8 54 11.4 9.5-11.4 9.5"/>
    <path class="st0" d="M650.5 42.5h141.7v45.9H650.5z"/>
    <path class="st1" d="M688.8 64.4h-3.4c-.7 2.6-1.7 4.6-3 6.1 3 1.2 5.4 2.4 7.3 3.4l-1.2 2c-2-1.2-4.5-2.5-7.6-3.8-.6.5-1.3.9-2.2 1.4-.9.5-1.8.8-2.7 1.1-.9.3-1.9.5-2.8.7-1 .2-2.1.4-3.4.6-.2-.6-.4-1.3-.8-2.1 4.2-.4 7.4-1.3 9.5-2.7-2.5-1-4.7-1.7-6.7-2.3.8-1 1.8-2.4 3-4.4h-6.5v-2c.4 0 1.1.1 2.2.1h5.4c.9-1.8 1.5-3.2 1.8-4.2l2.2.4c0 .1-.1.2-.2.4s-.2.5-.4 1-.6 1.3-1.1 2.3h10.5c1 0 1.8 0 2.2-.1v2c-.4.1-1.1.1-2.1.1zM669 60.6c0-.3.1-.5.1-.7v-4.1c0-.2 0-.4-.1-.7h9.7c-.1-.2-.3-.5-.5-.9-.3-.5-.5-.9-.8-1.3l1.9-.8c.6.8 1.1 1.8 1.8 3h8.7v5.5h-2.1V57h-16.5v3.6H669zm11.3 9.1c1.3-1.3 2.2-3.1 2.8-5.3h-5.9c-.6 1.1-1.3 2.2-2.1 3.4 1.3.4 3 1.1 5.2 1.9zm21.1-3.6v5.5l.1 1.9c0 .3-.1.6-.2.9-.1.3-.3.5-.6.7-.3.2-.5.3-.9.4-.3.1-.7.1-1 .2-.4 0-.7.1-1 .1l-1-2.3c.1 0 .2 0 .5.1.3 0 .6.1.9.1.3 0 .6 0 .9-.1.2-.1.4-.3.4-.6v-6c-.7.3-1.3.5-1.7.6l-1 .4-.3-2.1 1.1-.3c.4-.1 1-.3 2-.6v-5.3h-2.9v-1.9h2.9v-4.1c0-.3 0-.6-.1-.9 1 0 1.6 0 2.1.1 0 .3-.1.6-.1.9v4h2.3v1.9h-2.3V64c1.3-.5 2.1-.7 2.3-.8v2c-.4.1-1.2.4-2.4.9zm6.8-12.7-.1-.8h1.6c.3 0 .5 0 .6.1 0 .2-.1.5-.1.7v11.2c0 .6 0 1.3-.1 2.1s-.3 1.6-.5 2.4c-.3.8-.6 1.6-1 2.3-.4.7-.9 1.4-1.4 2-.5.6-1.1 1.1-1.6 1.5-.5.4-1 .7-1.5.9-.1-.1-.2-.3-.4-.5s-.4-.5-.7-.7-.4-.4-.5-.5c1.3-.6 2.4-1.4 3.2-2.2.9-.8 1.5-1.9 2-3.1-.7.2-1.8.5-3.2.8l-1 .3-.3-2.2 1.1-.2c.7-.1 2-.4 3.9-.9.1-.7.1-1.5.1-2.1v-.9h-3.8v-1.8h3.8v-3.5h-4.2v-1.9h4.1v-3zm10.6 14h1v2.1H715v5c0 .4 0 .9.1 1.5h-2.2c0-.6.1-1.1.1-1.5V53.7c0-.3 0-.7-.1-1.1h1.1c.5 0 .8 0 1.1.1v3.7h4.8v1.9H715v3.5h4.4v1.8H715v3.8h3.8zm15.3-5.6-.1.6c0 3.3 0 5.8-.1 7.4s-.2 2.8-.4 3.5c-.2.7-.6 1.2-1.2 1.6-.6.4-1.4.5-2.4.5-.1-.5-.4-1.3-.8-2.4.1.1.3.1.5.1s.4.1.6.1c.8 0 1.4-.4 1.6-1.2.1-.5.2-1.5.3-2.8 0-1.4.1-3.2.1-5.5h-2.8c-.1 1.9-.3 3.7-.6 5.1-.3 1.5-.6 2.8-1.1 3.9-.4 1.1-1 2.1-1.6 2.9-.2-.3-.4-.6-.7-1-.3-.4-.5-.8-.7-1 .7-.8 1.3-2 1.7-3.3s.7-3 1-4.9.4-4.1.4-6.7h-2.5v-2h9.1v2h-4.8c0 .1 0 1.1-.1 3.1h4.6zm-4.2-9.2c.3.5.6 1.1.9 1.7.3.6.5 1.2.7 1.7l-1.8.7c-.2-.5-.5-1.1-.8-1.8-.3-.7-.6-1.2-.9-1.7l1.9-.6zm3.9 7.2c.5-.4 1-1 1.5-1.7s1-1.6 1.5-2.6.9-2 1.1-3.1l1.8.4-.1.2c-.3.9-.5 1.7-.9 2.4h8.9v1.9H738c-.5.9-1 1.7-1.6 2.4-.6.7-1.1 1.3-1.6 1.7-.3-.4-.6-1-1-1.6zm12.9 10s.3.2.8.5.8.5 1 .6c-.1.8-.2 1.6-.4 2.1-.2.6-.5 1-1 1.4-.4.4-1.1.6-1.8.8-.8.2-1.8.3-3 .3-1.3 0-2.3 0-3-.1s-1.2-.2-1.5-.4c-.3-.1-.5-.3-.6-.6-.2-.3-.3-.6-.3-1-.1-.4-.1-.7-.1-1.1v-6.5l-.7.2c-.1 0-.3.1-.6.2s-.5.2-.7.2l-.2-1.8c.4-.1.9-.2 1.3-.4l.9-.3v-3.7c0-.2 0-.3-.1-.5l2 .2c0 .1-.1.2-.1.4v3.1l2.4-.7v-3.8h.9c.4 0 .7 0 .9.1v3.2l2.8-.9.3-.3c.2.1.4.3.7.5.3.2.5.5.8.7l-.2.1c0 1.3 0 2.4-.1 3.2 0 .9-.1 1.6-.3 2.1-.2.6-.5 1-1 1.3-.5.3-1.2.4-2.1.4 0-.1-.1-.3-.3-.9s-.3-.9-.4-1.1c.4.1.7.2 1 .2.1 0 .3 0 .4-.1.1-.1.3-.1.4-.3s.2-.3.3-.5c.1-.5.2-1.6.2-3.4l-2.6.8v6l.1 1h-1.9l.1-1v-5.5l-2.4.7v7.1c0 .4.1.7.2.9.2.2.4.3.7.4.3.1 1.3.1 3 .1.8 0 1.5 0 2-.1s.9-.3 1.3-.5c.3-.2.5-.6.6-1s.2-.8.2-1.3.1-.8.1-1zm27.4 1.7c1.1 0 1.8 0 2.2-.1v2.3c-.4 0-1.2-.1-2.2-.1h-17.7c-1.1 0-1.8 0-2.2.1v-2.3c.4 0 1.2.1 2.2.1h7.6V58h-6.3c-.9 0-1.6 0-2 .1v-2.2c.4 0 1 .1 2 .1h15.1c.9 0 1.6 0 2-.1v2.2c-.4 0-1-.1-2-.1h-6.5v13.4h7.8z"/>
    <path class="st2" d="M692.1 1.5v2.1c-2.1-1.3-4-1.9-5.5-1.9s-2.7.4-3.7 1.3-1.5 2-1.5 3.3c0 .9.3 1.8.9 2.6s1.8 1.5 3.7 2.2 3.2 1.3 4.1 1.8 1.6 1.1 2.2 2 .9 2 .9 3.5c0 1.9-.7 3.5-2.1 4.8s-3.1 2-5.1 2c-2 0-4.1-.7-6.3-2.1v-2.2c2.4 1.7 4.4 2.6 6.2 2.6 1.5 0 2.7-.5 3.7-1.4s1.5-2.1 1.5-3.5c0-1-.3-2-.9-2.8s-1.9-1.6-3.8-2.3c-1.9-.7-3.3-1.3-4.1-1.8-.8-.4-1.5-1.1-2.1-1.9-.6-.8-.9-1.9-.9-3.2 0-1.8.7-3.3 2.1-4.6s3-1.9 5-1.9c1.9-.1 3.8.4 5.7 1.4zm8.2 1.8v5.4h4.5v1.4h-4.5v9.6c0 1.5.1 2.6.4 3s.9.7 2 .7c.8 0 1.8-.3 3-.8v1.7c-1.1.6-2.2.8-3.3.8-1.1 0-2-.3-2.7-.9s-1.1-1.5-1.1-2.5V10.1h-4.4V8.7h4.4V4.9l1.2-1.5h.5zm21.9 12.9h-12.7c0 .3-.1.6-.1.8 0 1.8.6 3.3 1.9 4.6s2.8 1.9 4.6 1.9c2.1 0 4.1-.8 6-2.4v2c-1.9 1.4-3.9 2.1-6.2 2.1-2.3 0-4.3-.8-5.8-2.4s-2.3-3.7-2.3-6.2c0-2.4.7-4.3 2.1-5.9s3.2-2.3 5.3-2.3c2 0 3.7.7 5.1 2.1s2.1 3.3 2.1 5.7zm-12.5-1.4h10.5c-.6-3.2-2.3-4.7-5.1-4.7-1.3 0-2.5.4-3.4 1.2s-1.7 2-2 3.5zm18.1-6.1v.9c1.6-.8 3.3-1.2 4.9-1.2 2.3 0 4.2.8 5.7 2.4s2.3 3.6 2.3 6-.8 4.4-2.3 6-3.5 2.5-5.7 2.5c-1.6 0-3.2-.4-4.8-1.2v9.2H726V8.7h1.8zm0 2.6v11c1.5.8 3 1.2 4.5 1.2 1.9 0 3.5-.6 4.7-1.8s1.8-2.8 1.8-4.8-.6-3.6-1.9-4.9-2.9-1.9-4.8-1.9c-1.5 0-2.9.4-4.3 1.2zM766.4 0v13.9h3.4v1.5h-3.4v9.5h-1.8v-9.5h-11.2v-.6L765.7 0h.7zm-1.8 13.9V3.6L755.9 14h8.7z"/>
    <path class="st3" d="m815.7 54 11.3 9.5-11.3 9.5"/>
    <path class="st0" d="M847.3 42.5H989v45.9H847.3z"/>
    <path class="st1" d="M885.6 64.4h-3.4c-.7 2.6-1.7 4.6-3 6.1 3 1.2 5.4 2.4 7.3 3.4l-1.2 2c-2-1.2-4.5-2.5-7.6-3.8-.6.5-1.3.9-2.2 1.4-.9.5-1.8.8-2.7 1.1-.9.3-1.9.5-2.8.7-1 .2-2.1.4-3.4.6-.2-.6-.4-1.3-.8-2.1 4.2-.4 7.4-1.3 9.5-2.7-2.5-1-4.7-1.7-6.7-2.3.8-1 1.8-2.4 3-4.4h-6.5v-2c.4 0 1.1.1 2.2.1h5.4c.9-1.8 1.5-3.2 1.8-4.2l2.2.4c0 .1-.1.2-.2.4s-.2.5-.4 1-.6 1.3-1.1 2.3h10.5c1 0 1.8 0 2.2-.1v2c-.3.1-1 .1-2.1.1zm-19.7-3.8c0-.3.1-.5.1-.7v-4.1c0-.2 0-.4-.1-.7h9.7c-.1-.2-.3-.5-.5-.9-.3-.5-.5-.9-.8-1.3l1.9-.8c.6.8 1.1 1.8 1.8 3h8.7v5.5h-2.1V57H868v3.6h-2.1zm11.2 9.1c1.3-1.3 2.2-3.1 2.8-5.3H874c-.6 1.1-1.3 2.2-2.1 3.4 1.3.4 3.1 1.1 5.2 1.9zm34.1 1.9c1.6 1 3.5 1.8 5.8 2.3-.2.2-.3.5-.6.9s-.4.7-.5.9c-1.3-.3-2.5-.8-3.7-1.3-1.1-.5-2.1-1.2-3.1-1.9-.9-.7-1.7-1.5-2.4-2.4s-1.3-1.9-1.7-3h-1.5c-.8.7-1.7 1.5-2.7 2.1v4.4c2.4-.6 4.4-1.2 5.9-1.6-.1.8-.2 1.5-.2 2-3.7.9-5.9 1.5-6.6 1.7-.1 0-.2.1-.4.1-.2.1-.5.2-1.1.4l-.6-1.8c.3-.1.6-.3.7-.5.1-.2.2-.5.2-.8v-2.4c-.7.4-1.5.8-2.4 1.1-.9.4-1.7.7-2.5.9-.1-.3-.5-.9-1-1.8 1.4-.3 2.9-.8 4.4-1.5 1.5-.7 2.8-1.4 3.8-2.1h-7.7v-1.8h11c-.4-.7-.8-1.5-1.4-2.2l1.8-.8c.6.7 1.1 1.5 1.6 2.4l-1.5.6h11.5v1.8H907c.3.6.7 1.2 1.1 1.8.5.6.9 1.1 1.5 1.6.6-.4 1.3-.8 2.1-1.4.8-.5 1.3-1 1.7-1.4l1.7 1.2-.3.2c-1.2.7-2.4 1.5-3.6 2.3zm-18-8.1c.4-.1.8-.3 1.2-.6.4-.3.8-.6 1.2-1s.6-.9.7-1.4h-2.9v-1.7h6.7v-1.6h-5.4c0-.2.1-.4.1-.7v-3.8h1c.5 0 .8 0 .9.1v2.7h3.5v-3c1 0 1.6 0 2 .1v10.7c0 .3 0 .6.1 1H900c0-.3.1-.7.1-1v-2.9H898c-.1.7-.3 1.3-.6 1.9-.3.6-.8 1.1-1.2 1.5s-.9.6-1.3.8c-1-.6-1.5-1-1.7-1.1zm15.2-6.3h-4.1c-.7 0-1.2 0-1.5.1v-1.8c.3 0 .8.1 1.5.1h4.1v-2.1l-.1-.8c1 0 1.8 0 2.2.1 0 .2-.1.5-.1.7v2.1h4.5c.7 0 1.2 0 1.5-.1v1.8c-.3 0-.8-.1-1.5-.1h-4.5v3.2h5.1v1.8h-12v-1.8h4.9v-3.2zm34.4 12.1c.4.3 1 .7 2 1.2 0 1-.1 1.8-.3 2.4s-.4 1.1-.8 1.5c-.4.4-.9.6-1.6.8-.7.2-1.5.3-2.6.3s-1.9 0-2.6-.1c-.7-.1-1.2-.2-1.5-.4-.2-.1-.4-.3-.5-.6-.1-.3-.2-.7-.2-1.3v-6.7h-3.3c-.1 1.8-.5 3.3-1 4.5-.6 1.1-1.4 2.1-2.5 2.9s-2.7 1.4-4.7 2c-.1-.3-.5-.9-1.2-2 1.8-.4 3.2-.9 4.2-1.5s1.8-1.4 2.3-2.3c.5-.9.8-2.1.9-3.5h-5c-1 0-1.7 0-2.2.1v-2h22.5v2c-.4 0-1.1-.1-2.2-.1h-5.6v6.1c0 .5.2.8.5.9.2.1 1 .1 2.4.1.5 0 .9 0 1.2-.1.3-.1.6-.1.8-.2.2-.1.3-.2.5-.3.2-.3.4-.7.5-1.2v-2.5zm-19.7-8.5c0-.3.1-.5.1-.7V56c0-.2 0-.4-.1-.7h9.8c-.2-.4-.5-.9-.7-1.3-.3-.4-.5-.8-.6-1l1.9-.8c.5.8 1.1 1.8 1.7 3.1h8.6v5.5h-2.1v-3.7h-16.5v3.7h-2.1zm3.7-.9c.3 0 .8.1 1.5.1h10.3c.7 0 1.2 0 1.5-.1v2c-.3 0-.8-.1-1.5-.1h-10.3c-.7 0-1.2 0-1.5.1v-2zm45.6 8.9c.8 1 1.4 1.6 1.7 1.9-.3 3.3-1.2 4.9-2.9 4.9-.5 0-1.1-.1-1.6-.4-.6-.3-1.1-.7-1.6-1.2s-.9-1.1-1.2-1.6c-.3-.5-.6-1-.8-1.3-.8.8-1.6 1.5-2.5 2.1s-1.8 1.1-2.7 1.5-1.7.7-2.4.9c-.1-.2-.3-.5-.6-.8-.3-.3-.5-.6-.8-.9 1.7-.4 3.2-1.1 4.6-1.9 1.4-.8 2.6-1.8 3.6-2.9-1.1-2.8-1.9-6.2-2.4-10.1h-8v3.5h6.6c0 .2-.1.5-.1.6 0 1.8-.1 3.2-.1 4.2-.1 1-.2 1.8-.4 2.3-.2.6-.7 1.1-1.4 1.4-.7.3-1.6.5-2.8.5-.1-.2-.3-1-.8-2.3.4.2.9.2 1.4.2.9 0 1.5-.3 1.8-.9.1-.2.2-.5.2-1s.1-1.5.1-3.2h-4.6c0 .5-.1 1.3-.2 2.4-.1 1.1-.3 2.3-.6 3.5-.3 1.2-.6 2.3-1.1 3.1-.4.8-.8 1.5-1.3 2l-1.6-1.7c.9-1 1.6-2.3 2-4.1.5-1.8.7-4 .7-6.5v-6.1h9.8c-.1-1.1-.2-2.3-.2-3.6l-.1-.9c1.3.1 2 .1 2.1.2v.8c.1 1.6.1 2.8.2 3.5h6.3c.9 0 1.5 0 1.9-.1v2h-8c.4 3.2 1 5.9 1.8 8.2.6-.9 1.2-1.9 1.7-3s.9-2.1 1.2-3.1l1.9 1.1-.1.2c-1 2.7-2.3 4.9-3.8 6.9.6 1.3 1.2 2.2 1.9 2.9.7.7 1.3 1 1.8 1 .1 0 .2 0 .3-.1s.3-.3.4-.5c.1-.3.2-.6.3-1 .1-.4.1-.9.2-1.4.2-.4.2-.9.2-1.2zm-.7-13.5-1.2 1.5c-.5-.4-1.1-.9-1.9-1.5s-1.5-1-2.1-1.2l1.1-1.4c.6.3 1.3.7 2.1 1.2.7.5 1.4.9 2 1.4z"/>
    <path class="st2" d="M889 1.5v2.1c-2.1-1.3-4-1.9-5.5-1.9s-2.7.4-3.7 1.3-1.5 2-1.5 3.3c0 .9.3 1.8.9 2.6s1.8 1.5 3.7 2.2 3.2 1.3 4.1 1.8 1.6 1.1 2.2 2 .9 2 .9 3.5c0 1.9-.7 3.5-2.1 4.8s-3.1 2-5.1 2c-2 0-4.1-.7-6.3-2.1v-2.2c2.4 1.7 4.4 2.6 6.2 2.6 1.5 0 2.7-.5 3.7-1.4s1.5-2.1 1.5-3.5c0-1-.3-2-.9-2.8s-1.9-1.6-3.8-2.3c-1.9-.7-3.3-1.3-4.1-1.8-.8-.4-1.5-1.1-2.1-1.9-.6-.8-.9-1.9-.9-3.2 0-1.8.7-3.3 2.1-4.6s3-1.9 5-1.9c1.9-.1 3.8.4 5.7 1.4zm8.2 1.8v5.4h4.5v1.4h-4.5v9.6c0 1.5.1 2.6.4 3s.9.7 2 .7c.8 0 1.8-.3 3-.8v1.7c-1.1.6-2.2.8-3.3.8-1.1 0-2-.3-2.7-.9s-1.1-1.5-1.1-2.5V10.1h-4.4V8.7h4.4V4.9l1.2-1.5h.5zm21.9 12.9h-12.7c0 .3-.1.6-.1.8 0 1.8.6 3.3 1.9 4.6s2.8 1.9 4.6 1.9c2.1 0 4.1-.8 6-2.4v2c-1.9 1.4-3.9 2.1-6.2 2.1-2.3 0-4.3-.8-5.8-2.4s-2.3-3.7-2.3-6.2c0-2.4.7-4.3 2.1-5.9s3.2-2.3 5.3-2.3c2 0 3.7.7 5.1 2.1s2.1 3.3 2.1 5.7zm-12.6-1.4H917c-.6-3.2-2.3-4.7-5.1-4.7-1.3 0-2.5.4-3.4 1.2s-1.6 2-2 3.5zm18.1-6.1v.9c1.6-.8 3.3-1.2 4.9-1.2 2.3 0 4.2.8 5.7 2.4s2.3 3.6 2.3 6-.8 4.4-2.3 6-3.5 2.5-5.7 2.5c-1.6 0-3.2-.4-4.8-1.2v9.2H923V8.7h1.6zm0 2.6v11c1.5.8 3 1.2 4.5 1.2 1.9 0 3.5-.6 4.7-1.8s1.8-2.8 1.8-4.8-.6-3.6-1.9-4.9-2.9-1.9-4.8-1.9c-1.4 0-2.8.4-4.3 1.2zm39-11V2h-8.7v7.8c.7-.1 1.3-.2 2-.2 2.4 0 4.4.7 5.9 2.1s2.2 3.2 2.2 5.5-.8 4.2-2.3 5.7-3.4 2.3-5.7 2.3c-1.9 0-3.9-.5-5.9-1.6v-2.1c2.3 1.3 4.3 2 6 2 1.8 0 3.2-.6 4.3-1.7s1.7-2.6 1.7-4.4c0-1.9-.6-3.4-1.8-4.5s-2.8-1.6-4.8-1.6c-1.1 0-2.2.2-3.4.5V.3h10.5z"/>
</svg>
