<svg xmlns="http://www.w3.org/2000/svg" width="1000.3" height="45.9" style="overflow:visible;enable-background:new 0 0 1000.3 45.9" xml:space="preserve">
    <style>
        .st0{fill:#1a1a1a}.st1{fill:#fff}.st2{fill:none;stroke:#3aae36;stroke-width:2;stroke-miterlimit:10}
    </style>
    <path class="st0" d="M0 0h141.7v45.9H0zm663.1 0h141.7v45.9H663.1zM198.2 0h177.2v45.9H198.2z"/>
    <path class="st1" d="M19.8 20.8h20.7v2.3c-.4 0-1.2-.1-2.3-.1H19.8c-1.1 0-1.8 0-2.3.1v-2.3h2.3zm33.9 8.1c-.1.8-.1 1.4-.1 1.8l-6.2 1.9-1 .4-.5-1.9 1.1-.2c.5-.1 1.2-.3 2.1-.6v-7h-1.7c-.5 0-.8 0-1 .1v-1.8h2.7v-3h-1.7V17c-.3.4-.7.8-1.1 1.2-.2-.6-.5-1.3-.8-1.9.3-.3.7-.7 1.2-1.3.5-.6 1-1.3 1.4-2.1s.9-1.7 1.1-2.5l1.8.3-.1.3-.3.9c1.5 1.1 2.7 2.1 3.7 3.2l-1 1.6c-.5-.6-1-1.2-1.6-1.8-.6-.6-1.2-1.1-1.8-1.6-.7 1.3-1.5 2.5-2.3 3.5h5v1.7h-1.8v3h2.4v1.8c-.2 0-.6-.1-1-.1h-1.4v6.6c1.1-.3 2.1-.7 2.9-.9zm-5.4-.1-1.1.5c-.3-1.8-.6-3.1-.8-4.2l1.3-.3c.1.6.3 1.2.4 2 0 .7.1 1.4.2 2zm3.2-.8c.1-.3.2-.6.3-1 .1-.4.2-.9.3-1.4.1-.5.2-1 .2-1.3l1.2.4-.1.2c-.1.5-.2 1.2-.4 1.9s-.3 1.3-.4 1.7l-1.1-.5zm12.8 3.5c2 0 3.8-.1 5.4-.3-.2.9-.4 1.5-.5 1.9-1.5.2-3.2.3-4.9.3-1.2 0-2.3-.2-3.3-.4-1-.3-1.9-.6-2.6-1.1-.8-.5-1.4-1-2-1.7-.3.7-.8 1.4-1.2 2-.5.6-1 1.1-1.5 1.6-.2-.3-.6-.9-1.1-1.6 1.1-.8 2-2 2.8-3.7-.8-1.4-1.3-3.2-1.5-5.3l1.6-.8c.1.7.1 1.4.3 2.1s.3 1.3.5 1.8c.4-1.7.7-3.4.8-5.4h-3.3v-1.7c.6-1 1.2-2 1.7-3.1s.9-2.1 1.2-3h-3.3v-1.8H57l.2-.2c.6.5 1.2.9 1.5 1.3-.1.1-.2.1-.3.1-.4 1-.9 2.1-1.4 3.4-.6 1.2-1.1 2.3-1.7 3.3h1.9l.2-.2c.6.5 1.1.9 1.3 1.1l-.2.1c-.3 3.4-.8 6.2-1.5 8.1.4.6.9 1.1 1.4 1.5.5.4 1.1.7 1.7 1s1.3.4 2 .5c.7.1 1.5.2 2.2.2zm-5.1-15.8h3.1v-2.1h-3v-1.7h3v-1l-.1-.6c.9 0 1.5 0 1.9.1 0 .2-.1.4-.1.6v1h4.1v3.6h1.5v1.7h-1.5V21H64v2h4.2v1.7H64v2h5.1v1.8H64v1.4c0 .4 0 .7.1.9h-1.9c0-.2.1-.5.1-.9v-1.4h-4.1v-1.8h4.1v-2h-3.4V23h3.4v-1.9h-3v-1.7h3v-2.2H58v-1.6c.2.1.6.1 1.2.1zm4.9-2.1v2.1h2.3v-2.1h-2.3zm0 5.8h2.3v-2.2h-2.3v2.2zm28.1 7.4h3.3c1 0 1.8 0 2.2-.1v1.8h-5.5v1.2l.1 1.6c0 .3-.1.6-.2.8-.1.3-.3.5-.7.7s-.8.4-1.5.5c-.7.1-1.6.2-2.8.2-.3-.7-.6-1.4-1-2.1.2 0 .6.1 1 .1s.8.1 1.2.1c.7 0 1.1-.1 1.4-.2.3-.1.4-.4.4-.7v-2.3H74.5v-1.8c.4 0 1.1.1 2.2.1h13.5v-1.4h-1.6c-2.9 0-5.1-.3-6.6-.8-1.6-.5-2.6-1.2-3.1-2.2-.4.5-1 1.1-1.6 1.5-.6.5-1.2.9-1.9 1.2-.1-.2-.3-.5-.5-.8-.2-.3-.4-.5-.5-.7.7-.3 1.4-.7 2-1.1.6-.4 1.1-.9 1.5-1.4.4-.5.6-.9.8-1.4h-2.8l-.4-1.4c.3-.1.6-.3.9-.5.2-.2.5-.5.9-.8s.6-.7.9-1.1h-3.3v-1.6h4.4l.2-.2c.2.1.4.2.7.4.3.2.6.4.8.5l-.2.1c-.3.5-.7 1-1.1 1.5-.4.5-.9 1-1.3 1.5h1l.3-.2c.2.1.7.4 1.4.9l-.3.2c-.1.2-.1.5-.3.8s-.3.6-.4.8c.1.5.3.9.6 1.3.4.4.9.7 1.6.9.7.2 1.6.4 2.7.5 1.1.1 2.4.2 3.9.2 1.6 0 3.3-.1 5.1-.2 1.8-.1 3.2-.2 4.3-.4l-.7 2.2c-1.3.2-3.1.3-5.4.4v1.4zM78.8 14.5c-.3-.3-.6-.7-1-1.1l-1.1-1.1c-.3-.3-.6-.5-.8-.7l1.2-1.1c.5.3 1 .8 1.5 1.3.6.5 1 1 1.5 1.5l-1.3 1.2zM79 30l1.2-1.3c.7.2 1.6.5 2.5 1 1 .4 1.8.9 2.5 1.3-.4.4-.8 1-1.3 1.6-.6-.4-1.4-.9-2.4-1.4-1-.5-1.8-.9-2.5-1.2zm9-16.5h-7v-1.6h4.5c-.5-.6-.8-1.1-1.1-1.5l1.9-.3c.3.3.7.9 1.2 1.7h3.3c.2-.3.4-.6.6-1 .2-.3.3-.6.3-.8l2 .4c-.1.1-.2.2-.2.3l-.7 1h4.9v1.6h-7.8l-.5 1.1h6.2v7.9H82.8c0-.3.1-.5.1-.8v-6.3c0-.2 0-.5-.1-.8h4.7c.3-.2.4-.6.5-.9zm5.7 3.4v-1h-8.9v1h8.9zM84.8 18v1h8.9v-1h-8.9zm0 3.3h8.9v-1.2h-8.9v1.2zm28.1 1.5h-.2v6.8l.1 1.7c0 .3-.1.6-.2.9-.1.3-.4.5-.7.6-.3.2-.7.3-1.2.4-.5.1-1.1.1-1.8.1-.2-.5-.4-1.1-.8-1.9.6.1 1.1.1 1.5.1.5 0 .8-.1 1-.2.2-.1.3-.3.3-.5v-8h-4.2c-.1 2.4-.3 4.6-.7 6.4-.4 1.9-1 3.3-1.7 4.3l-1.4-1.4c.6-.9 1-2.2 1.3-3.8s.5-3.4.6-5.6h-1.9V21h1.9v-7.5h2.4c.2-.5.4-1 .6-1.7.2-.6.3-1.1.4-1.5.6.1 1.3.2 2.1.4-.1.1-.1.2-.2.3-.2.8-.5 1.6-.8 2.5h3.5l-.1 1.1V21h1.7v1.8h-1.5zm-6.2-1.8h4.2v-5.8h-4.2V21zm3.7 6.7-1.4.8c-.2-.7-.5-1.5-.9-2.3s-.6-1.4-.9-1.8l1.3-.6c.4.5 1 1.8 1.9 3.9zm-1.9-11.4s.1.1.1.2.2.3.4.6.4.7.6 1.2c.2.5.4.9.6 1.2l-1.4.7c-.1-.2-.3-.7-.5-1.3s-.6-1.3-1-2l1.2-.6zm16.7 10.6c.9.6 1.5 1 1.8 1.1 0 1.6-.1 2.8-.3 3.5-.2.7-.5 1.2-1 1.4-.5.3-1.1.4-2 .4-.5 0-1 0-1.4-.1-.4-.1-.8-.2-1.1-.4-.1-.1-.2-.2-.3-.4s-.2-.4-.2-.7c-.1-.3-.1-.6-.1-1v-10h-2.9v3.8c0 1-.1 2-.3 3-.2.9-.4 1.8-.7 2.6-.3.8-.7 1.5-1.2 2.1-.5.6-1 1.1-1.5 1.6-.5-.8-.9-1.4-1.2-1.8 1-.8 1.7-1.8 2.2-3s.8-2.7.8-4.6v-4.9l-.1-.6h6.8v12c0 .3.1.5.3.6.1.1.4.1.9.1s.9-.2 1.1-.6c.1-.3.2-.7.2-1.3.2-.6.2-1.5.2-2.8zm-.4-10.2h-11v-1.9h5.7c-.6-1.2-1.3-2.4-2.2-3.7l1.7-.8c.8 1.1 1.6 2.3 2.3 3.6l-1.8.8h6.7v1.9c-.3.1-.8.1-1.4.1zM682.5 20v12.2l.1 1.4h-2.1l.1-1.4V12c0-.2 0-.4-.1-.6h9.1V20h-7.1zm5.1-7.1h-5.1v1.9h5.1v-1.9zm-5.1 5.4h5.1v-2h-5.1v2zm13.4 9.4h-1.8v4.7c0 .5 0 .8.1 1h-1.9v-5.7h-2.7c-.2 1-.5 1.9-.9 2.7-.4.8-.9 1.5-1.5 2s-1.1.9-1.6 1.2c-.2-.3-.6-.8-1.2-1.5.6-.3 1.2-.8 1.7-1.3s.9-1 1.1-1.6.4-1.1.5-1.5h-3.1V26h3.2v-2.6h-2.6v-1.7h11.4v1.7h-2.5V26h3.2v1.7h-1.4zm-6.2-1.6h2.5v-2.6h-2.5v2.6zm11.6-13.5v17l.1 1.7c0 .7-.3 1.3-1 1.7-.7.4-1.8.5-3.5.5l-1-2.1c.5.1 1.1.1 1.8.1.4 0 .8 0 1.1-.1.3-.1.5-.3.5-.6V20h-7c0-.3.1-.6.1-.8v-7c0-.2 0-.5-.1-.8h9.1l-.1 1.2zm-2 .3h-5v1.9h5v-1.9zm-5 5.4h5v-2h-5v2zm22.9-2.5c-.4 4-1.1 7.4-2.2 10.1 1.1.7 1.9 1.4 2.7 2-.3.6-.7 1.3-1.2 2-.5-.5-1.3-1.2-2.4-2.1-1.4 2.6-3.3 4.6-5.6 5.8-.1-.1-.2-.3-.4-.6s-.5-.6-.9-1.1c2.2-1.3 4-3.1 5.3-5.4l-2.1-1.5c-.7-.5-1.4-.9-1.9-1.2.6-1.6 1.1-3.7 1.7-6.3h-2.5v-1.9h2.9c.4-2.2.7-4.1.9-5.6l2.1.2-.2.7c-.2 1.5-.5 3-.8 4.7h4.6zm-6.5 7.4c.6.3 1.5.9 2.7 1.6.8-1.9 1.4-4.3 1.7-7.2h-3c-.4 1.9-.9 3.7-1.4 5.6zm18.1-3c-1 .1-2.3.2-4.1.4-1.8.2-3.5.4-5.1.7l-1.1.2-.7-2c.2 0 .6-.3 1-.8s.9-1.2 1.4-2.2c.5-1 1-2 1.5-3.2.5-1.2.8-2.2 1.1-3.2.6.2 1.3.4 2 .7l-.3.3c-.5 1.4-1 2.9-1.7 4.3s-1.4 2.7-2.1 3.7c.8-.1 1.8-.2 3-.3 1.3-.2 2.7-.3 4.3-.6-.7-1.4-1.4-2.5-2.1-3.3l1.6-.8c.6.8 1.3 1.9 2 3.1.7 1.2 1.3 2.5 1.9 3.8l-1.8.8c-.3-.3-.5-.9-.8-1.6zm1.2 3.3v10.3h-2.1v-1.4h-6.7v1.4h-2.1c0-.4.1-.7.1-.9v-8.5c0-.2 0-.5-.1-.9H730zm-8.8 7h6.7v-5.2h-6.7v5.2zm36.4-4.2 2.1 1.3c-.1 1.7-.3 3-.6 3.7-.3.8-.9 1.3-1.6 1.7-.7.3-1.8.5-3.2.5-1 0-1.8 0-2.5-.1s-1.2-.2-1.6-.4c-.3-.2-.5-.5-.6-.9-.1-.4-.2-.9-.2-1.6V22l-3.1.2c0 1.6-.2 3.1-.6 4.3-.4 1.3-.9 2.4-1.6 3.3-.7.9-1.6 1.7-2.6 2.4-1.1.6-2.3 1.1-3.7 1.5-.1-.2-.7-.8-1.6-1.9 1.4-.3 2.6-.8 3.6-1.3s1.8-1.2 2.5-1.9c.6-.8 1.1-1.7 1.4-2.7.3-1 .5-2.2.5-3.6l-3.5.2c-.9.1-1.5.1-1.8.1l-.6-2c.3-.1.8-.3 1.5-.7.7-.4 1.5-1.1 2.5-2.1s1.9-1.9 2.6-2.9H739c-1.1 0-1.8 0-2.2.1v-2.1c.4 0 1.2.1 2.2.1h8.4c-.3-.6-.8-1.4-1.5-2.3l2.1-.6c.4.6.8 1.2 1.1 1.8.3.5.5.9.6 1.1h7.4c1 0 1.8 0 2.2-.1V15c-.4 0-1.1-.1-2.2-.1h-9.6c-.6.9-1.5 1.8-2.5 2.9s-1.9 2-2.7 2.7c3.4-.1 7.1-.4 11-.8-.9-.8-1.8-1.6-2.7-2.3l1.5-1.1c.9.7 2 1.6 3.2 2.7 1.2 1.1 2.3 2.2 3.2 3.3l-1.7 1.4c-.4-.6-1.1-1.4-1.9-2.3l-3.5.3v8.8c0 .4.2.7.6.8.1 0 .2.1.5.1h1.9c.6 0 1.1-.1 1.5-.2.4-.1.7-.3.9-.6.1-.1.2-.4.4-.7.1-.3.2-.8.3-1.5.1-.4.1-1.2.1-2.1zm18.1-10.5h-8v4.3h-2.1c0-.3.1-.5.1-.7V15c0-.2 0-.4-.1-.7h10.1v-1.5h-6.8c-.9 0-1.5 0-1.9.1V11h19.4v1.8c-.4 0-1-.1-1.8-.1h-7v1.5h10.2V20h-2.1v-4.3h-8.2v4.7c0 .4 0 .7.1.9h-2c0-.2.1-.5.1-.9v-4.6zm11.2 12.3c.2.1.5.3.8.5.3.2.7.4 1 .6v.4c0 .2-.1.5-.2.9s-.2.8-.4 1.1c-.2.4-.5.7-.9 1-.4.3-1 .5-1.8.7-.8.2-2 .3-3.5.3-1.4 0-2.5 0-3.4-.1-.9-.1-1.5-.2-1.8-.4-.3-.2-.6-.5-.7-.8s-.2-.6-.2-.9v-1.3h-5.6v1.7h-1.9c0-.3.1-.6.1-.9v-7.7c0-.3 0-.5-.1-.9h17.2V30h-7.7v.6c0 .5.2.7.7.9.5.1 1.7.2 3.7.2.7 0 1.4 0 2-.1.7-.1 1.2-.3 1.7-.5.3-.2.6-.6.8-1.1.1-.4.2-1 .2-1.9zm-12.8-11v1.2h-4.9v-1.2h4.9zm-3.9 2.4h4v1.2h-4.9v-1.2h.9zm5.5 4.5h-5.6v1.6h5.6V24zm-5.6 4.7h5.6V27h-5.6v1.7zm13.4-3.1V24h-5.9v1.6h5.9zm-5.9 3.1h5.9V27h-5.9v1.7zm6.4-11.6v1.2h-4.9v-1.2h4.9zm-3.9 2.4h4v1.2h-4.9v-1.2h.9zm-562.4-4.1h2.7v1.9h-2.7V22c1.3-.5 2-.7 2.2-.8l-.1 2.1-2.2.8v5.5l.1 1.9c0 .5-.2.9-.5 1.3-.3.3-.7.6-1.3.7s-1.2.2-2 .2l-1-2.3c.5.1.9.1 1.5.1.4 0 .7 0 .9-.1.2-.1.4-.3.4-.6v-6.1l-1.8.6c-.4.1-.7.3-1 .4l-.4-2.1c.3-.1.7-.1 1.1-.2.6-.1 1.2-.4 2.1-.6v-5.3h-3.1v-1.9h3.1v-4.1c0-.3 0-.6-.1-.9 1 0 1.6 0 2.1.1 0 .3-.1.6-.1.9v3.8zm18 5.2v4.8h-1.8v4.5c0 .6-.3 1.1-.8 1.4-.6.3-1.4.5-2.6.5l-.8-1.9c.6.1 1 .1 1.3.1.2 0 .4 0 .6-.1.2 0 .3-.1.4-.2.1-.1.1-.2.1-.4V26h-2.9v7.7H227c0-.3.1-.7.1-.9V26h-2.7v6h-2c0-.2.1-.4.1-.8v-6.3c0-.2 0-.4-.1-.6h4.7v-1.5c.5 0 1.2 0 2.1.1v1.4h4.7v-2.1h-11.4v3.2h-2c0-.3.1-.5.1-.7v-3.4c0-.2 0-.4-.1-.7h15.2zm-1.3-6.2h1.6V16c-.3 0-.9-.1-1.6-.1h-.5v3.2h-12.3v-1.6h10.3v-1.6h-9.4c-.7 0-1.3 0-1.6.1v-1.6h11v-1.5h-10.2v-1.6H234v3h.4zm12.1 1.1h2.5v1.9h-2.5V22c1.2-.4 2-.7 2.4-.9l-.1 2-2.3.8v5.4l.1 2c0 .3-.1.7-.3 1-.2.4-.6.6-1.2.9-.6.2-1.4.3-2.4.3l-1-2.3c.5.1.9.1 1.5.1.5 0 .8-.1 1-.2.2-.1.3-.3.3-.5v-5.9l-1.7.6-1 .4-.4-2.1 1.1-.3c.4-.1 1.1-.3 2-.6v-5.3h-3v-1.9h3v-4c0-.3 0-.7-.1-1 .6 0 1.3 0 2.1.1 0 .3-.1.7-.1.9v4zm5.9.2H251c-.7 0-1.3 0-1.6.1v-2c.3 0 .9.1 1.6.1h1.4v-3.3c.5 0 1.2 0 2.1.1v3.2h.3c.8 0 1.3 0 1.6-.1v2c-.3 0-.9-.1-1.6-.1h-.3V18c0 .2 0 .5.1.8h-2.1v-3.1zm11 4.4v13.7h-2v-1.4h-8.9v1.4h-2.1c0-.4.1-.8.1-1.1V21.1l-.1-1.1h13zm-7.4 1.8h-3.5v3.4h3.5v-3.4zm-3.5 8.6h3.5V27h-3.5v3.5zm10.4-16.7c.8 0 1.3 0 1.6-.1v2c-.3 0-.9-.1-1.6-.1h-1.6V18c0 .2 0 .5.1.8h-2.1c0-.3.1-.6.1-.8v-2.4h-.4c-.7 0-1.3 0-1.6.1v-2c.3 0 .9.1 1.6.1h.3v-3.3c.5 0 1.2 0 2.1.1v3.2h1.5zm-1.5 8.1h-3.6v3.4h3.6v-3.4zm-3.6 8.6h3.6V27h-3.6v3.5zm30.5 2.6-2.5 2.5c-.8 0-1.6-.2-2.5-.4-.9-.2-1.7-.6-2.6-1-.9-.4-2.1-1.1-3.6-2.2-2.2-.4-3.9-1.4-5.3-3.1-1.4-1.7-2.1-3.6-2.1-5.7 0-2.6.9-4.8 2.7-6.6s4.1-2.6 6.8-2.6 5 .9 6.8 2.6c1.8 1.7 2.7 3.9 2.7 6.5 0 2.2-.7 4.1-2.1 5.8s-3.1 2.7-5.3 3.1l.7.3c2.1.8 3.6 1.2 4.5 1.2.5-.1 1.1-.2 1.8-.4zm-9.1-16.7c-2 0-3.6.6-4.9 1.9s-2 2.9-2 4.9c0 1.9.7 3.5 2 4.8 1.3 1.3 3 1.9 4.9 1.9 2 0 3.6-.6 4.9-1.9s2-2.9 2-4.8-.7-3.5-2-4.8-2.9-2-4.9-2zm14 15.5V14.2h4.4c1.8 0 3.2.4 4.3 1.3 1.1.9 1.6 2.1 1.6 3.6 0 1-.3 1.9-.8 2.7s-1.3 1.3-2.2 1.7c.6.4 1.1.9 1.7 1.5s1.3 1.8 2.3 3.4c.6 1 1.1 1.8 1.5 2.3l.9 1.3h-3l-.8-1.2-.2-.2-.5-.7-.8-1.3-.8-1.4c-.5-.7-1-1.3-1.4-1.7s-.8-.7-1.2-.9c-.4-.2-.9-.3-1.8-.3h-.7V32h-2.5zm3.3-15.5h-.8V22h1c1.3 0 2.2-.1 2.6-.3.5-.2.9-.6 1.1-1 .3-.4.4-1 .4-1.5 0-.6-.1-1.1-.4-1.5-.3-.5-.7-.8-1.3-1-.4-.2-1.3-.3-2.6-.3zm22.1 12.8v2.3c-1.2.4-2.3.6-3.4.6-1.8 0-3.3-.5-4.4-1.6-1.1-1.1-1.6-2.5-1.6-4.4 0-1.8.5-3.3 1.6-4.4s2.5-1.7 4.2-1.7c.6 0 1.1.1 1.6.2s1.1.3 1.8.6v2.5c-1.2-.7-2.3-1.1-3.2-1.1-1 0-1.9.4-2.6 1.1-.7.7-1 1.7-1 2.8 0 1.2.4 2.1 1.1 2.8.7.7 1.7 1.1 2.9 1.1.8 0 1.8-.3 3-.8zm9.5-9c1.8 0 3.3.6 4.4 1.7 1.2 1.1 1.8 2.6 1.8 4.3 0 1.7-.6 3.1-1.8 4.2-1.2 1.1-2.7 1.7-4.5 1.7-1.8 0-3.2-.6-4.4-1.7-1.2-1.1-1.8-2.5-1.8-4.2 0-1.7.6-3.1 1.8-4.3 1.2-1.1 2.7-1.7 4.5-1.7zm-.1 2.1c-1.1 0-2 .4-2.7 1.1s-1.1 1.7-1.1 2.8c0 1.1.4 2 1.1 2.7.7.7 1.7 1.1 2.8 1.1 1.1 0 2.1-.4 2.8-1.1.7-.7 1.1-1.6 1.1-2.7s-.4-2-1.1-2.8-1.8-1.1-2.9-1.1zm18-8.1h2.3v17.7h-4.9c-1.7 0-3.1-.5-4.1-1.6-1-1.1-1.5-2.6-1.5-4.4 0-1.7.5-3.1 1.6-4.2s2.5-1.7 4.1-1.7c.8 0 1.6.2 2.5.5v-6.3zm0 15.8v-7.4c-.7-.4-1.4-.5-2.2-.5-1.2 0-2.1.4-2.7 1.1-.7.8-1 1.8-1 3s.3 2.1.9 2.8c.4.4.7.7 1.1.8s1.1.2 2.1.2h1.8zm16.7-3.7h-8.2c.1 1.1.4 2 1.1 2.7.7.7 1.6 1 2.7 1 1.5 0 2.9-.5 4.2-1.4v2.3c-.7.5-1.4.8-2.1 1-.7.2-1.5.3-2.5.3-1.3 0-2.3-.3-3.1-.8s-1.4-1.3-1.9-2.2c-.5-.9-.7-1.9-.7-3.1 0-1.8.5-3.2 1.5-4.3 1-1.1 2.3-1.7 3.9-1.7 1.5 0 2.8.5 3.7 1.6s1.4 2.5 1.4 4.4v.2zm-8.2-1.4h5.9c-.1-.9-.3-1.6-.8-2.1s-1.2-.7-2-.7-1.5.2-2 .7c-.6.5-.9 1.2-1.1 2.1z"/>
    <path class="st2" d="m165.9 13.5 11.3 9.4-11.3 9.5"/>
    <path class="st0" d="M430.3 0h177.2v45.9H430.3z"/>
    <path class="st2" d="m398 13.5 11.4 9.4-11.4 9.5m232.2-18.9 11.3 9.4-11.3 9.5"/>
    <path class="st0" d="M858.6 0h141.7v45.9H858.6z"/>
    <path class="st2" d="m825.7 13.5 11.4 9.4-11.4 9.5"/>
    <path class="st1" d="M456.9 17.2v4.7c1.4-.5 2.2-.8 2.4-.9v2c-.5.2-1.3.5-2.4.9v5.6l.1 1.9c0 .3-.1.6-.2.9-.1.3-.4.5-.7.7-.3.2-.7.3-1.2.4-.5.1-1.1.2-1.7.2l-.9-2.2c.1 0 .2 0 .5.1.3 0 .6.1.9.1.2 0 .5 0 .7-.1.2 0 .3-.1.4-.2.1-.1.1-.2.1-.4v-6.2l-1.8.6-1 .4-.4-2.1 1.1-.3c.1 0 .2 0 .4-.1s.7-.2 1.7-.6v-5.3h-3.1v-1.9h3.1v-4.1c0-.3 0-.7-.1-1 .5 0 1.2 0 2 .1 0 .3-.1.7-.1.9v4h2.4v1.9h-2.2zm11.4 13.6h4.2v-3.2h-2.6V26h2.6v-2.9h-2.7v-1.7h4.5v11.2c0 .5 0 .8.1 1h-2c0-.2.1-.5.1-1v-.2h-10.3v1.2h-1.9c0-.4.1-.7.1-.9V21.9l.6.2c.3-.1.6-.2 1-.4s.8-.4 1.3-.6c.5-.3.8-.5 1.1-.7.7.8 1.1 1.2 1.4 1.4-.2.1-.3.2-.5.2-.9.5-1.9 1-3 1.5V26h2.7v1.6h-2.7v3.2h4.2V18.5h-5.1c-.7 0-1.3 0-1.6.1v-1.9c.3 0 .9.1 1.6.1h5.1v-3.1c-1.7.2-3.4.4-5.3.5l-.8-1.7c2.1-.1 4.3-.3 6.6-.6 2.3-.4 4.3-.8 5.8-1.3.7.9 1.1 1.4 1.3 1.6l-.6.1c-1.6.4-3.3.8-5.1 1.1v3.4h5.4c.7 0 1.3 0 1.6-.1v1.9c-.3 0-.9-.1-1.6-.1h-5.4v12.3zm33.2-.4c1.1 0 1.8 0 2.2-.1v2.2c-.4 0-1.2-.1-2.2-.1h-18.6c-1.1 0-1.8 0-2.3.1v-2.2c.4 0 1.2.1 2.3.1h7.6V11.8c0-.4 0-.7-.1-1.1 1.1 0 1.9 0 2.3.1 0 .4-.1.7-.1 1v6.9h9.3v2.1h-9.3v9.7h8.9zm28.8-4.1 2.1 1.3c-.1 1.7-.3 3-.6 3.7-.3.8-.9 1.3-1.6 1.7-.7.3-1.8.5-3.2.5-1 0-1.8 0-2.5-.1s-1.2-.2-1.6-.4c-.3-.2-.5-.5-.6-.9-.1-.4-.2-.9-.2-1.6V22l-3.1.2c0 1.6-.2 3.1-.6 4.3-.4 1.3-.9 2.4-1.6 3.3-.7.9-1.6 1.7-2.6 2.4-1.1.6-2.3 1.1-3.7 1.5-.1-.2-.7-.8-1.6-1.9 1.4-.3 2.6-.8 3.6-1.3s1.8-1.2 2.5-1.9c.6-.8 1.1-1.7 1.4-2.7.3-1 .5-2.2.5-3.6l-3.5.2c-.9.1-1.5.1-1.8.1l-.6-2c.3-.1.8-.3 1.5-.7.7-.4 1.5-1.1 2.5-2.1s1.9-1.9 2.6-2.9h-5.9c-1.1 0-1.8 0-2.2.1v-2.1c.4 0 1.2.1 2.2.1h8.4c-.3-.6-.8-1.4-1.5-2.3l2.1-.6c.4.6.8 1.2 1.1 1.8.3.5.5.9.6 1.1h7.4c1 0 1.8 0 2.2-.1V15c-.4 0-1.1-.1-2.2-.1h-9.6c-.6.9-1.5 1.8-2.5 2.9s-1.9 2-2.7 2.7c3.4-.1 7.1-.4 11-.8-.9-.8-1.8-1.6-2.7-2.3l1.5-1.1c.9.7 2 1.6 3.2 2.7 1.2 1.1 2.3 2.2 3.2 3.3l-1.7 1.4c-.4-.6-1.1-1.4-1.9-2.3l-3.5.3v8.8c0 .4.2.7.6.8.1 0 .2.1.5.1h1.9c.6 0 1.1-.1 1.5-.2.4-.1.7-.3.9-.6.1-.1.2-.4.4-.7.1-.3.2-.8.3-1.5.1-.4.1-1.2.1-2.1zm18.1-10.5h-8v4.3h-2.1c0-.3.1-.5.1-.7V15c0-.2 0-.4-.1-.7h10.1v-1.5h-6.8c-.9 0-1.5 0-1.9.1V11h19.4v1.8c-.4 0-1-.1-1.8-.1h-7v1.5h10.2V20h-2.1v-4.3h-8.2v4.7c0 .4 0 .7.1.9h-2c0-.2.1-.5.1-.9v-4.6zm11.2 12.3c.2.1.5.3.8.5.3.2.7.4 1 .6v.4c0 .2-.1.5-.2.9s-.2.8-.4 1.1c-.2.4-.5.7-.9 1-.4.3-1 .5-1.8.7-.8.2-2 .3-3.5.3-1.4 0-2.5 0-3.4-.1-.9-.1-1.5-.2-1.8-.4-.3-.2-.6-.5-.7-.8s-.2-.6-.2-.9v-1.3h-5.6v1.7H541c0-.3.1-.6.1-.9v-7.7c0-.3 0-.5-.1-.9h17.2V30h-7.7v.6c0 .5.2.7.7.9.5.1 1.7.2 3.7.2.7 0 1.4 0 2-.1.7-.1 1.2-.3 1.7-.5.3-.2.6-.6.8-1.1.1-.4.2-1 .2-1.9zm-12.8-11v1.2h-4.9v-1.2h4.9zm-3.9 2.4h4v1.2H542v-1.2h.9zm5.5 4.5h-5.6v1.6h5.6V24zm-5.6 4.7h5.6V27h-5.6v1.7zm13.4-3.1V24h-5.9v1.6h5.9zm-5.9 3.1h5.9V27h-5.9v1.7zm6.4-11.6v1.2h-4.9v-1.2h4.9zm-3.9 2.4h4v1.2h-4.9v-1.2h.9zm30.1-8.6c.5.8 1.2 1.6 2.1 2.4s1.7 1.4 2.6 2c.8.6 1.7 1 2.4 1.4-.5.8-.8 1.5-.9 1.9-.6-.3-1.2-.7-1.8-1.1-.7-.4-1.3-.9-1.8-1.3v.9h-6.8v-.9c-1.2 1.1-2.3 2-3.5 2.6-.1-.2-.2-.5-.3-.8-.2-.3-.3-.6-.5-1v.6h-2.5v2.1l1.1-.7c.9 1.6 1.6 3.1 2.2 4.6l-1.5 1c-.2-.7-.5-1.5-.8-2.3-.3-.9-.7-1.6-1-2.1v12.2l.1 1.2h-2.1c0-.5.1-.9.1-1.2 0-1.4 0-3.4.1-5.9 0-2.5.1-4.5.1-5.8-.2.7-.4 1.6-.7 2.5-.3.9-.7 1.9-1.1 2.8s-.8 1.7-1.2 2.3c-.1-.2-.2-.6-.4-1l-.6-1.2c.3-.4.7-1 1.2-1.8s.9-1.8 1.4-3.1c.5-1.2.9-2.5 1.1-3.6h-3v-1.9h3.2v-4.6l-.1-.7c.6 0 1.2 0 2.1.1 0 .2-.1.5-.1.7v4.6h2.5V17c.9-.5 1.8-1.1 2.7-1.9.9-.8 1.7-1.6 2.4-2.4.7-.8 1.2-1.6 1.5-2.3l2.1.4-.3.1zM578 25.8c-.1.8-.3 1.7-.6 2.7-.3 1-.7 1.9-1.3 2.8-.6.9-1.2 1.6-2 2.1-.2-.4-.5-.9-1.1-1.7 1.1-1 1.9-2.1 2.5-3.4.5-1.3.8-3 .8-5.1v-4.1c0-.2 0-.4-.1-.6h11.2v7.3H578zm10.6 1.5v6.3h-1.9v-.9h-6.9v.9h-1.9c0-.3.1-.5.1-.7V28c0-.2 0-.5-.1-.7h10.7zm-10.4-3.1h7.4v-1.5h-7.4v1.5zm7.3-4.2h-7.4v1.4h7.4V20zm-1.1-4.4h.4c-1.1-1-2.1-2-2.9-3.1-.8 1.1-1.7 2.1-2.6 3.1h5.1zm-4.6 15.6h6.9v-2.3h-6.9v2.3zm296.9 1.2c.3-.8.5-1.7.7-2.7.2-1 .3-2 .4-3l1.5.3c-.1 1-.2 2.1-.4 3.2s-.4 2.1-.7 3c-.2 0-.7-.3-1.5-.8zm1.4-13.1-.8.2-.4-1.6c.2-.1.4-.2.5-.4.5-.7 1.1-1.6 1.6-2.5.6-1 1-1.8 1.4-2.6.4-.8.6-1.4.8-1.9l1.7 1.1c-.1.1-.2.3-.4.5-1.3 2.3-2.4 4.2-3.4 5.5l3-.4c.8-1.3 1.3-2.3 1.6-3l1.6 1-.5.6c-1 1.7-2 3.3-2.9 4.6s-1.8 2.4-2.5 3.3c.2 0 .7-.1 1.4-.2s1.5-.3 2.5-.5c-.3-.9-.6-1.6-.9-2.1l1.4-.5c.2.5.5 1.1.9 2 .4.9.7 1.9 1 2.9-.4.1-1 .3-1.6.5l-.4-1.4c-1.1.2-2.8.6-5.3 1l-1 .2-.5-1.8c.1 0 .2-.1.3-.2.1-.1.2-.2.3-.2.4-.5.9-1.1 1.5-1.9.6-.8 1.3-1.8 2-2.9-.8.4-1.8.5-2.9.7zm2.4 7.7 1.4-.2c.2.7.3 1.5.5 2.4.1.9.2 1.7.3 2.5l-1.7.3c0-.7 0-1.5-.1-2.4-.2-.9-.3-1.8-.4-2.6zm3.9-.8c.6 1.2 1.1 2.3 1.4 3.4l-1.4.7c-.4-1.4-.8-2.6-1.3-3.5l1.3-.6zm7.3-1.7-.2.1c-.4 1.7-1 3.3-2 4.7s-2 2.5-3.2 3.2c-.1-.2-.5-.8-1.2-1.6 1.1-.6 2-1.4 2.7-2.3s1.3-2 1.7-3.2h-3.3v-1.8h3.9l.2-.2c.3.2.7.6 1.4 1.1zm4.3 2.1c.6.8 1.3 1.6 2.1 2.3.8.7 1.6 1.2 2.4 1.6-.6 1-.9 1.6-1 1.9-1.2-.7-2.3-1.6-3.3-2.8s-1.8-2.6-2.5-4.2c.1.6.1 1.3.1 2.2 0 .9.1 1.7.1 2.2l.1 1.7c0 .7-.3 1.3-1 1.6-.7.3-1.8.5-3.5.5-.1-.3-.4-.9-.9-2 .2 0 .5.1.9.1s.7.1 1 .1c.5 0 .8 0 1.1-.1.3-.1.4-.3.4-.6v-9.8h-4.6c0-.3.1-.6.1-.8v-6.9l-.1-.8h4.1l.4-.8c.2-.4.3-.7.4-1 .1-.3.1-.4.1-.5l2.1.4c-.1.1-.1.2-.2.3-.2.6-.5 1.1-.7 1.7h5.1v8.5H894v1.1c.1.5.3 1 .5 1.5s.4 1 .6 1.4c.6-.4 1.2-.9 1.9-1.4.7-.5 1.2-1.1 1.5-1.5l1.4 1.5-.3.2c-.4.4-1 .9-1.7 1.4-.6.2-1.3.7-1.9 1zm.7-12.3h-7.2v2h7.2v-2zm-7.2 3.4v2h7.2v-2h-7.2zm36.8 12.7c1.1 0 1.8 0 2.2-.1v2.2c-.4 0-1.2-.1-2.2-.1h-18.6c-1.1 0-1.8 0-2.3.1v-2.2c.4 0 1.2.1 2.3.1h7.6V11.8c0-.4 0-.7-.1-1.1 1.1 0 1.9 0 2.3.1 0 .4-.1.7-.1 1v6.9h9.3v2.1h-9.3v9.7h8.9zm7.5-9.2c1.2-1.2 2.4-2.8 3.6-5 1.2-2.2 2.1-4.1 2.6-5.9l2 .8-.1.2c-.7 1.9-1.4 3.6-2.1 5.1v16.1l.1 1.4h-2.3c0-.6.1-1 .1-1.4 0-1.3 0-3.3.1-6s.1-5.1.2-7.2c-1.1 1.8-2.1 3.1-3 4-.1-.2-.2-.6-.5-1s-.5-.8-.7-1.1zm21.8-5.1h1.7v2.1c-.3 0-.9-.1-1.7-.1h-2v11.3l.1 1.5c0 .3-.1.6-.2.9-.1.3-.3.5-.5.7-.2.2-.6.4-.9.5s-.9.2-1.6.3c-.7.1-1.6.1-2.7.1-.1-.2-.3-.6-.5-1.1-.3-.5-.5-.8-.6-1.2 1.1.1 2 .2 2.7.2.6 0 1.1-.1 1.6-.2.4-.1.6-.4.6-.8V18.1h-7.7c-.8 0-1.3 0-1.7.1v-2.1h9.4v-4.6c0-.3 0-.6-.1-1h1.2c.5 0 .9 0 1.1.1 0 .3-.1.6-.1.9v4.6h1.9zm-10.8 4.5c.5.7 1.1 1.5 1.7 2.6.7 1.1 1.2 2.1 1.6 3.1l-1.8 1.1c-.3-.9-.8-1.9-1.5-3-.6-1.2-1.2-2.1-1.8-2.8l1.8-1zm21.6 6.2-.1.2c-.2 1-.6 2-1.1 2.9-.5.9-1.1 1.7-1.7 2.4l-.6-.6c-.3-.3-.5-.5-.8-.6.5-.5.9-1 1.3-1.7.4-.6.7-1.2.9-1.8s.3-1 .4-1.4l1.7.6zm3.4-1.5v4.3l.1 1.8c0 .3-.1.6-.2.9-.1.3-.4.5-.7.7-.3.2-.7.3-1.2.4s-1.1.1-1.8.1l-.9-2.1c.1 0 .2 0 .5.1.3 0 .6.1 1 .1s.7 0 .9-.1c.2-.1.4-.3.4-.6v-5.5h-5.2v-1.7h12.2v1.7h-5.1zM968 14.4h-4.9v-1.7h4.9v-1.5l-.1-.7h.9c.4 0 .7 0 .8.1h.3c0 .2-.1.4-.1.6v1.5h4.7v1.7h-4.7v2.4h3.9v1.7h-9.9v-1.7h4.2v-2.4zm-3 5.8h8.8v1.7h-10.1v-1.7h1.3zm9.7 9.1-1.5.8c-.2-.5-.4-1-.8-1.7s-.7-1.3-1.1-1.7l1.3-.7c.3.4.7 1 1.1 1.6.4.6.7 1.2 1 1.7zm5.7-8.5c.1 1.5.4 3 .9 4.4.5 1.4 1.2 2.7 2.1 3.8.9 1.1 1.9 2 3 2.7-.6 1.1-1 1.8-1 1.9-1-.7-1.8-1.5-2.7-2.5-.8-1-1.5-2-2-3.1s-.8-2-1.1-3c-.3 1.9-1 3.6-2 5-1 1.5-2.2 2.7-3.6 3.6-.3-.5-.8-1.2-1.3-1.9.5-.2.9-.6 1.5-1 .5-.4 1-1 1.5-1.7s.9-1.4 1.3-2.2c.4-.8.6-1.7.9-2.7.2-1 .4-1.9.5-2.9.1-.9.1-1.8.1-2.5v-.8l2 .1-.1.5v2.3zm-5-.1-1.5-1.5c.7-.8 1.4-2.1 2.1-3.8.6-1.7 1.1-3.4 1.3-5.3l1.9.4-.1.3c-.2 1.2-.5 2.3-.8 3.4h5.9l.2-.2c.2.1.5.3.8.5.3.2.6.5.9.7l-.2.1c-.3 1.3-.7 2.5-1.2 3.8-.5 1.2-1 2.2-1.5 2.9l-.6-.6c-.3-.3-.6-.5-.9-.6.4-.5.8-1.2 1.2-2.1s.7-1.8 1-2.7h-6.1c-.7 2-1.5 3.6-2.4 4.7z"/>
</svg>
