<svg xmlns="http://www.w3.org/2000/svg" width="333.3" height="362.4" style="overflow:visible;enable-background:new 0 0 333.3 362.4" xml:space="preserve">
    <style>
        .st4{fill:#040000}
    </style>
    <path d="M112.5 265.9c1.5 0 2.6 0 3.2-.1v2.9c-.6-.1-1.7-.1-3.2-.1H84.9c-1.6 0-2.7 0-3.3.1v-2.9c.6.1 1.7.1 3.3.1h12.4c-.2-.4-.5-1-.9-1.6-.4-.7-.7-1.2-1-1.6l3-.9c.9 1.2 1.6 2.6 2.3 4.1h11.8zm2 15.5v13.1c0 .9-.3 1.5-.8 2s-1.3.8-2.3 1.1c-1 .2-2.3.3-4 .3l-1.5-3.2c.2.1.6.1 1.2.2s1.2.1 1.7.1.9 0 1.3-.1.7-.2.9-.4.3-.4.3-.7V284H86.4v12.6c0 .7 0 1.1.1 1.4h-3.3c.1-.3.1-.7.1-1.4v-14.2l-.1-1h31.3zm-25.8-2.5c.1-.4.1-.7.1-1v-5.7c0-.3 0-.6-.1-1H109v7.7H88.7zm17.5 14.3v1H94v1.2h-2.9c.1-.4.1-.8.1-1.1v-6.8c0-.3 0-.7-.1-1.1h15.2v6.8zm-.3-19.7H91.8v3h14.1v-3zM94 292h9.4v-3.3H94v3.3zm37.7-18.5c-.6 1.6-1.5 3.2-2.5 4.8s-2.2 3-3.3 4.1c-.8-.9-1.5-1.7-2.2-2.4.8-.7 1.6-1.6 2.4-2.6.8-1.1 1.5-2.1 2-3.1s.9-1.9 1.1-2.6l2.6 1.4-.1.4zm4.7 12.5c.8.8 1.6 1.6 2.5 2.4.8.8 1.6 1.6 2.3 2.4l-2.1 2.2c-.5-.6-1.2-1.3-2-2.2-.9-.9-1.5-1.6-2-2.1-2.2 3.9-5.1 7-8.8 9.2-.2-.2-.6-.7-1.2-1.3-.6-.6-1-1-1-1.1 3.5-2.1 6.4-5.1 8.7-9.1-.5-.5-1.1-1.1-1.9-1.8-.8-.7-1.5-1.3-2.1-1.9l2-2.1 3.4 2.9c.3-.7.6-1.5.9-2.4.3-.8.5-1.6.7-2.3.2-.7.3-1.4.5-1.9l2.9 1.3-.2.4c-.8 2.7-1.6 5.1-2.6 7.4zm4.5-15.3h-16.2v-3h8.5c-1.1-2-1.9-3.3-2.5-4.1l2.7-1.1c.5.7 1.1 1.6 1.7 2.7.6 1 1.1 1.9 1.4 2.5h6.6v3h-2.2zm-.8 9.5c-.9-1.8-2.3-4.3-4.2-7.3l2.5-1.2c1.9 2.8 3.3 5 4.1 6.6-.8.6-1.6 1.3-2.4 1.9zm12.8 7.9c.4.7 1 1.5 1.8 2.3.7.9 1.7 1.7 2.7 2.5 1.1.8 2.2 1.5 3.5 2.1-.7 1.7-1.1 2.7-1.2 3-1.7-.8-3.2-1.8-4.6-3.1-1.4-1.2-2.7-2.6-3.7-4.1-2 2.9-4.7 5.3-8.2 7.1-.1-.3-.3-.7-.7-1.4s-.7-1.2-.9-1.6c1.9-.9 3.5-1.9 4.8-3.1 1.3-1.1 2.4-2.4 3.3-3.8-.8-1.6-1.6-3.4-2.2-5.5-.6-2.1-1.1-4.3-1.5-6.6-.7 1.4-1.5 2.5-2.2 3.4-.1-.2-.3-.6-.7-1.1-.3-.5-.7-1.1-1.1-1.6 1.1-1.3 2.3-3.3 3.4-6s1.9-5.5 2.5-8.3l2.8.6-.2.4c-.4 1.9-1 3.9-1.7 6h12v2.9h-3.2c-.3 3.2-.9 6.1-1.6 8.7-1 2.6-2 5-3.1 7.2zm-1.7-3.1c.6-1.3 1.2-2.7 1.7-4.2s.8-3 1.1-4.5c.3-1.5.5-2.9.6-4.2H148c.2 1.8.4 3.5.8 5.3.4 1.8.8 3.3 1.2 4.5s.8 2.4 1.2 3.1zm50.1 1.7 3.2 2c-.1 2.6-.4 4.6-.9 5.7-.5 1.2-1.4 2-2.5 2.6-1.1.5-2.8.8-5 .8-1.5 0-2.7 0-3.8-.1s-1.9-.3-2.4-.7c-.5-.3-.8-.8-1-1.4-.2-.6-.3-1.4-.3-2.4v-13l-4.8.4c-.1 2.5-.4 4.7-.9 6.7-.6 2-1.4 3.7-2.5 5.1-1.1 1.5-2.4 2.7-4.1 3.7-1.6 1-3.5 1.8-5.6 2.3-.2-.3-1-1.3-2.4-2.9 2.2-.5 4-1.2 5.5-2s2.8-1.8 3.8-3 1.7-2.6 2.2-4.2c.5-1.6.7-3.5.8-5.5l-5.4.3c-1.4.1-2.3.1-2.8.2l-.9-3.1c.5-.1 1.3-.4 2.3-1.1 1-.6 2.3-1.7 3.8-3.2 1.5-1.5 2.9-3 4-4.5h-9.1c-1.7 0-2.8 0-3.4.1v-3.2c.6.1 1.8.1 3.4.1h13c-.5-.9-1.2-2.1-2.2-3.5l3.2-.9c.7 1 1.3 1.9 1.8 2.7s.8 1.4 1 1.7h11.4c1.6 0 2.7 0 3.4-.1v3.2c-.6-.1-1.8-.1-3.4-.1h-14.8c-1 1.3-2.2 2.8-3.8 4.5-1.5 1.7-2.9 3-4.2 4.1 5.2-.2 10.9-.6 17-1.2-1.4-1.3-2.7-2.5-4.1-3.6l2.3-1.6c1.4 1 3 2.4 4.9 4.1 1.9 1.7 3.5 3.4 4.9 5.1l-2.6 2.2c-.6-1-1.6-2.1-3-3.6l-5.4.4v13.5c0 .7.3 1.1.9 1.2.1.1.4.1.7.1h2.9c1 0 1.7-.1 2.3-.3.6-.2 1.1-.5 1.5-.9.2-.2.4-.6.6-1.1.2-.5.3-1.2.4-2.3 0-.7.1-1.9.1-3.3zm27.8-16.2h-12.3v6.6h-3.2c.1-.4.1-.8.1-1.1v-6.8c0-.3 0-.7-.1-1.1h15.5v-2.4h-10.4c-1.3 0-2.3 0-2.9.1v-2.7h29.8v2.7c-.6-.1-1.5-.1-2.8-.1H232v2.4h15.8v9h-3.2v-6.6H232v7.2c0 .7 0 1.1.1 1.4H229c.1-.3.1-.8.1-1.4v-7.2zm17.2 18.9c.3.2.7.4 1.2.8.5.3 1.1.6 1.6.9 0 .1 0 .3-.1.6 0 .3-.1.8-.2 1.4-.1.6-.3 1.2-.7 1.7-.3.6-.8 1.1-1.4 1.5-.6.4-1.6.8-2.8 1.1-1.2.3-3 .4-5.3.4-2.2 0-3.9 0-5.2-.1-1.3-.1-2.3-.3-2.8-.6s-.9-.7-1.1-1.2c-.2-.5-.3-.9-.3-1.3v-2h-8.6v2.6h-2.9c.1-.5.1-1 .1-1.3v-11.8c0-.4 0-.8-.1-1.3H244v11.8h-11.9v.9c0 .7.4 1.1 1.1 1.4.7.2 2.6.2 5.8.2 1.1 0 2.1-.1 3.1-.2s1.9-.4 2.6-.8c.5-.4.9-.9 1.2-1.6.2-.8.3-1.8.4-3.1zm-19.6-16.9v1.9h-7.6v-1.9h7.6zm-6.1 3.8h6.2v1.9h-7.6v-1.9h1.4zm8.5 6.8h-8.6v2.5h8.6v-2.5zm-8.6 7.2h8.6v-2.6h-8.6v2.6zm20.6-4.8V283h-9v2.5h9zm-9 4.8h9v-2.6h-9v2.6zm9.8-17.8v1.9h-7.4v-1.9h7.4zm-6.1 3.8h6.1v1.9h-7.4v-1.9h1.3z" style="fill:#3dae2b"/>
    <path d="M94.3 334c1.1 0 2.4 0 3.9-.1 1.6-.1 2.9-.1 4.1-.3-.1.2-.2.6-.3 1-1 .1-2.2.2-3.7.2-1.5.1-2.9.1-4.1.1-.7 0-1.5-.1-2.3-.2s-1.6-.3-2.3-.7c-.7-.3-1.4-.7-1.8-1.2s-.9-.9-1.1-1.3c-.3-.4-.4-.8-.6-1.2-.2 1.1-.4 2-.6 2.9-.3.9-.5 1.5-.8 2.1l-.7-.7c.3-.5.6-1.3.8-2.2.3-1 .5-2 .6-3.1.1-1.1.2-2 .2-2.9l1 .2-.1.2c-.1.8-.1 1.4-.1 1.8 0 .4.1.8.3 1.2.1.4.4.9.7 1.3.3.4.6.8 1.1 1.1v-7.3h-3.8v-.9h3.8v-3h-3.2v-.9h3.2v-2.7c.3 0 .6 0 1.1.1v2.6h3.2v.9h-3.2v3h3.3v.9h-3.2v2.9h3v.9h-3.5v4.1c1.4.9 3 1.2 5.1 1.2zm-1.6-9.6c.5-.2 1-.5 1.5-.8.4-.3.8-.7 1.1-1.1.3-.4.5-.8.7-1.3.1-.5.2-.9.3-1.4h-3.2v-.9h8.2v.4c0 1.2 0 2.1-.1 2.7-.1.6-.2 1.1-.3 1.5-.1.3-.3.5-.6.7-.3.2-.6.3-1.1.4-.4.1-.9.1-1.4.1l-.5-1.1c.3.1.6.1 1 .1.2 0 .4 0 .7-.1s.4-.1.6-.2.3-.2.4-.4c.1-.2.2-.6.2-1 .1-.5.1-1.2.1-2.2h-3.2c0 .9-.2 1.6-.5 2.3-.3.7-.8 1.3-1.3 1.8s-1.2.9-1.9 1.2c-.2-.1-.4-.4-.7-.7zm8.2 1.9v5.8h-7.3v-5.8h7.3zm-6.3 5h5.3v-4.1h-5.3v4.1zm26.4-11.6h1.4v.9h-16.7v-.9h8.1c-.3-.7-.7-1.3-1.2-2l1-.3c.5.6.9 1.4 1.4 2.3h6zm.7 8.1v6c0 .2-.1.4-.2.6-.1.2-.3.4-.6.5s-.7.2-1.1.2h-1.3l-.5-1c.5.1 1 .1 1.4.1.4 0 .7 0 1-.1.2-.1.4-.2.4-.5v-5.5h-13v7.3h-1.1v-8.1h15v.5zm-12.2-2.2V322h9.4v3.6h-9.4zm8.4-2.7h-7.5v1.9h7.5v-1.9zm-.2 6.7v3.6h-6.2v.7h-.9v-4.3h7.1zm-6.2 2.9h5.3v-2.1h-5.3v2.1zm25.3 1.5c1.2 0 2.5-.1 4-.2s2.6-.2 3.4-.3c0 .1-.1.2-.1.3 0 .2-.1.3-.1.4s0 .2-.1.3c-.7.1-1.8.2-3.3.3s-2.8.1-3.9.1c-1.8 0-3.4-.3-4.7-.8s-2.2-1.3-2.6-2.3c-.6 1.3-1.5 2.4-2.5 3.2-.2-.3-.4-.5-.7-.8.4-.3.8-.6 1-.9.3-.3.6-.7.8-1 .3-.4.5-.9.8-1.5.3-.6.5-1.4.6-2.3h-2.2l-.2-.8c.2-.1.4-.2.5-.4.3-.4.6-.8 1-1.4.4-.5.6-1 .8-1.4h-2.9v-.9h3.4l.1-.1c.2.1.5.4.8.7l-.2.1c-.7 1.2-1.4 2.4-2.1 3.4h1.4l.1-.1.7.6-.2.1c-.1.9-.4 1.8-.6 2.5.1.3.3.7.5 1 .2.3.5.6.9.9.4.3.8.5 1.4.7s1.2.4 2 .5c.7.1 1.5.1 2.2.1zm-7.3-12.4c-.3-.4-.7-1-1.1-1.5s-.9-1.1-1.3-1.4l.7-.5c.3.3.7.7 1.2 1.3.5.5.9 1.1 1.2 1.6l-.7.5zm1.8 9c.9-.4 1.8-.9 2.8-1.5.9-.6 1.7-1.3 2.2-2h-3.6v-4.6h4.2v-2.1h-5.2v-.9h5.2v-1.9c.3 0 .6 0 1 .1v1.8h5.5v.9h-5.5v2.1h4.3v4.6h-4.4l.1 4.9v.6h-1v-5.1c-.6.8-1.3 1.5-2.3 2.2-.9.7-1.9 1.2-2.8 1.6 0 0-.1-.1-.2-.4-.2-.1-.3-.2-.3-.3zm2.3-7.2v2.9h3.2v-2.9h-3.2zm7.6 2.9v-2.9h-3.4v2.9h3.4zm-3 1.7.4-.6c.1 0 .2.1.4.2s.7.4 1.3.7c.6.4 1.3.8 1.9 1.2.6.4 1.1.7 1.5 1l-.2.4c-.1.2-.2.4-.3.5-.4-.3-.9-.6-1.5-1-.6-.6-1.8-1.3-3.5-2.4zm25.7 2 1 .7c0 1-.1 1.7-.2 2.3s-.3.9-.6 1.2c-.3.3-.7.5-1.1.7-.5.2-1.1.2-2 .2-1 0-1.7 0-2.1-.1-.4 0-.7-.1-.9-.2-.4-.2-.6-.7-.6-1.5v-7.1c-1.1.1-2.1.2-2.8.2 0 .3 0 .7-.1 1.1s-.1.9-.2 1.4-.2.9-.3 1.3c-.1.4-.3.9-.6 1.4-.3.5-.7 1-1.1 1.5-.5.5-1.1.9-1.8 1.3s-1.6.7-2.5.9l-.7-.9c1.1-.2 2.1-.6 2.9-1 .8-.4 1.5-1 2-1.7s.9-1.4 1.1-2.3c.2-.9.4-1.9.4-3-.2 0-.7.1-1.6.1s-1.5.1-1.8.1c-.3 0-.7 0-1 .1l-.3-1c.3 0 .7-.3 1.3-.7.6-.4 1.3-1 2.1-1.9.8-.8 1.5-1.6 2.1-2.4h-7v-1h8.6c-.2-.3-.4-.7-.7-1.1-.3-.4-.5-.7-.7-1l.9-.3c.2.2.5.6.8 1 .3.4.6.8.8 1.2l-.4.1h8v1h-9.1c-.3.5-.8 1.1-1.5 1.8s-1.3 1.4-1.8 1.9c-.6.5-1 .9-1.4 1.2 3-.1 6.3-.4 9.8-.7-.7-.7-1.5-1.4-2.4-2.1l.7-.5c.5.4 1.1.8 1.8 1.4.7.6 1.3 1.1 1.8 1.7s1 1.1 1.4 1.5l-.8.7c-.4-.5-.9-1.2-1.6-1.9l-3.1.3v7.3c0 .2.1.4.2.5.1.1.3.2.4.2.1 0 .2 0 .5.1h1.7c.5 0 1 0 1.4-.1s.7-.2.8-.5c.1-.1.2-.3.3-.6.1-.3.2-.6.2-1.2-.2-.3-.2-.9-.2-1.6zm12.7-8.7h-6.8v3.4h-1v-4.2h7.8V319h-6.9v-.9h14.9v.9h-7v1.6h7.9v4.2h-1v-3.4h-6.9v4.5h-1v-4.6zm8.5 10.1c.1.1.2.2.4.3.2.1.3.2.5.3-.1.9-.2 1.5-.5 2-.3.4-.8.7-1.5.9-.7.2-1.6.3-2.8.3-1.2 0-2.1 0-2.6-.1-.6 0-.9-.1-1.1-.2-.2-.1-.4-.3-.5-.6-.1-.2-.2-.6-.2-1v-.7h-4.9v1.4h-.9v-7.1h12.9v5.8h-6.1v.7c0 .5.2.8.6.9.5.1 1.5.1 3 .1 1.3 0 2.3-.2 3-.5.3-.2.5-.5.7-.8-.1-.5 0-1 0-1.7zm-10-8.7v.7h-3.8v-.7h3.8zm-3.1 2h3.1v.7h-3.8v-.7h.7zm4.7 2.9h-4.9v1.7h4.9v-1.7zm-5 4.2h4.9V330h-4.9v1.8zm11-2.5v-1.7h-5.1v1.7h5.1zm-5.1 2.5h5.1V330h-5.1v1.8zm5.3-9.1v.7H179v-.7h3.9zm-3.2 2h3.2v.7H179v-.7h.7zm16.7-1.5v3.4h-.9V324h-5.4v2.5h-.9v-3.4h1v-4.6h5.3v4.8h.9zm-1 2.7v8.1c0 .3-.1.5-.3.7-.2.2-.4.3-.8.4-.3.1-.8.1-1.4.1l-.4-1c.3 0 .6.1 1 .1.3 0 .5 0 .7-.1.2-.1.3-.2.3-.4v-2.1h-3.1v3.6h-.9V326h4.9zm-4.3-6.6v4h1.5v-2.4h2.1v-1.6h-3.6zm3.4 7.4h-3.1v1.7h3.1v-1.7zm-3.2 4.2h3.1v-1.7h-3.1v1.7zm2-9.3v1.6h1.4v-1.6h-1.4zm12.6 12.2h1.1v.9h-10.5v-.9h3.2c-.1-.5-.4-1.1-.8-1.9l.8-.2c.4.9.7 1.6.9 2.2h2.4c.2-.3.4-.7.6-1.2.2-.5.3-.8.4-1l.8.3-.1.1c0 .1-.1.3-.3.7-.2.4-.3.8-.5 1h2zm-.1-7.4H197v-.8h9.8v.8h-1zm-8.3-2v-5.2h2.6v-1.4c.3 0 .6 0 .9.1v1.4h1.7v-1.4c.2 0 .5 0 .9.1 0 .2-.1.4-.1.5v.9h2.6v5.2h-8.6zm8 3.3v3.5h-7.3v-3.5h7.3zm-5.3-7.9h-1.8v1.6h1.8v-1.6zm-1.9 3.9h1.8V322h-1.8v1.7zm.8 6.7h5.4v-2h-5.4v2zm3.6-10.6h-1.8v1.6h1.8v-1.6zm-1.8 3.9h1.8V322h-1.8v1.7zm4.4-2.3v-1.6h-1.9v1.6h1.9zm-1.9 2.3h1.9V322h-1.9v1.7zm7.2 5.8.7.2c0 .8 0 1.7-.1 2.7-.1 1-.3 1.9-.5 2.8l-.7-.4c.2-.7.4-1.5.5-2.5s.1-2.1.1-2.8zm6.8-2.2v.3c0 1.5 0 2.8-.1 3.8s-.1 1.7-.3 2.2c-.2.5-.5.8-.9 1s-1 .3-1.6.3l-.4-1.1c.2.1.5.2.8.2.2 0 .3 0 .5-.1s.3-.1.5-.3c.1-.1.2-.3.3-.5.1-.2.1-.4.2-.8 0-.3.1-.8.1-1.6v-2.8h-5.7v-9.6h6.8v.8h-2.8v2.2h2.2v.8h-2.2v2.1h2.2v.8h-2.2v2.2h2.6zm-3.5-8h-2.2v2.2h2.2v-2.2zm0 5.1v-2.1h-2.2v2.1h2.2zm-2.2 2.9h2.2v-2.2h-2.2v2.2zm.3 2.4.6-.1c.2 1.2.3 2.6.4 4.2l-.6.1c0-.6 0-1.3-.1-2.1-.1-.9-.2-1.6-.3-2.1zm1.9-.3c.1.5.3 1 .4 1.6s.2 1.1.2 1.6l-.6.1c0-.2-.1-.6-.1-1-.1-.4-.2-.9-.2-1.3-.1-.4-.2-.7-.2-.9l.5-.1zm2 2.2-.6.1c0-.2-.1-.4-.1-.6s-.2-.8-.5-1.8l.5-.1c.1.4.2.7.4 1.1.1.4.2.8.3 1.3zm6 2c-.4-.6-.9-1.2-1.6-1.7-.3.7-.7 1.3-1.2 1.8-.4.6-.9 1-1.3 1.3-.2-.3-.4-.5-.6-.7.5-.3 1-.8 1.5-1.4.5-.6.8-1.2 1.1-1.8.3-.6.4-1.2.5-1.7l.9.2-.1.2c-.1.2-.1.4-.2.7-.1.3-.2.5-.2.7.3.3.6.5 1 .8.3.3.6.6.8.9l-.6.7zm1.1-14.9c-.4.7-.9 1.4-1.6 2-.6.7-1.2 1.2-1.8 1.7-.6.4-1 .8-1.4 1-.1-.2-.3-.4-.5-.8.9-.5 1.8-1.2 2.7-2.2.9-.9 1.6-1.9 2.1-2.8l1 .2-.1.1c.5.9 1.1 1.7 2 2.5.9.8 1.8 1.5 2.6 1.9-.1.1-.2.3-.2.5-.1.2-.2.3-.2.4-.8-.5-1.6-1.1-2.5-2-.8-.7-1.6-1.6-2.1-2.5zm-.7 5.9v4.5h-3.6v-4.5h3.6zm-2.8 3.7h1.9v-2.9h-1.9v2.9zm6.1-5.3h-5.1v-.8h5.1v.8zm-.5 8.5c.4.3.9.6 1.4 1 .5.4 1.1.9 1.6 1.5l-.5.8c-.3-.4-.7-.8-1.2-1.2-.5-.5-1-.9-1.7-1.4-.2.3-.4.6-.7 1-.3.4-.6.7-1 1.1-.4.4-.7.6-1.1.9-.1-.1-.2-.3-.5-.7.5-.3 1.1-.8 1.6-1.3s1-1.2 1.2-1.8c.3-.6.5-1.2.6-1.7l.9.2-.1.2c-.1.3-.1.5-.2.8s-.2.5-.3.6zm2.1-6.9v4.5h-3.7v-4.5h3.7zm-2.9 3.7h2v-2.9h-2v2.9zm14.8.4c.3-.2.6-.5.8-.8.2-.4.3-.9.3-1.5h-.9v-1.7h1.7v1.2c0 .5-.1 1-.2 1.5s-.3.8-.6 1.2c-.3.3-.5.5-.8.7l-.3-.6zM25.6 361.6v.7h-1v-4.2c0-1.7.1-3 .1-4.1-.4.5-.9 1-1.4 1.5-.5.5-1 .9-1.4 1.2l-.6-.8c.5-.4 1.1-.8 1.7-1.4s1.1-1.2 1.7-1.9v-.9l.5.2c.9-1.2 1.6-2.4 2.2-3.7h-5.7v-1h6.1c.4-1 .7-1.9.8-2.8l1 .2-.1.1c-.1.3-.2.7-.4 1.2s-.3.9-.4 1.2h10v1H28.4c-.3.7-.7 1.5-1.2 2.3-.5.8-1 1.6-1.5 2.2v9zm12.1-1.3h1.2v1h-12v-1h5.6V355h-4.7v-1h4.7v-3.6h1.1v3.7h4.5v1h-4.6v5.3h4.2zm16.7-1.5c.9.6 1.8 1.1 2.8 1.6 1 .5 2.1.8 3.2 1-.2.3-.4.6-.6.8-1.6-.4-3.1-.9-4.4-1.7-1.3-.8-2.5-1.6-3.5-2.6s-1.7-2-2.3-3.1h-3.2v6c1.5-.4 3.2-.9 5.1-1.5v.9c-.7.2-2.5.7-5.2 1.5-.4.1-.6.2-.9.3l-.4-1c.2-.1.3-.4.3-.7v-5.5h-3v-.9h3.5v-8.4h11.7v.9H46.8v2.1h10v.8h-10v1.8h10v.9h-10v2H60v.9h-9.4c.7 1.2 1.7 2.4 3 3.4.3-.2.7-.4 1.2-.7.5-.3 1-.7 1.5-1.1.5-.4.9-.7 1.1-1l.8.7-.2.1c-.4.4-1 .8-1.7 1.3-.7.4-1.4.8-1.9 1.2zm19.4 2.2c1.2 0 2.5-.1 4-.2s2.6-.2 3.5-.3l-.3 1c-.7.1-1.8.2-3.3.3-1.5.1-2.8.1-3.9.1-1.8 0-3.4-.3-4.7-.8s-2.2-1.3-2.6-2.3c-.6 1.3-1.5 2.4-2.5 3.2-.2-.3-.4-.5-.7-.8.4-.3.8-.6 1-.9.3-.3.6-.7.8-1 .3-.4.5-.9.8-1.5.3-.6.5-1.4.6-2.3h-2.2l-.2-.8c.2-.1.4-.2.5-.4.3-.4.6-.8 1-1.4.4-.5.6-1 .8-1.4h-2.9v-.9h3.4l.1-.1c.2.1.5.4.8.7l-.2.1c-.7 1.2-1.4 2.4-2.1 3.4h1.4l.1-.1.7.6-.2.1c-.1.9-.4 1.8-.6 2.5.1.3.3.7.5 1 .2.3.5.6.9.9.4.3.8.5 1.4.7s1.2.4 2 .5c.6.1 1.4.1 2.1.1zm-7.3-12.4c-.3-.4-.7-1-1.1-1.5s-.9-1.1-1.3-1.4l.7-.5c.3.3.7.7 1.2 1.3.5.5.9 1.1 1.2 1.6l-.7.5zm8-3c-.7 1-1.6 2-2.7 2.9-1.1.9-2.2 1.6-3.2 2.1-.1-.2-.3-.5-.6-.9.8-.4 1.6-.9 2.4-1.4.8-.6 1.5-1.2 2.1-1.9.6-.6 1.1-1.3 1.4-1.9l1.1.2-.1.1c.6 1 1.5 1.9 2.7 2.8s2.3 1.6 3.4 2.1c-.2.5-.4.8-.4.9-1.1-.5-2.2-1.2-3.3-2.1-1.2-.8-2.1-1.8-2.8-2.9zm-3.3 8.9.8.5-.1.1c-.3.5-.6 1.1-1.1 1.7s-1 1.2-1.5 1.6l-.7-.7c.3-.2.6-.5.9-.8.3-.3.7-.7 1-1.2.3-.4.6-.8.7-1.2zm8-.8H75v4.5c0 .3-.1.6-.3.8-.2.2-.5.3-.9.4s-1 .1-1.7.1l-.5-1c.1 0 .3 0 .5.1h.7c.3 0 .6 0 .9-.1.2-.1.3-.2.3-.5v-4.4h-5.3v-1H74v-2.3h-3.1v-.9H78v.9h-3v2.3h5.3v1c-.2.1-.6.1-1.1.1zm1.1 4.1c-.1.2-.3.3-.4.4l-.3.3c-.4-.5-.8-1.1-1.4-1.8s-1-1.2-1.5-1.7l.7-.5c1.4 1.3 2.3 2.4 2.9 3.3zm10.9-5.8v4.1c0 1.1-.1 2-.1 2.7 0 .7-.1 1.2-.2 1.6-.2.5-.5.9-.9 1.1-.4.2-1 .3-1.7.3 0-.1 0-.1-.1-.3 0-.1-.2-.4-.4-.9.3.1.5.1.8.1.7 0 1.2-.3 1.4-.9.1-.3.2-.7.2-1.3 0-.6.1-1.3.1-2.3v-3.4h-2.6c-.2 2.5-.5 4.5-1 6s-1 2.6-1.8 3.2c-.1-.1-.2-.3-.3-.5s-.3-.4-.4-.5c.3-.3.6-.6.9-1 .3-.4.5-1 .7-1.6.2-.6.4-1.3.5-2.1s.3-1.7.4-2.8c.1-1 .2-2 .2-2.8s.1-1.5.1-1.8h-2.2v-1h7.1v1h-4.1c0 1.1-.1 2.1-.1 3h3.5zm-1.9-4.5-.9.4c-.2-.4-.4-.9-.6-1.5-.3-.6-.5-1-.8-1.4l.9-.3c.2.3.4.7.7 1.2s.5 1 .7 1.6zm11.3.8h-6.4c-.3.5-.7 1.1-1.1 1.6-.4.5-.8 1-1.2 1.4-.2-.3-.4-.6-.6-.8.4-.3.8-.8 1.2-1.4.4-.6.9-1.3 1.3-2.1s.7-1.6 1-2.5l1 .3-.1.1c-.3.9-.6 1.7-1 2.5h6.8v.9h-.9zm-2.5 8c.4.9.9 1.8 1.5 2.6s1.4 1.6 2.3 2.3c-.4.5-.6.8-.6.8-.8-.7-1.5-1.4-2.1-2.1-.6-.7-1.1-1.5-1.5-2.3-.4-.8-.7-1.7-.9-2.6-.2-.9-.4-2-.5-3.2-.8.1-1.4.2-2 .3v8.5c.4-.2.9-.5 1.6-.9.6-.4 1.1-.7 1.4-.9v1.1c-.3.2-.8.5-1.5.9s-1.2.7-1.7 1c-.3.1-.5.3-.7.4l-.4-1c.2-.2.3-.4.3-.8v-9.2l.6.3c1.1-.1 2.2-.3 3.4-.6 1.2-.3 2.2-.6 3-1l.6.8-.4.1c-1.1.4-2.3.7-3.4.9.1.7.2 1.4.3 2 .1.6.2 1.2.4 1.7.5-.3 1-.6 1.6-1 .6-.4 1-.7 1.3-1l.7.7-.2.1c-.6.8-1.7 1.4-3.1 2.1zm11.8-4.9v10.8h-1.1v-4.1c0-1.8.1-3.7.1-5.8-.3.8-.6 1.7-1 2.5-.4.9-.8 1.7-1.2 2.3-.4.7-.8 1.2-1.2 1.6-.2-.3-.4-.6-.5-.9.3-.3.7-.8 1.1-1.4.4-.6.9-1.4 1.3-2.3.5-.9.8-1.9 1.1-2.8h-3.2v-.9h3.5V347c-.7.2-1.2.4-1.7.5s-.8.2-.9.2l-.4-.8c.9-.1 1.9-.4 3-.8s2-.7 2.7-1.1l.6.7c-.1 0-.3.1-.4.1-.5.2-1.2.5-2.1.9v3.8h2.7v.9h-2.4zm2.9 4.5-.6.6c-.6-1.1-1.2-2.1-2-3.1.2-.2.4-.3.6-.4.6.8 1.3 1.8 2 2.9zm9 4.6h1.1v.9h-11v-.9h5.1v-2.8h-3.3v-.9h3.3v-2.6c-.8.1-2 .2-3.6.3l-.3-.9c.7 0 1.4 0 2.2-.1.8 0 1.5-.1 2.2-.2.7-.1 1.4-.2 2-.3.6-.1 1.2-.2 1.7-.4 0 0 .3.3.7.8l-.4.1c-1 .2-2.2.4-3.5.6v2.7h3.5v.9H118v2.8h3.8zm-7.9-9.1v-5.3h7.5v5.3h-7.5zm6.5-4.5h-5.5v3.6h5.5v-3.6zm22.2 2.2v7.8h-1.1v-1.3h-6v6.8h-1.1v-6.8h-5.9v1.3h-1.1v-8.4h6.9v-4c.5 0 .8 0 1.1.1v3.9h7.1l.1.6zm-13.9 5.6h5.9v-5.4h-5.9v5.4zm6.9 0h6v-5.4h-6v5.4zm19.5 1c.3-.2.6-.5.8-.8.2-.4.3-.9.3-1.5h-.9v-1.7h1.7v1.2c0 .5-.1 1-.2 1.5s-.3.8-.6 1.2c-.3.3-.5.5-.8.7l-.3-.6zm16.8-4c.4.4.8.9 1.1 1.5.3.6.5 1.1.6 1.6s.2.9.2 1.3c0 .6-.1 1.1-.3 1.6-.2.5-.5.9-.8 1.1-.4.3-.8.4-1.4.4-.1-.3-.3-.6-.5-1 .2.1.4.1.7.1.4 0 .7-.2 1-.6.3-.4.4-.9.4-1.6 0-.5-.1-1.1-.3-1.6-.2-.5-.4-1-.7-1.5s-.6-.8-.9-1c0-.1.1-.2.2-.4s.3-.7.6-1.6c.3-.9.7-2.1 1.1-3.6h-2.6v16h-.9v-16.9h3.6l.1-.1c.3.2.6.5.8.7l-.2.1c-.9 2.8-1.5 4.7-1.8 5.5zm8.8 9.3c1.6 0 3.4-.1 5.5-.3l-.3.9c-2.2.2-3.9.2-5.3.2-1 0-1.8-.1-2.4-.3-.6-.2-1.1-.4-1.5-.8s-.7-.8-.9-1.3c-.3.5-.6 1-1 1.5s-.8.8-1.2 1.2c-.2-.3-.4-.5-.6-.8.4-.3.7-.6 1.1-1 .3-.4.7-.8.9-1.3.3-.5.5-1 .8-1.7.2-.6.4-1.3.5-2h-2.2l-.2-.8c.2-.1.3-.2.5-.4.2-.3.5-.8.9-1.3s.6-1.1.8-1.5h-2.3v-.9h2.6l.1-.1c.3.2.5.4.8.7l-.2.1c-.7 1.4-1.3 2.5-1.9 3.4h1.3l.1-.1.2.2c.1.1.3.2.5.5l-.2.1c-.2 1.3-.6 2.4-1 3.4.2.8.6 1.4 1.3 1.8.9.4 1.9.6 3.3.6zm-3.8-12.8-.8.5c-.2-.5-.5-1-.8-1.5-.3-.5-.6-1-1-1.5l.7-.4c.1.2.3.4.5.7.2.3.4.6.7 1 .2.4.4.8.7 1.2zm2.7-1.1h-2.1v-.8h2.5c.1-.3.2-.5.3-.8s.2-.6.2-.9l.9.1-.1.1c-.1.4-.2.9-.5 1.5h5.1v.8h-5.5c-.4.7-.9 1.3-1.4 1.9-.6.6-1.1 1.1-1.8 1.4-.1-.1-.3-.4-.5-.7.4-.2.8-.5 1.2-.8s.7-.6 1-1 .5-.5.7-.8zm6.4 4.2h-7.4v-.7h3.2V349h-2v-.7h5.5v.7h-2.6v1.6h3.3v.7zm-1 1.2v6.1c0 .4-.2.7-.5.9s-1 .3-2.1.3l-.5-.9h1.1c.3 0 .6 0 .8-.1.2-.1.3-.2.3-.4v-1.2h-4.2v2.7h-1v-7.3h6.1zm-.9.7h-4.2v1.3h4.2v-1.3zm-4.2 3.3h4.2v-1.3h-4.2v1.3zm15.1-10.4v13.3h-1v-1.1h-3v2h-1v-14.2h5zm-1 .8h-3v4.6h3v-4.6zm-3 10.6h3v-5h-3v5zm14.7-5.6h-9.9v-1h4.9V348h-4.2v-.9h4.2v-2.6c.3 0 .6 0 1.1.1v2.5h4.3v.9h-4.3v2.9h5.1v1h-1.2zm.1 2.7h1.1v.9h-2.6v5.1c0 .4-.1.8-.4 1-.3.2-.7.4-1.2.4-.5.1-1.3.1-2.3.1l-.6-1.1c.2 0 .5.1.8.1h1c.5 0 .9 0 1.2-.1s.5-.3.5-.6v-5h-7.4v-.9h7.4v-2.3h1.1v2.3h1.4zm-8.1 1.9c.5.3 1 .8 1.5 1.2s.9.9 1.2 1.2l-.8.7c-.3-.4-.7-.8-1.2-1.3s-1-.9-1.4-1.2l.7-.6zm16.1-4.7-.6.8c-.4-.4-.9-.7-1.4-1.1-.6-.4-1-.7-1.5-1 .1-.2.3-.5.5-.8.4.2.9.5 1.5.9.6.5 1.1.8 1.5 1.2zm-2.9 9a55.343 55.343 0 0 0 2.8-5.6l.7.9c-.3.6-.7 1.5-1.2 2.6s-1 2-1.4 2.6l-.3.7-.9-.8.3-.4zm.3-15.1.6-.8c.4.3.9.6 1.5 1s1 .8 1.4 1.2l-.6.8-1.5-1.2c-.5-.4-1-.8-1.4-1zm16.4.6h.7v.9h-3.2v2.4h-3v1.7h5.2v9.6c0 .4-.2.7-.6.9-.4.2-1 .3-1.9.3-.1-.3-.2-.6-.4-1 .3 0 .6.1 1 .1.3 0 .5 0 .7-.1.2-.1.3-.2.3-.4v-8.6h-4.3v9.9h-.9v-9.9H217v10.2h-1v-11h5.2v-1.7h-3v-2.4h-3v-.9h3v-1.7c.2 0 .6 0 1 .1v1.7h5v-1.7c.4 0 .8 0 1 .1v1.7h2.4zm-7.9 7.6c0 .6.1 1.2.2 1.9s.2 1.3.4 1.9c.2.6.4 1 .6 1.3l-.5.5c-.5-.7-.8-1.8-1-3.1-.2.7-.4 1.3-.6 1.9-.2.6-.5 1-.8 1.3-.2-.2-.3-.4-.5-.6.4-.4.7-1 1-1.8s.5-1.6.6-2.7h-1.2v-.8h1.8zm-.6-5h5v-1.8h-5v1.8zm6.3 10.5c-.4-.7-.8-1.7-1-3.1-.2.7-.4 1.4-.6 1.9-.2.5-.5 1-.8 1.3-.2-.2-.3-.4-.5-.6.3-.4.7-.9.9-1.7.3-.8.5-1.6.6-2.6h-1.3v-.8h1.9c0 .6.1 1.2.2 1.8.1.6.2 1.2.4 1.8.2.6.4 1 .6 1.3l-.4.7zm22.8-2.4c.4.5.6.7.7.8l.1.1c0 .9-.1 1.7-.2 2.3-.1.6-.3 1.1-.6 1.4-.2.3-.6.5-.9.5-.4 0-.7-.1-1-.4-.3-.3-.7-.6-1-1.1-.3-.5-.6-1-.8-1.7-1.1 1.3-2.4 2.4-4 3.2-.2-.2-.4-.5-.6-.8 1.7-.8 3.1-1.9 4.2-3.5-.3-1-.6-2.2-.8-3.6-.2-1.4-.4-2.9-.5-4.6h-11.3v-.9h4.4V347h-3.5v-.8h3.5v-1.6c.5 0 .8 0 1 .1v1.5h4v.8h-4v1.9h5.9c-.1-1.5-.1-2.6-.1-3.5l-.1-.7h.5c.3 0 .5.1.5.1v.6c0 1.4.1 2.6.1 3.5h5.2v.9h-5.2c.1 1.5.2 2.8.4 4 .2 1.2.4 2.3.6 3.1.5-.8.9-1.7 1.3-2.7.4-1 .6-2 .8-3.1l.9.5-.1.1c-.6 2.6-1.5 4.7-2.6 6.2l.6 1.5c.2.5.5.8.8 1.1s.6.4.8.4c.3 0 .5-.3.7-1 .2-.6.3-1.6.3-2.9zm-11.3 3.1v2.1h-1v-2.1h-4.5v-.8h4.5v-1.2h-3.3v-4.7h3.3v-1.2h-4.2v-.8h4.2v-1.3h1v1.3h4.2v.8h-4.2v1.2h3.4v4.7h-3.4v1.2h4.2v.8h-4.2zm-.8-6.1h-2.4v1.4h2.4V354zm-2.4 2v1.5h2.4V356h-2.4zm5.7-.6V354h-2.5v1.4h2.5zm-2.5 2.1h2.5V356h-2.5v1.5zm10.3-9.5c-.2-.4-.6-.8-1-1.3s-.8-.9-1.2-1.2l.7-.5c.5.4.9.8 1.3 1.2.4.5.7.9 1 1.2l-.8.6zm13.4.3h-6.8v3.4h-1v-4.2h7.8V346h-6.9v-.9h14.9v.9h-7v1.6h7.9v4.2h-1v-3.4h-6.9v4.5h-1v-4.6zm8.5 10.1c.1.1.2.2.4.3.2.1.3.2.5.3-.1.9-.2 1.5-.5 2-.3.4-.8.7-1.5.9-.7.2-1.6.3-2.8.3-1.2 0-2.1 0-2.6-.1-.6 0-.9-.1-1.1-.2-.2-.1-.4-.3-.5-.6-.1-.2-.2-.6-.2-1v-.7h-4.9v1.4h-.9v-7.1h12.9v5.8h-6.1v.7c0 .5.2.8.6.9.5.1 1.5.1 3 .1 1.3 0 2.3-.2 3-.5.3-.2.5-.5.7-.8-.1-.5 0-1 0-1.7zm-10-8.7v.7h-3.8v-.7h3.8zm-3.1 2h3.1v.7h-3.8v-.7h.7zm4.7 2.9h-4.9v1.7h4.9v-1.7zm-5 4.2h4.9V357h-4.9v1.8zm11-2.5v-1.7h-5.1v1.7h5.1zm-5.1 2.5h5.1V357h-5.1v1.8zm5.3-9.1v.7H263v-.7h3.9zm-3.2 2h3.2v.7H263v-.7h.7zm15.1-4.9.7-.4c.3.3.6.7.9 1.1.3.5.7 1 .9 1.4.3.5.5.9.6 1.1l-.8.4c-.1-.2-.3-.5-.5-1-.5.1-1.6.2-3.2.3s-2.6.2-3 .3h-.6l-.2-1c.1 0 .2-.1.4-.2s.4-.3.6-.6c.2-.3.5-.7.9-1.2s.7-1 .9-1.4.4-.8.5-1.1l1 .3s-.1.1-.1.2c-.2.4-.5.9-.9 1.5s-.7 1.1-1 1.5-.6.8-.8 1c1.5-.1 3.2-.3 5.1-.4-.2-.3-.5-.7-.7-1-.3-.3-.5-.6-.7-.8zm2.3 5.7v8.1c0 .3-.1.6-.3.8-.2.2-.5.3-1 .4-.5.1-1.1.1-1.8.1-.1-.3-.3-.6-.5-1 .3.1.8.1 1.3.1.4 0 .7 0 .9-.1.2-.1.4-.2.4-.5v-2.2h-4.6v3.8h-1v-10.1h6.5l.1.6zm-1 .2h-4.6v1.9h4.6v-1.9zm-4.5 4.7h4.6v-2h-4.6v2zm8.1-5.3c-.2-.1-.3-.3-.4-.5-.1-.2-.1-.5-.1-.9v-5.9l1 .1v3c.8-.3 1.7-.6 2.8-1.1 1-.4 1.7-.8 2.1-1l.5.8-.2.1c-.3.1-.6.3-1.2.6-.5.2-1.2.5-2 .8-.8.3-1.5.5-2.1.7v2c0 .2 0 .4.1.5.1.1.2.2.3.2.3.1 1 .1 2.1.1.5 0 .9 0 1.3-.1.3-.1.6-.2.8-.3.2-.1.3-.2.4-.4.1-.2.2-.4.2-.6 0-.3.1-.5.1-.8l.9.5c-.1.8-.3 1.4-.6 1.8-.3.3-.8.6-1.3.7-.5.1-1.2.2-1.9.2h-1.9c-.3-.3-.7-.4-.9-.5zm6.1 6.3c.5.3.8.5.9.5 0 .5-.1.9-.2 1.2-.1.3-.3.6-.6.8-.3.2-.7.4-1.2.5s-1.1.2-1.9.2c-1 0-1.7 0-2.2-.1s-.7-.1-.9-.2c-.2-.1-.4-.3-.5-.5s-.1-.6-.1-1v-6.4l1 .1v3.2c.9-.3 1.9-.7 3-1.2s1.9-.9 2.3-1.2l.5.8-.2.1c-.5.3-1.4.7-2.6 1.2s-2.2.9-3.1 1.2v2.4c0 .4.2.6.5.7.2.1 1 .1 2.2.1.6 0 1 0 1.3-.1l.9-.3c.2-.1.4-.4.5-.7.4-.3.4-.7.4-1.3zm13.3-2.4c-.4 0-.8-.1-1.2-.3s-.7-.5-1-.9c-.2-.4-.4-.8-.4-1.3 0-.4.1-.8.3-1.2.2-.4.5-.7.9-.9.4-.2.8-.4 1.3-.4.4 0 .8.1 1.2.3.4.2.7.5 1 .9.2.4.4.8.4 1.3 0 .4-.1.8-.3 1.2s-.5.7-.9 1c-.4.2-.8.3-1.3.3zm0-.7c.5 0 .9-.2 1.3-.5.4-.4.5-.8.5-1.3s-.2-.9-.5-1.3-.8-.5-1.3-.5-.9.2-1.3.5c-.4.4-.5.8-.5 1.3s.2.9.5 1.3c.4.3.8.5 1.3.5z" style="fill:#1a1a1a"/>
    <path d="M292.6 274.9c25-29.1 40.1-66.9 40.1-108.2C332.7 74.9 258.3.6 166.6.6S.5 74.9.5 166.6c0 41.4 15.1 79.2 40.1 108.2" style="fill:none;stroke:#1a1a1a;stroke-linecap:round;stroke-linejoin:round;stroke-miterlimit:10"/>
    <g style="opacity:.6">
        <path class="st4" d="M120.3 206.9c-1 0-1.9-.1-2.8-.1H96.1c-7.1 0-11.8-4.8-11.8-11.9v-98c0-7.1 4.8-11.7 11.9-11.8h14.9c.2-1.6.3-3 .7-4.3.9-2.8 3.2-4.5 6.3-4.7 2.3-.1 4.5 0 6.8 0 6.7 0 8.7 1.9 9.1 9 3.8 0 7.6.2 11.3 0 11.3-.9 15.8 4.8 15.7 15.5-.4 31.1-.1 62.2-.1 93.3 0 8.6-4.4 13-13 13h-27.6zm36-61V97.7c0-5.7-2.5-8.2-8.3-8.2H97c-6 0-8.4 2.4-8.4 8.4v96c0 5.9 2.5 8.3 8.4 8.3h50.7c6.1 0 8.5-2.4 8.5-8.5.1-15.9.1-31.8.1-47.8zm-27.1-61c.1-3.9-.3-4.4-3.8-4.4h-5.9c-3.4 0-3.9.7-3.5 4.4h13.2zm67.4-8.6c-4.8 0-8.7 3.9-8.7 8.7v19.9h-6.4c-1.6 0-3 1.3-3 3v14.8c0 1.6 1.3 3 3 3h64.7c1.6 0 3-1.3 3-3v-14.8c0-1.6-1.3-3-3-3h-6.4V85c0-4.8-3.9-8.7-8.7-8.7s-8.7 3.9-8.7 8.7v19.9h-17.2V85c.1-4.8-3.8-8.7-8.6-8.7zm37.3 28.5h-5.5V85c0-1.5 1.2-2.7 2.7-2.7 1.5 0 2.7 1.2 2.7 2.7v19.8zm-43 6h52.3v8.9h-58.7v-8.9h6.4zm5.7-28.5c1.5 0 2.7 1.2 2.7 2.7v19.9h-5.5V85c.1-1.5 1.3-2.7 2.8-2.7z"/>
        <path class="st4" d="M213.9 171.8c15.1 0 27.4-12.3 27.4-27.4v-21.8h-54.7v21.8c-.1 15.2 12.1 27.4 27.3 27.4z"/>
        <path class="st4" d="M219.4 178.3c0 15.7-12.8 28.5-28.5 28.5h-45v-2.9l8.9-1.7 2.7-6.4H191c9.6 0 17.5-7.8 17.5-17.5v-7.4h11v7.4z"/>
        <path d="M203.5 135.9c1.6 0 3.1.3 4.4 1 1.3.7 2.3 1.6 3 2.8s1.1 2.6 1.1 4.1c0 1.5-.4 2.9-1.1 4.1-.7 1.2-1.7 2.1-3 2.8s-2.8 1-4.5 1H197v-15.8h6.5zm-.3 13.3c1.7 0 3-.5 4.1-1.5s1.5-2.3 1.5-4c0-1.7-.5-3-1.5-4s-2.4-1.5-4.1-1.5H200v11h3.2zm22.2-13.5c.9 0 1.8.1 2.6.3s1.8.5 2.8 1v2.9c-1-.6-1.9-1-2.7-1.2-.8-.2-1.7-.4-2.6-.4-1.1 0-2.1.2-3 .7-.9.5-1.6 1.1-2.1 2-.5.8-.8 1.8-.8 2.8 0 1.1.2 2 .7 2.8.5.8 1.2 1.5 2.1 1.9.9.5 1.9.7 3 .7.9 0 1.7-.1 2.5-.4.8-.2 1.8-.7 3-1.3v2.9c-1 .5-2 .9-2.8 1.1s-1.9.3-3 .3c-1.7 0-3.1-.3-4.5-1-1.3-.7-2.3-1.6-3.1-2.9-.7-1.2-1.1-2.6-1.1-4.1 0-1.6.4-3 1.2-4.3.8-1.3 1.8-2.2 3.2-2.9 1.3-.6 2.9-.9 4.6-.9z" style="fill:#fff"/>
        <path class="st4" d="M122.6 128.2c-9.7 0-17.8 7.9-17.8 17.8s7.9 17.8 17.8 17.8c9.7 0 17.8-7.9 17.8-17.8s-8.1-17.8-17.8-17.8zm-2.3 31.5 2.1-11.5c0-.2-.1-.4-.4-.4h-5c-.2 0-.4-.2-.4-.5l4.2-15.3c0-.2.2-.3.4-.3h6.6c.3 0 .5.3.3.5l-4.9 9.8c-.1.2.1.5.3.5h5.9c.3 0 .5.3.3.5l-8.7 16.8c-.2.5-.8.3-.7-.1z"/>
        <path d="M144.2 124.4h-43.1c-2.4 0-4.3-1.9-4.3-4.3v-16.9c0-2.4 1.9-4.3 4.3-4.3h43.1c2.4 0 4.3 1.9 4.3 4.3v16.9c0 2.4-1.9 4.3-4.3 4.3zm0 34.6h-43.1c-2.4 0-4.3-1.9-4.3-4.3v-16.9c0-2.4 1.9-4.3 4.3-4.3h43.1c2.4 0 4.3 1.9 4.3 4.3v16.9c0 2.4-1.9 4.3-4.3 4.3zm0 35.9h-43.1c-2.4 0-4.3-1.9-4.3-4.3v-16.9c0-2.4 1.9-4.3 4.3-4.3h43.1c2.4 0 4.3 1.9 4.3 4.3v16.9c0 2.3-1.9 4.3-4.3 4.3z" style="fill:none;stroke:#040000;stroke-width:4.0416;stroke-miterlimit:10"/>
    </g>
</svg>
