<svg xmlns="http://www.w3.org/2000/svg" width="338.4" height="316" style="overflow:visible;enable-background:new 0 0 338.4 316" xml:space="preserve">
    <g style="opacity:.6">
        <path d="M207.9 179.5h-95.5c-1.3 0-2.3-1-2.3-2.3v-12.8c0-1.3 1-2.3 2.3-2.3h95.5c1.3 0 2.3 1 2.3 2.3v12.8c0 1.3-1 2.3-2.3 2.3zm-93.1-4.6h90.8v-8.2h-90.8v8.2z"/>
        <path d="M196.5 166.7h-72.7c-1.3 0-2.3-1-2.3-2.3V55.2c0-3.2 2.6-5.8 5.8-5.8H193c3.2 0 5.8 2.6 5.8 5.8v109.2c.1 1.2-1 2.3-2.3 2.3zm-70.3-4.6h68.1V55.2c0-.7-.5-1.2-1.2-1.2h-65.7c-.7 0-1.2.5-1.2 1.2v106.9z"/>
        <path d="M196.5 166.7h-72.7c-1.3 0-2.3-1-2.3-2.3v-62.2c0-1.3 1-2.3 2.3-2.3h72.7c1.3 0 2.3 1 2.3 2.3v62.2c.1 1.2-1 2.3-2.3 2.3zm-70.3-4.6h68.1v-57.6h-68.1v57.6zM167 54h-13.6c-1.3 0-2.3-1-2.3-2.3v-6.4c0-1.3 1-2.3 2.3-2.3H167c1.3 0 2.3 1 2.3 2.3v6.4c0 1.2-1 2.3-2.3 2.3zm-11.3-4.7h9v-1.7h-9v1.7zm28.8 36.3h-48.7c-1.9 0-3.5-1.6-3.5-3.5V66.8c0-1.9 1.6-3.5 3.5-3.5h48.7c1.9 0 3.5 1.6 3.5 3.5v15.3c.1 2-1.5 3.5-3.5 3.5zM136.9 81h46.5V67.9h-46.5V81z"/>
        <path d="M123.8 104.5h-7.1c-1.8 0-3.3-1.5-3.3-3.3V85.5c0-1.8 1.5-3.3 3.3-3.3h7.1c1.3 0 2.3 1 2.3 2.3v17.6c.1 1.3-1 2.4-2.3 2.4zm-5.6-4.7h3.4V86.9h-3.4v12.9zm113.2-13.6c-2.3 0-4.2 1.9-4.2 4.2v9.6h-3.1c-.8 0-1.4.6-1.4 1.4v7.2c0 .8.6 1.4 1.4 1.4h31.2c.8 0 1.4-.6 1.4-1.4v-7.2c0-.8-.6-1.4-1.4-1.4h-3.1v-9.6c0-2.3-1.9-4.2-4.2-4.2s-4.2 1.9-4.2 4.2v9.6h-8.3v-9.6c.1-2.3-1.8-4.2-4.1-4.2zm17.9 13.7h-2.6v-9.6c0-.7.6-1.3 1.3-1.3s1.3.6 1.3 1.3v9.6zm-20.7 2.9h25.3v4.3h-28.3v-4.3h3zm2.8-13.8c.7 0 1.3.6 1.3 1.3v9.6h-2.6v-9.6c0-.7.6-1.3 1.3-1.3z"/>
        <path d="M239.7 130c7.3 0 13.2-5.9 13.2-13.2v-8.3h-26.4v8.3c0 7.3 5.9 13.2 13.2 13.2z"/>
        <path d="M242.4 132.6c0 7.6-6.2 13.7-13.7 13.7h-32.4V141h32.4c4.6 0 8.4-3.8 8.4-8.4V129h5.3v3.6z"/>
    </g>
    <path d="M111.5 213.1c-.4 1.2-1 2.4-1.8 3.8s-1.6 2.7-2.5 3.9c-.9 1.2-1.9 2.4-2.9 3.4-1 1.1-2 2-3 2.6-.5-.6-1.2-1.3-2.2-2.2 1-.6 2.1-1.4 3.2-2.5 1.2-1.1 2.2-2.3 3.2-3.7 1-1.4 1.8-2.6 2.3-3.6.5-1 .9-2 1.1-2.8l2.8.8c-.1.1-.2.2-.2.3zm6.8 16.1 2.4-1.3c.7.8 1.5 1.9 2.4 3 .9 1.2 1.8 2.6 2.9 4.2 1 1.6 2 3.3 2.9 5l-2.7 1.4c-.4-.8-.9-1.8-1.7-3.2-1.8.2-4.5.5-8.1.8s-7.1.7-10.5 1c-.4 0-.8.1-1.4.2-.5.1-1 .1-1.4.2l-1-2.8c.8-.5 1.7-1.2 2.7-2.3 1-1 2-2.3 3.1-3.8 1-1.5 2-3.1 3-4.7.9-1.7 1.6-3.1 2-4.4l2.9 1.4c-.2.3-.4.6-.7 1.2-.6 1.2-1.3 2.5-2.2 4s-1.8 3-2.9 4.4c-1 1.4-2.1 2.7-3.1 3.8 1.6-.1 3.4-.3 5.7-.5 2.2-.2 4.2-.4 5.9-.6s3.2-.3 4.3-.5c-1.3-2.2-2.9-4.4-4.5-6.5zm2.5-18.5c.4 1.2.9 2.4 1.6 3.6.7 1.3 1.4 2.4 2.2 3.4s1.6 2 2.3 2.7c.8.8 1.6 1.5 2.3 2 .8.6 1.4 1 2 1.3l-1.8 2.6c-.9-.5-1.8-1.1-2.8-2-1-.8-2-1.8-2.9-3-1-1.2-1.9-2.5-2.8-3.9-.9-1.4-1.7-3-2.3-4.6h-5.4v-2.4h7.6zm45.5 2.8v22.1l.1 2.3c0 .4-.1.8-.2 1.2-.2.4-.4.7-.9 1-.4.3-1.1.5-1.9.7-.9.2-2 .3-3.5.3 0-.1-.1-.2-.1-.3-.1-.2-.3-.6-.6-1.3-.3-.7-.6-1.2-.7-1.4 1 .2 1.9.2 2.8.2.7 0 1.2-.1 1.6-.2.4-.1.6-.4.6-.9v-6.5H155v7.9c0 .5 0 1.2.1 2h-2.9c0-.8.1-1.4.1-2v-7.9h-8.2c-.2 1.5-.5 2.9-.8 4.2-.4 1.3-.9 2.4-1.4 3.5-.6 1.1-1.3 2-2.1 2.8-.9-.8-1.6-1.5-2.2-2 1-1 1.7-2.1 2.3-3.3.6-1.2 1-2.6 1.4-4.3.3-1.6.5-3.7.5-6.2v-12.7c0-.3 0-.5-.1-.9h24.9l-.3 1.7zm-22 14.7h8v-5.7h-7.9v3.1l-.1 2.6zm8-13.9h-7.9v5.6h7.9v-5.6zm11.2 0H155v5.6h8.5v-5.6zm-8.4 13.9h8.5v-5.7h-8.5v5.7zm49.8 3.2 2.8 1.8c-.1 2.3-.4 4-.8 5-.5 1-1.2 1.8-2.2 2.2-1 .5-2.5.7-4.3.7-1.3 0-2.4 0-3.4-.1s-1.7-.3-2.1-.6c-.4-.3-.7-.7-.9-1.2-.2-.5-.3-1.2-.3-2.1v-11.4l-4.2.3c0 2.2-.3 4.1-.8 5.8-.5 1.7-1.2 3.2-2.2 4.5-.9 1.3-2.1 2.3-3.6 3.2-1.4.9-3.1 1.5-4.9 2-.2-.3-.9-1.1-2.1-2.5 1.9-.4 3.5-1 4.8-1.7 1.3-.7 2.4-1.6 3.3-2.6.9-1 1.5-2.2 1.9-3.7.4-1.4.7-3 .7-4.8l-4.7.3c-1.2.1-2.1.1-2.5.2l-.8-2.7c.5-.1 1.1-.4 2-.9.9-.6 2-1.5 3.3-2.8s2.5-2.6 3.5-4h-7.9c-1.4 0-2.5 0-3 .1v-2.8c.6 0 1.6.1 3 .1h11.3c-.4-.8-1.1-1.8-2-3l2.8-.8c.6.8 1.1 1.6 1.5 2.4.4.7.7 1.2.9 1.5h9.9c1.4 0 2.4 0 2.9-.1v2.8c-.6 0-1.5-.1-2.9-.1h-13c-.9 1.2-2 2.5-3.3 4-1.3 1.5-2.6 2.7-3.7 3.6 4.5-.2 9.5-.5 14.9-1-1.2-1.1-2.4-2.2-3.6-3.2l2-1.4c1.2.9 2.7 2.1 4.3 3.6 1.6 1.5 3.1 3 4.3 4.5l-2.2 1.9c-.6-.8-1.4-1.9-2.6-3.1l-4.7.4v11.8c0 .6.3.9.8 1 .1 0 .3.1.6.1h2.5c.8 0 1.5-.1 2-.2.5-.2 1-.4 1.3-.8.2-.2.3-.5.5-.9s.3-1.1.4-2c.4-1.1.5-2.2.5-3.3zm24.3-14.2h-10.7v5.8h-2.8c0-.4.1-.7.1-.9v-6c0-.3 0-.6-.1-.9h13.5v-2.1h-9.1c-1.2 0-2 0-2.5.1v-2.4h26.1v2.4c-.5 0-1.3-.1-2.5-.1h-9.4v2.1h13.8v7.8h-2.8v-5.8h-11v6.3c0 .6 0 1 .1 1.3h-2.7c0-.3.1-.7.1-1.3v-6.3zm15.1 16.5c.3.2.6.4 1.1.7.5.3.9.5 1.4.8 0 .1 0 .3-.1.6 0 .3-.1.7-.2 1.2s-.3 1-.6 1.5-.7.9-1.2 1.3-1.4.7-2.5.9-2.6.4-4.7.4c-1.9 0-3.4 0-4.6-.1-1.2-.1-2-.2-2.4-.5-.4-.3-.8-.6-.9-1-.2-.4-.3-.8-.3-1.2v-1.8h-7.6v2.3h-2.6c0-.5.1-.9.1-1.2v-10.3c0-.3 0-.7-.1-1.2h23.1v10.3h-10.4v.8c0 .6.3 1 .9 1.2.6.1 2.3.2 5 .2.9 0 1.8-.1 2.7-.2.9-.1 1.6-.3 2.3-.7.5-.3.8-.8 1-1.4s.5-1.4.6-2.6zm-17.2-14.8v1.7h-6.6v-1.7h6.6zm-5.3 3.3h5.4v1.6h-6.6v-1.6h1.2zm7.4 6h-7.6v2.2h7.6v-2.2zm-7.5 6.3h7.6v-2.3h-7.6v2.3zm18-4.2v-2.2h-7.9v2.2h7.9zm-7.9 4.2h7.9v-2.3h-7.9v2.3zm8.6-15.6v1.7h-6.6v-1.7h6.6zm-5.3 3.3h5.4v1.6h-6.6v-1.6h1.2z" style="fill:#3aae36"/>
    <path d="M58 269.4c.8-.2 1.5-.5 2.3-.9.8-.4 1.6-.8 2.4-1.4.8-.5 1.5-1.1 2.3-1.8.7-.7 1.4-1.4 2-2.2h-5.1V262h6.7c1.3 1.7 2.9 3.2 4.7 4.5s3.6 2.2 5.4 2.7c-.2.3-.4.6-.5 1-1.8-.5-3.6-1.4-5.3-2.7s-3.3-2.7-4.6-4.4c-.5.6-1 1.3-1.7 2s-1.4 1.4-2.2 2c-.8.7-1.7 1.2-2.7 1.8-1 .5-2 1-3.1 1.3-.2 0-.4-.4-.6-.8zM68.8 280h9.5v1.2H58.4V280h9.2v-4.4H61v-1.1h6.6v-3.9h-5.3v-1.1h12.3v1.1h-5.8v3.9h6.9v1.1h-6.9v4.4zm26-16.2c.7.5 1.4 1.2 2.3 2.1s1.7 1.7 2.4 2.5 1.4 1.6 1.9 2.2l-.9.8c-.1-.1-.3-.4-.6-.9-.3-.4-.8-1-1.4-1.7-.5 0-2.9.2-7 .4-4.2.3-6.5.4-7.2.5h-.4c-.2 0-.4 0-.6.1-.2 0-.3 0-.4.1-.2-.7-.3-1.1-.3-1.2.2 0 .6-.2 1-.4s1-.7 1.7-1.3c.7-.6 1.4-1.3 2.1-2.2s1.3-1.5 1.7-2.1c.4-.6.7-1.1 1-1.4.2.1.7.3 1.3.5l-.4.2c-1.4 1.8-2.6 3.2-3.5 4.2-.9 1-1.8 1.8-2.7 2.5h.9c.5 0 2.1-.1 4.9-.3 2.8-.2 5.1-.3 6.9-.4l-1-1c-.4-.4-.9-.9-1.4-1.3-.5-.4-.9-.8-1.2-1.1.3-.4.6-.6.9-.8zm3.6 8.6v9.3h-1.2v-1.5H85.8v1.5h-1.2v-9.3h13.8zm-12.6 6.8h11.4v-5.7H85.8v5.7zm22.6-12.5v15.2h-1.3v-5.6c0-2.1.1-4.8.2-8-.4.7-.8 1.5-1.2 2.2-.5.8-.9 1.4-1.3 2l-.6-1.1c.5-.6 1-1.5 1.7-2.5s1.2-2.3 1.9-3.7c.6-1.4 1.1-2.7 1.4-3.9l1.1.4-.1.2c-.5 1.8-1.1 3.4-1.8 4.8zm15.2-.8h-7.7c-.3.8-.7 1.6-1.1 2.4s-.9 1.5-1.3 2.2h4.6v-2.9c.5 0 .9 0 1.1.1v2.8h4.9v7.5c0 .5-.2.9-.7 1.1-.4.2-1.2.3-2.4.3l-.5-1.2c.6.1 1 .1 1.3.1.4 0 .7 0 .9-.1.2-.1.3-.2.3-.5v-6.3h-3.7v10.5H118v-10.5h-3.7v7.8h-1.1v-8.5c-1 1.3-2 2.4-3.2 3.4-.2-.4-.4-.7-.7-1 1.2-.9 2.2-2 3.1-3.2.9-1.2 1.6-2.6 2.3-4.1h-4v-1.1h4.3c.4-1.2.8-2.3 1-3.5l1.2.2-.1.2c-.2.9-.5 2-.9 3.2h8.7v1.1h-1.3zm23.3 4.2v.4c0 2.8-.1 4.9-.2 6.3-.1 1.4-.3 2.4-.6 3-.2.6-.7 1-1.4 1.3-.7.3-1.7.5-3 .5-.1-.2-.2-.6-.6-1.3.4.1.9.2 1.3.2.6 0 1-.1 1.4-.2.4-.1.7-.3.9-.4.2-.2.3-.4.4-.6.1-.3.2-.6.3-1.1.1-.5.1-1.2.2-2.2.1-1 .1-2.6.1-4.8h-14.2c0 1.1-.1 2.1-.3 3.2s-.4 2-.6 2.8c-.3.9-.6 1.6-.9 2.2-.3.6-.6 1-.8 1.3-.2.3-.4.4-.4.5l-.3-.3c-.2-.2-.4-.3-.7-.6.4-.5.8-1 1.2-1.7s.7-1.4.9-2.3c.3-.9.4-1.8.6-2.8.1-1 .2-2.1.2-3.3v-7.8h15.2v5.2h-14.1v2.6h15.4zm-2.5-6.8h-12.9v3.2h12.9v-3.2zm-2.9 14.8v.6h-6.2v1.6h-1.1v-7h7.3v4.8zm-6.2-.4h5.1v-3.4h-5.1v3.4zm23.3-14.5c-.3.8-.6 1.6-1.1 2.5s-1.1 1.7-1.8 2.6-1.4 1.6-2.1 2.3c-.7.7-1.3 1.2-1.9 1.6l-.9-.9c.4-.2 1-.7 1.6-1.2.7-.6 1.4-1.3 2.1-2.3.8-.9 1.4-1.8 1.9-2.7.5-.8.8-1.6 1.1-2.3l1.2.3-.1.1zm5 10.8 1-.6c.8 1 1.7 2.2 2.8 3.6 1 1.4 1.9 2.9 2.7 4.4l-1.1.6c-.2-.5-.7-1.3-1.3-2.3-1.9.2-6.2.6-13.1 1.3-.5 0-1 .1-1.3.2l-.4-1.2c.7-.5 1.4-1.1 2.1-1.9.7-.8 1.4-1.7 2.1-2.8.7-1 1.3-2 1.8-3s.9-1.8 1.1-2.4l1.2.6-.3.5c-.6 1.3-1.4 2.6-2.2 3.9-.9 1.4-1.6 2.4-2.2 3.2-.6.7-1.1 1.3-1.5 1.7.8-.1 1.8-.2 3.2-.3 1.3-.1 2.9-.3 4.7-.5 1.8-.2 3.2-.3 4.3-.4-1.3-1.8-2.5-3.3-3.6-4.6zm1.2-12c.3.8.6 1.6 1.1 2.4.4.8 1 1.7 1.6 2.5.6.8 1.3 1.6 2 2.3.7.7 1.5 1.2 2.2 1.6l-.7 1c-.5-.3-1.1-.7-1.6-1.1-.5-.4-1.1-.9-1.6-1.5s-1-1.1-1.4-1.8-.9-1.3-1.3-2.1-.8-1.6-1.1-2.4h-3.9v-1h4.7zm27.7 1.8V280c0 .7-.3 1.1-1 1.4-.6.2-1.6.3-3 .3l-.6-1.3c.7.1 1.3.1 1.8.1s.9 0 1.2-.1.5-.3.5-.6v-5H185v6.7h-1.2v-6.7h-6.1c-.1 1-.3 1.9-.5 2.8-.2.9-.5 1.6-.9 2.4-.4.7-.8 1.4-1.4 1.9-.2-.2-.6-.5-.9-.8.9-1 1.6-2.3 2.1-3.8s.7-3.4.7-5.6V263h15.8l-.1.8zm-14.6 9.8h6v-4.4H178v2.4c0 .7 0 1.4-.1 2zm6-9.8H178v4.3h5.9v-4.3zm7.5 0H185v4.3h6.3v-4.3zm-6.4 9.8h6.3v-4.4H185v4.4zm31.6 2 1.1.8c0 1.1-.1 2-.3 2.6-.1.6-.4 1.1-.7 1.4-.3.3-.7.6-1.3.8-.6.2-1.3.3-2.3.3-1.1 0-1.9 0-2.4-.1s-.8-.1-1.1-.3c-.5-.3-.7-.9-.7-1.7v-8.2c-1.3.1-2.4.2-3.3.3 0 .3 0 .8-.1 1.3 0 .5-.1 1.1-.2 1.6s-.2 1-.4 1.5-.4 1-.7 1.6c-.3.6-.8 1.2-1.3 1.8-.6.6-1.2 1.1-2.1 1.5-.8.4-1.8.8-2.9 1.1l-.9-1.1c1.3-.3 2.4-.7 3.3-1.2.9-.5 1.7-1.2 2.3-1.9s1-1.6 1.3-2.7c.3-1 .4-2.2.4-3.5-.2 0-.8.1-1.8.1-1 .1-1.7.1-2.1.1-.4 0-.8 0-1.2.1l-.3-1.2c.3 0 .8-.3 1.5-.8s1.5-1.2 2.5-2.1c1-.9 1.8-1.9 2.4-2.8h-7.8v-.9h9.9c-.2-.4-.5-.8-.8-1.2-.3-.4-.6-.8-.9-1.1l1.1-.4c.2.3.5.7.9 1.2.3.5.6 1 .9 1.4l-.4.2h9.1v1.2H207c-.4.6-1 1.3-1.7 2.1s-1.5 1.6-2.1 2.2c-.7.6-1.2 1-1.6 1.4 3.5-.2 7.2-.4 11.2-.8-.9-.8-1.8-1.6-2.8-2.4l.8-.6c.6.4 1.3.9 2 1.6.8.7 1.5 1.3 2.1 1.9.6.6 1.1 1.2 1.6 1.7l-.9.8c-.4-.6-1.1-1.3-1.9-2.1l-3.5.3v8.3c0 .2.1.4.2.6.1.1.3.2.5.2.1 0 .3.1.5.1h1.9c.6 0 1.2-.1 1.6-.2.4-.1.7-.3 1-.5.1-.1.2-.4.4-.6s.2-.7.3-1.3v-2.4zm13.7-9.9h-7.8v3.9h-1.2v-4.9h9V263h-8v-1h17.2v1h-8.1v1.8h9.1v4.9h-1.1v-3.9h-7.9v5.2h-1.1v-5.3zm9.8 11.6c.1.1.3.2.4.3l.6.3c-.1 1-.3 1.8-.6 2.3-.4.5-.9.8-1.7 1.1-.8.2-1.9.3-3.3.3s-2.4 0-3-.1c-.6 0-1.1-.1-1.3-.3-.3-.2-.5-.4-.6-.6-.1-.3-.2-.7-.2-1.1v-.8h-5.7v1.6h-1.1v-8.2h14.8v6.5h-7v.8c0 .5.2.9.7 1 .5.1 1.7.1 3.5.1 1.5 0 2.7-.2 3.4-.6.4-.2.6-.5.8-.9.1-.4.2-1 .3-1.7zm-11.5-10v.8h-4.4v-.8h4.4zm-3.6 2.3h3.6v.8h-4.4v-.8h.8zm5.3 3.3h-5.7v2h5.7v-2zm-5.6 4.8h5.7v-2h-5.7v2zm12.6-2.8v-2h-5.9v2h5.9zm-5.9 2.8h5.9v-2h-5.9v2zm6.1-10.4v.8H233v-.8h4.5zm-3.6 2.3h3.7v.8h-4.5v-.8h.8zm17.3-.6c0 1.1-.2 2.5-.4 4.2-.3 1.7-.6 3.1-.9 4.4.4-.1.9-.3 1.5-.4.6-.2 1-.3 1.3-.4 0 .4-.1.8-.1 1.1-.9.3-2.2.7-3.8 1.2s-2.9.9-3.6 1.1c-.4.1-.7.2-.8.3l-.2-1.2.9-.2c.7-.2 2-.5 3.8-1.1.4-1.2.7-2.8 1-4.8s.4-3.5.5-4.7l1.1.2-.3.3zm-6-2.5h7.4v1.1h-8.4v-1.1h1zm1.4 2.6c.1 1 .2 2 .3 3.2.1 1.2.2 2.3.2 3.5l-1 .3c-.1-2.6-.3-4.9-.6-6.8l1.1-.2zm2.8-3.8-.9.5c-.2-.6-.5-1.2-.9-1.8s-.7-1.2-1-1.7l.9-.5c.3.4.7 1 1 1.6.3.8.6 1.4.9 1.9zm13.9.1h.9v1.1h-5.4v4.5h4.3v10.9h-1.2v-1.7h-7.1v1.7h-1.2V271h4v-9.5h1.2v3.9h4.5zm-1.4 13.7V272h-7.1v7.2h7.1zm14.2-4.9c.4-.2.7-.6.9-1s.4-1 .4-1.7h-1.1v-2h2v1.4c0 .6-.1 1.2-.2 1.7-.2.5-.4 1-.7 1.3s-.6.6-1 .8l-.3-.5zM5 314.9v.8H3.8v-4.8c0-1.9.1-3.5.1-4.7-.5.6-1.1 1.2-1.6 1.7-.6.6-1.1 1-1.6 1.4l-.7-.9c.6-.4 1.3-1 1.9-1.6.7-.6 1.3-1.4 1.9-2.1v-1l.6.2c1-1.4 1.8-2.8 2.5-4.3H.4v-1.1h7c.4-1.1.8-2.2.9-3.3l1.2.3-.1.2c-.1.4-.2.8-.4 1.4s-.3 1.1-.5 1.4h11.4v1.1H8.1c-.4.9-.9 1.8-1.4 2.7-.6.9-1.1 1.8-1.7 2.6v10zm13.9-1.4h1.4v1.1H6.5v-1.1h6.3v-6.1H7.6v-1.1h5.3v-4.2h1.2v4.1h5.3v1.1H14v6.1h4.9zm4.1-8.1c.5-.6 1.1-1.4 1.7-2.4s1.3-2.2 1.9-3.7c.6-1.4 1.1-2.8 1.5-4.1l1.1.4-.1.2c-.6 1.8-1.2 3.5-1.9 4.9v15.2H26v-1c0-1.3 0-3.3.1-6 0-2.6.1-4.8.2-6.6-.4.8-.8 1.5-1.3 2.3-.5.8-.9 1.4-1.4 1.9l-.6-1.1zm7.2-1.7c-.2-.3-.5-.6-.8-.8.5-.6.9-1.2 1.3-2s.8-1.6 1.1-2.6c.3-.9.6-1.9.8-2.9l1.1.2-.1.2c-.1.4-.2.9-.4 1.5s-.3 1.1-.4 1.4h9.5l.2-.2c.2.2.4.3.6.4s.3.2.5.3l-.2.1c-.2.8-.6 1.6-.9 2.5-.4.8-.7 1.5-1 2l-.9-.6c.3-.4.5-.9.8-1.6.3-.6.5-1.2.7-1.8h-9.7c-.3.7-.6 1.4-1 2.1-.4.6-.8 1.3-1.2 1.8zm3.5 1.1c-.1.1-.1.2-.1.3-.4 1.4-.8 2.7-1.3 3.9-.5 1.2-1.2 2.3-2 3.4l-.6-.6-.3-.3c.6-.7 1.1-1.5 1.6-2.4s.9-1.8 1.1-2.6.5-1.5.6-2.1l1 .4zm3.5-3.4v12.4c0 .4-.1.7-.3 1-.2.2-.6.4-1.2.6-.6.1-1.5.2-2.7.2l-.6-1.2s.3 0 .7.1.8.1 1.2.1c.5 0 .9 0 1.3-.1.3-.1.5-.3.5-.6v-12.2c.4-.4.8-.4 1.1-.3zm3.1 3c.4.8 1 1.8 1.6 3.1.6 1.2 1.2 2.7 1.8 4.2l-.9.7c-.4-1.2-.9-2.5-1.5-3.8-.6-1.3-1.2-2.6-1.8-3.7l.8-.5zm14.2-5.4v14.2h-1.1V312h-4.5v2.2h-1.2v-15h2c.1-.3.2-.7.4-1.2s.3-1 .4-1.5c.1-.4.1-.7.1-.9l1.2.2-.1.2c-.1.5-.2 1-.4 1.6-.2.6-.3 1.1-.5 1.6h3.7zm-1.2 1h-4.5v4.8h4.5V300zm-4.4 11h4.5v-5.2h-4.5v5.2zm17-11.9v.4c0 4-.1 7.1-.2 9.2-.1 2.1-.4 3.6-.8 4.4-.1.1-.2.3-.3.6s-.4.5-.7.7-.6.4-.9.5c-.3.1-.8.2-1.3.3-.5.1-1.2.1-2 .1 0 0 0-.1-.1-.3s-.1-.3-.2-.6c-.1-.2-.2-.4-.2-.5.2 0 .4.1.7.1h.7c1 0 1.7-.1 2.3-.4.5-.3.9-.7 1.2-1.2.2-.4.3-.9.4-1.6.1-.7.2-1.9.3-3.5.1-1.6.1-4.1.1-7.4h-6.5c-.2.3-.4.7-.6 1.1s-.5.8-.8 1.2c-.3.4-.6.8-.9 1-.2-.2-.5-.4-.9-.7.5-.5 1-1.3 1.6-2.2.6-.9 1-1.9 1.4-2.8.4-.9.6-1.7.8-2.4l1.1.2-.1.2c-.3 1.1-.7 2.1-1.2 3.2h7.1zm-4.1 9.4-1 .6c-.3-.6-.8-1.3-1.4-2.2s-1.1-1.5-1.6-2l.9-.6c.4.4.9 1 1.5 1.8.7.8 1.2 1.6 1.6 2.4zm26.4 5.3h1.7v1.1h-20v-1.1h9.6v-5.9h-6.6v-1.1h6.6v-5.2H74c-.4.8-.9 1.6-1.3 2.3-.5.7-.9 1.3-1.4 1.7-.2-.3-.5-.5-.9-.9.5-.5 1-1.2 1.6-2.1.6-.9 1.1-1.9 1.6-3s.8-2.2 1-3.2l1.2.3-.1.2c-.3 1.2-.7 2.4-1.3 3.6h5v-5.1c.6 0 1.1 0 1.3.1v5h7.4v1.1h-7.4v5.2h6.9v1.1h-6.9v5.9h7.5zm9.6-9.9c-.2.4-.4.8-.6 1-.6-.5-1.3-.9-2.1-1.4-.8-.5-1.5-.8-2.1-1.1l.6-1c.8.4 1.5.8 2.3 1.2s1.4 1 1.9 1.3zm-3.9 10c.6-.8 1.4-1.9 2.4-3.3s1.7-2.5 2.1-3.3c.3.5.6.9.7 1.1-.2.4-.5.9-1 1.6-.5.7-1 1.5-1.6 2.4s-1.2 1.7-1.7 2.2l-.5.7-1-1 .6-.4zm4.9-15.5c-.1.2-.3.6-.6 1-.6-.5-1.3-1-2.1-1.5-.7-.5-1.4-.9-2.1-1.2l.6-1c1.1.6 1.9 1.1 2.6 1.6s1.1.7 1.6 1.1zm13.2 4.1h1.4v1.1h-6.6v3.8h4.6v8.3h-1.2v-1.4H102v1.4h-1.2v-8.3h4.7v-3.8h-6.6v-1.1h6.6v-4.3c-1.8.3-3.6.4-5.3.5 0-.2-.2-.5-.4-1.1 2.1 0 4.1-.2 6.2-.5 2-.3 3.8-.7 5.2-1.3.2.3.4.6.7 1l-.4.1c-.7.2-1.5.4-2.3.6-.8.2-1.7.4-2.4.5v4.5h5.2zm-1.7 10.9v-4.9h-8.2v4.9h8.2zm24.9-15.8v18.2H134v-1.7h-15.4v1.7h-1.2v-19.3h17.7l.1 1.1zm-16.5 15.5h15.4v-15.6h-15.4v15.6zm6-8.6c-.4.6-1 1.3-1.7 2h6.7v.4c0 .3-.1.6-.1.9-.1.4-.1.6-.2.8-.1.4-.4.6-.8.8-.4.2-1 .3-1.7.3-.1-.4-.3-.7-.5-1.1.3.1.6.2.9.2.3 0 .5-.1.7-.2s.4-.3.4-.5c0-.1.1-.4.2-.8h-4.7v3c0 .3.1.5.4.6.2.1 1.2.1 2.9.1.5 0 1 0 1.4-.1.5-.1.9-.2 1.2-.4.3-.2.5-.4.6-.7.1-.3.2-.7.2-1.3l.9.6c0 .4-.1.7-.2 1-.1.3-.3.6-.6.9-.3.3-.7.5-1.3.6-.6.2-1.4.2-2.5.2h-2.3c-.7 0-1.2-.1-1.4-.3-.4-.2-.5-.7-.5-1.4v-3.7c-.6.5-1.1 1-1.7 1.3-.5.3-1 .6-1.4.8-.1-.1-.2-.3-.3-.4-.1-.2-.3-.3-.3-.5 1.8-.8 3.2-1.9 4.3-3.2h-3.7v-.9h4.3c.3-.5.6-1.1.8-1.7h-4.4v-.8h4.7c.1-.4.2-.9.3-1.4s.1-1 .1-1.3l1 .2v.3c-.1.8-.2 1.6-.4 2.3h3.1l-.7-.3c.5-.6 1-1.3 1.4-2.2l.9.4-.2.2c-.3.6-.7 1.2-1.2 1.9h2.7v.9h-6c-.1.2-.2.5-.4.9s-.3.6-.4.9h7.6v.9h-3.3l1.2 1.2c.5.4.9.7 1.5 1 .5.3 1 .6 1.5.8l-.6.9c-.8-.4-1.6-.9-2.5-1.5-.9-.7-1.6-1.5-2.4-2.4h-3.5zm-.9-4c-.1.1-.3.1-.4.2-.2.1-.3.2-.4.2-.5-.7-.9-1.4-1.4-2l.9-.4c.2.4.7 1.1 1.3 2zm24.6 7.7c.4-.2.7-.6.9-1s.4-1 .4-1.7h-1.1v-2h2v1.4c0 .6-.1 1.2-.2 1.7-.2.5-.4 1-.7 1.3s-.6.6-1 .8l-.3-.5zm20.8 3.9h-2.4v3.8h-1v-3.8h-3.5v-1h3.5V309h-2.7v-7.9h2.7v-2.2h-3.2v-1h3.2v-2.7h1.1v2.6h3.2v1h-3.2v2.2h2.8v7.9h-2.8v2.2h3.4v1h-1.1zm-3.3-10.1h-1.8v2.6h1.8V302zm-1.7 3.4v2.7h1.8v-2.7h-1.8zm4.5-.9V302h-1.9v2.6h1.9zm-1.9 3.6h1.9v-2.7h-1.9v2.7zm15.1 6h1.3v1.1h-13v-1.1h5.8v-4.8h-4.7v-1h10.8v1h-4.9v4.8h4.7zm-.5-16.7h-10.8v-1.1h12v1.1h-1.2zm-6.8 9.3-1 .4c-.4-.6-.9-1.4-1.5-2.4-.7-1-1.2-1.7-1.4-2 .3-.4.6-.9 1-1.4.4-.6.7-1.1.9-1.6.3-.5.4-.9.5-1.2l1 .4-.2.4c-.3.6-.7 1.2-1.1 1.8-.4.7-.7 1.2-1 1.6.2.2.4.6.8 1s.7 1 1.1 1.6c.3.5.7 1 .9 1.4zm3.4-7.9s-.1.1-.2.3c-.3.5-.6 1.1-1.1 1.8-.4.7-.8 1.3-1.1 1.7.4.4.8 1.1 1.4 1.9.6.9 1.1 1.5 1.4 2-.4.2-.7.3-.9.4-.3-.6-.8-1.3-1.5-2.3-.7-1-1.2-1.7-1.5-2.1.4-.5.8-1.2 1.3-2s.9-1.5 1.1-2.1l1.1.4zm4.3 7.8c-.4.2-.7.4-.9.5-.3-.5-.8-1.3-1.5-2.3-.7-1-1.3-1.7-1.6-2.1.4-.5.9-1.2 1.4-2 .5-.8.9-1.6 1.2-2.2l1 .4c-.1.1-.2.2-.2.3-1.1 1.8-1.9 3-2.3 3.5.2.2.4.5.8 1 .3.4.7.9 1.2 1.5.3.5.7 1 .9 1.4zm9.3 2.3.4-.3c.3.4.7.8 1 1.3.3.5.7.9.9 1.3.3.4.5.8.7 1.2l-.6.6c-.3-.6-.7-1.2-1.1-1.8-.4-.6-.8-1.2-1.3-1.8v6.4h-1.1v-.7c0-1.7 0-3.7.1-5.8-.3.5-.6 1-1 1.6s-1 1.2-1.6 1.8c-.6.6-1.2 1-1.7 1.4-.1-.1-.1-.3-.3-.5-.1-.2-.2-.3-.3-.5.8-.5 1.6-1.1 2.5-2 .8-.9 1.5-1.8 2-2.7h-4v-1h4.4V305c.5 0 .9 0 1.2.1v2.3h3.4v1h-3.4v.5zm-2.5-7h-3.2v-.9h1.9v-5.1h8.2v.8h-7.1v1h6.2v.7h-6.2v1h6.2v.7h-6.2v1.1h7.9v.9h-6.4l-1 1c-.4.4-.8.7-1.1.9 1.5-.1 3.4-.3 5.6-.5-.4-.4-.7-.8-1-1l.8-.4c.3.3.7.7 1.1 1.2.4.5.8.9 1 1.3l-.9.5c-.2-.4-.4-.6-.5-.8-.7.1-1.7.2-3.1.4-1.4.2-2.6.3-3.7.4l-.7.1-.3-1c.4-.2.8-.5 1.2-.9.6-.7 1-1 1.3-1.4zm9.3 4.7c-.3.8-.7 1.5-1.2 2.2-.5.7-1.1 1.3-1.6 1.7-.2-.3-.4-.5-.6-.8.4-.2.8-.6 1.1-1s.7-.8.9-1.3c.3-.4.5-.9.6-1.3l1 .2-.2.3zm3.5 4.7.8-.4c.7.8 1.3 1.6 1.9 2.4.6.8 1 1.5 1.4 2.2l-.9.4c-.2-.4-.5-.9-1-1.7l-7 .9-1.1.2-.3-1c.2 0 .6-.3 1.1-.9.5-.6 1-1.3 1.6-2.2.6-.9 1-1.7 1.3-2.5l1 .3-.1.2c-.2.5-.5 1.1-.8 1.7-.3.6-.7 1.2-1.1 1.8-.4.6-.8 1.1-1.2 1.4.8-.1 1.8-.2 3.1-.4s2.3-.3 2.9-.4c-.6-.8-1.1-1.4-1.6-2zm3.1-15.2c-.4.3-1 .6-1.7 1s-1.6.7-2.5 1-1.9.5-2.8.6l-.5-.9c1.3-.2 2.6-.5 3.8-.9 1.2-.4 2.3-1 3.2-1.6l.7.6-.2.2zm-7.1 7.6c1.4-.2 2.8-.5 4.1-1 1.4-.5 2.6-1.1 3.5-1.8l.8.6-.2.1c-1 .7-2.2 1.4-3.5 1.9-1.4.5-2.8.9-4.2 1.1l-.5-.9zm.1-3.1c.7-.1 1.4-.2 2.2-.4s1.7-.5 2.6-.9c.9-.4 1.6-.8 2.3-1.3l.8.6-.2.1c-.8.6-2 1.2-3.4 1.7s-2.6.9-3.7 1l-.6-.8zm5 4.9c.2.6.4 1.1.8 1.7.4.6.8 1.1 1.2 1.5.5.4.9.7 1.4 1 0 0-.1.2-.2.3s-.1.3-.2.4-.1.2-.1.2c-.5-.3-1-.6-1.5-1.1-.5-.5-.9-1-1.2-1.6-.3-.5-.6-1-.8-1.4h-3.1v-1h3.7zm25.8 1.7v.4c0 1 0 2-.1 2.8 0 .8-.1 1.5-.2 2.1-.1.6-.2 1.1-.4 1.5-.3.5-.7.9-1.4 1.1-.7.3-1.7.4-3.1.4 0-.1-.1-.3-.2-.6s-.2-.5-.3-.7c.4.1.9.2 1.4.2 1.4 0 2.3-.3 2.7-1 .2-.4.4-.9.4-1.7s.1-1.9.1-3.4h-14.1c-1.2 1.2-2.6 2.2-4.1 3.2-.1-.1-.3-.5-.6-1 2.2-1.4 4.1-3 5.6-4.7s2.7-3.7 3.7-5.9h-7.9v-1.1h8.3c.4-1.2.8-2.3 1.1-3.5l1.2.3-.1.2c-.2.9-.6 1.9-1 3.1h5.5c-.1.9-.4 2.4-.7 4.3h2.3c-.1.6-.2 1.9-.5 4.1h2.4zm-18.2 8c.2-.3.5-.7.8-1.2.3-.5.6-1.1.9-1.8s.6-1.4.7-2l1 .3c-.2.8-.5 1.7-.9 2.7-.4 1-.9 1.9-1.3 2.6l-1.2-.6zm5.1-17.2-1.1.4c-.4-1-.9-1.9-1.4-2.8l1.1-.3c.4.7.9 1.6 1.4 2.7zm9.4 9.2.4-3.1h-8.6c-.8 1.1-1.6 2.2-2.4 3.1h10.6zm-9.1 3 .9-.2c.2.5.4 1.2.6 2.1.2.9.4 1.8.5 2.7 0 0-.1 0-.3.1-.2.1-.3.1-.5.1-.1 0-.2 0-.2.1-.1-.7-.2-1.5-.4-2.4s-.4-1.8-.6-2.5zm7.8-10.4h-4.6c-.5 1.1-1 2.2-1.7 3.4h5.7l.6-3.4zm-4.6 10.4.8-.3c.2.3.4.7.7 1.2s.5 1 .7 1.5c.2.5.3.9.4 1.2l-1 .3c-.1-.6-.4-1.2-.7-2-.2-.7-.5-1.4-.9-1.9zm6.2 2.5s-.3.2-.9.4c-.4-.9-1.1-2-2.2-3.5l.8-.3c.2.3.5.6.9 1 .3.4.6.9.9 1.3.2.5.4.8.5 1.1zm27.5 1.9c-.2.4-.4.8-.5 1.1-1.9-.1-3.7-.4-5.3-.8-1.7-.4-3.1-.9-4.4-1.5-2.5 1.2-5.9 2-10.1 2.3-.1-.1-.1-.3-.3-.5-.1-.2-.2-.4-.3-.5 2.1-.2 3.9-.4 5.5-.7s2.9-.7 4.2-1.2c-.3-.2-.6-.4-1-.7-.4-.3-.8-.7-1.2-1-.4-.4-.7-.7-.9-1-.7.6-1.5 1.1-2.3 1.6-.8.5-1.7.9-2.6 1.2-.2-.3-.5-.6-.7-.8 1.1-.4 2.2-1 3.3-1.7 1.1-.7 2-1.4 2.7-2 .7-.7 1.2-1.3 1.6-1.7-.2 0-.4 0-.6-.1-.2 0-.4-.1-.6-.2-.3-.1-.5-.3-.6-.6-.1-.2-.2-.6-.2-1V302c.1 0 .5 0 1.1.1v2.8c0 .2 0 .3.1.5.1.1.3.2.6.3.3.1 1.2.1 2.7.1.7 0 1.3 0 1.7-.1s.8-.2 1.1-.3c.3-.2.6-.5.7-.9.1-.4.2-.8.2-1.2.6.3.9.5 1 .6 0 .5-.1 1-.3 1.3-.2.4-.4.6-.8.9-.3.2-.8.4-1.4.5-.6.1-1.4.2-2.3.2h-1.2c-.2.2-.4.5-.7.9-.3.4-.6.7-.8.9h7.3l.2-.2s.1.1.3.2.3.2.4.3c.1.1.2.2.3.2l-.2.1c-.7.8-1.4 1.4-2.1 2-.7.6-1.5 1.1-2.3 1.6 1 .4 2.2.8 3.5 1.1 1.1.4 2.9.6 5.2.7zm-19.5-6.7-.8-.8s.1-.1.3-.2.4-.3.8-.7c.4-.3.8-.8 1.3-1.3s.8-1.1 1.1-1.6l1 .6-.1.1c-.4.7-1 1.5-1.7 2.2-.7.7-1.3 1.3-1.9 1.7zm0-3.9v-4h4c-.4-.8-.8-1.5-1.2-2.1l1.1-.3c.5.9 1 1.7 1.3 2.3h3.7l-.6-1.2c-.2-.4-.3-.7-.4-.8-.1-.2-.2-.3-.2-.4l1-.3c.2.4.4.8.7 1.3.2.5.4.9.6 1.3h2.9c.2-.3.5-.8.8-1.4.3-.6.5-1.1.6-1.4l1.1.4-.1.2c-.3.5-.5 1-.8 1.4-.2.4-.4.7-.5.8h4.3v4h-1.2v-3h-15.9v3h-1.2zm17-7.6c-4.9.9-10.2 1.2-15.9 1.2l-.5-1c3.5 0 6.6-.1 9.3-.3 2.7-.2 4.9-.5 6.9-.9l.8.9-.6.1zm-11.3 13.2c.5.6 1.1 1.1 1.7 1.6.6.5 1.2.9 1.8 1.2 1.4-.7 2.7-1.7 4.1-2.9l-7.6.1zm5-5.3c-.4-.3-.8-.6-1.4-.9l-1.8-.9.6-.6c.3.1.7.3 1.1.5l1.2.6c.4.2.6.4.9.6l-.6.7zm4.9-1.2c.5.4 1.1.9 1.8 1.6.7.7 1.4 1.4 2 2.2l-.9.7c-.4-.6-1-1.4-1.7-2.1-.7-.8-1.4-1.4-2-1.9l.8-.5zm24.9 8.3h1.7v1.1h-9.4v3.3H265v-3.3h-9.2v-1.1h9.2v-2.3h-6.3v-7.8h6.3v-2.5h-8.5v-1.1h8.5v-2.3h1.2v2.4h8.8v1.1h-8.8v2.5h6.5v7.8h-6.5v2.3h7.7zm-8.8-9.1h-5.2v2.4h5.2v-2.4zm-5.2 3.3v2.6h5.2v-2.6h-5.2zm11.7-.9v-2.4h-5.3v2.4h5.3zm-5.4 3.4h5.3v-2.6h-5.3v2.6zm31.7 1.5 1.1.8c0 1.1-.1 2-.3 2.6-.1.6-.4 1.1-.7 1.4-.3.3-.7.6-1.3.8-.6.2-1.3.3-2.3.3-1.1 0-1.9 0-2.4-.1s-.8-.1-1.1-.3c-.5-.3-.7-.9-.7-1.7v-8.2c-1.3.1-2.4.2-3.3.3 0 .3 0 .8-.1 1.3 0 .5-.1 1.1-.2 1.6s-.2 1-.4 1.5-.4 1-.7 1.6c-.3.6-.8 1.2-1.3 1.8-.6.6-1.2 1.1-2.1 1.5-.8.4-1.8.8-2.9 1.1l-.9-1.1c1.3-.3 2.4-.7 3.3-1.2.9-.5 1.7-1.2 2.3-1.9s1-1.6 1.3-2.7c.3-1 .4-2.2.4-3.5-.2 0-.8.1-1.8.1-1 .1-1.7.1-2.1.1-.4 0-.8 0-1.2.1l-.3-1.2c.3 0 .8-.3 1.5-.8s1.5-1.2 2.5-2.1c1-.9 1.8-1.9 2.4-2.8h-7.8v-.9h9.9c-.2-.4-.5-.8-.8-1.2-.3-.4-.6-.8-.9-1.1l1.1-.4c.2.3.5.7.9 1.2.3.5.6 1 .9 1.4l-.4.2h9.1v1.2h-10.5c-.4.6-1 1.3-1.7 2.1s-1.5 1.6-2.1 2.2c-.7.6-1.2 1-1.6 1.4 3.5-.2 7.2-.4 11.2-.8-.9-.8-1.8-1.6-2.8-2.4l.8-.6c.6.4 1.3.9 2 1.6.8.7 1.5 1.3 2.1 1.9.6.6 1.1 1.2 1.6 1.7l-.9.8c-.4-.6-1.1-1.3-1.9-2.1l-3.5.3v8.3c0 .2.1.4.2.6.1.1.3.2.5.2.1 0 .3.1.5.1h1.9c.6 0 1.2-.1 1.6-.2.4-.1.7-.3 1-.5.1-.1.2-.4.4-.6s.2-.7.3-1.3c.2-.9.2-1.6.2-2.4zm13.7-9.9h-7.8v3.9h-1.2v-4.9h9V297h-8v-1h17.2v1h-8.1v1.8h9.1v4.9h-1.1v-3.9h-7.9v5.2h-1.1v-5.3zm9.8 11.6c.1.1.3.2.4.3l.6.3c-.1 1-.3 1.8-.6 2.3-.4.5-.9.8-1.7 1.1-.8.2-1.9.3-3.3.3s-2.4 0-3-.1c-.6 0-1.1-.1-1.3-.3-.3-.2-.5-.4-.6-.6-.1-.3-.2-.7-.2-1.1v-.8H306v1.6h-1.1v-8.2h14.8v6.5h-7v.8c0 .5.2.9.7 1 .5.1 1.7.1 3.5.1 1.5 0 2.7-.2 3.4-.6.4-.2.6-.5.8-.9.2-.4.2-1 .3-1.7zm-11.5-10v.8h-4.4v-.8h4.4zm-3.6 2.3h3.6v.8h-4.4v-.8h.8zm5.4 3.3H306v2h5.7v-2zm-5.7 4.8h5.7v-2H306v2zm12.6-2.8v-2h-5.9v2h5.9zm-5.9 2.8h5.9v-2h-5.9v2zm6.1-10.4v.8h-4.5v-.8h4.5zm-3.6 2.3h3.7v.8h-4.5v-.8h.8zm20.2 4.9c-.5 0-1-.1-1.4-.4-.4-.2-.8-.6-1.1-1.1s-.4-1-.4-1.5.1-1 .4-1.4c.2-.4.6-.8 1.1-1.1s1-.4 1.5-.4 1 .1 1.4.4.8.6 1.1 1.1c.3.5.4 1 .4 1.5s-.1 1-.4 1.4c-.2.4-.6.8-1.1 1.1-.4.3-.9.4-1.5.4zm0-.8c.6 0 1.1-.2 1.5-.6s.6-.9.6-1.5-.2-1.1-.6-1.5-.9-.6-1.5-.6-1.1.2-1.5.6-.6.9-.6 1.5.2 1.1.6 1.5 1 .6 1.5.6z" style="fill:#1a1a1a"/>
    <path d="M294.3 265.1c24.1-28 38.7-64.5 38.7-104.4C333 72.2 261.3.5 172.8.5S12.6 72.2 12.6 160.7c0 39.9 14.6 76.4 38.7 104.4" style="fill:none;stroke:#1a1a1a;stroke-width:.9645;stroke-linecap:round;stroke-linejoin:round;stroke-miterlimit:10"/>
</svg>
