<svg xmlns="http://www.w3.org/2000/svg" width="321.9" height="315.9" style="overflow:visible;enable-background:new 0 0 321.9 315.9" xml:space="preserve">
    <path d="M115.1 213.2c1.3 0 2.3 0 2.8-.1v2.5c-.5 0-1.5-.1-2.8-.1H91c-1.4 0-2.3 0-2.9.1v-2.5c.5 0 1.5.1 2.9.1h10.9c-.2-.4-.4-.9-.8-1.4-.4-.6-.6-1-.9-1.4l2.7-.8c.7 1 1.4 2.3 2 3.6h10.2zm1.8 13.5v11.5c0 .7-.2 1.3-.7 1.8s-1.1.7-2 .9-2 .3-3.5.3l-1.3-2.8c.2 0 .5.1 1.1.1.5 0 1 .1 1.5.1.4 0 .8 0 1.1-.1.4-.1.6-.2.8-.3.2-.2.2-.4.2-.6V229H92.3v11.1c0 .6 0 1 .1 1.3h-2.9c0-.2.1-.7.1-1.3v-12.5l-.1-.9h27.4zm-22.6-2.2c0-.3.1-.6.1-.9v-5c0-.2 0-.5-.1-.9H112v6.8H94.3zm15.4 12.6v.9H99v1.1h-2.6c0-.4.1-.7.1-1v-6c0-.3 0-.6-.1-.9h13.3v5.9zm-.3-17.3H97v2.6h12.4v-2.6zM99 236h8.2v-2.9H99v2.9zm32.9-16.2c-.5 1.4-1.3 2.8-2.2 4.2-.9 1.4-1.9 2.6-2.9 3.6-.7-.8-1.3-1.5-1.9-2.1.7-.6 1.4-1.4 2.1-2.3.7-.9 1.3-1.8 1.8-2.7s.8-1.7 1-2.3l2.3 1.3-.2.3zm4.1 11c.7.7 1.4 1.4 2.2 2.1.7.7 1.4 1.4 2 2.1l-1.9 2c-.4-.5-1-1.1-1.8-1.9-.7-.8-1.3-1.4-1.8-1.8-1.9 3.4-4.5 6.1-7.7 8.1-.2-.2-.5-.6-1-1.2s-.8-.9-.9-.9c3.1-1.8 5.6-4.5 7.6-8-.4-.4-1-.9-1.6-1.6-.7-.6-1.3-1.2-1.9-1.6l1.8-1.8 3 2.6c.3-.7.5-1.3.8-2.1s.5-1.4.6-2 .3-1.2.4-1.7l2.5 1.2-.1.3c-.6 2.1-1.3 4.2-2.2 6.2zm4-13.4h-14.1v-2.6h7.4c-.9-1.7-1.7-2.9-2.2-3.6l2.3-1c.4.7.9 1.4 1.5 2.3.5.9 1 1.6 1.2 2.2h5.8v2.6c-.4.1-1.1.1-1.9.1zm-.7 8.3c-.8-1.6-2-3.7-3.7-6.4l2.2-1c1.7 2.5 2.8 4.4 3.6 5.8-.7.5-1.4 1-2.1 1.6zm11.2 6.8c.4.6.9 1.3 1.5 2 .7.7 1.5 1.5 2.4 2.2s2 1.3 3 1.8c-.6 1.5-1 2.4-1 2.6-1.4-.7-2.8-1.6-4.1-2.7-1.3-1.1-2.3-2.3-3.3-3.6-1.8 2.5-4.2 4.6-7.2 6.2l-.6-1.2c-.3-.6-.6-1-.8-1.4 1.7-.8 3-1.7 4.2-2.7 1.1-1 2.1-2.1 2.9-3.3-.7-1.4-1.4-3-1.9-4.8-.6-1.8-1-3.7-1.3-5.8-.7 1.2-1.3 2.2-2 3-.1-.2-.3-.5-.6-.9s-.6-.9-1-1.4c1-1.1 2-2.9 3-5.2 1-2.4 1.7-4.8 2.2-7.3l2.5.6-.1.3c-.3 1.7-.8 3.4-1.5 5.3h10.4v2.5h-2.8c-.3 2.8-.8 5.3-1.4 7.6-.7 2.3-1.5 4.4-2.5 6.2zm-1.5-2.6c.6-1.2 1-2.4 1.5-3.7s.7-2.6 1-3.9c.2-1.3.4-2.5.5-3.7h-5.8c.1 1.5.4 3.1.7 4.6.3 1.5.7 2.9 1.1 4 .3 1.1.7 2 1 2.7zm43.8 1.5 2.8 1.8c-.1 2.3-.4 4-.8 5-.5 1-1.2 1.8-2.2 2.2s-2.4.7-4.3.7c-1.3 0-2.4 0-3.4-.1s-1.7-.3-2.1-.6c-.4-.3-.7-.7-.9-1.2-.2-.5-.3-1.2-.3-2.1v-11.4l-4.2.3c0 2.2-.3 4.1-.8 5.8-.5 1.7-1.2 3.2-2.2 4.5-.9 1.3-2.1 2.3-3.6 3.2-1.4.9-3.1 1.5-4.9 2-.2-.3-.9-1.1-2.1-2.5 1.9-.4 3.5-1 4.8-1.7 1.3-.7 2.4-1.6 3.3-2.6.9-1 1.5-2.2 1.9-3.7.4-1.4.7-3 .7-4.8l-4.7.3c-1.2.1-2.1.1-2.5.2l-.8-2.7c.5-.1 1.1-.4 2-.9s2-1.5 3.3-2.8 2.5-2.6 3.5-4h-7.9c-1.4 0-2.4 0-3 .1v-2.8c.6 0 1.6.1 3 .1H179c-.4-.8-1.1-1.8-2-3l2.8-.8c.6.8 1.1 1.6 1.5 2.4.4.7.7 1.2.9 1.5h9.9c1.4 0 2.4 0 2.9-.1v2.8c-.6 0-1.5-.1-2.9-.1h-13c-.9 1.2-2 2.5-3.3 4-1.3 1.5-2.6 2.7-3.7 3.6 4.5-.2 9.5-.5 14.9-1-1.2-1.1-2.4-2.2-3.6-3.2l2-1.4c1.2.9 2.7 2.1 4.3 3.6 1.6 1.5 3.1 3 4.3 4.5l-2.2 1.9c-.6-.8-1.4-1.9-2.6-3.1l-4.7.4v11.8c0 .6.3.9.8 1 .1 0 .3.1.6.1h2.5c.8 0 1.5-.1 2-.2.5-.2 1-.4 1.3-.8.2-.2.3-.5.5-.9s.3-1.1.3-2c.3-1.1.3-2.2.3-3.3zm24.3-14.2h-10.7v5.8h-2.8c0-.4.1-.7.1-.9v-6c0-.3 0-.6-.1-.9h13.5v-2.1H208c-1.2 0-2 0-2.5.1v-2.4h26.1v2.4c-.5 0-1.3-.1-2.5-.1h-9.4v2.1h13.8v7.8h-2.8v-5.8h-11v6.3c0 .6 0 1 .1 1.3h-2.7c0-.3.1-.7.1-1.3v-6.3zm15.1 16.5c.3.2.6.4 1.1.7.5.3.9.5 1.4.8 0 .1 0 .3-.1.6 0 .3-.1.7-.2 1.2s-.3 1-.6 1.5-.7.9-1.2 1.3-1.4.7-2.5.9-2.6.4-4.7.4c-1.9 0-3.4 0-4.6-.1-1.2-.1-2-.2-2.4-.5s-.8-.6-.9-1c-.2-.4-.3-.8-.3-1.2v-1.8h-7.6v2.3H207c0-.5.1-.9.1-1.2v-10.3c0-.3 0-.7-.1-1.2h23.1v10.3h-10.4v.8c0 .6.3 1 .9 1.2.6.1 2.3.2 5 .2.9 0 1.8-.1 2.7-.2.9-.1 1.6-.3 2.3-.7.5-.3.8-.8 1-1.4s.6-1.4.6-2.6zM215 218.9v1.7h-6.6v-1.7h6.6zm-5.3 3.3h5.4v1.6h-6.6v-1.6h1.2zm7.5 6h-7.6v2.2h7.6v-2.2zm-7.6 6.3h7.6v-2.3h-7.6v2.3zm18-4.2v-2.2h-7.9v2.2h7.9zm-7.8 4.2h7.9v-2.3h-7.9v2.3zm8.6-15.6v1.7h-6.6v-1.7h6.6zm-5.4 3.3h5.4v1.6h-6.6v-1.6h1.2z" style="fill:#3aae36"/>
    <path d="M81.2 280.3c1.2 0 2.7 0 4.5-.1 1.8-.1 3.4-.2 4.7-.3-.1.3-.2.7-.3 1.2-1.1.1-2.5.2-4.2.2-1.7.1-3.3.1-4.8.1-.9 0-1.8-.1-2.7-.2s-1.8-.4-2.7-.8c-.9-.4-1.6-.8-2.1-1.3-.6-.5-1-1-1.3-1.5-.3-.5-.5-1-.7-1.4-.2 1.2-.4 2.3-.7 3.3s-.6 1.8-.9 2.4l-.9-.9c.3-.6.7-1.5 1-2.6.3-1.1.5-2.3.7-3.5.2-1.2.2-2.3.3-3.3l1.1.2-.1.2c-.1 1-.1 1.6-.2 2.1 0 .4.1.9.3 1.4s.4 1 .7 1.5c.3.5.7.9 1.2 1.3V270h-4.5v-1.1H74v-3.4h-3.6v-1.1H74v-3c.3 0 .7 0 1.2.1v3h3.6v1.1h-3.6v3.4h3.9v1.1h-3.8v3.3h4v1.1h-4v4.7c1.6.7 3.6 1.1 5.9 1.1zm-1.8-11.1c.6-.2 1.2-.5 1.7-.9s.9-.8 1.2-1.2.6-1 .8-1.5c.2-.5.3-1.1.3-1.6h-3.5v-1h9.4v.4c0 1.3-.1 2.4-.1 3.1-.1.7-.2 1.3-.4 1.7-.2.3-.4.6-.7.8s-.7.4-1.2.4c-.5.1-1 .1-1.6.1l-.5-1.2c.3.1.7.2 1.2.2.2 0 .5 0 .8-.1.3 0 .5-.1.7-.3.2-.1.4-.3.4-.5.1-.3.2-.7.3-1.2.1-.5.1-1.4.1-2.5h-3.7c0 1-.3 1.9-.6 2.7s-.9 1.5-1.5 2-1.4 1-2.2 1.4c-.3-.1-.5-.4-.9-.8zm9.4 2.2v6.6h-8.4v-6.6h8.4zm-7.2 5.7h6.1v-4.7h-6.1v4.7zm29.4-13.2h1.6v1.1H93.5v-1.1h9.3c-.4-.8-.8-1.5-1.4-2.3l1.1-.4c.6.7 1.1 1.6 1.6 2.6h6.9zm.8 9.2v6.9c0 .3-.1.5-.2.7-.1.2-.4.4-.7.5s-.8.2-1.3.2-1 .1-1.5.1l-.6-1.2c.6.1 1.1.1 1.6.1.4 0 .8 0 1.1-.1.3-.1.4-.3.4-.6v-6.4h-15v8.4h-1.2v-9.4h17.3c.1.3.1.5.1.8zm-14-2.4v-4h10.9v4H97.8zm9.7-3.1h-8.6v2.2h8.6v-2.2zm-.2 7.6v4.2h-7.2v.8H99v-4.9h8.3zm-7.2 3.3h6.1v-2.4h-6.1v2.4zm28.1 1.8c1.4 0 2.9-.1 4.6-.2s3-.2 4-.4c0 .1-.1.2-.1.4-.1.2-.1.3-.1.5 0 .1-.1.2-.1.3-.8.1-2.1.2-3.8.3-1.7.1-3.2.1-4.5.1-2.1 0-3.9-.3-5.4-.9s-2.5-1.5-3-2.7c-.7 1.5-1.7 2.7-2.9 3.7-.2-.3-.5-.6-.8-.9.5-.3.9-.6 1.2-1s.7-.8 1-1.2c.3-.4.6-1 .9-1.8.3-.7.5-1.6.7-2.6h-2.6l-.2-1c.2-.1.4-.3.6-.5.3-.4.7-1 1.1-1.6.4-.6.7-1.2.9-1.6h-3.3v-1h3.9l.1-.1c.2.2.6.4.9.8l-.2.1c-.8 1.4-1.6 2.7-2.5 3.9h1.7l.1-.1.9.7-.2.1c-.2 1-.4 2-.7 2.9.1.4.3.8.6 1.2.3.4.6.7 1 1s.9.6 1.6.8c.6.3 1.4.4 2.3.6.7.2 1.5.2 2.3.2zm-8.3-14.2c-.3-.5-.8-1.1-1.3-1.8s-1-1.2-1.5-1.6l.8-.6c.4.4.8.8 1.4 1.5s1 1.2 1.4 1.8l-.8.7zm2 10.3c1.1-.4 2.1-1 3.2-1.7s1.9-1.5 2.6-2.3h-4.2v-5.3h4.8v-2.5h-6v-1.1h6v-2.1c.3 0 .7 0 1.2.1v2.1h6.2v1.1h-6.2v2.5h4.9v5.3h-5l.1 5.7v.7h-1.1V273c-.7.9-1.5 1.8-2.6 2.6s-2.2 1.4-3.2 1.9c0 0-.1-.2-.3-.4-.2-.5-.3-.6-.4-.7zm2.7-8.4v3.4h3.7V268h-3.7zm8.7 3.4V268h-3.9v3.4h3.9zm-3.5 2 .5-.7c.1 0 .2.1.5.3.3.1.8.4 1.5.9s1.4.9 2.2 1.3c.7.5 1.3.8 1.7 1.1l-.2.4c-.1.2-.2.4-.3.5-.4-.3-1-.7-1.7-1.2-.8-.5-2.2-1.4-4.2-2.6zm28.8 2.2 1.1.8c0 1.1-.1 2-.3 2.6-.1.6-.4 1.1-.7 1.4-.3.3-.7.6-1.3.8-.6.2-1.3.3-2.3.3-1.1 0-1.9 0-2.4-.1s-.8-.1-1.1-.3c-.5-.3-.7-.9-.7-1.7v-8.2c-1.3.1-2.4.2-3.3.3 0 .3 0 .8-.1 1.3 0 .5-.1 1.1-.2 1.6s-.2 1-.4 1.5-.4 1-.7 1.6c-.3.6-.8 1.2-1.3 1.8-.6.6-1.2 1.1-2.1 1.5-.8.4-1.8.8-2.9 1.1l-.9-1.1c1.3-.3 2.4-.7 3.3-1.2.9-.5 1.7-1.2 2.3-1.9s1-1.6 1.3-2.7c.3-1 .4-2.2.4-3.5-.2 0-.8.1-1.8.1-1 .1-1.7.1-2.1.1-.4 0-.8 0-1.1.1l-.3-1.2c.3 0 .8-.3 1.5-.8s1.5-1.2 2.5-2.1c1-.9 1.8-1.9 2.4-2.8h-7.8v-.9h9.9c-.2-.4-.5-.8-.8-1.2-.3-.4-.6-.8-.9-1.1l1.1-.4c.2.3.5.7.9 1.2.3.5.6 1 .9 1.4l-.4.2h9.1v1.2H149c-.4.6-1 1.3-1.7 2.1s-1.5 1.6-2.1 2.2c-.7.6-1.2 1-1.6 1.4 3.5-.2 7.2-.4 11.2-.8-.9-.8-1.8-1.6-2.8-2.4l.8-.6c.6.4 1.3.9 2 1.6.8.7 1.5 1.3 2.1 1.9.6.6 1.2 1.2 1.6 1.7l-.9.8c-.4-.6-1.1-1.3-1.9-2.1l-3.5.3v8.3c0 .2.1.4.2.6.1.1.3.2.5.2.1 0 .3.1.5.1h1.9c.6 0 1.2-.1 1.6-.2.4-.1.7-.3 1-.5.1-.1.2-.4.4-.6.1-.3.2-.7.3-1.3-.1-.9 0-1.6 0-2.4zm13.6-9.9h-7.8v3.9h-1.2v-4.9h9V263h-8v-1h17.2v1h-8.1v1.8h9.1v4.9h-1.1v-3.9h-7.9v5.2h-1.2v-5.3zm9.8 11.6c.1.1.3.2.4.3l.6.3c-.1 1-.3 1.8-.6 2.3-.4.5-.9.8-1.7 1.1-.8.2-1.9.3-3.3.3s-2.4 0-3-.1c-.6 0-1.1-.1-1.3-.3-.3-.2-.5-.4-.6-.6-.1-.3-.2-.7-.2-1.1v-.8h-5.7v1.6h-1.1v-8.2h14.8v6.5h-7v.8c0 .5.2.9.7 1 .5.1 1.7.1 3.5.1 1.5 0 2.7-.2 3.4-.6.4-.2.6-.5.8-.9.2-.4.3-1 .3-1.7zm-11.5-10v.8h-4.4v-.8h4.4zm-3.6 2.3h3.6v.8h-4.4v-.8h.8zm5.4 3.3h-5.7v2h5.7v-2zm-5.7 4.8h5.7v-2h-5.7v2zm12.6-2.8v-2h-5.9v2h5.9zm-5.9 2.8h5.9v-2h-5.9v2zm6.1-10.4v.8h-4.5v-.8h4.5zm-3.6 2.3h3.7v.8H175v-.8h.8zm18.3-1.7v3.8h-1v-2.9h-6.2v2.9h-1v-3.8h1.2v-5.5h6.1v5.5h.9zm-1.2 3.1v9.3c0 .3-.1.6-.3.8-.2.2-.5.3-.9.4-.4.1-.9.1-1.6.1l-.5-1.1c.3 0 .7.1 1.1.1.3 0 .6 0 .8-.1.2-.1.3-.2.3-.5v-2.4h-3.6v4.2h-1.1V271h5.8zm-4.9-7.7v4.6h1.7v-2.7h2.5v-1.9H188zm3.8 8.6h-3.6v2h3.6v-2zm-3.6 4.8h3.6v-1.9h-3.6v1.9zm2.3-10.7v1.9h1.6V266h-1.6zm14.5 14h1.2v1h-11.9v-1h3.6c-.2-.6-.5-1.3-.9-2.2l.9-.3c.5 1 .8 1.9 1 2.5h2.8l.7-1.4c.2-.5.4-.9.4-1.2l.9.4-.1.2c0 .1-.2.3-.4.9-.2.5-.4.9-.5 1.2h2.3zm-.1-8.4h-10.1v-.9h11.3v.9h-1.2zm-9.6-2.4v-6h2.9v-1.6c.3 0 .7 0 1.1.1v1.5h2v-1.6c.3 0 .6 0 1.1.1 0 .2-.1.4-.1.5v1h3v6h-10zm9.2 3.9v4h-8.4v-4h8.4zm-6.1-9.2h-2.1v1.8h2.1v-1.8zm-2.1 4.5h2.1v-1.9h-2.1v1.9zm.9 7.8h6.3v-2.3h-6.3v2.3zm4.1-12.3h-2.1v1.8h2.1v-1.8zm-2.1 4.5h2.1v-1.9h-2.1v1.9zm5.1-2.7v-1.8h-2.1v1.8h2.1zm-2.2 2.7h2.1v-1.9h-2.1v1.9zm7.3 6.7.8.2c0 .9 0 1.9-.2 3-.1 1.1-.3 2.2-.6 3.2l-.8-.5c.3-.8.5-1.8.6-2.9.2-1.2.2-2.2.2-3zm7.9-2.5v.4c0 1.8 0 3.2-.1 4.4 0 1.2-.2 2-.3 2.6-.2.6-.5.9-1 1.2-.5.2-1.1.3-1.9.3l-.5-1.2c.3.1.6.2 1 .2.2 0 .4 0 .6-.1s.4-.2.5-.3c.2-.1.3-.3.3-.6.1-.2.1-.5.2-.9s.1-1 .1-1.8v-3.3h-6.6v-11h7.8v.9h-3.2v2.5h2.5v.9h-2.5v2.4h2.5v.9h-2.5v2.6h3.1zm-4-9.2h-2.6v2.5h2.6v-2.5zm0 5.8v-2.4h-2.6v2.4h2.6zm-2.6 3.4h2.6V270h-2.6v2.6zm.4 2.7.7-.1c.2 1.4.4 3 .4 4.8l-.7.2c0-.7 0-1.5-.1-2.5s-.2-1.8-.3-2.4zm2.2-.3c.2.5.3 1.1.4 1.8.1.7.2 1.3.3 1.8l-.7.1c0-.3-.1-.7-.1-1.2l-.3-1.5c-.1-.5-.2-.8-.2-1h.6zm2.2 2.5-.6.2c0-.2-.1-.4-.1-.7-.1-.3-.2-1-.5-2.1l.6-.1c.1.4.3.9.4 1.3 0 .4.1.9.2 1.4zm7 2.4c-.4-.7-1-1.3-1.8-2-.4.8-.9 1.5-1.4 2.1-.5.6-1 1.2-1.6 1.5-.2-.3-.4-.6-.7-.8.6-.4 1.1-.9 1.7-1.6.5-.7 1-1.4 1.2-2.1.3-.7.5-1.4.6-1.9l1 .2-.1.2c-.1.2-.1.5-.3.8-.1.3-.2.6-.3.8.4.3.7.6 1.1 1l1 1-.4.8zm1.2-17.2c-.5.8-1.1 1.6-1.8 2.3s-1.4 1.4-2 1.9c-.6.5-1.2.9-1.6 1.2-.1-.2-.3-.5-.6-.9 1-.6 2.1-1.4 3.1-2.5s1.9-2.2 2.4-3.2l1.1.2c-.1.1-.1.1-.1.2.5 1 1.3 2 2.3 2.9s2 1.7 3 2.2c-.1.1-.2.3-.3.5s-.2.4-.2.5c-.9-.5-1.9-1.3-2.9-2.3-.9-.9-1.7-2-2.4-3zm-.8 6.8v5.2h-4.2v-5.2h4.2zm-3.2 4.3h2.2v-3.4h-2.2v3.4zm7-6.2h-6v-.9h6v.9zm-.6 9.8c.5.3 1 .7 1.6 1.2.6.5 1.2 1.1 1.9 1.7l-.6.9c-.4-.4-.8-.9-1.3-1.4-.5-.5-1.2-1.1-2-1.6-.2.3-.5.7-.8 1.1-.3.4-.7.8-1.1 1.3s-.8.7-1.2 1c-.1-.1-.3-.4-.6-.8.6-.4 1.2-.9 1.8-1.5.6-.7 1.1-1.4 1.4-2.1.3-.7.6-1.4.7-2l1 .2-.1.2c-.1.3-.2.6-.3 1-.1.3-.3.6-.4.8zm2.5-7.9v5.2h-4.3v-5.2h4.3zm-3.3 4.3h2.3v-3.4h-2.3v3.4zm16 .4c.4-.2.7-.6.9-1s.4-1 .4-1.7h-1.1v-2h2v1.4c0 .6-.1 1.2-.2 1.7-.2.5-.4 1-.7 1.3-.3.4-.6.6-1 .8l-.3-.5zM5 314.9v.8H3.8v-4.8c0-1.9.1-3.5.1-4.7-.5.6-1.1 1.2-1.6 1.7-.6.6-1.1 1-1.6 1.4l-.7-.9c.6-.4 1.3-1 1.9-1.6.7-.6 1.3-1.4 1.9-2.1v-1l.6.2c1-1.4 1.8-2.8 2.5-4.3H.4v-1.1h7c.4-1.1.8-2.2.9-3.3l1.2.3-.1.2c-.1.4-.2.8-.4 1.4s-.3 1.1-.5 1.4h11.4v1.1H8.1c-.4.9-.9 1.8-1.4 2.7-.6.9-1.1 1.8-1.7 2.6v10zm13.9-1.4h1.4v1.1H6.5v-1.1h6.3v-6.1H7.6v-1.1h5.3v-4.2h1.2v4.1h5.3v1.1H14v6.1h4.9zm18.3-1.8c1 .7 2.1 1.3 3.2 1.8 1.2.5 2.4.9 3.6 1.2-.3.4-.5.7-.6 1-1.8-.4-3.5-1.1-5.1-2s-2.9-1.9-4-3-2-2.3-2.7-3.6H28v6.9c1.7-.4 3.7-1 5.8-1.7v1.1c-.9.3-2.8.8-5.9 1.7-.4.1-.7.2-1 .3l-.4-1.1c.2-.1.4-.4.4-.9V307h-3.4v-1h4v-9.7H41v1H28.7v2.4h11.4v1H28.5v2.1h11.4v1H28.5v2.3h15.2v1H32.9c.8 1.4 2 2.7 3.4 3.9.4-.2.8-.5 1.4-.8.6-.4 1.1-.8 1.7-1.2s1-.8 1.3-1.1l.9.8-.2.1c-.5.4-1.2.9-2 1.5s-1.6 1-2.2 1.4zm21.4 2.6c1.4 0 2.9-.1 4.6-.2 1.7-.1 3-.2 4-.4l-.3 1.1c-.9.1-2.1.2-3.8.3-1.7.1-3.2.1-4.5.1-2.1 0-3.9-.3-5.4-.9-1.5-.6-2.5-1.5-3-2.7-.7 1.5-1.7 2.7-2.9 3.7-.2-.3-.5-.6-.8-.9.5-.3.9-.6 1.2-1 .3-.4.7-.8 1-1.2.3-.4.6-1 .9-1.8.3-.7.5-1.6.7-2.6h-2.6l-.2-1c.2-.1.4-.3.6-.5.3-.4.7-1 1.1-1.6.4-.6.7-1.2.9-1.6h-3.3v-1h3.9l.1-.1c.2.2.6.4.9.8l-.2.1c-.8 1.4-1.6 2.7-2.5 3.9h1.7l.1-.1.9.7-.2.1c-.2 1-.4 2-.7 2.9.1.4.3.8.6 1.2.3.4.6.7 1 1s.9.6 1.6.8c.6.3 1.4.4 2.3.6.6.3 1.4.3 2.3.3zm-8.4-14.2c-.3-.5-.8-1.1-1.3-1.8s-1-1.2-1.5-1.6l.8-.6c.4.4.8.8 1.4 1.5.5.6 1 1.2 1.4 1.8l-.8.7zm9.1-3.5c-.8 1.2-1.8 2.3-3.1 3.3-1.2 1-2.5 1.9-3.7 2.4-.1-.2-.3-.5-.7-1 1-.4 1.9-1 2.8-1.7s1.7-1.4 2.4-2.1c.7-.7 1.3-1.5 1.7-2.2l1.2.2-.1.2c.7 1.1 1.7 2.2 3.1 3.3 1.3 1.1 2.6 1.9 3.9 2.4-.3.5-.4.9-.5 1.1-1.3-.6-2.6-1.4-3.9-2.4s-2.2-2.3-3.1-3.5zm-3.7 10.2.9.6-.1.1c-.3.6-.7 1.3-1.3 2s-1.1 1.3-1.7 1.9l-.8-.8c.3-.2.7-.5 1-.9.4-.4.8-.9 1.1-1.4.5-.6.7-1 .9-1.5zm9.2-.9H60v5.1c0 .4-.1.7-.3.9-.2.2-.6.4-1.1.5s-1.1.1-1.9.1l-.6-1.2c.1 0 .3.1.6.1h.8c.4 0 .7 0 1-.1s.4-.3.4-.5v-4.9h-6.1v-1.1h6.1v-2.6h-3.6v-1h8.2v1H60v2.6h6.1v1.1h-1.3zm1.3 4.7c-.2.2-.3.3-.4.5l-.4.4c-.4-.6-.9-1.3-1.6-2-.6-.8-1.2-1.4-1.7-2l.8-.6c1.5 1.4 2.6 2.7 3.3 3.7zm11.6-6.6v4.8c0 1.3-.1 2.3-.1 3.1-.1.8-.2 1.4-.3 1.9-.2.6-.6 1.1-1.1 1.3s-1.1.4-1.9.4c0-.1 0-.2-.1-.3s-.2-.5-.4-1c.3.1.6.1.9.1.9 0 1.4-.4 1.6-1.1.1-.3.2-.8.2-1.5s.1-1.5.1-2.6v-3.9h-3c-.2 2.9-.6 5.1-1.1 6.9s-1.2 3-2 3.7c-.1-.1-.2-.3-.4-.5s-.3-.4-.4-.6c.4-.3.7-.7 1-1.2s.6-1.1.8-1.8c.2-.7.4-1.5.6-2.5.2-.9.3-2 .4-3.2s.2-2.3.2-3.3.1-1.7.1-2.1h-2.4v-1.1h8.2v1.1h-4.7c0 1.2-.1 2.4-.1 3.5h3.9zm-2.2-5.3-1 .4c-.2-.5-.4-1.1-.7-1.7-.3-.6-.6-1.2-.9-1.6l1-.4c.2.3.4.8.7 1.4s.7 1.2.9 1.9zm13 1h-7.3l-1.2 1.8c-.5.6-.9 1.1-1.4 1.6-.2-.3-.4-.7-.7-.9.4-.4.9-.9 1.4-1.6.5-.7 1-1.5 1.5-2.4.5-.9.8-1.9 1.1-2.8l1.1.3-.1.2c-.3 1-.7 2-1.2 2.9h7.9v1.1c-.3-.2-.6-.2-1.1-.2zm-2.8 9.2c.4 1.1 1 2.1 1.7 3s1.6 1.8 2.7 2.7c-.5.6-.7.9-.7 1-.9-.8-1.7-1.6-2.4-2.4-.7-.8-1.2-1.7-1.7-2.6-.4-.9-.8-1.9-1.1-3s-.5-2.3-.6-3.6c-.9.2-1.7.3-2.3.3v9.8c.5-.3 1.1-.6 1.8-1s1.3-.8 1.6-1v1.2c-.4.3-1 .6-1.7 1.1-.8.5-1.4.8-1.9 1.1-.3.2-.6.3-.8.5l-.5-1.1c.2-.2.4-.5.4-.9v-10.8l.7.3c1.2-.1 2.5-.3 3.9-.6s2.5-.7 3.5-1.1l.7.9-.5.1c-1.3.4-2.6.8-3.9 1.1.1.8.2 1.6.3 2.3s.3 1.4.5 2c.6-.3 1.2-.7 1.9-1.1.7-.5 1.2-.9 1.5-1.2l.8.8-.2.1c-1 .5-2.2 1.3-3.7 2.1zm12.6-5.6v12.4h-1.2V311c0-2 .1-4.2.1-6.6-.3.9-.7 1.9-1.1 2.9-.5 1-.9 1.9-1.4 2.7-.5.8-1 1.4-1.4 1.9-.2-.4-.4-.7-.6-1 .4-.4.8-.9 1.3-1.6.5-.7 1-1.6 1.5-2.7s1-2.2 1.3-3.3h-3.6v-1.1h3.9v-3.9c-.8.2-1.4.4-1.9.6s-.9.2-1.1.2l-.4-1c1.1-.2 2.2-.5 3.5-.9 1.2-.4 2.3-.9 3.1-1.3l.7.8c-.2 0-.3.1-.4.1-.6.3-1.4.6-2.4 1v4.3h3v1.1h-2.9zm3.2 5.2-.7.6c-.6-1.2-1.4-2.4-2.3-3.6.3-.2.5-.4.7-.5.8 1 1.5 2.1 2.3 3.5zm10.4 5.2h1.3v1.1h-12.7v-1.1h5.9v-3.2h-3.8v-1h3.8v-3c-1 .1-2.3.2-4.2.3l-.3-1c.8 0 1.6 0 2.5-.1.9-.1 1.7-.1 2.5-.2s1.6-.2 2.3-.3c.7-.1 1.4-.3 2-.4 0 0 .3.3.8.9l-.5.1c-1.2.3-2.5.5-4 .6v3.1h4.1v1h-4.1v3.2h4.4zm-9-10.4v-6.1h8.6v6.1h-8.6zm7.4-5.2H104v4.2h6.3v-4.2zm24.7 2.5v9h-1.2V308h-6.9v7.8h-1.3V308h-6.7v1.5h-1.2v-9.7h8v-4.6c.6 0 1 0 1.2.1v4.5h8.1v.8zm-16.1 6.4h6.7v-6.2h-6.7v6.2zm8 0h6.9v-6.2h-6.9v6.2zm21.5 1.2c.4-.2.7-.6.9-1s.4-1 .4-1.7h-1.1v-2h2v1.4c0 .6-.1 1.2-.2 1.7-.2.5-.4 1-.7 1.3-.3.4-.6.6-1 .8l-.3-.5zm18.4-4.7c.5.5.9 1.1 1.2 1.7.4.6.6 1.2.7 1.8.1.6.2 1.1.2 1.4 0 .7-.1 1.3-.3 1.8-.2.6-.5 1-1 1.3-.4.3-1 .4-1.6.4-.1-.3-.3-.7-.6-1.2.2.1.5.1.8.1.5 0 .8-.2 1.2-.7.3-.5.5-1.1.5-1.9 0-.6-.1-1.2-.3-1.8-.2-.6-.5-1.2-.9-1.7s-.7-.9-1-1.2c0-.1.1-.2.2-.5.1-.2.3-.8.6-1.8s.8-2.4 1.3-4.2h-3v18.4h-1.1V296h4.2l.1-.2c.4.3.7.5 1 .8l-.2.1c-.9 3.7-1.7 5.9-2 6.8zm10.1 10.7c1.9 0 4-.1 6.3-.3l-.3 1.1c-2.5.2-4.5.3-6.1.3-1.1 0-2-.1-2.7-.3-.7-.2-1.3-.5-1.7-.9-.4-.4-.8-.9-1-1.5-.3.6-.7 1.2-1.2 1.7-.4.5-.9 1-1.4 1.4-.2-.3-.4-.6-.7-.9.4-.3.8-.7 1.2-1.1.4-.4.8-.9 1.1-1.5.3-.6.6-1.2.9-1.9.3-.7.5-1.5.6-2.3h-2.4l-.2-.9c.2-.1.4-.2.6-.5.3-.4.6-.9 1-1.5.4-.7.7-1.2.9-1.7h-2.7v-1h3l.1-.2c.3.2.6.5.9.8l-.2.1c-.8 1.6-1.5 2.9-2.2 3.9h1.5l.1-.1s.1.1.3.2l.5.5-.2.1c-.3 1.5-.7 2.8-1.2 3.9.2.9.7 1.6 1.5 2s2.1.6 3.7.6zm-4.4-14.7-.9.5c-.2-.6-.5-1.1-.9-1.8-.4-.6-.7-1.2-1.1-1.8l.9-.4c.2.2.3.5.6.8.2.3.5.7.7 1.2s.5 1.1.7 1.5zm3.1-1.2h-2.5v-.9h2.9c.1-.3.3-.6.4-1 .1-.4.2-.7.3-1l1 .2-.1.2c-.1.5-.3 1-.6 1.7h6v.9h-6.4c-.4.8-1 1.5-1.6 2.2-.6.7-1.3 1.2-2 1.6-.1-.2-.3-.4-.6-.8.5-.2.9-.5 1.3-.9s.8-.7 1.1-1.1c.4-.4.6-.8.8-1.1zm7.4 4.8h-8.5v-.8h3.6v-1.8h-2.4v-.8h6.5v.8h-3.1v1.8h3.9v.8zm-1.1 1.4v7c0 .5-.2.8-.6 1s-1.2.3-2.4.3l-.5-1.1h1.2c.4 0 .7 0 .9-.1s.3-.2.3-.5v-1.5h-4.9v3.1h-1.1v-8.4h7.1zm-1.1.8h-4.9v1.5h4.9v-1.5zm-4.9 3.8h4.9v-1.5h-4.9v1.5zm16.5-12v15.3h-1.1v-1.2h-3.5v2.3h-1.1v-16.4h5.7zm-1.1 1h-3.5v5.3h3.5v-5.3zm-3.5 12.1h3.5v-5.8h-3.5v5.8zm16.9-6.4h-11.4v-1.1h5.7v-3.3h-4.9v-1h4.9v-2.9c.3 0 .7 0 1.2.1v2.9h4.9v1h-4.9v3.3h5.9v1.1c-.4-.1-.8-.1-1.4-.1zm.2 3.2h1.3v1.1h-3v5.8c0 .5-.1.9-.4 1.1-.3.2-.8.4-1.4.5s-1.5.1-2.6.1l-.7-1.2c.2 0 .5.1.9.1h1.1c.6 0 1-.1 1.4-.2s.5-.3.5-.7V308h-8.5v-1.1h8.5v-2.6h1.2v2.6h1.7zm-9.3 2.1c.6.4 1.2.9 1.7 1.4l1.4 1.4-.9.8c-.3-.5-.8-1-1.4-1.5-.6-.6-1.1-1-1.6-1.4l.8-.7zm17.6-5.4-.6.9c-.5-.4-1-.9-1.7-1.3-.6-.5-1.2-.8-1.7-1.1l.6-.9c.5.3 1 .6 1.7 1.1s1.2.9 1.7 1.3zm-3.4 10.3c.5-.8 1.1-1.8 1.7-3.2.7-1.4 1.2-2.5 1.5-3.2l.8 1c-.3.7-.8 1.7-1.4 3s-1.2 2.3-1.6 3l-.4.8-1-.9.4-.5zm.4-17.3.7-.9c.5.3 1 .7 1.7 1.2.6.5 1.2.9 1.7 1.4l-.6.9c-.5-.5-1.1-1-1.7-1.4-.8-.6-1.4-.9-1.8-1.2zm18.8.6h.8v1h-3.7v2.8h-3.4v1.9h6v11.1c0 .5-.2.8-.6 1-.4.2-1.2.3-2.2.3-.1-.3-.3-.7-.5-1.1.3 0 .7.1 1.2.1.3 0 .6 0 .8-.1.2-.1.3-.2.3-.4V304h-4.9v11.4h-1.1V304h-4.9v11.7h-1.1V303h5.9v-1.9h-3.5v-2.8h-3.4v-1h3.4v-1.9c.3 0 .6 0 1.1.1v1.8h5.8v-1.9c.5 0 .9 0 1.1.1v1.9h2.9zm-9.1 8.9c0 .7.1 1.4.2 2.2.1.8.3 1.5.5 2.1.2.6.4 1.1.7 1.5l-.6.6c-.5-.8-.9-2-1.2-3.6-.2.8-.4 1.5-.7 2.2-.3.6-.6 1.1-.9 1.5-.2-.2-.4-.5-.6-.6.4-.5.8-1.2 1.1-2s.5-1.9.7-3h-1.3v-.9h2.1zm-.6-5.9h5.8v-2h-5.8v2zm7.2 12.2c-.5-.8-.9-2-1.2-3.6-.2.8-.4 1.6-.7 2.2-.3.6-.6 1.1-.9 1.5-.2-.2-.4-.5-.6-.6.4-.4.8-1.1 1.1-1.9.3-.9.6-1.9.7-3h-1.4v-.9h2.1c0 .6.1 1.3.2 2.1.1.7.3 1.4.4 2.1.2.6.4 1.1.7 1.5l-.4.6zm25.3-2.8c.5.5.7.8.8.9l.2.2c0 1.1-.1 2-.3 2.7-.2.7-.4 1.2-.6 1.6-.3.4-.6.6-1.1.6-.4 0-.8-.1-1.2-.4-.4-.3-.8-.7-1.1-1.2-.3-.5-.7-1.2-1-2-1.2 1.5-2.8 2.7-4.6 3.7-.2-.3-.4-.6-.7-.9 1.9-.9 3.5-2.2 4.9-4-.3-1.1-.6-2.5-.9-4.1s-.5-3.4-.6-5.3h-12.9v-1h5.1v-2.2h-4v-1h4v-1.8c.5 0 .9 0 1.1.1v1.8h4.7v1h-4.7v2.2h6.8c-.1-1.7-.1-3-.2-4l-.1-.9s.2 0 .6.1.6.1.6.1v.7c0 1.6.1 2.9.2 4h6v1h-5.9c.1 1.7.3 3.2.5 4.6s.4 2.6.7 3.6c.6-.9 1.1-2 1.5-3.1.4-1.1.7-2.3 1-3.5l1 .6-.1.1c-.7 3-1.7 5.4-3 7.2.2.6.4 1.2.7 1.7.3.5.6 1 .9 1.3.3.3.7.5.9.5.3 0 .6-.4.7-1.2 0-1.1.1-2.2.1-3.7zm-13 3.5v2.5h-1.1v-2.5h-5.1v-.9h5.1V311H234v-5.5h3.8v-1.4H233v-.9h4.8v-1.5h1.1v1.5h4.9v.9h-4.9v1.4h3.9v5.5h-3.9v1.4h4.8v.9h-4.9zm-1-7h-2.7v1.6h2.7v-1.6zm-2.7 2.3v1.7h2.7v-1.7h-2.7zm6.6-.7v-1.6h-2.9v1.6h2.9zm-2.9 2.4h2.9v-1.7h-2.9v1.7zm11.8-10.8c-.3-.4-.6-.9-1.1-1.5l-1.4-1.4.8-.6c.5.4 1 .9 1.5 1.4.5.5.9 1 1.1 1.4l-.9.7zm14.6.3h-7.8v3.9h-1.2v-4.9h9V297h-8v-1h17.2v1h-8.1v1.8h9.1v4.9h-1.1v-3.9h-7.9v5.2h-1.2v-5.3zm9.7 11.6c.1.1.3.2.4.3l.6.3c-.1 1-.3 1.8-.6 2.3-.4.5-.9.8-1.7 1.1-.8.2-1.9.3-3.3.3s-2.4 0-3-.1c-.6 0-1.1-.1-1.3-.3-.3-.2-.5-.4-.6-.6-.1-.3-.2-.7-.2-1.1v-.8h-5.7v1.6h-1.1v-8.2h14.8v6.5h-7v.8c0 .5.2.9.7 1 .5.1 1.7.1 3.5.1 1.5 0 2.7-.2 3.4-.6.4-.2.6-.5.8-.9.2-.4.3-1 .3-1.7zm-11.5-10v.8H259v-.8h4.4zm-3.6 2.3h3.6v.8H259v-.8h.8zm5.4 3.3h-5.7v2h5.7v-2zm-5.7 4.8h5.7v-2h-5.7v2zm12.7-2.8v-2h-5.9v2h5.9zm-6 2.8h5.9v-2h-5.9v2zm6.1-10.4v.8h-4.5v-.8h4.5zm-3.6 2.3h3.7v.8h-4.5v-.8h.8zm16.4-5.7.9-.5c.3.3.6.8 1 1.3s.8 1.1 1.1 1.7c.3.6.6 1 .7 1.3l-1 .5-.6-1.2c-.6.1-1.8.2-3.7.4-1.9.2-3 .3-3.5.3h-.7l-.2-1.1c.1 0 .2-.1.4-.2s.4-.4.7-.7c.3-.3.6-.8 1-1.4.4-.6.8-1.1 1.1-1.7.3-.5.5-.9.6-1.3l1.1.4s-.1.1-.1.2c-.2.5-.6 1.1-1 1.7-.4.6-.8 1.2-1.2 1.7-.4.5-.7.9-1 1.1 1.7-.1 3.7-.3 5.8-.5-.3-.4-.5-.8-.8-1.2-.1-.2-.4-.5-.6-.8zm2.6 6.6v9.3c0 .4-.1.6-.3.9-.2.2-.6.4-1.1.5-.5.1-1.2.1-2.1.1-.2-.4-.3-.7-.6-1.1.4.1.9.1 1.5.1.4 0 .8 0 1-.1.3-.1.4-.3.4-.5v-2.5h-5.2v4.3h-1.2v-11.6h7.4l.2.6zm-1 .3h-5.2v2.2h5.2v-2.2zm-5.3 5.4h5.2v-2.3h-5.2v2.3zm9.4-6.2c-.2-.1-.4-.3-.5-.6-.1-.3-.1-.6-.1-1.1v-6.8l1.2.1v3.5c.9-.3 2-.7 3.2-1.2s2-.9 2.4-1.2l.6.9-.2.1c-.3.2-.7.4-1.4.7-.6.3-1.4.6-2.3.9-.9.3-1.7.6-2.4.8v2.3c0 .3 0 .4.1.6.1.1.2.2.4.2.3.1 1.1.1 2.5.1.6 0 1.1 0 1.5-.1.4-.1.7-.2.9-.3.2-.1.3-.3.4-.5s.2-.5.2-.7.1-.6.1-.9l1.1.6c-.1 1-.3 1.6-.7 2-.4.4-.9.6-1.5.8-.6.1-1.3.2-2.2.2-.9 0-1.7 0-2.2-.1s-.9-.1-1.1-.3zm7 7.3c.5.3.9.5 1.1.6 0 .6-.1 1-.3 1.4-.1.4-.4.7-.7 1-.3.2-.8.4-1.3.6-.6.1-1.3.2-2.2.2-1.2 0-2 0-2.5-.1s-.8-.1-1-.3c-.2-.1-.4-.3-.5-.6-.1-.3-.2-.7-.2-1.1v-7.5l1.2.1v3.6c1-.3 2.1-.8 3.4-1.4 1.3-.6 2.2-1 2.7-1.3l.6.9-.3.1c-.6.4-1.6.8-2.9 1.4-1.4.6-2.5 1-3.5 1.3v2.8c0 .5.2.7.6.9.3.1 1.1.1 2.6.1.6 0 1.2 0 1.6-.1.4-.1.7-.2 1-.4.3-.2.5-.4.6-.8-.1-.3 0-.8 0-1.4zm14.4-2.8c-.5 0-1-.1-1.4-.4-.4-.2-.8-.6-1.1-1.1-.3-.5-.4-1-.4-1.5s.1-1 .4-1.4c.2-.4.6-.8 1.1-1.1s1-.4 1.5-.4 1 .1 1.4.4c.4.2.8.6 1.1 1.1.3.5.4 1 .4 1.5s-.1 1-.4 1.4-.6.8-1.1 1.1c-.5.3-1 .4-1.5.4zm0-.8c.6 0 1.1-.2 1.5-.6s.6-.9.6-1.5-.2-1.1-.6-1.5-.9-.6-1.5-.6-1.1.2-1.5.6-.6.9-.6 1.5.2 1.1.6 1.5.9.6 1.5.6z" style="fill:#1a1a1a"/>
    <path d="M282.7 265.1c24.1-28 38.7-64.5 38.7-104.4C321.4 72.2 249.7.5 161.2.5S1 72.2 1 160.7c0 39.9 14.6 76.4 38.7 104.4" style="fill:none;stroke:#1a1a1a;stroke-width:.9645;stroke-linecap:round;stroke-linejoin:round;stroke-miterlimit:10"/>
    <g style="opacity:.6">
        <path d="M116.5 180.3c-1 0-1.9-.1-2.7-.1H93.2c-6.8 0-11.4-4.6-11.4-11.5V74.1c0-6.8 4.6-11.3 11.5-11.4h14.3c.2-1.6.3-2.9.6-4.2.8-2.7 3.1-4.4 6.1-4.5 2.2-.1 4.3 0 6.5 0 6.4 0 8.4 1.9 8.8 8.7 3.6 0 7.3.2 10.9 0 10.9-.8 15.3 4.7 15.2 15-.4 30-.1 60-.1 89.9 0 8.3-4.2 12.6-12.5 12.6H121l-4.5.1zm34.8-58.9V75c0-5.5-2.4-7.9-8-7.9H94.1c-5.7 0-8.1 2.3-8.1 8.1v92.6c0 5.7 2.4 8 8.1 8H143c5.9 0 8.2-2.3 8.2-8.2.1-15.4.1-30.8.1-46.2zm-26.2-58.8c.1-3.8-.3-4.2-3.7-4.2h-5.7c-3.3 0-3.8.6-3.4 4.2h12.8zm65-8.3c-4.6 0-8.3 3.7-8.3 8.3v19.2h-6.2c-1.6 0-2.9 1.3-2.9 2.9V99c0 1.6 1.3 2.9 2.9 2.9H238c1.6 0 2.9-1.3 2.9-2.9V84.7c0-1.6-1.3-2.9-2.9-2.9h-6.2V62.7c0-4.6-3.7-8.3-8.3-8.3s-8.3 3.7-8.3 8.3v19.2h-16.6V62.7c-.1-4.6-3.9-8.4-8.5-8.4zm36 27.5h-5.3V62.7c0-1.5 1.2-2.6 2.6-2.6 1.5 0 2.6 1.2 2.6 2.6v19.1zm-41.5 5.7h50.5v8.6h-56.7v-8.6h6.2zm5.5-27.5c1.5 0 2.6 1.2 2.6 2.6v19.2h-5.3V62.7c.1-1.5 1.3-2.7 2.7-2.7z"/>
        <path d="M206.8 146.4c14.6 0 26.4-11.8 26.4-26.4V99h-52.8v21c0 14.6 11.8 26.4 26.4 26.4z"/>
        <path d="M212.1 152.7c0 15.1-12.3 27.5-27.5 27.5h-43.4v-2.8l8.5-1.7 2.6-6.2h32.3c9.3 0 16.8-7.6 16.8-16.8v-7.2H212v7.2z"/>
        <text transform="translate(188.738 126.957)" style="letter-spacing:2;font-size:22.2867px;font-family:&quot;GillSans-SemiBold&quot;;fill:#fff">DC</text>
        <path d="M118.7 104.4c-9.4 0-17.1 7.6-17.1 17.1 0 9.5 7.6 17.1 17.1 17.1 9.4 0 17.1-7.6 17.1-17.1.1-9.5-7.7-17.1-17.1-17.1zm-2.2 30.3 2-11.1c0-.2-.1-.4-.4-.4h-4.8c-.2 0-.4-.2-.3-.5l4-14.7c0-.2.2-.3.3-.3h6.4c.3 0 .4.3.3.5l-4.7 9.4c-.1.2.1.5.3.5h5.6c.3 0 .4.3.3.5l-8.4 16.2c-.1.5-.7.3-.6-.1z"/>
        <path d="M139.6 100.7H98c-2.3 0-4.1-1.9-4.1-4.1V80.2c0-2.3 1.9-4.1 4.1-4.1h41.5c2.3 0 4.1 1.9 4.1 4.1v16.3c.1 2.3-1.7 4.2-4 4.2zm0 33.4H98c-2.3 0-4.1-1.9-4.1-4.1v-16.3c0-2.3 1.9-4.1 4.1-4.1h41.5c2.3 0 4.1 1.9 4.1 4.1V130c.1 2.2-1.7 4.1-4 4.1zm0 34.6H98c-2.3 0-4.1-1.9-4.1-4.1v-16.3c0-2.3 1.9-4.1 4.1-4.1h41.5c2.3 0 4.1 1.9 4.1 4.1v16.3c.1 2.2-1.7 4.1-4 4.1z" style="fill:none;stroke:#000;stroke-width:3.8981;stroke-miterlimit:10"/>
    </g>
</svg>
